<?xml version="1.0" encoding="UTF-8"?>
<svg width="100pt" height="100pt" version="1.1" viewBox="0 0 100 100" xmlns="http://www.w3.org/2000/svg">
 <g>
  <path d="m50 25c-6.6289 0-12.988 2.6328-17.676 7.3242-4.6914 4.6875-7.3242 11.047-7.3242 17.676s2.6328 12.988 7.3242 17.676c4.6875 4.6914 11.047 7.3242 17.676 7.3242s12.988-2.6328 17.676-7.3242c4.6914-4.6875 7.3242-11.047 7.3242-17.676s-2.6328-12.988-7.3242-17.676c-4.6875-4.6914-11.047-7.3242-17.676-7.3242zm0 33.332c-3.3711 0-6.4102-2.0273-7.6992-5.1445-1.2891-3.1133-0.57812-6.6953 1.8086-9.0781 2.3828-2.3867 5.9648-3.0977 9.0781-1.8086 3.1172 1.2891 5.1445 4.3281 5.1445 7.6992 0 2.2109-0.875 4.3281-2.4414 5.8906-1.5625 1.5664-3.6797 2.4414-5.8906 2.4414z"/>
  <path d="m50 91.668c-11.051 0-21.648-4.3906-29.461-12.207-7.8164-7.8125-12.207-18.41-12.207-29.461s4.3906-21.648 12.207-29.461c7.8125-7.8164 18.41-12.207 29.461-12.207s21.648 4.3906 29.461 12.207c7.8164 7.8125 12.207 18.41 12.207 29.461s-4.3906 21.648-12.207 29.461c-7.8125 7.8164-18.41 12.207-29.461 12.207zm0-75c-8.8398 0-17.32 3.5117-23.57 9.7617s-9.7617 14.73-9.7617 23.57 3.5117 17.32 9.7617 23.57 14.73 9.7617 23.57 9.7617 17.32-3.5117 23.57-9.7617 9.7617-14.73 9.7617-23.57-3.5117-17.32-9.7617-23.57-14.73-9.7617-23.57-9.7617z"/>
 </g>
</svg>
