<?xml version="1.0" encoding="UTF-8"?>
<svg width="100pt" height="100pt" version="1.1" viewBox="0 0 100 100" xmlns="http://www.w3.org/2000/svg">
 <g>
  <path d="m50 93.75h-0.003906c-5.7422 0-11.328-1.0977-16.602-3.2656-2.5352-1.0391-4.9883-2.332-7.2891-3.8359-2.2773-1.4844-4.4297-3.1953-6.3906-5.0859-0.375-0.35938-0.58984-0.84766-0.60156-1.3672-0.007812-0.52344 0.18359-1.0156 0.54688-1.3906 0.37109-0.38672 0.87109-0.60156 1.4062-0.60156 0.50781 0 0.98438 0.19531 1.3516 0.54297 7.4531 7.1562 17.25 11.098 27.582 11.098 10.641 0 20.648-4.1484 28.172-11.672s11.672-17.531 11.672-28.172c0-9.1992-3.0469-17.84-8.8047-24.988-0.28125-0.34375-0.43359-0.78125-0.43359-1.2227 0-0.59375 0.26562-1.1484 0.72656-1.5234 0.34766-0.28125 0.78125-0.42969 1.2266-0.42969 0.59375 0 1.1484 0.26562 1.5234 0.72656 3.0664 3.8047 5.457 8.0547 7.1016 12.637 1.7031 4.7422 2.5664 9.7227 2.5664 14.801 0 2.9688-0.29688 5.9375-0.89062 8.8164-0.57812 2.8125-1.4336 5.5703-2.5508 8.2109-1.0977 2.5938-2.4531 5.0938-4.0352 7.4336-1.5664 2.3164-3.3594 4.4922-5.3438 6.4727-1.9805 1.9805-4.1562 3.7773-6.4727 5.3438-2.3398 1.5781-4.8398 2.9375-7.4336 4.0352-2.6406 1.1172-5.4023 1.9727-8.2109 2.5508-2.875 0.58984-5.8438 0.88672-8.8125 0.88672zm-35.133-19.148c-0.66406 0-1.2812-0.33594-1.6406-0.89062-0.58594-0.90625-0.32031-2.1172 0.58203-2.6992 0.31641-0.20312 0.67969-0.3125 1.0547-0.3125 0.66797 0 1.2812 0.33594 1.6406 0.89062 0.28125 0.4375 0.37891 0.96094 0.26953 1.4688-0.10938 0.50781-0.41406 0.94531-0.84766 1.2305-0.31641 0.20313-0.68359 0.3125-1.0586 0.3125zm-4.2969-8.7461c-0.82812 0-1.5664-0.52344-1.8438-1.3047-1.6406-4.6602-2.4766-9.5586-2.4766-14.551 0-2.9688 0.29688-5.9375 0.89062-8.8203 0.57812-2.8086 1.4336-5.5703 2.5469-8.2109 1.0977-2.5938 2.4531-5.0938 4.0352-7.4297 1.5625-2.3164 3.3594-4.4961 5.3438-6.4766 1.9805-1.9805 4.1562-3.7773 6.4766-5.3438 2.3359-1.5781 4.8398-2.9375 7.4297-4.0352 2.6406-1.1172 5.4023-1.9727 8.2109-2.5469 2.8789-0.58984 5.8477-0.88672 8.8164-0.88672h0.003906c3.1641 0 6.3203 0.33984 9.3828 1.0078 2.9844 0.65234 5.9062 1.625 8.6875 2.8867 0.98047 0.44531 1.4141 1.6055 0.96875 2.5859-0.31641 0.69531-1.0156 1.1484-1.7812 1.1484-0.28125 0-0.55078-0.058594-0.80469-0.17578-5.1836-2.3516-10.719-3.5469-16.457-3.5469-10.641 0-20.648 4.1445-28.172 11.672-7.5273 7.5234-11.672 17.531-11.672 28.172 0 4.5469 0.75781 9.0039 2.2578 13.25 0.074219 0.21094 0.10938 0.42969 0.10938 0.64844 0 0.82812-0.52344 1.5664-1.3047 1.8438-0.21094 0.078124-0.42969 0.11328-0.64844 0.11328zm65.031-46.941c-0.4375 0-0.84766-0.14062-1.1953-0.41016-0.85156-0.66016-1.0078-1.8906-0.34375-2.7422 0.37109-0.48047 0.9375-0.75781 1.543-0.75781 0.4375 0 0.85156 0.14062 1.1953 0.41406h0.003907c0.41016 0.32031 0.67187 0.78125 0.73828 1.2969 0.0625 0.51562-0.074219 1.0312-0.39453 1.4414-0.375 0.48438-0.9375 0.75781-1.5469 0.75781z"/>
  <path d="m49.945 67.312c-2.3086 0-4.5547-0.46094-6.668-1.3594-2.0391-0.86719-3.8789-2.1094-5.4531-3.6875-1.5781-1.5781-2.8203-3.4141-3.6875-5.4531-0.89844-2.1172-1.3555-4.3594-1.3594-6.668 0-2.3281 0.45703-4.5938 1.3555-6.7227 0.86719-2.0547 2.1094-3.9023 3.6875-5.4922 1.5781-1.5859 3.4141-2.8281 5.457-3.7031 2.1172-0.90234 4.3594-1.3594 6.6719-1.3594 2.332 0 4.5938 0.45703 6.7266 1.3594 2.0547 0.86719 3.9023 2.1172 5.4883 3.7031 1.5859 1.5859 2.832 3.4336 3.7031 5.4922 0.90234 2.1289 1.3594 4.3906 1.3594 6.7266 0 2.3125-0.46094 4.5547-1.3594 6.668-0.87109 2.0469-2.1172 3.8828-3.7031 5.4609-1.5898 1.5781-3.4375 2.8203-5.4922 3.6875-2.1328 0.89062-4.3945 1.3477-6.7266 1.3477zm0-30.535c-3.5234 0-6.8438 1.3906-9.3594 3.9102-2.5156 2.5312-3.9023 5.8906-3.9023 9.457 0 3.5195 1.3828 6.8438 3.8984 9.3594 2.5195 2.5156 5.8438 3.8984 9.3594 3.8984 3.5625 0 6.9258-1.3867 9.457-3.9023 2.5234-2.5117 3.9102-5.8359 3.9102-9.3594 0-3.5703-1.3906-6.9258-3.9141-9.4531-2.5234-2.5195-5.8789-3.9102-9.4492-3.9102z"/>
  <path d="m49.945 42.969c-1.0781 0-1.9531-0.875-1.9531-1.9531v-23.336c0-1.0781 0.875-1.9531 1.9531-1.9531 1.0781 0 1.9531 0.875 1.9531 1.9531v23.336c0 1.0781-0.875 1.9531-1.9531 1.9531z"/>
  <path d="m44.922 23.438c-0.61719 0-1.1875-0.28125-1.5586-0.77344-0.3125-0.41406-0.44922-0.92969-0.37891-1.4453s0.33984-0.97656 0.75781-1.2891l5.0234-3.8047c0.34375-0.25781 0.75-0.39453 1.1797-0.39453 0.61719 0 1.1875 0.28125 1.5586 0.77344 0.64844 0.85938 0.48047 2.0859-0.37891 2.7344l-5.0234 3.8047c-0.34375 0.25781-0.75 0.39453-1.1797 0.39453z"/>
  <path d="m54.688 23.438c-0.44531 0-0.86719-0.14844-1.2188-0.42969l-4.7422-3.8047c-0.83984-0.67578-0.97656-1.9062-0.30078-2.7461 0.37109-0.46484 0.92969-0.73438 1.5234-0.73438 0.44922 0 0.87109 0.14844 1.2188 0.42969l4.7422 3.8047c0.40625 0.32812 0.66406 0.78906 0.71875 1.3125 0.054688 0.51562-0.09375 1.0273-0.41797 1.4375-0.375 0.46484-0.92969 0.73047-1.5234 0.73047z"/>
  <path d="m78.125 68.383c-0.35547 0-0.70312-0.097656-1.0039-0.28125l-19.531-11.742c-0.44531-0.26953-0.76562-0.69531-0.89062-1.1992-0.125-0.50781-0.046875-1.0312 0.21875-1.4766 0.35547-0.59375 0.98438-0.94531 1.6758-0.94531 0.35156 0 0.69922 0.09375 1.0039 0.28125l19.531 11.742c0.92578 0.55469 1.2227 1.7578 0.66797 2.6797-0.35547 0.58984-0.98047 0.94141-1.6719 0.94141z"/>
  <path d="m78.125 68.383c-0.84375 0-1.5898-0.53906-1.8516-1.3398l-1.9531-5.8828c-0.16406-0.49609-0.125-1.0234 0.10938-1.4922 0.23437-0.46875 0.63281-0.8125 1.1328-0.97656 0.19922-0.066406 0.40625-0.10156 0.61719-0.10156 0.84375 0 1.5898 0.53906 1.8516 1.3359l1.9531 5.8828c0.16406 0.49219 0.125 1.0234-0.10938 1.4922s-0.63672 0.8125-1.1328 0.98047c-0.20313 0.070312-0.41016 0.10156-0.61719 0.10156z"/>
  <path d="m72.266 70.312c-0.84375 0-1.5938-0.53906-1.8555-1.3438-0.33594-1.0234 0.22266-2.1289 1.2422-2.4688l5.8594-1.9258c0.19922-0.066407 0.40234-0.10156 0.60938-0.10156 0.84375 0 1.5898 0.53906 1.8555 1.3438 0.33594 1.0195-0.22266 2.1289-1.2422 2.4688l-5.8594 1.9258c-0.19922 0.070312-0.40234 0.10156-0.60938 0.10156z"/>
  <path d="m21.875 68.383c-0.6875 0-1.3086-0.35156-1.6641-0.93359-0.5625-0.91797-0.27344-2.1211 0.64062-2.6875l19.141-11.742c0.30859-0.1875 0.66016-0.28906 1.0195-0.28906 0.6875 0 1.3086 0.34766 1.6641 0.92969 0.5625 0.91797 0.27344 2.125-0.64062 2.6875l-19.141 11.742c-0.30859 0.19531-0.66016 0.29297-1.0195 0.29297z"/>
  <path d="m27.344 70.312c-0.21875 0-0.4375-0.039062-0.64844-0.10938l-5.4688-1.9258c-0.49219-0.17188-0.89062-0.53125-1.1133-1-0.22266-0.46875-0.25391-1-0.078125-1.4922 0.27344-0.78125 1.0156-1.3047 1.8438-1.3047 0.21875 0 0.4375 0.039062 0.64844 0.11328l5.4688 1.9258c0.48828 0.17578 0.88672 0.52734 1.1094 1 0.22266 0.46875 0.25391 1 0.078125 1.4922-0.27344 0.77734-1.0156 1.3008-1.8398 1.3008z"/>
  <path d="m21.875 68.383c-0.17188 0-0.33594-0.023437-0.50391-0.066406-1.0391-0.27344-1.6641-1.3477-1.3867-2.3906l1.5625-5.8828c0.22656-0.85547 1.0039-1.4531 1.8867-1.4531 0.17188 0 0.33594 0.019531 0.50391 0.0625 1.0391 0.27734 1.6641 1.3516 1.3828 2.3906l-1.5625 5.8828c-0.22266 0.85938-1 1.457-1.8828 1.457z"/>
  <path d="m49.797 76.309c-0.33984 0-0.67969-0.089844-0.97656-0.26172l-20.992-12.117c-0.60156-0.34766-0.97656-0.99609-0.97656-1.6914v-24.473c0-0.69531 0.375-1.3438 0.97656-1.6914l21.195-12.238c0.59375-0.34375 1.3594-0.34375 1.9531 0l21.195 12.234c0.60156 0.34766 0.97656 0.99609 0.97656 1.6914v24.473c0 0.69531-0.375 1.3438-0.97656 1.6914l-4.4805 2.5859c-0.29688 0.17188-0.63281 0.26172-0.97656 0.26172-0.69531 0-1.3438-0.375-1.6953-0.97656-0.25781-0.45312-0.32812-0.97656-0.19531-1.4844 0.13281-0.50391 0.46094-0.92578 0.91016-1.1836l3.5078-2.0234v-22.215l-19.242-11.109-19.242 11.109v22.219l20.016 11.555c0.93359 0.53906 1.2539 1.7344 0.71484 2.668-0.34766 0.60156-0.99609 0.97656-1.6914 0.97656zm8.4609-4.6484c-0.69531 0-1.3438-0.375-1.6953-0.97656-0.53906-0.93359-0.21484-2.1289 0.71484-2.668 0.29688-0.17188 0.63281-0.26172 0.97656-0.26172 0.69531 0 1.3438 0.375 1.6953 0.97656 0.26172 0.45312 0.32812 0.98047 0.19531 1.4844-0.13281 0.50391-0.46094 0.92188-0.91016 1.1836-0.30078 0.17187-0.63672 0.26172-0.97656 0.26172z"/>
  <path d="m50.781 52.734c-0.32812 0-0.64844-0.082031-0.9375-0.23828l-21.484-11.719c-0.45703-0.25-0.78906-0.66406-0.9375-1.1641s-0.09375-1.0273 0.15625-1.4844c0.34375-0.625 1-1.0156 1.7148-1.0156 0.32422 0 0.64844 0.082031 0.93359 0.23828l20.422 11.141 18.539-12.977c0.32812-0.23047 0.71875-0.35156 1.1172-0.35156 0.64062 0 1.2344 0.3125 1.6016 0.83203 0.29688 0.42578 0.41406 0.94531 0.32422 1.4609-0.09375 0.51562-0.375 0.96094-0.80469 1.2578l-19.531 13.672c-0.32422 0.22266-0.71094 0.34766-1.1133 0.34766z"/>
  <path d="m50.781 74.219c-1.0781 0-1.9531-0.875-1.9531-1.9531v-21.484c0-1.0781 0.875-1.9531 1.9531-1.9531s1.9531 0.875 1.9531 1.9531v21.484c0 1.0781-0.875 1.9531-1.9531 1.9531z"/>
  <path d="m27.344 23.438h3.9062v3.9062h-3.9062z"/>
  <path d="m68.359 23.438h3.9062v3.9062h-3.9062z"/>
  <path d="m60.547 78.125h3.9062v3.9062h-3.9062z"/>
  <path d="m35.156 78.125h3.9062v3.9062h-3.9062z"/>
 </g>
</svg>
