<?xml version="1.0" encoding="UTF-8"?>
<svg width="100pt" height="100pt" version="1.1" viewBox="0 0 100 100" xmlns="http://www.w3.org/2000/svg">
 <path d="m54.828 45.172h-48.055v48.055h48.055zm11.676-9.207c-0.91406 0.91406-2.3984 0.91406-3.3125 0-0.91406-0.91406-0.91406-2.3984 0-3.3125l14.488-14.488h-9.4453c-1.293 0-2.3438-1.0508-2.3438-2.3438 0-1.293 1.0508-2.3438 2.3438-2.3438h15.102c0.49609 0 0.95703 0.15625 1.3359 0.41797l0.019531 0.011719 0.027344 0.019531 0.046875 0.035157 0.09375 0.074218 0.007813 0.007813 0.035156 0.03125 0.007812 0.003906c0.054688 0.050781 0.10938 0.10156 0.16016 0.16016l0.003907 0.007813 0.03125 0.035156 0.007812 0.007812 0.074219 0.09375 0.035156 0.046876 0.019532 0.027343 0.011718 0.019531c0.26562 0.37891 0.41797 0.83984 0.41797 1.3359v16.148c0 1.293-1.0508 2.3438-2.3438 2.3438s-2.3438-1.0508-2.3438-2.3438v-10.488l-14.488 14.488zm26.727 30.18c0-1.293 1.0508-2.3438 2.3438-2.3438s2.3438 1.0508 2.3438 2.3438v29.426c0 1.293-1.0508 2.3438-2.3438 2.3438h-38.316l-0.085937 0.003907h-52.742c-0.48438 0-0.9375-0.14844-1.3125-0.40234l-0.042969-0.03125-0.003907-0.003906-0.042968-0.03125-0.003906-0.003907-0.042969-0.03125-0.003907-0.003906-0.042968-0.035156-0.003906-0.003906-0.042969-0.035156-0.003907-0.003907-0.039062-0.035156-0.17578-0.17578-0.035157-0.039063-0.003906-0.003906-0.035156-0.042969-0.003906-0.003906-0.035156-0.042969-0.003907-0.003906-0.03125-0.042969-0.003906-0.003906-0.03125-0.042969-0.003906-0.003906-0.03125-0.042969c-0.25391-0.375-0.40234-0.82812-0.40234-1.3125v-91.145c0-1.293 1.0508-2.3438 2.3438-2.3438h91.148c1.293 0 2.3438 1.0508 2.3438 2.3438v38.402c0 1.293-1.0508 2.3438-2.3438 2.3438-1.293 0-2.3438-1.0508-2.3438-2.3438v-36.055h-86.461v33.715h50.402c1.293 0 2.3438 1.0508 2.3438 2.3438v50.398h33.715v-27.082z"/>
</svg>
