<?xml version="1.0" encoding="UTF-8"?>
<svg width="100pt" height="100pt" version="1.1" viewBox="0 0 100 100" xmlns="http://www.w3.org/2000/svg">
 <path d="m49.98 24.836c-0.14453 0.007812-0.28906 0.039062-0.43359 0.078124l-13.164 4.9805c-0.74219 0.32812-0.86719 0.71094-0.86719 1.418v14.031l-12.516 5.9648c-0.54688 0.31641-0.70703 0.73828-0.70703 1.3398v14.84c-0.007813 0.47266 0.28516 0.93359 0.70703 1.1406l12.93 6.2969c0.5 0.28906 0.98437 0.30078 1.4961 0.097657l12.574-6.1211 12.594 6.1406c0.48047 0.25781 0.98828 0.066406 1.3789-0.058594l13.027-6.3555c0.42578-0.20703 0.71094-0.66797 0.70703-1.1406v-14.859c0-0.73047-0.24609-1.0391-0.82812-1.3594l-12.398-5.9023v-14.09c0.015625-0.63281-0.53516-1.2891-0.94531-1.3984l-13.105-4.9609c-0.16797-0.074219-0.30859-0.085938-0.45313-0.078125zm0.019531 2.5977 9.9375 3.7773-9.9375 4.5273-9.957-4.5273zm-11.965 5.6094 10.707 4.8789v12.656l-10.707-5.2148zm-1.2773 14.484 10.117 4.9414-10.098 4.625-10.254-4.6836 10.234-4.8789zm26.469 0 10.234 4.8789-10.234 4.6836-10.098-4.625 10.098-4.9414zm-38.414 6.8672 10.707 4.8789v12.656l-10.707-5.2344zm26.449 0 10.707 4.8789v12.656l-10.707-5.2148z" fill-rule="evenodd"/>
</svg>
