<?xml version="1.0" encoding="UTF-8"?>
<svg width="100pt" height="100pt" version="1.1" viewBox="0 0 100 100" xmlns="http://www.w3.org/2000/svg">
 <g>
  <path d="m50.008 24.121c4.6797 0.007812 9.2656 1.3125 13.254 3.7656l-3.043 2.6211 16.355 5.793-3.2148-17.09-3.2734 2.8984v-0.003906c-8.0859-5.9492-18.391-8.0156-28.145-5.6445-9.7539 2.3672-17.961 8.9336-22.414 17.93l7.793 3.8672c2.0742-4.25 5.3008-7.8281 9.3125-10.328 4.0117-2.5039 8.6484-3.8203 13.375-3.8086z"/>
  <path d="m50.008 75.895c-4.6875-0.015625-9.2812-1.3203-13.27-3.7812l3.043-2.5781-16.355-5.793 3.2148 17.035 3.2734-2.8086v-0.003906c8.0859 5.9492 18.395 8.0156 28.148 5.6406 9.7539-2.3711 17.957-8.9375 22.41-17.938l-7.793-3.8672c-2.0781 4.2383-5.3047 7.8047-9.3164 10.297-4.0078 2.4922-8.6367 3.8086-13.355 3.7969z"/>
  <path d="m32.926 50.008c0 6.7188-5.4453 12.168-12.168 12.168-6.7188 0-12.168-5.4492-12.168-12.168 0-6.7227 5.4492-12.168 12.168-12.168 6.7227 0 12.168 5.4453 12.168 12.168"/>
  <path d="m50.008 37.824c-4.9297-0.007813-9.375 2.957-11.266 7.5117-1.8906 4.5508-0.85156 9.793 2.6289 13.281 3.4844 3.4883 8.7266 4.5312 13.281 2.6484 4.5547-1.8867 7.5234-6.3281 7.5234-11.258 0.003907-3.2305-1.2773-6.3281-3.5586-8.6133-2.2812-2.2852-5.3789-3.5703-8.6094-3.5703z"/>
  <path d="m79.242 62.148c-4.918 0.003906-9.3555-2.9531-11.242-7.4961-1.8828-4.543-0.84766-9.7773 2.6328-13.254 3.4766-3.4766 8.707-4.5156 13.25-2.6328 4.543 1.8867 7.5039 6.3242 7.4961 11.242-0.007812 6.6992-5.4375 12.133-12.137 12.141zm0-15.602c-1.4023-0.007813-2.668 0.83203-3.2109 2.125-0.53906 1.293-0.24609 2.7852 0.74219 3.7773 0.98828 0.99609 2.4805 1.293 3.7734 0.75781 1.2969-0.53516 2.1406-1.7969 2.1406-3.1992 0-1.9062-1.5391-3.4531-3.4453-3.4609z"/>
 </g>
</svg>
