<?xml version="1.0" encoding="utf-8"?>
<!-- Generator: Adobe Illustrator 26.0.0, SVG Export Plug-In . SVG Version: 6.00 Build 0)  -->
<svg version="1.1" id="Layer_1" xmlns="http://www.w3.org/2000/svg" xmlns:xlink="http://www.w3.org/1999/xlink" x="0px" y="0px"
	 viewBox="0 0 841.9 354.6" style="enable-background:new 0 0 841.9 354.6;" xml:space="preserve">
<style type="text/css">
	.st0{fill-rule:evenodd;clip-rule:evenodd;fill:#808080;}
</style>
<g>
	<path class="st0" d="M526.4,40.7c1.8,4.1,2.3,8.9,1,14.8C528.5,49.6,528.1,44.7,526.4,40.7 M304.3,108.2
		C304.3,108.2,304.3,108.2,304.3,108.2L304.3,108.2L304.3,108.2z M304.1,108C304.1,108.1,304.1,108.1,304.1,108L304.1,108L304.1,108
		L304.1,108z M303.5,107.8L303.5,107.8L303.5,107.8L303.5,107.8z M303.1,107.7c0.1,0,0.2,0.1,0.3,0.1l-0.1,0L303.1,107.7
		L303.1,107.7z M302.8,107.6l0.2,0.1l-0.1,0L302.8,107.6L302.8,107.6z M302.5,107.5l0.2,0.1l-0.1,0L302.5,107.5L302.5,107.5z
		 M301.9,107.3l0.2,0.1l-0.1,0L301.9,107.3z M300.8,106.9l0.2,0.1L300.8,106.9L300.8,106.9z M299.8,106.4l0.2,0.1h0L299.8,106.4z
		 M299.4,106.3c0.1,0,0.2,0.1,0.3,0.1l-0.2-0.1h0L299.4,106.3z M298.6,105.9l0.1,0.1L298.6,105.9L298.6,105.9z M298.1,105.6l0.2,0.1
		l-0.1,0L298.1,105.6z M297.7,105.4L297.7,105.4L297.7,105.4L297.7,105.4z M296.9,105L296.9,105L296.9,105L296.9,105z M296.1,104.5
		l0.1,0.1h0L296.1,104.5z M293.9,103.2l0.2,0.1C294,103.3,294,103.2,293.9,103.2z M478.7,165.6c24.5-32.6,71-78,72.6-110.2
		c2.8-42-39.8-55.7-83.7-55.3c-30.6,0.4-62.2,9.1-83.7,16.7c-74.2,26-120.9,67.6-150.3,113.7c-31.2,45.7-20.9,89.3,44.9,90.7
		c50.5-2,83.3-15.9,117.5-33.2c0.2,0-94.5,26.8-129.3,7c-3.6-2-7.6-4.8-8.7-12.7c-0.2-16.3,27.2-33.2,42.4-38.6v-27.6
		c31.6,11.1,68.6,7.6,100.6-15.7c1.2,2.6,2,6.4,1.6,10.1h5.6c1.4-11.1-6.4-21.7-18.5-22.5c3.4,3,6.2,5.2,7.4,7.2
		c0,0.2-0.8,0.8-0.8,0.8c-41.2,28.8-80.8,15.5-84.7,14.5l22.7-22.3L328.3,72c45.3-15.7,83.3-27.8,145.2-38.4l-13.9-11.5l7.2-4.4
		c37.4,10.5,62,18.1,60.5,37.8c-0.7,3.4-1.9,7.1-3.8,11.3c-10.9,21.3-43.2,56.9-56.3,71.8c-8.7,9.8-17.1,19.5-23.1,28.8
		c-6.2,9.3-10.1,17.9-10.2,26.2c0.8,64.6,192.1-30.2,229.1-55.3c-54.7,23.3-113.6,45.9-178.6,50.1
		C466.4,189.1,468.3,179.8,478.7,165.6z"/>
	<path class="st0" d="M53,274.5l12.4,28.1H39.9L53,274.5z M106.9,333.4l-38.2-77.3H40L0,333.4h25.9l6.2-13.9h40.1l5.8,13.9H106.9z"
		/>
	<rect x="110.7" y="256.1" class="st0" width="24.9" height="77.3"/>
	<rect x="150.6" y="279.6" class="st0" width="24.9" height="53.8"/>
	<rect x="150.6" y="256.2" class="st0" width="24.9" height="15.8"/>
	<path class="st0" d="M226.9,291.3c3.8,0,6.9,1.4,9.1,4.1c2.2,2.7,3.4,6.5,3.4,11.2c0,4.6-1.1,8.3-3.4,11.1
		c-2.3,2.7-5.4,4.1-9.2,4.1c-3.9,0-7-1.3-9.2-3.9c-2.2-2.6-3.3-6.3-3.3-11.1c0-5,1.1-8.9,3.3-11.5
		C219.6,292.6,222.7,291.3,226.9,291.3 M189.5,256.1v68.3c0,2-0.1,3.7-0.2,5.2c-0.2,1.5-0.4,2.8-0.6,3.8h24.9
		c0.3-1.1,0.5-2.3,0.7-3.8c0.1-1.5,0.2-3.1,0.2-4.9c2.7,3.3,5.9,5.8,9.7,7.5c3.8,1.7,8,2.5,12.6,2.5c8.4,0,15.1-2.4,20.2-7.4
		c5.1-4.9,7.6-11.4,7.6-19.6c0-8.9-2.6-16.1-7.7-21.5c-5.1-5.4-12-8.1-20.4-8.1c-4.4,0-8.4,0.8-12,2.3c-3.7,1.5-7,3.8-9.9,6.9v-31.1
		H189.5z"/>
	<path class="st0" d="M302.5,311.6c2.9-1,8.4-1.6,16.5-1.6v0.8c0,4-1.1,6.9-3.2,8.9c-2.1,2-5.3,3-9.5,3c-2.6,0-4.6-0.5-6-1.5
		c-1.4-1-2.1-2.4-2.1-4.2C298.1,314.5,299.6,312.7,302.5,311.6 M285,282.6c-5.6,2.9-8.4,7.4-8.5,13.3h23c0.3-2,1.3-3.5,2.9-4.5
		c1.6-1,3.9-1.5,6.9-1.5c3.3,0,5.8,0.7,7.5,2c1.7,1.4,2.5,3.4,2.5,6.2l-0.1,0.7l-0.1,0.6c-16.7,0.1-28.6,1.7-35.7,4.7
		c-7.1,3-10.7,7.9-10.7,14.7c0,5,2.1,8.8,6.2,11.6c4.1,2.7,10,4.1,17.7,4.1c5.4,0,9.9-0.8,13.7-2.3c3.8-1.5,6.8-3.8,9.2-6.9
		c0,1.4,0.1,2.8,0.3,4.1c0.2,1.3,0.5,2.6,1,3.9h23.1c-0.4-0.9-0.7-1.9-0.8-2.9c-0.1-1-0.2-2.4-0.2-4.1v-27.4c0-6.9-2.7-12.1-8-15.5
		c-5.3-3.4-13.5-5.1-24.4-5.1C299,278.2,290.5,279.7,285,282.6z"/>
	<path class="st0" d="M384.7,295.3c2.2-2.6,5.3-4,9.4-4c3.8,0,6.9,1.4,9.1,4.1c2.2,2.7,3.4,6.5,3.4,11.2c0,4.6-1.1,8.3-3.4,11.1
		c-2.3,2.7-5.4,4.1-9.2,4.1c-3.9,0-7-1.3-9.2-3.9c-2.2-2.6-3.3-6.3-3.3-11.1C381.4,301.7,382.5,297.9,384.7,295.3 M356.8,256.1
		l0,68.3c0,2-0.1,3.7-0.2,5.2c-0.2,1.5-0.4,2.8-0.7,3.8h24.9c0.3-1.1,0.5-2.3,0.7-3.8c0.1-1.5,0.2-3.1,0.2-4.9
		c2.7,3.3,5.9,5.8,9.7,7.5c3.8,1.7,8,2.5,12.6,2.5c8.4,0,15.2-2.4,20.2-7.4c5.1-4.9,7.6-11.4,7.6-19.6c0-8.9-2.6-16.1-7.7-21.5
		c-5.1-5.4-12-8.1-20.4-8.1c-4.4,0-8.4,0.8-12,2.3c-3.7,1.5-7,3.8-9.9,6.9v-31.1H356.8z"/>
	<path class="st0" d="M469.8,311.6c2.9-1,8.4-1.6,16.5-1.6v0.8c0,4-1.1,6.9-3.2,8.9c-2.1,2-5.3,3-9.5,3c-2.6,0-4.6-0.5-6-1.5
		c-1.4-1-2.1-2.4-2.1-4.2C465.4,314.5,466.9,312.7,469.8,311.6 M452.3,282.6c-5.5,2.9-8.4,7.4-8.5,13.3h23c0.3-2,1.3-3.5,2.9-4.5
		c1.6-1,3.9-1.5,6.9-1.5c3.3,0,5.8,0.7,7.5,2c1.7,1.4,2.5,3.4,2.5,6.2l0,0.7l-0.1,0.6c-16.7,0.1-28.6,1.7-35.7,4.7
		c-7.1,3-10.6,7.9-10.6,14.7c0,5,2.1,8.8,6.2,11.6c4.1,2.7,10,4.1,17.7,4.1c5.4,0,9.9-0.8,13.7-2.3c3.8-1.5,6.8-3.8,9.2-6.9
		c0,1.4,0.1,2.8,0.3,4.1c0.2,1.3,0.5,2.6,1,3.9h23.1c-0.4-0.9-0.7-1.9-0.8-2.9c-0.2-1-0.2-2.4-0.2-4.1v-27.4c0-6.9-2.7-12.1-8-15.5
		c-5.4-3.4-13.5-5.1-24.4-5.1C466.3,278.2,457.8,279.7,452.3,282.6z"/>
	<path class="st0" d="M548.9,295.3c0,7.5,1.6,14.4,4.7,20.5c3.1,6.1,7.8,10.8,14,14c6.2,3.2,13,4.8,20.5,4.8c5.6,0,11-1,16.3-3
		c5.3-2,10.4-5,15.4-9v-28.4h-32.5v9l22.5,0v14.3c-2.2,1.9-5.3,3.7-9.5,5.4c-4.2,1.7-8.5,2.6-12.9,2.6c-5,0-9.8-1.1-14.3-3.4
		c-4.5-2.2-7.9-5.7-10.3-10.3c-2.4-4.6-3.5-10.4-3.5-17.2c0-5.6,1-10.7,2.9-15.5c1.2-2.8,2.8-5.3,4.8-7.6c2.1-2.3,4.8-4.2,8.2-5.6
		c3.4-1.4,7.4-2.1,12-2.1c3.9,0,7.4,0.7,10.5,2c3.2,1.3,5.6,3.1,7.3,5.4c1.7,2.2,3.1,5.3,4.3,9.2l9.2-2.5c-1.3-5.2-3.3-9.4-5.8-12.6
		c-2.5-3.2-6.1-5.7-10.6-7.5c-4.5-1.8-9.5-2.7-15-2.7c-7.6,0-14.4,1.6-20.2,4.7c-5.9,3.1-10.4,8-13.5,14.4
		C550.5,280.9,548.9,287.9,548.9,295.3"/>
	<path class="st0" d="M633.6,277.7v55.6h9.5v-29.1c0-4,0.5-7.6,1.6-11c0.7-2.2,1.9-3.9,3.5-5.2c1.7-1.2,3.5-1.9,5.6-1.9
		c2.3,0,4.6,0.7,6.9,2l3.3-8.7c-3.3-2-6.5-3-9.7-3c-2.2,0-4.2,0.6-6.1,1.9c-1.8,1.3-3.8,3.8-6,7.8v-8.4H633.6z"/>
	<path class="st0" d="M681.9,321.6c-3.1-3.6-4.6-8.9-4.6-16c0-7.1,1.6-12.4,4.6-16c3.1-3.5,7-5.3,11.7-5.3c4.6,0,8.5,1.8,11.6,5.3
		c3.1,3.5,4.7,8.8,4.7,15.6c0,7.3-1.5,12.7-4.7,16.3c-3.1,3.6-7,5.3-11.7,5.3C689,326.9,685.1,325.1,681.9,321.6 M676.2,282.7
		c-5.7,5-8.6,12.6-8.6,22.9c0,9.4,2.4,16.6,7.2,21.6c4.8,5,11.1,7.5,18.9,7.5c4.9,0,9.3-1.1,13.4-3.4c4.1-2.3,7.2-5.5,9.4-9.6
		c2.1-4.1,3.2-9.7,3.2-16.9c0-8.8-2.4-15.7-7.3-20.8c-4.9-5-11.1-7.5-18.8-7.5C686.8,276.5,680.9,278.5,676.2,282.7z"/>
	<path class="st0" d="M732.1,277.7v34.5c0,4,0.2,6.9,0.6,8.8c0.6,2.8,1.5,5.1,2.9,7c1.4,1.9,3.5,3.5,6.3,4.7
		c2.8,1.3,5.9,1.9,9.2,1.9c7.4,0,13.3-3.2,17.6-9.5v8.2l8.5,0v-55.6h-9.5v29.8c0,4.8-0.5,8.4-1.6,10.9c-1,2.5-2.8,4.5-5.2,5.9
		c-2.5,1.5-5.1,2.2-8,2.2c-2.8,0-5.2-0.7-7.1-2.1c-1.9-1.4-3.2-3.4-3.8-5.8c-0.4-1.7-0.6-5-0.6-9.9v-30.8H732.1z"/>
	<path class="st0" d="M806.4,321.7c-2.9-3.4-4.3-8.7-4.3-15.9c0-7.2,1.5-12.6,4.6-16.4c3.1-3.8,6.6-5.6,10.6-5.6
		c4,0,7.5,1.8,10.4,5.3c2.9,3.5,4.4,8.8,4.4,15.9c0,7.4-1.5,12.9-4.5,16.5c-3,3.6-6.6,5.3-10.7,5.3
		C812.8,326.9,809.3,325.2,806.4,321.7 M793.6,277.7v76.9h9.5v-27.1c1.6,2,3.6,3.7,6.1,5c2.5,1.3,5.3,2,8.5,2
		c4.3,0,8.4-1.2,12.3-3.6c3.9-2.4,6.9-5.9,8.9-10.5c2-4.6,3.1-9.7,3.1-15.4c0-5.3-0.9-10.2-2.8-14.6c-1.8-4.4-4.6-7.9-8.2-10.3
		c-3.6-2.4-7.8-3.7-12.6-3.7c-3.6,0-6.7,0.7-9.3,2.1c-2.5,1.4-4.8,3.5-6.9,6.3v-7.2H793.6z"/>
	<path class="st0" d="M631.9,216.7c-5.9,0-10.7-4.8-10.7-10.7c0-5.9,4.8-10.7,10.7-10.7c5.9,0,10.7,4.8,10.7,10.7
		C642.6,211.9,637.8,216.7,631.9,216.7 M619.2,206c0,7,5.7,12.7,12.7,12.7c7,0,12.7-5.7,12.7-12.7c0-7-5.7-12.7-12.7-12.7
		C624.9,193.3,619.2,199,619.2,206z"/>
	<path class="st0" d="M632.1,204.5h-3.8v-4.3h4.2c1,0,1.7,0.2,2.1,0.6c0.4,0.4,0.7,0.9,0.7,1.5c0,0.4-0.1,0.8-0.4,1.2
		c-0.2,0.3-0.6,0.6-1,0.8C633.5,204.4,632.9,204.5,632.1,204.5 M626.6,198.7V212h1.8v-5.9h2l1,0.1c0.3,0.1,0.5,0.2,0.8,0.4
		c0.3,0.2,0.6,0.5,0.9,0.9c0.3,0.4,0.8,1,1.3,1.9l1.7,2.7h2.2l-2.3-3.6c-0.4-0.7-0.9-1.3-1.4-1.8c-0.2-0.2-0.6-0.4-1.1-0.7
		c1.3-0.2,2.2-0.6,2.8-1.2c0.6-0.6,0.9-1.4,0.9-2.4c0-0.7-0.2-1.4-0.6-2c-0.4-0.6-0.8-1-1.5-1.3c-0.6-0.2-1.5-0.3-2.7-0.3H626.6z"/>
</g>
</svg>
