<?xml version="1.0" encoding="utf-8"?>
<!-- Generator: Adobe Illustrator 26.0.0, SVG Export Plug-In . SVG Version: 6.00 Build 0)  -->
<svg version="1.1" id="Layer_1" xmlns="http://www.w3.org/2000/svg" xmlns:xlink="http://www.w3.org/1999/xlink" x="0px" y="0px"
	 viewBox="0 0 512 512" style="enable-background:new 0 0 512 512;" xml:space="preserve">
<style type="text/css">
	.st0{enable-background:new    ;}
	.st1{fill-rule:evenodd;clip-rule:evenodd;}
	.st2{fill-rule:evenodd;clip-rule:evenodd;fill:#F08200;}
</style>
<g>
	<g id="形状_4_3_" class="st0">
		<g id="形状_4">
			<g>
				<path class="st1" d="M342,197.5l-0.4-4.2c-3.2-11.3-25-20.4-65.4-26.8c4.6,3.2,8.1,6.7,9.9,9.9l2.1,5.6l-79.5,19l-52.8,14.8
					l7.4,17.3l-3.9,6L146,250l-8.8,4.2l-8.4-5.3l2.1,37c-17.6,3.9-28.9,11.3-33.4,22.2l-2.1,6.3c-1.8,8.1,0.7,14.1,8.1,18.3
					c-6-7-7-13.7-3.2-20.4c2.1-3.2,4.6-6.3,8.4-9.2c7-6,15.1-9.5,23.6-11.3h3.5l1.8-34.2l23.6,6.3l25-1.1c7.7-2.1,14.8-4.9,21.1-8.8
					c6.3-3.5,12.3-8.1,17.6-13.7c2.8,2.1,4.6,8.8,5.3,19.7l1.4-10.2c0-9.5-4.6-16.2-13-20.4l5.3,6.3l-3.5,2.8
					c-7,6-14.8,10.6-22.9,14.1l-3.2,1.1c-9.9,3.5-20.1,4.6-30.3,3.9l-4.6-0.7l-1.1-0.4c-3.9-0.4-7-1.8-9.5-3.9l20.8-14.1
					c-1.1-5.6-2.8-11.3-5.3-16.2l-0.7-1.1l-1.8-2.1c2.1,0,13-3.2,33.8-10.2c20.4-7,53.1-15.2,97.5-24.3l-5.6-13.4
					C320.2,179.2,338.5,188,342,197.5z"/>
			</g>
		</g>
	</g>
	<g id="形状_4_2_" class="st0">
		<g id="形状_4_1_">
			<g>
				<path class="st2" d="M448.3,286.7c-63.3,23.3-107.7,36.3-133,38.4c-26.7,2.5-28.9-8.8-6.3-33.1l27.1-32.1
					c6.3-7.4,11.6-14.4,15.8-22.2c16.2-27.8,16.2-49.7,0-65.5l-1.4-1.8c-5.6-4.9-12-8.8-19.4-11.3c-15.8-6-36.9-7-62.3-3.5
					c-39.4,4.9-78.8,19-117.5,42.3l-3.9,2.1c-37.3,22.6-63.7,47.2-79.2,74c-16.5,27.8-16.2,49.7,0.4,65.5l14.1,10.2l2.5,1.1
					c17.6,6.7,36.2,9.2,55.9,6.7c24.6-2.8,50.7-12.7,78.8-30l6.7-4.6l-6.7,2.1c-35.5,11.3-65.4,16.2-89.7,14.4l-21.1-4.2l-1.4-0.7
					l-4.2-1.8c-7.4-4.2-9.9-10.2-8.1-18.3l2.1-6.3c4.6-10.9,15.8-18.3,33.4-22.2l-2.1-37l8.4,5.3l8.8-4.2l13.4-10.9l3.9-6l-7.4-17.3
					l52.8-14.8l79.5-19l-2.1-5.6c-1.8-3.2-5.3-6.7-9.9-9.9c40.5,6.3,62.3,15.5,65.4,26.8l0.4,4.2v4.6l-1.4,7.8
					c-2.8,8.1-8.4,18-17.2,28.5l-38.7,43.3c-10.9,10.2-19.7,24.3-26,42.3c-7,17.6,0.4,26.8,21.5,27.1c20.8,0,48.9-6.3,83.4-19
					c31.3-12,59.5-26.4,84.8-43l7.7-5.6L448.3,286.7z"/>
			</g>
		</g>
	</g>
</g>
</svg>
