<?xml version="1.0" encoding="utf-8"?>
<!-- Generator: Adobe Illustrator 26.0.0, SVG Export Plug-In . SVG Version: 6.00 Build 0)  -->
<svg version="1.1" id="Layer_1" xmlns="http://www.w3.org/2000/svg" xmlns:xlink="http://www.w3.org/1999/xlink" x="0px" y="0px"
	 viewBox="0 0 500 500" style="enable-background:new 0 0 500 500;" xml:space="preserve">
<style type="text/css">
	.st0{fill-rule:evenodd;clip-rule:evenodd;fill:#231F20;}
	.st1{fill-rule:evenodd;clip-rule:evenodd;fill:#F47937;}
</style>
<g>
	<path class="st0" d="M161.3,260.9c-1.1-0.2-2.6-1.1-3.8-2c-10.8-10.4,3-22.5,18.9-29.5v-20c3.8,2.3,5.7,2.5,5.9,2.9l12.1-12.1
		l-4-10.2c35.7-12.4,50.1-17.1,79.1-22l-5.2-4.8l8.6-5c19.5,6.5,37.7,8.2,34.6,24.5c0.8-10.9-12.9-15.2-34-21.2l-3.9,2.5l7.7,6.4
		c-34.7,6.1-56.2,12.7-81.5,21.5l3.3,9l-12.6,12.5c2.1,0.6,24.3,8.1,47.5-8.1c0.1-0.1,0.5-0.2,0.5-0.5c-0.8-1.2-2.3-2.3-4.2-4
		c6.7,0.5,11.1,6.4,10.2,12.6h-3.1c0.4-1.9-0.1-4.2-1-5.6c-17.7,13.1-38.6,15-56.3,8.8v15.5c-8.7,3-24,12.5-23.9,21.7
		C156.9,258.2,159.1,259.7,161.3,260.9L161.3,260.9z"/>
	<path class="st1" d="M233.8,256.8c-19.2,9.9-37.5,17.6-66.1,18.7c-36.8-0.7-42.5-25.2-25-50.8c16.4-25.8,42.6-49.3,84.4-63.9
		c11.9-4.2,29.9-9.2,46.9-9.3c24.6-0.2,48.6,7.5,47,30.9c-0.8,18.1-26.9,43.7-40.6,62c-5.9,8-6.9,13.1,3.1,12.7
		c36.3-2.4,69.5-15,100-28.1C363,243,255.7,296.2,255.1,259.9c0.1-4.5,2.4-9.4,5.8-14.5c3.5-5.1,8.2-10.6,13.1-16.2
		c7.3-8.3,25.3-28.3,31.4-40.3c10.2-22.6-12.7-23.8-32.5-30.8l-8.6,5l5.1,4.8c-28.9,4.9-43.3,9.6-79,22l4,10.2l-12.1,12.1
		c-0.2-0.4-2.1-0.6-5.9-2.9v20c-15.9,7-29.8,19.2-18.9,29.5c1.2,1,2.7,1.8,3.8,2c0,0,0,0-0.1,0C180.8,272,233.9,256.8,233.8,256.8
		L233.8,256.8z"/>
	<path class="st1" d="M111.4,309.4v-9.3H125v9.3H111.4L111.4,309.4z M112,347.6v-33.1h12.6v33.1H112L112,347.6z M395.6,318.5
		c6.7,0,12.1,5.5,12.1,12.1c0,6.8-5.5,12.1-12.1,12.1c-6.8,0-12.1-5.4-12.1-12.1C383.5,324,388.8,318.5,395.6,318.5L395.6,318.5z
		 M395.6,348.5c9.8,0,17.7-8,17.7-17.9c0-9.8-8-17.7-17.7-17.7c-9.9,0-17.9,8-17.9,17.7C377.8,340.5,385.7,348.5,395.6,348.5
		L395.6,348.5z M330.7,347.6h5.6v-5.1h-5.6V347.6L330.7,347.6z M373.2,343.4c-1.8,1.5-5.5,5.1-12.4,5.1c-9,0-17.7-7.1-17.7-17.9
		c0-10.6,8.7-17.7,17.7-17.7c6.5,0,10.6,3.6,12.4,5.1c-1.1,1.4-2,4.4-2.5,5.7c-3.3-4.5-7.4-5.2-9.9-5.2c-6.7,0-12.1,5.6-12.1,12.1
		c0,6.7,5.5,12.3,12.1,12.3c3.7,0,7.3-1.7,10-5.2C371.7,340.6,372.6,342.3,373.2,343.4L373.2,343.4z M421.3,347.6v-33.1h5v4.6
		c1.1-1.7,2.5-3,4.2-3.9c1.7-0.9,3.7-1.5,5.9-1.5c2.4,0,4.4,0.6,6,1.5c1.5,1.1,2.7,2.5,3.3,4.3c2.6-3.8,6.1-5.8,10.2-5.8
		c3.2,0,5.8,1,7.5,2.7c1.8,1.9,2.7,4.6,2.7,8.5v22.7h-5.6v-20.8c0-2.3-0.2-3.9-0.6-4.9c-0.4-0.9-1-1.8-1.9-2.4
		c-1-0.6-2.1-0.9-3.5-0.9c-2.3,0-4.2,0.8-5.7,2.4c-1.5,1.5-2.4,4-2.4,7.4v19.3h-5.6v-21.5c0-2.5-0.5-4.4-1.3-5.6
		c-1-1.2-2.5-1.9-4.5-1.9c-1.5,0-3,0.5-4.4,1.3c-1.3,0.8-2.3,2-2.9,3.6c-0.6,1.7-1,3.9-1,7v17.1H421.3L421.3,347.6z M464,307.3V301
		h-2.4v-0.8h5.7v0.8H465v6.3H464L464,307.3z M468.2,307.3v-7.1h1.4l1.8,5.1c0.1,0.5,0.2,0.8,0.4,1.1c0-0.2,0.1-0.7,0.4-1.2l1.7-5
		h1.3v7.1h-1v-6l-2,6h-1l-2-6.1v6.1H468.2L468.2,307.3z M307.1,342.8c-1.3,1.8-3.3,3.2-6,4.2c-0.6,0.2-1.2,0.5-1.8,0.6
		c-2.3,0.6-4.8,0.8-7.6,0.8c-4.2,0-7.4-0.8-9.6-2.6c-2.4-1.7-3.5-4.2-3.5-7.4c0-2,0.5-3.8,1.3-5.4c0.8-1.5,2.1-2.9,3.8-3.9
		c1.3-0.8,3.2-1.4,5.6-1.8c2.1-0.2,5.5-0.5,10-0.5c0.4,0,0.8,0,1.3,0h6.2c0-0.1,0-0.4,0-0.5c0-0.2,0-0.4,0-0.5c0-1.8-0.5-3.1-1.5-4
		c-1.1-0.9-2.6-1.4-4.6-1.4c-0.5,0-1,0-1.3,0c-1.7,0.1-2.9,0.5-3.8,0.9c-1.1,0.6-1.8,1.7-2,3h-12.7c0.4-3.6,2.3-6.2,5.5-8
		c3-1.5,7.4-2.4,13.1-2.5c0.5-0.1,1-0.1,1.5-0.1c6.2,0,10.8,1.1,13.7,3.1c3,2.1,4.5,5.2,4.5,9.6v16.8c0,1,0,1.8,0.1,2.4
		c0.1,0.7,0.2,1.4,0.5,2h-11.8c-0.2-0.6-0.5-1.3-0.6-2c-0.1-0.7-0.2-1.4-0.2-2.3V342.8L307.1,342.8z M299.3,341.2
		c2.1-0.2,3.9-0.8,5.2-2c1.4-1.2,2.3-3.1,2.3-5.6v-0.7h-1.1c-2.5,0-4.6,0-6.4,0.2c-1.9,0.1-3.5,0.5-4.5,0.8c-2,0.7-3,1.9-3,3.6
		c0,1.2,0.5,2.1,1.5,2.7c1.1,0.6,2.6,1,4.8,1C298.5,341.2,298.9,341.2,299.3,341.2L299.3,341.2z M261.2,330.2c0-3-0.8-5.4-2.5-7.1
		c-1.7-1.8-3.8-2.6-6.5-2.6h-0.1c-3,0-5.2,0.8-6.8,2.6c-1.5,1.7-2.4,4.3-2.4,7.6c0,3.2,0.8,5.7,2.4,7.5c1.7,1.8,3.8,2.6,6.7,2.6
		c0.1,0,0.1,0,0.1,0c2.9,0,5.1-0.9,6.7-2.7C260.4,336.1,261.2,333.5,261.2,330.2L261.2,330.2z M252.1,314.3c1.5-0.5,3.3-0.6,5.1-0.6
		c5.2,0,9.4,1.5,12.4,4.6c3.1,3,4.6,7.1,4.6,12.5c0,5.5-1.5,9.8-4.4,12.9c-3,3.1-7.1,4.6-12.4,4.6c-1.9,0-3.7-0.2-5.4-0.7
		c-1-0.2-1.9-0.6-2.7-1.1c-2.5-1.2-4.5-2.9-6.3-5.1v0.9c0,1,0,1.8-0.1,2.6c0,0.8-0.1,1.8-0.2,2.6h-12.7c0.1-1.4,0.2-2.7,0.4-3.9
		c0.1-1.3,0.1-2.5,0.1-3.6v-40H243v19.2c1.9-1.9,4-3.3,6.4-4.2C250.3,314.8,251.1,314.4,252.1,314.3L252.1,314.3z M209.8,342.8
		c-1.4,1.8-3.3,3.2-6.1,4.2c-0.5,0.2-1.1,0.5-1.8,0.6c-2.1,0.6-4.8,0.8-7.5,0.8c-4.2,0-7.5-0.8-9.8-2.6c-2.3-1.7-3.5-4.2-3.5-7.4
		c0-2,0.5-3.8,1.4-5.4c0.8-1.5,2.1-2.9,3.8-3.9c1.3-0.8,3.1-1.4,5.5-1.8c2.3-0.2,5.6-0.5,10-0.5c0.5,0,1,0,1.4,0h6.1
		c0-0.1,0-0.4,0.1-0.5c0-0.2,0-0.4,0-0.5c0-1.8-0.6-3.1-1.5-4c-1.1-0.9-2.6-1.4-4.6-1.4c-0.5,0-1,0-1.4,0c-1.5,0.1-2.9,0.5-3.7,0.9
		c-1.2,0.6-1.8,1.7-2,3h-12.9c0.5-3.6,2.3-6.2,5.6-8c3-1.5,7.3-2.4,13-2.5c0.6-0.1,1.1-0.1,1.5-0.1c6.3,0,10.8,1.1,13.8,3.1
		c3,2.1,4.4,5.2,4.4,9.6v16.8c0,1,0.1,1.8,0.1,2.4c0.1,0.7,0.4,1.4,0.6,2h-11.8c-0.4-0.6-0.5-1.3-0.6-2c-0.1-0.7-0.2-1.4-0.2-2.3
		V342.8L209.8,342.8z M202,341.2c2.3-0.2,4-0.8,5.2-2c1.5-1.2,2.3-3.1,2.3-5.6v-0.7h-1c-2.5,0-4.8,0-6.5,0.2
		c-1.9,0.1-3.3,0.5-4.4,0.8c-2,0.7-3.1,1.9-3.1,3.6c0,1.2,0.6,2.1,1.5,2.7c1.1,0.6,2.6,1,4.8,1C201.3,341.2,201.6,341.2,202,341.2
		L202,341.2z M163.9,330.2c0-3-0.7-5.4-2.4-7.1c-1.7-1.8-3.8-2.6-6.5-2.6c-0.1,0-0.1,0-0.2,0c-2.9,0-5.1,0.8-6.7,2.6
		c-1.7,1.7-2.4,4.3-2.4,7.6c0,3.2,0.7,5.7,2.4,7.5c1.5,1.8,3.8,2.6,6.7,2.6c3,0,5.2-0.9,6.8-2.7
		C163.2,336.1,163.9,333.5,163.9,330.2L163.9,330.2z M154.7,314.3c1.7-0.5,3.3-0.6,5.2-0.6c5.2,0,9.3,1.5,12.4,4.6
		c3,3,4.5,7.1,4.5,12.5c0,5.5-1.4,9.8-4.4,12.9c-3,3.1-7,4.6-12.3,4.6c-1.9,0-3.7-0.2-5.5-0.7c-0.8-0.2-1.8-0.6-2.7-1.1
		c-2.4-1.2-4.5-2.9-6.2-5.1v0.9c0,1-0.1,1.8-0.1,2.6c-0.1,0.8-0.2,1.8-0.4,2.6h-12.7c0.2-1.4,0.4-2.7,0.4-3.9
		c0.1-1.3,0.2-2.5,0.2-3.6v-40h12.6v19.2c1.9-1.9,4-3.3,6.3-4.2C152.9,314.8,153.9,314.4,154.7,314.3L154.7,314.3z M56.5,300.2h9
		l23.2,47.5H73.6l-4.2-9.6H56.5h-13l-4.4,9.6H24.9l24.6-47.5H56.5L56.5,300.2z M56.5,328.8H65l-8.1-18.2l-0.4,0.8L48,328.8H56.5
		L56.5,328.8z M90.9,347.6v-47.5h12.6v47.5H90.9L90.9,347.6z"/>
</g>
</svg>
