<?xml version="1.0" encoding="utf-8"?>
<!-- Generator: Adobe Illustrator 26.0.0, SVG Export Plug-In . SVG Version: 6.00 Build 0)  -->
<svg version="1.1" id="Layer_1" xmlns="http://www.w3.org/2000/svg" xmlns:xlink="http://www.w3.org/1999/xlink" x="0px" y="0px"
	 viewBox="0 0 500 500" style="enable-background:new 0 0 500 500;" xml:space="preserve">
<style type="text/css">
	.st0{fill-rule:evenodd;clip-rule:evenodd;fill:#FCBF92;}
	.st1{fill-rule:evenodd;clip-rule:evenodd;fill:#9D5025;}
	.st2{fill-rule:evenodd;clip-rule:evenodd;fill:#F58534;}
	.st3{enable-background:new    ;}
	.st4{fill:#303030;}
</style>
<symbol  id="A" viewBox="-40 -40 80 80">
	<g>
		<path class="st0" d="M40,8.4l-40-5l-40,5L0,40L40,8.4z"/>
		<path class="st1" d="M-40,8.4l40,12V40l-40-20.3V8.4z"/>
		<path class="st2" d="M40,8.4l-40,12V40l40-20.3V8.4z"/>
		<path class="st1" d="M-34.8-8.8H-40V2.7l5.2,1l5.7-6.2L-34.8-8.8L-34.8-8.8z"/>
		<path class="st2" d="M-29.1,3.1l-5.7,0.5V-8.8h5.7C-29.1-8.8-29.1,3.1-29.1,3.1z"/>
		<path class="st1" d="M-25.2-23.2l-6.8,1.3V4.2l6.8,1.4L-19-8.8L-25.2-23.2L-25.2-23.2z"/>
		<path class="st2" d="M-19,4.9l-6.2,0.7v-28.8l6.2,0.7C-19-22.5-19,4.9-19,4.9z"/>
		<path class="st1" d="M-12-17.4l-9.4,1V6.5l9.4,1.9l10-13L-12-17.4z"/>
		<path class="st2" d="M-5.6,7.3L-12,8.4v-25.7l6.3,0.5L-5.6,7.3L-5.6,7.3z"/>
		<g>
			<path class="st1" d="M0-38.1l-6.3,2V9.4L0,10.7l6.3-24.4L0-38.1z"/>
			<path class="st1" d="M5.9,7.3L12,8.4l9.4-17.2L12-25.9l-6.1,1V7.3z"/>
			<path class="st1" d="M21.4-8.8L12-25.9l-6.1,1"/>
			<path class="st1" d="M18.9,4.9l6.3,0.7L32-16.1l-6.8-21.6l-6.3,1.5L18.9,4.9L18.9,4.9z"/>
			<path class="st1" d="M29.1,3.1l5.7,0.5L40-17.8L34.8-40l-5.7,1.4C29.1-38.6,29.1,3.1,29.1,3.1z"/>
		</g>
		<path class="st2" d="M0-38.1l6.3,2V9.4L0,10.7V-38.1z M21.4-24L12-25.9V8.4l9.4-1.9V-24z M32-34.9l-6.8-2.7V5.6L32,4.2V-34.9z
			 M40-37.4L34.8-40V3.6l5.2-1V-37.4z"/>
	</g>
</symbol>
<g>
	
		<use xlink:href="#A"  width="80" height="80" x="-40" y="-40" transform="matrix(4.1775 0 0 4.221 251.603 207.7031)" style="overflow:visible;"/>
	<g class="st3">
		<path class="st4" d="M64.6,460.4H54.1l-3.1-9.7H35.7l-3,9.7H22.2L37.9,417h11.5L64.6,460.4z M48.8,443.2l-4.6-14.6
			c-0.3-1.1-0.6-2.4-0.7-3.9h-0.2c-0.1,1.3-0.3,2.5-0.7,3.8l-4.7,14.7H48.8z"/>
		<path class="st4" d="M117.8,460.4h-9.4v-17.7c0-4.5-1.6-6.8-4.9-6.8c-1.6,0-2.8,0.7-3.8,2c-1,1.4-1.5,3-1.5,5.1v17.3h-9.5v-17.9
			c0-4.4-1.6-6.6-4.8-6.6c-1.6,0-2.9,0.6-3.9,1.9c-1,1.3-1.5,3-1.5,5.3v17.2h-9.5v-31h9.5v4.8h0.1c1-1.7,2.4-3,4.1-4
			c1.8-1,3.7-1.6,5.8-1.6c4.3,0,7.3,1.9,8.9,5.8c2.3-3.9,5.8-5.8,10.3-5.8c6.7,0,10,4.2,10,12.5V460.4z"/>
		<path class="st4" d="M150.8,460.4h-9v-4.4h-0.1c-2.1,3.5-5.1,5.2-9.1,5.2c-3,0-5.3-0.9-7-2.6c-1.7-1.7-2.6-4-2.6-6.8
			c0-6,3.5-9.5,10.6-10.4l8.3-1.1c0-3.4-1.8-5.1-5.5-5.1c-3.7,0-7.1,1.1-10.4,3.3v-7.2c1.3-0.7,3.1-1.3,5.4-1.8
			c2.3-0.5,4.4-0.8,6.2-0.8c8.7,0,13.1,4.4,13.1,13.2V460.4z M141.9,447.8v-2.1l-5.6,0.7c-3.1,0.4-4.6,1.8-4.6,4.2
			c0,1.1,0.4,2,1.1,2.7c0.7,0.7,1.8,1,3,1c1.8,0,3.2-0.6,4.3-1.9C141.3,451.3,141.9,449.7,141.9,447.8z"/>
		<path class="st4" d="M182.6,460.4H155v-4l15.4-20h-13.9v-7.1h25.9v4.7l-14.6,19.2h14.7V460.4z"/>
		<path class="st4" d="M202.3,461.1c-5.1,0-9.1-1.4-12.1-4.3s-4.4-6.8-4.4-11.8c0-5.1,1.5-9.1,4.6-12c3-2.9,7.1-4.3,12.3-4.3
			c5.1,0,9.1,1.4,12,4.3c2.9,2.9,4.3,6.7,4.3,11.5c0,5.1-1.5,9.2-4.5,12.2S207.5,461.1,202.3,461.1z M202.5,436
			c-2.2,0-4,0.8-5.2,2.3s-1.9,3.8-1.9,6.6c0,6,2.4,8.9,7.1,8.9c4.5,0,6.8-3.1,6.8-9.2C209.4,438.8,207.1,436,202.5,436z"/>
		<path class="st4" d="M254.8,460.4h-9.4v-17.2c0-4.8-1.7-7.2-5.1-7.2c-1.6,0-3,0.6-4,1.9c-1.1,1.3-1.6,2.9-1.6,4.8v17.7h-9.5v-31
			h9.5v4.9h0.1c2.3-3.8,5.5-5.7,9.9-5.7c6.8,0,10.2,4.3,10.2,12.8V460.4z"/>
		<path class="st4" d="M317.9,460.4h-10.5l-3.1-9.7H289l-3,9.7h-10.5l15.6-43.4h11.5L317.9,460.4z M302.1,443.2l-4.6-14.6
			c-0.3-1.1-0.6-2.4-0.7-3.9h-0.2c-0.1,1.3-0.3,2.5-0.7,3.8l-4.7,14.7H302.1z"/>
		<path class="st4" d="M339.7,460c-1.4,0.7-3.5,1.1-6.3,1.1c-6.7,0-10-3.5-10-10.5v-14.2h-5v-7.1h5v-6.7l9.4-2.7v9.4h6.9v7.1h-6.9
			V449c0,3.2,1.3,4.8,3.8,4.8c1,0,2-0.3,3.1-0.9V460z"/>
		<path class="st4" d="M374.4,460.4H365v-17.6c0-4.5-1.6-6.8-4.9-6.8c-1.7,0-3,0.6-4.1,1.9c-1,1.3-1.6,2.9-1.6,4.8v17.7H345v-45.9
			h9.5V434h0.1c2.3-3.6,5.5-5.4,9.4-5.4c7,0,10.4,4.2,10.4,12.7V460.4z"/>
		<path class="st4" d="M409.5,447.6h-20c0.3,4.5,3.1,6.8,8.4,6.8c3.4,0,6.3-0.8,8.9-2.4v6.9c-2.8,1.5-6.5,2.3-11.1,2.3
			c-5,0-8.8-1.4-11.5-4.2s-4.1-6.6-4.1-11.6c0-5.1,1.5-9.2,4.4-12.2c3-3,6.6-4.5,10.9-4.5c4.5,0,7.9,1.3,10.4,4
			c2.4,2.7,3.7,6.3,3.7,10.9V447.6z M400.7,441.7c0-4.4-1.8-6.7-5.3-6.7c-1.5,0-2.8,0.6-3.9,1.9s-1.8,2.9-2,4.8H400.7z"/>
		<path class="st4" d="M444.8,460.4h-9.4v-17.2c0-4.8-1.7-7.2-5.1-7.2c-1.6,0-3,0.6-4,1.9c-1.1,1.3-1.6,2.9-1.6,4.8v17.7h-9.5v-31
			h9.5v4.9h0.1c2.3-3.8,5.5-5.7,9.9-5.7c6.8,0,10.2,4.3,10.2,12.8V460.4z"/>
		<path class="st4" d="M477.8,460.4h-9v-4.4h-0.1c-2.1,3.5-5.1,5.2-9.1,5.2c-3,0-5.3-0.9-7-2.6c-1.7-1.7-2.6-4-2.6-6.8
			c0-6,3.5-9.5,10.6-10.4l8.3-1.1c0-3.4-1.8-5.1-5.5-5.1c-3.7,0-7.1,1.1-10.4,3.3v-7.2c1.3-0.7,3.1-1.3,5.4-1.8
			c2.3-0.5,4.4-0.8,6.2-0.8c8.7,0,13.1,4.4,13.1,13.2V460.4z M468.9,447.8v-2.1l-5.6,0.7c-3.1,0.4-4.6,1.8-4.6,4.2
			c0,1.1,0.4,2,1.1,2.7c0.7,0.7,1.8,1,3,1c1.8,0,3.2-0.6,4.3-1.9C468.3,451.3,468.9,449.7,468.9,447.8z"/>
	</g>
</g>
</svg>
