<?xml version="1.0" encoding="utf-8"?>
<!-- Generator: Adobe Illustrator 26.0.0, SVG Export Plug-In . SVG Version: 6.00 Build 0)  -->
<svg version="1.1" id="Layer_1" xmlns="http://www.w3.org/2000/svg" xmlns:xlink="http://www.w3.org/1999/xlink" x="0px" y="0px"
	 viewBox="0 0 500 500" style="enable-background:new 0 0 500 500;" xml:space="preserve">
<style type="text/css">
	.st0{fill:#1E639D;}
	.st1{fill:#4C92CD;}
	.st2{fill-rule:evenodd;clip-rule:evenodd;fill:#2C76BC;}
	.st3{fill:#161419;}
</style>
<g>
	<g>
		<polygon class="st0" points="245.3,245.5 351.6,271.2 351.6,71.6 245.3,97.3 		"/>
		<polygon class="st1" points="351.6,71.6 372,81.9 372,260.9 351.6,271.2 		"/>
		<polygon class="st1" points="245.3,245.5 139,271.2 139,71.6 245.3,97.3 		"/>
		<polygon class="st0" points="139,71.6 118.6,81.9 118.6,260.9 139,271.2 		"/>
		<polygon class="st1" points="272.5,311.2 312.9,291.1 312.9,52.2 272.5,32.1 259.8,164.9 		"/>
		<polygon class="st0" points="218.1,311.2 177.7,291.1 177.7,52.2 218.1,32.1 230.8,164.4 		"/>
		<polygon class="st2" points="218.1,32.1 272.5,32.1 272.5,311.2 218.1,311.2 		"/>
	</g>
	<g>
		<path d="M107.3,425.3c3.6-0.6,7-1,10.6-1c5.8,0,9.8,1.2,12.4,3.6c2.2,2.2,3.4,5,3.4,8.2c0,5-3.2,9.4-8,10.8v0.2
			c3.2,1.2,5.2,4.2,6.4,8.6c0.8,4,1.8,8,3.2,11.8h-5.8c-1.4-3.4-2.4-6.8-3-10.2c-1.2-5.8-3.6-8.2-8.6-8.4h-5v18.6h-5.6V425.3
			L107.3,425.3z M112.9,444.7h5.6c5.8,0,9.6-3.2,9.6-8.2c0-5.6-4-8-9.8-8c-1.8,0-3.6,0.2-5.4,0.6V444.7L112.9,444.7L112.9,444.7z"/>
		<polygon points="168.7,447.3 152.1,447.3 152.1,462.9 170.7,462.9 170.7,467.5 146.5,467.5 146.5,424.5 169.7,424.5 169.7,429.3 
			152.1,429.3 152.1,442.9 168.7,442.9 		"/>
		<path d="M181.7,425.1c3.8-0.6,7.8-0.8,11.8-0.8c8,0,13.6,1.8,17.4,5.4c4.2,4,6.4,9.6,6.2,15.4c0.2,6.2-2,12.2-6.2,16.6
			c-4,4-10.6,6.2-19,6.2c-3.4,0-6.8-0.2-10.2-0.6V425.1L181.7,425.1L181.7,425.1z M187.3,463.3c1.8,0.2,3.8,0.4,5.6,0.2
			c11.8,0,18.2-6.6,18.2-18.2c0-10.2-5.6-16.6-17.4-16.6c-2.2,0-4.4,0.2-6.6,0.6L187.3,463.3L187.3,463.3L187.3,463.3z"/>
		<path d="M227.3,460.7c3,1.8,6.4,2.8,9.8,2.8c5.6,0,9-3,9-7.2c0-4.4-2.2-6.4-8-8.6c-7-2.4-11.4-6.2-11.4-12.2
			c0-6.6,5.6-11.8,13.8-11.8c3.2,0,6.4,0.6,9.4,2l-1.6,4.6c-2.4-1.4-5.2-2-8-2c-5.8,0-8,3.6-8,6.4c0,4,2.6,5.8,8.6,8.2
			c7.2,3,10.8,6.4,10.8,12.6s-4.8,12.4-15,12.4c-3.8,0-7.6-1-11-3L227.3,460.7L227.3,460.7z"/>
		<polygon points="268.9,424.5 268.9,442.5 289.7,442.5 289.7,424.5 295.1,424.5 295.1,467.5 289.7,467.5 289.7,447.3 268.9,447.3 
			268.9,467.5 263.3,467.5 263.3,424.5 		"/>
		<polygon points="314.9,424.5 314.9,467.5 309.3,467.5 309.3,424.5 		"/>
		<polygon points="329.1,424.5 352.1,424.5 352.1,429.3 334.7,429.3 334.7,443.5 350.7,443.5 350.7,448.1 334.7,448.1 334.7,467.5 
			329.1,467.5 		"/>
		<g>
			<path class="st3" d="M128.7,355.9c-8.4,0-17.6,3.2-19.8,13.8c0,0.4,0,0.8,0.2,1.2c0.2,0.4,0.6,0.6,1,0.6l8.6,1
				c0.8-0.2,1.4-1,1.4-1.8c0.6-3.4,3.8-5.6,7-5.4c2,0,3.8,0.8,5,2.2c1,2,1.4,4.2,1.2,6.6v1.2c-5.6,0.2-11.2,1.2-16.6,3
				c-5.8,2.4-9.6,8.4-9.4,14.8c0,9.4,5.8,14.2,13.2,14.2c5.6,0.4,11-2.2,14.6-6.6c1.4,2.2,3,4.2,5,5.8c0.6,0.4,1.4,0.2,2-0.2
				c1.8-1.6,5-4.6,6.8-6c0.6-0.6,0.6-1.8,0-2.4c-2.2-2.2-3.2-5.2-3.4-8.4v-13.8c0-5.8,0.6-11.4-3.8-15.6
				C138.3,357.3,133.5,355.7,128.7,355.9L128.7,355.9z M244.3,355.9c-8.4,0-17.6,3.2-19.8,13.8c0,0.4,0,0.8,0.2,1.2
				c0.2,0.4,0.6,0.6,1,0.6l8.6,1c0.8-0.2,1.4-1,1.6-1.8c0.6-3.4,3.8-5.6,7-5.4c2,0,3.8,0.8,5,2.2c1,2,1.4,4.4,1,6.6v1.2
				c-5.6,0.2-11.2,1.2-16.6,3c-5.8,2.4-9.6,8.4-9.4,14.8c0,9.4,5.8,14.2,13.2,14.2c5.6,0.4,11-2.2,14.6-6.6c1.4,2.2,3,4.2,5,5.8
				c0.6,0.4,1.4,0.2,2-0.2c1.8-1.6,5-4.6,6.8-6c0.6-0.6,0.6-1.8,0-2.4c-2.2-2.2-3.2-5.2-3.4-8.4v-13.8c0-5.8,0.4-11.4-3.8-15.6
				C253.9,357.3,249.1,355.7,244.3,355.9L244.3,355.9z M179.3,356.3c-5.4-0.2-10.2,3.4-11.6,8.6v-6c0-0.8-0.8-1.6-1.6-1.6h-8.2
				c-1,0-1.6,0.8-1.8,1.8v46.4c0,0.8,0.8,1.6,1.6,1.6h8.8c1,0,1.6-0.8,1.8-1.8v-24.6c0-5.4-0.2-12.8,6-12.8s5.4,7.6,5.4,12.8v24.6
				c0,0.8,0.8,1.6,1.6,1.8h8.8c1,0,1.6-0.8,1.8-1.8v-24.6c-0.2-3,0-6,0.8-8.8c0.8-2.2,2.8-3.8,5.2-4c1.2-0.2,2.4,0.2,3.4,1
				s1.6,1.8,1.8,3c0.2,3,0.4,5.8,0.2,8.8v24.6c0,0.8,0.8,1.6,1.6,1.8h8.8c1,0,1.6-0.8,1.8-1.8v-29.4c0-5,0.6-10.6-2.2-14.6
				c-2.8-3.6-7.6-5.6-12.2-4.8c-4.6,0.8-8.4,4-10,8.4C188.3,359.1,184.9,356.3,179.3,356.3L179.3,356.3z M329.5,356.3
				c-12.8,0-19.8,11.2-19.8,25.6s7,26,19.8,26c12.4,0,20.2-11.2,20.2-25.4C349.7,367.9,342.5,356.3,329.5,356.3L329.5,356.3
				L329.5,356.3z M379.9,356.3c-6,0-9.6,3-12,9.4v-7c-0.2-0.8-0.8-1.2-1.6-1.2h-8.2c-0.8,0-1.6,0.6-1.8,1.6v46.4
				c0,0.8,0.8,1.6,1.6,1.8h8.8c1,0,1.6-0.8,1.8-1.8v-25c-0.2-3,0.4-6,1.6-8.8c0.8-2,2.6-3.4,4.8-3.6c6,0,5.6,7.4,5.6,12.4v25
				c0.2,0.8,0.8,1.4,1.6,1.6h8.8c0.8,0,1.6-0.6,1.8-1.6v-29.2c0-4.6,0-10.8-2.2-14.4C387.9,358.3,384.1,356.1,379.9,356.3
				L379.9,356.3L379.9,356.3z M273.9,357.1c-0.4,0-0.8,0.2-1.2,0.6c-0.4,0.4-0.4,0.8-0.4,1.2v6.6c0,0.4,0.2,0.8,0.4,1.2
				c0.4,0.4,0.8,0.6,1.2,0.6h15.2l-17.4,25.6c-0.8,1.4-1.2,3-1.2,4.6v6.8c0,0.6,0.2,1,0.6,1.4s1,0.4,1.4,0.2c9.6-5,21-5,30.6,0
				c0.4,0.2,1,0.2,1.4-0.2c0.4-0.4,0.6-0.8,0.6-1.4v-7.2c0-1-0.6-2-1.6-2.6c-5-2.8-10.8-4-16.6-3.6l15-22c1-1.2,1.8-2.6,2.2-4.2
				v-5.8c0-0.4-0.2-0.8-0.4-1.2c-0.4-0.4-0.8-0.6-1.2-0.6H273.9L273.9,357.1L273.9,357.1z M329.5,365.9c2.8-0.2,5.4,1.8,5.8,4.4
				c1,4,1.4,8.2,1.2,12.2c0,5.8-0.2,15.8-7,15.8s-6.8-12.2-6.8-17.8C322.7,374.9,322.9,365.9,329.5,365.9L329.5,365.9L329.5,365.9z
				 M133.5,382.7v2c0.4,3.2-0.2,6.6-1.6,9.6c-1.2,2.4-3.4,4-6,4.2c-3.4,0-5.4-2.8-5.4-6.6C120.3,384.1,127.1,382.7,133.5,382.7
				L133.5,382.7z M249.1,382.7v2c0.4,3.2-0.2,6.6-1.6,9.6c-1.2,2.4-3.4,4-6,4.2c-3.4,0-5.4-2.8-5.4-6.6
				C235.9,384.1,242.7,382.7,249.1,382.7L249.1,382.7L249.1,382.7z"/>
			<polygon points="373.9,429.3 360.9,429.3 360.9,424.5 392.7,424.5 392.7,429.3 379.5,429.3 379.5,467.5 373.9,467.5 			"/>
		</g>
	</g>
</g>
</svg>
