<?xml version="1.0" encoding="utf-8"?>
<!-- Generator: Adobe Illustrator 26.0.0, SVG Export Plug-In . SVG Version: 6.00 Build 0)  -->
<svg version="1.1" id="Layer_1" xmlns="http://www.w3.org/2000/svg" xmlns:xlink="http://www.w3.org/1999/xlink" x="0px" y="0px"
	 viewBox="0 0 841.9 253.7" style="enable-background:new 0 0 841.9 253.7;" xml:space="preserve">
<style type="text/css">
	.st0{fill-rule:evenodd;clip-rule:evenodd;fill:#808080;}
</style>
<g>
	<path class="st0" d="M522.3,198.4c-48.9,36.1-119.8,55.3-180.9,55.3c-85.6,0-162.7-31.6-221-84.3c-4.6-4.1-0.5-9.8,5-6.6
		c62.9,36.6,140.7,58.7,221.1,58.7c54.2,0,113.8-11.3,168.6-34.5C523.5,183.5,530.4,192.4,522.3,198.4"/>
	<path class="st0" d="M542.7,175.2c-6.3-8-41.4-3.8-57.1-1.9c-4.8,0.6-5.5-3.6-1.2-6.6c28-19.7,73.9-14,79.2-7.4
		c5.4,6.6-1.4,52.6-27.6,74.6c-4,3.4-7.9,1.6-6.1-2.9C535.7,216.2,548.9,183.2,542.7,175.2"/>
	<path class="st0" d="M486.6,27.7V8.6c0-2.9,2.2-4.8,4.8-4.8l85.6,0c2.7,0,4.9,2,4.9,4.8l0,16.4c0,2.7-2.3,6.3-6.4,12l-44.4,63.3
		c16.5-0.4,33.9,2.1,48.9,10.5c3.4,1.9,4.3,4.7,4.5,7.5v20.4c0,2.8-3.1,6.1-6.3,4.4c-26.4-13.8-61.3-15.3-90.5,0.2
		c-3,1.6-6.1-1.6-6.1-4.4v-19.4c0-3.1,0.1-8.4,3.2-13.1l51.4-73.7l-44.8,0C488.9,32.5,486.7,30.6,486.6,27.7"/>
	<path class="st0" d="M174.2,147.1h-26.1c-2.5-0.2-4.5-2-4.7-4.4l0-133.7c0-2.7,2.3-4.8,5-4.8l24.3,0c2.5,0.1,4.6,2.1,4.7,4.5v17.5
		h0.5c6.3-16.9,18.2-24.8,34.3-24.8c16.3,0,26.5,7.9,33.8,24.8c6.3-16.9,20.7-24.8,36-24.8c10.9,0,22.9,4.5,30.2,14.6
		c8.3,11.3,6.6,27.6,6.6,41.9l0,84.4c0,2.7-2.3,4.8-5,4.8h-26c-2.6-0.2-4.7-2.2-4.7-4.8l0-70.9c0-5.6,0.5-19.7-0.7-25
		c-1.9-9-7.8-11.5-15.3-11.5c-6.3,0-12.9,4.2-15.6,11c-2.7,6.8-2.4,18-2.4,25.6v70.9c0,2.7-2.3,4.8-5,4.8h-26
		c-2.6-0.2-4.7-2.2-4.7-4.8l0-70.9c0-14.9,2.4-36.9-16.1-36.9c-18.7,0-18,21.4-18,36.9l0,70.9C179.2,144.9,177,147.1,174.2,147.1"/>
	<path class="st0" d="M655.8,1.3c38.7,0,59.6,33.2,59.6,75.4c0,40.8-23.1,73.2-59.6,73.2c-37.9,0-58.6-33.2-58.6-74.6
		C597.2,33.7,618.1,1.3,655.8,1.3 M656,28.6c-19.2,0-20.4,26.2-20.4,42.5c0,16.3-0.2,51.2,20.2,51.2C676,122.3,677,94.2,677,77
		c0-11.3-0.5-24.8-3.9-35.5C670.2,32.3,664.3,28.6,656,28.6z"/>
	<path class="st0" d="M765.5,147.1h-26c-2.6-0.2-4.7-2.2-4.7-4.8l0-133.8c0.2-2.4,2.4-4.4,5-4.4l24.2,0c2.3,0.1,4.2,1.7,4.6,3.7
		v20.5h0.5c7.3-18.3,17.5-27,35.5-27c11.7,0,23.1,4.2,30.4,15.8c6.3,9.9,6.8,26.2,6.8,38.8v87c-0.3,2.4-2.4,4.2-5,4.2h-26.1
		c-2.4-0.2-4.4-1.9-4.6-4.2V70.2c0-14.6,1.7-36-16.3-36c-6.3,0-12.2,4.2-15.1,10.7c-3.6,8.2-4.1,16.3-4.1,25.3v72
		C770.6,144.9,768.3,147.1,765.5,147.1"/>
	<path class="st0" d="M418.4,83.2c0,10.2,0.2,18.6-4.9,27.6c-4.1,7.3-10.7,11.8-18,11.8c-10,0-15.8-7.6-15.8-18.9
		c0-22.2,19.9-26.2,38.8-26.2V83.2z M444.6,146.7c-1.7,1.5-4.2,1.7-6.2,0.6c-8.7-7.2-10.2-10.5-14.9-17.4
		c-14.3,14.6-24.4,18.9-43,18.9c-21.9,0-39-13.5-39-40.6c0-21.2,11.5-35.5,27.8-42.6c14.1-6.2,33.9-7.3,49-9v-3.4
		c0-6.2,0.5-13.5-3.2-18.9c-3.2-4.8-9.3-6.8-14.6-6.8c-9.9,0-18.8,5.1-20.9,15.6c-0.4,2.3-2.2,4.7-4.5,4.8l-25.3-2.7
		c-2.1-0.5-4.5-2.2-3.9-5.4C351.8,9.3,379.4,0,404.2,0c12.7,0,29.2,3.4,39.2,13c12.7,11.8,11.5,27.6,11.5,44.8v40.6
		c0,12.2,5.1,17.6,9.8,24.1c1.7,2.4,2,5.2-0.1,6.9C459.4,133.9,449.9,142.2,444.6,146.7L444.6,146.7z"/>
	<path class="st0" d="M76.8,83.2c0,10.2,0.2,18.6-4.9,27.6c-4.1,7.3-10.7,11.8-18,11.8c-10,0-15.8-7.6-15.8-18.9
		c0-22.2,19.9-26.2,38.8-26.2V83.2z M103.1,146.7c-1.7,1.5-4.2,1.7-6.2,0.6c-8.7-7.2-10.2-10.5-14.9-17.4
		c-14.3,14.6-24.4,18.9-43,18.9c-21.9,0-39-13.5-39-40.6c0-21.2,11.5-35.5,27.8-42.6c14.1-6.2,33.9-7.3,49-9v-3.4
		c0-6.2,0.5-13.5-3.2-18.9c-3.2-4.8-9.3-6.8-14.6-6.8c-9.9,0-18.8,5.1-20.9,15.6c-0.5,2.3-2.2,4.7-4.5,4.8L8.3,45.3
		c-2.1-0.5-4.5-2.2-3.9-5.4C10.2,9.3,37.8,0,62.6,0c12.7,0,29.3,3.4,39.2,13c12.7,11.8,11.5,27.6,11.5,44.8v40.6
		c0,12.2,5.1,17.6,9.8,24.1c1.7,2.4,2,5.2-0.1,6.9C117.8,133.9,108.3,142.2,103.1,146.7L103.1,146.7z"/>
</g>
</svg>
