<?xml version="1.0" encoding="utf-8"?>
<!-- Generator: Adobe Illustrator 26.0.0, SVG Export Plug-In . SVG Version: 6.00 Build 0)  -->
<svg version="1.1" id="Layer_1" xmlns="http://www.w3.org/2000/svg" xmlns:xlink="http://www.w3.org/1999/xlink" x="0px" y="0px"
	 viewBox="0 0 512 512" style="enable-background:new 0 0 512 512;" xml:space="preserve">
<style type="text/css">
	.st0{fill:#FF9900;}
	.st1{fill-rule:evenodd;clip-rule:evenodd;}
</style>
<g>
	<path class="st0" d="M402.4,385.3c-165.1,78.6-267.6,12.8-333.1-27.1c-4.1-2.5-11,0.6-5,7.5c21.9,26.5,93.5,90.4,186.9,90.4
		c93.5,0,149.2-51,156.1-59.9C414.3,387.2,409.4,382.4,402.4,385.3L402.4,385.3z M448.8,359.7c-4.4-5.8-27-6.8-41.1-5.1
		c-14.2,1.7-35.5,10.4-33.7,15.6c1,2,2.9,1.1,12.6,0.2c9.8-1,37.2-4.4,42.9,3c5.7,7.5-8.7,43.3-11.4,49.1c-2.6,5.8,1,7.3,5.8,3.4
		c4.7-3.8,13.3-13.8,19-27.9C448.6,383.8,452.1,364.1,448.8,359.7L448.8,359.7z"/>
	<path class="st1" d="M291.4,225c0,20.6,0.5,37.8-9.9,56.1c-8.4,14.9-21.7,24-36.6,24c-20.3,0-32.2-15.5-32.2-38.3
		c0-45.1,40.4-53.3,78.7-53.3V225z M344.7,353.9c-3.5,3.1-8.6,3.3-12.5,1.3c-17.6-14.6-20.7-21.4-30.4-35.3
		c-29,29.6-49.6,38.5-87.2,38.5c-44.5,0-79.2-27.5-79.2-82.5c0-42.9,23.3-72.2,56.4-86.5c28.7-12.7,68.8-14.9,99.5-18.4v-6.8
		c0-12.6,1-27.5-6.4-38.3c-6.5-9.8-18.8-13.8-29.7-13.8c-20.2,0-38.2,10.3-42.6,31.8c-0.9,4.8-4.4,9.5-9.2,9.7l-51.4-5.5
		c-4.3-1-9.1-4.5-7.9-11.1c11.8-62.2,68-81,118.3-81c25.8,0,59.4,6.8,79.7,26.3c25.8,24,23.3,56.1,23.3,91v82.5
		c0,24.8,10.3,35.7,19.9,49c3.4,4.8,4.2,10.5-0.1,14.1c-10.8,9-30,25.8-40.6,35.1L344.7,353.9"/>
	<path class="st0" d="M402.4,385.3c-165.1,78.6-267.6,12.8-333.1-27.1c-4.1-2.5-11,0.6-5,7.5c21.9,26.5,93.5,90.4,186.9,90.4
		c93.5,0,149.2-51,156.1-59.9C414.3,387.2,409.4,382.4,402.4,385.3L402.4,385.3z M448.8,359.7c-4.4-5.8-27-6.8-41.1-5.1
		c-14.2,1.7-35.5,10.4-33.7,15.6c1,2,2.9,1.1,12.6,0.2c9.8-1,37.2-4.4,42.9,3c5.7,7.5-8.7,43.3-11.4,49.1c-2.6,5.8,1,7.3,5.8,3.4
		c4.7-3.8,13.3-13.8,19-27.9C448.6,383.8,452.1,364.1,448.8,359.7L448.8,359.7z"/>
	<path class="st1" d="M291.4,225c0,20.6,0.5,37.8-9.9,56.1c-8.4,14.9-21.7,24-36.6,24c-20.3,0-32.2-15.5-32.2-38.3
		c0-45.1,40.4-53.3,78.7-53.3V225z M344.7,353.9c-3.5,3.1-8.6,3.3-12.5,1.3c-17.6-14.6-20.7-21.4-30.4-35.3
		c-29,29.6-49.6,38.5-87.2,38.5c-44.5,0-79.2-27.5-79.2-82.5c0-42.9,23.3-72.2,56.4-86.5c28.7-12.7,68.8-14.9,99.5-18.4v-6.8
		c0-12.6,1-27.5-6.4-38.3c-6.5-9.8-18.8-13.8-29.7-13.8c-20.2,0-38.2,10.3-42.6,31.8c-0.9,4.8-4.4,9.5-9.2,9.7l-51.4-5.5
		c-4.3-1-9.1-4.5-7.9-11.1c11.8-62.2,68-81,118.3-81c25.8,0,59.4,6.8,79.7,26.3c25.8,24,23.3,56.1,23.3,91v82.5
		c0,24.8,10.3,35.7,19.9,49c3.4,4.8,4.2,10.5-0.1,14.1c-10.8,9-30,25.8-40.6,35.1L344.7,353.9"/>
</g>
</svg>
