<?xml version="1.0" encoding="utf-8"?>
<!-- Generator: Adobe Illustrator 26.0.0, SVG Export Plug-In . SVG Version: 6.00 Build 0)  -->
<svg version="1.1" id="Layer_1" xmlns="http://www.w3.org/2000/svg" xmlns:xlink="http://www.w3.org/1999/xlink" x="0px" y="0px"
	 viewBox="0 0 500 500" style="enable-background:new 0 0 500 500;" xml:space="preserve">
<style type="text/css">
	.st0{fill:#FF9900;}
	.st1{fill:#221F1F;}
</style>
<g>
	<path id="path8_00000175291324695071086830000005566996272067177917_" class="st0" d="M302.9,287.4c-25.6,18.8-62.6,28.9-94.5,28.9
		c-44.7,0-85-16.5-115.5-44.1c-2.4-2.2-0.2-5.1,2.6-3.4c32.9,19.1,73.5,30.6,115.5,30.6c28.3,0,59.5-5.9,88.1-18
		C303.6,279.6,307.2,284.2,302.9,287.4"/>
	<path id="path10_00000090292094251430375610000009849460168119438752_" class="st0" d="M313.6,275.2c-3.3-4.2-21.6-2-29.8-1
		c-2.5,0.3-2.9-1.9-0.6-3.4c14.6-10.3,38.6-7.3,41.4-3.9c2.8,3.5-0.7,27.5-14.5,39c-2.1,1.8-4.1,0.8-3.2-1.5
		C309.9,296.7,316.9,279.4,313.6,275.2"/>
	<path id="path12_00000007394944748931894800000010526193789557986970_" class="st1" d="M284.3,198.2v-10c0-1.5,1.1-2.5,2.5-2.5
		h44.7c1.4,0,2.6,1,2.6,2.5v8.6c0,1.4-1.2,3.3-3.4,6.3l-23.2,33.1c8.6-0.2,17.7,1.1,25.5,5.5c1.8,1,2.2,2.5,2.4,3.9v10.7
		c0,1.5-1.6,3.2-3.3,2.3c-13.8-7.2-32.1-8-47.3,0.1c-1.6,0.8-3.2-0.8-3.2-2.3v-10.1c0-1.6,0-4.4,1.6-6.9l26.9-38.5h-23.4
		C285.5,200.7,284.3,199.7,284.3,198.2"/>
	<path id="path14_00000170273977849727953460000012177794439276353446_" class="st1" d="M121.1,260.6h-13.6
		c-1.3-0.1-2.3-1.1-2.4-2.3v-69.9c0-1.4,1.2-2.5,2.6-2.5h12.7c1.3,0.1,2.4,1.1,2.5,2.3v9.1h0.2c3.3-8.8,9.5-12.9,17.9-12.9
		c8.5,0,13.8,4.1,17.7,12.9c3.3-8.8,10.8-12.9,18.8-12.9c5.7,0,11.9,2.4,15.8,7.6c4.3,5.9,3.4,14.4,3.4,21.9l0,44.1
		c0,1.4-1.2,2.5-2.6,2.5h-13.6c-1.4-0.1-2.5-1.2-2.5-2.5v-37c0-2.9,0.3-10.3-0.4-13.1c-1-4.7-4.1-6-8-6c-3.3,0-6.7,2.2-8.1,5.7
		c-1.4,3.5-1.3,9.4-1.3,13.4v37c0,1.4-1.2,2.5-2.6,2.5H144c-1.4-0.1-2.5-1.2-2.5-2.5l0-37c0-7.8,1.3-19.3-8.4-19.3
		c-9.8,0-9.4,11.2-9.4,19.3v37C123.7,259.4,122.6,260.6,121.1,260.6"/>
	<path id="path16_00000066494491194019782260000000460387668912879038_" class="st1" d="M372.7,184.4c20.2,0,31.1,17.3,31.1,39.4
		c0,21.3-12.1,38.2-31.1,38.2c-19.8,0-30.6-17.3-30.6-39C342.1,201.3,353,184.4,372.7,184.4 M372.8,198.7c-10,0-10.7,13.7-10.7,22.2
		c0,8.5-0.1,26.8,10.5,26.8c10.5,0,11-14.7,11-23.7c0-5.9-0.2-12.9-2-18.5C380.2,200.6,377.1,198.7,372.8,198.7"/>
	<path id="path18_00000168838913100194413920000015247597017815369404_" class="st1" d="M430,260.6h-13.6c-1.4-0.1-2.5-1.2-2.5-2.5
		l0-69.9c0.1-1.3,1.2-2.3,2.6-2.3h12.6c1.2,0.1,2.2,0.9,2.4,2v10.7h0.2c3.8-9.6,9.2-14.1,18.6-14.1c6.1,0,12.1,2.2,15.9,8.2
		c3.6,5.6,3.6,15,3.6,21.8v44c-0.2,1.2-1.3,2.2-2.6,2.2h-13.7c-1.2-0.1-2.3-1-2.4-2.2v-37.9c0-7.6,0.9-18.8-8.5-18.8
		c-3.3,0-6.4,2.2-7.9,5.6c-1.9,4.3-2.2,8.5-2.2,13.2V258C432.7,259.4,431.5,260.6,430,260.6"/>
	<g id="use28_00000036943848092553465340000009083351138972689334_" transform="translate(244.36719)">
		<path id="path30_00000168795959710174490470000015138544462256801201_" class="st1" d="M248.7,227.2v-2.9
			c-9.8,0-20.2,2.1-20.2,13.7c0,5.9,3,9.9,8.3,9.9c3.8,0,7.3-2.4,9.4-6.2C248.8,236.9,248.7,232.5,248.7,227.2 M262.4,260.4
			c-0.9,0.8-2.2,0.9-3.2,0.3c-4.5-3.8-5.3-5.5-7.8-9.1c-7.5,7.6-12.8,9.9-22.4,9.9c-11.4,0-20.4-7.1-20.4-21.2
			c0-11,6-18.6,14.5-22.2c7.4-3.3,17.7-3.8,25.6-4.7v-1.8c0-3.2,0.2-7.1-1.6-9.9c-1.7-2.5-4.8-3.5-7.6-3.5c-5.2,0-9.8,2.7-11,8.2
			c-0.2,1.2-1.1,2.4-2.4,2.5l-13.2-1.4c-1.1-0.2-2.3-1.1-2-2.9c3-16,17.5-20.8,30.4-20.8c6.6,0,15.3,1.8,20.5,6.8
			c6.6,6.2,6,14.4,6,23.4v21.2c0,6.4,2.6,9.2,5.1,12.6c0.9,1.2,1.1,2.7,0,3.6C270.1,253.7,265.1,258,262.4,260.4L262.4,260.4"/>
	</g>
	<path id="path30_00000047058772365939619410000017522968171497294506_" class="st1" d="M70.2,227.2v-2.9c-9.8,0-20.2,2.1-20.2,13.7
		c0,5.9,3,9.9,8.3,9.9c3.8,0,7.3-2.4,9.4-6.2C70.3,236.9,70.2,232.5,70.2,227.2 M83.9,260.4c-0.9,0.8-2.2,0.9-3.2,0.3
		c-4.5-3.8-5.3-5.5-7.8-9.1c-7.5,7.6-12.8,9.9-22.4,9.9c-11.4,0-20.4-7.1-20.4-21.2c0-11,6-18.6,14.5-22.2
		c7.4-3.3,17.7-3.8,25.6-4.7v-1.8c0-3.2,0.2-7.1-1.6-9.9c-1.7-2.5-4.8-3.5-7.6-3.5c-5.2,0-9.8,2.7-11,8.2c-0.2,1.2-1.1,2.4-2.4,2.5
		l-13.2-1.4c-1.1-0.2-2.3-1.1-2-2.9c3-16,17.5-20.8,30.4-20.8c6.6,0,15.3,1.8,20.5,6.8c6.6,6.2,6,14.4,6,23.4v21.2
		c0,6.4,2.6,9.2,5.1,12.6c0.9,1.2,1.1,2.7,0,3.6C91.6,253.7,86.7,258,83.9,260.4L83.9,260.4"/>
</g>
</svg>
