<?xml version="1.0" encoding="utf-8"?>
<!-- Generator: Adobe Illustrator 26.0.0, SVG Export Plug-In . SVG Version: 6.00 Build 0)  -->
<svg version="1.1" id="Layer_1" xmlns="http://www.w3.org/2000/svg" xmlns:xlink="http://www.w3.org/1999/xlink" x="0px" y="0px"
	 viewBox="0 0 500 500" style="enable-background:new 0 0 500 500;" xml:space="preserve">
<style type="text/css">
	.st0{fill-rule:evenodd;clip-rule:evenodd;stroke:#FDEE21;stroke-width:5.1286;}
	.st1{fill-rule:evenodd;clip-rule:evenodd;fill:#FDEE21;}
	.st2{fill-rule:evenodd;clip-rule:evenodd;fill:#C8C037;}
	.st3{fill-rule:evenodd;clip-rule:evenodd;fill:#FCF6A0;}
	.st4{fill-rule:evenodd;clip-rule:evenodd;}
	.st5{fill-rule:evenodd;clip-rule:evenodd;fill:#FFFFFF;}
	.st6{fill-rule:evenodd;clip-rule:evenodd;stroke:#000000;stroke-width:0.114;}
</style>
<g>
	<g transform="translate(-.53268 66.8)">
		<path class="st0" d="M294.5,297.7V384h21.1v-39.7h4.3v39.5h21.5v-86.3h-21.5v32h-4.3v-32L294.5,297.7z"/>
		<path class="st0" d="M367.8,297.7h-20.6V384h20.6V297.7z"/>
		<path class="st0" d="M371.2,297.7l16.2,86.3H412l16.2-86.3h-21.8l-5.4,37c-0.4,1.4-2,1.4-2.2,0l-5.4-37H371.2z"/>
		<path class="st0" d="M473.8,297.7h-41V384h41v-22.6l-22.7-0.2v-9.7h10.8v-22.4H451v-8.7h22.7V297.7z"/>
	</g>
	<g transform="translate(-.53268 66.8)">
		<path class="st1" d="M252.4,35.9c-3.4-9.4-122.2-55.6-123.7-50.6c-21.8,5.6-30.7,30.9-45.7,46.8l-33.2-1.8
			C35.2,49.1,27.5,68.4,32.7,88.4c18.8,25.5,40.6,47.1,54.2,79.1c1.1,15.2,65.2,1.6,79.1-1.4c-18.8,13.5-35.2,34.3-28.2,94.4
			c6.5,28.2,10.8,59.8,67.7,91.5c7.6,4.2,22.9,9,32.7,12.6c9.2,4.2,19.9,6,50.2-3.2c17.5-7.6,36.5-12.1,53.6-19.7l-20.6,0.9
			c-28.3,0.5-50.2,2.7-57.1-5.2l-26.2-45.1l15.2-29.6c21.1,2.2,28,19.3,46.6,25.8l21.8-16.2c63.6,37.6,88.8-23.8,96.1-71.5
			c-0.7-19.5-42.1,6.1-39.5-3.1c0.9-20.9-16.1-48.2-27.1-69.5l12.6-49.3c5.8-5.1-26.7-59.9-53.3-66.8
			C287.6,6.4,252.4,35.9,252.4,35.9L252.4,35.9z"/>
	</g>
	<g>
		<g transform="translate(-.53268 66.8)">
			<path class="st2" d="M357,140.6c0.2,5.2,0.2,11.7,0.7,15.7c0,3.1-2.3,3.2-4.3,3.8l12.3,4.5c2.5,4.2,4.5,8.3,6.5,12.5
				c2.3,10.1,0.5,10.5-0.9,11.2c-4.5,0-9,0-13.2-0.9c1.8,0.9,2.3,1.6,2.5,2.9c0.4,2.3-1.1,5.6-3.6,8.7c3.6,2,10.3,4,15.3,6l5.6-12.6
				C375.2,173.8,367.4,156.8,357,140.6L357,140.6z"/>
			<path class="st2" d="M380.1,202.5c6.9,2.9,16.2,2,29.4-4.7c2-1.4,3.8-0.5,0.4,1.8C392.5,215,384.2,207.2,380.1,202.5L380.1,202.5
				z"/>
			<path class="st2" d="M410.8,195.8c2,4,0.7,7,0.2,10.3c-2.2,16.8-7.4,30-17.5,43.9c-33.4,53.6-67,20-93.9-1.8l-11,27.8
				c-0.5,2.5-3.1,4.3,14.3,11.9l17.7-12.5C387.7,326.7,435.3,203.8,410.8,195.8L410.8,195.8z"/>
			<path class="st2" d="M307.7,243.7c-4.5,0.4-18.1,4.9-18.6,7.6l6.1-9.2L307.7,243.7z"/>
			<path class="st2" d="M298.8,186.8c0.9,0,4.9,1.1,4.3,0.9c-0.5-0.4,0,5.6,1.3,8.7l-4.9,10.7c9.4-10.8,24.2-10.1,37.7-11.4l-6.5-4
				c1.1-3.8-0.2-6.9-0.9-9.9L298.8,186.8z"/>
			<path class="st2" d="M321.8,154.9c-9.9,3.1-19.7,8.1-26,18.8c4.9-17.7,6-17,7.6-17.9C310,152.7,315.6,154.7,321.8,154.9
				L321.8,154.9z"/>
		</g>
		<g transform="translate(-.53268 66.8)">
			<path class="st3" d="M268.1,361.6c-12.1,13.4-39.2-1.1-61.6-8.3c-57.1-36.3-68.2-70.4-69-104c-2.9-48,11.7-75.8,30.5-82.5
				c-12.3,23.8-18.1,66.4-12.3,98.2c4.7,17.7,4.7,47.5,34.3,63.4c14.4,8.1,10.5,14.4,20.4,22C221,358.9,251,366.8,268.1,361.6
				L268.1,361.6z"/>
			<path class="st3" d="M286.4,139.9c-20.6-29.2-49.5-40.1-82-41.3c6.5-2.2,13-3.2,19.5-6.3c1.6-1.6,1.1-4.7,0.5-7.6
				c-31.2-8.3-51.1-18.4-76.2-27.6l67.5,16.2C261.4,74.9,257.7,86.1,286.4,139.9L286.4,139.9z"/>
			<path class="st3" d="M308.2,125.8c-15.2-21.7-29.8-47.8-49.8-64.6c-48.2-21.7-95.9-37.9-151.7-52.5l17.9-22.9
				c59.2,13.5,115,36.1,164.8,73.5C297.7,80.5,303.5,101.8,308.2,125.8L308.2,125.8z"/>
			<path class="st3" d="M338.9,87.5c0,0-8.5-19.1-12.6-26.4c-9.6-10.7-14.4-30.5-34.1-39.7c6.1,1.6,10.5-0.4,23.1,11.2l20,37.9
				L338.9,87.5z"/>
			<path class="st3" d="M349.4,120.5c2-16.4,5.6-43,1.4-53.4c-11.9-15.9-23.8-32.5-35.7-47.7c-2-1.8-3.4-4.3-5.1-6.3
				c16.8,4.3,34.5,16.1,58.1,62.3L349.4,120.5z"/>
		</g>
		<g transform="translate(-.53268 66.8)">
			<path class="st4" d="M278.6,122.5c-6.7-5.2-12.6-24-22.9-27.8c-9.4-0.7-12.8-3.8-25.3-1.3c4.5-2.2,8.7-5.1,13.5-6.7
				c3.2-0.7,6.3,0,9.4,0.5c0.7-0.4,1.3-0.7,1.1-1.4c-12.5-7.8-37.9-7.8-55.2-12.3c20,0.7,42.1-0.4,57.2,4.3
				C268.5,88.8,272.5,109,278.6,122.5L278.6,122.5z"/>
			<path class="st4" d="M315.3,32.4c2.7,0.2,17.7,23.8,18.4,27.8c1.3,8.7,4.3,18.2,5.1,27.3c-2.5-8.7-5.1-17.3-8.5-25.8
				c-0.9-2.3-3.4-7.8-10.3-15.3C316.7,40.9,316.2,36.8,315.3,32.4L315.3,32.4z"/>
			<path class="st4" d="M365.8,161.2h-6.3l7,1.8L365.8,161.2z"/>
			<path class="st4" d="M322.3,154.9c-6.5-0.7-13-0.9-19.5,0.5c-2.7,3.4-2.9,7-4,10.5C306.8,157,309.8,156.7,322.3,154.9
				L322.3,154.9z"/>
			<path class="st4" d="M409.9,199.3c-3.6,2.9-4,5.6-14.4,8.8c-7.8,1.8-12.1-1.3-15.7-5.4c5.4,1.6,6.3,5.8,21.1,1.1L409.9,199.3z"/>
			<path class="st4" d="M377.9,201.1c-2.5,7-5.4,14.3-8.1,20.9c-6.7,7.8-3.8,3.4-13.7,15.5c3.2-4.9,7.4-9.6,9.6-14.8
				c1.4-3.4,3.4-7,4.3-9.9c-2.7-1.3-8.1-1.4-8.8-0.9c-8.8,5.2-10.5,10.8-15.7,16.1c3.8-6.1,7-12.6,11.4-18.1
				c0.5-0.7,3.8-0.9,5.8-1.3c-3.1-0.5-8.8-1.6-9.4-1.6c-5.8,1.4-9,6.5-13.4,9.7c3.1-4.5,6-9.2,9.9-13.2c0.4-0.5,11.2,0.5,16.8,2.7
				l0.2,2.2l3.2,1.3l2.3-6L377.9,201.1z"/>
			<path class="st4" d="M307.7,243.7c-1.4-0.5-14.1-2.2-14.1-1.8c-4.9,3.4-5.6,6.7-5.4,9.6C296.3,243.7,295.9,243.7,307.7,243.7
				L307.7,243.7z"/>
			<path class="st4" d="M298.1,186.6c0,0,9-1.3,8.8-0.5c-0.7,3.1,1.1,10.8,1.3,9.7l-5.1,4.2c10.7-5.4,22-4.3,33.4-5.1
				c0,0-9.6-2.7-9-2.7c2.2-0.4-0.5-10.1-1.3-10.3c1.8-0.5,3.6-1.1,5.4-1.6C318,176.9,310,179,298.1,186.6L298.1,186.6z"/>
			<path class="st4" d="M376.8,193.5l-2,1.1c-0.4-6-6.7-5.4-12.1-5.6l-4.3-1.1c1.3,1.3,5.4,1.1,3.8,3.8c-1.4,0.7-2,4-2.9,6.7
				l-2.3,0.2c4.2,1.6,8.1,3.1,12.6,5.1l2.7,0.4l6.5-3.4L376.8,193.5z"/>
		</g>
		<g transform="translate(-.53268 66.8)">
			<path class="st5" d="M316.5,189.5c-1.1-2-6.1-1.8-7.2-0.4c-0.9,1.1,0,7.9,1.1,6.7c1.6-1.4,3.8-2.2,6.5-2
				C317.2,192.6,317.1,191.3,316.5,189.5L316.5,189.5z"/>
			<path class="st5" d="M366,199.6c0.5-0.4,1.4-3.8,1.3-4.9c-0.7-2.3-5.4-2-5.4-2c-1.1,0.7-2.2,4.5-1.8,5.8
				C360.2,199.8,365.3,200,366,199.6L366,199.6z"/>
		</g>
		<g transform="translate(-.53268 66.8)">
			<path class="st4" d="M161.2,317.9l3.1,0.4c17.9,8.8,47.5,21.8,90.3,14.8l6.7,10.5c-18.8,9.2-39,7-58.1,7.8L161.2,317.9z"/>
			<path class="st4" d="M135.4,248.2l9,37.7c24,15,65.2,32.3,99.3,30.9l-7.6-17.3C164.7,284.3,158.7,265.2,135.4,248.2L135.4,248.2z
				"/>
			<path class="st4" d="M157.8,170.9c4.3,29.2,10.3,51.5,35.7,69.9c15.5,11.2,31.1,22.4,49.8,31.6c0,0-1.6,8.7-3.1,8.5
				c-56-6.1-97-52.5-101.8-73.8C143.2,190.8,150,180.7,157.8,170.9L157.8,170.9z"/>
			<path class="st4" d="M184.7,154.5c7.4,32.3,25.3,65.2,43,95c6.5,8.3,8.1,11.9,18.2,16.8c13.5,4.3,23.1,3.2,32.9,2.5
				c-2.7-5.1-5.1-10.1-8.1-14.8c-22-17.3-11.7-33.2-6-43.2c-12.3-3.1-28.3-9.6-30.5-18.2c-3.6-27.8-1.8-36.7,1.8-51.1
				C219.2,145.1,202.4,148.5,184.7,154.5L184.7,154.5z"/>
			<path class="st6" d="M124.1-17.6c-5.4,3.6-10.7,8.7-16.2,14.4c-9.4,9.6-15.5,19.1-25.1,26c-2,1.6-7.2,4.3-13.9,4.7
				c-3.1,0.2-5.2,0.7-11,0c-5.1-2.7-9.9-0.9-14.8,4.7C37.7,39.7,31.2,53.9,28.5,63c-5.6,22.7,8.7,41.5,22.6,56
				c12.3,11.9,19.3,19.5,24.4,30.5c3.8,7,6.7,17,9.7,23.8c1.1,2.2,0.9,2.2,3.8,2.9c6.5,1.4,15.3,1.4,23.3,2c3.4,0,8.1,0,12.6-0.5
				c6.1-1.1,13.4-2.3,19.5-4.3c6-1.4,11.2-3.4,15.9-5.4c-0.5,2.2-5.1,4.2-6.9,6.7c-16.1,23.1-20.6,43.5-17.7,75.8
				c1.6,14.3,4.9,26.2,9.9,39.9c2.3,6.1,7,16.1,11.7,22.6c13.7,19.5,44.6,44.4,87.6,54.2c7.4,1.1,16.1,0.5,24-1.6
				c21.1-6.5,64.3-21.7,64.3-21.7s-38.3,3.2-55.8,1.4c-4.2-0.7-8.5-0.9-11.4-3.6c-0.5-0.5-2.2-4.2-1.1-4.2c1.4,0,6-1.8,12.6-2.5
				c-14.4-1.6-14.3-1.4-15.2-4.2c-1.6-4.2-4.2-9.6-6.7-14.4c6.3,0.5,20.2,1.3,25.1-3.6c0,0-8.3,0.9-15.5,0.2
				c-2.5-0.4-6.7-1.8-7.9-2.2c-3.2-1.3-6-1.6-6.7-2.5c-1.1-2.9-2-3.8-3.2-7.8c-1.8-5.2-2-10.8-2.3-16.1c4.9,6,10.8,10.8,19,13.4
				c0.2-0.2,10.5,4.5,18.1,2.2l1.6-0.5c0,0.2-5.1,0.4-6.9-0.5c-15.3-6.5-17.7-12.3-20-15l-6.7-9.9c2-4,3.1-4.2,5.8-4.2
				c8.1,0.9,11.6,1.6,16.4,0.4c3.2,6.9,4.2,13.7,11.7,18.6c25.1,7.4,30.5-2.2,36.7-10.8c18.1,13.4,47.5,17.3,68.1,0.2
				c26-30.2,34.3-77.5,32-80.2c-3.2-5.6-7.6-11.2-11.2-10.5c-13,3.6-17.9,10.1-30.7,8.7c1.6,0,4.2-0.2,4.2-0.4
				c1.1-11,0-16.2-0.5-17.2c-4-8.7-9-17.7-12.6-24.6c-0.9-1.4-3.6-12.1-8.1-16.4c-2-1.6-6.7-6.1-6.7-6.1l-0.4,4.7
				c0,0,1.8,0.4,2.5,3.2c2.7,11,16.4,36.8,17.5,38.1c4.9,7.8,0.5,17.7,4.2,23.1c0.4,0.7,7.6,0,13.2,0.4c9.2-2,8.8-6,16.6-6.7
				c5.4-0.4,5.8,9.6,5.8,10.5c-1.1,11-4.3,23.8-9.6,35.6c-10.7,20.6-22.7,39.2-39.7,41.7c-20.8,3.6-31.6-5.4-42.8-11.2l-4.3,3.6
				c-14.6,14.6-32,13.2-39-5.8c-3.6-7.4-8.1-11.9-12.1-18.2l-20.9,15c-1.8,3.6-3.8,9.2-6.5,15.5c-1.8,4.3-3.2,11.9-3.2,18.1
				c-2.7,4.5,9.2,23.1,16.8,34.3c2.2,3.2,6.3,9.2,6.5,9.6c1.4,4,4.7,7.4,5.1,7.8c14.1,18.2-17.7,14.1-24.2,13
				c-13-2-25.6-7.4-37.4-14.6c-0.7-0.4-1.4-0.9-2-1.3c-14.1-8.8-27.1-20.2-38.1-31.6c-6.5-7.4-12.8-22.7-17.5-33.6
				c-6.9-26-17-71.3,10.1-105.4c1.6-2,3.6-5.2,5.1-5.8c7.9-5.4,16.8-9.2,26.2-11.2l-1.6-6c-4.7,1.1-20.4,6.9-24.9,9.2
				c-10.1,2.9-18.6,6-31.4,9.2c-4.2,0.5-8.3,0.5-12.3,0c-9.2-1.3-25.1-0.2-26.2-1.1c-6.3-8.8-7.9-24.6-13.7-32.9l0,0l0,0
				c-3.4-4.5-7.2-8.1-11-11.9C52,113,40.3,99.8,36.8,85.9c-0.9-4.2-2.9-8.5-1.8-20.6l0,0l0,0c3.2-11.4,8.7-20.8,17.9-30
				c9.6,0.2,19,0.4,26.2,1.8c3.4,0.5,10.3,1.4,17.5,4.2c18.2,6.9,42.4,18.1,42.4,18.1c-18.1-9.9-38.5-22.9-51.1-25.5
				c-2-0.2-3.1-1.1-3.6-2.7C103.5,19.3,106.9,5.9,119.5-6c5.8-2.5,8.1-3.8,13-4.3c45.5,7.2,74,25.3,96.8,37.4
				c9.2,5.1,17.5,8.8,25.5,13.4c7,2.3,28.2,18.2,34.3,26.9c6.3,13.2,10.8,27.6,15,41.3c3.1,14.1,5.6,19.7,5.6,19.7
				s-2.5-11.7-2.2-13.9c2.7,0.9,8.8,2.9,11.6,2.7c0,0-11.6-6-13-11.2c-4.9-17-9.7-43.3-11-44.6c-3.8-4.7-19.1-16.4-28.7-22
				c-3.6-2-5.6-3.4-5.6-4.3c3.1-3.1,6.7-7,10.1-9.7c3.2-2.5,6.1-5.2,10.7-6.9c19.7-8.8,30.9,3.4,33.6,0.9c0,0-4.2-4.9-2.3-4
				c2,1.1,8.1,2.3,8.8,2.9c7.2,5.6,26,26.2,37.2,47.7c2.7,5.2,3.8,8.8,2.5,15.2c-1.3,6.3-2.2,9.9-3.6,14.1
				c-1.3,2.9-8.3,22.4-8.3,24.9c-1.4,10.7,4.5,24.2,4.5,24.2c0-3.6-0.2-5.6,0.2-8.1l0.4-4.7c0,0-0.2-1.3-0.2-1.8
				c0.4-3.2,1.1-6,1.3-7.8c2.3-13.9,6.1-24,10.7-36.3c1.3-3.1,3.1-4.9,2.9-7.2c0-4.2-3.6-9.7-6.3-15.3s-6-11.7-10.3-18.2
				c-9.7-14.1-18.1-25.1-33.4-32c-4.3-1.8-21.1-3.8-26.9-2.5c-7,1.4-13,2.9-17.9,6c-7.6,4.9-13.5,12.5-20.6,16.8
				c-15.5-7.8-22.9-13.5-24.4-14.3c-9.2-4.9-20.2-10.7-32.1-16.1C191.8-2.4,156.5-15,124.1-17.6L124.1-17.6z M321.9,270.9
				c-9.6-7.4-17.5-15.2-22.9-23.1c-1.8,9.2-7.9,15.9-12.8,22.4c-0.9,1.4-1.6,3.6,3.1,10.3c1.3,1.8,6,2,9,2c-3.2-2.3-7.9-4.9-8.8-7.2
				c5.6,3.8,10.8,4.9,15.5,4.3c1.1-0.2,2.3-1.3,3.4-3.1c2.2-4.5,3.8-5.6,5.4-6.9l3.8,4.7L321.9,270.9z"/>
		</g>
	</g>
</g>
</svg>
