<?xml version="1.0" encoding="utf-8"?>
<!-- Generator: Adobe Illustrator 26.0.0, SVG Export Plug-In . SVG Version: 6.00 Build 0)  -->
<svg version="1.1" id="Layer_1" xmlns="http://www.w3.org/2000/svg" xmlns:xlink="http://www.w3.org/1999/xlink" x="0px" y="0px"
	 viewBox="0 0 500 500" style="enable-background:new 0 0 500 500;" xml:space="preserve">
<style type="text/css">
	.st0{fill:#2C6791;}
	.st1{enable-background:new    ;}
</style>
<g>
	<g>
		<path class="st0" d="M236.8,301.5c-4.5-7.2-5.9-27.1-15.3-28.2c-10-0.4-3.2-13.2-15.3-12C231.8,244.6,234.9,285.3,236.8,301.5z"/>
		<path class="st0" d="M177.6,142.1c-5.7-44.8,9.1-84.6,39.9-117.6c-7.8,13.5-17,26.6-21.2,49.1c-3.2,23.1-7.3,50.1,4.1,71.1
			c16.6,15.7,59.3,74.5,17.5,82.7C217,172.7,181.9,169.8,177.6,142.1z"/>
		<path class="st0" d="M308.4,225.5c-11.9,7.8-26.2,27.6-6.6,34.9c-1.7,1.1-3.1,1.5-7.2,2.6c-0.9,9.1-8.1,10.6-7.6,18.5
			c-4.2,28.6-3.5,84.9-35.8,95.4c5.6-12.8-3.2-12.1-11.8-15.9c0.4-0.2,3.7,0.2,4.1,0.2c9.6,1.9,11.6-10.1,3.7-14.9
			c-3.8-2.4-9.5-4.8-6.8-10.2h0.2c12,10.2,11.3,14.6,21.6-1.3c-1.3-14-6.5-28.9-1.8-43c2-8.1,5.2-16.4,9.6-23.4
			c20.4-31.9-28.4-42.4-0.9-87.7c7.7-16,21.7-27.9,31.9-41.5c8.5-39.5,2.1-82.3-21.4-115c0.6,0,8.3,9.2,8.5,9.2
			c26.5,32.4,43.6,84,26.4,122.9c-13.5,12.4-43.3,45.4-33.2,64C293.4,221,314,185,323,175.5C325.1,192.9,322.7,214.3,308.4,225.5z"
			/>
		<path class="st0" d="M202.7,228.2c-13.7-9-23.4-20.9-25.3-38.2C184.8,193.4,198.4,213.5,202.7,228.2z"/>
	</g>
	<g class="st1">
		<path class="st0" d="M132.3,455.5h-7.3v-62.2h7.3V455.5z"/>
		<path class="st0" d="M210.8,455.5h-7.1V430c0-4.9-0.8-8.5-2.3-10.7c-1.5-2.2-4.1-3.3-7.7-3.3c-3,0-5.6,1.4-7.7,4.2
			c-2.1,2.8-3.2,6.1-3.2,10v25.3h-7.1v-26.4c0-8.7-3.4-13.1-10.1-13.1c-3.1,0-5.7,1.3-7.7,3.9c-2,2.6-3,6-3,10.2v25.3h-7.1V411h7.1
			v7h0.2c3.2-5.4,7.7-8.1,13.8-8.1c3,0,5.7,0.8,7.9,2.5c2.3,1.7,3.8,3.9,4.6,6.7c3.3-6.1,8.2-9.2,14.7-9.2c9.8,0,14.7,6,14.7,18.1
			V455.5z"/>
		<path class="st0" d="M231.5,449h-0.2v26.8h-7.1V411h7.1v7.8h0.2c3.5-5.9,8.6-8.8,15.4-8.8c5.7,0,10.2,2,13.4,6
			c3.2,4,4.8,9.3,4.8,16c0,7.4-1.8,13.4-5.4,17.8c-3.6,4.5-8.6,6.7-14.8,6.7C239.1,456.5,234.6,454,231.5,449z M231.4,431.1v6.2
			c0,3.7,1.2,6.8,3.6,9.3c2.4,2.6,5.4,3.8,9.1,3.8c4.3,0,7.7-1.6,10.1-4.9c2.4-3.3,3.7-7.9,3.7-13.7c0-4.9-1.1-8.8-3.4-11.6
			c-2.3-2.8-5.4-4.2-9.3-4.2c-4.1,0-7.5,1.4-10,4.3C232.6,423.2,231.4,426.8,231.4,431.1z"/>
		<path class="st0" d="M308.2,455.5h-7.1v-6.9H301c-3.1,5.3-7.6,8-13.7,8c-4.4,0-7.9-1.2-10.4-3.5s-3.8-5.4-3.8-9.3
			c0-8.3,4.9-13.1,14.7-14.5l13.3-1.9c0-7.5-3.1-11.3-9.2-11.3c-5.3,0-10.2,1.8-14.5,5.5v-7.3c4.4-2.8,9.4-4.2,15.1-4.2
			c10.4,0,15.7,5.5,15.7,16.6V455.5z M301.1,433l-10.7,1.5c-3.3,0.5-5.8,1.3-7.5,2.5c-1.7,1.2-2.5,3.2-2.5,6.2
			c0,2.2,0.8,3.9,2.3,5.3c1.5,1.4,3.6,2.1,6.2,2.1c3.5,0,6.4-1.2,8.7-3.7c2.3-2.5,3.4-5.6,3.4-9.4V433z"/>
		<path class="st0" d="M328.8,455.5h-7.1v-65.7h7.1V455.5z"/>
		<path class="st0" d="M374.9,455.5h-7.1v-6.9h-0.2c-3.1,5.3-7.6,8-13.7,8c-4.4,0-7.9-1.2-10.4-3.5c-2.5-2.3-3.8-5.4-3.8-9.3
			c0-8.3,4.9-13.1,14.7-14.5l13.3-1.9c0-7.5-3.1-11.3-9.2-11.3c-5.3,0-10.2,1.8-14.5,5.5v-7.3c4.4-2.8,9.4-4.2,15.1-4.2
			c10.4,0,15.7,5.5,15.7,16.6V455.5z M367.8,433l-10.7,1.5c-3.3,0.5-5.8,1.3-7.5,2.5c-1.7,1.2-2.5,3.2-2.5,6.2
			c0,2.2,0.8,3.9,2.3,5.3c1.5,1.4,3.6,2.1,6.2,2.1c3.5,0,6.4-1.2,8.7-3.7c2.3-2.5,3.4-5.6,3.4-9.4V433z"/>
	</g>
</g>
</svg>
