<?xml version="1.0" encoding="utf-8"?>
<!-- Generator: Adobe Illustrator 26.0.0, SVG Export Plug-In . SVG Version: 6.00 Build 0)  -->
<svg version="1.1" id="Layer_1" xmlns="http://www.w3.org/2000/svg" xmlns:xlink="http://www.w3.org/1999/xlink" x="0px" y="0px"
	 viewBox="0 0 500 500" style="enable-background:new 0 0 500 500;" xml:space="preserve">
<style type="text/css">
	.st0{fill:url(#SVGID_1_);}
	.st1{fill:none;}
	.st2{fill:#BD202E;}
	.st3{fill:url(#SVGID_00000054969273420264815940000017667637156542665652_);}
	.st4{fill:url(#SVGID_00000016070809015541921870000017888036951085589127_);}
	.st5{fill:url(#SVGID_00000075159009756511765390000008582101600876623239_);}
	.st6{fill:url(#SVGID_00000058584804578567105240000003487181387011339693_);}
	.st7{fill:url(#SVGID_00000103236718026976726550000004549656298250036354_);}
	.st8{fill:url(#SVGID_00000112609753052528959050000008832414825081703337_);}
	.st9{opacity:0.35;fill:#BD202E;enable-background:new    ;}
	.st10{fill:url(#SVGID_00000001654800321329493380000001846670733763580290_);}
	.st11{fill:url(#SVGID_00000025421531220913499980000014297958410564047264_);}
	.st12{fill:url(#SVGID_00000124143898749494902030000014494192329241077895_);}
	.st13{fill:#AA0000;}
</style>
<g transform="matrix(.469 0 0 .469 -33.9 -219)">
	<g transform="matrix(.996 0 0 .99 2.73 6.71)">
		<g transform="matrix(.226 0 0 .226 72.2 467)">
			
				<linearGradient id="SVGID_1_" gradientUnits="userSpaceOnUse" x1="-72126.8359" y1="-29848.7441" x2="-71850.8438" y2="-29527.5273" gradientTransform="matrix(3.659382e-02 -7.858397e-02 7.811058e-02 3.637338e-02 5841.0454 -2873.9246)">
				<stop  offset="0" style="stop-color:#F59723"/>
				<stop  offset="0.312" style="stop-color:#F69822"/>
				<stop  offset="0.838" style="stop-color:#E87726"/>
			</linearGradient>
			<path class="st0" d="M946.6,1580.1c-25.1,14.8-66.9,56.8-116.7,117.6l45.7,86.3c32.1-45.8,64.7-87.2,97.2-122.3
				c2.6-2.8,3.8-4.1,3.8-4.1c-1.2,1.3-2.6,2.8-3.8,4.1c-10.7,11.7-43,49.5-91.7,124.1c47-2.3,118.6-11.9,177.8-22
				c17.6-98.2-17.1-142.6-17.1-142.6s-44.1-71.3-95.4-40.8L946.6,1580.1z"/>
			<path class="st1" d="M868.8,2072.7c0.3-0.1,0.6-0.1,1-0.2l-6.6,0.7l-1.1,0.6C864.2,2073.3,866.6,2073,868.8,2072.7z"/>
			<path class="st1" d="M822.5,2227.4c-3.7,0.8-7.5,1.5-11.4,2.1C815,2228.8,818.8,2228.1,822.5,2227.4z"/>
			<path class="st1" d="M504.8,2573.8c0.5-1.2,0.9-2.6,1.4-3.8c10.1-26.6,20.1-52.4,29.9-77.6c11-28.2,22-55.6,32.9-82.1
				c11.4-27.9,22.7-54.9,33.7-81c11.6-27.3,23.1-53.7,34.4-79.1c9.2-20.7,18.2-40.7,27-60c3-6.5,5.9-12.9,8.9-19.2
				c5.8-12.6,11.6-24.8,17.3-36.9c5.3-11,10.5-21.9,15.7-32.6c1.8-3.5,3.4-7,5.2-10.6c0.3-0.6,0.6-1.1,0.8-1.8l-5.6,0.6l-4.4-8.8
				c-0.5,0.8-0.8,1.8-1.3,2.6c-8,16-16,32-23.9,48.3c-4.5,9.4-9.1,18.9-13.6,28.2c-12.5,26.2-24.7,52.8-36.9,79.3
				c-12.2,27-24.2,54-36,81.1c-11.5,26.7-22.9,53.3-33.9,79.9s-21.9,53.1-32.4,79.3c-11,27.4-21.7,54.6-32,81.5
				c-2.4,6.1-4.6,12.1-7,18.2c-8.3,21.7-16.5,43.2-24.4,64.3l7,13.9l6.3-0.6c0.2-0.6,0.5-1.2,0.6-1.9
				C484.8,2627.3,494.9,2600.2,504.8,2573.8z"/>
			<path class="st1" d="M808.6,2230.1"/>
			<path class="st2" d="M792.8,2305.2c-5.8,1-11.8,2.1-18,3.1c0,0-0.1,0-0.1,0.1c3.1-0.5,6.2-0.9,9.3-1.4
				C786.9,2306.4,789.9,2305.8,792.8,2305.2z"/>
			<path d="M792.8,2305.2c-5.8,1-11.8,2.1-18,3.1c0,0-0.1,0-0.1,0.1c3.1-0.5,6.2-0.9,9.3-1.4
				C786.9,2306.4,789.9,2305.8,792.8,2305.2z"/>
			<path class="st2" d="M808.6,2230.1L808.6,2230.1C808.5,2230.1,808.5,2230.1,808.6,2230.1c0.8,0,1.9-0.2,2.8-0.4
				c3.9-0.6,7.7-1.2,11.4-2.1C818.1,2228.5,813.5,2229.3,808.6,2230.1z"/>
			<path d="M808.6,2230.1L808.6,2230.1C808.5,2230.1,808.5,2230.1,808.6,2230.1c0.8,0,1.9-0.2,2.8-0.4c3.9-0.6,7.7-1.2,11.4-2.1
				C818.1,2228.5,813.5,2229.3,808.6,2230.1z"/>
			
				<linearGradient id="SVGID_00000055679737287704449980000009408659947173517972_" gradientUnits="userSpaceOnUse" x1="-91451.7344" y1="-30203.8613" x2="-89487.3203" y2="-30203.8613" gradientTransform="matrix(3.659382e-02 -7.858397e-02 7.811058e-02 3.637338e-02 5841.0454 -2873.9246)">
				<stop  offset="0.323" style="stop-color:#9C2063"/>
				<stop  offset="0.63" style="stop-color:#C82037"/>
				<stop  offset="0.751" style="stop-color:#CC2135"/>
				<stop  offset="1" style="stop-color:#E87726"/>
			</linearGradient>
			<path style="fill:url(#SVGID_00000055679737287704449980000009408659947173517972_);" d="M741,2006.9c13.9-26,28-51.4,42.1-76
				c14.7-25.7,29.7-50.6,44.8-74.7c0.8-1.4,1.9-2.9,2.7-4.3c14.9-23.6,30-46.4,45.1-68.1l-45.7-86.3c-3.4,4.2-6.9,8.4-10.4,12.9
				c-13.2,16.5-26.9,34.1-40.9,52.9c-15.8,21.1-32,43.7-48.6,67.4c-15.2,21.9-30.7,44.7-46.3,68.5c-13.2,20.2-26.4,40.9-39.5,62.2
				c-0.5,0.7-0.9,1.6-1.4,2.4l59.6,117.6C715,2056.1,728,2031.2,741,2006.9z"/>
			
				<linearGradient id="SVGID_00000153672391221279096900000006731068171887122877_" gradientUnits="userSpaceOnUse" x1="-89199.9219" y1="-28340.9336" x2="-88029.8516" y2="-28340.9336" gradientTransform="matrix(3.659382e-02 -7.858397e-02 7.811058e-02 3.637338e-02 5841.0454 -2873.9246)">
				<stop  offset="0" style="stop-color:#282661"/>
				<stop  offset="9.550000e-02" style="stop-color:#662E8C"/>
				<stop  offset="0.788" style="stop-color:#9E2064"/>
				<stop  offset="0.949" style="stop-color:#CC2032"/>
			</linearGradient>
			<path style="fill:url(#SVGID_00000153672391221279096900000006731068171887122877_);" d="M469.6,2669.2
				c-7.9,21.6-15.8,43.7-23.7,66.2c-0.1,0.3-0.2,0.6-0.4,0.9c-1.1,3.1-2.3,6.4-3.3,9.5c-5.4,15.2-10,28.9-20.7,59.9
				c17.5,8,31.6,29.1,44.9,53c-1.4-24.7-11.6-48-31.1-65.9c86.4,3.9,161.2-18,199.1-81.1c3.4-5.6,6.6-11.5,9.4-17.9
				c-17.5,22.2-39.3,31.6-80.1,29.4c-0.1,0-0.2,0.1-0.3,0.1c0.1,0,0.2-0.1,0.3-0.1c60.2-27,90.3-52.8,116.7-95.4
				c6.3-10.2,12.5-21.2,18.8-33.5c-52.6,54-113,69.4-177.8,57.7l-48.2,5.3c-1.6,4.1-3,8.1-4.5,12.1L469.6,2669.2z"/>
			
				<linearGradient id="SVGID_00000054971811724029946210000000224658114445593490_" gradientUnits="userSpaceOnUse" x1="-90408.2109" y1="-30376.1328" x2="-88443.7969" y2="-30376.1328" gradientTransform="matrix(3.659382e-02 -7.858397e-02 7.811058e-02 3.637338e-02 5841.0454 -2873.9246)">
				<stop  offset="0.323" style="stop-color:#9C2063"/>
				<stop  offset="0.63" style="stop-color:#C82037"/>
				<stop  offset="0.751" style="stop-color:#CC2135"/>
				<stop  offset="1" style="stop-color:#E87726"/>
			</linearGradient>
			<path style="fill:url(#SVGID_00000054971811724029946210000000224658114445593490_);" d="M492.7,2561.7
				c10.4-26.9,21.1-54.1,32-81.5c10.6-26.3,21.3-52.8,32.4-79.3c11.1-26.5,22.4-53.3,33.9-79.9c11.7-27.1,23.7-54.2,36-81.1
				c12.1-26.7,24.4-53.2,36.9-79.3c4.4-9.4,9.1-18.9,13.6-28.2c7.9-16.2,15.8-32.3,23.9-48.3c0.5-0.8,0.8-1.8,1.3-2.6l-59.6-117.6
				c-0.9,1.6-1.9,3.2-3,4.7c-13.9,22.7-27.7,45.8-41.2,69.5c-13.7,23.9-27.1,48.3-40.3,73c-11,20.8-21.9,41.8-32.5,63.1
				c-2.1,4.3-4.2,8.6-6.3,12.9c-13,26.8-24.6,52.4-35.3,77.3c-12,28.1-22.6,54.9-31.8,80.4c-6.1,16.8-11.6,32.9-16.7,48.4
				c-4.2,13.2-8.1,26.6-11.9,39.8c-8.9,31.1-16.6,62.2-22.9,93.5l59.8,118.6c7.9-21.1,16-42.6,24.4-64.3c2.5-6.2,4.7-12.3,7.1-18.2
				V2561.7z"/>
			
				<linearGradient id="SVGID_00000054229040691334342640000015284496434960232888_" gradientUnits="userSpaceOnUse" x1="-89046.1406" y1="-30132.0469" x2="-88014.0625" y2="-30132.0469" gradientTransform="matrix(3.659382e-02 -7.858397e-02 7.811058e-02 3.637338e-02 5841.0454 -2873.9246)">
				<stop  offset="0" style="stop-color:#282661"/>
				<stop  offset="9.550000e-02" style="stop-color:#662E8C"/>
				<stop  offset="0.788" style="stop-color:#9E2064"/>
				<stop  offset="0.949" style="stop-color:#CC2032"/>
			</linearGradient>
			<path style="fill:url(#SVGID_00000054229040691334342640000015284496434960232888_);" d="M400.1,2530.2
				c-7.5,37.8-12.9,75.4-15.6,113l-0.3,3.9c-18.7-29.9-68.6-59.1-68.5-58.8c35.8,51.9,63,103.7,67,153.7
				c-19.2,3.9-45.4-1.8-75.7-12.9c31.6,29.1,55.3,37,64.6,39.3c-29.1,1.9-59.3,21.8-89.7,44.7c44.5-18.2,80.6-25.4,106.5-19.5
				c-40.9,115.8-81.9,243.6-123.2,379.7c12.6-3.7,20.1-12.2,24.3-23.6c7.3-24.5,55.8-186.2,131.5-397.3c2.2-6,4.4-12.1,6.6-18.2
				c0.6-1.8,1.2-3.4,1.9-5c8-22.2,16.4-44.9,24.9-68.1c1.9-5.3,3.9-10.6,5.9-15.8c0-0.1,0.1-0.2,0.1-0.3l-59.9-118.6
				c-0.2,1.2-0.5,2.6-0.7,4L400.1,2530.2z"/>
			
				<linearGradient id="SVGID_00000090982135721324973110000003748668152047701674_" gradientUnits="userSpaceOnUse" x1="-90408.2109" y1="-28448.9883" x2="-88443.7969" y2="-28448.9883" gradientTransform="matrix(3.659382e-02 -7.858397e-02 7.811058e-02 3.637338e-02 5841.0454 -2873.9246)">
				<stop  offset="0.323" style="stop-color:#9C2063"/>
				<stop  offset="0.63" style="stop-color:#C82037"/>
				<stop  offset="0.751" style="stop-color:#CC2135"/>
				<stop  offset="1" style="stop-color:#E87726"/>
			</linearGradient>
			<path style="fill:url(#SVGID_00000090982135721324973110000003748668152047701674_);" d="M711.3,2091.2c-1.8,3.5-3.4,7-5.2,10.6
				c-5.2,10.7-10.4,21.5-15.7,32.6c-5.7,12-11.5,24.3-17.3,36.9c-3,6.3-5.9,12.7-8.9,19.2c-8.9,19.4-17.9,39.4-27,60
				c-11.2,25.3-22.8,51.7-34.4,79.1c-11,26.1-22.4,53.1-33.7,81c-10.8,26.5-21.8,53.9-32.9,82.1c-9.9,25.1-19.9,51-29.9,77.6
				c-0.5,1.2-0.9,2.6-1.4,3.8c-10,26.4-20.1,53.5-30.2,81.3c-0.2,0.6-0.5,1.2-0.6,1.9l48.2-5.3c-0.9-0.2-1.9-0.3-2.9-0.5
				c57.5-7.1,134.3-50.2,183.4-103.7c22.8-24.5,43.4-53.3,62.5-87.2c14.2-25.1,27.6-53.1,40.4-83.9c11.1-27,21.8-56.2,32-87.8
				c-13.2,6.9-28.3,12.1-45,15.7c-3,0.6-5.9,1.2-9,1.8c-3.1,0.6-6.1,1-9.3,1.4c0,0,0.1,0,0.1-0.1c53.7-20.7,87.5-60.5,112.1-109.3
				c-14.1,9.6-37,22.2-64.6,28.2c-3.7,0.8-7.5,1.5-11.4,2.1c-0.9,0.1-1.9,0.3-2.9,0.5h0.1h0.1c18.7-7.8,34.4-16.6,48-26.9
				c3-2.2,5.8-4.4,8.4-6.9c4.2-3.6,8.1-7.4,11.9-11.3c2.4-2.6,4.7-5.2,7-7.9c5.4-6.4,10.4-13.2,15-20.7c1.4-2.3,2.9-4.5,4.2-6.9
				c1.9-3.4,3.5-6.9,5.2-10.1c7.5-15,13.5-28.5,18.2-40.3c2.4-5.9,4.4-11.3,6.3-16.5c0.7-2,1.4-4,2-5.9c1.9-5.6,3.4-10.7,4.6-15.1
				c1.9-6.7,3-11.9,3.5-15.7c-1.9,1.4-3.9,2.9-6.3,4.3c-16.2,9.7-44,18.4-66.4,22.6l44.2-4.8l-44.2,4.8c-0.3,0.1-0.6,0.1-1,0.2
				c-2.3,0.4-4.4,0.7-6.8,1l1.1-0.6l-151,16.6c0,0.4-0.3,1-0.6,1.6L711.3,2091.2z"/>
			
				<linearGradient id="SVGID_00000017487969756518144280000005287016209319888049_" gradientUnits="userSpaceOnUse" x1="-91561.5781" y1="-28541.1758" x2="-89597.1641" y2="-28541.1758" gradientTransform="matrix(3.659382e-02 -7.858397e-02 7.811058e-02 3.637338e-02 5841.0454 -2873.9246)">
				<stop  offset="0.323" style="stop-color:#9C2063"/>
				<stop  offset="0.63" style="stop-color:#C82037"/>
				<stop  offset="0.751" style="stop-color:#CC2135"/>
				<stop  offset="1" style="stop-color:#E87726"/>
			</linearGradient>
			<path style="fill:url(#SVGID_00000017487969756518144280000005287016209319888049_);" d="M881.7,1785.6
				c-13.4,20.7-28.1,44.1-44,70.7c-0.8,1.3-1.8,2.9-2.5,4.2c-13.6,23-28.1,48.2-43.4,75.9c-13.2,23.9-26.9,49.5-41.1,77
				c-12.4,24-25.2,49.5-38.4,76.4l151-16.6c44.1-20.3,63.7-38.5,82.8-65.1c5-7.3,10.2-14.9,15.2-22.9c15.6-24.3,30.7-50.9,44.4-77.5
				c13.2-25.7,24.7-51,33.6-74c5.6-14.5,10.2-28.1,13.3-40c2.8-10.5,4.9-20.5,6.6-30c-58.6,10.1-130.6,19.7-177.8,22H881.7z"/>
			<path class="st2" d="M783.6,2307c-3.1,0.6-6.1,1-9.3,1.4C777.5,2308.1,780.6,2307.6,783.6,2307z"/>
			<path class="st9" d="M783.6,2307c-3.1,0.6-6.1,1-9.3,1.4C777.5,2308.1,780.6,2307.6,783.6,2307z"/>
			
				<linearGradient id="SVGID_00000021816693769295983540000009700589686579256204_" gradientUnits="userSpaceOnUse" x1="-90408.2109" y1="-27872.0957" x2="-88443.7969" y2="-27872.0957" gradientTransform="matrix(3.659382e-02 -7.858397e-02 7.811058e-02 3.637338e-02 5841.0454 -2873.9246)">
				<stop  offset="0.323" style="stop-color:#9C2063"/>
				<stop  offset="0.63" style="stop-color:#C82037"/>
				<stop  offset="0.751" style="stop-color:#CC2135"/>
				<stop  offset="1" style="stop-color:#E87726"/>
			</linearGradient>
			<path style="fill:url(#SVGID_00000021816693769295983540000009700589686579256204_);" d="M783.6,2307c-3.1,0.6-6.1,1-9.3,1.4
				C777.5,2308.1,780.6,2307.6,783.6,2307z"/>
			<path class="st2" d="M808.6,2230.1c0.9-0.1,1.9-0.3,2.9-0.5C810.5,2229.8,809.6,2230.1,808.6,2230.1z"/>
			<path class="st9" d="M808.6,2230.1c0.9-0.1,1.9-0.3,2.9-0.5C810.5,2229.8,809.6,2230.1,808.6,2230.1z"/>
			
				<linearGradient id="SVGID_00000136401202892779530140000013525154968201235857_" gradientUnits="userSpaceOnUse" x1="-90408.2109" y1="-27926.332" x2="-88443.7969" y2="-27926.332" gradientTransform="matrix(3.659382e-02 -7.858397e-02 7.811058e-02 3.637338e-02 5841.0454 -2873.9246)">
				<stop  offset="0.323" style="stop-color:#9C2063"/>
				<stop  offset="0.63" style="stop-color:#C82037"/>
				<stop  offset="0.751" style="stop-color:#CC2135"/>
				<stop  offset="1" style="stop-color:#E87726"/>
			</linearGradient>
			<path style="fill:url(#SVGID_00000136401202892779530140000013525154968201235857_);" d="M808.6,2230.1c0.9-0.1,1.9-0.3,2.9-0.5
				C810.5,2229.8,809.6,2230.1,808.6,2230.1z"/>
			<path class="st2" d="M808.6,2230.1C808.7,2230.1,808.7,2230.1,808.6,2230.1C808.7,2230.1,808.7,2230.1,808.6,2230.1z"/>
			<path class="st9" d="M808.6,2230.1C808.7,2230.1,808.7,2230.1,808.6,2230.1C808.7,2230.1,808.7,2230.1,808.6,2230.1z"/>
			
				<linearGradient id="SVGID_00000032612272696636294130000001074862210195786910_" gradientUnits="userSpaceOnUse" x1="-79950.9922" y1="-27940.0137" x2="-79517.2891" y2="-27940.0137" gradientTransform="matrix(3.659382e-02 -7.858397e-02 7.811058e-02 3.637338e-02 5841.0454 -2873.9246)">
				<stop  offset="0.323" style="stop-color:#9C2063"/>
				<stop  offset="0.63" style="stop-color:#C82037"/>
				<stop  offset="0.751" style="stop-color:#CC2135"/>
				<stop  offset="1" style="stop-color:#E87726"/>
			</linearGradient>
			<path style="fill:url(#SVGID_00000032612272696636294130000001074862210195786910_);" d="M808.6,2230.1
				C808.7,2230.1,808.7,2230.1,808.6,2230.1C808.7,2230.1,808.7,2230.1,808.6,2230.1z"/>
		</g>
		<path class="st13" d="M744.1,1066c-2.1-0.4-10-2.4-11.2-2.9c-2.9-1.1-12.9-6.2-14.1-7.2c-1.6-1.3-1.8-1.4-4.6-3.6
			c-2.8-2.1-8.9-8.2-11-11c-0.9-1.2-1.9-2.5-2.2-2.9c-0.3-0.4-0.8-1-1.1-1.4c-0.7-0.8-6.3-10.3-6.3-10.7c0-0.1-0.6-1.5-1.3-3.1
			c-0.7-1.6-1.7-4.1-2.3-5.6c-0.5-1.5-1.2-3.2-1.4-3.8c-0.6-1.4-2.2-8.8-2.7-12.9c-0.6-4.3-0.6-16.1,0-20
			c1.6-10.2,2.9-14.5,6.6-22.5c0.6-1.2,1-2.5,1-2.9c0-0.4,0.2-0.7,0.5-0.7s0.5-0.3,0.5-0.7c0-0.4,1.5-3,3.4-5.8
			c3-4.6,9.9-12.2,14.4-15.9c4.7-3.9,14-9,19.5-10.7c1.6-0.5,3.6-1.1,4.3-1.4c2.8-1,8.2-1.7,15.1-2c9-0.4,18.3,0.8,25,3.1
			c5,1.8,9.4,3.8,9.8,4.5c0.1,0.2,0.4,0.4,0.7,0.4c1.2,0,7.4,4.7,11.1,8.4c4.3,4.3,7.2,8.1,9.4,12.5c1.4,2.8,1.4,2.9,0.4,3.6
			c-0.6,0.4-1.3,0.9-1.6,1.1c-0.3,0.2-1.2,0.8-2,1.3c-0.8,0.5-2.6,1.5-4,2.4c-2.8,1.8-3.9,1.6-4.8-0.6c-2.3-6.1-13-16.2-20.3-19.1
			c-8-3.2-12.9-4.2-21.1-4.1c-8.7,0-14.4,1.1-21.3,4.1c-2.4,1-7.5,4.1-8.5,5.1c-0.4,0.4-0.9,0.7-1.1,0.7c-0.6,0-6.7,6-9.4,9.3
			c-2.9,3.5-8,12.5-9.2,16.3c-0.5,1.5-1.1,3.2-1.3,3.8c-2.3,5.3-3.7,18.2-2.9,26.8c0.6,5.9,1.8,12,2.9,14.4c0.3,0.6,0.7,1.7,0.9,2.5
			c0.9,3.3,6.1,13,8.8,16.3c2.7,3.4,7.6,8.5,9.9,10.4c2.6,2.1,10.9,7.3,11.7,7.3c0.2,0,1,0.3,1.8,0.7c0.8,0.4,3.6,1.3,6.3,2.1
			c4.1,1.1,6.1,1.3,12.3,1.3c10.5-0.1,17-1.9,25.8-7c5.7-3.4,13.7-11.1,16.5-16.1c1.1-1.9,2.2-3.4,2.5-3.4c1.2,0,11.8,5.8,11.8,6.4
			c0,0.8-3.2,6.9-3.8,7.3c-0.2,0.2-0.7,0.8-1,1.5c-1.3,2.5-7.3,8.4-13,12.7c-3,2.3-10.9,6.3-16.5,8.4c-7.3,2.7-11.8,3.4-22,3.6
			c-5.4,0.1-10.5,0-11.2-0.1L744.1,1066z M306,1065.2c0-0.3,0.2-1,0.5-1.5c0.3-0.5,1-2.2,1.7-3.7c0.6-1.5,1.4-3.2,1.6-3.8
			c0.3-0.6,2-4.7,3.8-9.1c1.8-4.4,3.6-8.5,3.9-9.1c0.3-0.6,1.1-2.7,1.9-4.7c0.8-2,1.6-4.1,1.9-4.7c0.3-0.6,1-2.3,1.7-3.8
			c0.6-1.5,1.5-3.5,2-4.5s0.8-1.9,0.8-2.1c0-0.3,1.1-2.8,2.8-6.6c0.3-0.6,1.1-2.7,1.9-4.7s1.6-4.1,1.9-4.7c0.3-0.6,1.1-2.7,1.9-4.7
			c0.8-2,1.6-4.1,1.9-4.7c0.3-0.6,1-2.3,1.6-3.8c0.6-1.5,1.4-3.2,1.6-3.8c0.3-0.6,1.6-3.8,3-7.1c1.4-3.3,2.8-6.5,3-7.1
			c0.3-0.6,1.5-3.6,2.7-6.6c1.2-3,2.5-6,2.7-6.6c0.3-0.6,1.4-3.2,2.4-5.8c5.9-14.4,7.3-17.6,8.6-20.6c0.3-0.6,1.1-2.7,1.9-4.7
			s1.9-4.6,2.5-5.9l1.1-2.3h11.9l1.2,2.9c1.5,3.6,3.2,7.5,3.9,8.9c1.9,4.2,2.7,6.3,2.7,6.6c0,0.3,1.1,2.8,3.1,7.2
			c0.4,1,0.8,1.9,0.8,2.1c0,0.3,0.8,2.4,2.7,6.6c1.9,4.2,2.7,6.3,2.7,6.6c0,0.2,0.5,1.5,1.1,2.9c0.6,1.4,1.5,3.4,2,4.5
			c0.5,1.1,1,2.4,1.3,3c0.3,0.6,1.1,2.7,1.9,4.7c0.8,2,1.6,4.1,1.9,4.7c0.3,0.6,2,4.7,3.9,9.1c1.9,4.4,3.6,8.5,3.9,9.1
			c0.3,0.6,0.9,2.1,1.4,3.3c5,12.4,7,17.2,7.7,18.7c0.4,0.9,1.8,4.1,3,7.1c1.2,3,2.5,6,2.8,6.6c0.3,0.6,1,2.3,1.6,3.8
			c0.6,1.5,1.4,3.2,1.6,3.8c0.3,0.6,1.1,2.7,1.9,4.7c0.8,2,1.6,4.1,1.9,4.7c2.7,5.9,6,14.2,6,14.8c0,0.7-1.3,0.8-7.9,0.8
			c-7.7,0-7.9,0-8.3-1.2c-0.3-1.1-1.6-4.2-3-7.3c-0.3-0.6-1.1-2.7-1.9-4.7c-1.3-3.3-2.4-5.9-3.6-8.5c-0.3-0.6-1.1-2.7-1.9-4.7
			c-0.8-2-1.6-4.1-1.9-4.7c-1.7-3.7-2.8-6.3-2.8-6.6c0-0.2-0.5-1.4-1-2.6c-0.6-1.3-1.4-3.1-1.8-4.1l-0.8-1.8h-64.9l-1.1,2.6
			c-0.6,1.4-1.8,4.3-2.6,6.4c-0.8,2.1-2,4.9-2.5,6.1c-0.6,1.3-1,2.5-1,2.6c0,0.3-1.1,2.9-2.8,6.6c-0.3,0.6-1.1,2.7-1.9,4.7
			s-1.6,4.1-1.9,4.7c-0.3,0.6-1.4,3.3-2.5,6c-1.1,2.7-2.1,5.3-2.3,5.6C321.7,1066,305.9,1066.1,306,1065.2L306,1065.2z
			 M402.3,1007.5c0-0.5-0.8-2.5-3.1-7.5c-0.4-1-0.8-1.9-0.8-2.1c0-0.2-0.4-1.2-0.8-2.1c-0.4-1-2.2-5.2-3.9-9.4
			c-1.7-4.2-3.3-8.2-3.6-8.8c-0.3-0.6-1.6-4.1-3-7.7c-1.4-3.6-2.7-7.1-3-7.7c-0.3-0.6-0.9-2-1.3-3c-0.5-1.1-1.3-3.1-2-4.5
			c-0.6-1.4-1.1-2.8-1.1-3c0-0.2-0.3-1.1-0.7-1.8c-0.4-0.8-1.3-3-2-4.9c-0.7-2-1.6-4.2-2-4.9c-0.4-0.8-0.7-1.7-0.7-2.1
			c0-1.2-1-0.8-1.4,0.5c-0.2,0.7-0.7,2-1.1,2.9c-0.4,0.9-1.7,4.1-3,7.1c-1.2,3-3,7.2-3.9,9.4c-0.9,2.1-5.5,13.3-10.4,25
			c-4.8,11.6-9.2,22-9.6,23.2l-0.9,2.1h29.1C393.2,1008.1,402.3,1007.9,402.3,1007.5L402.3,1007.5z M456.1,992.1v-73.5l30.6,0
			c32,0,37.8,0.3,42.9,2.2c3.6,1.4,9.2,4.1,10.3,5.1c0.4,0.4,1.5,1.3,2.5,2c7.1,5.3,13.9,15.7,16.4,25.6c2.5,9.4,1.5,22.3-2.5,31.3
			c-5.7,12.9-15.3,21.8-27.3,25.5c-2.4,0.7-7.2,0.9-30.5,1.1l-27.6,0.2v54.3h-14.8v-73.5L456.1,992.1z M521.3,997.6
			c10.1-1.4,18.3-9.1,22.4-21.1c1.4-4.1,1.7-15.5,0.6-20.1c-1.6-6.2-4.5-11.4-8.8-15.7c-2.1-2.1-4.6-4.2-5.5-4.7
			c-0.9-0.5-1.8-1-1.9-1.1c-0.2-0.2-1.4-0.8-2.7-1.4c-2.3-1-4.2-1.1-28.4-1.2l-25.9-0.2v65.9h23
			C507.4,998.1,518.7,997.8,521.3,997.6L521.3,997.6z M552,1065.3c-0.1-0.2,0.7-2.6,1.9-5.4c1.2-2.7,4.2-10.1,6.8-16.5
			c2.6-6.3,5.1-12.2,5.5-13.2c0.4-0.9,1.8-4.1,3-7.1c2.2-5.3,3.4-8.1,4.4-10.5c0.3-0.6,1.5-3.6,2.7-6.6c1.2-3,2.6-6.2,3-7.1
			s2-4.7,3.6-8.5c1.6-3.8,3.5-8.6,4.4-10.7c1.9-4.5,8.1-19.3,8.8-20.8c0.3-0.6,1.1-2.7,1.9-4.7c0.8-2,1.6-4.1,1.9-4.7
			c0.3-0.6,1-2.3,1.7-3.8c0.6-1.5,1.5-3.5,2-4.5c0.4-1,0.8-1.9,0.8-2.1c0-0.3,0.8-2.4,2.7-6.6c1.1-2.4,2.7-6.2,3.9-9.4
			c0.7-1.8,1.5-3.6,1.8-4c0.3-0.5,2.3-0.7,6.4-0.7h5.9l0.7,1.8c1.4,3.6,7.7,18.5,9.3,22.1c0.3,0.6,1.5,3.6,2.7,6.6
			c1.2,3,2.5,6,2.8,6.6c0.3,0.6,2.4,5.7,4.7,11.3c2.3,5.6,4.4,10.7,4.6,11.2c0.3,0.6,1.8,4.2,3.3,8c3.7,8.9,7.6,18.1,8.2,19.4
			c0.3,0.6,1,2.3,1.6,3.8c0.6,1.5,1.4,3.2,1.6,3.8c0.3,0.6,1.1,2.7,1.9,4.7c1.3,3.3,2.4,5.9,3.6,8.5c0.3,0.6,1.1,2.7,1.9,4.7
			c0.8,2,1.8,4.3,2.2,5.3c0.4,1,0.8,1.9,0.8,2.1c0,0.2,0.7,2,1.6,3.9c0.9,2,1.6,3.7,1.6,3.9c0,0.2,0.4,1.1,0.8,2
			c0.4,1,1.4,3.3,2.2,5.3c0.8,2,1.7,4.1,1.9,4.7c1.9,4.2,2.8,6.3,2.8,6.8c0,0.9-15.1,0.8-15.7-0.1c-0.3-0.4-2.7-6-5.3-12.5
			c-2.6-6.5-5.1-12.5-5.5-13.4c-0.4-0.9-1.4-3.3-2.2-5.2c-0.8-2-1.7-4.1-1.9-4.7c-0.7-1.6-2.5-5.8-3.3-7.8l-0.7-1.8l-65.3,0.3
			l-3.3,8c-1.8,4.4-3.5,8.5-3.8,9.2c-0.3,0.7-0.5,1.4-0.5,1.5c0,0.2-1.2,3.1-2.8,6.5c-0.3,0.6-1.1,2.7-1.9,4.7
			c-0.8,2-1.8,4.3-2.1,5.2c-0.4,0.9-1.5,3.7-2.5,6.2l-1.8,4.5h-7.5C555.6,1065.6,552.1,1065.5,552,1065.3L552,1065.3z M647.4,1007.8
			c0-0.3-1.9-5-3.5-8.8c-0.4-0.9-1.3-3.3-2-5.2c-0.7-2-1.6-4.2-2-4.9c-0.4-0.8-0.7-1.6-0.7-1.8c0-0.4-1-2.7-2.8-6.7
			c-0.3-0.6-1.1-2.7-1.9-4.7c-0.8-2-1.8-4.3-2.1-5.2c-0.4-0.9-1.2-2.9-1.7-4.4c-0.6-1.5-1.3-3.4-1.7-4.1c-0.4-0.8-0.7-1.6-0.7-1.8
			c0-0.3-0.4-1.2-0.8-2.2c-0.4-1-1.7-4.1-2.8-6.9c-1.1-2.9-2.4-6.2-3-7.4c-0.5-1.2-1.3-3-1.7-4c-1-2.2-1.6-2-2.5,0.7
			c-0.4,1.2-1,2.7-1.3,3.3c-0.3,0.6-1,2.3-1.7,3.8c-0.6,1.5-1.4,3.2-1.7,3.8c-0.4,1-6.4,15.3-13.8,33c-1.5,3.6-3,7.1-3.2,7.7
			c-0.3,0.6-1.5,3.6-2.7,6.6c-1.2,3-2.6,6.3-3,7.3c-0.4,1-0.8,1.9-0.8,2.1c0,0.1,13.1,0.3,29.1,0.3S647.3,1008,647.4,1007.8
			L647.4,1007.8z M831.7,1065c-0.1-0.4-0.2-33.4-0.1-73.4l0.1-72.7H846l0.1,32.5l0.1,32.5h86.1v-65.3h14.8v147.3h-14.8v-68.6h-86.1
			l-0.3,68.4l-7,0.2c-5.3,0.1-7.1,0-7.3-0.5L831.7,1065z M979.9,992.1v-73.5h96.3v13.7h-81.8v51.6h71.3V997h-71.3v54.9h83.4v13.7
			h-98.2L979.9,992.1z"/>
	</g>
</g>
</svg>
