<?xml version="1.0" encoding="utf-8"?>
<!-- Generator: Adobe Illustrator 26.0.0, SVG Export Plug-In . SVG Version: 6.00 Build 0)  -->
<svg version="1.1" id="Layer_1" xmlns="http://www.w3.org/2000/svg" xmlns:xlink="http://www.w3.org/1999/xlink" x="0px" y="0px"
	 viewBox="0 0 500 500" style="enable-background:new 0 0 500 500;" xml:space="preserve">
<style type="text/css">
	.st0{fill:#29F1FB;}
</style>
<g>
	<g>
		<path class="st0" d="M254.3,38.2c22.5,0,45,0,67.3,0c43.1,0.3,82.6,27.8,97.6,67.8c6.5,17.4,7.8,35.3,6,53.7
			c-2.7,27.1-10.7,52.1-26.1,74.6c-23.5,34.8-56.7,54-97.9,60.3c-14,2.2-27.9,1.9-41.9,1.9c-5.8,0-8.9-2.7-9.2-7.5
			c-0.3-5.1,2.9-9.2,8.7-9.5c6.3-0.3,12.8,0,19.1-0.2c38.7-1,72.2-14.5,98.8-43.1c18.6-20.1,28.1-44.6,31.2-71.5
			c2.2-18.7,2-37.3-5.5-55c-11.4-27.1-31.7-43.8-59.6-51.4c-10.9-3.1-22-3.6-33.2-3.6c-41.6-0.2-83.3-0.2-124.9-0.2
			c-1.7,0-3.6,0-5.3-0.2c-4.1-0.3-7.3-3.7-7.7-7.8c0-3.9,2.7-7.5,6.6-8.2c2.2,0,4.3,0,6.1,0C207.7,38.2,231,38.2,254.3,38.2
			L254.3,38.2z"/>
		<path class="st0" d="M211.6,237.2H137c-1.5,0-3.2,0-4.8-0.2c-4.3-0.5-7-3.1-7.5-7.5c-0.3-4.4,1.7-7.3,5.8-8.9c2.6-1,5.3-0.7,8-0.7
			c49.1,0,98.1,0,147.2-0.2c17.2,0,32-6.5,43.9-19.1c10.1-10.9,15.5-23.8,17-38.7c1.2-11.6-0.3-22.1-7.5-31.7
			c-8-10.6-18.7-15.8-31.7-15.8c-46.3-0.2-92.8,0-139.2-0.2c-4.9,0-9.9-0.3-14.8-0.9c-4.3-0.3-6.6-2.9-6.8-7.2c-0.3-4.6,2-8,6.3-8.9
			c1.4-0.2,2.9-0.3,4.3-0.2c49.7,0,99.5,0,149.2,0c25,0,46.7,15.2,54.7,38.8c5.6,16.9,3.6,33.7-2.7,50.1
			c-12.1,31.3-40.5,50.6-74.1,50.6C260.1,237.4,235.9,237.2,211.6,237.2z"/>
		<path class="st0" d="M100.3,113.9c-5.8,0-11.4,0-17.2,0c-4.8-0.2-8.5-3.2-9-7.5c-0.5-4.3,2.2-8,7.3-9c2.9-0.5,5.6-0.7,8.5-0.5
			c7.8,0,15.7-0.2,23.5,0c2.4,0,4.8,0.3,7.2,0.9c4.3,1,6.5,4.6,6,9c-0.5,4.4-3.1,7-7.5,7.2C112.8,114.1,106.6,113.9,100.3,113.9
			L100.3,113.9z"/>
		<path class="st0" d="M205.1,296.7c-5.5,0-10.9,0.2-16.2,0c-5.1-0.2-8.7-3.1-9.2-7.3c-0.3-4.8,3.1-8.9,7.8-9.4
			c11.6-0.9,23.2-0.9,34.8,0c4.4,0.2,7.8,3.9,7.7,8.3c0,0.2,0,0.3,0,0.5c-0.3,4.8-3.7,7.7-9,7.8H205.1L205.1,296.7z"/>
	</g>
	<g>
		<path d="M144.1,450.5c-3.5,3.9-7.3,6.6-11.1,8.5c-4.3,1.9-8.9,2.8-13.7,2.6c-9,0-15.9-2.5-20.4-7.4c-4.6-4.9-6.9-11.5-6.9-19.9
			c-0.1-5.6,0.8-11.1,2.4-16.5c1.4-4.6,3.8-8.9,7-12.5c3.3-3.5,7.1-6.3,11.6-8c4.6-1.9,10-2.8,16.2-2.8c4.3,0,8.5,0.9,12.4,2.6
			c3.8,1.8,6.9,4.6,9.5,8.6l5.4-41.7h8.6l-13.5,97.4h-8.6L144.1,450.5z M120.6,453.5c6.4,0,11.4-1,15.2-3c3.4-1.8,6.3-4.4,8.4-7.6
			c1.9-3.3,3.1-6.9,3.5-10.6c0.5-3.9,0.8-7.8,0.8-11.6c0-2.5-0.3-5-0.9-7.4c-0.6-2.1-1.8-4-3.3-5.6c-1.8-1.6-3.9-2.9-6.3-3.5
			c-2.6-0.8-5.9-1.3-9.9-1.3c-8.5,0-15.2,2.6-19.8,8s-6.9,13-6.9,23C101.3,447,107.7,453.5,120.6,453.5L120.6,453.5z"/>
		<path d="M215.7,394.4l-1.3,8.4h-1.4c-5,0-9.1,0.6-12.3,1.8c-3,1-5.8,2.8-7.9,5.1c-2.1,2.4-3.6,5.1-4.5,8.1
			c-1.1,3.6-1.9,7.3-2.5,10.9l-4.6,32.8h-8.5l9.5-67h8.5l-1.4,11.3c3.6-4,7.6-6.9,11.8-8.8c4.1-1.8,8.6-2.6,13.2-2.6L215.7,394.4z"
			/>
		<path d="M277.8,394.6h8.5l-9.4,67h-8.4l1.4-10.9c-3.3,3.6-7.4,6.5-11.9,8.4c-4.1,1.8-8.6,2.6-13.2,2.6c-3,0-6.1-0.5-9-1.4
			c-2.8-0.9-5.4-2.4-7.5-4.4c-2.1-2-3.9-4.5-4.9-7.4c-1.1-3-1.4-6.5-0.8-10.6l6.3-43.3h8.6l-6.3,43.2c-0.4,2.4-0.1,4.8,0.6,7
			c0.6,1.9,1.8,3.5,3.3,4.8c1.5,1.3,3.1,2.3,5,2.8c1.9,0.6,3.9,0.9,5.8,0.9c5,0,9.1-0.6,12.3-1.8c3-1,5.8-2.8,7.9-5.1
			c2.1-2.4,3.6-5.1,4.5-8.1c1.1-3.6,1.9-7.3,2.5-10.9L277.8,394.6z"/>
		<path d="M307.9,394.6h8.5l-9.5,67h-8.5L307.9,394.6z M310,372.4c1.5-1.5,3.5-2.3,5.5-2.3c1.6,0,3.3,0.6,4.4,1.8s1.8,2.8,1.6,4.4
			c0,2-0.9,4-2.4,5.4c-1.5,1.4-3.4,2.3-5.5,2.3c-3.1,0.1-5.9-2.3-6-5.4c0-0.3,0-0.4,0-0.6C307.6,375.8,308.5,373.8,310,372.4
			L310,372.4z"/>
		<path d="M381.8,450.5c-3.5,3.9-7.3,6.6-11.1,8.5c-4.3,1.9-8.9,2.8-13.7,2.6c-9,0-15.9-2.5-20.4-7.4c-4.6-4.9-6.9-11.5-6.9-19.9
			c-0.1-5.6,0.8-11.1,2.4-16.5c1.4-4.6,3.8-8.9,7-12.5c3.3-3.5,7.1-6.3,11.6-8c4.6-1.9,10-2.8,16.2-2.8c4.3,0,8.5,0.9,12.4,2.6
			c3.8,1.8,6.9,4.6,9.5,8.6l5.4-41.7h8.6l-13.5,97.4h-8.6L381.8,450.5z M358.4,453.5c6.4,0,11.4-1,15.2-3c3.4-1.8,6.3-4.4,8.4-7.6
			c1.9-3.3,3.1-6.9,3.5-10.6c0.5-3.9,0.8-7.8,0.8-11.6c0-2.5-0.3-5-0.9-7.4c-0.6-2.1-1.8-4-3.3-5.6c-1.8-1.6-3.9-2.9-6.3-3.5
			c-2.6-0.8-5.9-1.3-9.9-1.3c-8.5,0-15.2,2.6-19.8,8c-4.6,5.4-6.9,13-6.9,23C338.9,447,345.5,453.5,358.4,453.5L358.4,453.5z"/>
	</g>
</g>
</svg>
