<?xml version="1.0" encoding="utf-8"?>
<!-- Generator: Adobe Illustrator 26.0.0, SVG Export Plug-In . SVG Version: 6.00 Build 0)  -->
<svg version="1.1" id="Layer_1" xmlns="http://www.w3.org/2000/svg" xmlns:xlink="http://www.w3.org/1999/xlink" x="0px" y="0px"
	 viewBox="0 0 500 500" style="enable-background:new 0 0 500 500;" xml:space="preserve">
<style type="text/css">
	.st0{fill-rule:evenodd;clip-rule:evenodd;fill:#E16B26;}
	.st1{fill-rule:evenodd;clip-rule:evenodd;fill:#434243;}
	.st2{fill:#434243;}
</style>
<g>
	<path class="st0" d="M440.3,251.4c-0.4-0.9-0.6-1.3-0.7-1.7c-5.7-11-11.6-21.9-17.3-32.9c-0.6-1.1-0.6-1.8,0.4-2.8
		c9.2-10.7,18.2-21.5,27.4-32.1c0.4-0.4,0.6-0.7,0.7-1.5c-2.8,0.7-5.3,1.5-8.1,2c-11,2.9-22,5.9-33.3,8.8c-1.1,0.4-1.5,0-2-0.9
		c-6.2-10.5-12.7-20.9-18.9-31.4c-0.4-0.6-0.7-1.1-1.3-1.5c-0.6,2.8-1.1,5.5-1.5,8.5c-1.8,9.9-3.5,19.7-5.3,29.6
		c-0.2,1.1-0.4,2.2-0.6,3.1c0,1.1-0.6,1.5-1.5,1.7c-13,4-26.1,8.3-39.1,12.3c-0.6,0.2-1.1,0.4-1.7,0.9c10.7,4.2,21.3,8.5,32.1,12.7
		c-0.4,0.4-0.7,0.6-0.9,0.7c-6.6,4.2-13.4,8.6-20,12.9c-0.7,0.6-1.5,0.6-2.4,0.2c-7.9-3.5-16-7.2-23.9-10.7
		c-3.5-1.7-6.8-3.7-9.4-6.8c-5.7-7-4.6-14.9,2.9-19.7c2.4-1.7,5.3-2.8,8.1-3.7c12.7-4.2,25.5-8.1,38.4-12.1c1.1-0.4,1.7-0.7,1.8-2
		c1.7-9.9,3.5-19.7,5.3-29.6c0.9-5.3,1.5-10.7,4-15.4c0.9-1.8,2.2-3.7,3.5-5.3c5.1-5.7,12.1-5.9,17.6-0.6c1.8,1.8,3.3,4,4.8,6.1
		c5.9,9.7,11.8,19.3,17.5,29c0.7,1.1,1.3,1.5,2.6,1.1c14.3-3.9,28.7-7.5,42.8-11.4c2.9-0.7,5.9-1.1,9-0.6c6.6,1.3,9.6,6.2,7.2,12.7
		c-1.1,2.9-2.8,5.3-4.8,7.7c-9.9,11.8-19.8,23.5-29.9,35.1c-0.7,0.9-0.9,1.7-0.2,2.8c5.9,11.2,11.9,22.6,17.8,33.8
		c1.5,2.8,2.6,5.5,2.6,8.6c0,7-5.1,12.9-12.1,13.8c-3.9,0.6-7.5-0.2-11.2-1.5c-9-2.8-18-5.5-26.8-8.3c-0.9-0.2-1.1-0.6-1.3-1.5
		c-1.1-6.2-2.2-12.7-3.3-18.9c0-0.2,0-0.4,0-0.7C419.5,245.7,429.8,248.4,440.3,251.4L440.3,251.4z"/>
	<path class="st1" d="M422.8,343.4c-8.1,0-16.2,0-24.2,0c-1.1,0-1.7-0.4-2.2-1.3c-9.6-14.5-19.1-29-28.8-43.7
		c-0.4-0.6-0.6-0.9-1.1-1.7c-2,15.6-4,31-6.1,46.5c-7,0-14,0-21.1,0c0.2-2,0.6-4,0.7-6.1c2-15.8,4.2-31.6,6.2-47.2
		c2-15.1,4-30.1,5.9-45.2c0-0.4,0.4-1.1,0.7-1.3c7.3-4.8,14.5-9.4,21.9-14.1c0.2,0,0.2,0,0.6-0.2c-2.2,16.9-4.4,33.6-6.6,50.3
		l0.2,0.2c11.4-12.7,23-25.4,34.5-38.4c0.4,2,0.6,3.7,0.9,5.3c0.7,4.8,1.7,9.6,2.6,14.3c0.2,0.9,0,1.7-0.7,2.2
		c-7.3,7.7-14.7,15.6-22.2,23.3c-0.4,0.4-0.6,0.7-0.9,1.1c0.2,0.4,0.4,0.7,0.7,1.1c12.7,17.8,25.5,35.8,38.2,53.6
		c0.2,0.4,0.6,0.6,0.9,0.9C422.8,343.2,422.8,343.2,422.8,343.4L422.8,343.4z"/>
	<path class="st1" d="M172.1,296.9c-0.4-1.7-0.6-4-1.3-6.2c-3.5-10.8-14.7-16.9-26.3-14.1c-12.7,2.9-21.9,13-23.1,25.9
		c-0.9,9.6,4.2,18.9,13.8,22.4c7.7,2.8,15.2,1.7,22.2-2.6C166.6,316.6,171.5,308.3,172.1,296.9L172.1,296.9z M116.2,337.5
		c-0.6,4.8-1.3,9.2-1.8,13.6c-0.7,5.9-1.5,11.8-2.2,17.6c0,0.7-0.4,0.9-1.1,0.9c-5.9,0-11.6,0-17.5,0c-0.2,0-0.2,0-0.6-0.2
		c0.4-2.8,0.7-5.5,1.1-8.5c1.3-9.7,2.6-19.5,3.9-29.4c1.5-11.2,2.8-22.4,4.6-33.4c3.3-19.7,20-36.6,39.7-40.8
		c11.4-2.4,22.2-1.3,32.1,5.1c9.9,6.4,15.6,15.6,16.9,27.2c1.8,16.4-4.2,30.1-16,41.3c-7.7,7.3-16.9,12.1-27.4,13.8
		c-10.8,1.7-21.1-0.2-30.3-6.6C117.1,338.1,116.8,337.9,116.2,337.5L116.2,337.5z"/>
	<path class="st1" d="M106.8,244c-6.4,4.8-12.9,9.6-19.1,14.1c-1.1-1.7-1.8-3.1-2.9-4.8c-2.8-3.9-6.1-6.6-11-7
		c-4-0.4-7.7,1.1-10.5,4c-2.6,2.8-2.8,6.6-0.6,9.6c2.6,3.3,5.3,6.6,8.3,9.7c4.8,5.1,9.7,10.1,14.5,15.4c4.2,4.8,7.7,10.1,8.8,16.5
		c1.3,7.7-0.2,15.1-3.9,21.7c-6.8,12.5-17.3,19.8-31.2,22c-6.2,0.9-12.3,0.7-18.4-0.9c-8.1-2.4-13.6-7.5-17.1-15.1
		c-1.3-2.6-2.2-5.3-3.3-8.3c7-3.7,13.8-7.3,20.8-11c0.2,0.6,0.4,1.1,0.6,1.5c1.1,2.4,2.2,4.8,3.7,7c4.4,6.4,11.4,8.5,18.4,5.1
		c1.8-0.7,3.5-2,5.1-3.3c4.6-4,5.5-9.7,2-14.9c-2-2.9-4.4-5.5-6.8-8.3c-5.7-6.2-11.6-12.3-17.1-18.7c-3.9-4.4-6.4-9.6-7.2-15.4
		c-0.9-6.4,0.4-12.5,3.7-18c8.3-13.4,20.4-20.6,36.4-19.8c9.2,0.4,16.4,4.6,22,11.8C103.5,239.6,105,241.8,106.8,244L106.8,244z"/>
	<path class="st1" d="M261.5,316.4c-1.1,8.1-2,15.8-3.1,23.5c0,0.4-0.4,0.9-0.7,1.1c-15.8,7.3-36.6,6.2-49.4-8.5
		c-7-7.9-9.9-17.3-9.4-27.7c0.9-24.1,20.9-45.2,45-48.1c14-1.7,26.3,2,35.6,12.9c6.4,7.3,9.4,16.2,9,25.9c-0.4,6.4-1.3,12.9-2,19.3
		c-1.1,9-2.4,18.2-3.5,27.2c0,0.4-0.2,0.6-0.2,1.1c-6.2,0-12.5,0-18.9,0c0.2-2,0.6-4,0.7-6.2c1.3-10.5,2.9-20.9,4-31.4
		c0.7-6.6,0.4-13-2.8-19.1c-3.1-6.4-8.5-9.9-15.6-10.7c-14.5-1.5-28.3,8.6-31.4,22.8c-2,9.4,1.1,18.6,8.6,23.5
		c7.3,5,15.2,5,23.1,1.7C254.7,322.3,258.2,319.9,261.5,316.4L261.5,316.4z"/>
	<path class="st1" d="M340.9,258.5c-0.9,6.6-1.7,13-2.6,19.5c-4,0-7.9,0-11.8,0c-3.1,0-6.1,2-7,5c-0.4,1.1-0.6,2.4-0.7,3.7
		c-2,15.1-4,29.9-5.9,45c-0.6,3.9-0.9,7.5-1.5,11.4c-6.6,0-13,0-19.7,0c0.4-2.9,0.7-5.7,1.1-8.5c1.3-9.7,2.6-19.5,3.9-29.2
		c1.1-8.5,2-16.9,3.5-25.2c1.8-11.2,12.9-21.3,24.2-21.7C329.9,258.4,335.2,258.5,340.9,258.5L340.9,258.5z"/>
	<path class="st2" d="M446,343.2V335l0,0l-3.3,8.3h-1.1l-3.3-8.3l0,0v8.3h-1.7v-9.9h2.6l2.9,7.5l2.9-7.5h2.6v9.9H446L446,343.2z
		 M431.5,334.6v8.6h-1.7v-8.6h-3.1v-1.3h7.9v1.3H431.5L431.5,334.6z"/>
	<path class="st2" d="M133.1,230.1h4.8l-1.1-7.3L133.1,230.1L133.1,230.1z M138.6,234.8h-8.1l-2.6,5h-5.7l12.7-23.7h5.5l4.2,23.7
		h-5.1L138.6,234.8L138.6,234.8z"/>
	<path class="st2" d="M167.7,221.1h-2.9l-0.9,5.5h2.9c1.7,0,3.1-1.1,3.1-3.3C169.9,221.8,168.9,221.1,167.7,221.1L167.7,221.1z
		 M160.7,216.3h7.5c4,0,6.8,2.4,6.8,6.4c0,5.1-3.7,8.6-8.8,8.6h-3.3l-1.5,8.6h-5L160.7,216.3L160.7,216.3z"/>
	<path class="st2" d="M191.7,230.1h4.8l-1.1-7.3L191.7,230.1L191.7,230.1z M197.4,234.8h-8.1l-2.6,5h-5.7l12.7-23.7h5.5l4.2,23.7
		h-5.3L197.4,234.8L197.4,234.8z"/>
	<path class="st2" d="M229.4,239.1c-1.7,0.7-3.5,1.3-5.3,1.3c-6.2,0-10.1-4.8-10.1-10.7c0-7.5,6.2-13.8,13.8-13.8
		c1.8,0,3.5,0.4,5,1.3l-0.7,5.7c-1.1-1.1-2.8-2-4.8-2c-4.2,0-8.1,3.9-8.1,8.5c0,3.5,2.2,6.1,5.5,6.1c2,0,4-0.7,5.5-1.8L229.4,239.1
		L229.4,239.1z"/>
	<polygon class="st2" points="259.5,230.4 249.2,230.4 247.6,240 242.6,240 246.8,216.3 251.8,216.3 250.1,225.7 260.4,225.7 
		262.1,216.3 267,216.3 262.8,240 257.9,240 	"/>
	<polygon class="st2" points="277.7,240 281.7,216.3 295,216.3 294,221.1 286,221.1 285,225.7 292.6,225.7 291.8,230.4 284.3,230.4 
		283.4,235.2 291.7,235.2 290.7,240 	"/>
</g>
</svg>
