<?xml version="1.0" encoding="utf-8"?>
<!-- Generator: Adobe Illustrator 26.0.0, SVG Export Plug-In . SVG Version: 6.00 Build 0)  -->
<svg version="1.1" id="Layer_1" xmlns="http://www.w3.org/2000/svg" xmlns:xlink="http://www.w3.org/1999/xlink" x="0px" y="0px"
	 viewBox="0 0 500 500" style="enable-background:new 0 0 500 500;" xml:space="preserve">
<style type="text/css">
	.st0{fill:#717073;}
	.st1{fill:#00467F;}
	.st2{fill:url(#SVGID_1_);}
</style>
<g>
	<g>
		<g>
			<path class="st0" d="M142.3,374.7h-7.5l-4.6-9.3h-27.7l-4.6,9.3h-7.5l21.7-41.1h8.4L142.3,374.7z M126.8,359.2l-10.3-19.9
				l-10.6,19.9H126.8z"/>
			<path class="st0" d="M182.5,333.7c4.2,0,7.5,1.1,10,3.6c2.4,2.4,3.7,5.5,3.7,9.3c0,4-1.3,7.3-3.7,9.3c-2.7,2.2-6.1,3.3-11.1,3.3
				h-24.8v15.7h-6.9v-41.1h32.8V333.7z M181.1,352.8c5.4,0,7.9-2.2,7.9-6.4c0-4.6-2.8-6.9-8.4-6.9h-24v13h24.5V352.8z"/>
			<path class="st0" d="M246.4,374.7h-7.5l-4.6-9.3h-27.8l-4.6,9.3h-7.5l21.7-41.1h8.5L246.4,374.7z M231,359.2l-10.3-19.9
				l-10.6,19.9H231z"/>
			<path class="st0" d="M298.6,342.9l-6.1,2.2c-4.2-4.5-10-6.6-17.5-6.6c-5.7,0-10.3,1.5-13.9,4.5c-3.6,2.8-5.4,6.6-5.4,11.1
				c0,4.6,1.8,8.4,5.4,11.2c3.6,2.8,8.4,4.2,14.3,4.2c7.3,0,13-2.2,17-6.9l5.7,3.3c-2.8,3.6-6.1,6-10,7.5c-3.7,1.5-8.2,2.2-13.3,2.2
				c-7.3,0-13.3-1.8-18.1-5.5c-5.5-4.2-8.2-9.4-8.2-16.3c0-6.6,2.8-11.9,8.4-16.1c4.8-3.7,10.8-5.5,17.9-5.5
				C285.1,332.3,293.1,335.8,298.6,342.9z"/>
			<path class="st0" d="M355.4,374.7h-6.9v-18.4h-32.9v18.4h-6.8v-41.1h6.9v16.6h32.9v-16.6h6.9v41.1H355.4z"/>
			<path class="st0" d="M409.6,374.7h-42.9v-41.1h41.3v6.1h-34.4v10.6h24.1v6.1h-24.1v11.9h36V374.7z"/>
		</g>
	</g>
	<g>
		<g>
			<path class="st1" d="M127.9,403.5c10.2,0,18.5,2.7,24.4,8.2c5.9,5.5,9.1,12.8,9.1,21.9c0,8.4-3.3,15.4-9.7,21.2
				c-6,5.1-13.3,7.8-21.9,7.8H90.4v-59.1H127.9z M130.6,453.7c6,0,10.7-1.8,14.5-5.7c3.7-3.7,5.7-8.7,5.7-14.5
				c0-6.4-2-11.5-6.1-15.4c-4.1-4-9.4-5.7-15.9-5.7h-28.6v41.5H130.6z"/>
			<path class="st1" d="M242.6,462.5h-11.5l-15.9-22.6h-29.9v22.6h-9.8v-59.1h46.6c6.1,0,11.1,1.7,14.5,5c3.4,3.3,5.4,7.8,5.4,13.5
				c0,5-1.4,9.1-4.3,12.1c-2.7,2.9-6.4,4.7-11.1,5.4L242.6,462.5z M220.8,431.1c7.5,0,11.2-3.1,11.2-9.2c0-6.5-4.1-9.8-12.2-9.8
				h-34.4V431h35.5V431.1z"/>
			<path class="st1" d="M267.6,462.5h-9.8v-59.1h9.8V462.5z"/>
			<path class="st1" d="M342.7,462.5h-55.4v-59.1h9.8v50.3h45.5V462.5z"/>
			<path class="st1" d="M409.6,462.5h-55.4v-59.1h9.8v50.3h45.5V462.5z"/>
		</g>
	</g>
	
		<linearGradient id="SVGID_1_" gradientUnits="userSpaceOnUse" x1="232.1179" y1="1682.4966" x2="291.3152" y2="1659.1521" gradientTransform="matrix(1 0 0 1 0 -1498)">
		<stop  offset="0" style="stop-color:#C2C2C4"/>
		<stop  offset="1" style="stop-color:#717073"/>
	</linearGradient>
	<polygon class="st2" points="184.5,59.5 190.5,74.3 214.5,58.8 194.7,84.8 194.7,84.8 189.6,106.1 203.8,106.4 207.3,115 231,99.2 
		211.4,125.3 211.4,125.3 205.7,145.6 220,146 223.2,154.1 246.8,138.5 227.8,165.3 227.8,165.3 222.1,185.3 235.9,185.9 239.6,194 
		264.1,178.1 264.1,178.3 244.5,204.5 241.5,222.1 257.8,222.1 263.3,229.5 276.6,220.8 269.4,238.7 266,254.2 281.3,254.1 
		285.7,260.1 296,253.3 290.3,266 313.1,297.2 309.8,275.3 315.5,260.9 307.8,260.5 304.1,232.8 311.7,209.8 300.7,209.6 
		297.1,183.4 302.2,163.8 289.9,163.2 282.1,144.1 287.6,123.5 273.4,123 266,104.9 271.3,84 257.2,83.5 249.8,65.2 255.1,44.3 
		241.1,43.7 238.2,37.5 	"/>
</g>
</svg>
