<?xml version="1.0" encoding="utf-8"?>
<!-- Generator: Adobe Illustrator 26.0.0, SVG Export Plug-In . SVG Version: 6.00 Build 0)  -->
<svg version="1.1" id="Layer_1" xmlns="http://www.w3.org/2000/svg" xmlns:xlink="http://www.w3.org/1999/xlink" x="0px" y="0px"
	 viewBox="0 0 500 500" style="enable-background:new 0 0 500 500;" xml:space="preserve">
<g transform="translate(0.000000,831.000000) scale(0.100000,-0.100000)">
	<path d="M2631.6,7991.6c-23.3-23.3-24.9-49.6-3.2-76.7c31.7-41.1,84.5-17.8,84.5,36.3C2712.9,8005.5,2667.3,8027.9,2631.6,7991.6z"
		/>
	<path d="M2237.3,7851.4c-30.2-30.2-21.7-82.2,16.2-96.8c45.7-17.1,86.8,56.6,51.8,94.5C2289.2,7866.9,2253.5,7868.3,2237.3,7851.4z
		"/>
	<path d="M2629.4,7781.6c-17.1-11.6-17.1-13.2-17.1-237.9c0-251-1.6-261-46.6-261c-42.7,0-46.6,12.3-46.6,144.1
		c0,118.5,0,120.1-20.1,139.5c-14.6,15.5-24,18.5-40.2,14.6c-41.1-10.1-40.2-3.9-40.2-263.5v-241.8l43.4,22.4
		c36.3,17.8,54.3,21.7,100.7,21.7c109.2,0,190.6-64.4,216.9-171.9c11.6-45.7,11.6-54.3,0-99.1c-21-80.6-79.7-143.4-155-163.5
		c-49.6-13.2-120.8-5.5-166.5,17.8l-39.5,21v-112.3c0-109.2-0.7-113-19.4-130.9c-10.1-10.8-24-19.4-31-19.4s-21,8.5-31,19.4
		l-19.4,18.5v572.4v572.4l-19.4,8.5c-21,9.3-38.8,6.2-59.6-12.3c-10.9-8.5-13.9-24-13.9-61.2v-48.9h-89.1h-89.9l-13.9-32.6
		c-13.9-34-134-459.4-165.1-583.4c-13.2-55-16.2-92.2-16.2-178.1c0-126.3,14.6-193.6,63.5-294.3c69.7-144.8,168.1-238.6,346.4-327.7
		c96.8-48.9,118.5-66.7,145.7-121.7c28.7-58.9,41.1-122.4,51.8-269.6c7.8-103,7.1-124.7-1.6-132.4c-6.2-5.5-80.6-31.7-165.8-58
		c-85.2-27.2-156.4-50.4-158-51.8c-1.6-1.6,161.9-3.2,364.2-2.3c216.9,0,359.4,3.2,347.8,7.1c-10.9,3.9-86.8,28.7-169.7,54.3
		l-150.3,48l4.6,110c5.5,128.6,14.6,192,37.9,258.7c26.3,75.1,54.3,101.4,165.8,158c209.2,105.3,328.5,230.8,382.7,405.1
		c24.9,77.4,29.5,220.1,11.6,333.1c-24.9,160.3-161.9,650-187.5,667.9c-8.5,7.1-46.6,10.1-120.1,10.1h-106.9v116.2
		c0,106.2-1.6,117.8-15.5,131.7C2678.9,7797.1,2653.3,7798.7,2629.4,7781.6z"/>
	<path d="M2431.7,7772.4c-17.8-19.4-17.1-65.8,0.7-81.3c14.6-13.9,45.7-17.1,60.5-7.1c15.5,10.1,27.9,41.8,23.3,59.6
		C2506.1,7784.7,2457.2,7801,2431.7,7772.4z"/>
	<path d="M2503.8,7002.3c-42.7-29.5-58-56.6-58-103c0-65.8,43.4-112.3,110-117.8c70.5-5.5,126.3,48,126.3,121.7
		C2681.9,6992.9,2575.9,7051.1,2503.8,7002.3z"/>
	<path d="M1688.9,5276.3c-41.8-22.4-62.8-57.3-66.7-107.8c-3.2-50.4,14.6-84.5,59.6-114.6c37.2-25.6,103-24.9,141.1,0.7
		c73.5,49.6,72.1,161.2-2.3,216.2C1790.3,5293.2,1725.2,5296.4,1688.9,5276.3z"/>
	<path d="M4153.9,4966.4v-155h-38.8h-38.8v-92.9v-92.9h38.8h38.8l1.6-330.8l2.3-331.5l99.1-2.3l98.4-2.3v333.8v333.1h50.4h50.4v92.9
		v92.9h-50.4h-50.4v155v155h-100.7h-100.7V4966.4z"/>
	<path d="M2427.1,4822.4c-37.9-13.9-88.4-43.4-114.6-67.4l-17.8-15.5v35.6v36.3h-100.7h-100.7v-426.1v-426.1h100h100l3.2,273.5
		c3.9,305.3,7.8,331.5,56.6,380.4c31,31,88.4,47.3,144.8,41.1c74.4-9.3,108.5-45.7,122.4-134c4.6-25.6,7.8-161.9,7.8-303.7v-258
		l99.1,2.3l98.4,2.3l2.3,271.2c1.6,165.8-1.6,296.6-6.2,337c-15.5,120.1-65.1,194.5-158.9,237.9c-39.5,17.8-58.9,21.7-124,23.3
		C2482.1,4833.8,2451.9,4831.5,2427.1,4822.4z"/>
	<path d="M3366,4823.8c-76-18.5-141.8-57.3-203.7-120.1c-92.9-93.8-131.7-185.2-131.7-314.6c0-267.4,214.6-467.9,480.4-450.1
		c78.3,5.5,135.6,21,193.6,52.7c96.8,54.3,171.2,140.2,207.6,240.9c17.8,48.9,21,67.4,21,152.5c0,81.3-3.2,105.3-17.8,148.7
		c-48.8,140.2-170.4,251.8-315.3,289C3545,4837,3422.6,4837,3366,4823.8z M3557.3,4644.1c52.7-15.5,99.1-47.3,126.3-86.1
		c74.4-106.9,62.8-281.3-24-371c-44.1-45.7-102.3-68.2-175.8-68.2c-65.8,0.7-101.4,11.6-152.5,47.3
		c-82.9,57.3-120.8,211.4-79.7,327.7C3295.6,4618.5,3427.2,4682.9,3557.3,4644.1z"/>
	<path d="M1651.7,4385.4v-426.8l99.1,2.3l98.4,2.3l2.3,424.5l1.6,423.8h-100.7h-100.7V4385.4z"/>
	<path d="M910.3,4795.2c-43.4-7.1-111.6-31.7-137.2-49.6c-23.3-16.2-27.9-14.6-27.9,11.6v23.3H644.5H543.8v-585v-585h100.7h100.7
		v181.3v182l45-23.3c62.8-31.7,125.6-45.7,206.9-45.7c134.7,0,239.3,41.8,328.5,131.7c89.1,89.1,125.6,179.7,125.6,315.3
		c0.7,134-36.3,225.4-128.6,317.6C1213.9,4778.1,1070.6,4822.4,910.3,4795.2z M1078.3,4609.2c109.2-27.2,176.7-137.9,168.9-277.4
		c-5.5-87.5-26.3-136.3-79.7-185.9c-53.4-48-107.8-65.8-185.9-61.2c-95.2,6.2-165.1,53.4-204.6,137.2
		c-17.8,38.8-20.1,52.7-20.1,128.6c0,76,2.3,89.9,20.1,127.9c27.2,57.3,51.8,86.1,100,111.6
		C938.1,4623.3,999.3,4629.4,1078.3,4609.2z"/>
</g>
</svg>
