<?xml version="1.0" encoding="utf-8"?>
<!-- Generator: Adobe Illustrator 26.0.0, SVG Export Plug-In . SVG Version: 6.00 Build 0)  -->
<svg version="1.1" id="Layer_1" xmlns="http://www.w3.org/2000/svg" xmlns:xlink="http://www.w3.org/1999/xlink" x="0px" y="0px"
	 viewBox="0 0 500 500" style="enable-background:new 0 0 500 500;" xml:space="preserve">
<style type="text/css">
	.st0{fill:#241F2B;}
	.st1{fill:#DA3522;}
</style>
<g id="g10657_00000124851473118052198030000013595211417336834954_">
	<g id="g10663_00000109739051098148877710000000087543789104967588_" transform="translate(40.7606,31.7631)">
		<path id="path10665_00000170958079268330984370000004893225062189005486_" class="st0" d="M71.6,262.3c-5.2-2.7-11.2-4.7-18-6
			c-6.5-1-13-1.7-19.5-1.7c-5.2,0-10.7-0.5-16-1.2c-5-0.7-9.7-2.5-13.7-4.7s-7.2-5.2-9.7-9.2c-2.5-4-3.7-9-3.7-15.2
			c0-5.5,1.5-10.2,3.7-14c2.5-3.7,5.5-7,9.5-9.2c4-2.2,8.5-4,13.5-5.2c8.5-1.7,17.5-2.2,26.7-0.7c3.5,0.5,7,1.5,10.5,2.7
			c3.2,1.2,6.5,3,9.2,5c2.7,2,5.2,4.7,7.2,7.7l1.2,1.7l8.5-3.5l-1.7-2.5c-2.2-3.2-5-6.2-7.7-8.7c-2.7-2.5-6.2-4.7-10-6.5
			s-8-3-12.5-4c-4.5-1-10-1.2-16-1.2c-5.7,0-11.7,0.7-17.5,2c-6,1.2-11.5,3.5-16.5,6.5s-9.2,7-12.5,12c-3.2,5-5,11.2-5,18.5
			c0,7.5,1.5,14,4.5,19.2c3,5,7,9.2,12,12.2c4.7,3,10.5,5.2,16.7,6.5c6,1.2,12.5,1.7,19,1.7c5.2,0,10.7,0.5,16.2,1.2
			c5.5,0.7,10.5,2.2,15.2,4.5c4.5,2.2,8.2,5.2,11,9s4.2,8.7,4.2,15c0,5.5-1.2,10.2-4,14c-2.7,4-6.2,7.2-10.7,9.5
			c-4.5,2.5-9.2,4.2-14.7,5.5s-11,1.7-16.2,1.7c-8.7,0-17.5-1.7-25.7-5c-8.2-3.2-15.7-8.2-22-14.7l-1.7-1.7l-6.7,6l2,2
			c6.2,6.2,13.7,11.5,22.7,16s19.7,6.7,31.7,6.7c5.7,0,11.7-0.7,18-2c6.2-1.2,12.2-3.5,17.7-6.7c5.5-3.2,10-7.2,13.5-12.2
			c3.5-5.2,5.5-11.5,5.5-19c0-7.7-1.7-14-5-19.2C81.6,269.3,77.1,265.3,71.6,262.3"/>
	</g>
	<g id="g10667_00000019664228368125392970000017685681484462845119_" transform="translate(76.3898,3.9853)">
		<path id="path10669_00000079464933375294743800000012647188466468205447_" class="st0" d="M116.7,353.2c-6.2,0-12-1.2-16.7-3.7
			c-5-2.5-9.5-6-13.2-10.2c-3.7-4.2-6.7-9.5-9-15c-2.2-5.7-3.2-11.7-3.5-17.5c0-5.5,1-11.2,3-16.7c2-5.5,5-10.7,8.7-15.2
			c3.7-4.5,8.2-8.2,13.5-11c5.2-2.7,11-4.2,17.2-4.2c6,0,11.5,1.2,16.7,4c5.2,2.7,9.7,6.2,13.5,10.5c3.7,4.2,7,9.5,9,15
			c2.2,5.7,3.2,11.5,3.2,17.5c0,5.5-1,11.2-3,16.7s-5,10.7-8.7,15.2c-3.7,4.5-8.2,8-13.5,10.7C128.9,351.7,123.2,353.2,116.7,353.2
			 M154.4,268.3c-4.5-5.2-10-9.5-16.2-12.7c-6.5-3.2-13.5-5-21.5-5c-7,0-14,1.5-20.2,4.5c-6.2,3-11.7,7-16.5,12.2
			c-4.7,5-8.2,11.2-11,18c-2.7,6.7-4,14-4,21.5c0,7,1.2,14,3.7,20.5s6,12.5,10.5,17.7s10,9.5,16.2,12.7c6.2,3.2,13.5,5,21,5l0,0l0,0
			c7.2-0.2,14-1.7,20.2-4.7c6.2-3,11.7-7.2,16.5-12.2c4.7-5,8.2-11,11-17.7s4-13.7,4-21c0-6.7-1.2-13.5-3.7-20
			C162.4,279.8,158.9,273.6,154.4,268.3"/>
	</g>
	<g id="g10671_00000166652958089223734590000006604266372085592250_" transform="translate(119.7832,5.0906)">
		<path id="path10673_00000026127739473458864490000015813042962181702553_" class="st0" d="M171.9,349.6c-1.5,0.5-2.7,0.7-4,0.7
			c-1.2,0.2-2.5,0.5-3.7,0.5c-1.2,0.2-2.5,0.2-3.7,0.2c-3,0-5.2-1-6.7-3c-1.7-2.2-2.5-4.5-2.5-7V208.8h-9v132.3c0,5,1.5,9.2,4.7,13
			s7.7,5.7,13.5,5.7c1.7,0,3.7,0,5.5-0.2c1.7-0.2,3.2-0.5,4.5-0.5c1.5-0.2,3-0.5,4.7-1l3-0.7l-4.2-8.2L171.9,349.6z"/>
	</g>
	<g id="g10675_00000169531507090359498030000004992829018411361411_" transform="translate(136.9779,45.2734)">
		<path id="path10677_00000121960696596112240670000013208451690622420156_" class="st0" d="M193.6,218.3
			c-4.7,3.2-8.7,7.5-12.5,12.5v-20h-9v108.1h9v-67.4c1.2-4.5,3-8.5,5.2-12.2c2.2-3.7,5-7,8-10c3.2-2.7,6.7-5,11-6.7
			c4-1.7,8.7-2.7,13.7-3h2.5v-9h-2.5C209.1,210.8,200.6,213.3,193.6,218.3"/>
	</g>
	<g id="g10679_00000022526185534420821660000012559598767145543608_" transform="translate(193.9115,92.0414)">
		<path id="path10681_00000170254064450686174390000002644208243993672079_" class="st1" d="M265.8,65.3l-74.9,80.9l94.1-43.4
			C282.3,88.5,275.5,75.8,265.8,65.3"/>
	</g>
	<g id="g10683_00000129925526982541999860000001049498717543858874_" transform="translate(169.4268,102.6536)">
		<path id="path10685_00000142874111353642847810000007969885660870018470_" class="st1" d="M234.7,30.7c-10.5,0-20.2,2-29.2,5.7
			l-10,84.6l50.2-89.6C242.2,31,238.4,30.7,234.7,30.7"/>
	</g>
	<g id="g10687_00000105389479132064406150000000420192283986333580_" transform="translate(202.7133,73.4428)">
		<path id="path10689_00000165936997765119600630000000653682031500966037_" class="st1" d="M277,126.1L187.9,176l83.6-10
			c4-9.2,6.2-19.5,6.2-30C277.7,132.8,277.5,129.3,277,126.1"/>
	</g>
	<g id="g10691_00000085955282096027518840000003361442874835245240_" transform="translate(188.2247,41.2478)">
		<path id="path10693_00000132796928485330876430000007806550855559678632_" class="st1" d="M258.5,231.4c10-6.7,18.2-15.7,24-26.5
			l-78.4,15.5L258.5,231.4z"/>
	</g>
	<g id="g10695_00000175285972233174572920000011887775178332959922_" transform="translate(176.2492,101.9586)">
		<path id="path10697_00000076561659311018708140000017123282549172642194_" class="st1" d="M243.4,33.1l-43.7,94.6l80.9-74.9
			C270.6,42.9,257.9,35.9,243.4,33.1"/>
	</g>
	<g id="g10699_00000085208696581202659530000011255859409492051841_" transform="translate(172.2334,35.622)">
		<path id="path10701_00000142857967370554582020000007529751729127113399_" class="st1" d="M238.4,249.8c8.5-0.7,16.5-2.7,24-6
			l-43.9-5.2L238.4,249.8z"/>
	</g>
	<g id="g10703_00000090287069168160917750000009246577447560253119_" transform="translate(138.8186,82.8789)">
		<path id="path10705_00000005966516093664189800000014231773829523444656_" class="st1" d="M195.9,95.3c-3.5,7.5-5.7,15.7-6.5,24.5
			l11.7,21.2L195.9,95.3z"/>
	</g>
	<g id="g10707_00000013904102083761380290000010732727280872750979_" transform="translate(153.617,98.7011)">
		<path id="path10709_00000154384327079864055300000008183486467191990694_" class="st1" d="M214.8,43.8c-10.7,5.7-20,14-27,24
			l11,55.7L214.8,43.8z"/>
	</g>
</g>
</svg>
