<?xml version="1.0" encoding="utf-8"?>
<!-- Generator: Adobe Illustrator 26.0.0, SVG Export Plug-In . SVG Version: 6.00 Build 0)  -->
<svg version="1.1" id="Layer_1" xmlns="http://www.w3.org/2000/svg" xmlns:xlink="http://www.w3.org/1999/xlink" x="0px" y="0px"
	 viewBox="0 0 500 500" style="enable-background:new 0 0 500 500;" xml:space="preserve">
<style type="text/css">
	.st0{fill:#F09D13;}
	.st1{font-family:'ArialMT';}
	.st2{font-size:34.7879px;}
</style>
<g>
	<g id="g2838_00000009558398026141465650000005977584125556635822_" transform="translate(54.050595,11.150298)">
		<path id="path2840_00000080200099074562654080000015261678452026003331_" class="st0" d="M193.5,445.6
			c-65.1-5.2-135.4-47.7-157-111.9c-0.2-23.9,28.9-17.3,39.7,0.2c61.5,111.3,195.7,120.6,283.4,33.1c7.7-8.5,10.7-9,8.1-1.1
			C331.5,419.1,256.5,449.5,193.5,445.6L193.5,445.6z M163.8,303.8c-10.2-6.9,14.7-17,26.1-20.6c7.6-2.5,8.5-3.3,8.5-6.7
			c0-5.4-4.5-10.9-16.5-19.9c-22.6-16.7-11.9-53.6,14.5-59c32.7-10.2,42.8,32.9,30.4,21.2c-13.1-11.9-33.6-2.6-25.7,14.8
			c7.1,15,30.2,17.9,46.2,5.8c16.5-12.5,21.1-48.3,0-58.8c-16.5-10.8-56.4,1.4-74.2-5.8c-6.3-2.1-8-5.3,0.5-5.4
			c28.7-2.7,74.1-29.3,101-6.7c34.7,24,30.6,107.9,85.1,107.2c37.8,2.6,61.7-57.6,21.4-71.7c-11-2.5-23.6-2.6-27.9,9.1
			c-7.6,33.1,27.3,21.4,24.8,28.2c-3.7,7.9-20.1,6.1-27,2.5c-16.6-7.7-18.8-30.5-7.1-43.8c19-24,64.3-12.2,73.5,15.4
			c27,71.8-68.3,113.6-118.1,67.5c-4.2-3.8-5.6-4.3-5.6-1.8c0.6,3.3,11.5,15.1,9.4,17.4c0.5,8.5-51.4,2.4-53.8,3.6
			c-2-0.9,0.2-5.8,3.8-8.5c23-10.3,11.8-0.7,7.2-25.5c-0.5-2.4-3.3-1.4-6,2.2c-4.7,6.2-8,16.1-10,30.6c-1.1,7.1-1.6,8.7-3.4,9.4
			C244.7,305.4,163.8,304.2,163.8,303.8L163.8,303.8z M8.9,303.3c-36.9-1.2-41.8,3-38.2-6.7c4.4-15.8,42.5-16.7,54.9-27
			c17.3-12.5-10-16.3-14.1-27.9C1,225.1-0.9,202.3,9.1,183.2c8.8-20.1,30.5-28.2,50.3-29.9c2.5-11.9-20.5-9.9-30.1-12.1
			c-7.8-2.1-11.8-9.3-7.2-16.5c1.8-3.3,2.5-5.1,3.8-9.8c0.4-1.6,0.7-2,1.6-2c7.2,4.1,23.2,11.5,32.6,11.2
			c20.7-0.4,3.2-21.1-8.5-22.3c-23.2-5.9-20.1,9.9-27.5,0.4c-8.3-9.8-12.1-20.1-9.8-25.9c0.7-1.8,1.8-2.4,8.9-3.4
			c17.5-3.4,41.2-8.5,54.9-7.8c10.5,0,11-0.2,13.9-4.3c7.4-6.3,2.4-30.5,8.1-29c2.2,0,5.3,1.4,6.7,3.3c5,3.1,4.4,25.2,6.2,31.9
			c1.8,6.9,2.7,8.3,10.3,15.8c23.8,20.4,16.2,48.7-7.8,63.9c-8.4,8.4-74,25.7-80.9,51.2C26,221.8,52,246.8,76.1,238.3
			c8.3-1.7,21.4-12,9.4-7.4c-26.6,15.2-53-6.3-45.8-32.8c23-37.9,108.2-26.9,109.2-104.3c0-2.7,0.2-5.1,0.4-5.1
			c38.4,41.3,14.3,130.3-50,111.5c-12-3.5-29.1-3.7-33.5,8c-1.5,4.7,1.4,14.1,7.6,14.1c8.6-0.6,13.2-3.9,7.4-11.6
			c-3.1-5.3-5.5-8.1,1.6-8.5c7.6-1.1,12,11,18.8,11.8c3.8,0.9,4.5,2.9,2.4,9.1c-4.9,20.3-44.2,46.3-48.9,72.6
			C52,309.3,36.1,301.4,8.9,303.3L8.9,303.3z M75.6,294c-2.5-1.1-2.4-4.9,0.4-8.1c0.3-4.4,19.5-2.4,21-4.3
			c2.3-6.4-9.1-14.7-7.2-21.9c0-15.1,18.1-9.9,33.9-4.7c12.7,5.1,25,7.1,43.5,7.1c12.8,0.1,14-0.5,8.1,4.9c-9,8-48,0.6-48.2,6.3
			c-3.1,5.2,15,17.6,5.8,20.6c-1.8,0.9-2,0.9-29,1.1C81.6,294.6,76.8,294.6,75.6,294L75.6,294z M370.5,157.3
			c-11.1-3-11.6-8.4-22.3-19.7c-55-72.1-111.1-90.1-195.4-72.2c-9.2,2.4-9.1,1.3,0.5-2.5c74.3-30.2,171.4-8.9,215.7,58.1
			C381,138.2,391.5,157.1,370.5,157.3L370.5,157.3z"/>
	</g>
	<text transform="matrix(1 0 0 1 163.9236 358.4882)" class="st0 st1 st2">Apache Kylin</text>
</g>
</svg>
