<?xml version="1.0" encoding="utf-8"?>
<!-- Generator: Adobe Illustrator 26.0.0, SVG Export Plug-In . SVG Version: 6.00 Build 0)  -->
<svg version="1.1" id="Layer_1" xmlns="http://www.w3.org/2000/svg" xmlns:xlink="http://www.w3.org/1999/xlink" x="0px" y="0px"
	 viewBox="0 0 500 500" style="enable-background:new 0 0 500 500;" xml:space="preserve">
<style type="text/css">
	.st0{fill:#283343;}
	.st1{fill:url(#SVGID_1_);}
</style>
<g>
	<path class="st0" d="M71.3,379.9c-14.5,0-26.2-12-26.2-26.8c0-14.8,11.8-26.8,26.2-26.8c14.5,0,26.2,12,26.2,26.8
		C97.6,367.9,85.8,379.9,71.3,379.9L71.3,379.9z M97.7,383.3c0,2.5,4.2,9.4,9.4,9.4h3.3c1.3,0,2.4-1.1,2.4-2.4v-73.4h0
		c-0.1-1.2-1.1-2.2-2.3-2.2H100c-1.3,0-2.3,1-2.3,2.2h0v6c-6.3-7.8-16.3-11.1-26.4-11.1c-22.8,0-41.3,18.5-41.3,41.3
		s18.5,41.3,41.3,41.3C81.3,394.4,92.3,390.5,97.7,383.3L97.7,383.3z M137.5,372.8c6.9,4.8,14.5,7.1,21.7,7.1c6.9,0,14-3.6,14-9.8
		c0-8.3-15.6-9.6-25.3-12.9c-9.8-3.3-18.2-10.2-18.2-21.3c0-17,15.2-24,29.3-24c9,0,18.2,3,24.2,7.2c2.1,1.6,0.8,3.4,0.8,3.4
		l-5.7,8.2c-0.6,0.9-2,1.7-3.4,0.7c-3.9-2.5-8.2-5-15.9-5c-9.6,0-13.8,4-13.8,8.9c0,5.9,6.8,7.8,14.7,9.8
		c13.8,3.7,28.9,8.2,28.9,25.1c0,15-14,24.3-29.5,24.3c-11.7,0-21.7-3.3-30.1-9.5c-1.7-1.7-0.5-3.4-0.5-3.4l5.7-8.1
		C135.4,371.9,136.8,372.4,137.5,372.8z M266.3,383.3c0,2.5,4.2,9.4,9.4,9.4h3.3c1.3,0,2.4-1.1,2.4-2.4v-73.4h0
		c-0.1-1.2-1.1-2.2-2.3-2.2h-10.4c-1.3,0-2.3,1-2.3,2.2h0v6c-6.3-7.8-16.3-11.1-26.4-11.1c-22.8,0-41.3,18.5-41.3,41.3
		s18.5,41.3,41.3,41.3C250,394.4,260.9,390.5,266.3,383.3L266.3,383.3z M240,379.9c-14.5,0-26.2-12-26.2-26.8
		c0-14.8,11.8-26.8,26.2-26.8c14.5,0,26.2,12,26.2,26.8C266.3,367.9,254.5,379.9,240,379.9z M374.2,385.9l0-38h0
		c0-21.4-13.5-35.9-35.1-35.9c-10.3,0-18.7,5.9-21.7,11.1V323l0,0.1c0-5.2-4.2-8.2-9.4-8.2h-3.3c-1.3,0-2.4,1.1-2.4,2.4v66.3v0v7.1
		h0c0.1,1.2,1.1,2.2,2.3,2.2h10.4c0.2,0,0.3,0,0.5,0c0.1,0,0.1,0,0.2-0.1c0.1,0,0.2,0,0.2-0.1c0.1,0,0.2-0.1,0.3-0.1
		c0,0,0.1,0,0.1-0.1c0.1-0.1,0.2-0.1,0.3-0.2c0,0,0,0,0,0c0.1-0.1,0.2-0.2,0.3-0.3l0,0c0.3-0.4,0.4-0.8,0.4-1.2h0v-43.4
		c0-11.5,9.3-20.8,20.8-20.8s20.8,9.3,20.8,20.8l0,36.3l0,0c0,0,0,0.1,0,0.1v7h0c0.1,1.2,1.1,2.2,2.3,2.2h10.4c0.2,0,0.3,0,0.5,0
		c0.1,0,0.1,0,0.2-0.1c0.1,0,0.2,0,0.3-0.1c0.1,0,0.2-0.1,0.2-0.1c0,0,0.1,0,0.1-0.1c0.1-0.1,0.2-0.1,0.3-0.2c0,0,0,0,0.1-0.1
		c0.1-0.1,0.2-0.2,0.3-0.3c0,0,0,0,0,0c0.3-0.4,0.4-0.8,0.4-1.2c0,0,0,0,0,0h0L374.2,385.9L374.2,385.9z M454.9,383.3
		c0,2.5,4.2,9.4,9.4,9.4h3.3c1.3,0,2.4-1.1,2.4-2.4v-73.4h0c-0.1-1.2-1.1-2.2-2.3-2.2h-10.4c-1.3,0-2.3,1-2.3,2.2h0v6
		c-6.3-7.8-16.3-11.1-26.4-11.1c-22.8,0-41.3,18.5-41.3,41.3s18.5,41.3,41.3,41.3C438.6,394.4,449.5,390.5,454.9,383.3L454.9,383.3z
		 M428.6,379.9c-14.5,0-26.2-12-26.2-26.8c0-14.8,11.8-26.8,26.2-26.8c14.5,0,26.2,12,26.2,26.8
		C454.8,367.9,443.1,379.9,428.6,379.9z"/>
	
		<radialGradient id="SVGID_1_" cx="126.4616" cy="375.2887" r="1.1387" gradientTransform="matrix(96.78 0 0 -89.4543 -11988.2852 33760.8125)" gradientUnits="userSpaceOnUse">
		<stop  offset="0" style="stop-color:#FFB900"/>
		<stop  offset="0.6" style="stop-color:#F95D8F"/>
		<stop  offset="0.9991" style="stop-color:#F95353"/>
	</radialGradient>
	<path class="st1" d="M297.7,187c-20,0-36.2,16.2-36.2,36.2c0,20,16.2,36.2,36.2,36.2c20,0,36.2-16.2,36.2-36.2
		C333.8,203.2,317.6,187,297.7,187L297.7,187z M203.7,187c-20,0-36.2,16.2-36.2,36.2c0,20,16.2,36.2,36.2,36.2
		c20,0,36.2-16.2,36.2-36.2C239.9,203.2,223.7,187,203.7,187L203.7,187z M286.8,141.8c0,20-16.2,36.2-36.2,36.2
		c-20,0-36.2-16.2-36.2-36.2c0-20,16.2-36.2,36.2-36.2C270.6,105.6,286.8,121.8,286.8,141.8L286.8,141.8z"/>
</g>
</svg>
