<?xml version="1.0" encoding="utf-8"?>
<!-- Generator: Adobe Illustrator 26.0.0, SVG Export Plug-In . SVG Version: 6.00 Build 0)  -->
<svg version="1.1" id="Layer_1" xmlns="http://www.w3.org/2000/svg" xmlns:xlink="http://www.w3.org/1999/xlink" x="0px" y="0px"
	 viewBox="0 0 500 500" style="enable-background:new 0 0 500 500;" xml:space="preserve">
<style type="text/css">
	.st0{fill:#EA4E52;}
</style>
<g>
	<path class="st0" d="M343.9,124.8C320.3,72.9,259,50.1,207.3,73.7c-36,16.4-59.4,52-60.3,91.5c-4.7-1.5-9.7-2.1-14.6-2.1
		c-29.7,1.9-52.1,27.5-50.1,57.2c1.7,26.9,23.2,48.4,50.1,50.1h9.3c1.9,0,3.8-0.7,5-2.1l98.9-98.6l0,0l17.7-17.7v22
		c-0.7,3.9,1.9,7.7,5.8,8.3c3.9,0.7,7.7-1.9,8.3-5.8c0.1-0.8,0.1-1.7,0-2.6v-39.2c0-1.9-0.7-3.6-1.9-5c-1.3-1.3-3.4-2.1-5.2-2.1h-39
		c-4,0-7.1,3.2-7.1,7.1c-0.1,3.9,2.8,7,6.7,7.1c0.1,0,0.3,0,0.5,0h22l-31.6,31.3l0,0l-81.6,83h-6.4c-21.8,0-39.5-17.7-39.5-39.5
		s17.7-39.5,39.5-39.5c6.4,0,12.9,1.6,18.7,4.6c3.2,2,7.5,0.9,9.5-2.3c0.8-1.3,1.2-2.8,0.9-4.4c0-2.1,0-5,0-7.9
		c-0.3-48.8,39.4-88.7,88.4-88.7c36.5,0,69.3,22.2,82.8,56.2c1.2,3,4,4.7,7.1,4.6h3.8c32.5,2,57.1,30.1,55,62.5
		c-1.9,29.6-25.4,53.1-55,55H201.5c-3.9-0.7-7.7,1.9-8.3,5.8c-0.7,3.9,1.9,7.7,5.8,8.3c0.8,0.1,1.7,0.1,2.6,0h143.6
		c40.3,0,72.8-32.6,72.8-72.8s-32.6-72.8-72.8-72.8L343.9,124.8z"/>
	<g>
		<path class="st0" d="M63.6,433.6l-4.1-24H41.3l-4.3,24H24.5L44,329.4h13.9l19.3,104.3H63.6z M50.3,353.9l-7.2,44.6h14.4
			L50.3,353.9z"/>
		<path class="st0" d="M106.8,435.5c-12.4,0.9-23.3-8.5-24.2-20.9c0-0.9,0-1.6,0-2.5v-9.6h12.8v7.9c0,8.7,4.1,13.9,11.5,13.9
			c6,0.4,11-4,11.5-9.9c0-0.7,0-1.4,0-2.2c-0.5-10.5-5.8-20.2-14.6-26.2c-11.2-8.1-18.4-20.6-20-34.3c-1.1-12.3,7.9-23.3,20.4-24.4
			c0.9,0,1.8-0.2,2.9,0c12.1-0.7,22.6,8.5,23.3,20.7c0,0.9,0,1.8,0,2.7v9.9h-12.4v-8.3c0-7.9-3.4-13.5-11.2-13.5
			c-5.2-0.5-10.1,3.2-10.6,8.7c0,0.7,0,1.4,0,2.2c0,10.3,4.1,16.1,16.2,27.1c10.8,7.8,17.7,20,18.2,33.4
			c1.1,12.8-8.5,24.2-21.3,25.3C108.6,435.5,107.7,435.5,106.8,435.5z"/>
		<path class="st0" d="M164.9,435.5c-12.8,0.7-23.8-9.2-24.4-22.2c0-0.9,0-1.8,0-2.9v-57.7c-0.9-12.8,8.7-24,21.7-24.9
			c0.9,0,1.8,0,2.9,0c12.1-0.9,22.7,8.1,23.6,20.2c0.2,1.3,0.2,2.5,0,3.8V366h-11.5v-14.6c0.5-6-4-11.4-9.9-11.9c-0.7,0-1.3,0-2,0
			c-6-0.5-11.2,3.6-11.7,9.6c0,0.7,0,1.3,0,2v61.2c0,6.5,5.2,11.9,11.9,11.9c6.5,0,11.9-5.2,11.9-11.9v-14.8h11.5v14.4
			c0.9,12.1-8.1,22.7-20.2,23.6C167,435.6,165.9,435.6,164.9,435.5z"/>
		<path class="st0" d="M200,433.6V329.4h40.8v11.9h-28v32.5h20.2v11.5h-20.2v36.4h28v12.1H200V433.6z"/>
		<path class="st0" d="M292.6,433.6L271,381.9l-6.9-18.2v69.5h-12.4V329.4h11.2l20.6,52.5l6.3,18.2v-70.7h12.4v104.3L292.6,433.6
			L292.6,433.6z"/>
		<path class="st0" d="M340.8,433.6h-24.9V329.4h24.9c16.4,0,23.3,10.3,23.3,25.4v53.8C364.1,423.5,357.2,433.6,340.8,433.6z
			 M351.2,355c0-8.7-3.2-13.4-11.2-13.4h-11.2v79.8h11.2c7.8,0,11.2-4.5,11.2-13.2V355z"/>
		<path class="st0" d="M375.6,433.6V417h11.2v16.6H375.6z"/>
		<path class="st0" d="M400.3,433.6V329.4h13.2v104.3H400.3z"/>
		<path class="st0" d="M451,435.5c-12.8,0.7-24-9-24.7-21.8c0-1.3,0-2.5,0-3.8v-55.9c-1.1-13.5,8.8-25.4,22.4-26.7
			c13.5-1.1,25.4,8.8,26.7,22.4c0.2,1.4,0.2,2.9,0,4.1v56.7c0.9,12.8-8.7,24-21.7,24.9C453,435.5,451.9,435.5,451,435.5z
			 M462.6,351.9c0.7-6.3-3.8-12.3-10.1-13c-6.3-0.7-12.3,3.8-13,10.1c-0.2,0.9-0.2,2,0,2.9v59.4c-0.7,6.3,3.8,12.3,10.1,13
			s12.3-3.8,13-10.1c0.2-0.9,0.2-2,0-2.9V351.9z"/>
	</g>
</g>
</svg>
