<?xml version="1.0" encoding="utf-8"?>
<!-- Generator: Adobe Illustrator 26.0.0, SVG Export Plug-In . SVG Version: 6.00 Build 0)  -->
<svg version="1.1" id="Layer_1" xmlns="http://www.w3.org/2000/svg" xmlns:xlink="http://www.w3.org/1999/xlink" x="0px" y="0px"
	 viewBox="0 0 500 500" style="enable-background:new 0 0 500 500;" xml:space="preserve">
<style type="text/css">
	.st0{fill-rule:evenodd;clip-rule:evenodd;fill:#DBA443;}
	.st1{fill-rule:evenodd;clip-rule:evenodd;fill:#876928;}
	.st2{fill-rule:evenodd;clip-rule:evenodd;}
</style>
<g>
	<g>
		<path class="st0" d="M250.2,352.8c0.5-0.1,1.4-0.7,1.9-0.9c0.7-0.3,1.2-0.6,1.9-1c1.3-0.7,2.5-1.3,3.8-1.9l96.6-48.3
			c0.4-0.2,0.6-0.3,0.9-0.5c0.4-0.2,0.6-0.2,1-0.5l6.8-3.4c0.5-0.2,0.5-0.2,1-0.5l3.9-1.9c0.9-0.4,5.3-2.8,5.8-2.9V133.5l-45.6,91.9
			c-0.4-0.3-2.4-4.1-2.6-4.4l-7.3-13.2c-3.3-5.9-6.5-11.8-9.7-17.7l-7.3-13.3c-0.8-1.5-1.6-2.9-2.4-4.4c-3.3-5.7-6.5-11.9-9.7-17.7
			c-4.9-8.7-9.7-17.9-14.6-26.6c-4.9-8.6-9.7-17.7-14.6-26.5c-0.3-0.6-9.3-17.1-9.8-17.6L250.2,352.8z"/>
		<path class="st1" d="M213.1,117.1l0.1,171.9c0,0.2-0.1,0.2-0.4,0.4h0.3v44.8c0.8,0.5,8.2,4.2,9.2,4.7c3.1,1.5,6.1,3.1,9.3,4.6
			l16.2,8.1c0.6,0.3,1.9,1,2.4,1.2l0-268.7c0.5,0.5,9.5,17.1,9.8,17.6c4.8,8.7,9.7,17.9,14.6,26.5c4.9,8.7,9.7,17.9,14.6,26.6
			c3.3,5.8,6.4,12,9.7,17.7c0.9,1.5,1.6,2.9,2.4,4.4l7.3,13.3c3.3,5.9,6.5,11.8,9.7,17.7l7.3,13.2c0.2,0.3,2.2,4.1,2.6,4.4
			l45.6-91.9c-0.4-0.2-9.9,1.5-10.5,1.6l-10.6,1.8c-0.4,0.4-1.3,2.2-1.6,2.7l-13.8,25c-0.8,1.4-8.9,15.9-9.1,16.6
			c-0.2-0.2,0,0-0.2-0.2c-0.1-0.1-0.1-0.1-0.2-0.2l-0.7-1.4c-0.3-0.6-0.6-1.2-0.9-1.8c-0.6-1.2-1.2-2.4-1.8-3.7l-10.9-22
			c-9.7-19.6-19.6-39.2-29.2-58.7c-2.4-4.9-4.8-9.8-7.3-14.6c-1.2-2.4-2.4-4.9-3.6-7.4l-3.5-7.1c0,0,0,0,0-0.1c0,0,0,0,0-0.1
			c-0.3-0.2-0.3-0.1-1.1,0.3l-5.7,2.5c-4,1.7-8.5,3.8-12.4,5.4c-0.4,0.1-0.8,0.3-1.2,0.5c-0.8,0.4-1.4,0.6-2.2,1l-2.3,1
			c-0.4,0.2-0.7,0.3-1.1,0.5c-0.4,0.2-0.8,0.3-1.2,0.5l-9.1,3.9c0.1,0.7,2.3,4.5,2.9,5.6l1.8,3.4c-0.6,0.1-1.1,0.4-1.6,0.6
			c-0.5,0.2-1.1,0.4-1.6,0.6c-3,1.3-7.9,3.1-11.1,4.4l-11.2,4.5L213.1,117.1z"/>
		<path class="st1" d="M184.9,296.6c-0.4-0.8-0.1-20.5-0.1-23.2v-70c0-31.1,0.2-62.2,0-93.3c-0.4,0.2-1.6,2.3-1.9,2.8l-24.3,38.6
			c-0.1,0.2-0.3,0.5-0.4,0.7l-23.8,37.9c-0.2,0.3-0.3,0.4-0.5,0.7l-4.6,7.3c-0.5,1-3,4.5-3.2,5.2c0.3,0.4,0.6,0.9,0.9,1.4l6.4,10.2
			c2.4,3.7,4.9,8,7.4,11.7c0.3,0.5,0.5,0.9,0.9,1.4l4.6,7.3c0.3,0.5,0.6,0.9,0.9,1.5l2.7,4.3c0.3,0.5,0.6,1,0.9,1.5
			c2.1,3.2,4.3,7.1,6.4,10.2l7.3,11.6c0.7,1,1.2,2,1.8,2.9l3.7,5.9c2.9,4.7,6.4,9.9,9.1,14.6l0.9,1.5c0.3,0.5,0.6,0.9,0.9,1.5
			l3.6,5.6C184.8,296.6,184.6,296.4,184.9,296.6z"/>
		<path class="st0" d="M184.9,296.6c0.2-0.2,2.8-0.8,3.3-0.9l5.2-1.3c2.8-0.8,5.9-1.4,8.8-2.3l10.6-2.7c0.2-0.2,0.3-0.2,0.4-0.4
			l-0.1-171.9c-1.3-0.3-2.3-0.6-3.6-0.9l-10.7-2.8c-0.6-0.2-1.2-0.3-1.7-0.4l-12-3.1c-0.7-0.1-0.3,0-0.4,0.1c0.2,31.1,0,62.2,0,93.3
			v70C184.7,276.1,184.5,295.8,184.9,296.6z"/>
		<path class="st0" d="M352.8,136.9c0.1-0.4,2.1-3.9,2.5-4.6l1.7-3.1c0.2-0.3,0.2-0.5,0.4-0.8c0.2-0.3,0.3-0.4,0.4-0.8
			c0.3-0.6,0.5-1,0.8-1.6l6.8-12.3c0.4-0.7,0.8-1.2,0.8-1.7l-96.3-48c0,0,0,0,0,0.1c0,0,0,0.1,0,0.1l3.5,7.1
			c1.3,2.5,2.4,4.9,3.6,7.4c2.5,4.9,4.9,9.8,7.3,14.6c9.6,19.6,19.5,39.1,29.2,58.7l10.9,22c0.6,1.3,1.2,2.5,1.8,3.7
			c0.3,0.6,0.6,1.2,0.9,1.8l0.7,1.4c0.1,0.2,0.1,0.1,0.2,0.2c0.2,0.2,0,0,0.2,0.2c0.2-0.7,8.3-15.2,9.1-16.6l13.8-25
			C351.4,139.1,352.4,137.2,352.8,136.9z"/>
	</g>
	<path class="st2" d="M36.5,435.3l19.9-51.8H64l21.1,51.8h-7.8l-6-15.7H49.4l-5.6,15.7H36.5L36.5,435.3z M51.4,414h17.7l-5.4-14.4
		c-1.6-4.4-2.9-8-3.7-10.8c-0.7,3.4-1.7,6.7-2.9,10L51.4,414L51.4,414z M89.7,435.3v-37.6h5.7v5.3c1.2-1.8,2.7-3.3,4.7-4.4
		c2-1.1,4.2-1.7,6.7-1.7c2.8,0,5.1,0.6,6.8,1.7c1.8,1.2,3,2.8,3.8,4.8c3-4.4,6.9-6.6,11.6-6.6c3.7,0,6.6,1,8.6,3.1
		c2,2.1,3,5.2,3,9.5v25.8h-6.4v-23.7c0-2.5-0.2-4.4-0.6-5.5c-0.4-1.1-1.2-2-2.3-2.7c-1.1-0.7-2.4-1-3.8-1c-2.7,0-4.9,0.9-6.6,2.6
		c-1.7,1.8-2.6,4.6-2.6,8.4v21.8H112v-24.4c0-2.8-0.5-4.9-1.6-6.4c-1-1.4-2.7-2.1-5.1-2.1c-1.8,0-3.4,0.5-5,1.4
		c-1.5,0.9-2.6,2.3-3.3,4.1c-0.7,1.8-1,4.4-1,7.8v19.5H89.7L89.7,435.3z M174.6,430.6c-2.4,2-4.6,3.4-6.8,4.3
		c-2.2,0.8-4.5,1.2-7,1.2c-4.1,0-7.3-1-9.5-3c-2.2-2-3.3-4.6-3.3-7.7c0-1.8,0.4-3.5,1.3-5c0.8-1.5,1.9-2.7,3.3-3.6
		c1.4-0.9,2.9-1.6,4.6-2.1c1.3-0.3,3.1-0.6,5.7-1c5.1-0.6,8.9-1.3,11.4-2.2c0-0.9,0-1.4,0-1.7c0-2.6-0.6-4.4-1.8-5.5
		c-1.6-1.4-4.1-2.1-7.3-2.1c-3,0-5.2,0.5-6.6,1.6c-1.4,1-2.5,2.9-3.2,5.6l-6.2-0.9c0.6-2.7,1.5-4.8,2.8-6.5c1.3-1.6,3.2-2.9,5.6-3.8
		c2.4-0.9,5.3-1.3,8.5-1.3c3.2,0,5.8,0.4,7.8,1.1c2,0.8,3.5,1.7,4.4,2.8c0.9,1.1,1.6,2.6,2,4.3c0.2,1.1,0.3,3,0.3,5.9v8.4
		c0,5.9,0.1,9.6,0.4,11.2c0.3,1.6,0.8,3.1,1.6,4.5h-6.7C175.2,433.9,174.7,432.4,174.6,430.6L174.6,430.6z M174.1,416.4
		c-2.3,0.9-5.8,1.7-10.4,2.4c-2.6,0.4-4.5,0.8-5.6,1.3c-1.1,0.5-1.9,1.2-2.5,2.1c-0.6,0.9-0.9,1.9-0.9,3c0,1.7,0.6,3.1,1.9,4.2
		s3.2,1.7,5.6,1.7c2.4,0,4.6-0.5,6.6-1.6c1.9-1.1,3.3-2.5,4.2-4.4c0.7-1.4,1-3.5,1-6.3L174.1,416.4L174.1,416.4z M186.9,435.3v-5.2
		l23.8-27.5c-2.7,0.1-5.1,0.2-7.1,0.2h-15.2v-5.1H219v4.2l-20.4,23.8l-3.9,4.4c2.9-0.2,5.5-0.4,8-0.4h17.4v5.5H186.9L186.9,435.3z
		 M224.1,416.5c0-6.9,1.9-12.1,5.8-15.4c3.2-2.8,7.2-4.2,11.8-4.2c5.2,0,9.4,1.7,12.7,5.1c3.3,3.4,4.9,8,4.9,14
		c0,4.8-0.7,8.6-2.2,11.4c-1.4,2.8-3.6,4.9-6.3,6.4c-2.8,1.5-5.8,2.3-9.1,2.3c-5.3,0-9.5-1.7-12.8-5
		C225.7,427.7,224.1,422.8,224.1,416.5L224.1,416.5z M230.6,416.5c0,4.8,1,8.4,3.1,10.8c2.1,2.4,4.8,3.6,8,3.6
		c3.2,0,5.8-1.2,7.9-3.6c2.1-2.4,3.1-6.1,3.1-11c0-4.6-1.1-8.1-3.2-10.5c-2.1-2.4-4.7-3.6-7.9-3.6c-3.2,0-5.8,1.2-8,3.6
		C231.7,408.1,230.6,411.7,230.6,416.5L230.6,416.5z M266.8,435.3v-37.6h5.7v5.3c2.8-4.1,6.7-6.1,11.9-6.1c2.3,0,4.3,0.4,6.2,1.2
		c1.9,0.8,3.3,1.9,4.3,3.2c0.9,1.3,1.6,2.9,2,4.7c0.2,1.2,0.3,3.2,0.3,6.2v23.1h-6.4v-22.8c0-2.6-0.2-4.5-0.7-5.8
		c-0.5-1.3-1.4-2.3-2.6-3.1c-1.3-0.8-2.7-1.1-4.4-1.1c-2.7,0-5,0.9-7,2.6c-2,1.7-2.9,5-2.9,9.8v20.5H266.8L266.8,435.3z
		 M325.7,418.6l6.4-0.6c0.3,2.6,1,4.7,2.1,6.4c1.1,1.7,2.9,3,5.2,4.1c2.4,1,5,1.5,8,1.5c2.6,0,4.9-0.4,6.9-1.2
		c2-0.8,3.5-1.9,4.5-3.2c1-1.4,1.5-2.8,1.5-4.4c0-1.6-0.5-3-1.4-4.2c-0.9-1.2-2.5-2.2-4.7-3.1c-1.4-0.5-4.5-1.4-9.2-2.5
		c-4.8-1.1-8.1-2.2-10-3.2c-2.5-1.3-4.3-2.9-5.5-4.8c-1.2-1.9-1.8-4.1-1.8-6.5c0-2.6,0.7-5.1,2.2-7.3c1.5-2.3,3.6-4,6.5-5.2
		c2.8-1.2,6-1.8,9.5-1.8c3.8,0,7.2,0.6,10.2,1.9c2.9,1.2,5.2,3.1,6.8,5.5c1.6,2.4,2.4,5.1,2.5,8.2l-6.6,0.5
		c-0.4-3.3-1.5-5.7-3.6-7.4c-2-1.7-5.1-2.5-9-2.5c-4.2,0-7.2,0.8-9.1,2.3c-1.9,1.5-2.8,3.4-2.8,5.5c0,1.9,0.7,3.4,2,4.6
		c1.3,1.2,4.8,2.4,10.3,3.7c5.6,1.3,9.4,2.4,11.5,3.3c3,1.4,5.2,3.1,6.7,5.3c1.4,2.1,2.1,4.6,2.1,7.3c0,2.8-0.8,5.3-2.4,7.8
		c-1.6,2.4-3.8,4.3-6.8,5.7c-3,1.4-6.3,2-10,2c-4.7,0-8.6-0.7-11.8-2.1c-3.2-1.4-5.6-3.4-7.4-6.2
		C326.7,425.2,325.8,422.1,325.7,418.6L325.7,418.6z M376.4,435.3v-51.8h37.4v6.1h-30.6v15.9h28.6v6.1h-28.6v17.7H415v6.1H376.4
		L376.4,435.3z M422.3,418.6l6.4-0.6c0.3,2.6,1,4.7,2.1,6.4c1.1,1.7,2.9,3,5.2,4.1c2.4,1,5,1.5,8,1.5c2.6,0,4.9-0.4,6.9-1.2
		c2-0.8,3.5-1.9,4.5-3.2c1-1.4,1.5-2.8,1.5-4.4c0-1.6-0.5-3-1.4-4.2c-0.9-1.2-2.5-2.2-4.7-3.1c-1.4-0.5-4.5-1.4-9.2-2.5
		c-4.8-1.1-8.1-2.2-10-3.2c-2.5-1.3-4.3-2.9-5.5-4.8c-1.2-1.9-1.8-4.1-1.8-6.5c0-2.6,0.7-5.1,2.2-7.3c1.5-2.3,3.6-4,6.5-5.2
		c2.8-1.2,6-1.8,9.5-1.8c3.8,0,7.2,0.6,10.2,1.9c2.9,1.2,5.2,3.1,6.8,5.5c1.6,2.4,2.4,5.1,2.5,8.2l-6.6,0.5
		c-0.4-3.3-1.5-5.7-3.6-7.4c-2-1.7-5.1-2.5-9-2.5c-4.2,0-7.2,0.8-9.1,2.3c-1.9,1.5-2.8,3.4-2.8,5.5c0,1.9,0.7,3.4,2,4.6
		c1.3,1.2,4.8,2.4,10.3,3.7c5.6,1.3,9.4,2.4,11.5,3.3c3,1.4,5.2,3.1,6.7,5.3c1.4,2.1,2.1,4.6,2.1,7.3c0,2.8-0.8,5.3-2.4,7.8
		c-1.6,2.4-3.8,4.3-6.8,5.7c-3,1.4-6.3,2-10,2c-4.7,0-8.6-0.7-11.8-2.1c-3.2-1.4-5.6-3.4-7.4-6.2
		C423.3,425.2,422.4,422.1,422.3,418.6z"/>
</g>
</svg>
