<?xml version="1.0" encoding="utf-8"?>
<!-- Generator: Adobe Illustrator 26.0.0, SVG Export Plug-In . SVG Version: 6.00 Build 0)  -->
<svg version="1.1" id="Layer_1" xmlns="http://www.w3.org/2000/svg" xmlns:xlink="http://www.w3.org/1999/xlink" x="0px" y="0px"
	 viewBox="0 0 500 500" style="enable-background:new 0 0 500 500;" xml:space="preserve">
<style type="text/css">
	.st0{fill:#E52421;}
	.st1{fill:#FFCC03;}
	.st2{fill:#221F20;}
</style>
<g>
	<g>
		<polygon class="st0" points="115.7,270.8 145.5,270.8 145.5,300.9 115.7,300.9 		"/>
		<path class="st1" d="M324.4,62.2v238.8h-29.8V62.2H324.4z M264.9,62.2v238.8h-29.8V62.2H264.9z M384.3,159.1V204h-29.8v-44.8
			H384.3z M205,62.2v238.8h-29.8V62.2H205z M145.5,62.2v209h-29.8v-209H145.5z"/>
	</g>
	<g>
		<path class="st2" d="M408.1,389.6c2.8,0,5.6,0.3,8.3,0.8c1.9,0.4,3.8,1,5.6,1.8l-1.9,6.5c-1.5-0.8-3.1-1.4-4.7-1.9
			c-2.3-0.8-4.7-1.2-7-1c-2.6-0.1-5,0.4-7.3,1.4c-1.9,1-2.9,2.9-2.7,5.1c0,1,0.3,2,0.9,2.8s1.4,1.5,2.3,2c1,0.6,2.2,1.2,3.3,1.5
			l4,1.2l5.4,1.8c1.7,0.6,3.3,1.5,4.9,2.6c3.2,2.3,5,6,4.7,9.9c0.1,2.3-0.4,4.6-1.5,6.5c-1,1.8-2.4,3.2-4.1,4.4
			c-1.8,1.2-3.7,2-5.8,2.6c-2.3,0.3-4.6,0.4-6.9,0.1c-2,0.1-4,0.1-6,0c-1.5-0.3-2.9-0.5-4.5-0.9c-1.2-0.3-2.3-0.6-3.5-1.2
			c-0.9-0.4-1.8-0.9-2.7-1.4l2.6-6.5c0.6,0.5,1.2,0.9,1.9,1.3c1,0.5,1.9,1,3.1,1.4c1.3,0.5,2.7,0.9,4.1,1.2c1.7,0.3,3.3,0.5,5,0.5
			c2.7,0.1,5.4-0.5,7.7-1.9c1.7-1.3,2.7-3.3,2.6-5.5c0.1-1.8-0.8-3.6-2.2-4.7c-2.3-1.5-4.7-2.7-7.4-3.3l-5.8-1.9
			c-1.8-0.6-3.3-1.4-4.9-2.6c-1.4-1-2.6-2.3-3.5-3.8c-0.9-1.8-1.4-3.8-1.3-5.8c-0.3-3.8,1.5-7.4,4.6-9.7
			C399.2,390.5,403.6,389.3,408.1,389.6z M349.2,390.2v31.2c0,1.5,0.1,3.1,0.6,4.6c0.4,1.2,1,2.2,1.9,2.9c0.8,0.8,1.8,1.3,2.8,1.5
			c1.2,0.3,2.3,0.5,3.5,0.5c3.1,0.1,6-0.8,8.5-2.6c2.3-1.8,4.2-4,5.5-6.5v-31.8h7.9v46.1h-7l-0.8-8.3c-1.3,2.8-3.5,5.1-6.1,6.9
			c-3.1,1.9-6.7,2.8-10.4,2.7c-4,0.1-7.7-1.3-10.6-4c-2.9-3.3-4.4-7.7-4-12.2v-31.2H349.2L349.2,390.2z M71.9,372.8
			c2.8,0.8,5.5,1.8,8.1,3.1l-2.4,7.4c-2.3-1.5-4.7-2.7-7.3-3.7c-3.1-1-6.3-1.5-9.6-1.4c-6,0-11.8,2.4-15.8,7
			c-2.2,2.4-3.7,5.3-4.9,8.3c-1.3,3.7-1.9,7.6-1.8,11.4c0,3.7,0.5,7.6,1.7,11.1c1,3.1,2.6,5.8,4.6,8.2c1.9,2.2,4.4,4,7,5.1
			c2.9,1.2,6,1.8,9.2,1.8c2.9,0,5.8-0.4,8.5-1.3c2.6-0.9,5.1-2,7.6-3.5l2.3,5.6c-2.3,1.7-4.7,2.9-7.6,3.8c-3.6,1.3-7.4,1.8-11.3,1.8
			c-4.4,0-8.6-0.6-12.5-2.2c-3.7-1.5-7.2-3.7-9.9-6.5c-2.9-2.9-5.3-6.4-6.7-10.2c-3.2-9-3.2-18.8,0-27.8c2.9-7.8,9.3-14,17.3-16.9
			c4.1-1.5,8.5-2.3,12.9-2.2C65,371.5,68.5,371.9,71.9,372.8z M153.3,389.3c2.6,0,5.1,0.3,7.6,0.9c2,0.4,3.8,1.3,5.6,2.3l-2.6,6.9
			c-1.7-1.3-3.5-2.3-5.3-3.1c-1.9-0.8-4.1-1.2-6.1-1c-2,0-4,0.4-5.9,1.2c-1.9,0.8-3.6,1.9-4.9,3.5c-1.4,1.7-2.6,3.6-3.3,5.6
			c-0.9,2.6-1.3,5.3-1.3,7.9c-0.4,4.7,1.3,9.5,4.4,13.2c3.2,3.1,7.6,4.6,12,4.4c3.8-0.1,7.7-1.3,10.9-3.5l1.8,5.8
			c-1.8,1.3-3.8,2.3-5.9,2.9c-2.6,0.9-5.1,1.3-7.8,1.4c-3.1,0-6.3-0.5-9.2-1.7c-2.8-1-5.4-2.7-7.4-4.7c-2.2-2.2-3.8-4.7-5-7.6
			c-2.4-6.5-2.4-13.7,0-20.2c1.2-2.8,2.8-5.4,5.1-7.6c2.2-2.2,4.9-3.8,7.8-4.9C146.9,389.8,150.1,389.3,153.3,389.3z M308.1,389.3
			c2.9,0,6,0.5,8.7,1.7c2.7,1,5.3,2.7,7.3,4.7c2.2,2.2,3.8,4.7,5,7.6c2.4,6.7,2.4,14,0,20.6c-1,2.8-2.7,5.4-4.7,7.6
			c-2,2-4.6,3.6-7.3,4.7c-2.9,1.2-6,1.7-9.1,1.7c-2.9,0-5.9-0.5-8.7-1.7c-2.7-1-5.1-2.7-7.2-4.7c-2.2-2.2-3.8-4.7-4.9-7.6
			c-2.4-6.7-2.4-14,0-20.6c1.2-2.8,2.8-5.4,4.9-7.6c2-2,4.5-3.6,7.2-4.7C302.2,389.8,305.1,389.3,308.1,389.3z M452.5,389.1
			c2.9,0,5.9,0.5,8.6,1.7c2.4,1,4.6,2.7,6.3,4.9c1.8,2.3,2.9,5,3.3,7.9c0.6,3.6,0.6,7.3,0,10.9h-31.9c0.4,11,5.6,16.5,15.9,16.5
			c2.4,0,4.9-0.4,7.2-1.2c2-0.8,4.1-1.7,5.9-2.9l2.3,5.8c-1.9,1.5-4.2,2.8-6.7,3.5c-2.9,1-6,1.4-9.2,1.4c-6.4,0.4-12.7-2-17.3-6.5
			c-4.2-5-6.4-11.4-6-17.8c0-3.5,0.5-6.8,1.7-10.1c1-2.8,2.6-5.4,4.6-7.6c1.9-2,4.1-3.7,6.7-4.7
			C446.6,389.6,449.6,389.1,452.5,389.1z M97.6,369.7v66.8h-7.9v-66.8H97.6z M184,369.7v66.8h-8.1v-66.8H184z M212.8,390.2
			L193.6,411l20.5,25.7h-9.3L185,412l19.5-21.6h8.3V390.2z M232,372.5v29.2h33.4v-29.2h8.6v64.2h-8.6v-28.4H232v28.3h-8.6v-64H232z
			 M118.7,390.2v46.1h-7.9v-46.1H118.7z M308.1,395.3c-1.8,0-3.6,0.4-5.4,1c-1.8,0.6-3.3,1.8-4.6,3.2c-1.4,1.7-2.6,3.6-3.3,5.6
			c-0.9,2.7-1.3,5.5-1.2,8.3c-0.1,2.8,0.4,5.6,1.2,8.3c0.6,2,1.8,4,3.3,5.6c1.3,1.4,2.8,2.4,4.6,3.2c1.7,0.6,3.6,1,5.4,1
			c1.9,0,3.7-0.4,5.5-1s3.5-1.8,4.7-3.2c1.5-1.7,2.7-3.6,3.3-5.6c0.9-2.7,1.3-5.5,1.3-8.3c0.1-2.8-0.4-5.6-1.3-8.3
			c-0.8-2-1.9-4-3.3-5.6c-1.3-1.4-2.9-2.6-4.7-3.2C311.8,395.6,310,395.3,308.1,395.3z M452.8,394.8c-3.2,0-6.4,1.3-8.6,3.6
			c-2.7,2.9-4.2,6.7-4.6,10.6h23.9c0.6-3.7-0.3-7.7-2.4-10.8C458.9,396,455.8,394.7,452.8,394.8z M118.3,374.7
			c0.9,1,1.4,2.3,1.4,3.6c0,1.3-0.5,2.6-1.4,3.5c-1,0.9-2.3,1.4-3.6,1.4c-1.4,0.1-2.7-0.4-3.7-1.3c-1-0.9-1.5-2.2-1.4-3.6
			c0-1.3,0.4-2.7,1.3-3.6C113,372.8,116.2,372.8,118.3,374.7z"/>
	</g>
</g>
</svg>
