<?xml version="1.0" encoding="utf-8"?>
<!-- Generator: Adobe Illustrator 26.0.0, SVG Export Plug-In . SVG Version: 6.00 Build 0)  -->
<svg version="1.1" id="Layer_1" xmlns="http://www.w3.org/2000/svg" xmlns:xlink="http://www.w3.org/1999/xlink" x="0px" y="0px"
	 viewBox="0 0 500 500" style="enable-background:new 0 0 500 500;" xml:space="preserve">
<style type="text/css">
	.st0{fill:#231F20;}
	.st1{fill:#416BA9;}
	.st2{fill:#74C3D5;}
</style>
<g>
	<g id="XMLID_1_">
		<g>
			<path id="XMLID_00000164513091220642289930000014483866749415931811_" class="st0" d="M45.6,367.1c4.6,0,8.3-1.8,11.2-5.4l6,6.1
				c-4.7,5.3-10.3,8-16.7,8c-6.4,0-11.7-2-15.9-6.1c-4.2-4.1-6.2-9.2-6.2-15.4c0-6.2,2.1-11.3,6.4-15.5c4.2-4.1,9.4-6.2,15.5-6.2
				c6.8,0,12.6,2.6,17.2,7.8l-5.8,6.6c-2.9-3.7-6.6-5.5-11-5.5c-3.5,0-6.5,1.1-9,3.4c-2.5,2.3-3.7,5.4-3.7,9.2c0,3.9,1.2,7,3.5,9.3
				C39.4,365.9,42.2,367.1,45.6,367.1z"/>
			<path id="XMLID_00000028293696081494617330000012353597808573255817_" class="st0" d="M70.1,375.3v-41.7h9.3v33.4h17.8v8.3H70.1z
				"/>
			<path id="XMLID_00000013891924173148843230000005473151364335585943_" class="st0" d="M137.9,369.6c-4.2,4.1-9.4,6.2-15.6,6.2
				c-6.2,0-11.4-2.1-15.6-6.2c-4.2-4.1-6.3-9.2-6.3-15.4c0-6.1,2.1-11.2,6.3-15.4c4.2-4.1,9.4-6.2,15.6-6.2c6.2,0,11.4,2.1,15.6,6.2
				c4.2,4.1,6.3,9.2,6.3,15.4C144.3,360.4,142.1,365.5,137.9,369.6z M134.8,354.3c0-3.7-1.2-6.9-3.6-9.5c-2.4-2.6-5.3-3.9-8.8-3.9
				c-3.5,0-6.4,1.3-8.8,3.9c-2.4,2.6-3.6,5.8-3.6,9.5c0,3.7,1.2,6.9,3.6,9.5c2.4,2.6,5.3,3.9,8.8,3.9c3.5,0,6.4-1.3,8.8-3.9
				C133.6,361.1,134.8,358,134.8,354.3z"/>
			<path id="XMLID_00000177462474302591496100000012161289773959080127_" class="st0" d="M163.2,364.6c1.6,1.9,3.6,2.9,6.3,2.9
				c2.6,0,4.7-1,6.2-2.9c1.5-1.9,2.3-4.6,2.3-7.9v-23h9.3V357c0,6-1.7,10.7-5,13.9c-3.3,3.2-7.6,4.9-12.8,4.9
				c-5.2,0-9.5-1.6-12.9-4.9c-3.4-3.3-5-7.9-5-13.9v-23.3h9.3v23C160.8,360,161.6,362.6,163.2,364.6z"/>
			<path id="XMLID_00000046309893648296447870000013706340680780323212_" class="st0" d="M228.8,339.1c4,3.6,6,8.7,6,15.2
				s-1.9,11.6-5.8,15.4c-3.9,3.8-9.8,5.7-17.7,5.7h-14.3v-41.7h14.7C219.1,333.6,224.8,335.5,228.8,339.1z M222,363.9
				c2.3-2.1,3.4-5.3,3.4-9.4c0-4.1-1.1-7.2-3.4-9.5c-2.3-2.2-5.8-3.3-10.5-3.3h-5.2v25.4h5.9C216.4,367.1,219.7,366,222,363.9z"/>
			<path id="XMLID_00000018194781422618737620000014868502557012831646_" class="st0" d="M287.7,333.6h9.3v41.7h-9.3l-19.9-26.1
				v26.1h-9.3v-41.7h8.7l20.5,26.8V333.6z"/>
			<path id="XMLID_00000001623685703525615320000008035938943202491786_" class="st0" d="M337,375.3l-3.9-9h-17.5l-3.9,9h-9.9
				l18-41.7h9l18,41.7H337z M324.4,346.1l-5.3,12.1h10.4L324.4,346.1z"/>
			<path id="XMLID_00000073686687924004283170000010448356337940103611_" class="st0" d="M366.4,341.7v33.6H357v-33.6h-11.8v-8.1
				h32.9v8.1H366.4z"/>
			<path id="XMLID_00000024000426147187641120000010098862126560033714_" class="st0" d="M385,333.6h9.3v41.7H385V333.6z"/>
			<path id="XMLID_00000144336078514970482310000003826501190963138710_" class="st0" d="M419.9,360.2l10.6-26.5h10.1l-16.8,41.7
				H416l-16.8-41.7h10.1L419.9,360.2z"/>
			<path id="XMLID_00000178205994600597610230000000858819338145433757_" class="st0" d="M475.6,333.6v8.3h-20.8v8.6h18.7v7.9h-18.7
				v8.7h21.4v8.2h-30.7v-41.7H475.6z"/>
			<path id="XMLID_00000025438238910641725030000012221111356068772227_" class="st0" d="M34.9,410.9c2.6,0,4.7-1,6.3-3l3.3,3.4
				c-2.7,3-5.8,4.5-9.4,4.5s-6.6-1.1-8.9-3.4c-2.3-2.3-3.5-5.1-3.5-8.6c0-3.5,1.2-6.4,3.6-8.7c2.4-2.3,5.3-3.5,8.7-3.5
				c3.8,0,7,1.5,9.6,4.4l-3.2,3.7c-1.7-2.1-3.7-3.1-6.2-3.1c-2,0-3.6,0.6-5,1.9c-1.4,1.3-2.1,3-2.1,5.2s0.7,3.9,2,5.2
				C31.4,410.2,33,410.9,34.9,410.9z"/>
			<path id="XMLID_00000072263409372335112430000008153350151654250892_" class="st0" d="M67.8,412.2c-2.4,2.3-5.3,3.5-8.7,3.5
				c-3.5,0-6.4-1.2-8.7-3.5c-2.4-2.3-3.5-5.2-3.5-8.6s1.2-6.3,3.5-8.6c2.4-2.3,5.3-3.5,8.7-3.5c3.5,0,6.4,1.2,8.7,3.5
				c2.4,2.3,3.5,5.2,3.5,8.6S70.2,409.9,67.8,412.2z M66,403.7c0-2.1-0.7-3.9-2-5.3c-1.3-1.5-3-2.2-4.9-2.2c-2,0-3.6,0.7-4.9,2.2
				c-1.3,1.5-2,3.2-2,5.3c0,2.1,0.7,3.9,2,5.3c1.3,1.5,3,2.2,4.9,2.2c2,0,3.6-0.7,4.9-2.2C65.4,407.5,66,405.7,66,403.7z"/>
			<path id="XMLID_00000043444975952846790500000005238785010227283343_" class="st0" d="M96.7,400.8l-6.3,12.8h-3.1L81,400.8v14.7
				h-5.2v-23.4h7.1l6,12.8l6.1-12.8h7v23.4h-5.2V400.8z"/>
			<path id="XMLID_00000148635701932713676860000018386925808113422262_" class="st0" d="M123.8,394.2c1.6,1.4,2.5,3.5,2.5,6.4
				c0,2.9-0.8,5-2.5,6.3c-1.7,1.3-4.3,2-7.7,2h-3.1v6.5h-5.2v-23.4h8.3C119.5,392.1,122.1,392.8,123.8,394.2z M119.9,403.4
				c0.6-0.7,0.9-1.7,0.9-3.1c0-1.3-0.4-2.3-1.2-2.9c-0.8-0.6-2.1-0.9-3.8-0.9h-3v7.9h3.5C118.1,404.4,119.3,404.1,119.9,403.4z"/>
			<path id="XMLID_00000155111771238346530970000013606162733320475778_" class="st0" d="M136.5,409.4c0.9,1.1,2,1.6,3.5,1.6
				s2.6-0.5,3.5-1.6c0.9-1.1,1.3-2.6,1.3-4.4v-12.9h5.2v13.1c0,3.4-0.9,6-2.8,7.8c-1.9,1.8-4.3,2.7-7.2,2.7s-5.3-0.9-7.2-2.7
				c-1.9-1.8-2.8-4.4-2.8-7.8v-13.1h5.2V405C135.2,406.9,135.6,408.4,136.5,409.4z"/>
			<path id="XMLID_00000016044542488122268210000006751882525748449182_" class="st0" d="M165.3,396.6v18.9h-5.2v-18.9h-6.6v-4.5
				H172v4.5H165.3z"/>
			<path id="XMLID_00000022542399313544676640000014872682601355385479_" class="st0" d="M175.8,392.1h5.2v23.4h-5.2V392.1z"/>
			<path id="XMLID_00000146491820606233410360000003440514879785253283_" class="st0" d="M203.1,392.1h5.2v23.4h-5.2l-11.1-14.6
				v14.6h-5.2v-23.4h4.9l11.5,15V392.1z"/>
			<path id="XMLID_00000057122802631333948120000000057286436667508873_" class="st0" d="M229.2,403.6h5.2v8.3
				c-2.3,2.6-5.5,3.9-9.6,3.9c-3.4,0-6.3-1.1-8.6-3.4c-2.3-2.3-3.5-5.1-3.5-8.6c0-3.5,1.2-6.4,3.6-8.7c2.4-2.3,5.2-3.5,8.6-3.5
				c3.4,0,6.3,1.1,8.7,3.3l-2.7,3.9c-1-0.9-2-1.5-2.9-1.9c-0.9-0.3-1.8-0.5-2.9-0.5c-2,0-3.7,0.7-5,2c-1.4,1.4-2,3.1-2,5.3
				c0,2.2,0.7,4,2,5.3c1.3,1.3,2.9,2,4.7,2c1.8,0,3.3-0.3,4.5-1V403.6z"/>
			<path id="XMLID_00000140008555104521679500000011365814596705547950_" class="st0" d="M264,392.1v4.6h-10.8v5h10.3v4.6h-10.3v9.2
				H248v-23.4H264z"/>
			<path id="XMLID_00000015325838853265951900000012416553447011303827_" class="st0" d="M288.1,412.2c-2.4,2.3-5.3,3.5-8.7,3.5
				c-3.5,0-6.4-1.2-8.7-3.5c-2.4-2.3-3.5-5.2-3.5-8.6s1.2-6.3,3.5-8.6c2.4-2.3,5.3-3.5,8.7-3.5c3.5,0,6.4,1.2,8.7,3.5
				c2.4,2.3,3.5,5.2,3.5,8.6S290.5,409.9,288.1,412.2z M286.3,403.7c0-2.1-0.7-3.9-2-5.3c-1.3-1.5-3-2.2-4.9-2.2
				c-2,0-3.6,0.7-4.9,2.2c-1.3,1.5-2,3.2-2,5.3c0,2.1,0.7,3.9,2,5.3c1.3,1.5,3,2.2,4.9,2.2c2,0,3.6-0.7,4.9-2.2
				C285.6,407.5,286.3,405.7,286.3,403.7z"/>
			<path id="XMLID_00000049917921663284952860000013558323685215881348_" class="st0" d="M302.2,409.4c0.9,1.1,2,1.6,3.5,1.6
				c1.5,0,2.6-0.5,3.5-1.6c0.9-1.1,1.3-2.6,1.3-4.4v-12.9h5.2v13.1c0,3.4-0.9,6-2.8,7.8c-1.9,1.8-4.3,2.7-7.2,2.7
				c-2.9,0-5.3-0.9-7.2-2.7c-1.9-1.8-2.8-4.4-2.8-7.8v-13.1h5.2V405C300.9,406.9,301.4,408.4,302.2,409.4z"/>
			<path id="XMLID_00000151530524112129278360000003060025855188366220_" class="st0" d="M337.5,392.1h5.2v23.4h-5.2l-11.1-14.6
				v14.6h-5.2v-23.4h4.9l11.5,15V392.1z"/>
			<path id="XMLID_00000061460842399907085910000015950750395178078855_" class="st0" d="M366.3,395.2c2.2,2,3.3,4.9,3.3,8.5
				c0,3.6-1.1,6.5-3.3,8.6c-2.2,2.1-5.5,3.2-9.9,3.2h-8v-23.4h8.3C360.9,392.1,364.1,393.1,366.3,395.2z M362.5,409.1
				c1.3-1.2,1.9-3,1.9-5.2c0-2.3-0.6-4.1-1.9-5.3c-1.3-1.2-3.2-1.9-5.9-1.9h-2.9v14.2h3.3C359.4,410.9,361.2,410.3,362.5,409.1z"/>
			<path id="XMLID_00000121994388874867203320000012329399322542179989_" class="st0" d="M390.2,415.5l-2.2-5h-9.8l-2.2,5h-5.6
				l10.1-23.4h5l10.1,23.4H390.2z M383.1,399.1l-2.9,6.8h5.9L383.1,399.1z"/>
			<path id="XMLID_00000008141996871339187840000016868617160755733658_" class="st0" d="M406.6,396.6v18.9h-5.2v-18.9h-6.6v-4.5
				h18.5v4.5H406.6z"/>
			<path id="XMLID_00000088852584304985321730000013156416076983644548_" class="st0" d="M417.1,392.1h5.2v23.4h-5.2V392.1z"/>
			<path id="XMLID_00000067216743835584916710000005524113442859704719_" class="st0" d="M447.7,412.2c-2.4,2.3-5.3,3.5-8.7,3.5
				c-3.5,0-6.4-1.2-8.7-3.5c-2.4-2.3-3.5-5.2-3.5-8.6s1.2-6.3,3.5-8.6c2.4-2.3,5.3-3.5,8.7-3.5c3.5,0,6.4,1.2,8.7,3.5
				c2.4,2.3,3.5,5.2,3.5,8.6S450.1,409.9,447.7,412.2z M445.9,403.7c0-2.1-0.7-3.9-2-5.3c-1.3-1.5-3-2.2-4.9-2.2
				c-2,0-3.6,0.7-4.9,2.2c-1.3,1.5-2,3.2-2,5.3c0,2.1,0.7,3.9,2,5.3c1.3,1.5,3,2.2,4.9,2.2c2,0,3.6-0.7,4.9-2.2
				C445.3,407.5,445.9,405.7,445.9,403.7z"/>
			<path id="XMLID_00000127014951737645839360000007407508267541317268_" class="st0" d="M472,392.1h5.2v23.4H472l-11.1-14.6v14.6
				h-5.2v-23.4h4.9l11.5,15V392.1z"/>
		</g>
	</g>
	<g id="XMLID_197_">
		<g id="XMLID_392_">
			<polygon id="XMLID_397_" class="st1" points="176.2,222 146.7,222 146.7,290.8 215.6,290.8 215.6,261.3 176.2,261.3 			"/>
			<polygon id="XMLID_395_" class="st1" points="323.8,222.2 323.8,261.3 284.6,261.3 284.4,261.1 284.4,290.8 353.3,290.8 
				353.3,222 323.5,222 			"/>
			<polygon id="XMLID_394_" class="st1" points="146.7,153.1 176.5,153.1 176.2,152.9 176.2,113.8 176.2,113.8 215.4,113.8 
				215.6,114 215.6,84.3 146.7,84.3 			"/>
			<polygon id="XMLID_393_" class="st1" points="284.4,84.3 284.4,113.8 323.8,113.8 323.8,153.1 353.3,153.1 353.3,84.3 			"/>
		</g>
		<g id="XMLID_200_">
			<polygon id="XMLID_391_" class="st2" points="280.8,153.1 241.4,113.8 284.4,113.8 284.4,84.3 215.6,84.3 215.6,114 254.7,153.1 
							"/>
			<polygon id="XMLID_390_" class="st2" points="245.3,222 219.2,222 251.8,254.6 258.6,261.3 245.1,261.3 215.6,261.3 215.6,290.8 
				284.4,290.8 284.4,261.1 264.9,241.5 			"/>
			<polygon id="XMLID_389_" class="st2" points="323.8,153.1 323.8,182.6 323.8,196.1 317,189.4 284.4,156.8 284.4,182.8 304,202.4 
				323.5,222 353.3,222 353.3,153.1 			"/>
			<polygon id="XMLID_388_" class="st2" points="215.6,192.2 176.5,153.1 146.7,153.1 146.7,222 176.2,222 176.2,179 215.6,218.3 
							"/>
		</g>
	</g>
</g>
</svg>
