<?xml version="1.0" encoding="utf-8"?>
<!-- Generator: Adobe Illustrator 26.0.0, SVG Export Plug-In . SVG Version: 6.00 Build 0)  -->
<svg version="1.1" id="Layer_1" xmlns="http://www.w3.org/2000/svg" xmlns:xlink="http://www.w3.org/1999/xlink" x="0px" y="0px"
	 viewBox="0 0 500 500" style="enable-background:new 0 0 500 500;" xml:space="preserve">
<style type="text/css">
	.st0{fill:#151F34;}
	.st1{fill:#348540;}
	.st2{fill:#7DBC42;}
</style>
<g>
	<g>
		<path class="st0" d="M285.6,142.6c-11.7,2.7-23.6,4.1-35.6,4.1c-12,0-23.9-1.3-35.6-4.1c9.5-15.1,21.6-28.5,35.6-39.7
			C264.1,114.1,276.1,127.5,285.6,142.6z M393,55.4c-14.6-3.9-29.6-5.8-44.7-5.8c-34.9,0-69.1,10.3-98.2,29.7
			c-29.1-19.4-63.2-29.8-98.2-29.7c-15.2,0-30.3,1.9-45,5.8c-6.2,1.5-12.2,3.4-18.2,5.7c-0.2,0.3-0.2,0.6,0,0.9
			c2.5,5.4,5.3,10.8,8.4,15.9c0.2,0.2,0.6,0.2,0.8,0c6-2.2,12.1-4,18.4-5.5c40.2-9.1,82.3-2.3,117.5,19.1
			c-15.2,12.9-28.2,28.2-38.3,45.4c-2,3.2-3.8,6.6-5.6,10.1s-2.2,4.6-3.3,7c-1.1,2.4-3.1,7.3-4.5,11
			c-24.6,66.2-7.5,140.8,43.5,189.7c2.6,2.5,5.4,5,8.2,7.4s4.5,3.8,6.8,5.5s6,4.5,9,6.5c0.2,0.2,0.6,0.2,0.8,0c3-2.1,6.1-4.3,9-6.5
			c2.9-2.2,4.6-3.5,6.8-5.5s5.6-4.9,8.2-7.4c34.9-33.4,54.6-79.6,54.6-127.9c0-21.1-3.7-42-11.1-61.8c-1.4-3.8-2.9-7.4-4.6-11.1
			c-1.6-3.7-2.2-4.8-3.3-7c-1.1-2.2-3.5-6.7-5.6-10.1c-10.2-17.2-23.1-32.5-38.3-45.4c35.3-21.3,77.5-28,117.6-18.7
			c6.2,1.5,12.4,3.3,18.4,5.5c0.2,0.2,0.6,0.2,0.8,0c3-5.1,5.7-10.4,8.3-15.8c0.2-0.3,0.2-0.6,0-0.9C405.3,59.1,399.2,57.1,393,55.4
			z"/>
		<path class="st1" d="M310,226.8c0.1,40.3-15.4,79.1-43.1,108.4c-4.8-15.4-7.3-31.4-7.3-47.5c-0.1-40.3,15.4-79.1,43.1-108.4
			C307.5,194.7,310,210.7,310,226.8"/>
		<path class="st2" d="M240.8,287.7c0,16.1-2.5,32.1-7.3,47.5c-39.4-41.6-53.1-101.3-35.8-155.9
			C225.5,208.6,240.9,247.4,240.8,287.7"/>
	</g>
	<g>
		<path class="st0" d="M75.3,446.6v-12.7H68l-1,6.4c-0.2,1-0.4,1.2-1.2,1.4c-2.2,0.6-4.6,0.9-6.9,0.9c-8.5,0-13.7-5.9-13.7-18
			c0-11.7,5.6-17.6,14.3-17.6c2.2,0,4.6,0.3,6.1,0.8c0.7,0.2,0.9,0.6,1.1,1.2l1.1,6.7l7.5,0.7V403c-3.8-2.5-9.8-3.9-15.6-3.9
			c-17,0-25.5,10.9-25.5,25.5c0,15.9,6.9,25.8,24,25.8C64.4,450.4,71.2,449.1,75.3,446.6 M97.2,443.2c-4.6,0-7.2-3.3-7.2-11.6
			c0-8.2,3-11.1,7.5-11.1c4.5,0,6.9,2.9,6.9,11C104.5,440.1,101.7,443.2,97.2,443.2z M79.1,432c0,10.8,5.1,18.5,17.6,18.4
			c12.7,0,18.5-7.5,18.5-19.2c0-10.5-4.9-18-17.6-18C85.1,413.1,79.1,420.6,79.1,432L79.1,432z M150.1,447l-2.6-6.4
			c-2,0.9-5.1,2-8.5,2c-4.9,0-8.9-2.5-8.9-11.4c0-8,3.5-10.9,7.6-10.9c1.4,0,2.7,0.2,3.5,0.5c0.6,0.2,0.7,0.6,0.8,1.1l0.8,4.6
			l7.4,0.4v-10.7c-2.2-1.4-6.9-2.9-12.2-2.9c-11,0-18.8,6.2-18.8,19c0,10.5,5.6,18.2,17.9,18.2C142.1,450.4,146.9,449,150.1,447
			 M180,449.7l13.2-0.1v-5.4l-3-0.5c-1.1-0.1-1.6-0.3-2-1.2l-8.8-16.4l4.9-5.1c0.6-0.6,0.9-0.9,1.7-1l3.5-0.7v-5.4h-9.5l-12.5,13.2
			v-29.3h-14.3l-0.7,5.6l3.8,1.3c0.6,0.2,0.9,0.7,0.9,1.4v36.2c0,1-0.1,1.2-1.1,1.4l-3.4,0.5v5.3h20.1v-5.4l-4.1-0.5
			c-1-0.1-1.1-0.3-1.1-1.4v-6.2l3.7-4.1l8.7,17.5 M196.5,449.7l22.5,0.1v-5.5l-6.8-0.6c-1-0.1-1.1-0.3-1.1-1.4v-18.2
			c1-0.9,3.1-2.4,4.9-2.4c0.5,0,0.7,0.1,0.9,0.7l0.7,3.6l8.2,0.3v-12.4c-1.2-0.4-4.3-0.7-5.9-0.7c-4.4,0-7.5,2.7-9.7,6.2h-0.4
			l-0.8-5.5h-12.1l-0.7,5.6l3.7,1.3c0.6,0.2,0.9,0.7,0.9,1.4v20c0,1-0.1,1.2-1.1,1.4l-3.1,0.4L196.5,449.7 M246.9,443.2
			c-4.6,0-7.2-3.3-7.2-11.6c0-8.2,3-11.1,7.5-11.1c4.5,0,6.9,2.9,6.9,11C254.1,440.1,251.4,443.2,246.9,443.2z M228.8,432
			c0,10.8,5.1,18.5,17.6,18.4c12.7,0,18.5-7.5,18.5-19.2c0-10.5-4.9-18-17.6-18C234.7,413.1,228.8,420.6,228.8,432L228.8,432z
			 M288.5,440.6c-1.6,1.2-3.9,2.5-6.2,2.5c-2.2,0-3.9-1-3.9-3.8c0-2.7,1.4-3.8,5.5-4.1l4.6-0.4V440.6z M303.1,449.5v-5.4l-3.3-0.6
			c-1-0.1-1.1-0.3-1.1-1.4v-16.6c0-9.5-4.2-12.4-14.6-12.4c-6.4,0-14.8,1.3-14.8,10.6l9.7,0.8c0-4.1,1.7-4.6,5-4.6
			c4.2,0,4.6,2.2,4.6,5.4v3.8l-7.9,0.6c-8.5,0.6-12.8,3.7-12.8,10.6c0,4.3,1.4,10.1,10,10.1c5.5,0,8.9-2,11.5-4.6l0.4,0.1l0.7,3.7
			L303.1,449.5z M335.5,447l-2.6-6.4c-2,0.9-5.1,2-8.5,2c-4.9,0-8.9-2.5-8.9-11.4c0-8,3.5-10.9,7.6-10.9c1.4,0,2.7,0.2,3.5,0.5
			c0.6,0.2,0.7,0.6,0.8,1.1l0.8,4.6l7.4,0.4v-10.7c-2.2-1.4-6.9-2.9-12.2-2.9c-11,0-18.8,6.2-18.8,19c0,10.5,5.6,18.2,17.9,18.2
			C327.4,450.4,332.3,449,335.5,447 M365.6,449.5h14.9v-5.4l-3.4-0.5c-1-0.1-1.1-0.3-1.1-1.4v-18c0-7.1-2.7-11.1-9.9-11.1
			c-4.3,0-7.9,1.6-11,4.1l-0.4-0.1v-19.4h-14.1l-0.7,5.6l3.8,1.3c0.6,0.2,0.9,0.7,0.9,1.4v36.2c0,1-0.1,1.2-1.1,1.4l-3.1,0.5v5.4
			h18.9V444l-3.3-0.5c-1-0.1-1.1-0.3-1.1-1.4v-18.4c1.7-1.2,4.6-2.5,7.2-2.5c3.4,0,3.6,3.8,3.6,5.9L365.6,449.5"/>
		<g>
			<path class="st1" d="M398.3,412.9h13.5c3,0,5.4,0.2,7,0.7c2.1,0.6,4,1.8,5.5,3.4c1.5,1.6,2.7,3.6,3.5,5.9
				c0.8,2.3,1.2,5.2,1.2,8.6c0,3-0.4,5.6-1.1,7.8c-0.9,2.7-2.2,4.8-3.9,6.5c-1.3,1.2-3,2.2-5.2,2.9c-1.6,0.5-3.8,0.8-6.5,0.8h-13.9
				V412.9z M405.7,419.1v24.2h5.5c2.1,0,3.5-0.1,4.5-0.3c1.2-0.3,2.2-0.8,3-1.5c0.8-0.7,1.4-1.9,1.9-3.5c0.5-1.6,0.7-3.9,0.7-6.7
				s-0.2-5-0.7-6.5c-0.5-1.5-1.2-2.7-2.1-3.5s-2-1.4-3.4-1.7c-1-0.2-3.1-0.3-6.1-0.3H405.7z"/>
			<path class="st1" d="M435.3,412.9h14.6c2.9,0,5.1,0.1,6.5,0.4c1.4,0.2,2.7,0.7,3.8,1.5c1.1,0.8,2.1,1.8,2.8,3.1
				c0.7,1.3,1.1,2.7,1.1,4.3c0,1.7-0.5,3.3-1.4,4.7c-0.9,1.4-2.2,2.5-3.8,3.2c2.2,0.6,3.9,1.8,5.1,3.3c1.2,1.6,1.8,3.4,1.8,5.5
				c0,1.7-0.4,3.3-1.2,4.9c-0.8,1.6-1.8,2.8-3.2,3.8c-1.3,0.9-3,1.5-4.9,1.7c-1.2,0.1-4.2,0.2-8.9,0.2h-12.4V412.9z M442.6,419v8.5
				h4.8c2.9,0,4.7,0,5.4-0.1c1.3-0.1,2.3-0.6,3-1.3c0.7-0.7,1.1-1.7,1.1-2.9c0-1.1-0.3-2-0.9-2.8s-1.5-1.1-2.8-1.3
				c-0.7-0.1-2.8-0.1-6.3-0.1H442.6z M442.6,433.5v9.8h6.8c2.7,0,4.3-0.1,5.1-0.2c1.1-0.2,2-0.7,2.7-1.5c0.7-0.8,1-1.8,1-3.1
				c0-1.1-0.3-2-0.8-2.8c-0.5-0.8-1.3-1.3-2.3-1.7c-1-0.3-3.2-0.5-6.5-0.5H442.6z"/>
		</g>
	</g>
</g>
</svg>
