<?xml version="1.0" encoding="utf-8"?>
<!-- Generator: Adobe Illustrator 26.0.0, SVG Export Plug-In . SVG Version: 6.00 Build 0)  -->
<svg version="1.1" id="Layer_1" xmlns="http://www.w3.org/2000/svg" xmlns:xlink="http://www.w3.org/1999/xlink" x="0px" y="0px"
	 viewBox="0 0 500 500" style="enable-background:new 0 0 500 500;" xml:space="preserve">
<style type="text/css">
	.st0{fill:#55D4F5;}
</style>
<g>
	<polyline id="Fill-1_00000018918566470752901700000004264090785181356722_" class="st0" points="327.6,156.2 327.6,78.5 250,78.5 
		250,156.2 94.5,156.2 94.5,234 172.1,234 172.1,311.6 250,311.6 250,234 405.5,234 405.5,156.2 327.6,156.2 	"/>
	<path d="M64.5,406.9c-1.3,3.3-2.7,6-3.4,6.8c-2.2,3-6.3,7.6-11.8,7.6H37.6c-2.2,0-4.3-0.8-5.9-1.7c-1.8-1.2-5.3-4.8-6.5-6.4
		c-1.1-1.7-1.5-3.8-1.5-5.5v-27c0-2,0.3-3.8,1.5-5.5c1.1-1.4,4.6-5.2,6.6-6.4c1.4-0.8,3.7-1.7,5.9-1.7h11.7c5.4,0,9.5,4.7,11.7,7.5
		c0.8,0.9,2.7,4.7,3.5,6.8l-10.5,2.9c-0.3-0.9-0.4-1.1-0.5-1.3c-1.1-2.3-2-3.9-4.4-5.6H38.3c-0.9,0.7-2.7,2.3-3.5,3.6v26.6
		c0,0.1,1.3,2.1,3.5,3.3h10.9c1-0.7,2.8-2.6,3.6-3.9c0,0,0.7-1.1,1.4-2.8L64.5,406.9 M119.5,379.9c-0.4-0.8-1.5-1.7-2.3-2.2h-15.2
		V390h15.2c0.3,0,1.7-1.3,2.3-2.2V379.9z M121.8,420.9l-13.3-20.4h-6.5v20.4H91.1v-53.6h26c2.3,0,5,0.8,6.8,2.1
		c1.2,0.8,3.8,3.7,4.8,4.9c1.1,1.7,1.7,3.9,1.7,5.9v7.6c0,2.2-0.5,4.1-1.7,5.9c-0.8,1.3-3.4,4-4.8,4.8c-1.7,1-2.5,1.3-3,1.5
		c-0.1,0.1-0.2,0-0.2,0.1c4.3,6.5,9.4,14.3,13.9,20.9L121.8,420.9L121.8,420.9z M178.9,382.9c-2,5.8-4,11.5-6,17.3h12L178.9,382.9z
		 M191.8,420.9l-3.6-10.3h-18.7c-1.2,3.3-2.5,6.9-3.7,10.3h-11.6l18.6-53.6h12l18.4,53.6H191.8L191.8,420.9z M247.1,377.8V421h-11
		v-43.2h-14.4v-10.4h39.8v10.4H247.1 M287.6,420.9v-53.6h35.2v10.4h-24.3v11H322v10.4h-23.5v11.3h24.3v10.4h-35.2 M352.6,420.9h12.6
		v-12.7h-12.6V420.9z M394.4,420.9h11v-53.6h-11V420.9z M465.3,380.8c-0.7-1.1-2.3-2.7-3.3-3.3h-13.6c-0.8,0.5-2.3,1.8-3.3,3.4v26.8
		c1,1.3,2.5,2.8,3.3,3.3h13.6c0.8-0.5,2.3-2.1,3.3-3.3V380.8z M474.8,413.2c-1.2,1.5-4.6,5.3-6.5,6.5c-1.5,0.9-3.8,1.7-5.9,1.7h-14
		c-2.3,0-4.3-0.8-5.9-1.7c-2-1.2-5.4-5-6.5-6.5c-1.2-1.7-1.5-3.7-1.5-5.5v-26.9c0-2,0.3-3.9,1.5-5.6c1.1-1.4,4.6-5.3,6.5-6.4
		c1.5-0.9,3.7-1.7,5.9-1.7h14c2.2,0,4.3,0.8,5.9,1.7c2,1.2,5.3,5,6.5,6.4c1.2,1.7,1.5,3.7,1.5,5.6v26.9
		C476.3,409.5,475.9,411.5,474.8,413.2L474.8,413.2z"/>
</g>
</svg>
