<?xml version="1.0" encoding="utf-8"?>
<!-- Generator: Adobe Illustrator 26.0.0, SVG Export Plug-In . SVG Version: 6.00 Build 0)  -->
<svg version="1.1" id="Layer_1" xmlns="http://www.w3.org/2000/svg" xmlns:xlink="http://www.w3.org/1999/xlink" x="0px" y="0px"
	 viewBox="0 0 500 500" style="enable-background:new 0 0 500 500;" xml:space="preserve">
<style type="text/css">
	.st0{fill-rule:evenodd;clip-rule:evenodd;fill:url(#SVGID_1_);}
	.st1{fill-rule:evenodd;clip-rule:evenodd;fill:url(#SVGID_00000030454931903332459500000011888827122648886203_);}
	.st2{fill-rule:evenodd;clip-rule:evenodd;fill:url(#SVGID_00000007419795172153424680000009176322041885148605_);}
	.st3{fill-rule:evenodd;clip-rule:evenodd;fill:url(#SVGID_00000100343052720684424810000008815742696082975363_);}
	.st4{fill-rule:evenodd;clip-rule:evenodd;fill:#B5E5FF;}
	.st5{fill-rule:evenodd;clip-rule:evenodd;fill:#FFFFFF;}
</style>
<g>
	<g>
		<g>
			
				<radialGradient id="SVGID_1_" cx="370.3401" cy="241.1931" r="59.4044" gradientTransform="matrix(0.5448 -0.8386 0.5765 0.3745 29.5318 461.4153)" gradientUnits="userSpaceOnUse">
				<stop  offset="0" style="stop-color:#2D90BE"/>
				<stop  offset="1" style="stop-color:#5FBEEC"/>
			</radialGradient>
			<path class="st0" d="M359.2,233.3c-13.8-3.6-29.1,9.5-34.2,29.2c-5.1,19.7,2,38.6,15.8,42.1c13.8,3.6,29.1-9.5,34.2-29.2
				C380,255.7,373,236.9,359.2,233.3z"/>
			
				<radialGradient id="SVGID_00000003801579181108103070000006264637280857168058_" cx="318.8618" cy="140.9371" r="129.8856" gradientTransform="matrix(0.8196 0.5729 -0.5587 0.7992 136.2558 -154.3835)" gradientUnits="userSpaceOnUse">
				<stop  offset="0" style="stop-color:#2D90BE"/>
				<stop  offset="1" style="stop-color:#5FBEEC"/>
			</radialGradient>
			<path style="fill-rule:evenodd;clip-rule:evenodd;fill:url(#SVGID_00000003801579181108103070000006264637280857168058_);" d="
				M230,113.8c11.5,0,21.7,5.8,27.9,14.6c9.9-10,22.8-16,36.8-16c31.5,0,57.1,30.4,57.1,67.8c0,16.5-4.9,31.5-13.1,43.3
				c12.9,9,21.4,24,21.4,41.1c0,27.5-22.1,49.9-49.5,49.9c-8.7,0-16.9-2.3-24-6.3c-0.7,0.3-1.4,0.7-2.1,1
				c-4.2,8.5-11.5,15.1-20.5,18.2c-4.5,11.1-15.3,18.9-27.9,18.9c-16.6,0-30.1-13.6-30.1-30.3c0-3.6,0.6-7,1.7-10.1
				c-3.1,1-6.5,1.5-9.9,1.5c-11.1,0-21-5.4-27.2-13.7c-0.2,0-0.3,0-0.5,0c-27.3,0-49.5-22.3-49.5-49.9c0-0.4,0-0.8,0-1.3
				c-4.8-5.3-8.6-12.3-10.7-20.5c-5.2-20.2,2-39.5,16.1-43.1c3.9-1,8-0.7,11.9,0.7c2.6-25.1,23.6-44.7,49.2-44.7
				c3.7,0,7.4,0.4,10.9,1.2C203,123.1,215.4,113.8,230,113.8z"/>
			
				<radialGradient id="SVGID_00000094599808907642519850000009716235016528078015_" cx="131.5374" cy="151.9253" r="10.5314" gradientTransform="matrix(-0.1856 -0.9826 0.9097 -0.1718 17.7452 307.2847)" gradientUnits="userSpaceOnUse">
				<stop  offset="0" style="stop-color:#2D90BE"/>
				<stop  offset="1" style="stop-color:#5FBEEC"/>
			</radialGradient>
			<path style="fill-rule:evenodd;clip-rule:evenodd;fill:url(#SVGID_00000094599808907642519850000009716235016528078015_);" d="
				M126.2,169.4c5.2,0,9.5-4.3,9.5-9.6c0-5.3-4.3-9.6-9.5-9.6c-5.2,0-9.5,4.3-9.5,9.6C116.7,165.1,121,169.4,126.2,169.4z"/>
			
				<radialGradient id="SVGID_00000050621199133256776550000012731591112699267968_" cx="358.4545" cy="212.8573" r="7.782" gradientTransform="matrix(-0.3374 -0.9413 0.8715 -0.3124 293.9072 616.7845)" gradientUnits="userSpaceOnUse">
				<stop  offset="0" style="stop-color:#2D90BE"/>
				<stop  offset="1" style="stop-color:#5FBEEC"/>
			</radialGradient>
			<path style="fill-rule:evenodd;clip-rule:evenodd;fill:url(#SVGID_00000050621199133256776550000012731591112699267968_);" d="
				M355.1,225.1c3.4,0,6.1-2.8,6.1-6.1c0-3.4-2.7-6.1-6.1-6.1c-3.4,0-6.1,2.8-6.1,6.1C349,222.4,351.7,225.1,355.1,225.1z"/>
			<path class="st4" d="M364,153.2c-2.9-36.7-21.8-57.4-63.1-55.8C334.1,102.2,355.8,120,364,153.2z"/>
			<path class="st4" d="M361.1,316.8c31-18,40.3-41.8,19.4-73.9C391.9,271.3,386.4,296.2,361.1,316.8z"/>
			<path class="st4" d="M109.6,246c-1.2,36.8,15.3,59.5,56.4,62.5C133.7,300,114.1,279.8,109.6,246z"/>
		</g>
		<path class="st5" d="M168.8,269.3v-98c0-3.5,2.8-6.3,6.3-6.3h33v0l0.2,0c17.1,0.1,28.7,7.8,36.2,19.2c6.1,9.4,9.2,21.2,9.9,33
			h-12.6c-0.6-9.5-3.1-18.9-7.8-26.1c-5.2-8-13.5-13.4-25.6-13.5l-0.2,0v0h-26.6V263l26-0.2c0.2,0,0.4,0,0.6,0
			c8.5,0,16.6-4.8,22.7-11.9c3.6-4.2,6.5-9.1,8.5-14.3h13.2c-2.3,8.3-6.6,16.2-12.1,22.6c-8.4,9.7-19.9,16.3-32.3,16.3
			c-0.2,0-0.3,0-0.5,0l-32.4,0.3C171.7,275.6,168.9,272.8,168.8,269.3L168.8,269.3L168.8,269.3L168.8,269.3z M231.7,233.2h44.2
			l-38.4,82.4c-1.5,3.2-0.1,6.9,3.1,8.4c3.2,1.5,6.9,0.1,8.4-3.1l42.5-91.2c0.4-0.9,0.7-1.8,0.7-2.9c0-3.5-2.8-6.3-6.3-6.3h-54.1
			c-3.5,0-6.3,2.8-6.3,6.3C225.3,230.4,228.2,233.2,231.7,233.2L231.7,233.2z M251.4,139.8c14.8,4.6,25.4,12.2,31.7,22.6
			c6.4,10.5,8.6,24,6.8,40.4c-0.2,1.7,1.1,3.3,2.8,3.5c1.7,0.2,3.3-1.1,3.5-2.8c2-17.9-0.6-32.7-7.7-44.4
			c-7.2-11.8-18.9-20.3-35.2-25.4c-1.7-0.5-3.4,0.4-4,2.1C248.8,137.5,249.7,139.3,251.4,139.8L251.4,139.8z M247.4,156.3
			c10.3,2.9,17.3,8,21.4,15c4.2,7.1,5.5,16.3,4.4,27.4c-0.2,1.7,1.1,3.3,2.8,3.4c1.7,0.2,3.3-1.1,3.4-2.8
			c1.3-12.4-0.3-22.9-5.2-31.2c-5-8.4-13.2-14.5-25.1-17.9c-1.7-0.5-3.4,0.5-3.9,2.2C244.8,154,245.7,155.8,247.4,156.3L247.4,156.3
			z M244.2,172.2c5,1,8.9,3.5,11.3,7.4c2.4,3.9,3.4,9.4,2.7,16.6c-0.2,1.7,1.1,3.3,2.9,3.4c1.7,0.2,3.3-1.1,3.4-2.9
			c0.8-8.6-0.5-15.3-3.5-20.4c-3.3-5.5-8.6-8.9-15.4-10.3c-1.7-0.3-3.4,0.8-3.7,2.5C241.4,170.2,242.5,171.9,244.2,172.2z"/>
	</g>
	<g>
		<path d="M141.8,402.4v-40.7h5.7l21.1,30h0.2v-30h6.1v40.7h-5.7l-21.1-30H148v30H141.8z"/>
		<path d="M208,393.4c-0.9,5.5-6.3,9.3-13.1,9.3c-8.9,0-14.4-6-14.4-15.6s5.6-15.8,14.1-15.8c8.4,0,13.7,5.8,13.7,15.1v2.1h-21.7
			v0.4c0,5.3,3.3,8.8,8.3,8.8c3.6,0,6.3-1.7,7.2-4.4H208z M186.7,384.3h15.5c-0.1-4.8-3.2-7.9-7.6-7.9
			C190.2,376.4,187,379.6,186.7,384.3z"/>
		<path d="M221.1,364.9v6.9h5.9v4.8h-5.9v17.1c0,2.6,1.2,3.9,3.7,3.9c0.6,0,1.7-0.1,2.1-0.1v4.8c-0.7,0.2-2.1,0.3-3.4,0.3
			c-6.1,0-8.5-2.3-8.5-8.3v-17.7h-4.2v-4.8h4.2v-6.9H221.1z"/>
		<path d="M263.9,402.4h-6.3l-6.5-23.1H251l-6.5,23.1h-6.3l-8.5-30.6h6.1l5.7,24.2h0.1l6.5-24.2h5.9l6.5,24.2h0.1l5.7-24.2h6
			L263.9,402.4z"/>
		<path d="M274.7,387.1c0-9.6,5.7-15.7,14.5-15.7s14.5,6.1,14.5,15.7s-5.6,15.7-14.5,15.7S274.7,396.7,274.7,387.1z M297.4,387.1
			c0-6.7-3.1-10.6-8.3-10.6s-8.3,4-8.3,10.6c0,6.7,3.1,10.6,8.3,10.6S297.4,393.8,297.4,387.1z"/>
		<path d="M308.6,371.8h5.8v5.2h0.1c1-3.4,3.8-5.5,7.4-5.5c0.9,0,1.7,0.1,2.1,0.2v5.7c-0.5-0.2-1.6-0.4-2.8-0.4
			c-4,0-6.6,2.8-6.6,7.1v18.3h-6.1V371.8z"/>
		<path d="M346.9,371.8h7.2L341.3,385l13.2,17.4h-7L337,388.7l-2.6,2.6v11.1h-6.1v-42.5h6.1V385h0L346.9,371.8z"/>
		<path d="M368.3,371.4c6.7,0,11.6,3.8,11.7,9.1h-5.7c-0.3-2.7-2.6-4.4-6.1-4.4c-3.5,0-5.8,1.6-5.8,4c0,1.9,1.5,3.1,4.8,3.9l5.1,1.2
			c6.2,1.5,8.5,3.7,8.5,8.2c0,5.5-5.2,9.2-12.6,9.2c-7.1,0-12-3.7-12.5-9.2h6c0.5,2.9,2.8,4.5,6.7,4.5c3.8,0,6.2-1.6,6.2-4.1
			c0-1.9-1.2-3-4.4-3.8l-5.5-1.4c-5.5-1.4-8.3-4.2-8.3-8.4C356.4,375.1,361.3,371.4,368.3,371.4z"/>
	</g>
</g>
</svg>
