<?xml version="1.0" encoding="utf-8"?>
<!-- Generator: Adobe Illustrator 26.0.0, SVG Export Plug-In . SVG Version: 6.00 Build 0)  -->
<svg version="1.1" id="Layer_1" xmlns="http://www.w3.org/2000/svg" xmlns:xlink="http://www.w3.org/1999/xlink" x="0px" y="0px"
	 viewBox="0 0 500 500" style="enable-background:new 0 0 500 500;" xml:space="preserve">
<style type="text/css">
	.st0{fill-rule:evenodd;clip-rule:evenodd;fill:#5ABDFF;}
	.st1{fill-rule:evenodd;clip-rule:evenodd;fill:#1B76B0;}
</style>
<g>
	<g>
		<polygon class="st0" points="76.8,222 77.3,225.6 95.5,236 96.4,233.1 		"/>
		<polygon class="st0" points="80.1,261 81.3,257.4 95.1,250.5 95.8,253.2 		"/>
		<path class="st1" d="M57.8,244.1c15,0,27.2,12,27.2,26.9c0,14.9-12.2,26.9-27.2,26.9c-15,0-27.2-12-27.2-26.9
			C30.6,256.1,42.8,244.1,57.8,244.1L57.8,244.1z M57.8,249.4c-11.9,0-21.6,9.7-21.6,21.6c0,11.9,9.7,21.6,21.6,21.6
			c11.9,0,21.6-9.7,21.6-21.6C79.4,259,69.7,249.4,57.8,249.4z"/>
		<path class="st1" d="M64.8,207.3c5.4,0,9.8,4.4,9.8,9.8c0,5.4-4.4,9.8-9.8,9.8s-9.8-4.4-9.8-9.8C55,211.7,59.4,207.3,64.8,207.3
			L64.8,207.3z M64.8,202.1c-8.4,0-15.2,6.7-15.2,15s6.8,15,15.2,15s15.2-6.7,15.2-15S73.1,202.1,64.8,202.1z"/>
		<path class="st1" d="M113.9,222.2c12.2,0,22.1,9.8,22.1,21.9c0,12.1-9.9,21.9-22.1,21.9c-12.2,0-22.1-9.8-22.1-21.9
			C91.8,232.1,101.7,222.2,113.9,222.2L113.9,222.2z M113.9,227.4c-9.3,0-16.8,7.5-16.8,16.8c0,9.3,7.5,16.8,16.8,16.8
			c9.3,0,16.8-7.5,16.8-16.8C130.7,234.9,123.2,227.4,113.9,227.4z"/>
	</g>
	<path class="st1" d="M199.5,239c0,3.8-0.5,7.4-1.4,10.8c-0.9,3.4-2.4,6.4-4.3,9.1c-1.9,2.7-4.3,5-7.2,7c-2.8,2-6.2,3.5-10,4.5
		c-2.2,0.6-4.6,1.1-7.1,1.3s-5.3,0.4-8.3,0.4h-14.8v-65.5h15c3,0,5.7,0.1,8.3,0.4c2.5,0.3,4.9,0.7,7.1,1.3c3.8,1.1,7.2,2.6,10,4.5
		c2.9,1.9,5.2,4.2,7.1,6.8c1.9,2.6,3.3,5.6,4.2,8.9C199,231.6,199.5,235.2,199.5,239L199.5,239z M415.6,206.5h1.9h5.9h45.9v7.2
		h-21.9V272h-8v-58.3h-16h-5.9h-1.9h-8.3h-23.5v21.2h28.3v7.2h-28.3v22.7h33.6v7.2h-41.6v-65.5h31.5H415.6L415.6,206.5z M191.6,239
		c0-6.3-1.4-11.4-4.2-15.3c-2.8-3.9-6.8-6.7-11.9-8.3c-2-0.6-4.2-1.1-6.6-1.3c-2.5-0.2-5.2-0.3-8.3-0.3h-6.1v51.1h6.1
		c3.1,0,5.8-0.1,8.3-0.3c2.4-0.2,4.6-0.7,6.6-1.3c5.2-1.6,9.2-4.5,11.9-8.5C190.2,250.5,191.6,245.3,191.6,239L191.6,239z
		 M195.9,272h8.6l7.7-19.7h27.6l7.7,19.7h8.7l-26.7-65.5h-6.9L195.9,272L195.9,272z M226,216.6h0.2c2.8,8,5.6,15.5,8.3,22.2l2.5,6.3
		h-21.9l2.5-6.2C220.2,232.2,223,224.8,226,216.6L226,216.6z M268.1,272h-8v-65.5h18.2c2.7,0,5.2,0.2,7.5,0.5
		c2.3,0.3,4.4,0.8,6.3,1.5c3.9,1.4,6.9,3.5,8.9,6.3c2,2.8,3,6.2,3,10.3c0,3.3-0.7,6.3-2,8.8c-1.3,2.5-3.2,4.6-5.8,6.4
		c-2.5,1.7-5.6,3-9.2,3.8c-3.6,0.9-7.7,1.3-12.2,1.3c-2.2,0-4.4-0.1-6.8-0.3V272L268.1,272z M268.1,237.8c1.1,0.1,2.2,0.2,3.4,0.3
		c1.2,0.1,2.3,0.1,3.3,0.1c3.7,0,6.9-0.3,9.6-0.9c2.6-0.6,4.8-1.4,6.5-2.6c1.7-1.1,2.9-2.5,3.6-4.1c0.8-1.6,1.1-3.5,1.1-5.5
		c0-2.5-0.6-4.6-1.8-6.3c-1.2-1.6-3-2.9-5.2-3.7c-1.4-0.5-3-0.9-4.8-1.1c-1.8-0.2-3.9-0.3-6.4-0.3h-9.2V237.8L268.1,237.8z
		 M346.8,243c4,5.8,8,11.7,11.9,17.8h0.3c-0.4-6.4-0.6-12.9-0.6-19.5v-34.9h8.1V272h-8l-25.7-36.5c-4.4-6.4-8.4-12.3-11.9-17.8h-0.3
		c0.4,6,0.6,12.9,0.6,20.9V272h-8v-65.5h7.9L346.8,243z"/>
</g>
</svg>
