<?xml version="1.0" encoding="utf-8"?>
<!-- Generator: Adobe Illustrator 26.0.0, SVG Export Plug-In . SVG Version: 6.00 Build 0)  -->
<svg version="1.1" id="Layer_1" xmlns="http://www.w3.org/2000/svg" xmlns:xlink="http://www.w3.org/1999/xlink" x="0px" y="0px"
	 viewBox="0 0 500 500" style="enable-background:new 0 0 500 500;" xml:space="preserve">
<style type="text/css">
	.st0{fill-rule:evenodd;clip-rule:evenodd;fill:#632CA6;}
</style>
<g>
	<g>
		<path class="st0" d="M88.5,435.1H64.5v-55.4h24.1c17.3,0,26,8.7,26,26.2C114.5,425.4,105.9,435.1,88.5,435.1 M74.8,426.2H87
			c11.5,0,17.3-6.8,17.3-20.3c0-11.5-5.8-17.3-17.3-17.3H74.8V426.2z M125.3,435.1h-10.6l23.6-55.4h11.1l24.1,55.4h-11.1l-7-15.1
			h-17.8l3.5-8.9h11.5l-9.1-20.8L125.3,435.1z M167.6,379.7h42.1v8.9h-15.9v46.5h-10.3v-46.5h-15.9L167.6,379.7L167.6,379.7z
			 M215,435.1h-10.6l23.6-55.4h11.1l24.1,55.4h-11.1l-7-15.1h-17.8l3.5-8.9h11.5l-9.1-20.8L215,435.1z M294,435.1H270v-55.4H294
			c17.3,0,26,8.7,26,26.2C320,425.4,311.4,435.1,294,435.1 M280.3,426.2h12.2c11.5,0,17.3-6.8,17.3-20.3c0-11.5-5.8-17.3-17.3-17.3
			h-12.2V426.2z M327,407.5c0-18.8,9.3-28.2,27.9-28.2c18.3,0,27.4,9.4,27.4,28.2c0,18.7-9.1,28-27.4,28
			C337.1,435.5,327.8,426.2,327,407.5 M354.9,426.6c11.2,0,16.8-6.4,16.8-19.3c0-12.7-5.6-19-16.8-19c-11.5,0-17.2,6.3-17.2,19
			C337.7,420.1,343.4,426.6,354.9,426.6 M425.2,412.7v13c-2.4,0.6-4.5,0.9-6.4,0.9c-12.6,0-18.9-6.6-18.9-19.9
			c0-12.3,6.7-18.4,20-18.4c5.6,0,10.7,1,15.5,3.1V382c-4.8-1.8-10.2-2.7-16.3-2.7c-19.9,0-29.9,9.1-29.9,27.3
			c0,19.2,9.8,28.9,29.4,28.9c6.7,0,12.3-1,16.8-2.9v-29h-16.6l-3.5,9.1L425.2,412.7L425.2,412.7L425.2,412.7z"/>
	</g>
	<g>
		<path class="st0" d="M342.8,273.4l-24.5-16.1l-20.4,34.1l-23.8-6.9l-20.9,31.9l1.1,10l113.7-21l-6.6-71L342.8,273.4z M236.8,242.8
			l18.2-2.5c2.9,1.3,5,1.8,8.5,2.7c5.5,1.4,11.9,2.8,21.3-1.9c2.2-1.1,6.8-5.3,8.6-7.7l74.7-13.6l7.6,92.3l-128.1,23.1L236.8,242.8z
			 M375.6,209.5l-7.4,1.4L354.1,64.5l-241.5,28l29.8,241.5l28.3-4.1c-2.3-3.2-5.8-7.1-11.8-12.1c-8.3-6.9-5.4-18.7-0.5-26.1
			c6.5-12.5,40-28.5,38.1-48.5c-0.7-7.3-1.8-16.8-8.6-23.3c-0.3,2.7,0.2,5.3,0.2,5.3s-2.8-3.5-4.2-8.4c-1.4-1.9-2.5-2.4-3.9-4.9
			c-1,2.9-0.9,6.2-0.9,6.2s-2.3-5.4-2.6-9.9c-1.3,2-1.7,5.9-1.7,5.9s-2.9-8.5-2.3-13c-1.3-4-5.3-11.8-4.2-29.7
			c7.4,5.2,23.6,3.9,29.9-5.4c2.1-3.1,3.5-11.5-1-28.1c-2.9-10.6-10.2-26.5-13.1-32.5l-0.3,0.2c1.5,4.8,4.6,15,5.8,19.9
			c3.6,14.9,4.5,20.1,2.9,27c-1.4,6-4.9,9.9-13.6,14.3c-8.7,4.4-20.3-6.3-21-6.9c-8.5-6.7-15-17.7-15.7-23.1
			c-0.8-5.8,3.4-9.4,5.5-14.1c-3,0.8-6.3,2.4-6.3,2.4s4-4.1,8.9-7.7c2-1.3,3.2-2.2,5.3-4c-3.1-0.1-5.6,0-5.6,0s5.2-2.8,10.5-4.8
			c-3.9-0.2-7.6,0-7.6,0s11.5-5.1,20.6-8.9c6.2-2.6,12.3-1.8,15.8,3.2c4.5,6.5,9.2,10,19.2,12.2c6.1-2.7,8-4.1,15.7-6.2
			c6.8-7.5,12.1-8.4,12.1-8.4s-2.6,2.4-3.4,6.2c3.9-3,8.1-5.6,8.1-5.6s-1.6,2-3.2,5.2l0.4,0.5c4.5-2.7,9.8-4.8,9.8-4.8
			s-1.5,1.9-3.3,4.4c3.4,0,10.3,0.1,12.9,0.4c15.8,0.3,19-16.8,25.1-19c7.6-2.7,11-4.3,23.9,8.3c11.1,10.9,19.7,30.4,15.4,34.7
			c-3.6,3.6-10.7-1.4-18.6-11.2c-4.2-5.2-7.3-11.3-8.8-19.2c-1.2-6.6-6.1-10.4-6.1-10.4s2.8,6.3,2.8,11.8c0,3,0.4,14.3,5.2,20.6
			c-0.5,0.9-0.7,4.6-1.2,5.3c-5.6-6.8-17.7-11.7-19.7-13.1c6.7,5.5,22,18,27.9,30c5.6,11.4,2.3,21.8,5.1,24.5
			c0.8,0.8,12,14.7,14.1,21.7c3.7,12.2,0.2,25-4.7,32.9l-13.7,2.1c-2-0.6-3.4-0.8-5.1-1.9c1-1.8,3-6.1,3-7l-0.8-1.4
			c-4.3,6-11.4,11.9-17.3,15.3c-7.8,4.4-16.7,3.7-22.5,1.9c-16.5-5.1-32.2-16.3-35.9-19.2c0,0-0.1,2.3,0.6,2.9
			c4.2,4.7,13.7,13.2,22.9,19.1l-19.7,2.2l9.3,72.4c-4.1,0.6-4.8,0.9-9.3,1.5c-4-14.1-11.6-23.2-19.9-28.6
			c-7.3-4.7-17.5-5.8-27.1-3.9l-0.6,0.7c6.7-0.7,14.7,0.3,22.9,5.4c8,5.1,14.5,18.2,16.9,26c3,10.1,5.2,20.9-3,32.3
			c-5.8,8.1-22.9,12.6-36.6,2.9c3.7,5.9,8.6,10.7,15.3,11.6c9.9,1.3,19.3-0.4,25.8-7c5.5-5.7,8.5-17.6,7.7-30.1l8.8-1.3l3.2,22.5
			l145-17.5L375.6,209.5z M287.4,148.4c-0.4,0.9-1,1.5-0.1,4.5l0.1,0.2l0.2,0.4l0.4,0.9c1.7,3.5,3.6,6.8,6.8,8.5
			c0.8-0.1,1.7-0.2,2.5-0.3c3-0.1,4.8,0.3,6,1c0.1-0.6,0.1-1.5,0.1-2.7c-0.2-4.5,0.9-12-7.7-16c-3.2-1.5-7.8-1-9.3,0.8
			c0.3,0,0.5,0.1,0.7,0.2C289.4,146.7,287.8,147.5,287.4,148.4 M311.4,190c-1.1-0.6-6.4-0.4-10.1,0.1c-7,0.8-14.6,3.3-16.3,4.6
			c-3,2.3-1.7,6.4,0.6,8.1c6.3,4.7,11.8,7.8,17.5,7.1c3.6-0.5,6.7-6.1,8.9-11.2C313.6,195.1,313.6,191.3,311.4,190 M249.2,154
			c2-1.9-9.9-4.4-19.1,1.9c-6.8,4.6-7,14.6-0.5,20.2c0.6,0.6,1.2,1,1.7,1.3c1.9-0.9,4.1-1.8,6.5-2.6c4.2-1.4,7.7-2.1,10.6-2.4
			c1.4-1.5,3-4.2,2.6-9.1C250.4,156.5,245.4,157.6,249.2,154"/>
	</g>
</g>
</svg>
