<?xml version="1.0" encoding="utf-8"?>
<!-- Generator: Adobe Illustrator 26.0.0, SVG Export Plug-In . SVG Version: 6.00 Build 0)  -->
<svg version="1.1" id="Layer_1" xmlns="http://www.w3.org/2000/svg" xmlns:xlink="http://www.w3.org/1999/xlink" x="0px" y="0px"
	 viewBox="0 0 500 500" style="enable-background:new 0 0 500 500;" xml:space="preserve">
<style type="text/css">
	.st0{fill:#3F3F3F;}
	.st1{fill:#FF3621;}
</style>
<g>
	<path class="st0" d="M150,403.1v-22.5c0-0.6-0.4-1-1-1h-7.4v-8.8h7.4c0.6,0,1-0.4,1-1v-14.1h10.5v14.1c0,0.6,0.4,1,1,1h10.3v8.8
		h-10.3c-0.6,0-1,0.4-1,1v20c0,9.4,3.3,10.2,7.6,10.2c1.6,0,3.9-0.2,5.3-0.4v9.2c-1.8,0.2-4.7,0.6-8,0.6
		C161.3,419.9,150,419.9,150,403.1z M435.9,408.6l8.6-4.5c1.9,4.5,5.6,7.4,9.9,7.4c3.3,0,7-1.4,7-5.5c0-2.7-1.8-4.3-5.8-5.7l-5.8-2
		c-8.2-2.5-12.3-7.3-12.3-13.9c0-8.4,7-14.7,16.6-14.7c7.6,0,14,4.1,17.1,10.6l-8.6,4.7c-1.9-4.1-5.1-6.5-8.8-6.5
		c-3.7,0-6.2,2-6.2,4.9c0,2.5,1.9,4.5,5.8,5.7l5.8,2c8.6,2.7,12.7,7.4,12.7,13.9c0,10.2-8.8,15.5-17.5,15.5
		C445.7,420.3,438.7,415.8,435.9,408.6z M403.6,399.7c-0.2,0.2-0.4,0.4-0.4,0.6v18.8h-10.7v-69.6h10.7v38c0,0.4,0.2,0.8,0.6,0.8
		c0.4,0.2,0.8,0,1-0.2l17.3-17.6h13.1l-20.3,20.6c-0.4,0.4-0.4,0.8,0,1.2l22,26.8h-13.1L406.9,398c-0.2-0.2-0.4-0.4-0.6-0.4
		s-0.4,0-0.6,0.2L403.6,399.7z M387.2,377.2l-6.8,6.5c-3.9-2.9-7.8-4.3-12.1-4.3c-9,0-15.6,6.7-15.6,15.7c0,9,6.6,15.7,15.6,15.7
		c3.9,0,8-1.4,12.3-4.3l6,6.5c-8.8,6.5-13.4,7.6-19.5,7.6c-7.2,0-13.6-2.5-18.3-7.3c-4.5-4.5-7-11.2-7-18.2
		c0-14.7,10.7-25.5,25.5-25.5C372.2,369.6,379.4,370.3,387.2,377.2z M337,356.2c0,3.5-2.9,6.5-6.4,6.5c-3.5,0-6.4-2.9-6.4-6.5
		s2.9-6.5,6.4-6.5C334.1,349.8,337,352.7,337,356.2z M336,419.1h-10.7v-48.4H336V419.1z M301.9,398v21.4h-10.7v-48.4h10.5v5.9
		c0,0.4,0.2,0.8,0.6,1c0.4,0.2,0.8,0,1-0.4c2.7-4.5,7.8-7.4,13.2-7.4c0.8,0,1.4,0,1.8,0.2v11c-0.6-0.2-1.6-0.2-2.5-0.2
		C307.2,380.7,301.9,387.4,301.9,398z M244.4,395c0-8.8,6.6-15.7,15.2-15.7c8.6,0,15.2,6.9,15.2,15.7c0,8.8-6.6,15.7-15.2,15.7
		C251.1,410.7,244.4,403.9,244.4,395z M245.4,413.5c0.2,0,0.2,0,0.4,0s0.6,0.2,0.8,0.4c3.7,4.3,9.2,6.7,15.4,6.7
		c13.2,0,23.4-11.2,23.4-25.5c0-7.1-2.3-13.3-6.8-18.2c-4.3-4.7-10.3-7.3-16.8-7.3c-6,0-11.7,2.5-15.4,7.1c-0.2,0.2-0.6,0.4-1,0.2
		c-0.4-0.2-0.6-0.4-0.6-0.8v-26.3h-10.7v69.6h10.7v-4.9C244.8,413.8,245,413.7,245.4,413.5z M201,410.7c-8.4,0-15.2-6.9-15.2-15.7
		c0-8.8,6.6-15.7,15.2-15.7c8.6,0,15.2,6.9,15.2,15.7C216.2,403.9,209.4,410.7,201,410.7z M226.1,419.1v-48.4h-10.5v4.9
		c0,0.4-0.2,0.8-0.6,0.8c-0.4,0.2-0.8,0-1-0.2c-3.5-4.3-9-6.7-15.4-6.7c-13.2,0-23.4,11.2-23.4,25.5s10.3,25.5,23.4,25.5
		c6,0,11.7-2.5,15.4-7.1c0.2-0.4,0.6-0.4,1-0.2c0.4,0.2,0.6,0.4,0.6,0.8v5.3h10.5V419.1z M110.8,410.7c-8.4,0-15.2-6.9-15.2-15.7
		c0-8.8,6.6-15.7,15.2-15.7c8.4,0,15.2,6.9,15.2,15.7C126,403.9,119.2,410.7,110.8,410.7z M135.9,419.1v-48.4h-10.5v4.9
		c0,0.4-0.2,0.8-0.6,0.8c-0.4,0.2-0.8,0-1-0.2c-3.5-4.3-9-6.7-15.4-6.7c-13.2,0-23.4,11.2-23.4,25.5s10.3,25.5,23.4,25.5
		c6,0,11.7-2.5,15.4-7.1c0.2-0.4,0.6-0.4,1-0.2c0.4,0.2,0.6,0.4,0.6,0.8v5.3h10.5V419.1z M53.9,410.7c-8.6,0-15.2-6.9-15.2-15.7
		c0-8.8,6.6-15.7,15.2-15.7c8.4,0,15.2,6.9,15.2,15.7C69.1,403.9,62.3,410.7,53.9,410.7z M79.1,419.1v-69.4H68.4v26.1
		c0,0.4-0.2,0.8-0.6,0.8c-0.4,0.2-0.8,0-1-0.2c-3.7-4.3-9.2-6.7-15.4-6.7c-13.2,0-23.4,11.2-23.4,25.5c0,7.1,2.3,13.3,6.8,18.2
		c4.3,4.7,10.3,7.3,16.8,7.3c6,0,11.7-2.5,15.4-7.1c0.2-0.2,0.6-0.4,1-0.2c0.4,0.2,0.6,0.4,0.6,0.8v5.1h10.5V419.1z"/>
	<path class="st1" d="M347.7,177.1l-97.9,55.5l-104.1-59.2l-4.9,2.6v43l109.1,62.1l97.9-55.5v22.8l-97.9,55.5l-104.1-59.2l-4.9,2.6
		v7.3l109.1,62.1l109.4-62.1v-43l-4.9-2.6l-104.5,59.2l-97.6-55.5v-22.5l97.6,55.2l109.4-62.1v-42.3l-5.6-3L249.8,197l-92.3-52.6
		l92.3-52.2l76.2,43l6.9-3.6v-5.3l-83.1-46.9l-109.1,61.8v6.6l109.1,62.1l97.9-55.5V177.1z"/>
</g>
</svg>
