<?xml version="1.0" encoding="utf-8"?>
<!-- Generator: Adobe Illustrator 26.0.0, SVG Export Plug-In . SVG Version: 6.00 Build 0)  -->
<svg version="1.1" id="Layer_1" xmlns="http://www.w3.org/2000/svg" xmlns:xlink="http://www.w3.org/1999/xlink" x="0px" y="0px"
	 viewBox="0 0 500 500" style="enable-background:new 0 0 500 500;" xml:space="preserve">
<style type="text/css">
	.st0{fill:#262A38;}
	.st1{fill:#FF694A;}
</style>
<g>
	<path class="st0" d="M458.5,301.2l-0.9,2.3h-0.3l-0.9-2.3v2.3h-0.5v-3.1h0.7l0.9,2.4l0.9-2.4h0.7v3.1h-0.5V301.2z M455.6,300.9
		h-0.9v2.8h-0.5v-2.8h-0.9v-0.5h2.3V300.9z"/>
	<path class="st0" d="M308.6,196v106.7h-21.7v-10.9c-2.3,3.8-5.6,6.9-9.6,8.9c-4.2,2.1-9,3.3-13.9,3.3c-5.9,0.2-11.8-1.6-16.9-4.9
		c-5-3.5-9-8-11.6-13.5c-2.8-6.4-4.2-13.2-4.2-20.2c-0.2-6.9,1.2-13.7,4.2-20c2.6-5.4,6.4-10.1,11.5-13.2c5-3.3,10.9-4.9,17-4.7
		c4.7,0,9.4,1,13.4,3.1c4,1.9,7.3,4.9,9.6,8.7v-36L308.6,196z M282.6,281.6c2.8-3.6,4.3-9,4.3-16s-1.4-12.2-4.3-15.8
		s-7.6-5.7-12.5-5.7c-4.9-0.3-9.6,1.9-12.5,5.6c-3,3.6-4.5,8.9-4.5,15.6c0,6.9,1.6,12.3,4.5,16.2c3,3.8,7.8,5.9,12.5,5.7
		C275.6,287.3,279.8,285.3,282.6,281.6z"/>
	<path class="st0" d="M385.9,232.1c5,3.3,9,8,11.5,13.2c2.8,6.3,4.2,13,4.2,20c0.2,6.9-1.2,13.9-4.2,20.2
		c-2.6,5.6-6.4,10.2-11.6,13.5c-4.9,3.3-10.9,4.9-16.9,4.9c-4.9,0.2-9.6-1-13.9-3.3c-4-1.9-7.3-5-9.4-8.9v10.9h-21.5v-99.4L346,196
		v43.6c2.1-3.8,5.4-6.9,9.4-8.9c4.2-2.3,8.9-3.5,13.7-3.3C375,227.2,380.9,229,385.9,232.1z M375.2,281.4c3-3.8,4.3-9.2,4.3-16.3
		c0-6.8-1.4-12-4.3-15.6c-3-3.6-7.1-5.6-12.5-5.6c-4.9-0.3-9.6,1.9-12.5,5.7c-3,3.8-4.3,9-4.3,15.8c0,6.9,1.4,12.3,4.3,16
		c3,3.8,7.6,5.9,12.5,5.7C367.7,287.5,372.2,285.3,375.2,281.4z"/>
	<path class="st0" d="M431.8,245.7v28.5c0,4.2,1.2,7.1,3.1,8.9c2.3,1.9,5.2,3,8.3,2.8c2.4,0,4.9-0.3,7.3-1v17
		c-4.2,1.4-8.3,2.1-12.5,1.9c-9,0-16-2.6-20.8-7.6s-7.3-12.3-7.3-21.7v-62.5l21.9-6.9v24.3h18.6v16.3h-18.6V245.7z"/>
	<path class="st1" d="M190.7,178.3c3.6,3.5,6.1,8.2,6.6,13.2c0,2.1-0.5,3.5-1.9,6.3c-1.2,2.6-17,29.9-21.7,37.3
		c-2.6,4.3-4.2,9.6-4.2,14.8s1.4,10.2,4.2,14.8c4.7,7.5,20.3,34.7,21.7,37.5c1.2,2.6,1.9,4,1.9,6.1c-0.5,5-2.8,9.7-6.4,13.2
		c-3.5,3.6-8.2,6.1-13.2,6.4c-2.1,0-3.5-0.5-6.1-1.9c-2.6-1.2-30.2-16.5-37.7-21.2c-0.5-0.3-1.2-0.7-1.9-1l-37-21.9
		c0.9,7.1,4,13.9,9,18.8c1,1,1.9,1.9,3.1,2.6c-0.9,0.3-1.9,0.9-2.6,1.4c-7.5,4.7-34.7,20.3-37.5,21.7c-2.6,1.2-4,1.9-6.3,1.9
		c-5-0.5-9.7-2.8-13.2-6.4c-3.6-3.5-6.1-8.2-6.6-13.2c0.2-2.1,0.7-4.2,1.9-6.1c1.2-2.6,17-30.1,21.7-37.5c2.6-4.3,4.2-9.6,4.2-14.8
		c0-5.2-1.4-10.2-4.2-14.8c-4.7-7.8-20.5-35.1-21.7-37.7c-1.2-1.9-1.7-4-1.9-6.1c0.5-5,2.8-9.7,6.4-13.2c3.5-3.6,8.2-5.9,13.2-6.4
		c2.1,0.2,4.2,0.7,6.3,1.9c2.3,1,22.2,12.5,32.8,18.8l2.4,1.4c0.9,0.5,1.6,1,2.1,1.2l1.2,0.7l37.7,22.4c-0.9-8.5-5.2-16.3-12-21.5
		c0.9-0.3,1.9-0.9,2.6-1.4c7.5-4.7,34.7-20.5,37.5-21.7c1.9-1.2,4-1.7,6.3-1.9C182.5,172.4,187,174.6,190.7,178.3z M121,260.1l8-8
		c1.2-1.2,1.2-2.8,0-4l-8-8c-1.2-1.2-2.8-1.2-4,0l-8,8c-1.2,1.2-1.2,2.8,0,4l8,8C118.1,260.9,120,260.9,121,260.1z"/>
</g>
</svg>
