<?xml version="1.0" encoding="utf-8"?>
<!-- Generator: Adobe Illustrator 26.0.0, SVG Export Plug-In . SVG Version: 6.00 Build 0)  -->
<svg version="1.1" id="Layer_1" xmlns="http://www.w3.org/2000/svg" xmlns:xlink="http://www.w3.org/1999/xlink" x="0px" y="0px"
	 viewBox="0 0 500 500" style="enable-background:new 0 0 500 500;" xml:space="preserve">
<style type="text/css">
	.st0{fill-rule:evenodd;clip-rule:evenodd;fill:#3295F9;}
	.st1{fill-rule:evenodd;clip-rule:evenodd;fill:#FFFFFF;}
</style>
<g>
	<path class="st0" d="M171.3,272.5h7.5c4.1,0,7.2-0.3,9.2-0.8c2.1-0.5,3.8-1.5,5.3-2.8c2.1-1.8,3.6-3.9,4.6-6.6
		c1-2.6,1.5-5.7,1.5-9.1c0-3.5-0.5-6.5-1.5-9.1c-1-2.6-2.6-4.8-4.6-6.6c-1.5-1.3-3.4-2.2-5.5-2.8c-2.1-0.5-5.5-0.8-10.1-0.8h-3.2
		h-3.2V272.5L171.3,272.5z M162.4,280.5v-54.5h11.9c7.8,0,13.2,0.4,16.4,1.2c3.2,0.8,5.9,2.1,8.3,3.9c3.1,2.4,5.5,5.5,7.2,9.3
		c1.6,3.8,2.4,8.1,2.4,12.9c0,4.8-0.8,9.1-2.4,12.9c-1.6,3.7-4,6.8-7.2,9.3c-2.4,1.8-5.1,3.1-8.1,3.9c-3,0.8-7.8,1.2-14.2,1.2h-2.4
		H162.4L162.4,280.5z M217.4,230c0-1.4,0.5-2.5,1.5-3.5c1-1,2.2-1.5,3.6-1.5c1.4,0,2.6,0.5,3.6,1.4c1,1,1.4,2.2,1.4,3.6
		c0,1.4-0.5,2.7-1.4,3.6c-1,1-2.2,1.5-3.6,1.5c-1.4,0-2.6-0.5-3.6-1.5C218,232.6,217.4,231.4,217.4,230L217.4,230z M218.5,280.5
		v-35.3h8.1v35.3H218.5L218.5,280.5z M238.1,280.5v-35.3h7.6v5.8c1.6-2.4,3.5-4.2,5.7-5.3c2.2-1.1,4.8-1.7,8-1.7
		c2.6,0,4.9,0.4,6.7,1.2c1.8,0.8,3.3,2.1,4.3,3.7c0.6,1,1.1,2.1,1.3,3.4c0.3,1.3,0.4,3.5,0.4,6.8v21.4H264v-18.1
		c0-4.6-0.6-7.7-1.7-9.2c-1.1-1.5-3.1-2.3-6-2.3c-1.9,0-3.6,0.3-5,1c-1.5,0.7-2.6,1.7-3.5,2.9c-0.6,0.9-1,1.9-1.2,3.3
		c-0.2,1.3-0.4,3.4-0.4,6.3v16.1H238.1L238.1,280.5z M308.3,262.8c0-3.6-0.9-6.5-2.6-8.5c-1.7-2-4.1-3.1-7.1-3.1
		c-3.1,0-5.5,1.1-7.2,3.1c-1.8,2.1-2.6,5-2.6,8.7c0,3.7,0.8,6.6,2.5,8.7c1.7,2,4.1,3.1,7.1,3.1c2.9,0,5.3-1.1,7.1-3.3
		C307.3,269.3,308.3,266.4,308.3,262.8L308.3,262.8z M316.1,278.3c0,6.9-1.4,11.7-4.1,14.6c-2.8,2.8-7.4,4.2-13.9,4.2
		c-4.9,0-8.7-1-11.6-3.1c-2.9-2-4.4-4.8-4.4-8.2l8.7,0c0.1,1.5,0.8,2.7,2.1,3.5c1.3,0.8,3.1,1.2,5.4,1.2c3.5,0,5.9-0.8,7.4-2.3
		c1.5-1.5,2.3-4.1,2.3-7.6l0.1-4.7c-1.4,2-3.1,3.5-5,4.5c-1.9,1-4.1,1.5-6.6,1.5c-5,0-8.9-1.7-11.8-5.1c-2.9-3.4-4.3-8.1-4.3-14
		c0-5.6,1.5-10.2,4.4-13.6c2.9-3.5,6.8-5.2,11.5-5.2c2.9,0,5.3,0.6,7.4,1.8c2,1.2,3.5,2.9,4.5,5.2v-5.8h8.1V278.3L316.1,278.3z
		 M345.5,233.6v46.9h-8.8v-46.9h-14.5v-7.5h37.7v7.5H345.5L345.5,233.6z M391.5,280.5v-35.3h-8.1v5.8c-0.9-2.2-2.4-4-4.5-5.2
		c-2-1.2-4.5-1.8-7.4-1.8c-4.7,0-8.5,1.7-11.5,5.2c-2.9,3.5-4.4,8-4.4,13.6c0,5.9,1.4,10.6,4.3,14c2.9,3.4,6.8,5.1,11.8,5.1
		c2.5,0,4.7-0.5,6.6-1.5c1.9-1,3.6-2.5,5-4.5v4.6H391.5L391.5,280.5z M383.7,262.8c0,3.6-0.9,6.5-2.7,8.7c-1.8,2.2-4.2,3.3-7.1,3.3
		c-3.1,0-5.5-1-7.1-3.1c-1.7-2-2.5-4.9-2.5-8.7c0-3.7,0.9-6.6,2.6-8.7c1.7-2.1,4.1-3.1,7.2-3.1c3,0,5.4,1,7.1,3.1
		C382.8,256.3,383.7,259.1,383.7,262.8L383.7,262.8z M403,280.5v-57.7h8.1v57.7H403L403,280.5z M422.6,280.5v-57.7h8.1v37l14.8-14.6
		h10l-16,15.6l17.5,19.7h-10.4l-15.9-18.2v18.2H422.6z"/>
	<g>
		<ellipse transform="matrix(0.5847 -0.8112 0.8112 0.5847 -164.6041 178.4563)" class="st0" cx="92" cy="250" rx="49" ry="49"/>
		<path class="st1" d="M69.5,222c-1-0.3-1.5,0.1-1.6,0.7c-0.1,0.6,0.3,4.9,1.2,8c1,3,2.4,5.1,2.6,5.5c0.3,0.4,2.8,1.5,4.7,2.2
			c1.9,0.7,16,5.3,18.4,6.1c-8.3-1.6-12.4-2.5-14.6-3c-2.2-0.5-5.7-1.5-6.6-1.6c-0.9-0.2-2.1-0.2-2.2,0.1c-0.1,0.3,0.3,3.5,1.9,6.1
			c1.7,2.7,3.7,4.6,5.3,5.2c1.6,0.7,16.7,0.4,16.7,0.4s-6.2,0.9-8.3,1.1s-6.2,0.9-6.7,1.1c-0.5,0.2-0.7,1.6-0.1,2.5
			c0.6,0.9,2.2,2.4,3.9,3.7c1.8,1.3,4.1,2.4,5.7,2.4c1.6,0,8.1-2.2,8.1-2.2l-2.1,9h6.1l-3.3,13.9l14.9-20.1l-7.9-0.1
			c0,0,5.1-8.2,6.1-10c1-1.7,3.5-6.4,3.9-7.1c0.3-0.7,0.9-2.6-0.3-4.2c-0.5-0.7-1.6-1.7-3.3-2.5c-2.1-1-3.9-1.8-6.6-2.7
			c-2.7-0.9-5.6-1.7-11-3.9c-5.4-2.1-15.8-6.5-18-7.5C74.2,224.3,69.5,222,69.5,222L69.5,222z"/>
	</g>
</g>
</svg>
