<?xml version="1.0" encoding="utf-8"?>
<!-- Generator: Adobe Illustrator 26.0.0, SVG Export Plug-In . SVG Version: 6.00 Build 0)  -->
<svg version="1.1" id="Layer_1" xmlns="http://www.w3.org/2000/svg" xmlns:xlink="http://www.w3.org/1999/xlink" x="0px" y="0px"
	 viewBox="0 0 500 500" style="enable-background:new 0 0 500 500;" xml:space="preserve">
<style type="text/css">
	.st0{fill:#1C9DF7;}
	.st1{fill:#FFFFFF;}
</style>
<g>
	<g>
		<path class="st0" d="M261.3,364.2h-22.6c-79.4,0-144.4-65-144.4-144.4v-22.6c0-79.4,65-144.4,144.4-144.4h22.6
			c79.4,0,144.4,65,144.4,144.4v22.6C405.7,299.2,340.7,364.2,261.3,364.2z"/>
		<path class="st1" d="M177.9,120c-3.2-1.1-4.8,0.5-5,2.3c-0.2,1.8,0.8,15.8,4,25.6c3.1,9.7,7.6,16.4,8.4,17.8
			c0.8,1.3,8.9,4.8,15.1,7c6.2,2.2,51.2,17,59,19.6c-26.5-5.3-39.7-7.9-46.9-9.6s-18.1-4.7-21.1-5.3c-3-0.6-6.7-0.6-7.1,0.4
			c-0.4,1,0.8,11.2,6.2,19.7c5.4,8.5,11.8,14.7,17,16.8c5.2,2.2,53.6,1.2,53.6,1.2s-20,2.8-26.7,3.5c-6.7,0.7-19.9,3-21.6,3.6
			s-2.2,5-0.2,7.9c2.1,2.9,7,7.6,12.6,12s13.1,7.8,18.2,7.8s25.9-7,25.9-7l-6.7,28.8h19.6l-10.7,44.5l47.9-64.6l-25.4-0.2
			c0,0,16.2-26.5,19.4-32c3.2-5.6,11.3-20.5,12.4-22.9c1.1-2.3,2.9-8.2-0.9-13.5c-1.7-2.3-5.2-5.3-10.6-7.9
			c-6.8-3.3-12.6-5.7-21.2-8.6c-8.6-3-17.9-5.6-35.3-12.4c-17.5-6.8-50.8-20.9-57.8-23.9C193.1,127.3,177.9,120,177.9,120L177.9,120
			z"/>
	</g>
	<g>
		<path d="M155.3,446.2v-54.8h19.4c19.5,0,29.2,8.9,29.2,26.7c0,8.5-2.7,15.4-8,20.5c-5.3,5.1-12.4,7.6-21.2,7.6H155.3z
			 M167.6,401.4v34.8h6.1c5.4,0,9.6-1.6,12.6-4.8c3-3.2,4.6-7.6,4.6-13.1c0-5.2-1.5-9.3-4.5-12.3c-3-3-7.3-4.5-12.7-4.5H167.6z"/>
		<path d="M225.4,446.2H213v-54.8h12.3V446.2z"/>
		<path d="M287.2,446.2h-12.5l-22.6-34.4c-1.3-2-2.2-3.5-2.8-4.5h-0.2c0.2,1.9,0.3,4.9,0.3,8.9v30.1h-11.7v-54.8h13.3l21.8,33.4
			c1,1.5,1.9,3,2.8,4.5h0.2c-0.2-1.3-0.3-3.8-0.3-7.5v-30.3h11.7V446.2z"/>
		<path d="M344.7,442.5c-5.4,3.1-12,4.6-20,4.6c-8.8,0-15.8-2.4-20.9-7.3c-5.1-4.9-7.6-11.6-7.6-20.2c0-8.6,2.8-15.6,8.3-21.1
			c5.6-5.4,12.9-8.1,22.2-8.1c5.8,0,10.9,0.8,15.4,2.4v11.6c-4.2-2.4-9.4-3.7-15.5-3.7c-5.1,0-9.3,1.7-12.5,5
			c-3.2,3.3-4.8,7.8-4.8,13.3c0,5.6,1.4,10,4.3,13.1c2.9,3.1,6.8,4.6,11.7,4.6c3,0,5.3-0.4,7-1.3v-10.7h-11v-9.9h23.3V442.5z"/>
	</g>
</g>
</svg>
