<?xml version="1.0" encoding="utf-8"?>
<!-- Generator: Adobe Illustrator 26.0.0, SVG Export Plug-In . SVG Version: 6.00 Build 0)  -->
<svg version="1.1" id="Layer_1" xmlns="http://www.w3.org/2000/svg" xmlns:xlink="http://www.w3.org/1999/xlink" x="0px" y="0px"
	 viewBox="0 0 500 500" style="enable-background:new 0 0 500 500;" xml:space="preserve">
<style type="text/css">
	.st0{fill:#7289DA;}
</style>
<g>
	<path class="st0" d="M67.8,348.3H39.3v32l18.9,17v-31h10.1c6.4,0,9.6,3.1,9.6,8.1V398c0,5-3,8.3-9.6,8.3H39.3v18.1h28.4
		c15.2,0.1,29.6-7.5,29.6-25v-25.5C97.3,356.1,83,348.3,67.8,348.3L67.8,348.3z M216.8,399.4v-26.2c0-9.4,17-11.6,22.1-2.1l15.7-6.3
		c-6.2-13.5-17.4-17.5-26.7-17.5c-15.2,0-30.3,8.8-30.3,26v26.2c0,17.3,15.1,26,30,26c9.6,0,21.1-4.7,27.4-17l-16.8-7.7
		C234.1,411.2,216.8,408.6,216.8,399.4L216.8,399.4z M165,376.8c-5.9-1.3-9.9-3.4-10.1-7.1c0.3-8.8,14-9.2,21.9-0.7l12.6-9.7
		c-7.9-9.6-16.8-12.2-26-12.2c-14,0-27.5,7.9-27.5,22.8c0,14.5,11.1,22.3,23.4,24.2c6.3,0.9,13.2,3.3,13,7.6
		c-0.5,8.1-17.3,7.7-24.9-1.5l-12.2,11.4c7.1,9.2,16.8,13.8,25.9,13.8c14,0,29.5-8.1,30.1-22.8C192.1,384,178.6,379.3,165,376.8
		L165,376.8z M107.6,424.3h19.2v-76.1h-19.2V424.3z M431.2,348.3h-28.4v32l18.9,17v-31h10.1c6.4,0,9.6,3.1,9.6,8.1V398
		c0,5-3,8.3-9.6,8.3h-29.1v18.1h28.5c15.2,0.1,29.6-7.5,29.6-25v-25.5C460.7,356.1,446.4,348.3,431.2,348.3z M291.6,347.2
		c-15.8,0-31.4,8.6-31.4,26.1v26c0,17.4,15.8,26.1,31.6,26.1c15.8,0,31.4-8.7,31.4-26.1v-26C323.2,355.9,307.4,347.2,291.6,347.2z
		 M304,399.3c0,5.5-6.2,8.3-12.3,8.3c-6.2,0-12.3-2.7-12.3-8.3v-26c0-5.6,6-8.6,12-8.6c6.3,0,12.6,2.7,12.6,8.6V399.3z M392.1,373.4
		c-0.4-17.8-12.6-25-28.3-25h-30.4v76.1h19.4v-24.2h3.4l17.6,24.2h24l-20.7-26.1C386.4,395.4,392.1,387.4,392.1,373.4z M364.2,383.7
		h-11.3v-17.4h11.3C376.3,366.3,376.3,383.7,364.2,383.7z"/>
	<g>
		<path class="st0" d="M334.6,74.5H165.3c-14.3,0-25.9,11.6-25.9,25.9v169.3c0,14.3,11.6,25.9,25.9,25.9h143.3l-6.7-23.1l16.2,14.9
			l15.3,14l27.3,23.6V100.4C360.5,86.2,348.9,74.5,334.6,74.5z M285.8,238.1c0,0-4.5-5.4-8.3-10.1c16.5-4.7,22.9-14.9,22.9-14.9
			c-5.2,3.4-10.1,5.8-14.5,7.5c-6.3,2.7-12.4,4.3-18.3,5.4c-12.1,2.3-23.2,1.6-32.7-0.1c-7.2-1.4-13.4-3.3-18.6-5.4
			c-2.9-1.1-6.1-2.5-9.2-4.3c-0.4-0.2-0.8-0.4-1.1-0.6c-0.3-0.1-0.4-0.3-0.5-0.3c-2.1-1.2-3.4-2-3.5-2.1c0.2,0.4,6.4,10.1,22.1,14.8
			c-3.8,4.8-8.5,10.4-8.5,10.4c-27.9-0.9-38.5-19.1-38.5-19.1c0-40.3,18.2-73,18.2-73c18.2-13.5,35.4-13.1,35.4-13.1l1.3,1.5
			c-22,6.2-32.4,15.8-33.1,16.4c0.3-0.2,3-1.6,7.4-3.5c13.5-5.9,24.3-7.5,28.7-8c0.8-0.1,1.4-0.2,2.1-0.2c7.7-1,16.4-1.3,25.5-0.2
			c12,1.4,24.9,4.9,38,12c0,0-10-9.5-31.5-15.9l1.8-2c0,0,17.3-0.4,35.4,13.1c0,0,18.2,32.7,18.2,73
			C324.3,219.2,313.6,237.3,285.8,238.1z"/>
		<path class="st0" d="M240.5,182.9c0,7.7-5.7,13.9-12.9,13.9c-7.1,0-12.9-6.2-12.9-13.9s5.7-13.9,12.9-13.9
			S240.6,175.1,240.5,182.9z"/>
		<path class="st0" d="M286.6,182.9c0,7.7-5.7,13.9-12.9,13.9c-7.1,0-12.9-6.2-12.9-13.9s5.7-13.9,12.9-13.9
			C280.8,169,286.6,175.1,286.6,182.9z"/>
	</g>
</g>
</svg>
