<?xml version="1.0" encoding="utf-8"?>
<!-- Generator: Adobe Illustrator 26.0.0, SVG Export Plug-In . SVG Version: 6.00 Build 0)  -->
<svg version="1.1" id="Layer_1" xmlns="http://www.w3.org/2000/svg" xmlns:xlink="http://www.w3.org/1999/xlink" x="0px" y="0px"
	 viewBox="0 0 500 500" style="enable-background:new 0 0 500 500;" xml:space="preserve">
<style type="text/css">
	.st0{fill-rule:evenodd;clip-rule:evenodd;fill:#0091E2;}
</style>
<g id="Layer_x0020_1_00000091725706601815845600000005346443752338409861_">
	<g id="_2145659161296_00000049902930252359801170000002528952530059236790_">
		<g>
			<g>
				<path class="st0" d="M94.3,305.7c-3.9-0.1-7,2.9-7.1,6.6c0,0.1,0,0.3,0,0.5v34c-16.4-13.1-40.5-10.6-53.6,5.9
					c-5.4,6.8-8.4,15.2-8.4,23.9c-0.3,21,16.4,38.4,37.5,38.8c21,0.3,38.4-16.4,38.8-37.5c0-0.5,0-0.8,0-1.3v-63.8
					c0-2-0.7-3.8-2.1-5C98,306.4,96.1,305.7,94.3,305.7L94.3,305.7z M85.2,385.7c-2.4,5.8-6.9,10.3-12.6,12.8
					c-6.1,2.5-12.7,2.5-18.7,0c-5.8-2.5-10.2-7.1-12.6-12.7c-2.5-5.9-2.5-12.5,0-18.6c2.5-5.8,7-10.3,12.6-12.6
					c6-2.6,12.6-2.6,18.7,0c5.8,2.5,10.3,7,12.6,12.7C87.8,373.1,87.8,379.9,85.2,385.7z"/>
			</g>
			<g>
				<path class="st0" d="M173.9,349.6c-14.8-14.9-39-14.9-53.9,0c-7.2,7.2-11.1,16.8-11.1,26.9c-0.3,21,16.4,38.4,37.5,38.8
					c21,0.3,38.4-16.4,38.8-37.5c0-0.5,0-0.8,0-1.3c0-5-1-10-2.9-14.6C180.3,357.2,177.5,353.1,173.9,349.6L173.9,349.6z
					 M168.9,385.6c-1.1,2.9-3,5.3-5.1,7.5c-2.2,2.2-4.7,4-7.5,5.1c-6.1,2.6-12.7,2.6-18.7,0c-5.8-2.4-10.3-7.1-12.7-12.6
					c-2.5-5.9-2.5-12.6,0-18.6c2.5-5.8,7-10.2,12.7-12.7c6-2.5,12.6-2.5,18.7,0c2.9,1.2,5.3,3.1,7.5,5.2c2.2,2.1,4,4.7,5.1,7.5
					C171.5,373.1,171.5,379.9,168.9,385.6z"/>
			</g>
			<path class="st0" d="M331.6,345.4c0-0.9-0.3-2-0.6-2.8c-0.4-0.8-1-1.5-1.5-2.3c-0.6-0.6-1.4-1.2-2.4-1.5
				c-0.8-0.4-1.7-0.6-2.7-0.6c-1.3,0-2.7,0.3-3.9,1l-40.7,26.5v-52.9c0-2-0.7-3.7-2.1-5s-3.1-2.2-5-2.2c-3.9,0-7.1,3.1-7.2,7.1
				c0,0,0,0,0,0.1v94.6c0,2,0.7,3.7,2.1,5c1.3,1.4,3.1,2.2,5,2.2s3.7-0.7,5-2.2c1.3-1.3,2.2-3.1,2.1-5v-24.5l8.2-5.4l31.5,35.3
				c1.3,1.2,3,2,4.7,1.8c1,0,2-0.1,2.8-0.6c0.8-0.4,1.5-0.8,2.3-1.5c0.6-0.7,1.2-1.4,1.6-2.3c0.3-0.8,0.5-1.8,0.5-2.8
				c0-1.8-0.7-3.6-1.8-4.9l-29.3-33l28.5-18.5C330.7,349.8,331.7,347.6,331.6,345.4z"/>
			<path class="st0" d="M213.4,359.6c2.2-2.2,4.7-4,7.6-5.2c3.1-1.1,6.2-1.8,9.3-1.8c2.9,0,5.6,0.4,8.3,1.4c2.6,1,5.1,2.5,7.3,4.4
				c1.3,1,3,1.5,4.6,1.5c2,0.1,3.9-0.6,5.2-2.1c1.2-1.3,2-3.2,2-5.1c0-2.1-0.8-4.1-2.5-5.3c-6.9-6.2-15.7-9.5-25-9.2
				c-21,0-38.2,17.1-38.2,38.2s17,38,38,38.2c9.2,0,18.1-3.3,25.1-9.2c1.4-1.3,2.3-3.3,2.3-5.2c0.1-3.9-2.9-7-6.6-7.1
				c-0.1,0-0.4,0-0.5,0c-1.6,0-3.2,0.4-4.5,1.4c-2.2,1.8-4.6,3.3-7.2,4.4c-2.7,0.9-5.5,1.4-8.3,1.4c-3.2,0-6.3-0.6-9.3-2
				c-2.9-1.1-5.3-3-7.6-5.1c-9.3-9.3-9.3-24.4-0.1-33.8C213.4,359.7,213.4,359.7,213.4,359.6z"/>
			<path class="st0" d="M472.9,343.1c-1.4-1.3-3-2.3-4.7-2.9c-2.1-0.7-4.2-1.2-6.4-1.4c-2.2-0.3-4.3-0.4-6.5-0.4
				c-4.3,0-8.7,0.7-12.8,2.3c-4,1.4-7.7,3.6-11.1,6.3v-1.4c-0.1-3.9-3.5-7-7.4-6.8c-3.8,0.1-6.8,3.1-6.9,6.8v62.1
				c0.1,4,3.5,7,7.4,6.9c3.8-0.2,6.8-3.2,6.9-6.9v-31c0-3.2,0.6-6.4,2-9.3c1.1-2.9,2.9-5.3,5.1-7.5c2.2-2.2,4.7-4,7.5-5.1
				c3-1.2,6.2-2,9.3-2c3.3,0,6.4,0.6,9.3,1.6c0.9,0.5,2,0.7,3,0.7c0.9,0,2-0.1,2.8-0.5c0.8-0.4,1.5-0.9,2.3-1.6
				c0.6-0.5,1.2-1.4,1.5-2.3c0.4-0.8,0.6-1.7,0.6-2.8C474.9,346.1,474.2,344.5,472.9,343.1z"/>
			<g>
				<path class="st0" d="M406.8,361.9c-6.2-14.2-20-23.4-35.3-23.5c-21,0-38.1,17-38.2,38.1l0,0c0,21,17.1,38.2,38.2,38.2
					c9.1,0,18-3.3,24.8-9.2c0.2-0.1,0.3-0.2,0.3-0.2c0.6-0.5,1.1-1.1,1.5-1.8c2.3-3.3,1.4-7.7-1.8-10.1c-2.7-1.7-6.3-1.4-8.7,0.9
					c-0.2,0.2-0.9,0.8-0.9,0.9l-0.1,0.1c-2.1,1.6-4.3,3.1-6.9,4c-2.6,0.9-5.3,1.4-8.2,1.2c-2.7,0-5.1-0.3-7.7-1.1
					c-2.4-0.8-4.6-2-6.7-3.5c-2.1-1.4-3.8-3.3-5.2-5.2c-1.5-2.1-2.7-4.5-3.4-6.9h53.9c1.8,0,3.7-0.7,5-2.1c1.4-1.2,2.2-3.1,2.1-5
					C409.6,371.6,408.6,366.5,406.8,361.9L406.8,361.9z M348.5,369.5c0.7-2.5,1.8-4.7,3.4-6.8c1.4-2.1,3.2-3.8,5.2-5.2
					c2.1-1.4,4.3-2.7,6.7-3.5c2.5-0.8,5-1.2,7.6-1.2c2.5,0,5.1,0.4,7.5,1.2c4.8,1.5,9,4.6,12,8.7c1.5,2.1,2.6,4.4,3.5,6.8H348.5z"/>
			</g>
			<g>
				<path class="st0" d="M448.6,404.3c-2.8,0-4.9,2.3-4.9,5c0,2.7,2.3,4.8,5,4.8c2.8,0,4.9-2.3,4.9-4.8
					C453.7,406.5,451.4,404.3,448.6,404.3L448.6,404.3L448.6,404.3z M448.6,413.2c-2.2,0.1-4-1.5-4.1-3.7c-0.1-2.2,1.5-4,3.7-4.1
					c2.2-0.1,4,1.5,4.1,3.7c0,0.1,0,0.1,0,0.3c0.1,2-1.5,3.8-3.6,3.8C448.7,413.2,448.7,413.2,448.6,413.2z"/>
			</g>
			<g>
				<path class="st0" d="M449.8,409.4L449.8,409.4c0.6-0.2,1-0.6,1-1.2c0-0.5-0.1-0.8-0.5-1.1c-0.5-0.2-1-0.3-1.6-0.3s-1.3,0-2,0.1
					v4.9h1.1v-2h0.4c0.6,0,1,0.3,1.1,0.7s0.2,0.8,0.3,1.2h1.2c-0.2-0.4-0.4-0.8-0.4-1.2C450.7,410.1,450.3,409.6,449.8,409.4
					L449.8,409.4z M448.3,408.9h-0.5v-1.4c0.2,0,0.4,0,0.5,0c0.7,0,1.1,0.4,1.1,0.7C449.6,408.7,448.9,409.1,448.3,408.9z"/>
			</g>
		</g>
		<g>
			<path class="st0" d="M383.5,158.6c-0.7-0.6-7.6-5.9-22.2-5.9c-3.8,0-7.7,0.4-11.5,1c-2.8-19.3-18.9-28.6-19.5-29.2l-3.9-2.3
				l-2.6,3.6c-3.1,4.9-5.5,10.5-6.9,16.2c-2.7,11-1,21.4,4.5,30.2c-6.7,3.8-17.6,4.6-19.8,4.8H122.3c-4.7,0-8.5,3.7-8.5,8.4
				c-0.2,15.7,2.5,31.3,7.9,46.1c6.2,16.2,15.4,28.1,27.2,35.5c13.5,8.2,35.3,12.8,60,12.8c11.1,0,22.2-1,33.2-3
				c15.3-2.8,30-8.1,43.4-15.8c11.2-6.5,21.2-14.7,29.6-24.2c14.3-16.1,22.8-34,29-49.9c0.9,0,1.6,0,2.6,0
				c15.5,0,25.1-6.3,30.4-11.5c3.6-3.3,6.2-7.4,8.1-11.9l1.1-3.3L383.5,158.6z"/>
			<path class="st0" d="M138.9,172h24c1.1,0,2.2-0.8,2.2-2.2l0,0v-21.5c0-1.1-0.9-2.2-2.2-2.2l0,0h-24c-1.1,0-2.2,0.9-2.2,2.2l0,0
				v21.5C137,171.1,137.8,172,138.9,172L138.9,172z"/>
			<path class="st0" d="M172.1,172H196c1.1,0,2.2-0.8,2.2-2.2l0,0v-21.5c0-1.1-0.8-2.2-2.2-2.2l0,0h-23.9c-1.1,0-2.2,0.9-2.2,2.2
				v21.5C170.1,171.1,171,172,172.1,172z"/>
			<path class="st0" d="M205.8,172h24c1.1,0,2.2-0.8,2.2-2.2l0,0v-21.5c0-1.1-0.9-2.2-2.2-2.2l0,0h-24c-1.1,0-2.2,0.9-2.2,2.2l0,0
				v21.5C203.6,171.1,204.6,172,205.8,172L205.8,172z"/>
			<path class="st0" d="M239.1,172H263c1.1,0,2.2-0.8,2.2-2.2v-21.5c0-1.1-0.8-2.2-2.2-2.2l0,0h-23.9c-1.1,0-2.2,0.9-2.2,2.2l0,0
				v21.5C236.9,171.1,237.9,172,239.1,172L239.1,172z"/>
			<path class="st0" d="M172.1,141.3H196c1.1,0,2.2-1,2.2-2.2v-21.5c0-1.1-0.8-2.2-2.2-2.2l0,0h-23.9c-1.1,0-2.2,0.9-2.2,2.2v21.5
				C170.1,140.2,171,141.3,172.1,141.3z"/>
			<path class="st0" d="M205.8,141.3h24c1.1,0,2.2-1,2.2-2.2v-21.5c0-1.1-0.9-2.2-2.2-2.2l0,0h-24c-1.1,0-2.2,0.9-2.2,2.2l0,0v21.5
				C203.6,140.2,204.6,141.3,205.8,141.3z"/>
			<path class="st0" d="M239.1,141.3H263c1.1,0,2.2-1,2.2-2.2v-21.5c0-1.1-1-2.2-2.2-2.2h-23.9c-1.1,0-2.2,0.9-2.2,2.2l0,0v21.5
				C236.9,140.2,237.9,141.3,239.1,141.3z"/>
			<path class="st0" d="M239.1,110.5H263c1.1,0,2.2-0.9,2.2-2.2V86.8c0-1.1-1-2.2-2.2-2.2h-23.9c-1.1,0-2.2,0.9-2.2,2.2l0,0v21.5
				C236.9,109.4,237.9,110.5,239.1,110.5z"/>
			<path class="st0" d="M272.5,172h23.9c1.2,0,2.2-0.8,2.2-2.2v-21.5c0-1.1-0.8-2.2-2.2-2.2l0,0h-23.9c-1.1,0-2.2,0.9-2.2,2.2l0,0
				v21.5C270.5,171.1,271.4,172,272.5,172z"/>
		</g>
	</g>
</g>
</svg>
