<?xml version="1.0" encoding="utf-8"?>
<!-- Generator: Adobe Illustrator 26.0.0, SVG Export Plug-In . SVG Version: 6.00 Build 0)  -->
<svg version="1.1" id="Layer_1" xmlns="http://www.w3.org/2000/svg" xmlns:xlink="http://www.w3.org/1999/xlink" x="0px" y="0px"
	 viewBox="0 0 500 500" style="enable-background:new 0 0 500 500;" xml:space="preserve">
<style type="text/css">
	.st0{fill-rule:evenodd;clip-rule:evenodd;fill:#393C42;}
	.st1{fill-rule:evenodd;clip-rule:evenodd;fill:#55BFCE;}
	.st2{fill-rule:evenodd;clip-rule:evenodd;fill:#FFFFFF;}
	.st3{fill-rule:evenodd;clip-rule:evenodd;fill:#25ABAD;}
</style>
<g>
	<g>
		<path class="st0" d="M389.9,302.6c0,3.6-1.2,6.7-3.6,8.5c-2.4,2.4-5.5,3-8.5,3c-3.6,0-6.1-1.2-8.5-3s-3.6-4.9-3.6-8.5
			c0-3.6,1.2-6.7,3.6-8.5c2.4-1.8,5.5-3,8.5-3c3.6,0,6.1,1.2,8.5,3C388.6,295.9,389.9,298.9,389.9,302.6"/>
		<path class="st0" d="M367.4,324.5H388V395h-20.7V324.5z"/>
		<path class="st0" d="M156.4,340.9c-1.8-0.6-4.3-1.2-6.7-1.2c-2.4-0.6-5.5-0.6-8.5-0.6c-1.2,0-3,0-4.9,0.6c-1.8,0-3,0.6-4.3,0.6
			v55.3h-21.3v-68.7c3.6-1.2,8.5-2.4,13.4-3.6c5.5-1.2,10.9-1.8,17.6-1.8c1.2,0,2.4,0,4.3,0c1.8,0,3,0.6,4.9,0.6
			c1.8,0,3,0.6,4.9,0.6c1.8,0.6,3,0.6,4.3,1.2L156.4,340.9z"/>
		<path class="st0" d="M453.7,358.5c0-6.1-1.2-11.6-3.6-15.2s-6.7-5.5-11.6-5.5s-8.5,1.8-11.6,5.5c-2.4,3.6-4.3,8.5-4.3,15.2
			c0,6.1,1.2,11.6,4.3,15.2c2.4,3.6,6.7,5.5,11.6,5.5s8.5-1.8,11.6-5.5C452.5,370.1,453.7,364.6,453.7,358.5 M475.6,358.5
			c0,5.5-0.6,10.9-2.4,15.8c-1.8,4.9-4.3,8.5-7.3,12.2c-3,3-7.3,6.1-11.6,7.9c-4.9,1.8-9.7,3-15.2,3s-10.3-1.2-15.2-3
			c-4.9-1.8-8.5-4.3-11.6-7.9c-3-3.6-6.1-7.3-7.9-12.2c-1.8-4.9-2.4-9.7-2.4-15.8c0-5.5,1.2-10.9,3-15.8c1.8-4.9,4.3-8.5,7.9-12.2
			c3-3,7.3-6.1,11.6-7.9c4.9-1.8,9.7-3,15.2-3s10.3,0.6,15.2,3c4.3,1.8,8.5,4.3,11.6,7.9c3,3,6.1,7.3,7.9,12.2
			C475,347.6,475.6,353,475.6,358.5"/>
		<path class="st0" d="M214.7,351.2c0-1.8-0.6-3.6-1.2-4.9c-0.6-1.8-1.2-3-2.4-4.3c-1.2-1.2-2.4-2.4-4.3-3c-1.8-0.6-3.6-1.2-6.1-1.2
			s-4.3,0.6-6.1,1.2c-1.8,0.6-3,1.8-4.3,3s-1.8,3-2.4,4.3c-0.6,1.8-1.2,3.6-1.2,4.9H214.7z M164.3,359.1c0-6.7,1.2-12.2,3-17
			c1.8-4.9,4.9-9.1,7.9-12.2c3.6-3,7.3-5.5,11.6-7.3s9.1-2.4,13.4-2.4c10.9,0,19.5,3,25.5,9.1c6.1,6.1,9.1,15.2,9.1,28
			c0,1.2,0,2.4,0,3.6c0,1.2,0,2.4-0.6,3.6h-48.6c0.6,4.3,2.4,7.3,6.1,10.3c3.6,2.4,8.5,3.6,14.6,3.6c3.6,0,7.9-0.6,11.6-1.2
			c3.6-0.6,6.7-1.8,9.1-2.4l3,16.4c-1.2,0.6-2.4,1.2-4.9,1.8c-1.8,0.6-4.3,1.2-6.7,1.2c-2.4,0.6-4.9,0.6-7.3,1.2
			c-2.4,0-5.5,0.6-7.9,0.6c-6.7,0-12.8-1.2-17.6-3c-4.9-1.8-9.1-4.3-12.8-7.9c-3-3-5.5-7.3-7.3-12.2
			C164.9,369.4,164.3,364.6,164.3,359.1z"/>
		<path class="st0" d="M288.9,356.7c0-6.7-0.6-11.6-2.4-14c-1.8-3-4.9-4.3-9.1-4.3c-1.2,0-2.4,0-4.3,0c-1.2,0-3,0.6-4.3,0.6V395
			h-21.3v-69.9c1.8-0.6,4.3-1.2,6.7-1.2c2.4-0.6,4.9-1.2,7.9-1.2c2.4-0.6,5.5-0.6,8.5-1.2c3,0,5.5-0.6,8.5-0.6
			c5.5,0,9.7,0.6,13.4,1.8c3.6,1.2,6.1,3,8.5,4.9c3-2.4,6.7-3.6,10.3-4.9c4.3-1.2,7.9-1.8,10.9-1.8c6.1,0,10.9,0.6,15.2,2.4
			c3.6,1.8,6.7,3.6,9.1,6.7s3.6,6.7,4.9,10.3c0.6,4.3,1.2,8.5,1.2,13.4v40.7h-21.3v-38.3c0-6.7-0.6-11.6-2.4-14
			c-1.8-3-4.9-4.3-9.1-4.3c-1.2,0-2.4,0-4.9,0.6c-1.8,0.6-3.6,1.2-4.9,1.8c0.6,2.4,1.2,4.3,1.2,6.7c0,2.4,0,4.9,0,7.3v39.5h-21.3
			v-37.1H288.9z"/>
		<path class="st0" d="M73.7,378.6c-1.2,0-2.4,0.6-4.3,0.6s-3.6,0-5.5,0c-6.1,0-10.3-1.8-13.4-5.5c-3-3.6-4.3-9.1-4.3-15.2
			c0-13.4,4.9-20.1,15.2-20.1c2.4,0,4.3,0,6.7,0.6c2.4,0.6,3.6,1.2,5.5,1.8C73.7,340.9,73.7,378.6,73.7,378.6z M73.7,296.5v28
			c-2.4-1.2-4.9-1.8-7.3-2.4c-2.4-0.6-4.9-0.6-7.9-0.6c-5.5,0-10.3,0.6-14.6,2.4c-4.3,1.8-7.9,4.3-10.3,7.3c-3,3-4.9,7.3-6.7,12.2
			c-1.8,4.9-2.4,9.7-2.4,15.8c0,5.5,1.2,10.9,2.4,15.8c1.8,4.9,4.3,8.5,7.9,12.2c3.6,3,7.3,6.1,12.2,7.3c4.9,1.8,10.3,2.4,16.4,2.4
			c2.4,0,5.5,0,7.9-0.6c3,0,5.5-0.6,8.5-1.2c2.4-0.6,5.5-0.6,7.9-1.2c2.4-0.6,4.9-1.2,6.7-1.8V289.8L73.7,296.5z"/>
	</g>
	<g>
		<path class="st0" d="M192.7,230.2c-6.1,3-18.2,9.1-17.6,16.4c1.8,4.3,6.7,0,8.5-1.8C187.8,240.5,190.9,235.1,192.7,230.2
			 M230.4,214.4c-4.3,10.9-16.4,15.8-19.5,14c-1.8-1.2,0-4.3,0-6.7c-2.4,1.2-6.7,3-9.1,3.6c6.1,4.3,9.1,12.2,9.1,19.5
			c0,7.3-3,14-8.5,18.8c10.3,15.2,4.9,28-9.1,38.3l-0.6,0.6v-1.2c-1.8-7.3-4.9-13.4-9.7-18.8c-2.4-3-5.5-5.5-7.9-7.9
			c-3.6-3.6-7.3-6.7-10.3-10.3c-14-14.6-19.5-40.1-17.6-59.6c1.2-10.3,4.3-20.1,8.5-28.6c3.6-7.3,8.5-14,14-19.5
			c12.2-12.8,28.6-23.1,45.6-28.6c15.2-4.3,32.2-5.5,46.8,1.8c2.4,1.2,6.1,3,7.9,4.9c1.2,1.2,2.4,2.4,3.6,3.6c0,0,0,0,0.6,0.6
			l66.9-34.1c5.5-3,9.7-3,11.6-0.6c1.8,2.4-0.6,7.3-4.9,9.7L290,156c1.2,3-0.6,7.9-3,10.9c7.9,2.4,1.2,14-2.4,17.6
			c-9.7,11.6-27.4,20.1-43.2,26.8C236.5,212.6,234.1,213.2,230.4,214.4"/>
		<path class="st1" d="M283.3,175.5c4.3-5.5,1.2-8.5-1.8-5.5c-6.1,6.1-14.6,7.9-23.1,6.7c-11.6-1.8-12.2-3.6-10.3-5.5
			c14,4.9,30.4-1.8,37.1-12.8c3-4.3-6.7-7.3-12.8-15.2c-27.4-37.1-113.7-4.9-121.6,60.2c-2.4,19.5,3,41.3,16.4,56.5
			c10.3,11.6,20.7,16.4,27.4,34.1c12.2-10.3,10.3-21.9,1.2-32.2c15.2-7.9,12.8-28,2.4-34.1c-4.9,18.2-22.5,31.6-26.8,18.8
			c-2.4-13.4,18.8-21.9,53.5-34.7C253.5,200.4,272.4,191.3,283.3,175.5"/>
		<path class="st2" d="M283.3,175.5c4.3-5.5,1.2-8.5-1.8-5.5c-4.9,5.5-12.8,7.3-19.5,7.3c-12.2-0.6-21.3-3-29.8-2.4
			c-17,1.8-34.1,12.8-42.6,21.9c-15.2,15.2-31.6,47.4-15.2,53.5c-1.2-0.6-2.4-2.4-3-4.3c-2.4-13.4,18.8-21.9,53.5-34.7
			C253.5,200.4,272.4,191.3,283.3,175.5"/>
		<path class="st1" d="M209.1,200.4c9.1,4.3,7.3,19.5,6.1,23.7c17-4.9,11.6-29.8,19.5-37.1C224.9,186.4,206.7,196.2,209.1,200.4"/>
		<path class="st0" d="M237.7,155.4c2.4-1.2,5.5-0.6,6.7,1.8c1.2,2.4,0.6,5.5-1.8,6.7c-2.4,1.2-5.5,0.6-6.7-1.8
			C234.1,159.7,235.3,156.6,237.7,155.4"/>
		<path class="st1" d="M278.4,157.2l67.5-46.8c1.8-1.2,4.3-4.3,3.6-5.5c-1.2-1.2-4.3-0.6-6.7,0.6l-73,39.5
			C267.5,149.9,272.4,160.3,278.4,157.2"/>
		<path class="st2" d="M272.4,148.1l70.5-41.3c3-1.8,4.3-1.8,6.1-1.8c-1.2-1.2-4.3-0.6-6.1,0.6l-73,39.5c-1.8,3.6,0.6,10.3,4.3,12.8
			C273,154.2,272.4,151.2,272.4,148.1"/>
		<path class="st3" d="M168.4,167c2.4-0.6,4.3,1.2,4.3,3.6c0,2.4-1.8,4.9-4.3,4.9c-2.4,0.6-4.3-1.2-4.3-3.6
			C164.1,169.4,166,167,168.4,167"/>
		<path class="st3" d="M182.4,151.8c1.8-0.6,3.6,1.2,3.6,3s-1.8,4.3-3.6,4.3c-1.8,0.6-3.6-1.2-3.6-3
			C178.7,154.2,179.9,151.8,182.4,151.8"/>
		<path class="st3" d="M223.7,131.7c1.8,0,3,1.8,3,3.6c-0.6,1.8-2.4,3.6-4.9,3.6c-1.8,0-3-1.8-3-3.6
			C219.5,132.9,221.9,131.7,223.7,131.7"/>
		<path class="st3" d="M236.5,129.3c1.8,0.6,2.4,1.8,1.8,3.6s-2.4,2.4-4.3,2.4c-1.8-0.6-2.4-1.8-1.8-3.6
			C232.8,129.9,234.7,129.3,236.5,129.3"/>
		<path class="st3" d="M182.4,160.9c1.2,0,2.4,0.6,2.4,2.4c0,1.8-1.2,3-3,3c-1.2,0-2.4-0.6-2.4-2.4
			C179.9,162.7,181.2,161.5,182.4,160.9"/>
		<path class="st3" d="M161.1,178.5c1.8,0,3,0.6,3,2.4c0,1.8-1.2,3-3,3.6c-1.8,0-3-0.6-3-2.4C158,180.3,159.3,179.1,161.1,178.5"/>
		<path class="st3" d="M287.6,135.3l-3,1.8c0,4.9,4.3,10.3,6.7,10.9C288.8,145.1,287,139,287.6,135.3 M304.6,126.2l-3,1.2
			c0.6,4.3,3.6,9.1,5.5,9.1C305.8,134.7,304,129.3,304.6,126.2 M321,117.1l-1.8,1.2c0,2.4,1.8,6.7,4.3,7.3
			C322.2,123.8,320.4,120.8,321,117.1 M336.8,108.6l-1.8,1.2c0,1.8,2.4,4.9,3.6,5.5C338,114.1,336.8,111,336.8,108.6"/>
	</g>
</g>
</svg>
