<?xml version="1.0" encoding="utf-8"?>
<!-- Generator: Adobe Illustrator 26.0.0, SVG Export Plug-In . SVG Version: 6.00 Build 0)  -->
<svg version="1.1" id="Layer_1" xmlns="http://www.w3.org/2000/svg" xmlns:xlink="http://www.w3.org/1999/xlink" x="0px" y="0px"
	 viewBox="0 0 500 500" style="enable-background:new 0 0 500 500;" xml:space="preserve">
<style type="text/css">
	.st0{enable-background:new    ;}
	.st1{fill:#00A9E5;}
	.st2{fill:#353535;}
	.st3{fill:#00BFB3;}
	.st4{fill:#019B8F;}
	.st5{fill:#F9B110;}
	.st6{fill:#FED10A;}
</style>
<g>
	<g class="st0">
		<path d="M53.7,407.8c-5.8,0-10.5-1.7-13.8-5.1c-3.3-3.3-4.9-8.1-4.9-14.1c0-6.1,1.6-11,4.6-14.5s7.3-5.2,12.6-5.2
			c4.9,0,8.9,1.5,11.8,4.5c2.9,3.1,4.4,7.1,4.4,12.5v4.4H43.3c0.1,3.6,1.2,6.4,2.9,8.4c1.7,2,4.5,2.9,7.8,2.9c2.2,0,4.4-0.1,6.2-0.6
			c1.9-0.4,3.9-1.2,6.2-2v6.5c-1.9,0.9-3.9,1.6-6,2S56.2,407.8,53.7,407.8z M52.1,375c-2.6,0-4.6,0.9-6.1,2.5s-2.5,3.9-2.8,7.1h17.1
			c0-3.1-0.7-5.5-2.2-7.1S54.7,375,52.1,375L52.1,375z"/>
		<path d="M85.4,407.2h-8v-53h8V407.2z"/>
		<path d="M120.4,407.2l-1.6-5.2h-0.3c-1.7,2.3-3.6,3.9-5.5,4.6c-1.9,0.7-4.2,1.3-7.1,1.3c-3.6,0-6.5-1-8.7-3.1
			c-2.2-2-3.1-4.8-3.1-8.4c0-3.9,1.5-6.8,4.4-8.7s7.3-3.1,13.2-3.2l6.5-0.1v-2c0-2.5-0.6-4.2-1.7-5.4c-1.2-1.2-2.9-1.7-5.2-1.7
			c-1.9,0-3.8,0.3-5.5,0.9s-3.5,1.3-5.1,2l-2.6-5.7c2-1,4.2-1.9,6.7-2.5c2.5-0.6,4.6-0.9,6.8-0.9c4.8,0,8.4,1,10.9,3.2
			c2.5,2.2,3.6,5.4,3.6,9.9v25H120.4z M108.5,401.7c2.9,0,5.2-0.9,7-2.5c1.7-1.6,2.6-3.9,2.6-6.8v-3.2l-4.8,0.1
			c-3.8,0.1-6.5,0.7-8.3,1.9c-1.7,1.2-2.6,2.9-2.6,5.2c0,1.7,0.4,3.1,1.5,3.9S106.5,401.7,108.5,401.7z"/>
		<path d="M162.5,396.5c0,3.6-1.3,6.5-4.1,8.4c-2.8,1.9-6.5,2.9-11.5,2.9c-5.1,0-9-0.7-12.1-2.3v-7c4.4,2,8.6,3.1,12.3,3.1
			c4.9,0,7.4-1.5,7.4-4.5c0-1-0.3-1.7-0.9-2.3c-0.6-0.6-1.5-1.3-2.8-2c-1.3-0.7-3.1-1.5-5.2-2.3c-4.4-1.7-7.3-3.3-8.9-5.1
			s-2.3-3.9-2.3-6.5c0-3.2,1.3-5.7,3.9-7.6c2.6-1.9,6.1-2.6,10.6-2.6c4.4,0,8.6,0.9,12.5,2.8l-2.6,6c-4.1-1.7-7.4-2.5-10.3-2.5
			c-4.2,0-6.4,1.2-6.4,3.6c0,1.2,0.6,2.2,1.6,3.1c1,0.9,3.5,1.9,7.3,3.3c3.1,1.2,5.4,2.3,6.8,3.3c1.5,1,2.5,2.2,3.2,3.5
			C162.2,393.1,162.5,394.6,162.5,396.5L162.5,396.5z"/>
		<path d="M185.2,401.4c1.9,0,3.9-0.3,5.8-0.9v6c-0.9,0.4-2,0.7-3.5,1s-2.9,0.4-4.4,0.4c-7.6,0-11.3-4.1-11.3-11.9v-20.3h-5.1v-3.5
			l5.5-2.9l2.8-8h4.9v8.4h10.8v6.1H180V396c0,1.9,0.4,3.3,1.5,4.2S183.7,401.4,185.2,401.4z"/>
		<path d="M198.1,359.5c0-1.5,0.4-2.5,1.2-3.3s1.9-1.2,3.3-1.2s2.5,0.4,3.3,1.2c0.9,0.7,1.2,1.9,1.2,3.3c0,1.3-0.4,2.5-1.2,3.2
			c-0.7,0.7-1.9,1.2-3.3,1.2s-2.6-0.4-3.3-1.2C198.6,362,198.1,360.9,198.1,359.5z M206.7,407.2h-8v-37.6h8V407.2z"/>
		<path d="M233.3,407.8c-5.7,0-10-1.6-12.9-4.9c-2.9-3.3-4.5-8.1-4.5-14.4c0-6.4,1.6-11.2,4.6-14.7c3.1-3.5,7.6-5.1,13.4-5.1
			c3.9,0,7.6,0.7,10.8,2.2l-2.5,6.4c-3.3-1.3-6.1-2-8.4-2c-6.5,0-9.7,4.4-9.7,12.9c0,4.2,0.9,7.4,2.5,9.6c1.6,2.2,4.1,3.2,7.1,3.2
			c3.6,0,7-0.9,10.2-2.6v7c-1.5,0.9-2.9,1.5-4.6,1.7C237.4,407.4,235.6,407.8,233.3,407.8z"/>
		<path d="M277.9,396.5c0,3.6-1.3,6.5-4.1,8.4s-6.5,2.9-11.5,2.9c-5.1,0-9-0.7-12.1-2.3v-7c4.4,2,8.6,3.1,12.3,3.1
			c4.9,0,7.4-1.5,7.4-4.5c0-1-0.3-1.7-0.9-2.3s-1.5-1.3-2.8-2c-1.3-0.7-3.1-1.5-5.2-2.3c-4.4-1.7-7.3-3.3-8.9-5.1
			c-1.6-1.7-2.3-3.9-2.3-6.5c0-3.2,1.3-5.7,3.9-7.6c2.6-1.9,6.1-2.6,10.6-2.6c4.4,0,8.6,0.9,12.5,2.8l-2.6,6
			c-4.1-1.7-7.4-2.5-10.3-2.5c-4.2,0-6.4,1.2-6.4,3.6c0,1.2,0.6,2.2,1.6,3.1c1,0.9,3.5,1.9,7.3,3.3c3.1,1.2,5.4,2.3,6.8,3.3
			c1.5,1,2.5,2.2,3.2,3.5C277.6,393.1,277.9,394.6,277.9,396.5L277.9,396.5z"/>
		<path d="M303,407.8c-5.8,0-10.5-1.7-13.8-5.1c-3.3-3.3-4.9-8.1-4.9-14.1c0-6.1,1.6-11,4.6-14.5c3.1-3.5,7.3-5.2,12.6-5.2
			c4.9,0,8.9,1.5,11.8,4.5c2.9,3.1,4.4,7.1,4.4,12.5v4.4h-25.1c0.1,3.6,1.2,6.4,2.9,8.4c1.7,2,4.5,2.9,7.8,2.9
			c2.2,0,4.4-0.1,6.2-0.6c1.9-0.4,3.9-1.2,6.2-2v6.5c-1.9,0.9-3.9,1.6-6,2C307.8,407.9,305.6,407.8,303,407.8z M301.6,375
			c-2.6,0-4.6,0.9-6.1,2.5s-2.5,3.9-2.8,7.1h17.1c0-3.1-0.7-5.5-2.2-7.1S304,375,301.6,375L301.6,375z"/>
		<path d="M350.3,407.2l-1.6-5.2h-0.3c-1.7,2.3-3.6,3.9-5.5,4.6c-1.9,0.7-4.2,1.3-7.1,1.3c-3.6,0-6.5-1-8.7-3.1
			c-2.2-2-3.1-4.8-3.1-8.4c0-3.9,1.5-6.8,4.4-8.7c2.9-1.9,7.3-3.1,13.2-3.2l6.5-0.1v-2c0-2.5-0.6-4.2-1.7-5.4s-2.9-1.7-5.2-1.7
			c-1.9,0-3.8,0.3-5.5,0.9s-3.5,1.3-5.1,2l-2.6-5.7c2-1,4.2-1.9,6.7-2.5c2.5-0.6,4.6-0.9,6.8-0.9c4.8,0,8.4,1,10.9,3.2
			c2.5,2.2,3.6,5.4,3.6,9.9v25H350.3z M338.3,401.7c2.9,0,5.2-0.9,7-2.5c1.7-1.6,2.6-3.9,2.6-6.8v-3.2l-4.8,0.1
			c-3.8,0.1-6.5,0.7-8.3,1.9c-1.7,1.2-2.6,2.9-2.6,5.2c0,1.7,0.4,3.1,1.5,3.9S336.4,401.7,338.3,401.7z"/>
		<path d="M386.3,368.8c1.6,0,2.9,0.1,3.9,0.3l-0.7,7.4c-1.2-0.3-2.3-0.4-3.5-0.4c-3.2,0-5.8,1-7.8,3.2c-2,2.2-3.1,4.8-3.1,8.1v19.8
			h-8v-37.6h6.2l1,6.7h0.4c1.3-2.2,2.9-4.1,4.9-5.4C381.8,369.6,384,368.8,386.3,368.8L386.3,368.8z"/>
		<path d="M412.4,407.8c-5.7,0-10-1.6-12.9-4.9c-2.9-3.3-4.5-8.1-4.5-14.4c0-6.4,1.6-11.2,4.6-14.7c3.1-3.5,7.6-5.1,13.4-5.1
			c3.9,0,7.6,0.7,10.8,2.2l-2.5,6.4c-3.3-1.3-6.1-2-8.4-2c-6.5,0-9.7,4.4-9.7,12.9c0,4.2,0.9,7.4,2.5,9.6c1.6,2.2,4.1,3.2,7.1,3.2
			c3.6,0,7-0.9,10.2-2.6v7c-1.5,0.9-2.9,1.5-4.6,1.7C416.5,407.4,414.8,407.8,412.4,407.8z"/>
		<path d="M464.9,407.2h-8V384c0-2.9-0.6-5.1-1.7-6.5s-3.1-2.2-5.5-2.2c-3.3,0-5.8,1-7.4,3.1c-1.6,2-2.3,5.4-2.3,10v18.9h-8v-53h8
			v13.5c0,2.2-0.1,4.5-0.4,7h0.6c1.2-1.7,2.6-3.2,4.5-4.2c1.9-1,4.2-1.5,6.8-1.5c9.2,0,13.7,4.6,13.7,13.8v24.4H464.9z"/>
	</g>
	<g>
		<path class="st1" d="M300.1,168.3h-56.9c0.3,1.4,0.8,2.7,1.1,3.8c1.9,6.5,3,13.3,3.5,20.4c0.3,2.7,0.3,5.7,0.3,8.4s0,5.7-0.3,8.4
			c-0.5,7.1-1.6,13.9-3.5,20.4c-0.3,1.4-0.8,2.7-1.1,3.8h56.9c18,0,32.4-14.7,32.4-32.7S318,168.3,300.1,168.3z"/>
		<path class="st2" d="M247.8,209.4c0.3-2.7,0.3-5.7,0.3-8.4s0-5.7-0.3-8.4c-0.5-7.1-1.6-13.9-3.5-20.4c-0.3-1.4-0.8-2.7-1.1-3.8
			h-87.9c-3.3,10.3-4.9,21.2-4.9,32.7c0,11.4,1.6,22.3,4.9,32.7h87.9c0.3-1.4,0.8-2.7,1.1-3.8C246.2,223.3,247.3,216.5,247.8,209.4z
			"/>
		<path class="st3" d="M309.9,244.5h-70.8c-2.2,4.9-4.6,9.5-7.3,13.9c-4.1,6.8-9,12.8-14.4,18.5c-1.9,1.9-3.8,3.5-5.7,5.4
			c-3.8,3.5-8.2,6.5-12.5,9.5c17.1,11.4,37.8,18,59.9,18c37.8,0,71-19.3,90.6-48.4C339.5,251,325.4,244.5,309.9,244.5L309.9,244.5z"
			/>
		<path class="st4" d="M231.8,258.4c2.7-4.4,5.2-9,7.3-13.9h-79.7c8.4,19.3,22.3,35.9,40,47.4c4.4-3,8.4-6,12.5-9.5
			c1.9-1.6,3.8-3.5,5.7-5.4C222.8,271.4,227.7,265.2,231.8,258.4L231.8,258.4z"/>
		<path class="st5" d="M217.3,125c-1.9-1.9-3.8-3.5-5.7-5.4c-3.8-3.5-8.2-6.5-12.5-9.5c-17.4,11.4-31.3,28-40,47.4h79.7
			c-2.2-4.9-4.6-9.5-7.3-13.9C227.7,136.7,222.8,130.4,217.3,125z"/>
		<path class="st6" d="M259,92.1c-22,0-42.7,6.5-59.9,18c4.4,3,8.4,6,12.5,9.5c1.9,1.6,3.8,3.5,5.7,5.4c5.4,5.7,10.3,11.7,14.4,18.5
			c2.7,4.4,5.2,9,7.3,13.9h70.8c15.5,0,29.7-6.5,39.7-16.9C330,111.4,296.8,92.1,259,92.1z"/>
	</g>
</g>
</svg>
