<?xml version="1.0" encoding="utf-8"?>
<!-- Generator: Adobe Illustrator 26.0.0, SVG Export Plug-In . SVG Version: 6.00 Build 0)  -->
<svg version="1.1" id="Layer_1" xmlns="http://www.w3.org/2000/svg" xmlns:xlink="http://www.w3.org/1999/xlink" x="0px" y="0px"
	 viewBox="0 0 500 500" style="enable-background:new 0 0 500 500;" xml:space="preserve">
<style type="text/css">
	.st0{fill:#474747;}
	.st1{fill:#FFFFFF;}
	.st2{fill:#53B54A;}
</style>
<g>
	<path class="st0" d="M188.9,256.5c1,7.4,7.4,12.8,17.9,12.8c5.5,0,12.7-2.1,16.1-5.6l9.5,9.4c-6.3,6.6-16.7,9.7-25.9,9.7
		c-20.7,0-33-12.8-33-32.1c0-18.4,12.4-31.5,31.9-31.5c20.1,0,32.7,12.5,30.3,37.2L188.9,256.5z M221.6,244.2
		c-1-7.9-7.1-11.7-15.6-11.7c-8,0-14.6,3.9-16.8,11.7H221.6z"/>
	<path class="st0" d="M283,281.2V249c0-7.9-4.2-15.1-12.3-15.1c-8.2,0-12.8,7.2-12.8,15.1v32.2h-14.9v-60.1h13.8l1.1,7.3
		c3.2-6.1,10.1-8.3,15.8-8.3c7.7-0.5,14.9,4,17.8,11.2c4.1-7.2,11.9-11.4,20.1-11c17.1,0,25.5,10.5,25.5,28.5v32.4h-14.9v-32.5
		c0-7.9-3.3-14.6-11.3-14.6s-13.1,7-13.1,14.9v32.2H283z"/>
	<path class="st0" d="M359.3,196v33.3c3.5-6.2,13.4-9.6,19.8-9.6c17.5,0,30.6,10.7,30.6,31.5c0,19.8-13.1,31.5-30.9,31.5
		c-7.7,0.4-15.1-3.2-19.4-9.6l-1,8.3h-13.8V196H359.3z M360.3,251.2c-0.4,9.4,7,17.3,16.4,17.7c0.3,0,0.7,0,1,0
		c9.3,0.1,17-7.4,17.1-16.7c0-0.3,0-0.6,0-1c0.6-9.1-6.4-17-15.5-17.5c-0.5,0-1,0-1.5,0c-9.5-0.2-17.3,7.4-17.4,16.9
		C360.3,250.7,360.3,250.9,360.3,251.2L360.3,251.2z"/>
	<path class="st0" d="M471.9,221.1l-36.8,85.2h-16.3l11.2-26.1l-23.9-59.1h17.2l9.1,26l5.7,16.9l6.2-16.6l11-26.3L471.9,221.1z"/>
	<path class="st1" d="M79.7,275.9L102,263c12.2-7.1,22.2-13,22.2-13S80.2,224.2,79.6,224c0,0-0.2,5.3-0.2,25.9
		C79.5,268.8,79.5,275.9,79.7,275.9z"/>
	<path class="st2" d="M128.2,209.9l-1.3-1.3l-2.8,2.8c-0.9,1-1.9,1.9-3,2.8c0,0-7.1-7.1-15.8-15.8s-15.5-15.8-15.6-15.8
		c-0.1,0-8.1,7.9-18,17.8l-17.9,18.1l2.9,2.9l2.9,2.9L43.8,240l-15.8,15.8l10.2,10c5.6,5.7,13.7,13.8,17.8,18l7.6,7.6l2.9-2.6
		c1.6-1.5,2.9-2.8,2.9-2.8s7.1,7.1,15.8,15.8l15.6,15.8l1.1-1l32-31.7l2.9-2.9l-2.9-2.9c-1-0.9-1.9-1.9-2.8-3c0,0,7.1-7.1,15.8-15.6
		c8.7-8.5,15.8-15.6,15.8-15.6S142.3,223.9,128.2,209.9z M102,263l-22.4,12.9c0,0-0.2-7.1-0.2-26c0-20.7,0-26,0.2-25.9
		c0.5,0.2,44.7,25.8,44.7,25.9S114.3,255.9,102,263L102,263z"/>
</g>
</svg>
