<?xml version="1.0" encoding="utf-8"?>
<!-- Generator: Adobe Illustrator 26.0.0, SVG Export Plug-In . SVG Version: 6.00 Build 0)  -->
<svg version="1.1" id="Layer_1" xmlns="http://www.w3.org/2000/svg" xmlns:xlink="http://www.w3.org/1999/xlink" x="0px" y="0px"
	 viewBox="0 0 500 500" style="enable-background:new 0 0 500 500;" xml:space="preserve">
<style type="text/css">
	.st0{fill:#3A3A3A;}
</style>
<g>
	<path class="st0" d="M91.7,260.9l-8.9,11.5H39.7v-44.8h51.9l-9,11.6h-29v5.4h35.5l-8,10.2H53.6v6.1H91.7z"/>
	<path class="st0" d="M136.3,270.7l-27.4-24.6v26.3H96.2v-37.1c0-6,3.6-8.4,7.6-8.4c1.7,0,3.3,0.4,5.6,2.4l27.4,24.6v-26.3h12.6
		v37.1c0,6-3.6,8.4-7.6,8.4C140.1,273.1,138.4,272.7,136.3,270.7z"/>
	<path class="st0" d="M171.7,272.4h-13.9v-44.8h13.9V272.4z"/>
	<path class="st0" d="M207.9,244.4h28.6v28h-30.7c-15.5,0-27-9.8-27-22.8c0-13.1,11.4-22,27-22h32.1l-9,11.6h-23.1
		c-7.5,0-13.2,4.6-13.2,10.9c0,6.5,5.5,10.7,13.2,10.7h16.9v-6.5h-23.2L207.9,244.4z"/>
	<path class="st0" d="M275.5,244.3c3.9,6.9,5.7,10.2,7.2,13.4c1.5-3.1,3.2-6.4,7.2-13.3l7.2-12.7c1.6-2.9,4-4.8,7.6-4.8
		c3.5,0,6.6,2,7.8,6.2l11.3,39.4h-13.8l-4.2-15.6c-1.4-5.1-2.3-8.7-3.1-12.3c-1.5,3.1-3.1,6.6-6.2,12.4l-6,11.2c-2.3,4.4-4.6,5-8,5
		s-5.6-0.6-8-5l-6-11.3c-3.3-6.2-4.9-9.3-6.3-12.3c-0.7,3.5-1.7,7.3-3,12.3l-4.2,15.6h-13.6l11.6-39.4c1.2-4.2,4.4-6.2,7.8-6.2
		c3.5,0,6,1.8,7.6,4.8L275.5,244.3z"/>
	<path class="st0" d="M347.8,272.4l8.4-11.5h11.2c2.7,0,5.8,0,8,0.1c-1.2-1.6-3.1-4.4-4.6-6.5l-8-11.8l-21,29.7h-16.4l28.7-40.5
		c1.9-2.6,4.6-5,9-5c4.1,0,6.9,2.2,8.8,5l28,40.5H347.8z"/>
	<path class="st0" d="M414.5,227.6h26.2c13.6,0,19.2,5.5,19.2,13.9c0,7.7-5.3,12.9-16.8,12.9h-21.3c-3.2,0-4.8,0.9-4.8,3.2v3.3h43.2
		l-8.9,11.5h-47.7v-14.7c0-8.2,5.9-12.2,16.8-12.2h21.3c3.2,0,4.8-0.9,4.8-3.1c0-2.3-1.5-3.1-4.8-3.1h-36.2L414.5,227.6z"/>
</g>
</svg>
