<?xml version="1.0" encoding="utf-8"?>
<!-- Generator: Adobe Illustrator 26.0.0, SVG Export Plug-In . SVG Version: 6.00 Build 0)  -->
<svg version="1.1" id="Layer_1" xmlns="http://www.w3.org/2000/svg" xmlns:xlink="http://www.w3.org/1999/xlink" x="0px" y="0px"
	 viewBox="0 0 500 500" style="enable-background:new 0 0 500 500;" xml:space="preserve">
<style type="text/css">
	.st0{fill:#0A3D51;}
	.st1{fill:#76BD1D;}
</style>
<g>
	<path id="path9017_00000045619870989739783490000000971686093227668124_" class="st0" d="M47.6,201.7v95.1h59.1v-14.9H64.9v-25.6
		h32v-14.9h-32v-24.9h39.6v-14.9H47.6z M426,201.7v73.8c0,19.6,11.7,22,21,22c2.8,0,5.4-0.4,5.4-0.4v-14.9c0,0-1.2,0.1-2.5,0.1
		c-4.4,0-7-1.9-7-9.4v-71.2L426,201.7z M305.2,226.8c-14.7,0-26.1,7.4-26.1,20.1c0,22,33.2,20.6,33.2,30.8c0,4-4.2,6.2-9,6.2
		c-11.1,0-18.6-7.5-18.6-7.5l-7.8,11.9c0,0,9.5,10,26.5,10c16.2,0,26.1-9.1,26.1-20.5c0-22-33.2-20.8-33.2-30.4
		c0-4.3,4.3-6.2,8.7-6.2c10.4,0,16.7,5.9,16.7,5.9l6.3-12.6C328.1,234.6,320.6,226.8,305.2,226.8L305.2,226.8z M375.6,226.8
		c-20.8,0-37.5,14.9-37.5,35.8c0,21,16.7,35.8,37.6,35.8c20.8,0,37.5-14.7,37.5-35.8C413.3,241.7,396.5,226.8,375.6,226.8
		L375.6,226.8z M226.1,227.7c-18.2,0-34.3,13.6-34.3,35.2c0,21.6,16.1,35.3,34.3,35.3c8.4,0,18.2-3.8,22.7-11.1v9.7h14.8v-67.6
		h-14.8v9.6C244.2,231,234.2,227.7,226.1,227.7z M168.2,229l-12.9,17l10,13l22.9-30L168.2,229z M375.8,241.3
		c11,0,20.2,8.7,20.2,21.3c0,12.7-9.2,21.3-20.2,21.3c-11.1,0-20.4-8.6-20.4-21.3C355.4,250,364.6,241.3,375.8,241.3L375.8,241.3z
		 M227.8,242.1c10.1,0,20.9,7.2,20.9,20.6c0,13.3-9.9,21-20.9,21c-11.3,0-20.7-8.5-20.7-21C207.1,250.3,216.6,242.1,227.8,242.1
		L227.8,242.1z M165.3,266.7l-10,13l12.9,17l20,0L165.3,266.7z"/>
	<path id="path9045_00000007386256497362625180000018424402168794808457_" class="st1" d="M115.8,296.7l26-33.9L115.9,229l20,0
		l25.9,33.8l-26,33.9L115.8,296.7z"/>
</g>
</svg>
