<?xml version="1.0" encoding="utf-8"?>
<!-- Generator: Adobe Illustrator 26.0.0, SVG Export Plug-In . SVG Version: 6.00 Build 0)  -->
<svg version="1.1" id="Layer_1" xmlns="http://www.w3.org/2000/svg" xmlns:xlink="http://www.w3.org/1999/xlink" x="0px" y="0px"
	 viewBox="0 0 500 500" style="enable-background:new 0 0 500 500;" xml:space="preserve">
<style type="text/css">
	.st0{fill-rule:evenodd;clip-rule:evenodd;fill:#333333;}
	.st1{fill-rule:evenodd;clip-rule:evenodd;fill:#DC0000;}
</style>
<g>
	<polygon class="st0" points="139.6,189.7 66.5,189.7 66.5,312.8 60.4,312.8 60.4,183.5 139.6,183.5 	"/>
	<rect x="63.5" y="243.4" class="st0" width="71.5" height="6.2"/>
	<polygon class="st1" points="221.7,314.6 183.2,227.4 144.8,314.6 139.1,312.1 183.2,212.1 227.3,312.1 	"/>
	<polygon class="st1" points="320.2,314.6 281.8,227.4 243.3,314.6 237.7,312.1 281.8,212.1 325.9,312.1 	"/>
	<path class="st0" d="M419.5,192.4v103.5c0,5.7,1,9.3,3.7,11.3c3,2.2,8.2,3,16.5,3v6.2c-9.6,0-16-1.2-20.2-4.3
		c-4.5-3.3-6.2-8.5-6.2-16.3V192.4H419.5z"/>
	<rect x="398.4" y="220.7" class="st0" width="39" height="6.2"/>
	<path class="st0" d="M393.9,241.4c0-9.6-8.3-18.5-28.2-18.5c-6.5,0-14.8,2.1-20.7,6.2c-4.4,3-7.4,7.1-7.4,12.3
		c0,6.1,1.6,9.9,5.5,12.6c4.5,3.1,12,5.3,23.3,8l1,0.2c22.8,5.4,32.6,7.6,32.6,26.7c0,8.1-4.2,14.2-9.9,18.6
		c-7.7,5.9-18.3,8.6-24.5,8.6c-9.4,0-18-2.8-24.2-7.6c-6.3-4.9-10.1-11.7-10.1-19.6h6.2c0,5.9,3,11.1,7.7,14.7
		c5.1,4,12.4,6.3,20.4,6.3c5.2,0,14.2-2.3,20.7-7.3c4.3-3.3,7.5-7.9,7.5-13.7c0-14.2-8.3-16.1-27.8-20.7l-1-0.2
		c-12.1-2.8-20.2-5.3-25.5-9c-5.8-4.1-8.2-9.4-8.2-17.7c0-7.5,4.2-13.3,10.1-17.4c7.1-4.9,16.7-7.3,24.2-7.3
		c24.3,0,34.3,11.8,34.3,24.6H393.9z"/>
</g>
</svg>
