<?xml version="1.0" encoding="utf-8"?>
<!-- Generator: Adobe Illustrator 26.0.0, SVG Export Plug-In . SVG Version: 6.00 Build 0)  -->
<svg version="1.1" id="Layer_1" xmlns="http://www.w3.org/2000/svg" xmlns:xlink="http://www.w3.org/1999/xlink" x="0px" y="0px"
	 viewBox="0 0 500 500" style="enable-background:new 0 0 500 500;" xml:space="preserve">
<style type="text/css">
	.st0{fill:#3B5998;}
	.st1{fill:#FFFFFF;}
</style>
<g>
	<g>
		<path id="path4680_00000036238622603903625280000013583487169420561024_" class="st0" d="M349.4,319c6.8,0,12.3-5.5,12.3-12.3
			V107.9c0-6.8-5.5-12.3-12.3-12.3H150.6c-6.8,0-12.3,5.5-12.3,12.3v198.8c0,6.8,5.5,12.3,12.3,12.3L349.4,319z"/>
		<path id="path4684_00000051374418592250893020000017800259895934416056_" class="st1" d="M292.5,319v-86.5h29l4.3-33.7h-33.4
			v-21.5c0-9.8,2.7-16.4,16.7-16.4l17.9,0v-30.2c-3.1-0.4-13.7-1.3-26-1.3c-25.7,0-43.4,15.7-43.4,44.6v24.9h-29.1v33.7h29.1V319
			H292.5z"/>
	</g>
	<g>
		<path class="st0" d="M254.4,374.4c-2.4,0-4.2,0.8-6,1.6v18.4c1.7,0.2,2.7,0.2,4.3,0.2c5.8,0,6.6-2.7,6.6-6.4v-8.8
			C259.3,376.6,258.4,374.4,254.4,374.4L254.4,374.4z M215.6,373.4c-4.1,0-5,2.2-5,5v1.5h9.9v-1.5
			C220.6,375.6,219.6,373.4,215.6,373.4z M140.4,392.6c0,2.2,1,3.3,3.3,3.3c2.4,0,3.9-0.8,5.7-1.6v-4.4h-5.3
			C141.5,389.9,140.4,390.4,140.4,392.6L140.4,392.6z M292.1,374.4c-4.1,0-5.5,2.2-5.5,5v10.1c0,2.8,1.4,5,5.5,5c4,0,5.5-2.2,5.5-5
			v-10.1C297.6,376.6,296.1,374.4,292.1,374.4z M120.5,403.9h-11.9V375h-6v-10h6v-6c0-8.1,3.4-12.9,12.9-12.9h8v10h-5
			c-3.7,0-4,1.4-4,4l0,5h9l-1.1,10h-8V403.9L120.5,403.9z M161.3,403.9h-9.9l-0.4-2.5c-4.5,2.5-8.6,2.9-11.3,2.9
			c-7.3,0-11.2-4.9-11.2-11.6c0-7.9,4.5-10.8,12.6-10.8h8.2v-1.7c0-4.1-0.5-5.2-6.7-5.2h-10.2l1-10h11.2c13.7,0,16.7,4.3,16.7,15.3
			L161.3,403.9L161.3,403.9z M195.1,375.7c-6.2-1.1-8-1.3-10.9-1.3c-5.3,0-7,1.2-7,5.7v8.6c0,4.5,1.6,5.7,7,5.7
			c3,0,4.8-0.2,10.9-1.3v9.7c-5.4,1.2-9,1.5-11.9,1.5c-12.8,0-17.9-6.7-17.9-16.5v-7c0-9.7,5.1-16.5,17.9-16.5c3,0,6.5,0.3,11.9,1.5
			V375.7L195.1,375.7z M232.5,387.9h-21.9v0.8c0,4.5,1.6,5.7,7,5.7c4.8,0,7.7-0.2,13.9-1.3v9.7c-6,1.2-9.1,1.5-14.9,1.5
			c-12.8,0-17.9-6.7-17.9-16.5v-8c0-8.5,3.8-15.5,16.9-15.5c13.1,0,16.9,6.9,16.9,15.5V387.9z M271.3,388.1c0,9.4-2.7,16.3-19,16.3
			c-5.9,0-9.3-0.5-15.8-1.5v-53.8l11.9-2v18.8c2.6-1,5.9-1.4,9-1.4c11.9,0,13.9,5.3,13.9,13.9L271.3,388.1L271.3,388.1z
			 M309.5,388.3c0,8.1-3.3,16-17.4,16c-14,0-17.4-7.9-17.4-16v-7.8c0-8.1,3.4-16,17.4-16c14,0,17.4,7.9,17.4,16V388.3L309.5,388.3z
			 M347.7,388.3c0,8.1-3.4,16-17.4,16c-14,0-17.4-7.9-17.4-16v-7.8c0-8.1,3.4-16,17.4-16c14,0,17.4,7.9,17.4,16V388.3L347.7,388.3z
			 M386.9,403.9H374l-10.9-18.3v18.3h-11.9v-54.8l11.9-2v35.3L374,365h12.9L375,383.9L386.9,403.9z M330.3,374.4
			c-4.1,0-5.5,2.2-5.5,5v10.1c0,2.8,1.4,5,5.5,5c4,0,5.5-2.2,5.5-5v-10.1C335.8,376.6,334.4,374.4,330.3,374.4L330.3,374.4z
			 M393.7,397c2,0,3.6,1.6,3.6,3.7c0,2.1-1.6,3.7-3.6,3.7c-2,0-3.6-1.6-3.6-3.7C390.1,398.7,391.7,397,393.7,397L393.7,397z
			 M393.7,397.6c-1.6,0-2.9,1.4-2.9,3.1c0,1.7,1.3,3.1,3,3.1c1.6,0,2.9-1.4,2.9-3.1S395.4,397.6,393.7,397.6L393.7,397.6z
			 M393,402.9h-0.7v-4.1c0.3,0,0.7-0.1,1.2-0.1c0.6,0,1,0.1,1.3,0.3c0.2,0.2,0.4,0.5,0.4,0.8c0,0.5-0.4,0.9-0.8,1v0
			c0.4,0.1,0.6,0.4,0.7,1c0.1,0.6,0.2,0.9,0.3,1h-0.7c-0.1-0.1-0.2-0.5-0.3-1.1c-0.1-0.5-0.4-0.7-0.9-0.7H393L393,402.9L393,402.9z
			 M393,400.6h0.5c0.5,0,1-0.2,1-0.7c0-0.4-0.3-0.7-1-0.7c-0.2,0-0.4,0-0.5,0V400.6L393,400.6z"/>
	</g>
</g>
</svg>
