<?xml version="1.0" encoding="utf-8"?>
<!-- Generator: Adobe Illustrator 26.0.0, SVG Export Plug-In . SVG Version: 6.00 Build 0)  -->
<svg version="1.1" id="Layer_1" xmlns="http://www.w3.org/2000/svg" xmlns:xlink="http://www.w3.org/1999/xlink" x="0px" y="0px"
	 viewBox="0 0 500 500" style="enable-background:new 0 0 500 500;" xml:space="preserve">
<style type="text/css">
	.st0{fill:#FFA000;}
	.st1{fill:#F57C00;}
	.st2{fill:#FFCA28;}
	.st3{fill:#FFFFFF;fill-opacity:0.2;}
	.st4{opacity:0.2;fill:#A52714;enable-background:new    ;}
	.st5{fill:#7C7C7C;}
	.st6{fill:#F4F4F4;}
</style>
<g>
	<g>
		<path class="st0" d="M30.4,285.6L46,186c0.2-1.2,1.1-2.2,2.4-2.4c1.2-0.2,2.4,0.4,3,1.5l16.1,30l6.4-12.2c0.5-0.9,1.5-1.5,2.5-1.5
			s2,0.6,2.5,1.5l43.4,82.7L30.4,285.6L30.4,285.6z"/>
		<path class="st1" d="M84.2,246.8l-16.7-31.7l-37,70.5L84.2,246.8z"/>
		<path class="st2" d="M122.4,285.6l-11.9-73.8c-0.2-1.1-0.9-1.9-2-2.3s-2.1-0.1-2.9,0.7l-75.2,75.3L72,308.9c2.6,1.5,5.8,1.5,8.4,0
			L122.4,285.6L122.4,285.6z"/>
		<path class="st3" d="M110.5,211.8c-0.2-1.1-0.9-1.9-2-2.3s-2.1-0.1-2.9,0.7l-14.9,15L79,202.9c-0.5-0.9-1.5-1.5-2.5-1.5
			c-1.1,0-2,0.6-2.5,1.5l-6.4,12.2l-16.1-30c-0.6-1.1-1.8-1.7-3-1.5c-1.2,0.2-2.2,1.2-2.4,2.4l-15.6,99.6h-0.1l0.1,0.1l0.4,0.2
			l74.8-74.9c0.8-0.8,1.9-1,2.9-0.7s1.8,1.2,2,2.3l11.8,73.1l0.1-0.1L110.5,211.8L110.5,211.8z M30.6,285.4L46,186.7
			c0.2-1.2,1.1-2.2,2.4-2.4c1.2-0.2,2.4,0.4,3,1.5l16.1,30l6.4-12.2c0.5-0.9,1.5-1.5,2.5-1.5s2,0.6,2.5,1.5l11.5,21.9L30.6,285.4
			L30.6,285.4z"/>
		<path class="st4" d="M80.4,308.2c-2.6,1.5-5.8,1.5-8.4,0l-41.5-23.3l-0.1,0.6L72,308.9c2.6,1.5,5.8,1.5,8.4,0l42-23.3l-0.1-0.7
			L80.4,308.2L80.4,308.2z"/>
		<path class="st5" d="M103.9,304.4c-3.5-3.8-6-7.9-6.9-13.1c-1.9-11.7,6.6-23.3,18.3-25c2.8-0.4,5.5-0.1,8.2,0.1
			c4.3,1.3,8.2,3.1,11.2,6.4c8.2,8.8,8.2,21.4,0.2,30.2c-7.5,8.3-20.5,9.3-29.7,2.3C104.8,305,104.3,304.7,103.9,304.4z
			 M130.4,289.7c0.3-2.4-0.6-4.2-2.9-5.1c-1.1-0.4-1.7-1-2.3-2.1c-2.5-5.1-9-5.9-12.8-1.7c-0.8,0.9-1.6,1.6-2.8,2
			c-2.4,0.9-4,3.4-3.9,6c0.1,2.6,2,4.9,4.6,5.7c1.7,0.5,3.5,0.2,5.3,0.3c0.8,0,1-0.4,1-1.2c0-0.8-0.5-1-1.2-1c-1.1,0-2.2,0-3.3,0
			c-2.5-0.2-4.2-1.7-4.3-3.9c-0.1-2.2,1.2-3.8,3.6-4.3c0.8-0.2,1.3-0.3,1.7-1.1c1.3-2.5,3.4-3.5,6.1-3c2.6,0.5,4.1,2.2,4.6,4.8
			c0.1,0.7,0.1,1.4,1.1,1.3c1.7-0.1,2.8,0.7,3.4,2.2C128.8,289.4,129.6,289.6,130.4,289.7z M126.8,293.8c-2.6,0.4-4.7,0.7-6.9,0.9
			c-0.9,0.1-1.5,0.4-1.4,1.5c0.1,3.8-0.1,3.2,2.8,2c0.9-0.4,1.8-0.7,2.7-1.1c2.5-1.1,5.1-2.2,8.2-3.5c-4.6-1.9-8.5-3.6-12.4-5.3
			c-0.3-0.1-0.9-0.3-1,0c-0.2,1.1-0.2,2.2-0.2,3.3c0,0.9,0.9,0.8,1.5,0.9C122.1,293,124.3,292.8,126.8,293.8z"/>
		<path class="st6" d="M130.4,289.7c-0.8-0.1-1.7-0.3-2-1.1c-0.7-1.6-1.8-2.3-3.4-2.2c-1,0.1-1-0.6-1.1-1.3c-0.5-2.6-2-4.3-4.6-4.8
			c-2.7-0.5-4.8,0.5-6.1,3c-0.4,0.8-1,0.9-1.7,1.1c-2.4,0.5-3.8,2.2-3.6,4.3c0.1,2.2,1.8,3.8,4.3,3.9c1.1,0.1,2.2,0,3.3,0
			c0.7,0,1.2,0.2,1.2,1c0,0.7-0.2,1.2-1,1.2c-1.8,0-3.6,0.2-5.3-0.3c-2.6-0.8-4.5-3.1-4.6-5.7c-0.1-2.5,1.4-5,3.9-6
			c1.2-0.4,2-1.1,2.8-2c3.8-4.2,10.3-3.3,12.8,1.7c0.5,1.1,1.2,1.7,2.3,2.1C129.8,285.5,130.7,287.3,130.4,289.7z"/>
		<path class="st6" d="M126.8,293.8c-2.5-1-4.7-0.8-6.7-1.2c-0.6-0.1-1.5,0-1.5-0.9c0-1.1,0-2.2,0.2-3.3c0.1-0.3,0.6-0.2,1,0
			c3.9,1.7,7.9,3.4,12.4,5.3c-3.1,1.3-5.7,2.4-8.2,3.5c-0.9,0.4-1.8,0.7-2.7,1.1c-2.9,1.3-2.7,1.9-2.8-2c0-1.1,0.5-1.4,1.4-1.5
			C122,294.4,124.1,294.1,126.8,293.8z"/>
	</g>
	<g>
		<path class="st5" d="M152.9,270.2h-8.5v-65.4h38.4v8h-30v21.5h27v7.8h-27L152.9,270.2L152.9,270.2z M198.8,214.2
			c-2,2-5.2,2.3-7.6,0.8c-2.4-1.6-3.3-4.6-2.2-7.2c1.1-2.6,3.9-4.1,6.7-3.6s4.8,3,4.8,5.8C200.6,211.6,200,213.1,198.8,214.2
			L198.8,214.2L198.8,214.2z M198.8,270.2h-8.5v-44.7h8.5V270.2L198.8,270.2z M217.4,270.2h-8.5v-44.7h8.1v7.3h0.4
			c1-2.6,2.9-4.7,5.3-6c2.3-1.5,5-2.3,7.8-2.4c2.2-0.1,4.3,0.3,6.3,1.1l-3.2,7.8c-1.5-0.5-3-0.7-4.5-0.6c-3.1,0-6.1,1.3-8.1,3.6
			c-2.4,2.4-3.5,5.6-3.5,9.5L217.4,270.2L217.4,270.2z M260,271.6c-6.8,0-12.3-2.3-16.6-6.8c-4.3-4.5-6.4-10.2-6.4-17
			c-0.1-6.2,2.1-12.2,6.2-16.8c3.9-4.6,9.8-7.2,15.9-7c6.7,0,12,2.2,16.1,6.5s6,10.1,6,17.3l-0.1,1.6h-35.6
			c0.2,4.5,1.8,8.1,4.6,10.7c2.6,2.5,6.1,4,9.8,3.9c6.1,0,10.2-2.6,12.3-7.7l7.5,3.1c-1.5,3.5-4.1,6.6-7.3,8.7
			C269,270.5,264.9,271.6,260,271.6L260,271.6z M272.2,242.4c-0.2-2.6-1.4-5-3.5-7.3c-2.2-2.3-5.4-3.4-9.7-3.4c-3-0.1-5.9,1-8.1,2.9
			c-2.4,2.1-4,4.8-4.7,7.8L272.2,242.4L272.2,242.4z M311.7,271.6c-3.2,0.1-6.4-0.7-9.2-2.1c-2.5-1.2-4.6-3.1-6.1-5.5h-0.4v6.2H288
			v-65.4h8.5v20.6l-0.4,6.2h0.4c1.5-2.3,3.6-4.2,6.1-5.5c2.8-1.5,6-2.2,9.2-2.2c5.8,0,10.9,2.3,15.1,6.8c4.2,4.6,6.3,10.2,6.3,17
			c0,6.8-2.1,12.4-6.3,17C322.6,269.4,317.6,271.7,311.7,271.6L311.7,271.6z M310.4,264c3.9,0,7.5-1.6,10.1-4.4
			c2.8-3,4.2-6.9,4.2-11.7s-1.4-8.8-4.2-11.7c-2.6-2.8-6.3-4.4-10.1-4.4c-3.9,0-7.5,1.6-10.1,4.4c-2.8,2.9-4.2,6.8-4.2,11.8
			c0,4.9,1.4,8.9,4.2,11.8C302.8,262.5,306.5,264,310.4,264L310.4,264L310.4,264z M354.7,271.6c-4.8,0-8.8-1.4-12-4.1
			s-4.8-6.4-4.8-10.9c0-4.9,1.9-8.7,5.7-11.5c3.8-2.8,8.5-4.2,14.1-4.2c5,0,9,0.9,12.2,2.7v-1.3c0.1-3-1.1-5.9-3.4-7.9
			c-2.3-2-5.3-3-8.4-2.9c-2.3,0-4.6,0.6-6.7,1.7c-1.9,1-3.4,2.7-4.1,4.8l-7.7-3.3c1-2.7,3.1-5.2,6.2-7.5c3.1-2.3,7.1-3.4,12.1-3.4
			c5.7,0,10.5,1.7,14.4,5s5.7,8,5.7,14.2v27.1h-8.1V264h-0.4C366.2,269.1,361.2,271.6,354.7,271.6L354.7,271.6z M356.1,264
			c3.6,0,7-1.4,9.5-3.8c2.7-2.3,4.3-5.6,4.3-9.2c-2.4-1.9-6-2.9-10.8-2.9c-4.1,0-7.2,0.9-9.3,2.6c-1.9,1.5-3.1,3.8-3.1,6.2
			c0,2.1,1.1,4.1,2.9,5.2C351.5,263.4,353.8,264,356.1,264L356.1,264L356.1,264z M402.9,271.6c-5,0-9.2-1.2-12.5-3.7
			c-3.2-2.3-5.7-5.5-7.2-9.1l7.5-3.1c2.4,5.6,6.5,8.4,12.2,8.4c2.3,0.1,4.5-0.5,6.5-1.7c1.6-1,2.5-2.7,2.5-4.6
			c0-2.9-2.1-4.9-6.2-5.9l-9.1-2.2c-3-0.8-5.8-2.2-8.2-4.2c-2.6-2-4-5-3.9-8.3c0-4,1.8-7.2,5.3-9.6c3.7-2.5,8.1-3.8,12.6-3.7
			c3.7-0.1,7.4,0.9,10.7,2.7c3.1,1.7,5.4,4.5,6.7,7.7l-7.4,3c-1.7-4-5.1-5.9-10.3-5.9c-2.2-0.1-4.4,0.5-6.3,1.6
			c-1.6,0.8-2.6,2.4-2.6,4.2c0,2.6,2,4.3,6,5.2l8.9,2.1c4.2,1,7.4,2.6,9.4,5c2,2.2,3,5.1,3,8c0,3.9-1.8,7.7-5,10
			C412.4,270.3,408.1,271.6,402.9,271.6L402.9,271.6z M448.5,271.6c-6.8,0-12.3-2.3-16.6-6.8c-4.3-4.5-6.4-10.2-6.4-17.1
			c-0.1-6.2,2.1-12.2,6.2-16.8c4-4.6,9.8-7.2,15.9-7c6.7,0,12.1,2.2,16.1,6.5c4,4.3,6,10.1,6,17.3l-0.1,1.6h-35.6
			c0.2,4.5,1.8,8.1,4.6,10.7c2.6,2.5,6.2,4,9.8,3.9c6.1,0,10.2-2.6,12.3-7.7l7.5,3.1c-1.5,3.5-4.1,6.6-7.3,8.7
			C457.5,270.5,453.4,271.6,448.5,271.6L448.5,271.6z M460.6,242.4c-0.2-2.6-1.4-5-3.5-7.3s-5.4-3.4-9.7-3.4c-3-0.1-5.9,1-8.1,2.9
			c-2.4,2.1-4,4.8-4.7,7.8L460.6,242.4L460.6,242.4z"/>
		<g>
			<path class="st5" d="M252.7,308.8c-1.1,0.5-3.2,1.1-5.9,1.1c-6.3,0-11-4-11-11.3c0-7,4.7-11.7,11.6-11.7c2.8,0,4.5,0.6,5.3,1
				l-0.7,2.3c-1.1-0.5-2.6-0.9-4.5-0.9c-5.2,0-8.7,3.3-8.7,9.2c0,5.5,3.1,9,8.6,9c1.8,0,3.5-0.4,4.7-0.9L252.7,308.8z"/>
			<path class="st5" d="M256.2,286.1h2.9v23.5h-2.9V286.1z"/>
			<path class="st5" d="M278.5,301.4c0,5.9-4.1,8.5-8,8.5c-4.3,0-7.7-3.2-7.7-8.2c0-5.4,3.5-8.5,7.9-8.5
				C275.4,293.2,278.5,296.5,278.5,301.4z M265.8,301.6c0,3.5,2,6.1,4.9,6.1c2.8,0,4.9-2.6,4.9-6.2c0-2.7-1.4-6.1-4.8-6.1
				C267.3,295.4,265.8,298.5,265.8,301.6z"/>
			<path class="st5" d="M295.6,305.2c0,1.7,0,3.1,0.1,4.4h-2.6l-0.2-2.6h-0.1c-0.8,1.3-2.4,3-5.3,3c-2.5,0-5.5-1.4-5.5-7v-9.4h2.9
				v8.9c0,3,0.9,5.1,3.6,5.1c1.9,0,3.3-1.4,3.8-2.6c0.2-0.4,0.3-1,0.3-1.5v-9.8h2.9V305.2z"/>
			<path class="st5" d="M314.2,286.1v19.3c0,1.4,0,3,0.1,4.1h-2.6l-0.1-2.8h-0.1c-0.9,1.8-2.8,3.1-5.5,3.1c-3.9,0-6.8-3.3-6.8-8.1
				c0-5.3,3.3-8.6,7.2-8.6c2.4,0,4.1,1.2,4.8,2.4h0.1v-9.6H314.2z M311.3,300.1c0-0.4,0-0.9-0.1-1.2c-0.4-1.9-2-3.4-4.2-3.4
				c-3,0-4.8,2.6-4.8,6.2c0,3.2,1.6,5.9,4.7,5.9c2,0,3.7-1.3,4.3-3.5c0.1-0.4,0.1-0.8,0.1-1.3V300.1z"/>
			<path class="st5" d="M344.9,299.8c-0.2-3.1-0.4-6.8-0.3-9.6h-0.1c-0.8,2.6-1.7,5.4-2.8,8.5l-3.9,10.8h-2.2l-3.6-10.6
				c-1.1-3.1-1.9-6-2.6-8.7h-0.1c-0.1,2.8-0.2,6.5-0.4,9.8l-0.6,9.6h-2.7l1.6-22.3h3.7l3.8,10.8c0.9,2.7,1.7,5.2,2.2,7.5h0.1
				c0.6-2.2,1.4-4.7,2.3-7.5l4-10.8h3.7l1.4,22.3h-2.8L344.9,299.8z"/>
			<path class="st5" d="M354.4,302.1c0.1,3.9,2.6,5.6,5.5,5.6c2.1,0,3.3-0.4,4.4-0.8l0.5,2.1c-1,0.5-2.8,1-5.3,1
				c-4.9,0-7.9-3.2-7.9-8.1c0-4.8,2.8-8.6,7.5-8.6c5.2,0,6.6,4.6,6.6,7.5c0,0.6-0.1,1.1-0.1,1.4H354.4z M363,300
				c0-1.9-0.8-4.7-4-4.7c-2.9,0-4.2,2.7-4.5,4.7H363z"/>
			<path class="st5" d="M369,306.6c0.9,0.6,2.4,1.2,3.8,1.2c2.1,0,3.1-1.1,3.1-2.4c0-1.4-0.8-2.1-3-2.9c-2.9-1-4.2-2.6-4.2-4.5
				c0-2.6,2.1-4.7,5.5-4.7c1.6,0,3,0.5,3.9,1l-0.7,2.1c-0.6-0.4-1.8-0.9-3.3-0.9c-1.7,0-2.7,1-2.7,2.2c0,1.3,1,1.9,3,2.7
				c2.8,1.1,4.2,2.4,4.2,4.8c0,2.8-2.2,4.8-6,4.8c-1.8,0-3.4-0.4-4.5-1.1L369,306.6z"/>
			<path class="st5" d="M382.1,306.6c0.9,0.6,2.4,1.2,3.8,1.2c2.1,0,3.1-1.1,3.1-2.4c0-1.4-0.8-2.1-3-2.9c-2.9-1-4.2-2.6-4.2-4.5
				c0-2.6,2.1-4.7,5.5-4.7c1.6,0,3,0.5,3.9,1l-0.7,2.1c-0.6-0.4-1.8-0.9-3.3-0.9c-1.7,0-2.7,1-2.7,2.2c0,1.3,1,1.9,3,2.7
				c2.8,1.1,4.2,2.4,4.2,4.8c0,2.8-2.2,4.8-6,4.8c-1.8,0-3.4-0.4-4.5-1.1L382.1,306.6z"/>
			<path class="st5" d="M404.4,309.6l-0.2-2h-0.1c-0.9,1.3-2.6,2.4-4.9,2.4c-3.2,0-4.9-2.3-4.9-4.6c0-3.9,3.4-6,9.6-5.9V299
				c0-1.3-0.4-3.7-3.6-3.7c-1.5,0-3,0.5-4.2,1.2l-0.7-1.9c1.3-0.9,3.2-1.4,5.3-1.4c4.9,0,6.1,3.3,6.1,6.5v6c0,1.4,0.1,2.7,0.3,3.8
				H404.4z M404,301.4c-3.2-0.1-6.8,0.5-6.8,3.6c0,1.9,1.3,2.8,2.7,2.8c2.1,0,3.4-1.3,3.9-2.7c0.1-0.3,0.2-0.6,0.2-0.9V301.4z"/>
			<path class="st5" d="M425.3,293.6c-0.1,1.2-0.1,2.4-0.1,4.4v9.3c0,3.7-0.7,5.9-2.3,7.3c-1.6,1.5-3.8,1.9-5.8,1.9
				c-1.9,0-4-0.5-5.3-1.3l0.7-2.2c1.1,0.7,2.7,1.3,4.7,1.3c3,0,5.2-1.6,5.2-5.6v-1.8h-0.1c-0.9,1.5-2.6,2.7-5.1,2.7
				c-4,0-6.8-3.4-6.8-7.8c0-5.4,3.5-8.5,7.2-8.5c2.8,0,4.3,1.5,5,2.8h0.1l0.1-2.4H425.3z M422.3,299.9c0-0.5,0-0.9-0.2-1.3
				c-0.5-1.7-2-3.1-4.1-3.1c-2.8,0-4.8,2.3-4.8,6c0,3.1,1.6,5.8,4.7,5.8c1.8,0,3.4-1.1,4-3c0.2-0.5,0.2-1.1,0.2-1.6V299.9z"/>
			<path class="st5" d="M433,289.1c0,1-0.7,1.8-1.9,1.8c-1,0-1.8-0.8-1.8-1.8c0-1,0.8-1.8,1.8-1.8C432.3,287.2,433,288,433,289.1z
				 M429.8,309.6v-16h2.9v16H429.8z"/>
			<path class="st5" d="M437.5,297.9c0-1.7,0-3-0.1-4.3h2.6l0.2,2.6h0.1c0.8-1.5,2.6-3,5.3-3c2.2,0,5.7,1.3,5.7,6.8v9.6h-2.9v-9.2
				c0-2.6-1-4.7-3.7-4.7c-1.9,0-3.4,1.4-3.9,3c-0.1,0.4-0.2,0.9-0.2,1.4v9.6h-2.9V297.9z"/>
			<path class="st5" d="M469.6,293.6c-0.1,1.2-0.1,2.4-0.1,4.4v9.3c0,3.7-0.7,5.9-2.3,7.3c-1.6,1.5-3.8,1.9-5.8,1.9
				c-1.9,0-4-0.5-5.3-1.3l0.7-2.2c1.1,0.7,2.7,1.3,4.7,1.3c3,0,5.2-1.6,5.2-5.6v-1.8h-0.1c-0.9,1.5-2.6,2.7-5.1,2.7
				c-4,0-6.8-3.4-6.8-7.8c0-5.4,3.5-8.5,7.2-8.5c2.8,0,4.3,1.5,5,2.8h0.1l0.1-2.4H469.6z M466.6,299.9c0-0.5,0-0.9-0.2-1.3
				c-0.5-1.7-2-3.1-4.1-3.1c-2.8,0-4.8,2.3-4.8,6c0,3.1,1.6,5.8,4.7,5.8c1.8,0,3.4-1.1,4-3c0.2-0.5,0.2-1.1,0.2-1.6V299.9z"/>
		</g>
	</g>
</g>
</svg>
