<?xml version="1.0" encoding="utf-8"?>
<!-- Generator: Adobe Illustrator 26.0.0, SVG Export Plug-In . SVG Version: 6.00 Build 0)  -->
<svg version="1.1" id="Layer_1" xmlns="http://www.w3.org/2000/svg" xmlns:xlink="http://www.w3.org/1999/xlink" x="0px" y="0px"
	 viewBox="0 0 500 500" style="enable-background:new 0 0 500 500;" xml:space="preserve">
<style type="text/css">
	.st0{clip-path:url(#SVGID_00000067216846434572574790000008349353350531715466_);}
	.st1{fill:#F72A30;}
</style>
<g>
	<defs>
		<rect id="SVGID_1_" x="25" y="214.6" width="450" height="70.9"/>
	</defs>
	<clipPath id="SVGID_00000106115059124220564620000015458726673515945624_">
		<use xlink:href="#SVGID_1_"  style="overflow:visible;"/>
	</clipPath>
	<g style="clip-path:url(#SVGID_00000106115059124220564620000015458726673515945624_);">
		<path class="st1" d="M39.7,230.1v12.4c0,0.4,0.3,0.7,0.7,0.7h17.3c0.4,0,0.7,0.3,0.7,0.7v12.4c0,0.4-0.3,0.7-0.7,0.7H40.4
			c-0.4,0-0.7,0.3-0.7,0.7v26.1c0,0.4-0.3,0.7-0.7,0.7H25.7c-0.4,0-0.7-0.3-0.7-0.7v-67.4c0-0.4,0.3-0.7,0.7-0.7H61
			c0.4,0,0.7,0.3,0.7,0.7v12.4c0,0.4-0.3,0.7-0.7,0.7H40.4C40,229.4,39.7,229.7,39.7,230.1z"/>
		<path class="st1" d="M75.5,283.7v-67.4c0-0.4,0.3-0.7,0.7-0.7h13.3c0.4,0,0.7,0.3,0.7,0.7v67.4c0,0.4-0.3,0.7-0.7,0.7H76.2
			C75.8,284.4,75.5,284.1,75.5,283.7z"/>
		<path class="st1" d="M120.3,244.1c0,0.4,0.3,0.7,0.7,0.7h12.2c10,0,10-15.4,0-15.4H121c-0.4,0-0.7,0.3-0.7,0.7V244.1z M142,284
			l-14.4-25.5c-0.1-0.2-0.4-0.4-0.7-0.4H121c-0.4,0-0.7,0.3-0.7,0.7v24.9c0,0.4-0.3,0.7-0.7,0.7h-13.2c-0.4,0-0.7-0.3-0.7-0.7v-67.4
			c0-0.4,0.3-0.7,0.7-0.7h28.3c25.9,0,28.7,33.6,8.1,40.1c-0.4,0.1-0.6,0.6-0.4,1l16,26.6c0.3,0.5-0.1,1-0.6,1h-15
			C142.4,284.4,142.2,284.2,142,284z"/>
		<path class="st1" d="M254.8,270.7h-4.2h-8.1c-0.4,0-0.7-0.3-0.7-0.7v-12.4c0-0.4,0.3-0.7,0.7-0.7h12.3c2,0,3.8,0.7,5.1,1.8
			c0.5,0.4,0.2,1.2-0.5,1.2h-8.2c-0.2,0-0.4,0.1-0.6,0.2c-1,1.1-0.2,2.3,0.9,2.3h10.5c0,0,0,0,0,0h4.9c0.4,0,0.7,0.3,0.7,0.6
			c0,0.4-0.3,0.7-0.7,0.7h-4.1c-0.4,0-0.7,0.3-0.7,0.6C261.9,268,258.8,270.7,254.8,270.7z M235.6,232.8h5.4c0.4,0,0.7-0.3,0.7-0.7
			V230c0-0.4,0.3-0.7,0.7-0.7h12.3c3.4,0,5.7,2,6.5,4.8c0.1,0.4-0.2,0.9-0.7,0.9h-2.2c-0.2,0-0.4,0.1-0.6,0.2
			c-1,1.1-0.2,2.3,0.9,2.3h2.8c0,0,0,0,0,0h4.1c0.4,0,0.7,0.3,0.7,0.6c0,0.4-0.3,0.7-0.7,0.7h-3.9c-0.3,0-0.6,0.2-0.7,0.4
			c-1,2.3-3.2,3.9-6.2,3.9h-4.2h-8.1c-0.4,0-0.7-0.3-0.7-0.7v-7.7c0-0.4-0.3-0.7-0.7-0.7h-5.5c-0.4,0-0.7-0.3-0.7-0.7
			C234.9,233.1,235.2,232.8,235.6,232.8z M262.4,276.4h10.6c0.2,0,0.5-0.1,0.6-0.3c2.7-3.4,4.3-7.7,4.3-12.3
			c0-5.1-2.5-10.1-6.8-13.2c-0.4-0.3-0.4-0.8,0-1.1c4.1-3.1,5.8-8.1,6-13c0.3-12.1-7.8-20.9-20.9-20.9h-28.4c-0.4,0-0.7,0.3-0.7,0.7
			v58.1c0,0.4-0.3,0.7-0.7,0.7h-7c-0.2,0-0.4,0.1-0.6,0.2c-1,1.1-0.2,2.3,0.9,2.3h7.4v0h8c0.4,0,0.7,0.3,0.7,0.6
			c0,0.4-0.3,0.7-0.7,0.7h-7.3c-0.4,0-0.7,0.3-0.7,0.7v4.1c0,0.4,0.3,0.7,0.7,0.7h28.4c5.7,0,11-2.1,14.9-5.6
			c0.5-0.4,0.2-1.2-0.5-1.2h-8.1c-0.4,0-0.7-0.3-0.7-0.7C261.7,276.6,262,276.4,262.4,276.4z"/>
		<path class="st1" d="M359.9,251.4h-8.8c-1.2,0-2.2,0.8-2.3,1.9c-0.1,0.4-0.1,0.9-0.2,1.3c-0.3,1.4-1.6,2.4-3.1,2.4h-14.7
			c-0.8,0-1.4,0.6-1.4,1.3c0,0.7,0.6,1.3,1.4,1.3h16.2c0,0,0,0,0,0h2.8c0.4,0,0.7,0.3,0.7,0.6c0,0.4-0.3,0.7-0.7,0.7h-0.5
			c-1.8,0-3.4,0.8-4.4,2.2c-3.6,4.8-9.6,8.2-17.8,8.2c-15.2,0-22.5-11.3-22.1-22.2c0.1-2.1-1.7-3.8-3.9-3.8h-4.1
			c-0.4,0-0.7-0.3-0.7-0.6c0-0.4,0.3-0.7,0.7-0.7h5.3c2,0,3.8-1.1,4.6-2.9c3-6.9,9.8-12.3,20.2-12.3c12.2,0,19.4,7.3,21.4,15.9
			c0.4,1.5-0.9,2.9-2.5,2.9h-1.7c-0.2,0-0.4,0.1-0.6,0.2c-1,1.1-0.2,2.3,0.9,2.3h4.5c0,0,0,0,0,0h10.9c0.4,0,0.7,0.3,0.7,0.7
			C360.6,251.2,360.3,251.4,359.9,251.4z M362,236.9h-5.6c-0.4,0-0.7-0.3-0.7-0.6c0-0.4,0.3-0.7,0.7-0.7h2.4c1.5,0,2.5-1.5,1.8-2.8
			c-5.6-10.5-16.9-18.3-33.7-18.3c-14.4,0-24.7,5.7-30.9,13.9c-1.2,1.6-3.1,2.5-5.2,2.5h-5.3c-0.2,0-0.4,0.1-0.6,0.2
			c-1,1.1-0.2,2.3,0.9,2.3h7c0,0,0,0,0,0h8.4c0.4,0,0.7,0.3,0.7,0.6c0,0.4-0.3,0.7-0.7,0.7h-5.9c-2,0-3.8,1.2-4.4,3
			c-7.3,20.7,4.7,47.6,35.9,47.6c31.4,0,43.4-27.3,35.8-48C362.6,237.1,362.3,236.9,362,236.9z"/>
		<path class="st1" d="M412,278.8h4.3c2.1,0,3.8-1.6,3.8-3.5v-4c0-0.4-0.3-0.7-0.7-0.7h-21.9c-0.4,0-0.7-0.3-0.7-0.7v-28.5
			c0-1.1-1-2.1-2.2-2.1H393c-0.4,0-0.7-0.3-0.7-0.6c0-0.4,0.3-0.7,0.7-0.7h3c0.4,0,0.7-0.3,0.7-0.7v-21.2c0-0.4-0.3-0.7-0.7-0.7
			h-13.2c-0.4,0-0.7,0.3-0.7,0.7v3c0,1.2-1,2.1-2.2,2.1h-10.5c-0.2,0-0.4,0.1-0.6,0.2c-1,1.1-0.2,2.4,0.9,2.4H382v0h3
			c0.4,0,0.7,0.3,0.7,0.6c0,0.4-0.3,0.7-0.7,0.7h-2.3c-0.4,0-0.7,0.3-0.7,0.7v23.4c0,0.4-0.3,0.7-0.7,0.7h-4.4
			c-0.2,0-0.4,0.1-0.6,0.2c-1,1.1-0.2,2.3,0.9,2.3h4.8v0h4.3c0.4,0,0.7,0.3,0.7,0.6c0,0.4-0.3,0.7-0.7,0.7h-2.1
			c-1.2,0-2.3,1-2.3,2.1v14.1c0,1.3-1.1,2.3-2.4,2.3h-10.3c-0.2,0-0.4,0.1-0.6,0.2c-1,1.1-0.2,2.3,0.9,2.3H382v0h3
			c0.4,0,0.7,0.3,0.7,0.6c0,0.4-0.3,0.7-0.7,0.7h-2c-0.6,0-1,0.4-1,0.9c0,0.5-0.4,0.9-1,0.9h-6.7c-0.2,0-0.4,0.1-0.5,0.2
			c-1,1.1-0.2,2.3,0.9,2.3h7.4v0h8c0.4,0,0.7,0.3,0.7,0.6c0,0.4-0.3,0.7-0.7,0.7h-6.8c-0.7,0-1.2,0.5-1.2,1.1c0,0.6,0.5,1.1,1.2,1.1
			h36.1c0.4,0,0.7-0.3,0.7-0.7v-2.9c0-0.4-0.3-0.7-0.7-0.7H412c-0.4,0-0.7-0.3-0.7-0.7C411.3,279.1,411.6,278.8,412,278.8z"/>
		<path class="st1" d="M467,218.9h6.7c0.7,0,1.3-0.6,1.3-1.2v-1.3c0-0.4-0.3-0.7-0.7-0.7h-41.2h-9.4h-5.3c-0.8,0-1.4,0.6-1.4,1.3
			c0,0.7,0.6,1.3,1.4,1.3h5.3v0h10.1c0.4,0,0.7,0.3,0.7,0.6c0,0.4-0.3,0.7-0.7,0.7h-8.4c-0.9,0-1.7,0.7-1.7,1.6v2.1
			c0,1.1,0.9,2,2.1,2h1.7c0.4,0,0.7,0.3,0.7,0.6c0,0.4-0.3,0.7-0.7,0.7h-2.2c-0.9,0-1.7,0.7-1.7,1.6c0,0.7,0.6,1.3,1.4,1.3h16.2
			c0.4,0,0.7,0.3,0.7,0.7v9.8c0,0.4-0.3,0.7-0.7,0.7h-12.3c-0.2,0-0.4,0.1-0.6,0.2c-1,1.1-0.2,2.3,0.9,2.3H442v0h2.7
			c0.4,0,0.7,0.3,0.7,0.6c0,0.4-0.3,0.7-0.7,0.7h-2c-0.4,0-0.7,0.3-0.7,0.7v18c0,0.4-0.3,0.7-0.7,0.7h-3.2c-0.8,0-1.4,0.6-1.4,1.3
			c0,0.7,0.6,1.3,1.4,1.3h3.9v0h6.6c0.4,0,0.7,0.3,0.7,0.6c0,0.4-0.3,0.7-0.7,0.7h-5.9c-0.4,0-0.7,0.3-0.7,0.7v4.7
			c0,0.4-0.3,0.7-0.7,0.7h-8c-0.8,0-1.4,0.6-1.4,1.3c0,0.7,0.6,1.3,1.4,1.3h8.8v0h6.6c0.4,0,0.7,0.3,0.7,0.6c0,0.4-0.3,0.7-0.7,0.7
			h-5.9c-0.4,0-0.7,0.3-0.7,0.7v5.4c0,0.4,0.3,0.7,0.7,0.7h12.8c0.7,0,1.2-0.5,1.2-1.1c0-0.6-0.6-1.1-1.2-1.1h-6.8
			c-0.4,0-0.7-0.3-0.7-0.6c0-0.4,0.3-0.7,0.7-0.7h5.6c1.4,0,2.5-1,2.5-2.3v-20.3c0-0.4-0.3-0.7-0.7-0.7h-2c-0.4,0-0.7-0.3-0.7-0.6
			c0-0.4,0.3-0.7,0.7-0.7h2c0.4,0,0.7-0.3,0.7-0.7v-17.6c0-0.6-0.5-1.1-1.2-1.1h-6.9c-0.4,0-0.7-0.3-0.7-0.6c0-0.4,0.3-0.7,0.7-0.7
			h4.8c1.8,0,3.2-1.3,3.2-3V230c0-0.4,0.3-0.7,0.7-0.7h16.9c0.4,0,0.7-0.3,0.7-0.7v-0.9c0-0.7-0.6-1.2-1.3-1.2h-1.3
			c-0.4,0-0.7-0.3-0.7-0.6c0-0.4,0.3-0.7,0.7-0.7h1.2c0.8,0,1.5-0.6,1.5-1.4v-2.5c0-0.6-0.5-1.1-1.2-1.1H467c-0.4,0-0.7-0.3-0.7-0.7
			C466.3,219.2,466.6,218.9,467,218.9z"/>
		<path class="st1" d="M211.5,283.7v-12.4c0-0.4-0.3-0.7-0.7-0.7h-21.9c-0.4,0-0.7-0.3-0.7-0.7v-12.4c0-0.4,0.3-0.7,0.7-0.7h17.9
			c0.4,0,0.7-0.3,0.7-0.7v-4.9c0,0,0,0,0,0v-2.6c0,0,0,0,0,0v-4.9c0-0.4-0.3-0.7-0.7-0.7h-17.9c-0.4,0-0.7-0.3-0.7-0.7v-12.4
			c0-0.4,0.3-0.7,0.7-0.7h20.7c0.4,0,0.7-0.3,0.7-0.7v-12.4c0-0.4-0.3-0.7-0.7-0.7h-35.4c-0.4,0-0.7,0.3-0.7,0.7v15.3h0v2.7
			c0,0,0,0,0,0l0,3.2h0v5.8h0v15.3h0l0,2.4v0.9c0,0,0,0,0,0.1l0,3.2h0v0c0,0,0,0,0,0h0l0,1.9c0,0,0,0.1,0,0.1v16.7
			c0,0.4,0.3,0.7,0.7,0.7h36.6C211.2,284.4,211.5,284.1,211.5,283.7z"/>
	</g>
</g>
</svg>
