<?xml version="1.0" encoding="utf-8"?>
<!-- Generator: Adobe Illustrator 26.0.0, SVG Export Plug-In . SVG Version: 6.00 Build 0)  -->
<svg version="1.1" id="Layer_1" xmlns="http://www.w3.org/2000/svg" xmlns:xlink="http://www.w3.org/1999/xlink" x="0px" y="0px"
	 viewBox="0 0 500 500" style="enable-background:new 0 0 500 500;" xml:space="preserve">
<style type="text/css">
	.st0{fill-rule:evenodd;clip-rule:evenodd;fill:url(#SVGID_1_);}
	.st1{fill-rule:evenodd;clip-rule:evenodd;fill:url(#SVGID_00000093150642500676422400000010264686603389870759_);}
	.st2{fill:#181818;}
</style>
<g>
	<g>
		<linearGradient id="SVGID_1_" gradientUnits="userSpaceOnUse" x1="174.8027" y1="327.306" x2="174.8027" y2="52.5958">
			<stop  offset="0" style="stop-color:#E4272C"/>
			<stop  offset="1" style="stop-color:#F8DC19"/>
		</linearGradient>
		<path class="st0" d="M169.3,274.1c2.7,21.3,14.1,37.4,31.7,53.2l-6.3-3.2c-49.9-21.7-84.8-71.9-84.8-130.2
			c0-74.1,56.6-135.8,129.8-141.3c-73.2,5.5-129.8,67.1-129.8,141.3c0-74.1,56.6-135.8,129.8-141.3
			C155.8,69.3,75.5,167.3,169.3,274.1z"/>
		
			<linearGradient id="SVGID_00000020366774710704121760000012115485812616014775_" gradientUnits="userSpaceOnUse" x1="281.374" y1="336.524" x2="281.374" y2="52.7255">
			<stop  offset="0" style="stop-color:#E4272C"/>
			<stop  offset="1" style="stop-color:#F8DC19"/>
		</linearGradient>
		<path style="fill-rule:evenodd;clip-rule:evenodd;fill:url(#SVGID_00000020366774710704121760000012115485812616014775_);" d="
			M360.8,148.7c-6.3-45.9-41.2-78-104.6-96.4l0,0c74.9,3.3,134,65.8,134,141.5c0,78.3-58.3,138.8-134.1,142.2
			c-7.2,0.4-14.3-0.9-21.3-3.1V173.4c2.3-3.5,2.3-7.1,0-10.6v-34h7.7c-3-2-5.6-3.6-7.7-4.5v-9.8c40.6,15.7,59.5,17.5,56.7,5.2
			c3.5,10.1,0.5,14.7-9.2,13.7c-11.2-1.7-18.1-1-20.8,2.4c20,10,30.8,19.8,32.1,29.2c1.9,15.9-5.6,33.4-22.4,52.6
			c-10.6,13.3-5.1,27.5,12,29.8C336.2,244.7,362.1,211.8,360.8,148.7L360.8,148.7z M234.7,333c-16.2-5.1-30.8-15.3-37.8-22.4l0,0
			c-12.5-13.2-21.1-34.2-24.2-64.6c0-0.2-0.1-0.4-0.1-0.5v-10.3c2-24.4,18-41.6,48.4-51.4c6.9-3.4,11.5-6.9,13.7-10.4V333L234.7,333
			z M234.7,162.8c-0.9-1.6-2.4-3.1-4.3-4.7l0,0c-1.7-1.7-5.2-3.3-10.6-5c-12.3-0.4-19,2.8-20,9.4l0,0c-20.9-9.4-21.5-20.1-1.8-32
			c3.8-1.5,9.5-2,16.9-1.7c-3.1-13.8,2.1-19.1,15.7-15.8c1.4,0.5,2.8,1.1,4.1,1.6v9.8c-6.2-2.9-8.6-1.4-7.3,4.5h7.3V162.8z"/>
	</g>
	<g>
		<path class="st2" d="M127.1,417.6H99.2v29.1H84.7v-71.2h45.8v11.9H99.2v18.4h27.9V417.6z"/>
		<path class="st2" d="M138,380.1c0-2.1,0.7-3.9,2.1-5.2c1.4-1.4,3.3-2.1,5.7-2.1c2.4,0,4.3,0.7,5.7,2.1c1.4,1.4,2.1,3.1,2.1,5.2
			c0,2.2-0.7,3.9-2.2,5.3c-1.4,1.4-3.3,2.1-5.7,2.1c-2.4,0-4.2-0.7-5.7-2.1C138.7,384,138,382.2,138,380.1z M152.8,446.7h-14v-52.9
			h14V446.7z"/>
		<path class="st2" d="M193.7,407c-1.9-0.3-3.6-0.4-5-0.4c-5.3,0-8.8,1.8-10.4,5.4v34.6h-14v-52.9h13.2l0.4,6.3
			c2.8-4.9,6.7-7.3,11.7-7.3c1.5,0,3,0.2,4.4,0.6L193.7,407z"/>
		<path class="st2" d="M223.6,447.6c-7.7,0-13.9-2.4-18.7-7.1c-4.8-4.8-7.2-11.1-7.2-19v-1.4c0-5.3,1-10.1,3-14.3
			c2-4.2,4.9-7.4,8.6-9.7c3.7-2.3,8-3.4,12.7-3.4c7.2,0,12.8,2.3,16.9,6.8s6.2,11,6.2,19.4v5.8h-33.3c0.5,3.5,1.8,6.2,4.1,8.3
			c2.3,2.1,5.2,3.1,8.6,3.1c5.4,0,9.6-2,12.6-5.9l6.9,7.8c-2.1,3-4.9,5.3-8.5,7C231.9,446.8,228,447.6,223.6,447.6z M222,404.2
			c-2.8,0-5,0.9-6.7,2.8c-1.7,1.9-2.8,4.6-3.3,8.2h19.4v-1.1c-0.1-3.1-0.9-5.6-2.5-7.3C227.3,405,225,404.2,222,404.2z"/>
		<path class="st2" d="M300.2,420.7c0,8.5-1.8,15.1-5.4,19.8c-3.6,4.7-8.6,7.1-15,7.1c-5.7,0-10.2-2.2-13.6-6.6l-0.6,5.6h-12.6
			v-75.1h14v26.9c3.2-3.8,7.5-5.7,12.7-5.7c6.4,0,11.4,2.4,15,7.1s5.4,11.4,5.4,20V420.7z M286.2,419.7c0-5.3-0.8-9.2-2.5-11.7
			c-1.7-2.5-4.2-3.7-7.5-3.7c-4.4,0-7.5,1.8-9.2,5.5v20.9c1.7,3.7,4.8,5.6,9.3,5.6c4.5,0,7.5-2.2,8.9-6.7
			C285.9,427.4,286.2,424.1,286.2,419.7z"/>
		<path class="st2" d="M308.7,380.1c0-2.1,0.7-3.9,2.1-5.2c1.4-1.4,3.3-2.1,5.7-2.1c2.4,0,4.3,0.7,5.7,2.1c1.4,1.4,2.1,3.1,2.1,5.2
			c0,2.2-0.7,3.9-2.2,5.3c-1.4,1.4-3.3,2.1-5.7,2.1s-4.2-0.7-5.7-2.1S308.7,382.2,308.7,380.1z M323.6,446.7h-14v-52.9h14V446.7z"/>
		<path class="st2" d="M364.5,407c-1.9-0.3-3.6-0.4-5-0.4c-5.3,0-8.8,1.8-10.4,5.4v34.6h-14v-52.9h13.2l0.4,6.3
			c2.8-4.9,6.7-7.3,11.7-7.3c1.5,0,3,0.2,4.4,0.6L364.5,407z"/>
		<path class="st2" d="M368.1,419.8c0-8.2,1.8-14.8,5.5-19.7c3.7-4.9,8.7-7.3,15-7.3c5.1,0,9.3,1.9,12.6,5.8v-27h14v75.1h-12.6
			L402,441c-3.5,4.4-8,6.6-13.4,6.6c-6.2,0-11.1-2.5-14.8-7.4C370,435.4,368.1,428.6,368.1,419.8z M382.1,420.9
			c0,5,0.9,8.8,2.6,11.4c1.7,2.6,4.2,4,7.4,4c4.3,0,7.4-1.8,9.1-5.5v-20.9c-1.7-3.7-4.8-5.5-9-5.5
			C385.5,404.3,382.1,409.8,382.1,420.9z"/>
	</g>
</g>
</svg>
