<?xml version="1.0" encoding="utf-8"?>
<!-- Generator: Adobe Illustrator 26.0.0, SVG Export Plug-In . SVG Version: 6.00 Build 0)  -->
<svg version="1.1" id="Layer_1" xmlns="http://www.w3.org/2000/svg" xmlns:xlink="http://www.w3.org/1999/xlink" x="0px" y="0px"
	 viewBox="0 0 500 500" style="enable-background:new 0 0 500 500;" xml:space="preserve">
<style type="text/css">
	.st0{fill:#0ABE51;}
	.st1{fill:#FFFFFF;}
	.st2{fill:#424242;}
</style>
<g>
	<path class="st0" d="M181,311.7c-4.9-3.6-11-8.5-11.6-17.2c-0.3-4.6,1-9.8,2.3-13.6c0.8-1.8,1.5-3.6,2.2-5.4v-0.1
		c14.1-39.8-6.7-83.5-46.6-97.6c-39.8-14.1-83.5,6.8-97.6,46.6s6.7,83.5,46.6,97.6c22,7.8,46.3,5.1,66.1-7.3c2-1,3.7-1.5,4.7-1.1
		c10.1,4.3,21.2,5.6,32.1,3.7C181,317.1,185.9,315.3,181,311.7L181,311.7z"/>
	<path class="st1" d="M79.2,215.3h51.4c4.8,0,8.6,3.9,8.6,8.6v0.4c0,4.8-3.9,8.6-8.6,8.6H79.2c-4.8,0-8.6-3.9-8.6-8.6v-0.4
		C70.6,219.2,74.5,215.3,79.2,215.3z"/>
	<path class="st1" d="M79.2,241.5h32.5c4.8,0,8.6,3.9,8.6,8.6v0.4c0,4.8-3.9,8.6-8.6,8.6H79.2c-4.8,0-8.6-3.9-8.6-8.6v-0.4
		C70.6,245.3,74.5,241.5,79.2,241.5z"/>
	<path class="st1" d="M79.2,267.1h5.9c4.8,0,8.6,3.9,8.6,8.6v0.4c0,4.8-3.9,8.6-8.6,8.6h-5.9c-4.8,0-8.6-3.9-8.6-8.6v-0.4
		C70.6,271,74.5,267.1,79.2,267.1z"/>
	<path class="st2" d="M246.6,217.1c-1.9,0-3.5-1.3-6.1-1.3c-5.1,0-8.3,3.5-8.3,9.9v3.8h7.3c3.3,0,5.9,2.7,5.9,5.9s-2.7,5.9-5.9,5.9
		h-7.3V284c0,3.7-3,6.7-6.8,6.7c-3.7,0-6.7-3-6.7-6.7v-42.8h-5c-3.3,0-5.9-2.7-5.9-5.9s2.7-5.9,5.9-5.9h5v-3.8
		c0-12.7,7.6-20.5,19.3-20.5c6.9,0,13.4,2.5,13.4,6.8c0.1,2.7-2,5-4.7,5.1C246.7,217.1,246.7,217.1,246.6,217.1z"/>
	<path class="st2" d="M269.6,290.6c-3.6,0-6.6-2.9-6.6-6.5c0-0.1,0-0.1,0-0.1v-71.8c0-3.5,2.9-6.5,6.9-6.5c3.6,0.1,6.5,3,6.5,6.5
		V284C276.3,287.7,273.3,290.6,269.6,290.6z"/>
	<path class="st2" d="M319.8,291.4c-19.4,0-31.2-14.4-31.2-31.8c0-17.3,11.7-31.7,31.2-31.7c19.4,0,31.1,14.4,31.1,31.7
		C350.9,277,339.2,291.4,319.8,291.4z M319.8,239.8c-11.1,0-17.3,9.2-17.3,19.8c0,10.6,6.1,19.9,17.3,19.9c11,0,17.1-9.2,17.1-19.9
		C336.9,249.1,330.8,239.8,319.8,239.8z"/>
	<path class="st2" d="M410.4,284.6c-4.4,4-10.6,6.8-19.4,6.8c-18.4,0-31.3-13.4-31.3-31.8c0-18.3,12.9-31.7,31.3-31.7
		c9.2,0,17,3.3,20.4,8.1c0.6,0.8,0.9,1.8,0.9,2.8c0,3.5-3.1,5.8-6.3,5.8c-1.4,0.1-2.8-0.4-3.9-1.3c-3-2.3-6.7-3.6-10.5-3.5
		c-10.9,0-18.1,8.1-18.1,19.8c0,11.6,7.3,19.9,18.1,19.9c3.8,0,7.5-1.3,10.5-3.6c1.1-0.8,2.5-1.3,3.9-1.3c3.3,0,6.4,2.4,6.4,5.9
		C412.4,282.1,411.7,283.7,410.4,284.6z"/>
	<path class="st2" d="M468.1,290.6c-2.2,0.1-4.3-1-5.5-2.8l-16.8-22.8l-8.3,8.6V284c-0.1,3.7-3.1,6.7-6.8,6.6
		c-3.6,0-6.6-2.9-6.6-6.5c0-0.1,0-0.1,0-0.1v-71.8c0-3.5,2.9-6.5,6.9-6.5c3.6,0.1,6.5,3,6.5,6.5v46.2l25.1-27.8c1.1-1.3,2.7-2,4.4-2
		c3.5,0.1,6.3,2.9,6.4,6.4c-0.1,1.5-0.6,2.9-1.5,4l-16.5,17.9l18,23.3c0.8,1.1,1.2,2.4,1.3,3.8C474.8,287.1,472.1,290.6,468.1,290.6
		L468.1,290.6z"/>
</g>
</svg>
