<?xml version="1.0" encoding="utf-8"?>
<!-- Generator: Adobe Illustrator 26.0.0, SVG Export Plug-In . SVG Version: 6.00 Build 0)  -->
<svg version="1.1" id="Layer_1" xmlns="http://www.w3.org/2000/svg" xmlns:xlink="http://www.w3.org/1999/xlink" x="0px" y="0px"
	 viewBox="0 0 500 500" style="enable-background:new 0 0 500 500;" xml:space="preserve">
<g>
	<path d="M35.5,327c0.4-2.7,0.8-5.3,1.2-8c3.8-30.9,7.5-61.9,11.3-92.8c2.1-17.5,4.3-35,6.4-52.5c0.2-1.3,0.5-1.7,1.8-1.7
		c35.3,0,70.7,0,106-0.1c0.5,0,1,0,1.8,0c-1.5,12.7-3,25.3-4.5,38c-0.7,0-1.3,0-1.9,0c-19.5,0-39.1,0-58.6,0c-2.7,0-2.7,0-3,2.6
		c-0.9,7.1-1.8,14.2-2.7,21.2c-0.1,0.4-0.1,0.8-0.1,1.5c19.8,0,39.5,0,59.5,0c-1.5,12.6-3,25-4.5,37.6c-0.8,0-1.5,0-2.2,0
		c-18.5,0-36.9,0.1-55.4,0c-1.7,0-2.1,0.5-2.3,2.1c-2.1,17.5-4.3,34.9-6.4,52.4c0,0.3-0.2,0.6-0.2,0.9c-15.4,0-30.7,0-46.1,0
		C35.5,327.9,35.5,327.5,35.5,327z"/>
	<path d="M362.1,327.9c-15.4,0-30.7,0-46.1,0c0.5-4.1,1-8,1.4-12c2.4-20,4.8-40,7.3-60c2.4-19.7,4.8-39.5,7.2-59.2
		c0.9-7.7,1.9-15.3,2.8-23c0.2-1.5,0.5-2,2.2-2c25,0,50,0,75.1,0c9.6,0,19.2,0.7,28.4,3.7c7.9,2.5,14.6,6.8,19,14.1
		c3.1,5.1,4.3,10.8,5,16.7c0.7,7.1-0.1,14-1,21c-1,8.8-2.1,17.7-5.1,26.1c-3,8.4-7.4,15.9-14.5,21.6c-6.1,4.9-13.2,7.7-20.8,9.5
		c-8.7,2.1-17.5,2.8-26.4,2.8c-9.3,0-18.6,0.1-27.9,0c-1.3,0-1.7,0.4-1.9,1.7c-1.4,12.1-2.9,24.2-4.4,36.3
		C362.3,326.1,362.2,327,362.1,327.9z M371.7,249.3c0.8,0,1.3,0,1.8,0c8.3,0,16.5,0,24.8,0c1.9,0,3.7-0.1,5.6-0.3
		c5.8-0.6,8.9-3.1,10.3-8.6c0.7-2.8,1.1-5.7,1.5-8.6c0.5-3.7,1-7.4,1.1-11.1c0.1-4.9-2.5-8.3-7.3-9.6c-2.4-0.7-5-1-7.6-1
		c-8-0.1-16,0-24-0.1c-1.4,0-1.7,0.5-1.8,1.7c-0.9,7.8-1.8,15.6-2.8,23.3C372.8,239.7,372.3,244.4,371.7,249.3z"/>
	<path d="M181,209.9c0.4-3.7,0.8-7.1,1.2-10.6c1-8.6,2.1-17.1,3-25.7c0.2-1.4,0.6-1.8,2-1.8c30.2,0,60.4,0,90.6-0.1
		c10.8,0,21.6,0,32.3,0c0.6,0,1.2,0,2,0c-0.2,1.7-0.3,3.3-0.5,4.8c-1.2,10.5-2.5,20.9-3.7,31.4c-0.2,1.5-0.7,1.8-2.1,1.8
		c-12.1,0-24.2,0-36.3,0c-1.4,0-1.9,0.3-2.1,1.8c-3,24.9-6.1,49.8-9.1,74.7c-1.6,13.4-3.3,26.9-4.9,40.3c-0.1,1-0.4,1.5-1.5,1.5
		c-14.6,0-29.2,0-43.9,0c-0.4,0-0.7-0.1-1.4-0.1c4.8-39.3,9.6-78.6,14.5-118.1C207.8,209.9,194.5,209.9,181,209.9z"/>
</g>
</svg>
