<?xml version="1.0" encoding="utf-8"?>
<!-- Generator: Adobe Illustrator 26.0.0, SVG Export Plug-In . SVG Version: 6.00 Build 0)  -->
<svg version="1.1" id="Layer_1" xmlns="http://www.w3.org/2000/svg" xmlns:xlink="http://www.w3.org/1999/xlink" x="0px" y="0px"
	 viewBox="0 0 500 500" style="enable-background:new 0 0 500 500;" xml:space="preserve">
<style type="text/css">
	.st0{fill:#0F0D0E;}
	.st1{fill-rule:evenodd;clip-rule:evenodd;fill:#181616;}
	.st2{fill:#181616;}
</style>
<g>
	<g>
		<path class="st0" d="M148,385.7h-27.9c-0.7,0-1.3,0.6-1.3,1.3v13.6c0,0.7,0.6,1.3,1.3,1.3H131v16.9c0,0-2.4,0.8-9.2,0.8
			c-8,0-19.1-2.9-19.1-27.4c0-24.5,11.6-27.7,22.5-27.7c9.4,0,13.5,1.7,16.1,2.5c0.8,0.2,1.6-0.6,1.6-1.3l3.1-13.2
			c0-0.3-0.1-0.7-0.5-1c-1-0.7-7.4-4.3-23.6-4.3c-18.6,0-37.7,7.9-37.7,46c0,38.1,21.9,43.7,40.3,43.7c15.3,0,24.5-6.5,24.5-6.5
			c0.4-0.2,0.4-0.7,0.4-1V387C149.3,386.3,148.7,385.7,148,385.7z"/>
		<path class="st0" d="M291.7,351.9c0-0.7-0.6-1.3-1.3-1.3h-15.7c-0.7,0-1.3,0.6-1.3,1.3c0,0,0,30.3,0,30.3h-24.5v-30.3
			c0-0.7-0.6-1.3-1.3-1.3h-15.7c-0.7,0-1.3,0.6-1.3,1.3V434c0,0.7,0.6,1.3,1.3,1.3h15.7c0.7,0,1.3-0.6,1.3-1.3v-35.1h24.5
			c0,0,0,35.1,0,35.1c0,0.7,0.6,1.3,1.3,1.3h15.7c0.7,0,1.3-0.6,1.3-1.3V351.9z"/>
		<g>
			<g>
				<path class="st0" d="M177.6,362.7c0-5.7-4.5-10.2-10.1-10.2c-5.6,0-10.1,4.6-10.1,10.2c0,5.6,4.5,10.2,10.1,10.2
					C173.1,372.9,177.6,368.3,177.6,362.7z"/>
				<path class="st0" d="M176.5,416.7c0-2.1,0-37.9,0-37.9c0-0.7-0.6-1.3-1.3-1.3h-15.6c-0.7,0-1.4,0.7-1.4,1.5c0,0,0,45.6,0,54.3
					c0,1.6,1,2.1,2.3,2.1c0,0,6.7,0,14.1,0c1.5,0,1.9-0.8,1.9-2.1C176.5,430.3,176.5,418.9,176.5,416.7z"/>
			</g>
		</g>
		<path class="st0" d="M351.4,377.6h-15.6c-0.7,0-1.3,0.6-1.3,1.3v40.3c0,0-4,2.9-9.6,2.9c-5.6,0-7.1-2.5-7.1-8c0-5.5,0-35.1,0-35.1
			c0-0.7-0.6-1.3-1.3-1.3h-15.8c-0.7,0-1.3,0.6-1.3,1.3c0,0,0,21.4,0,37.8c0,16.3,9.1,20.3,21.6,20.3c10.3,0,18.6-5.7,18.6-5.7
			s0.4,3,0.6,3.3c0.2,0.4,0.6,0.7,1.1,0.7l10.1,0c0.7,0,1.3-0.6,1.3-1.3l0-55.1C352.7,378.2,352.1,377.6,351.4,377.6z"/>
		<path class="st0" d="M393.9,375.8c-8.8,0-14.9,3.9-14.9,3.9v-27.8c0-0.7-0.6-1.3-1.3-1.3H362c-0.7,0-1.3,0.6-1.3,1.3V434
			c0,0.7,0.6,1.3,1.3,1.3c0,0,10.9,0,10.9,0c0.5,0,0.9-0.3,1.1-0.7c0.3-0.4,0.7-3.8,0.7-3.8s6.4,6.1,18.6,6.1
			c14.3,0,22.5-7.3,22.5-32.6C415.9,379.1,402.8,375.8,393.9,375.8z M387.8,422.1c-5.4-0.2-9.1-2.6-9.1-2.6v-26c0,0,3.6-2.2,8.1-2.6
			c5.6-0.5,11,1.2,11,14.6C397.8,419.5,395.3,422.3,387.8,422.1z"/>
		<path class="st0" d="M221.6,377.5h-11.8c0,0,0-15.6,0-15.6c0-0.6-0.3-0.9-1-0.9h-16c-0.6,0-1,0.3-1,0.9V378c0,0-8,1.9-8.6,2.1
			c-0.5,0.2-0.9,0.7-0.9,1.3v10.1c0,0.7,0.6,1.3,1.3,1.3h8.2c0,0,0,10.6,0,24.3c0,18.1,12.7,19.8,21.2,19.8c3.9,0,8.6-1.3,9.3-1.5
			c0.5-0.2,0.7-0.7,0.7-1.2l0-11.1c0-0.7-0.6-1.3-1.3-1.3c-0.7,0-2.4,0.3-4.2,0.3c-5.8,0-7.7-2.7-7.7-6.2c0-3.5,0-23.1,0-23.1h11.8
			c0.7,0,1.3-0.6,1.3-1.3v-12.7C222.9,378.1,222.3,377.5,221.6,377.5z"/>
	</g>
	<g>
		<path class="st1" d="M250,62.9c-74.7,0-135.2,60.5-135.2,135.2c0,59.7,38.7,110.4,92.5,128.3c6.8,1.3,9.2-2.9,9.2-6.5
			c0-3.2-0.1-13.9-0.2-25.2c-37.6,8.2-45.6-16-45.6-16c-6.2-15.6-15-19.8-15-19.8c-12.3-8.4,0.9-8.2,0.9-8.2
			c13.6,1,20.7,13.9,20.7,13.9c12.1,20.7,31.6,14.7,39.4,11.2c1.2-8.7,4.7-14.7,8.6-18.1c-30-3.4-61.6-15-61.6-66.8
			c0-14.8,5.3-26.8,13.9-36.3c-1.4-3.4-6-17.2,1.3-35.8c0,0,11.4-3.6,37.2,13.9c10.8-3,22.4-4.5,33.8-4.6
			c11.5,0.1,23.1,1.6,33.9,4.6C309.7,115.4,321,119,321,119c7.4,18.6,2.7,32.4,1.3,35.8c8.7,9.5,13.9,21.5,13.9,36.3
			c0,51.9-31.6,63.4-61.8,66.7c4.9,4.2,9.2,12.4,9.2,25c0,18.1-0.2,32.7-0.2,37.1c0,3.6,2.4,7.8,9.3,6.5
			c53.7-17.9,92.4-68.6,92.4-128.3C385.2,123.5,324.7,62.9,250,62.9z"/>
		<path class="st2" d="M166,257.1c-0.3,0.7-1.4,0.9-2.3,0.4c-1-0.4-1.5-1.4-1.2-2c0.3-0.7,1.3-0.9,2.3-0.4
			C165.8,255.5,166.3,256.4,166,257.1L166,257.1z M164.3,255.9"/>
		<path class="st2" d="M171.5,263.2c-0.6,0.6-1.9,0.3-2.8-0.6c-0.9-0.9-1-2.2-0.4-2.8c0.7-0.6,1.9-0.3,2.8,0.6
			C172,261.4,172.1,262.6,171.5,263.2L171.5,263.2z M170.2,261.8"/>
		<path class="st2" d="M176.8,271c-0.8,0.6-2.2,0-3-1.2c-0.8-1.2-0.8-2.6,0-3.2c0.8-0.6,2.2-0.1,3,1.1
			C177.6,269,177.6,270.4,176.8,271L176.8,271z M176.8,271"/>
		<path class="st2" d="M184.1,278.5c-0.7,0.8-2.3,0.6-3.5-0.5c-1.2-1.1-1.5-2.6-0.8-3.5c0.8-0.8,2.3-0.6,3.5,0.5
			C184.5,276.2,184.9,277.7,184.1,278.5L184.1,278.5z M184.1,278.5"/>
		<path class="st2" d="M194.2,282.9c-0.3,1.1-1.8,1.5-3.4,1.1c-1.5-0.5-2.5-1.7-2.2-2.8c0.3-1.1,1.8-1.6,3.4-1.1
			C193.5,280.6,194.5,281.8,194.2,282.9L194.2,282.9z M194.2,282.9"/>
		<path class="st2" d="M205.2,283.7c0,1.1-1.3,2-2.9,2.1c-1.6,0-2.9-0.9-2.9-2c0-1.1,1.3-2,2.9-2.1
			C203.9,281.7,205.2,282.6,205.2,283.7L205.2,283.7z M205.2,283.7"/>
		<path class="st2" d="M215.5,282c0.2,1.1-0.9,2.2-2.5,2.5c-1.6,0.3-3-0.4-3.2-1.5c-0.2-1.1,0.9-2.2,2.5-2.5
			C213.9,280.2,215.3,280.8,215.5,282L215.5,282z M215.5,282"/>
	</g>
</g>
</svg>
