<?xml version="1.0" encoding="utf-8"?>
<!-- Generator: Adobe Illustrator 26.0.0, SVG Export Plug-In . SVG Version: 6.00 Build 0)  -->
<svg version="1.1" id="Layer_1" xmlns="http://www.w3.org/2000/svg" xmlns:xlink="http://www.w3.org/1999/xlink" x="0px" y="0px"
	 viewBox="0 0 500 500" style="enable-background:new 0 0 500 500;" xml:space="preserve">
<style type="text/css">
	.st0{fill-rule:evenodd;clip-rule:evenodd;fill:#172E35;}
	.st1{fill-rule:evenodd;clip-rule:evenodd;fill:#EE1954;}
</style>
<g>
	<path class="st0" d="M158,255h9.4v37.1c-0.8,0.4-2,0.8-3.5,1.3c-1.6,0.4-3.3,0.8-5.3,1.2c-2,0.4-4.1,0.7-6.4,0.9
		c-2.3,0.2-4.5,0.4-6.8,0.4c-6.6,0-12.4-0.9-17.4-2.7c-5-1.8-9.3-4.3-12.7-7.6c-3.4-3.3-6-7.3-7.8-12c-1.8-4.7-2.7-10-2.7-15.7
		c0-6.3,1-12,2.9-17.1c1.9-5.1,4.7-9.5,8.4-13.1c3.7-3.6,8.1-6.4,13.3-8.4c5.2-2,10.9-3,17.2-3c1.7,0,3.4,0.1,5.1,0.2
		c1.7,0.1,3.3,0.3,4.8,0.6c1.5,0.3,3,0.5,4.3,0.9c1.3,0.4,2.4,0.7,3.3,1.1v8.2c-2.3-0.7-5-1.4-7.9-1.8c-3-0.5-6-0.7-9-0.7
		c-4.4,0-8.5,0.7-12.5,2c-4,1.3-7.5,3.3-10.5,6c-3,2.7-5.4,6-7.2,10.1c-1.8,4-2.7,8.8-2.7,14.2c0,5.3,0.7,9.9,2.2,13.8
		c1.5,3.9,3.6,7.1,6.3,9.6c2.8,2.5,6.1,4.4,10,5.6c3.9,1.2,8.3,1.8,13,1.8c2.2,0,4.4-0.1,6.5-0.4c2.2-0.2,4.1-0.5,5.7-1v-19.5v-3.3
		V255L158,255z M189.1,294.5v-76.8h9.4v76.8H189.1L189.1,294.5z M248.3,294.5h-9.4v-68.3h-25.7v-8.5h60.9v8.5h-25.7V294.5
		L248.3,294.5z M316.4,294.5h-9.4v-68.3h-25.7v-8.5h60.9v8.5h-25.7V294.5L316.4,294.5z M366.2,286.1h39.5v8.5h-48.9v-76.8h46.8v8.5
		h-37.4V251h33.2v8.5h-33.2V286.1L366.2,286.1z M433.8,262.8v31.7h-9.4v-76.8h20c3.4,0,6.2,0.1,8.6,0.4c2.4,0.3,4.5,0.6,6.5,1.2
		c5.4,1.4,9.5,3.9,12.3,7.4c2.8,3.5,4.3,7.9,4.3,13.1c0,3.1-0.5,5.9-1.5,8.3c-1,2.4-2.4,4.6-4.2,6.4c-1.8,1.8-4,3.3-6.5,4.4
		c-2.5,1.2-5.3,2-8.4,2.5v0.2l22.8,32.8h-9.4l-23.7-31.7H433.8L433.8,262.8z M433.8,226.2v28.1h9.3c2.9,0,5.3-0.1,7.4-0.3
		c2-0.2,3.9-0.5,5.5-1c3.3-1,5.8-2.6,7.5-4.8c1.8-2.2,2.7-5,2.7-8.5c0-3.3-0.9-5.9-2.5-8c-1.7-2-3.9-3.4-6.9-4.3
		c-1.4-0.4-3-0.7-5-0.9c-1.9-0.2-4.3-0.3-7.3-0.3H433.8z"/>
	<path class="st1" d="M21.8,204.1h8.7v57.3h-8.7V204.1L21.8,204.1z M74.6,217.9h8.7v43.4h-8.7V217.9L74.6,217.9z M39.5,217.9h8.7
		v76.6h-8.7V217.9L39.5,217.9z M56.9,217.9h8.7v76.6h-8.7V217.9z"/>
</g>
</svg>
