<?xml version="1.0" encoding="utf-8"?>
<!-- Generator: Adobe Illustrator 26.0.0, SVG Export Plug-In . SVG Version: 6.00 Build 0)  -->
<svg version="1.1" id="Layer_1" xmlns="http://www.w3.org/2000/svg" xmlns:xlink="http://www.w3.org/1999/xlink" x="0px" y="0px"
	 viewBox="0 0 500 500" style="enable-background:new 0 0 500 500;" xml:space="preserve">
<style type="text/css">
	.st0{fill:#EA4335;}
	.st1{fill:#FBBC05;}
	.st2{fill:#4285F4;}
	.st3{fill:#34A853;}
</style>
<g>
	<path class="st0" d="M217.7,253.9c0,21.2-16.6,36.8-37,36.8s-37-15.6-37-36.8c0-21.4,16.6-36.8,37-36.8S217.7,232.5,217.7,253.9z
		 M201.6,253.9c0-13.3-9.6-22.3-20.8-22.3s-20.8,9.1-20.8,22.3c0,13.1,9.6,22.3,20.8,22.3S201.6,267,201.6,253.9z"/>
	<path class="st1" d="M297.5,253.9c0,21.2-16.6,36.8-37,36.8s-37-15.6-37-36.8c0-21.3,16.6-36.8,37-36.8S297.5,232.5,297.5,253.9z
		 M281.3,253.9c0-13.3-9.6-22.3-20.8-22.3c-11.2,0-20.8,9.1-20.8,22.3c0,13.1,9.6,22.3,20.8,22.3C271.7,276.2,281.3,267,281.3,253.9
		z"/>
	<path class="st2" d="M373.9,219.3v66.1c0,27.2-16,38.3-35,38.3c-17.9,0-28.6-11.9-32.7-21.7l14.1-5.9c2.5,6,8.7,13.1,18.6,13.1
		c12.1,0,19.7-7.5,19.7-21.6v-5.3h-0.6c-3.6,4.5-10.6,8.4-19.4,8.4c-18.4,0-35.3-16-35.3-36.7c0-20.8,16.9-37,35.3-37
		c8.8,0,15.8,3.9,19.4,8.2h0.6v-6L373.9,219.3L373.9,219.3z M359.6,254c0-13-8.7-22.5-19.7-22.5c-11.2,0-20.5,9.5-20.5,22.5
		c0,12.8,9.4,22.2,20.5,22.2C351,276.2,359.6,266.8,359.6,254z"/>
	<path class="st3" d="M399.2,180.5v108h-15.8v-108H399.2z"/>
	<path class="st0" d="M460.7,266l12.6,8.4c-4.1,6-13.8,16.3-30.7,16.3c-20.9,0-36.6-16.2-36.6-36.8c0-21.9,15.8-36.8,34.7-36.8
		c19.1,0,28.5,15.2,31.5,23.4l1.7,4.2L424.7,265c3.8,7.4,9.6,11.2,17.9,11.2C450.8,276.2,456.5,272.1,460.7,266L460.7,266z
		 M422,252.7l32.9-13.7c-1.8-4.6-7.3-7.8-13.7-7.8C433.1,231.3,421.6,238.5,422,252.7z"/>
	<path class="st2" d="M84.1,244.3v-15.6h52.7c0.5,2.7,0.8,5.9,0.8,9.4c0,11.7-3.2,26.2-13.5,36.6c-10,10.5-22.9,16-39.9,16
		c-31.5,0-58-25.7-58-57.2s26.5-57.2,58-57.2c17.4,0,29.9,6.8,39.2,15.8l-11,11c-6.7-6.3-15.8-11.2-28.2-11.2c-23,0-41,18.6-41,41.6
		s18,41.6,41,41.6c14.9,0,23.4-6,28.9-11.4c4.4-4.4,7.3-10.7,8.5-19.3L84.1,244.3z"/>
</g>
</svg>
