<?xml version="1.0" encoding="utf-8"?>
<!-- Generator: Adobe Illustrator 26.0.0, SVG Export Plug-In . SVG Version: 6.00 Build 0)  -->
<svg version="1.1" id="Layer_1" xmlns="http://www.w3.org/2000/svg" xmlns:xlink="http://www.w3.org/1999/xlink" x="0px" y="0px"
	 viewBox="0 0 500 500" style="enable-background:new 0 0 500 500;" xml:space="preserve">
<style type="text/css">
	.st0{fill:#4386FA;}
	.st1{opacity:0.1;enable-background:new    ;}
	.st2{fill:#FFFFFF;}
	.st3{fill:#767677;}
</style>
<g>
	<g>
		<path class="st0" d="M170.5,284.9l-63.1-109.3c-3.4-5.8-3.4-13,0-18.9l63.1-109.4c3.4-5.8,9.6-9.4,16.4-9.4h126.3
			c6.7,0,12.9,3.6,16.3,9.4l63.2,109.4c3.4,5.8,3.4,13,0,18.9l-63.3,109.3c-3.4,5.8-9.6,9.4-16.4,9.4H186.7
			C180,294.3,173.7,290.7,170.5,284.9L170.5,284.9z"/>
		<path class="st1" d="M290.6,136.7c0,0,16.9,40.6-6.1,63.6c-23.1,23-65.1,8.3-65.1,8.3l85.4,85.7h8.7c6.5,0,12.5-3.5,15.8-9.1
			l40.3-69.8L290.6,136.7z"/>
		<path class="st2" d="M310.1,217l-19.4-19.3c-0.2-0.2-0.4-0.4-0.7-0.5c17.8-23.1,13.5-56.2-9.5-74c-21-16.2-50.9-14.3-69.6,4.6
			c-19.6,19.8-20.5,51.5-2,72.2c18.5,20.8,50,23.6,72,6.4c0.1,0.2,0.3,0.5,0.5,0.7l19.4,19.4c0.6,0.6,1.3,0.9,2.1,0.9
			c0.8,0,1.6-0.3,2.1-0.9l5.1-5.1c0.6-0.6,0.9-1.3,0.9-2.1C311.1,218.4,310.7,217.6,310.1,217L310.1,217z M248.3,204.4
			c-16.1,0-30.5-9.7-36.7-24.5c-6.1-14.8-2.7-31.9,8.6-43.2c15.5-15.5,40.6-15.5,56.1,0c7.4,7.4,11.6,17.5,11.6,28
			C288,186.7,270.2,204.4,248.3,204.4L248.3,204.4z M222.9,162.6V179c2.5,4.5,6.2,8.2,10.6,10.8v-27.2L222.9,162.6z M242.8,149v44.3
			c3.5,0.6,7.1,0.6,10.6,0V149L242.8,149z M273.4,179v-9.7h-10.6v20.5C267.3,187.2,270.9,183.5,273.4,179L273.4,179z"/>
	</g>
	<path class="st3" d="M191.7,355.8H165v8h19c-0.9,11.2-10.2,15.9-19,15.9c-5.6,0-10.9-2.1-14.9-6c-4-3.9-6.2-9.2-6.2-14.8v-0.4
		c-0.1-5.6,2.1-11.1,6-15.1s9.3-6.3,15-6.2c5.4,0,10.5,2.1,14.4,5.8l5.6-5.7c-5.4-5.2-12.7-8.1-20.2-8
		c-16.2-0.3-29.5,12.5-29.9,28.6c-0.1,5.5,1.3,10.9,4.2,15.6c5.5,9.1,15.5,14.6,26.1,14.2c15.6,0,27.1-10.8,27.1-26.6
		C192.3,359.4,192.1,357.6,191.7,355.8L191.7,355.8z M213.8,350.1c-10.2-0.2-18.7,7.9-18.9,18.2c0,0,0,0.1,0,0.1v0.4
		c-0.1,10.4,8.3,18.9,18.8,19c10.4,0.1,18.9-8.3,19-18.8C232.6,356.5,222.8,350.1,213.8,350.1L213.8,350.1z M213.9,357.5
		c5.4,0,10.5,4.3,10.5,11.5c0,7.2-5.1,11.4-10.6,11.4c-6,0-10.7-4.8-10.7-11.5C203.1,362.2,207.7,357.5,213.9,357.5L213.9,357.5z
		 M254.8,350.1c-10.2-0.2-18.7,8-18.9,18.2c0,0,0,0,0,0v0.4c-0.1,10.4,8.3,18.9,18.8,19c10.4,0.1,18.9-8.3,19-18.8
		C273.7,356.6,263.9,350.1,254.8,350.1L254.8,350.1z M254.9,357.5c5.4,0,10.5,4.3,10.5,11.5c0,7.2-5.1,11.4-10.6,11.4
		c-6,0-10.7-4.8-10.7-11.5C244.1,362.2,248.8,357.5,254.9,357.5L254.9,357.5z M295.1,350.1c-10,0-18,8.8-18,18.8
		c-0.2,10.1,7.8,18.4,17.9,18.8c4,0.2,7.8-1.5,10.3-4.6v3.7c0,6.5-3.9,10.4-9.9,10.4c-4.3-0.1-8.1-2.7-9.6-6.7l-7.2,3
		c2.5,5.4,7.7,11.1,16.8,11.1c10,0,17.7-6.3,17.7-19.6v-33.8h-7.9v3.2C302.6,351.6,298.9,350,295.1,350.1L295.1,350.1z M295.8,357.4
		c4.9,0,10,4.2,10,11.5s-5.1,11.3-10.2,11.3c-5.4,0-10.4-4.3-10.4-11.3C285.3,361.7,290.5,357.4,295.8,357.4L295.8,357.4z
		 M348.1,350.1c-9.5,0-17.5,7.6-17.5,18.8c-0.4,10,7.5,18.5,17.5,18.8c0.3,0,0.6,0,0.9,0c6.3,0,12.2-3.1,15.8-8.2l-6.5-4.3
		c-1.9,3.2-5.4,5.2-9.2,5.2c-4,0.2-7.6-2.1-9.2-5.7l25.2-10.4l-1.3-3.1C361.4,354.5,355.2,350.2,348.1,350.1L348.1,350.1z
		 M348.5,357.3c2.9-0.1,5.6,1.4,7,4l-16.9,7.1C337.8,362.9,343,357.3,348.5,357.3L348.5,357.3z M318.6,386.6h8.3v-55.4h-8.3
		L318.6,386.6z M142.4,450.4V414h13.1c2.8-0.1,5.4,1,7.4,2.9c2,1.8,3.2,4.4,3.1,7.1c0.2,3.3-1.8,6.4-4.9,7.6v0.2
		c1.8,0.6,3.3,1.7,4.5,3.2c1.1,1.5,1.7,3.3,1.7,5.2c0.1,2.8-1.1,5.5-3.2,7.4c-2.1,1.9-4.9,3-7.8,2.9H142.4L142.4,450.4z
		 M147.1,418.5v11.1h8.5c1.6,0,3.1-0.6,4.2-1.7c2.1-2.1,2.2-5.5,0.2-7.6l-0.1-0.1c-1-1.1-2.5-1.7-4-1.7L147.1,418.5L147.1,418.5z
		 M147.1,434v11.9h9.4c3.3,0,6-2.6,6-5.9c0-1.6-0.6-3.1-1.8-4.2c-1.2-1.2-2.8-1.8-4.5-1.8L147.1,434L147.1,434z M177.8,416.9
		c0,1.8-1.5,3.3-3.3,3.3c-1.3,0-2.5-0.8-3-2c-0.7-1.7,0.1-3.6,1.8-4.3c1.2-0.5,2.7-0.2,3.6,0.7C177.5,415.2,177.8,416.1,177.8,416.9
		L177.8,416.9z M176.8,425.6v24.8h-4.7v-24.8H176.8z M193.6,462.2c-1.3,0-2.7-0.2-3.9-0.5c-1.2-0.3-2.3-0.8-3.3-1.4
		c-1-0.6-1.8-1.4-2.6-2.3c-0.7-0.9-1.2-1.8-1.6-2.9l4.5-1.8c0.5,1.4,1.4,2.7,2.6,3.5c1.3,0.9,2.8,1.3,4.3,1.3
		c2.2,0.1,4.4-0.7,5.9-2.3c1.5-1.7,2.3-4,2.1-6.3v-2.5h-0.2c-0.9,1.3-2.1,2.4-3.6,3.1c-1.5,0.8-3.2,1.2-4.9,1.1
		c-3.2,0-6.3-1.4-8.4-3.8c-2.3-2.6-3.5-6-3.5-9.4c-0.1-3.5,1.1-6.8,3.4-9.4c2.1-2.5,5.2-3.9,8.4-3.9c1.7,0,3.4,0.4,4.9,1.1
		c1.4,0.7,2.7,1.8,3.6,3.1h0.2v-3.5h4.5v23.8c0.2,3.5-1,6.9-3.4,9.4C200.3,461,197,462.2,193.6,462.2L193.6,462.2z M193.8,446.9
		c2.2,0.1,4.2-0.9,5.6-2.5c3-3.8,3-9.1,0-12.9c-1.4-1.7-3.5-2.6-5.6-2.5c-2.2,0-4.2,0.9-5.6,2.5c-1.6,1.8-2.4,4.1-2.3,6.5
		c-0.1,2.4,0.7,4.7,2.3,6.4C189.6,446.1,191.6,447,193.8,446.9L193.8,446.9z M254.6,450.4l-3.7,2.4l-2.5-3.7
		c-2.7,1.4-5.7,2.1-8.7,2.1c-5,0.1-9.8-1.9-13.3-5.5c-7.2-7.6-7.2-19.4,0-27c7.3-7.3,19.2-7.4,26.5-0.1c0,0,0,0,0.1,0.1
		c3.6,3.6,5.5,8.4,5.4,13.4c0,2.7-0.5,5.4-1.6,8c-1.1,2.5-2.7,4.7-4.6,6.5L254.6,450.4z M239.7,446.7c2.1,0,4.2-0.5,6.1-1.4
		l-4.2-6.4l3.7-2.5l4.2,6.3c2.8-2.8,4.3-6.6,4.2-10.5c0.1-3.9-1.3-7.6-4-10.4c-2.6-2.7-6.2-4.2-9.9-4.1c-3.7-0.1-7.4,1.4-9.9,4.1
		c-5.3,5.9-5.3,14.9,0,20.8C232.4,445.3,236,446.8,239.7,446.7L239.7,446.7z M284.9,450.3h-4.5v-3.5h-0.2c-0.8,1.3-1.9,2.4-3.3,3.1
		c-1.4,0.8-3,1.2-4.6,1.2c-2.6,0.2-5.2-0.8-7-2.6c-1.7-2.1-2.6-4.7-2.4-7.4v-15.6h4.7v15.3c0.1,4.1,2.1,6.1,6.1,6.1
		c1.8,0,3.5-0.8,4.6-2.3c1.3-1.5,1.9-3.4,1.9-5.4v-13.7h4.7L284.9,450.3L284.9,450.3z M301.5,451.2c-3.4,0.1-6.7-1.3-9-3.8
		c-2.4-2.6-3.7-6-3.5-9.5c-0.1-3.5,1.1-6.9,3.5-9.5c4.8-4.9,12.6-5.1,17.6-0.3c0,0,0.1,0.1,0.1,0.1c2.4,2.8,3.5,6.4,3.3,10v0.5
		h-19.5c0,2.2,0.9,4.3,2.4,5.9c3.1,3,8.1,3,11.1-0.1c0.6-0.6,1.1-1.3,1.5-2.1l4.2,2c-1.1,2-2.7,3.7-4.6,4.9
		C306.3,450.6,303.9,451.2,301.5,451.2L301.5,451.2z M294,434.9h14.2c-0.1-1.7-0.9-3.2-2.1-4.3c-1.4-1.1-3.2-1.8-5.1-1.7
		c-1.7,0-3.3,0.5-4.5,1.6C295.2,431.7,294.4,433.2,294,434.9L294,434.9z M322.2,450.3h-4.7v-24.8h4.5v4.1h0.2
		c0.5-1.4,1.6-2.6,2.9-3.4c1.3-0.9,2.8-1.4,4.3-1.4c1.2,0,2.3,0.2,3.4,0.6l-1.4,4.5c-0.9-0.3-1.8-0.4-2.7-0.4
		c-1.8,0-3.4,0.8-4.6,2.1c-1.3,1.3-2,3.1-2,5L322.2,450.3L322.2,450.3z M358.7,425.5l-15.5,35.9h-4.8l5.7-12.5l-10.2-23.3h5.1
		l7.4,17.9h0.1l7.2-17.9L358.7,425.5L358.7,425.5z"/>
</g>
</svg>
