<?xml version="1.0" encoding="utf-8"?>
<!-- Generator: Adobe Illustrator 26.0.0, SVG Export Plug-In . SVG Version: 6.00 Build 0)  -->
<svg version="1.1" id="Layer_1" xmlns="http://www.w3.org/2000/svg" xmlns:xlink="http://www.w3.org/1999/xlink" x="0px" y="0px"
	 viewBox="0 0 500 500" style="enable-background:new 0 0 500 500;" xml:space="preserve">
<style type="text/css">
	.st0{fill:#23A566;}
	.st1{fill:#1C8F5A;}
	.st2{fill:#8ED1B1;}
	.st3{fill-rule:evenodd;clip-rule:evenodd;fill:#FFFFFF;}
	.st4{fill:#787879;}
</style>
<g>
	<g>
		<path class="st0" d="M338.1,292.4c0,7.7-6.2,13.9-13.9,13.9H175.8c-7.7,0-13.9-6.2-13.9-13.9V75.3c0-7.7,6.2-13.9,13.9-13.9
			c0,0,0,0,0,0H271l67,68.4V292.4z"/>
		<path class="st1" d="M278.4,128l59.7,57v-55.6h-52.9c-2.3,0-4.6-0.5-6.6-1.7L278.4,128z"/>
		<path class="st2" d="M338.1,129.6h-53c-7.7,0-13.9-6.2-13.9-13.9V61L338.1,129.6z"/>
		<path class="st3" d="M295.7,261.1H204v-79.5h91.7V261.1z M255.5,193.1V207h28.9v-13.9L255.5,193.1z M255.5,215.8v13.3h28.9v-13.4
			L255.5,215.8z M255.5,237.6v12.3h28.9v-12.4L255.5,237.6z M244.2,249.8v-12.3h-28.9v12.3H244.2z M244.2,229v-13.2h-28.9V229
			L244.2,229z M244.2,207.2v-14.1h-28.9V207L244.2,207.2z"/>
	</g>
	<path class="st4" d="M115.4,403.6c0-6.7-5.1-11.3-10.9-11.3s-10.9,4.6-10.9,11.3c0,6.7,5.1,11.3,10.9,11.3S115.4,410.2,115.4,403.6
		z M123.9,403.6c0,10.8-8.7,18.7-19.5,18.7c-10.7,0-19.5-7.9-19.5-18.7c0-10.8,8.7-18.7,19.5-18.7
		C115.2,384.9,123.9,392.8,123.9,403.6z M157.4,403.6c0-6.7-5.1-11.3-10.9-11.3c-5.9,0-10.9,4.6-10.9,11.3c0,6.7,5.1,11.3,10.9,11.3
		C152.3,414.9,157.4,410.2,157.4,403.6z M165.9,403.6c0,10.8-8.7,18.7-19.5,18.7s-19.5-7.9-19.5-18.7c0-10.8,8.7-18.7,19.5-18.7
		C157.2,384.9,165.9,392.8,165.9,403.6L165.9,403.6z M198.7,403.7c0-6.6-4.6-11.4-10.4-11.4c-5.9,0-10.8,4.8-10.8,11.4
		c0,6.5,4.9,11.3,10.8,11.3C194.1,414.9,198.7,410.2,198.7,403.7L198.7,403.7z M206.2,386v33.5c0,13.8-8.5,19.4-18.4,19.4
		c-7.4,0.1-14.2-4.2-17.2-11l7.4-3c1.3,3,4.6,6.6,9.8,6.6c6.4,0,10.4-3.8,10.4-10.9V418h-0.3c-1.9,2.3-5.6,4.2-10.2,4.2
		c-9.7,0-18.6-8.1-18.6-18.6c0-10.5,8.9-18.7,18.6-18.7c4.6,0,8.3,2,10.2,4.2h0.3v-3L206.2,386L206.2,386z M219.5,366.4h-8.3v54.7
		h8.3L219.5,366.4z M231.6,403l17.3-6.9c-1-2.3-3.8-4-7.2-4C237.4,392.1,231.3,395.8,231.6,403z M251.9,409.7l6.6,4.2
		c-3.7,5.3-9.7,8.4-16.2,8.3c-11,0-19.3-8.2-19.3-18.7c0-11.1,8.3-18.7,18.3-18.7c10.1,0,15,7.7,16.6,11.9l0.9,2.1L233,409.2
		c2,3.7,5.1,5.7,9.4,5.7C246.7,414.9,249.7,412.9,251.9,409.7L251.9,409.7z M53.5,398.7v-7.9h27.7c0.3,1.4,0.4,3,0.4,4.8
		c0,5.9-1.7,13.3-7.1,18.5c-5.3,5.3-12.1,8.1-21,8.1c-16.6,0-30.6-13-30.6-29c0-16,14-29,30.6-29c9.2,0,15.7,3.5,20.7,8l-5.8,5.6
		c-3.5-3.2-8.3-5.7-14.9-5.7c-12.1,0-21.6,9.4-21.6,21.1c0,11.7,9.5,21.1,21.6,21.1c7.9,0,12.3-3,15.2-5.8c2.3-2.2,3.9-5.4,4.5-9.8
		L53.5,398.7z M308.8,409.6c0,4.3-1.6,7.8-4.8,10.4c-3.2,2.6-7.1,3.9-11.7,3.9c-4.1,0-7.7-1.2-10.8-3.6c-3.1-2.4-5.3-5.7-6.5-9.8
		l6.1-2.5c0.4,1.5,1,2.8,1.7,4c0.7,1.2,1.6,2.2,2.6,3.1c1,0.8,2.1,1.5,3.3,2c1.2,0.5,2.5,0.7,3.8,0.7c2.9,0,5.3-0.7,7.1-2.2
		c1.8-1.5,2.8-3.5,2.8-6c0-2.1-0.8-3.8-2.3-5.3c-1.4-1.4-4.1-2.8-8-4.1c-4-1.4-6.4-2.4-7.4-2.9c-5.2-2.7-7.9-6.6-7.9-11.8
		c0-3.6,1.5-6.7,4.4-9.3c2.9-2.6,6.6-3.9,10.8-3.9c3.8,0,7,1,9.8,2.9c2.8,1.9,4.6,4.3,5.5,7.1l-5.9,2.5c-0.6-1.9-1.7-3.5-3.3-4.6
		c-1.6-1.2-3.6-1.9-5.9-1.9c-2.5,0-4.6,0.7-6.3,2.1c-1.7,1.3-2.6,3-2.6,5c0,1.7,0.7,3.2,2,4.4c1.5,1.2,4.7,2.7,9.6,4.4
		c5,1.7,8.6,3.8,10.7,6.3C307.7,403,308.8,406,308.8,409.6z M315.3,373.4h6.3V389l-0.3,4.7h0.3c1-1.7,2.4-3,4.4-4.1
		c1.9-1.1,4.1-1.6,6.3-1.7c4.1,0,7.3,1.2,9.5,3.6c2.3,2.3,3.4,5.7,3.4,10.1v21.3h-6.3v-20c0-6.1-2.7-9.1-8.1-9.1
		c-2.6,0-4.8,1.1-6.6,3.2c-1.7,2.1-2.7,4.7-2.6,7.5v18.4h-6.3L315.3,373.4z M367.9,423.9c-5,0-9.1-1.7-12.3-5.1
		c-3.2-3.4-4.8-7.7-4.8-12.9c0-5.2,1.6-9.4,4.7-12.8c3.1-3.5,7.1-5.2,12-5.2c5,0,9,1.6,11.9,4.9c3,3.2,4.5,7.8,4.5,13.6l-0.1,0.7
		h-26.6c0.1,3.3,1.2,6,3.3,8s4.7,3,7.6,3c4.1,0,7.2-2,9.5-6.1l5.7,2.8c-1.5,2.8-3.7,5.1-6.3,6.7
		C374.4,423.1,371.3,423.9,367.9,423.9L367.9,423.9z M357.8,401.8h19.4c-0.1-2.2-1.2-4.3-2.9-5.8c-1.7-1.6-4-2.3-6.9-2.3
		c-2.4,0-4.5,0.7-6.2,2.2C359.5,397.4,358.3,399.3,357.8,401.8L357.8,401.8z M405.3,423.9c-5,0-9.1-1.7-12.3-5.1
		c-3.2-3.4-4.8-7.7-4.8-12.9c0-5.2,1.6-9.4,4.7-12.8c3.1-3.5,7.1-5.2,12-5.2c5,0,9,1.6,11.9,4.9c3,3.2,4.5,7.8,4.5,13.6l-0.1,0.7
		h-26.6c0.1,3.3,1.2,6,3.3,8s4.6,3,7.6,3c4.1,0,7.2-2,9.5-6.1l5.7,2.8c-1.5,2.8-3.7,5.1-6.4,6.7
		C411.7,423.1,408.7,423.9,405.3,423.9L405.3,423.9z M395.1,401.8h19.4c-0.1-2.2-1.2-4.3-2.9-5.8c-1.7-1.6-4-2.3-6.9-2.3
		c-2.4,0-4.5,0.7-6.2,2.2C396.8,397.4,395.7,399.3,395.1,401.8L395.1,401.8z M439.5,423.4c-2.8,0-5.1-0.9-6.9-2.6
		c-1.8-1.7-2.7-4.1-2.8-7.1v-18.9h-5.9V389h5.9v-10.4h6.3V389h8.3v5.8h-8.3v16.8c0,2.3,0.4,3.8,1.3,4.6c0.9,0.8,1.9,1.2,3,1.2
		c0.5,0,1,0,1.4-0.1c0.5-0.1,1-0.3,1.4-0.5l2,5.7C443.6,423.1,441.7,423.4,439.5,423.4L439.5,423.4z M477.1,413.4
		c0,2.9-1.3,5.4-3.9,7.5c-2.6,2-5.8,3-9.7,3c-3.4,0-6.4-0.9-9-2.6c-2.5-1.7-4.5-4.2-5.5-7l5.7-2.4c0.8,2,2,3.6,3.6,4.8
		c1.6,1.1,3.4,1.7,5.2,1.7c2,0,3.7-0.4,5-1.3c1.4-0.9,2.1-1.9,2.1-3.1c0-2.2-1.7-3.7-5-4.8l-5.8-1.5c-6.6-1.7-9.9-4.8-9.9-9.5
		c0-3.1,1.2-5.5,3.7-7.4c2.5-1.9,5.8-2.8,9.7-2.8c3,0,5.7,0.7,8.1,2.1c2.4,1.4,4.1,3.3,5.1,5.7l-5.7,2.3c-0.7-1.4-1.8-2.6-3.2-3.3
		c-1.5-0.8-3.1-1.3-4.8-1.2c-1.7,0-3.2,0.4-4.5,1.2c-1.3,0.8-1.9,1.8-1.9,3c0,1.9,1.8,3.3,5.5,4.1l5.1,1.3
		C473.7,404.9,477.1,408.3,477.1,413.4L477.1,413.4z"/>
</g>
</svg>
