<?xml version="1.0" encoding="utf-8"?>
<!-- Generator: Adobe Illustrator 26.0.0, SVG Export Plug-In . SVG Version: 6.00 Build 0)  -->
<svg version="1.1" id="Layer_1" xmlns="http://www.w3.org/2000/svg" xmlns:xlink="http://www.w3.org/1999/xlink" x="0px" y="0px"
	 viewBox="0 0 500 500" style="enable-background:new 0 0 500 500;" xml:space="preserve">
<style type="text/css">
	.st0{fill:#00AC47;}
	.st1{fill:#5BB974;}
	.st2{fill:#00832D;}
	.st3{fill:#353535;}
</style>
<g>
	<g>
		<path class="st0" d="M167.5,216.4V115h-44.3c-13,0-23.6,10.6-23.6,23.6v209.6c0,10.5,12.7,15.8,20.2,8.4l48.7-48.7h138.7
			c13,0,23.6-10.5,23.6-23.6V240H191.2C178.1,240,167.5,229.4,167.5,216.4z"/>
		<path class="st1" d="M375.1,48.1h-184c-13,0-23.6,10.5-23.6,23.6V115h139.7c13,0,23.6,10.5,23.6,23.6v101.3h44.3
			c13,0,23.6-10.5,23.6-23.6V71.7C398.7,58.7,388.2,48.1,375.1,48.1z"/>
		<path class="st2" d="M307.2,115H167.5v101.3c0,13,10.5,23.6,23.6,23.6h139.7V138.6C330.8,125.6,320.3,115,307.2,115z"/>
	</g>
	<g>
		<path class="st3" d="M106.6,431.8c-1.7,2.2-4.1,3.9-7.1,5.1c-3,1.2-6.5,1.7-10.4,1.7c-4,0-7.5-0.9-10.6-2.7
			c-3.1-1.8-5.4-4.4-7.1-7.7c-1.7-3.4-2.5-7.3-2.6-11.7v-3.7c0-7.2,1.7-12.8,5.1-16.8c3.4-4,8.2-6,14.4-6c5.3,0,9.5,1.3,12.6,3.9
			c3.1,2.6,5,6.4,5.6,11.3h-8.1c-0.9-5.7-4.2-8.6-9.9-8.6c-3.7,0-6.5,1.3-8.4,4c-1.9,2.7-2.9,6.6-3,11.7v3.6c0,5.1,1.1,9.1,3.2,11.9
			c2.2,2.8,5.2,4.2,9,4.2c4.2,0,7.2-1,9-2.9v-9.3h-9.8v-6.3h18V431.8z"/>
		<path class="st3" d="M113.4,420.1c0-3.5,0.7-6.6,2.1-9.3c1.4-2.8,3.3-4.9,5.8-6.4c2.5-1.5,5.3-2.2,8.5-2.2c4.8,0,8.6,1.5,11.6,4.6
			c3,3.1,4.6,7.1,4.8,12.2l0,1.9c0,3.5-0.7,6.6-2,9.3c-1.3,2.7-3.2,4.9-5.7,6.4c-2.5,1.5-5.4,2.2-8.6,2.2c-5,0-9-1.7-11.9-5
			c-3-3.3-4.5-7.7-4.5-13.2V420.1z M121.3,420.7c0,3.6,0.7,6.5,2.2,8.5c1.5,2.1,3.6,3.1,6.3,3.1c2.7,0,4.8-1,6.2-3.1
			c1.5-2.1,2.2-5.1,2.2-9.2c0-3.6-0.8-6.4-2.3-8.5c-1.5-2.1-3.6-3.1-6.2-3.1c-2.6,0-4.6,1-6.2,3.1
			C122.1,413.6,121.3,416.7,121.3,420.7z"/>
		<path class="st3" d="M151.4,420.1c0-3.5,0.7-6.6,2.1-9.3c1.4-2.8,3.3-4.9,5.8-6.4c2.5-1.5,5.3-2.2,8.5-2.2c4.8,0,8.6,1.5,11.6,4.6
			c3,3.1,4.6,7.1,4.8,12.2l0,1.9c0,3.5-0.7,6.6-2,9.3c-1.3,2.7-3.2,4.9-5.7,6.4c-2.5,1.5-5.4,2.2-8.6,2.2c-5,0-9-1.7-11.9-5
			c-3-3.3-4.5-7.7-4.5-13.2V420.1z M159.3,420.7c0,3.6,0.7,6.5,2.2,8.5c1.5,2.1,3.6,3.1,6.3,3.1c2.7,0,4.8-1,6.2-3.1
			c1.5-2.1,2.2-5.1,2.2-9.2c0-3.6-0.8-6.4-2.3-8.5c-1.5-2.1-3.6-3.1-6.2-3.1c-2.6,0-4.6,1-6.2,3.1
			C160,413.6,159.3,416.7,159.3,420.7z"/>
		<path class="st3" d="M189.5,420.1c0-5.5,1.3-9.8,3.9-13.1c2.6-3.3,6-4.9,10.2-4.9c4,0,7.2,1.4,9.5,4.2l0.4-3.6h7.1v34.2
			c0,4.6-1.4,8.3-4.3,10.9c-2.9,2.7-6.8,4-11.6,4c-2.6,0-5.1-0.5-7.6-1.6c-2.5-1.1-4.3-2.5-5.6-4.2l3.7-4.8c2.4,2.9,5.4,4.3,9,4.3
			c2.6,0,4.7-0.7,6.2-2.1c1.5-1.4,2.3-3.5,2.3-6.3v-2.4c-2.3,2.5-5.3,3.8-9.1,3.8c-4.1,0-7.5-1.6-10.1-4.9
			C190.8,430.5,189.5,425.9,189.5,420.1z M197.3,420.8c0,3.5,0.7,6.3,2.2,8.4c1.4,2,3.4,3,6,3c3.2,0,5.6-1.4,7.1-4.1v-15.5
			c-1.5-2.7-3.8-4-7-4c-2.6,0-4.6,1-6.1,3.1C198.1,413.7,197.3,416.8,197.3,420.8z"/>
		<path class="st3" d="M237.1,438h-7.9v-50h7.9V438z"/>
		<path class="st3" d="M261.2,438.7c-5,0-9.1-1.6-12.2-4.7c-3.1-3.2-4.7-7.4-4.7-12.6v-1c0-3.5,0.7-6.7,2-9.4
			c1.4-2.8,3.3-4.9,5.7-6.5c2.5-1.5,5.2-2.3,8.2-2.3c4.8,0,8.5,1.5,11.1,4.6c2.6,3.1,3.9,7.4,3.9,13v3.2h-23
			c0.2,2.9,1.2,5.2,2.9,6.9c1.7,1.7,3.8,2.5,6.4,2.5c3.6,0,6.6-1.5,8.9-4.4l4.3,4.1c-1.4,2.1-3.3,3.7-5.7,4.9
			C266.8,438.1,264.2,438.7,261.2,438.7z M260.3,408.5c-2.2,0-3.9,0.8-5.3,2.3c-1.3,1.5-2.2,3.6-2.6,6.4h15.1v-0.6
			c-0.2-2.6-0.9-4.7-2.1-6C264.2,409.1,262.5,408.5,260.3,408.5z"/>
		<path class="st3" d="M335.1,422.6c-0.5,5.1-2.3,9-5.6,11.8c-3.3,2.8-7.6,4.3-13,4.3c-3.8,0-7.1-0.9-10-2.7
			c-2.9-1.8-5.1-4.3-6.7-7.6c-1.6-3.3-2.4-7.1-2.4-11.5v-4.4c0-4.5,0.8-8.4,2.4-11.8c1.6-3.4,3.9-6,6.8-7.9c3-1.8,6.4-2.8,10.3-2.8
			c5.2,0,9.4,1.4,12.6,4.3c3.2,2.8,5,6.8,5.6,12h-8.2c-0.4-3.4-1.4-5.9-3-7.4c-1.6-1.5-3.9-2.3-7-2.3c-3.6,0-6.3,1.3-8.3,3.9
			c-1.9,2.6-2.9,6.5-2.9,11.5v4.2c0,5.1,0.9,9,2.8,11.7c1.8,2.7,4.5,4,8.1,4c3.2,0,5.7-0.7,7.3-2.2c1.6-1.5,2.7-3.9,3.1-7.3H335.1z"
			/>
		<path class="st3" d="M349.5,406.6c2.6-3,5.9-4.5,9.8-4.5c7.5,0,11.3,4.3,11.4,12.9v23h-7.9v-22.7c0-2.4-0.5-4.2-1.6-5.2
			c-1.1-1-2.6-1.5-4.6-1.5c-3.2,0-5.5,1.4-7.1,4.2V438h-7.9v-50h7.9V406.6z"/>
		<path class="st3" d="M399.8,438c-0.3-0.7-0.7-1.8-0.9-3.3c-2.5,2.6-5.6,3.9-9.3,3.9c-3.5,0-6.4-1-8.7-3c-2.2-2-3.4-4.5-3.4-7.5
			c0-3.8,1.4-6.6,4.2-8.6c2.8-2,6.8-3,12-3h4.9v-2.3c0-1.8-0.5-3.3-1.5-4.4c-1-1.1-2.6-1.6-4.7-1.6c-1.8,0-3.3,0.5-4.4,1.4
			c-1.2,0.9-1.7,2-1.7,3.4h-7.9c0-1.9,0.6-3.7,1.9-5.4c1.3-1.7,3-3,5.2-4c2.2-1,4.7-1.4,7.4-1.4c4.1,0,7.4,1,9.9,3.1
			c2.5,2.1,3.7,5,3.8,8.7v15.9c0,3.2,0.4,5.7,1.3,7.6v0.6H399.8z M391.1,432.3c1.6,0,3-0.4,4.4-1.1c1.4-0.8,2.4-1.8,3.1-3.1v-6.6
			h-4.3c-2.9,0-5.1,0.5-6.6,1.5c-1.5,1-2.2,2.5-2.2,4.3c0,1.5,0.5,2.7,1.5,3.6C388,431.9,389.4,432.3,391.1,432.3z"/>
		<path class="st3" d="M424.7,394.2v8.6h6.2v5.9h-6.2v19.7c0,1.3,0.3,2.3,0.8,2.9c0.5,0.6,1.5,0.9,2.9,0.9c0.9,0,1.8-0.1,2.8-0.3
			v6.1c-1.8,0.5-3.5,0.7-5.2,0.7c-6.1,0-9.1-3.4-9.1-10.1v-20H411v-5.9h5.8v-8.6H424.7z"/>
	</g>
</g>
</svg>
