<?xml version="1.0" encoding="utf-8"?>
<!-- Generator: Adobe Illustrator 26.0.0, SVG Export Plug-In . SVG Version: 6.00 Build 0)  -->
<svg version="1.1" id="Layer_1" xmlns="http://www.w3.org/2000/svg" xmlns:xlink="http://www.w3.org/1999/xlink" x="0px" y="0px"
	 viewBox="0 0 500 500" style="enable-background:new 0 0 500 500;" xml:space="preserve">
<style type="text/css">
	.st0{fill:#DDCBA2;stroke:#000000;stroke-width:2;stroke-linecap:round;stroke-miterlimit:10;}
	.st1{fill:#71CAEE;stroke:#000000;stroke-width:2;stroke-linecap:round;stroke-miterlimit:10;}
	.st2{fill:#FFFFFF;stroke:#000000;stroke-width:2;stroke-linecap:round;stroke-miterlimit:10;}
	.st3{fill:#888E93;stroke:#000000;stroke-width:2;stroke-linecap:round;stroke-miterlimit:10;}
	.st4{fill:#F0F0F0;stroke:#000000;stroke-width:2;stroke-linecap:round;stroke-miterlimit:10;}
	.st5{fill:none;stroke:#000000;stroke-width:2;stroke-linecap:round;stroke-miterlimit:10;}
	.st6{fill:url(#SVGID_1_);}
	.st7{fill:url(#SVGID_00000131361322987713743890000005327569236547739795_);}
	.st8{fill:#FFFFFF;}
</style>
<g>
	<g>
		<path class="st0" d="M312.7,323.2c6.5-1.8,16.6,0,20.5,3.3c5.8,5,5.1,21.9,1.1,30.5c-0.8,1.8-1.9,3.5-3.4,4.6
			c-1.5,1.1-3.6,1.3-5,0c-1.4-1.2-1.8-3.4-2-5.5c-0.3-3.2-0.2-6.5,0.3-9.7c0.2-1.4,0.2-3.1-0.2-4.4c-0.6-2.3-2.6-3.2-4.7-3.7
			c-3.5-0.9-15.1-0.8-20.4-0.7c-0.8,0,1.5-9.5,2.1-10.2C303.8,324.4,308.9,324.2,312.7,323.2z"/>
		<path class="st1" d="M250.9,53.6c-3.2-1-6.3-1.9-9.5-2.9c-4.8-1.4-9.7-2.9-14.7-2.6c-3,0.2-6.4,1.4-7.3,4.2
			c-0.7,2.1-1.7,7.7-1.4,8.3c1.6,3.6,14.6,7,19.2,7"/>
		<path d="M391.4,114.8c-1.5,1.5-2.3,3.7-2.6,5.8c-0.2,1.5-0.1,3.1,0.5,4.5c0.7,1.4,1.9,2.5,3.3,3.1c1.4,0.7,2.9,0.9,4.5,1
			c1.2,0,2.4-0.1,3.2-1c0.7-0.7,0.9-1.7,0.9-2.7c0.2-2.4-0.1-4.9-0.9-7.2c-0.4-1.2-1-2.4-1.9-3.3c-1.8-1.9-4.7-2.3-6.8-0.6
			C391.6,114.6,391.5,114.7,391.4,114.8z"/>
		<path class="st2" d="M355.6,100.4c-1-1.1,0-2.8,1.1-3.8c6.1-5.5,15.9-4.8,22.9-0.6c11.4,6.9,16.4,20.9,18,34.2
			c0.7,5.5,0.9,11.1-0.5,16.4s-4.8,10.4-9.8,12.8c-1.1,0.5-2.4,0.9-3.6,0.6c-1.2-0.4-2-1.9-1.3-2.9c-9.9-14.3-19.9-28.1-21.9-45.4
			C360,107.1,358.6,103.6,355.6,100.4z"/>
		<path class="st1" d="M120.4,272.9c-5.3-3.2-10.4-7-15-11.1c-1.4-1.2-2.8-2.7-2.8-4.5c0-1.2,0.6-2.3,1.3-3.4
			c0.9-1.4,1.7-2.9,2.6-4.3c1.2-1.9,3-4.1,5.2-3.4c0.9,0.3,1.6,1.1,2.1,1.9c2.6,3.4,5.1,6.9,7.7,10.3c1.6,2.1,3.9,4.5,6.4,3.7"/>
		<path class="st1" d="M199.2,67.6c34.9-18.9,81.7-20.6,117.1-9.1c25.5,8.2,45.6,28,56,52.6c9.1,21.6,11.1,45.8,8.5,69.1
			c-4.6,42.2-21.2,81.8-42.4,118.3c-11.6,20-22.9,37.8-42.6,51c-38.7,25.9-91.6,23.3-134.9,12.1c-20.9-5.4-41.7-18.2-49.6-39.2
			c-5-13.5-4.4-29,1.6-42c12.1-26.1,45.4-40.4,47.9-71.3c0.7-9.1-1.7-18.1-3.8-27c-5.9-24.6-9.3-48.2,1.5-72.2
			C167.1,91,181.6,77.1,199.2,67.6z"/>
		<g>
			<path class="st1" d="M178.4,87c-5.6-5.4-12.5-9.2-20-10.8c-2.3-0.5-5-0.7-7.2,0.7c-1.9,1.2-3.2,3.4-4.4,5.6
				c-1.6,3.2-3.2,6.5-4.3,9.9c-0.4,1.2-0.6,2.7,0,3.6c0.4,0.6,1,0.9,1.5,1.2c8.6,4.4,17.6,7.5,26.8,10.3"/>
			<path class="st1" d="M171.9,94.7c-2.6-1.9-17.6-12.7-19.7-5c-0.4,1.7,0.5,4.1,1.6,5"/>
		</g>
		<path class="st2" d="M256.9,111.6c-0.5,0.5-0.9,1.1-1.4,1.6c-9.5,12.2-12.6,29.3-9.8,44.3c1.8,9.5,6.1,18.8,13.8,24.6
			c20.2,15.4,54.1,14.2,71.8-1.6c25.6-22.8,13.7-71-14.7-82.7C298.2,90.2,270.8,96.1,256.9,111.6z"/>
		<g>
			<path class="st2" d="M380.3,177.1c1.5-0.1,3-0.1,4.5,0.1c0.4,0,0.7,0.1,1,0.4c0.2,0.3,0.4,0.7,0.5,1.2c1,4.1,0.6,8.7,0.1,13
				c-0.1,0.9-0.2,1.9-0.6,2.7c-1.1,2.2-3.2,2.8-4.9,2.8c-0.1,0-0.2,0-0.3-0.1c-0.3-0.2-0.3-0.8-0.2-1.2
				C380.8,189.7,380.4,183.4,380.3,177.1C380.3,177.1,380.3,177.1,380.3,177.1z"/>
			<path class="st2" d="M376.8,176.7c-1.5,0.4-2.6,2.1-2.9,4.6c-0.5,4.6-0.7,9.4-0.5,14c0,0.9,0.1,2,0.6,2.5
				c0.2,0.3,0.6,0.4,0.9,0.4c1.6,0.3,4.3-0.6,5.9-1.1c0,0,0-5.5-0.1-8.4c-0.1-2.9-0.1-6.4-0.2-9.4c0-0.7,0-1.6,0-2.3
				C380.3,176.5,377.5,176.4,376.8,176.7z"/>
		</g>
		<path class="st0" d="M355.3,171.4c-0.4,2.3,0.1,4.9,1.8,7.8c2.7,4.7,7.4,6.4,12.5,6.1c9.3-0.7,26.6-5.7,28.9-16.5
			c0.7-3.1-0.3-6.4-2.3-8.9c-6.5-8.2-18.7-6-26.9-2.1C363.2,160.6,356.3,165.1,355.3,171.4z"/>
		<path class="st3" d="M384.9,147c2.3,1.5,3.9,4,4.2,7.4c0.3,3.8-1.5,7.9-5.2,9.3c-3,1.1-6.5,0.6-9.5-0.4c-3-1.1-6-2.9-7.1-5.9
			c-0.7-2.1-0.4-4.5,0.7-6.4s2.9-3.4,4.9-4.3C376.9,144.7,381.6,144.9,384.9,147z"/>
		<path class="st0" d="M414.7,203.7c2.6,0.6,5,2.2,5.9,4.7c0.9,2.4,0.1,5.2-1.7,7c-1.8,1.8-4.4,2.7-6.9,2.6c-0.9,0-1.7-0.1-2.5-0.5
			c-2.6-1.1-3.7-4.2-4.4-7C403,203.4,408.7,202.4,414.7,203.7z"/>
		<g>
			<path class="st4" d="M259.5,227c2.4-4.8,148.4-38,152-33.3c3.6,4.8,16.6,92.6,9.5,95c-7.1,2.4-125.9,39.2-133,36.8
				C280.9,323.2,257.2,231.7,259.5,227z"/>
			<path class="st5" d="M288,325.6c0,0,57-78.4,62.9-80.8c5.9-2.4,70.7,43.4,70.7,43.4"/>
			<path class="st4" d="M259.5,230.1c0,0,90.3,40.8,96.2,38.4c5.9-2.4,55.8-74.8,55.8-74.8"/>
		</g>
		<g>
			<linearGradient id="SVGID_1_" gradientUnits="userSpaceOnUse" x1="116.6763" y1="320.3882" x2="87.405" y2="344.9497">
				<stop  offset="5.152266e-07" style="stop-color:#71CAEE"/>
				<stop  offset="4.104413e-02" style="stop-color:#83CAE2"/>
				<stop  offset="0.1206" style="stop-color:#9FCACE"/>
				<stop  offset="0.2107" style="stop-color:#B6CBBE"/>
				<stop  offset="0.3139" style="stop-color:#C7CBB1"/>
				<stop  offset="0.4384" style="stop-color:#D4CBA8"/>
				<stop  offset="0.6058" style="stop-color:#DBCBA3"/>
				<stop  offset="1" style="stop-color:#DDCBA2"/>
			</linearGradient>
			<path class="st6" d="M118.4,322.5c-3.6,4-7.7,8.2-13.7,9.7c-4.9,1.2-10.5,0.3-14.3-2.4c-1.5-1.1-2.7-2.3-4.2-3.4
				c-1.5-1-3.6-1.7-5.5-1.4c-2.9,0.5-4.3,3.3-3.8,5.5c2.1,9.3,17.9,16.4,28.9,16.3c9.4,0,20-4.9,22.5-12.4"/>
			<path class="st5" d="M118.4,322.5c-3.6,4-7.7,8.2-13.7,9.7c-4.9,1.2-10.5,0.3-14.3-2.4c-1.5-1.1-2.7-2.3-4.2-3.4
				c-1.5-1-3.6-1.7-5.5-1.4c-2.9,0.5-4.3,3.3-3.8,5.5c2.1,9.3,17.9,16.4,28.9,16.3c9.4,0,20-4.9,22.5-12.4"/>
		</g>
		<g>
			
				<linearGradient id="SVGID_00000166655040681774089340000009914801657672893631_" gradientUnits="userSpaceOnUse" x1="257.3717" y1="222.3864" x2="268.159" y2="245.52">
				<stop  offset="5.152266e-07" style="stop-color:#71CAEE"/>
				<stop  offset="4.104413e-02" style="stop-color:#83CAE2"/>
				<stop  offset="0.1206" style="stop-color:#9FCACE"/>
				<stop  offset="0.2107" style="stop-color:#B6CBBE"/>
				<stop  offset="0.3139" style="stop-color:#C7CBB1"/>
				<stop  offset="0.4384" style="stop-color:#D4CBA8"/>
				<stop  offset="0.6058" style="stop-color:#DBCBA3"/>
				<stop  offset="1" style="stop-color:#DDCBA2"/>
			</linearGradient>
			<path style="fill:url(#SVGID_00000166655040681774089340000009914801657672893631_);" d="M254.1,225.8c-0.1,4.4,4.5,7.7,8.8,8
				c4.4,0.3,8.6-1.4,12.8-2.7c1.4-0.5,3-0.8,4.4-0.2c1.9,0.9,2.8,4.3,1.9,6.2c-1,1.9-3.6,3.7-5.5,4.6c-6.8,3.2-13.5,3.7-20.9,2.1
				c-5.5-1.2-11.8-4.5-13.7-14.1"/>
			<path class="st5" d="M254.1,225.8c-0.1,4.4,4.5,7.7,8.8,8c4.4,0.3,8.6-1.4,12.8-2.7c1.4-0.5,3-0.8,4.4-0.2
				c1.9,0.9,2.8,4.3,1.9,6.2c-1,1.9-3.6,3.7-5.5,4.6c-6.8,3.2-13.5,3.7-20.9,2.1c-5.5-1.2-11.8-4.5-13.7-14.1"/>
		</g>
		<path d="M313.4,136.4c-2.1-0.3-4.3,0.1-6.2,1.3c-3.3,2.2-4.9,6.5-4.9,10.4c0,1.9,0.4,3.9,1.5,5.6c1.2,1.8,3.3,3,5.5,3.5
			c3.6,0.9,8.6,0.7,11-2.6c1.1-1.6,1.5-3.5,1.6-5.4C322.4,143.3,319.9,137.3,313.4,136.4z"/>
		<path class="st8" d="M315.5,141.5c0.9,0.3,1.7,0.9,2.2,1.8c0.4,0.8,0.5,1.7,0.3,2.6c-0.2,1.1-0.6,2.2-1.5,2.8
			c-0.8,0.6-1.8,0.7-2.8,0.5c-0.9-0.2-1.8-0.8-2.3-1.6c-1.2-1.7-1-4.6,0.9-5.7C313.3,141.3,314.5,141.2,315.5,141.5z"/>
	</g>
	<g>
		<path d="M202.8,435.4c-2.9,1-8.3,2.5-14.2,2.5c-7.5,0-13.1-1.9-17.3-5.9c-3.9-3.8-6.2-9.6-6.2-16.2c0-14,10-22.9,24.6-22.9
			c5.4,0,9.7,1.1,11.7,2.1l-1.8,6.5c-2.4-1.1-5.4-1.9-10-1.9c-9.4,0-16,5.6-16,15.8c0,10.1,6.2,16,15.3,16c2.9,0,5.1-0.4,6.1-0.9
			v-11h-7.8v-6.3h15.6V435.4z"/>
		<path d="M241.5,421.2c0,11.7-8.2,17-16.4,17c-9,0-16-6.2-16-16.4c0-10.5,6.9-16.9,16.5-16.9C235.1,404.8,241.5,411.5,241.5,421.2z
			 M217.4,421.5c0,6.1,3.1,10.8,7.9,10.8c4.6,0,7.8-4.5,7.8-10.9c0-5-2.2-10.7-7.8-10.7C219.7,410.7,217.4,416.2,217.4,421.5z"/>
		<path d="M257.4,396.4v9.1h7.7v6h-7.7v14.1c0,3.9,1,5.9,4.1,5.9c1.4,0,2.4-0.2,3.1-0.4l0.2,6.1c-1.2,0.5-3.3,0.8-5.9,0.8
			c-3,0-5.4-1-6.9-2.6c-1.7-1.8-2.5-4.8-2.5-8.9v-15h-4.6v-6h4.6v-7.2L257.4,396.4z"/>
		<path d="M279.7,396.6c0,2.4-1.7,4.4-4.6,4.4c-2.7,0-4.4-1.9-4.4-4.4c0-2.5,1.8-4.4,4.5-4.4C277.9,392.2,279.6,394.1,279.7,396.6z
			 M271.1,437.4v-31.9h8.1v31.9H271.1z"/>
		<path d="M288.8,437.4v-25.9h-4.3v-6h4.3v-1.4c0-4.1,1.1-8.3,3.9-10.9c2.4-2.2,5.5-3.1,8.3-3.1c2.1,0,3.9,0.4,5.1,0.8l-0.6,6.2
			c-0.9-0.3-1.9-0.6-3.4-0.6c-4,0-5.3,3.4-5.3,7.3v1.7h7v6h-6.9v25.9H288.8z"/>
		<path d="M313.8,405.5l5.8,17.1c0.6,2,1.3,4.4,1.8,6.2h0.2c0.5-1.8,1.1-4.2,1.7-6.3l5-17h8.6l-8,21.8c-4.4,11.9-7.3,17.2-11.1,20.5
			c-3.2,2.8-6.5,3.8-8.5,4.1l-1.8-6.8c1.4-0.3,3-1.1,4.7-2.2c1.5-1,3.3-2.9,4.4-5.1c0.3-0.5,0.5-1,0.5-1.4c0-0.4-0.1-0.8-0.4-1.6
			l-11.7-29.3H313.8z"/>
	</g>
</g>
</svg>
