<?xml version="1.0" encoding="utf-8"?>
<!-- Generator: Adobe Illustrator 26.0.0, SVG Export Plug-In . SVG Version: 6.00 Build 0)  -->
<svg version="1.1" id="Layer_1" xmlns="http://www.w3.org/2000/svg" xmlns:xlink="http://www.w3.org/1999/xlink" x="0px" y="0px"
	 viewBox="0 0 500 500" style="enable-background:new 0 0 500 500;" xml:space="preserve">
<style type="text/css">
	.st0{fill:#244B5A;}
	.st1{clip-path:url(#SVGID_00000153700538362021681120000008261771045415833218_);}
	.st2{fill:#75CACA;}
	.st3{fill:#74CBCA;}
	.st4{fill:#73CBCA;}
	.st5{fill:#72C9C9;}
	.st6{fill:#70CACA;}
	.st7{fill:#6FCAC8;}
	.st8{fill:#6EC8C8;}
	.st9{fill:#6CC9C9;}
	.st10{fill:#6DC9C8;}
	.st11{fill:#69C7C8;}
	.st12{fill:#69C8C7;}
	.st13{fill:#68C8C7;}
	.st14{fill:#67C7C7;}
	.st15{fill:#65C7C7;}
	.st16{fill:#64C7C7;}
	.st17{fill:#63C6C6;}
	.st18{fill:#60C6C6;}
	.st19{fill:#60C6C5;}
	.st20{fill:#5FC6C5;}
	.st21{fill:#5CC5C4;}
	.st22{fill:#5AC5C4;}
	.st23{fill:#57C4C4;}
	.st24{fill:#58C4C3;}
	.st25{fill:#55C4C3;}
	.st26{fill:#53C3C2;}
	.st27{fill:#52C3C2;}
	.st28{fill:#50C3C2;}
	.st29{fill:#50C1C0;}
	.st30{fill:#4BC2C0;}
	.st31{fill:#4CC1C0;}
	.st32{fill:#47C1BE;}
	.st33{fill:#46C0BE;}
	.st34{fill:#43C0BE;}
	.st35{fill:#40BFBD;}
	.st36{fill:#3BBFBD;}
	.st37{fill:#39BFBC;}
	.st38{fill:#34BEBD;}
	.st39{fill:#32BEBB;}
	.st40{fill:#2DBDBB;}
	.st41{fill:#24BCBB;}
	.st42{fill:#21BCB9;}
	.st43{fill:#18BBB9;}
	.st44{fill:#0FBAB9;}
	.st45{fill:#03BBB8;}
	.st46{fill:#06B8B6;}
	.st47{fill:#03B7B5;}
	.st48{fill:#04B7B4;}
	.st49{fill:#00B6B5;}
	.st50{fill:#03B6B4;}
	.st51{fill:#05B6B2;}
	.st52{fill:#01B5B1;}
	.st53{fill:#00B4B1;}
	.st54{fill:#00B3B0;}
	.st55{fill:#00B2AF;}
	.st56{fill:#00B2AE;}
	.st57{fill:#00B1AE;}
	.st58{fill:#00B1AD;}
	.st59{fill:#00B0AC;}
	.st60{fill:#00AFAC;}
	.st61{clip-path:url(#SVGID_00000117661232626651218200000009995315853971759249_);}
	.st62{fill:#4DC2C1;}
	.st63{fill:#4CC2C0;}
	.st64{fill:#4BC0BF;}
	.st65{fill:#41C0BE;}
	.st66{fill:#3CBFBC;}
	.st67{fill:#2FBEBC;}
	.st68{fill:#2BBDBA;}
	.st69{fill:#16BAB9;}
	.st70{fill:#11BAB7;}
	.st71{fill:#00B7B6;}
</style>
<g>
	<path class="st0" d="M82.1,314c3.2,4.3,7.4,7.7,12.1,10.1c5.2,2.6,10.9,3.9,16.7,3.8c4.7,0.1,9.3-0.7,13.7-2.3
		c3.5-1.4,6.6-3.5,9.1-6.4c2.3-2.7,4-5.9,5-9.4c1-3.7,1.6-7.6,1.5-11.5v-13.5h-0.3c-3,4.8-7.4,8.6-12.5,10.9
		c-4.9,2.1-10.2,3.2-15.6,3.2c-5.3,0-10.5-0.9-15.4-2.9c-4.6-1.8-8.9-4.5-12.5-8c-3.6-3.4-6.4-7.6-8.4-12.1
		c-2.1-4.8-3.1-10-3.1-15.3c0-5.2,0.9-10.4,2.9-15.3c1.8-4.6,4.6-8.8,8-12.4c3.4-3.6,7.5-6.4,12.1-8.3c4.9-2,10.1-3,15.4-3
		c2.4,0,4.8,0.2,7.2,0.6c2.6,0.5,5.1,1.2,7.6,2.3c5.8,2.5,10.7,6.5,14.4,11.6h0.3v-12.5h10.6v74.6c0,4.4-0.5,8.8-1.5,13
		c-1,4.6-3.1,9-6,12.7c-3.3,4.1-7.5,7.4-12.3,9.7c-5.3,2.6-12.1,3.9-20.6,3.9c-6.9,0.1-13.7-1.1-20.1-3.7
		c-6.1-2.6-11.6-6.5-16.1-11.4L82.1,314z M84,260.3c0,3.8,0.7,7.6,2.2,11.2c1.4,3.4,3.4,6.5,6,9.2c2.5,2.6,5.5,4.8,8.8,6.3
		c3.5,1.6,7.2,2.4,11,2.3c7.5,0,14.8-2.8,20.3-8c2.7-2.5,4.8-5.6,6.2-9.1c1.5-3.8,2.2-7.8,2-11.9c0-3.8-0.6-7.6-1.9-11.2
		c-1.2-3.4-3.2-6.5-5.6-9.2c-2.5-2.7-5.6-4.8-9-6.3c-3.8-1.6-7.8-2.4-11.9-2.3c-3.8,0-7.6,0.8-11,2.3c-3.3,1.5-6.3,3.6-8.8,6.3
		c-2.5,2.7-4.6,5.8-6,9.2C84.8,252.6,84,256.4,84,260.3z M194.1,298.9h-11.6V185h35.1c11.6,0,20.7,2.5,27.4,7.6
		c6.7,5,10.1,12.7,10.1,22.8c0.2,7.4-2.5,14.6-7.5,20c-5,5.4-12.2,8.6-21.6,9.4l32.8,54.1h-14.2L213.4,246h-19.3L194.1,298.9z
		 M194.1,235.3h20.6c4.4,0.1,8.8-0.4,13.1-1.6c3.1-0.8,6-2.3,8.6-4.3c2.1-1.7,3.7-3.8,4.7-6.3c1-2.5,1.5-5.1,1.4-7.8
		c0-2.6-0.5-5.2-1.4-7.6c-1-2.5-2.6-4.7-4.7-6.4c-2.5-2-5.5-3.5-8.6-4.3c-4.3-1.1-8.7-1.6-13.1-1.5h-20.6V235.3z M278.7,185h33.1
		c11.6,0,20.7,2.5,27.4,7.6c6.7,5,10.1,12.7,10.1,22.8c0,10.2-3.4,17.8-10.1,22.9c-6.7,5.1-15.8,7.6-27.4,7.6h-21.6v52.9h-11.6V185z
		 M290.3,235.3h18.7c4.4,0.1,8.8-0.4,13.1-1.6c3.1-0.8,6-2.3,8.6-4.3c2.1-1.7,3.7-3.8,4.7-6.3c1-2.5,1.5-5.1,1.4-7.8
		c0-2.6-0.5-5.2-1.4-7.6c-1-2.5-2.6-4.7-4.7-6.4c-2.5-2-5.5-3.5-8.6-4.3c-4.3-1.1-8.7-1.6-13.1-1.5h-18.7L290.3,235.3z M465.6,280.9
		c-2,3-4.4,5.8-7.2,8.2c-2.9,2.6-6.2,4.9-9.7,6.7c-3.8,1.9-7.7,3.4-11.8,4.4c-4.4,1.1-8.9,1.6-13.4,1.6c-8.1,0.1-16.1-1.5-23.6-4.5
		c-14.3-5.8-25.6-17.1-31.3-31.4c-3.1-7.6-4.6-15.8-4.5-24c-0.1-8.2,1.4-16.4,4.5-24c5.7-14.3,17-25.6,31.3-31.4
		c7.5-3,15.5-4.6,23.6-4.5c7.3,0,14.5,1.5,21.2,4.2c7.2,2.9,13.5,7.7,18.2,13.8l-10.1,7.6c-1.4-2-3-3.9-4.8-5.5
		c-2.1-1.9-4.5-3.5-7-4.8c-2.7-1.4-5.5-2.5-8.4-3.4c-2.9-0.8-6-1.3-9-1.3c-6.8-0.1-13.5,1.3-19.6,4c-5.6,2.5-10.6,6.2-14.7,10.8
		c-4.1,4.6-7.2,9.9-9.3,15.7c-4.3,12.1-4.3,25.4,0,37.5c2,5.8,5.2,11.1,9.3,15.7c4.1,4.6,9.1,8.2,14.7,10.8c6.2,2.8,12.9,4.1,19.6,4
		c3,0,6-0.3,8.9-0.8c3-0.6,5.9-1.5,8.7-2.7c2.9-1.3,5.6-3.1,8-5.2c2.7-2.4,5.1-5.2,7-8.3L465.6,280.9z"/>
	<g>
		<defs>
			
				<rect id="SVGID_1_" x="43.1" y="171.3" transform="matrix(0.7045 -0.7097 0.7097 0.7045 -117.553 102.4679)" width="42.3" height="42.3"/>
		</defs>
		<clipPath id="SVGID_00000001625771815483735420000003066724543961497006_">
			<use xlink:href="#SVGID_1_"  style="overflow:visible;"/>
		</clipPath>
		<g style="clip-path:url(#SVGID_00000001625771815483735420000003066724543961497006_);">
			<path class="st2" d="M34.9,162.5l-0.5,4.7v-4.7H34.9z"/>
			<path class="st3" d="M35.6,162.5l-1.2,10.9v-6.2l0.5-4.7H35.6z"/>
			<path class="st3" d="M36.3,162.5l-1.9,17v-6.2l1.2-10.9H36.3z"/>
			<path class="st4" d="M37,162.5l-2.6,23.2v-6.2l1.9-17H37z"/>
			<path class="st4" d="M37.7,162.5l-3.3,29.4v-6.2l2.6-23.2H37.7z"/>
			<path class="st5" d="M38.4,162.5l-4,35.6v-6.2l3.3-29.4H38.4z M39.1,162.5l-4.7,41.8v-6.2l4-35.6H39.1z"/>
			<path class="st6" d="M39.8,162.5l-5.4,48v-6.2l4.7-41.8H39.8z"/>
			<path class="st6" d="M40.5,162.5l-6.1,54.2v-6.2l5.4-48H40.5z"/>
			<path class="st7" d="M41.2,162.5l-6.7,59.7l-0.1,0v-5.6l6.1-54.2H41.2z"/>
			<path class="st8" d="M41.9,162.5l-6.8,59.8h-0.4l-0.3,0l6.7-59.7C41.2,162.5,41.9,162.5,41.9,162.5z"/>
			<path class="st8" d="M42.6,162.5l-6.8,59.8h-0.7l6.8-59.8H42.6z"/>
			<path class="st9" d="M43.3,162.5l-6.8,59.8h-0.7l6.8-59.8H43.3z"/>
			<path class="st10" d="M44,162.5l-6.8,59.8h-0.7l6.8-59.8H44z"/>
			<path class="st11" d="M44.7,162.5l-6.8,59.8h-0.7l6.8-59.8C44,162.5,44.7,162.5,44.7,162.5z"/>
			<path class="st11" d="M45.4,162.5l-6.8,59.8h-0.7l6.8-59.8H45.4z"/>
			<path class="st12" d="M46.1,162.5l-6.8,59.8h-0.7l6.8-59.8C45.4,162.5,46.1,162.5,46.1,162.5z"/>
			<path class="st13" d="M46.8,162.5L40,222.3h-0.7l6.8-59.8C46.1,162.5,46.8,162.5,46.8,162.5z"/>
			<path class="st14" d="M47.5,162.5l-6.8,59.8H40l6.8-59.8C46.8,162.5,47.5,162.5,47.5,162.5z"/>
			<path class="st15" d="M48.2,162.5l-6.8,59.8h-0.7l6.8-59.8C47.5,162.5,48.2,162.5,48.2,162.5z"/>
			<path class="st16" d="M48.9,162.5l-6.8,59.8h-0.7l6.8-59.8C48.2,162.5,48.9,162.5,48.9,162.5z"/>
			<path class="st17" d="M49.6,162.5l-6.8,59.8h-0.7l6.8-59.8C48.9,162.5,49.6,162.5,49.6,162.5z"/>
			<path class="st18" d="M50.3,162.5l-6.8,59.8h-0.7l6.8-59.8C49.6,162.5,50.3,162.5,50.3,162.5z"/>
			<path class="st19" d="M51,162.5l-6.8,59.8h-0.7l6.8-59.8C50.3,162.5,51,162.5,51,162.5z"/>
			<path class="st20" d="M51.7,162.5l-6.8,59.8h-0.7l6.8-59.8C51,162.5,51.7,162.5,51.7,162.5z"/>
			<path class="st21" d="M52.4,162.5l-6.8,59.8h-0.7l6.8-59.8C51.7,162.5,52.4,162.5,52.4,162.5z"/>
			<path class="st22" d="M53.1,162.5l-6.8,59.8h-0.7l6.8-59.8C52.4,162.5,53.1,162.5,53.1,162.5z"/>
			<path class="st22" d="M53.8,162.5L47,222.3h-0.7l6.8-59.8C53.1,162.5,53.8,162.5,53.8,162.5z"/>
			<path class="st23" d="M54.5,162.5l-6.8,59.8H47l6.8-59.8C53.8,162.5,54.5,162.5,54.5,162.5z"/>
			<path class="st24" d="M55.2,162.5l-6.8,59.8h-0.7l6.8-59.8C54.5,162.5,55.2,162.5,55.2,162.5z"/>
			<path class="st25" d="M55.9,162.5l-6.8,59.8h-0.7l6.8-59.8C55.2,162.5,55.9,162.5,55.9,162.5z"/>
			<path class="st26" d="M56.6,162.5l-6.8,59.8h-0.7l6.8-59.8C55.9,162.5,56.6,162.5,56.6,162.5z"/>
			<path class="st27" d="M57.3,162.5l-6.8,59.8h-0.7l6.8-59.8C56.6,162.5,57.3,162.5,57.3,162.5z"/>
			<path class="st28" d="M58,162.5l-6.8,59.8h-0.7l6.8-59.8C57.3,162.5,58,162.5,58,162.5z"/>
			<path class="st29" d="M58.7,162.5l-6.8,59.8h-0.7l6.8-59.8H58.7z"/>
			<path class="st30" d="M59.4,162.5l-6.8,59.8h-0.7l6.8-59.8C58.7,162.5,59.4,162.5,59.4,162.5z"/>
			<path class="st31" d="M60.1,162.5l-6.8,59.8h-0.7l6.8-59.8C59.4,162.5,60.1,162.5,60.1,162.5z"/>
			<path class="st32" d="M60.8,162.5L54,222.3h-0.7l6.8-59.8C60.1,162.5,60.8,162.5,60.8,162.5z"/>
			<path class="st33" d="M61.5,162.5l-6.8,59.8H54l6.8-59.8C60.8,162.5,61.5,162.5,61.5,162.5z"/>
			<path class="st34" d="M62.2,162.5l-6.8,59.8h-0.7l6.8-59.8C61.5,162.5,62.2,162.5,62.2,162.5z"/>
			<path class="st35" d="M62.9,162.5l-6.8,59.8h-0.7l6.8-59.8C62.2,162.5,62.9,162.5,62.9,162.5z"/>
			<path class="st36" d="M63.6,162.5l-6.8,59.8h-0.7l6.8-59.8C62.9,162.5,63.6,162.5,63.6,162.5z"/>
			<path class="st37" d="M64.3,162.5l-6.8,59.8h-0.7l6.8-59.8C63.6,162.5,64.3,162.5,64.3,162.5z"/>
			<path class="st38" d="M65,162.5l-6.8,59.8h-0.7l6.8-59.8C64.3,162.5,65,162.5,65,162.5z"/>
			<path class="st39" d="M65.7,162.5l-6.8,59.8h-0.7l6.8-59.8C65,162.5,65.7,162.5,65.7,162.5z"/>
			<path class="st40" d="M66.4,162.5l-6.8,59.8h-0.7l6.8-59.8C65.7,162.5,66.4,162.5,66.4,162.5z"/>
			<path class="st41" d="M67,162.5l-6.8,59.8h-0.7l6.8-59.8C66.4,162.5,67,162.5,67,162.5z"/>
			<path class="st42" d="M67.7,162.5L61,222.3h-0.7l6.8-59.8C67,162.5,67.7,162.5,67.7,162.5z"/>
			<path class="st43" d="M68.4,162.5l-6.8,59.8H61l6.8-59.8C67.7,162.5,68.4,162.5,68.4,162.5z"/>
			<path class="st44" d="M69.1,162.5l-6.8,59.8h-0.7l6.8-59.8C68.4,162.5,69.1,162.5,69.1,162.5z"/>
			<path class="st45" d="M69.8,162.5l-6.8,59.8h-0.7l6.8-59.8C69.1,162.5,69.8,162.5,69.8,162.5z"/>
			<path class="st46" d="M70.5,162.5l-6.8,59.8h-0.7l6.8-59.8C69.8,162.5,70.5,162.5,70.5,162.5z"/>
			<path class="st46" d="M71.2,162.5l-6.8,59.8h-0.7l6.8-59.8C70.5,162.5,71.2,162.5,71.2,162.5z"/>
			<path class="st47" d="M71.9,162.5l-6.8,59.8h-0.7l6.8-59.8H71.9z"/>
			<path class="st48" d="M72.6,162.5l-6.8,59.8h-0.7l6.8-59.8C71.9,162.5,72.6,162.5,72.6,162.5z"/>
			<path class="st49" d="M73.3,162.5l-6.8,59.8h-0.7l6.8-59.8H73.3z"/>
			<path class="st50" d="M74,162.5l-6.8,59.8h-0.7l6.8-59.8C73.3,162.5,74,162.5,74,162.5z"/>
			<path class="st51" d="M74.7,162.5L68,222.3h-0.7l6.8-59.8C74,162.5,74.7,162.5,74.7,162.5z"/>
			<path class="st52" d="M75.4,162.5l-6.8,59.8H68l6.8-59.8C74.7,162.5,75.4,162.5,75.4,162.5z"/>
			<path class="st52" d="M76.1,162.5l-6.8,59.8h-0.7l6.8-59.8C75.4,162.5,76.1,162.5,76.1,162.5z"/>
			<path class="st53" d="M76.8,162.5l-6.8,59.8h-0.7l6.8-59.8C76.1,162.5,76.8,162.5,76.8,162.5z"/>
			<path class="st54" d="M77.5,162.5l-6.8,59.8h-0.7l6.8-59.8C76.8,162.5,77.5,162.5,77.5,162.5z"/>
			<path class="st54" d="M78.2,162.5l-6.8,59.8h-0.7l6.8-59.8C77.5,162.5,78.2,162.5,78.2,162.5z"/>
			<path class="st55" d="M78.9,162.5l-6.8,59.8h-0.7l6.8-59.8C78.2,162.5,78.9,162.5,78.9,162.5z"/>
			<path class="st56" d="M79.6,162.5l-6.8,59.8h-0.7l6.8-59.8C78.9,162.5,79.6,162.5,79.6,162.5z"/>
			<path class="st57" d="M80.3,162.5l-6.8,59.8h-0.7l6.8-59.8C79.6,162.5,80.3,162.5,80.3,162.5z"/>
			<path class="st58" d="M81,162.5l-6.8,59.8h-0.7l6.8-59.8C80.3,162.5,81,162.5,81,162.5z"/>
			<path class="st59" d="M81.7,162.5L75,222.3h-0.7l6.8-59.8C81,162.5,81.7,162.5,81.7,162.5z"/>
			<path class="st60" d="M82.4,162.5l-6.8,59.8H75l6.8-59.8C81.7,162.5,82.4,162.5,82.4,162.5z"/>
			<path class="st60" d="M93.8,162.5l0.4,0v59.7H75.7l6.8-59.8C82.4,162.5,93.8,162.5,93.8,162.5z"/>
		</g>
	</g>
	<g>
		<defs>
			
				<rect id="SVGID_00000031198305020423896320000015227288068089023411_" x="133.5" y="179.6" transform="matrix(0.7045 -0.7097 0.7097 0.7045 -93.1668 160.3268)" width="24.8" height="24.8"/>
		</defs>
		<clipPath id="SVGID_00000128483815971826269340000015419065901835270300_">
			<use xlink:href="#SVGID_00000031198305020423896320000015227288068089023411_"  style="overflow:visible;"/>
		</clipPath>
		<g style="clip-path:url(#SVGID_00000128483815971826269340000015419065901835270300_);">
			<path class="st2" d="M163.5,184.7l-0.5-10.2h0.5V184.7z"/>
			<path class="st3" d="M163.5,195.5l-1-21h0.5l0.5,10.2V195.5z"/>
			<path class="st3" d="M163.5,206.3l-1.5-31.8h0.5l1,21C163.5,195.5,163.5,206.3,163.5,206.3z"/>
			<path class="st4" d="M163.1,209.6l-1.6-35.1h0.5l1.5,31.8v3.3H163.1z"/>
			<path class="st5" d="M162.6,209.6l-1.6-35.1h0.5l1.6,35.1H162.6z M162.1,209.6l-1.6-35.1h0.5l1.6,35.1H162.1z"/>
			<path class="st6" d="M161.6,209.6l-1.6-35.1h0.5l1.6,35.1H161.6z"/>
			<path class="st7" d="M161.1,209.6l-1.6-35.1h0.5l1.6,35.1H161.1z"/>
			<path class="st8" d="M160.6,209.6l-1.6-35.1h0.5l1.6,35.1H160.6z"/>
			<path class="st8" d="M160.1,209.6l-1.6-35.1h0.5l1.6,35.1H160.1z"/>
			<path class="st9" d="M159.6,209.6l-1.6-35.1h0.5l1.6,35.1H159.6z"/>
			<path class="st10" d="M159.1,209.6l-1.6-35.1h0.5l1.6,35.1H159.1z"/>
			<path class="st11" d="M158.6,209.6l-1.6-35.1h0.5l1.6,35.1H158.6z"/>
			<path class="st11" d="M158.1,209.6l-1.6-35.1h0.5l1.6,35.1H158.1z"/>
			<path class="st12" d="M157.6,209.6l-1.6-35.1h0.5l1.6,35.1H157.6z"/>
			<path class="st13" d="M157.1,209.6l-1.6-35.1h0.5l1.6,35.1H157.1z"/>
			<path class="st14" d="M156.6,209.6l-1.6-35.1h0.5l1.6,35.1H156.6z"/>
			<path class="st15" d="M156.1,209.6l-1.6-35.1h0.5l1.6,35.1H156.1z"/>
			<path class="st16" d="M155.6,209.6l-1.6-35.1h0.5l1.6,35.1H155.6z"/>
			<path class="st17" d="M155.1,209.6l-1.6-35.1h0.5l1.6,35.1H155.1z"/>
			<path class="st18" d="M154.6,209.6l-1.6-35.1h0.5l1.6,35.1H154.6z"/>
			<path class="st19" d="M154.1,209.6l-1.6-35.1h0.5l1.6,35.1H154.1z"/>
			<path class="st20" d="M153.6,209.6l-1.6-35.1h0.5l1.6,35.1H153.6z"/>
			<path class="st20" d="M153.1,209.6l-1.6-35.1h0.5l1.6,35.1H153.1z"/>
			<path class="st21" d="M152.6,209.6l-1.6-35.1h0.5l1.6,35.1H152.6z"/>
			<path class="st22" d="M152.1,209.6l-1.6-35.1h0.5l1.6,35.1H152.1z"/>
			<path class="st22" d="M151.6,209.6l-1.6-35.1h0.5l1.6,35.1H151.6z"/>
			<path class="st23" d="M151.1,209.6l-1.6-35.1h0.5l1.6,35.1H151.1z"/>
			<path class="st24" d="M150.6,209.6l-1.6-35.1h0.5l1.6,35.1H150.6z"/>
			<path class="st25" d="M150.1,209.6l-1.6-35.1h0.5l1.6,35.1H150.1z"/>
			<path class="st26" d="M149.6,209.6l-1.6-35.1h0.5l1.6,35.1H149.6z M149.1,209.6l-1.6-35.1h0.5l1.6,35.1H149.1z"/>
			<path class="st27" d="M148.6,209.6l-1.6-35.1h0.5l1.6,35.1H148.6z"/>
			<path class="st28" d="M148.1,209.6l-1.6-35.1h0.5l1.6,35.1H148.1z"/>
			<path class="st29" d="M147.6,209.6l-1.6-35.1h0.5l1.6,35.1H147.6z"/>
			<path class="st62" d="M147.1,209.6l-1.6-35.1h0.5l1.6,35.1H147.1z"/>
			<path class="st63" d="M146.6,209.6l-1.6-35.1h0.5l1.6,35.1H146.6z"/>
			<path class="st64" d="M146.1,209.6l-1.6-35.1h0.5l1.6,35.1H146.1z"/>
			<path class="st32" d="M145.6,209.6l-1.6-35.1h0.5l1.6,35.1H145.6z"/>
			<path class="st33" d="M145.1,209.6l-1.6-35.1h0.5l1.6,35.1H145.1z"/>
			<path class="st34" d="M144.6,209.6l-1.6-35.1h0.5l1.6,35.1H144.6z"/>
			<path class="st65" d="M144.1,209.6l-1.6-35.1h0.5l1.6,35.1H144.1z"/>
			<path class="st35" d="M143.6,209.6l-1.6-35.1h0.5l1.6,35.1H143.6z"/>
			<path class="st36" d="M143.1,209.6l-1.6-35.1h0.5l1.6,35.1H143.1z"/>
			<path class="st66" d="M142.6,209.6l-1.6-35.1h0.5l1.6,35.1H142.6z"/>
			<path class="st37" d="M142.1,209.6l-1.6-35.1h0.5l1.6,35.1H142.1z"/>
			<path class="st38" d="M141.6,209.6l-1.6-35.1h0.5l1.6,35.1H141.6z"/>
			<path class="st39" d="M141.1,209.6l-1.6-35.1h0.5l1.6,35.1H141.1z"/>
			<path class="st67" d="M140.6,209.6l-1.6-35.1h0.5l1.6,35.1H140.6z"/>
			<path class="st40" d="M140.1,209.6l-1.6-35.1h0.5l1.6,35.1H140.1z"/>
			<path class="st68" d="M139.6,209.6l-1.6-35.1h0.5l1.6,35.1H139.6z"/>
			<path class="st41" d="M139.1,209.6l-1.6-35.1h0.5l1.6,35.1H139.1z"/>
			<path class="st42" d="M138.6,209.6l-1.6-35.1h0.5l1.6,35.1H138.6z"/>
			<path class="st43" d="M138.1,209.6l-1.6-35.1h0.5l1.6,35.1H138.1z"/>
			<path class="st69" d="M137.6,209.6l-1.6-35.1h0.5l1.6,35.1H137.6z"/>
			<path class="st70" d="M137.1,209.6l-1.6-35.1h0.5l1.6,35.1H137.1z"/>
			<path class="st45" d="M136.6,209.6l-1.6-35.1h0.5l1.6,35.1H136.6z"/>
			<path class="st46" d="M136.1,209.6l-1.6-35.1h0.5l1.6,35.1H136.1z"/>
			<path class="st46" d="M135.6,209.6l-1.6-35.1h0.5l1.6,35.1H135.6z"/>
			<path class="st46" d="M135.1,209.6l-1.6-35.1h0.5l1.6,35.1H135.1z"/>
			<path class="st71" d="M134.5,209.6l-1.6-35.1h0.5l1.6,35.1H134.5z"/>
			<path class="st47" d="M134,209.6l-1.6-35.1h0.5l1.6,35.1H134z"/>
			<path class="st48" d="M133.5,209.6l-1.6-35.1h0.5l1.6,35.1H133.5z"/>
			<path class="st49" d="M133,209.6l-1.6-35.1h0.5l1.6,35.1H133z"/>
			<path class="st49" d="M132.5,209.6l-1.6-35.1h0.5l1.6,35.1H132.5z"/>
			<path class="st49" d="M132,209.6l-1.6-35.1h0.5l1.6,35.1H132z"/>
			<path class="st50" d="M131.5,209.6l-1.6-35.1h0.5l1.6,35.1C132,209.6,131.5,209.6,131.5,209.6z M131,209.6l-1.6-35.1h0.5
				l1.6,35.1H131z"/>
			<path class="st51" d="M130.5,209.6l-1.6-35.1h0.5l1.6,35.1H130.5z"/>
			<path class="st52" d="M130,209.6l-1.6-35.1h0.5l1.6,35.1H130z"/>
			<path class="st52" d="M129.5,209.6l-1.1-24.3v-10.7h0l1.6,35.1H129.5z M129,209.6l-0.6-13.6v-10.8l1.1,24.3H129z"/>
			<path class="st53" d="M128.5,209.6l-0.1-2.8V196l0.6,13.6C129,209.6,128.5,209.6,128.5,209.6z"/>
			<path class="st53" d="M128.4,206.7l0.1,2.8h-0.1V206.7z"/>
		</g>
	</g>
	<path class="st0" d="M65.5,174.3l-18,18.2l18.2,18l15.4-0.1l-16.1-16l79.6-0.3l-7,7l7.7,0l9-9.1l-9.1-9l-7.7,0l7,7l-79.6,0.3
		l16-16.1L65.5,174.3z"/>
</g>
</svg>
