<?xml version="1.0" encoding="utf-8"?>
<!-- Generator: Adobe Illustrator 26.0.0, SVG Export Plug-In . SVG Version: 6.00 Build 0)  -->
<svg version="1.1" id="Layer_1" xmlns="http://www.w3.org/2000/svg" xmlns:xlink="http://www.w3.org/1999/xlink" x="0px" y="0px"
	 viewBox="0 0 500 500" style="enable-background:new 0 0 500 500;" xml:space="preserve">
<style type="text/css">
	.st0{fill-rule:evenodd;clip-rule:evenodd;fill:url(#SVGID_1_);}
	.st1{fill-rule:evenodd;clip-rule:evenodd;fill:#FFFFFF;}
	.st2{fill:#108ECE;}
</style>
<g>
	<g>
		
			<linearGradient id="SVGID_1_" gradientUnits="userSpaceOnUse" x1="127.9302" y1="302.3846" x2="127.9302" y2="201.6154" gradientTransform="matrix(1 0 0 -1 0 502)">
			<stop  offset="0" style="stop-color:#00AEEF"/>
			<stop  offset="0.212" style="stop-color:#0097DC"/>
			<stop  offset="0.519" style="stop-color:#007CC5"/>
			<stop  offset="0.792" style="stop-color:#006CB8"/>
			<stop  offset="1" style="stop-color:#0066B3"/>
		</linearGradient>
		<path class="st0" d="M26.1,300.4h103l100.8-100.8H26.1V300.4"/>
		<path class="st1" d="M147,219.8h-20.1l0.1,47.3l-17.5-47.3H92l-15,39.5c-1.6-10.1-12-13.5-20.2-16.1c-5.4-1.7-11.1-4.3-11.1-7.1
			c0-2.3,3.1-4.5,9.1-4.1c4,0.2,7.6,0.5,14.7,4l7-12.1c-6.5-3.3-15.4-5.4-22.7-5.4h0c-8.5,0-15.6,2.8-20.1,7.3
			c-3.1,3.2-4.7,7.2-4.8,11.7c-0.1,6.2,2.1,10.5,6.9,14c4,2.9,9.1,4.8,13.6,6.2c5.6,1.7,10.1,3.2,10.1,6.4c0,1.2-0.5,2.3-1.3,3.1
			c-1.4,1.4-3.5,2-6.5,2c-5.7,0.1-9.9-0.8-16.6-4.7l-6.2,12.3c6.7,3.8,13.8,5.7,21.9,5.7l1.8,0c7-0.1,12.7-1.8,17.3-5.5
			c0.3-0.2,0.5-0.4,0.7-0.6l-0.8,3.9l17-0.1l3-7.8c3.2,1.1,6.8,1.7,10.7,1.7c3.8,0,7.3-0.6,10.5-1.6l2.1,7.7l30.5,0l0.1-17.8h6.5
			c15.7,0,24.9-8,24.9-21.3C175.1,226.3,166.1,219.8,147,219.8z M100.6,260.2c-2.3,0-4.5-0.4-6.4-1.1l6.4-20.1h0.1l6.2,20.1
			C105,259.8,102.9,260.2,100.6,260.2L100.6,260.2z M148.1,248.7h-4.4v-16.2h4.4c5.9,0,10.6,2,10.6,8
			C158.7,246.7,154,248.7,148.1,248.7"/>
	</g>
	<g>
		<path class="st2" d="M241.1,218.5v23.3h20.4v-23.3h16.9v62.9h-16.9v-24.9h-20.4v24.9h-16.8v-62.9H241.1z"/>
		<path class="st2" d="M306.5,266.9l-3.5,14.6h-17.4l18.3-62.9h22.5l18.8,62.9h-18.2l-4-14.6H306.5z M320.5,254.4l-2.9-11.3
			c-1-3.5-2.1-8.7-3.1-12.4h-0.2c-0.9,3.7-1.9,8.9-2.8,12.5l-2.7,11.3H320.5z"/>
		<path class="st2" d="M353.1,281.5v-62.9H373l10,19.3c3.4,6.3,7.1,14.7,9.9,22.1h0.3c-0.9-8.3-1.3-17.1-1.3-26.5v-14.9h15.4v62.9
			h-17.8l-10.7-20.9c-3.5-6.7-7.6-15.1-10.6-22.7h-0.3c0.4,8.5,0.6,18,0.6,28.2v15.5H353.1z"/>
		<path class="st2" d="M435.4,266.9l-3.5,14.6h-17.4l18.3-62.9h22.5l18.8,62.9h-18.2l-4-14.6H435.4z M449.4,254.4l-2.9-11.3
			c-1-3.5-2.1-8.7-3.1-12.4h-0.2c-0.9,3.7-1.9,8.9-2.8,12.5l-2.7,11.3H449.4z"/>
	</g>
</g>
</svg>
