<?xml version="1.0" encoding="utf-8"?>
<!-- Generator: Adobe Illustrator 26.0.0, SVG Export Plug-In . SVG Version: 6.00 Build 0)  -->
<svg version="1.1" id="Layer_1" xmlns="http://www.w3.org/2000/svg" xmlns:xlink="http://www.w3.org/1999/xlink" x="0px" y="0px"
	 viewBox="0 0 500 500" style="enable-background:new 0 0 500 500;" xml:space="preserve">
<g id="Page-1_00000127003486374688209030000001709793927476551824_">
	<g id="Artboard_00000179637580416152104050000003168868952749153154_">
		
			<g id="HashiCorp_VerticalLogo_Black_00000090987797469739373550000012838728173030618253_" transform="translate(24.000000, 25.000000)">
			<path id="Shape_00000017500209227351057970000001532906406540079031_" d="M149.3,124.5V136v107.9l-36.5-19.7V92.9l91.2-53V84
				l-54.6,32.9V124.5z M306,73.1v108.3v18.8l-54.6,32.9v43.8l87.5-52.7V92.9L306,73.1z M284.2,60l-32.9-19.7v104.3H204v-34.2
				L171,130.1v127.4l32.9,19.7V173.8h47.4v33.2l32.9-19.7V60z"/>
			<path id="Shape_00000070826402592906352220000008497282776886468793_" d="M76.3,390v-26.7H51.9V390H39.4v-64.2h12.5v27h24.4v-27
				h12.5V390H76.3z M131.9,390H122l-1-3.3c-4.3,2.6-9.5,3.9-14.5,3.9c-8.9,0-12.5-5.9-12.5-13.8c0-9.5,4.3-13.2,14.2-13.2h11.5v-4.6
				c0-5.3-1.6-6.9-9.2-6.9c-4.3,0-9.2,0.7-13.5,1.3l-1.6-8.9c4.6-1.3,11.2-2.3,16.5-2.3c15.1,0,19.7,5.3,19.7,16.8L131.9,390
				L131.9,390z M119.7,372.6h-8.9c-3.9,0-4.9,1-4.9,4.6c0,3.3,1,4.6,4.9,4.6c3.6,0,6.9-1,9.2-2.3L119.7,372.6L119.7,372.6z
				 M154.6,391c-5.3,0-12.2-1-16.8-2.6l1.6-8.9c3.9,1,9.5,2,14.5,2c5.3,0,6.3-1,6.3-4.6c0-3-0.7-4.3-8.6-5.9
				c-11.8-2.6-13.2-5.6-13.2-14.5c0-9.2,4.3-13.5,18.1-13.5c4.6,0,10.2,0.7,14.5,1.6l-1.3,9.2c-3.6-0.7-9.5-1.3-13.2-1.3
				c-5.3,0-6.3,1-6.3,3.9c0,3.6,0.3,3.9,6.9,5.6c13.5,3.3,14.8,5.3,14.8,14.5C172,385.4,169.4,391,154.6,391z M207.6,390v-32.3
				c0-2.6-1-3.6-3.9-3.6c-3,0-8.2,1.6-12.5,3.9v32.3h-12.2v-65.2l12.2,1.6v20.4c5.3-2.6,12.5-4.6,17.8-4.6c7.9,0,10.9,5.3,10.9,13.8
				V390H207.6L207.6,390z M228.3,337.1v-11.2h12.2v11.2H228.3z M228.3,390v-46.4h12.2V390H228.3L228.3,390z M248.7,344
				c0-11.5,6.9-18.4,23.4-18.4c6.3,0,12.5,0.7,17.8,2l-1.3,10.2c-5.3-1-11.5-1.6-16.1-1.6c-8.6,0-11.5,3-11.5,9.5V370
				c0,6.6,2.6,9.5,11.5,9.5c4.6,0,10.9-0.7,16.1-1.6l1.3,10.2c-5.6,1.3-11.8,2-17.8,2c-16.5,0-23.4-6.6-23.4-18.4V344z M314.2,391
				c-16.5,0-21.1-8.9-21.1-18.1v-11.8c0-9.5,4.6-18.1,21.1-18.1s21.1,8.9,21.1,18.1v11.8C335.3,382.1,330.6,391,314.2,391z
				 M314.2,352.5c-6.6,0-8.9,2.6-8.9,7.9v12.5c0,5.3,2.6,7.9,8.9,7.9c6.6,0,8.9-2.6,8.9-7.9v-12.5
				C323.1,355.5,320.8,352.5,314.2,352.5z M366.8,353.5c-4.6,2-8.6,3.9-12.8,6.6V390h-12.2v-46.4H352l0.7,5.3
				c2.6-1.6,8.6-4.9,12.5-5.9L366.8,353.5z M412.6,374.6c0,10.2-4.6,16.5-15.8,16.5c-4.3,0-9.2-0.7-12.8-1.3v18.8l-12.2,1.6v-66.5
				h9.5l1.3,3.9c4.3-3,9.2-4.9,15.1-4.9c9.5,0,14.8,5.6,14.8,16.1V374.6z M384,379.8c3.3,0.7,7.2,1.3,10.5,1.3c4.3,0,5.9-2,5.9-6.3
				v-16.5c0-3.9-1.6-5.9-5.9-5.9c-3.9,0-8.2,2-10.9,4.3v23H384z"/>
		</g>
	</g>
</g>
</svg>
