<?xml version="1.0" encoding="utf-8"?>
<!-- Generator: Adobe Illustrator 26.0.0, SVG Export Plug-In . SVG Version: 6.00 Build 0)  -->
<svg version="1.1" id="Layer_1" xmlns="http://www.w3.org/2000/svg" xmlns:xlink="http://www.w3.org/1999/xlink" x="0px" y="0px"
	 viewBox="0 0 500 500" style="enable-background:new 0 0 500 500;" xml:space="preserve">
<style type="text/css">
	.st0{fill:#FF6A00;}
</style>
<g>
	<path class="st0" d="M96.5,304.8c-2.5-2.6-2.7-4.4-2.7-5.6c0-0.2,0-0.4,0-0.5c0.2-1.3,0.9-3.3,3.3-5.7l0.1-0.1l0.2-0.2
		c4.1-3.6,10.7-6.4,15.3-8c12.2-4.3,29.6-7.5,51.8-9.7l-0.1,51.4C145.3,324.1,108.3,317.2,96.5,304.8L96.5,304.8z M94,75.6
		c-0.1-0.5-0.2-1-0.2-1.5c0-2.8,3.3-6.3,9.2-9.7c6.8-3.9,16.4-7.5,28.8-10.7c11-2.7,22.1-4.9,33.3-6.4l-0.1,51h-0.1
		c-22.6-2.2-38.9-5.5-50.2-9.1l-2-0.7l-0.2-0.1c-5.6-2-14.3-5.7-17.4-10.6c-0.1-0.2-0.3-0.4-0.4-0.6C94.4,76.8,94.2,76.2,94,75.6
		L94,75.6L94,75.6z M93.8,270.8V102.7c1.7,0.9,3.5,1.8,5.3,2.5l0.5,0.2c2,0.9,4,1.7,6.1,2.4c14.4,5.1,33.9,8.7,59.2,11.1l-0.3,135.7
		c-25.1,2.3-44.3,5.9-58.6,10.9c-1.2,0.4-2.3,0.8-3.5,1.3c-0.9,0.4-1.8,0.7-2.7,1.1l-0.5,0.2c-0.9,0.4-1.8,0.8-2.6,1.2l-0.2,0.1
		c-0.8,0.4-1.6,0.8-2.4,1.2L93.8,270.8L93.8,270.8L93.8,270.8z M224.9,251.5c-14.5,0.3-27.7,0.8-39.9,1.5v-0.1l0.3-132.4
		c12.1,0.7,25.4,1.2,39.7,1.5L224.9,251.5L224.9,251.5L224.9,251.5z M245.3,327.4l0-55.7l5.1,0c42.2-0.1,74.8,1.5,99.7,4.7
		c34.7,4.5,48,11.5,53.1,16.5c2.6,2.6,2.9,4.6,2.9,6.1c0,9-12.5,16-37.1,20.8C343.1,324.8,304.7,327.2,245.3,327.4L245.3,327.4
		L245.3,327.4z M365.2,94.5c-26.3,4.9-63.8,7.3-114.8,7.3l-5,0l0-55.7c58.3,0.3,97.8,2.7,123.7,7.7c16.9,3.3,37,9.4,37,20.3
		c0,7.7-14.4,15.1-38.6,19.9L365.2,94.5L365.2,94.5L365.2,94.5z M245.3,251.2l0-129l5,0c52.2,0,91-2.5,118.6-7.6l1.5-0.3l0.1,0
		l1.6-0.3l0.2,0l1.7-0.3l0.2-0.1l1.8-0.4l0.2,0c0.6-0.1,1.3-0.3,2-0.4l0.2,0c0.7-0.2,1.5-0.3,2.2-0.5h0c1.6-0.4,3.2-0.8,4.7-1.2
		l0.2-0.1c0.7-0.2,1.5-0.4,2.3-0.6l0.3-0.1c0.9-0.3,1.7-0.5,2.6-0.8c1.7-0.5,3.4-1.1,5.1-1.8l0.1,0c0.9-0.3,1.7-0.7,2.6-1
		c0,0,0.1,0,0.1,0c0.8-0.3,1.6-0.7,2.4-1l0.2-0.1c0.8-0.3,1.5-0.7,2.3-1.1l0.3-0.1c0.7-0.4,1.5-0.8,2.2-1.1l0.2-0.1v167.2
		c-0.8-0.4-1.5-0.8-2.3-1.2l-0.1-0.1c-0.8-0.4-1.5-0.7-2.3-1l-0.4-0.2c-0.9-0.4-1.9-0.8-2.8-1.2c-0.9-0.3-1.7-0.7-2.6-1l-0.1,0
		c-0.9-0.3-1.7-0.6-2.6-0.9l-0.5-0.2c-0.9-0.3-1.8-0.6-2.7-0.8c-0.2-0.1-0.4-0.1-0.7-0.2c-0.9-0.3-1.9-0.6-2.8-0.8l-0.6-0.1
		c-1.1-0.3-2.2-0.6-3.3-0.9c-1-0.2-1.9-0.5-2.9-0.7l-1-0.2c-1-0.2-1.9-0.4-2.9-0.6l-1.1-0.2c-0.8-0.2-1.5-0.3-2.3-0.5l-1.7-0.3
		l-2.4-0.4l-1.6-0.3c-0.9-0.2-1.9-0.3-2.8-0.5l-1.9-0.3l-1.7-0.3c-1.1-0.2-2.1-0.3-3.2-0.5l-1.4-0.2c-1.5-0.2-3-0.4-4.5-0.6
		l-0.5-0.1l-2.7-0.3l-0.6-0.1c-1.7-0.2-3.3-0.4-5.1-0.6l-0.5-0.1c-16.8-1.7-36.3-2.8-58.9-3.3h-0.3l-7.5-0.1l-0.6,0l-3.9,0l-2.3,0
		c-3.8,0-7.5-0.1-11.3-0.1l-3.9,0h-2.8L245.3,251.2L245.3,251.2z"/>
	<g>
		<path d="M82.8,372.6v23.9h23.1v-23.9h14v62.1h-14v-26H82.8v26h-14v-62.1H82.8z"/>
		<path d="M175.8,411.7c0,16.5-11.7,24-23.8,24c-13.1,0-23.3-8.7-23.3-23.2c0-14.5,9.6-23.9,24.1-23.9
			C166.7,388.6,175.8,398.1,175.8,411.7z M143.3,412.1c0,7.7,3.3,13.5,9.2,13.5c5.5,0,8.9-5.5,8.9-13.6c0-6.6-2.6-13.5-8.9-13.5
			C145.8,398.6,143.3,405.5,143.3,412.1z"/>
		<path d="M184.5,369.3h14v65.4h-14V369.3z"/>
		<path d="M254.3,411.7c0,16.5-11.7,24-23.8,24c-13.1,0-23.3-8.7-23.3-23.2c0-14.5,9.6-23.9,24.1-23.9
			C245.1,388.6,254.3,398.1,254.3,411.7z M221.7,412.1c0,7.7,3.3,13.5,9.2,13.5c5.5,0,8.9-5.5,8.9-13.6c0-6.6-2.6-13.5-8.9-13.5
			C224.3,398.6,221.7,405.5,221.7,412.1z"/>
		<path d="M306.3,389.6c-0.2,2.9-0.4,6.7-0.4,13.4v25.1c0,8.7-1.7,15.7-6.9,20.3c-4.9,4.3-11.6,5.5-18.3,5.5
			c-5.9,0-12.2-1.2-16.2-3.5l2.8-10.6c2.8,1.6,7.8,3.4,13.1,3.4c6.6,0,11.7-3.5,11.7-11.9v-2.9h-0.2c-2.6,3.7-7,5.8-12.2,5.8
			c-11.1,0-19.1-9-19.1-21.9c0-14.5,9.4-23.7,20.4-23.7c6.2,0,10.1,2.7,12.3,6.4h0.2l0.5-5.4H306.3z M291.9,408
			c0-0.9-0.1-1.8-0.3-2.6c-1-3.7-3.6-6.2-7.5-6.2c-5.1,0-9.2,4.7-9.2,12.8c0,6.7,3.3,12,9.1,12c3.6,0,6.5-2.4,7.4-5.7
			c0.3-1.1,0.4-2.5,0.4-3.7V408z"/>
		<path d="M316.9,404.4c0-6.6-0.1-11-0.4-14.9h12l0.5,8.3h0.3c2.3-6.6,7.8-9.4,12.2-9.4c1.3,0,2,0,3,0.3V402
			c-1.1-0.2-2.2-0.4-3.8-0.4c-5.1,0-8.7,2.7-9.6,7.1c-0.2,0.9-0.3,2-0.3,3.1v22.8h-14V404.4z"/>
		<path d="M362,416.6c0.4,5.8,6.2,8.6,12.7,8.6c4.7,0,8.6-0.6,12.4-1.9l1.9,9.5c-4.7,1.9-10.3,2.8-16.3,2.8c-15.3,0-24-8.9-24-22.9
			c0-11.5,7.1-24.1,22.7-24.1c14.6,0,20.1,11.4,20.1,22.5c0,2.4-0.3,4.5-0.5,5.5H362z M378.4,407c0-3.4-1.5-9.1-7.9-9.1
			c-5.9,0-8.3,5.4-8.7,9.1H378.4z"/>
		<path d="M399.7,422.4c2.6,1.6,7.9,3.4,12,3.4c4.2,0,6-1.4,6-3.7c0-2.3-1.4-3.5-6.6-5.2c-9.4-3.1-12.9-8.2-12.8-13.5
			c0-8.5,7.1-14.8,18.3-14.8c5.3,0,9.9,1.2,12.7,2.6l-2.4,9.6c-2-1.1-6-2.5-9.8-2.5c-3.4,0-5.4,1.4-5.4,3.6c0,2.2,1.8,3.3,7.3,5.2
			c8.6,2.9,12.1,7.3,12.2,13.9c0,8.4-6.6,14.6-19.5,14.6c-5.9,0-11.2-1.3-14.6-3.2L399.7,422.4z"/>
	</g>
</g>
</svg>
