<?xml version="1.0" encoding="utf-8"?>
<!-- Generator: Adobe Illustrator 26.0.0, SVG Export Plug-In . SVG Version: 6.00 Build 0)  -->
<svg version="1.1" id="Layer_1" xmlns="http://www.w3.org/2000/svg" xmlns:xlink="http://www.w3.org/1999/xlink" x="0px" y="0px"
	 viewBox="0 0 500 500" style="enable-background:new 0 0 500 500;" xml:space="preserve">
<style type="text/css">
	.st0{fill-rule:evenodd;clip-rule:evenodd;fill:#53BCEB;}
	.st1{fill-rule:evenodd;clip-rule:evenodd;fill:#FEFEFE;}
</style>
<g>
	<g>
		<rect x="111.8" y="79.5" class="st0" width="276.5" height="276.5"/>
		<path class="st1" d="M330.8,312.3H169.2c-2.4,0-4.3-1.9-4.3-4.3v-73.9h-19.2c-2.7,0-4.9-2-5.1-4.6v-1c0.1-1.2,0.6-2.3,1.5-3.1
			l103.4-105.2c1.3-1.3,2.9-1.9,4.6-1.9c1.6,0,3.3,0.6,4.5,1.9l0.1,0.1l54,54.6v-10.1c0-2.4,1.9-4.3,4.3-4.3h17.9
			c2.4,0,4.3,1.9,4.3,4.3v37.1l23,23.6c0.9,0.9,1.3,2,1.4,3.1v0v0v1v0v0c-0.1,1.2-0.6,2.3-1.5,3.2c-1,0.9-2.3,1.5-3.6,1.5h-19.3V308
			C335.1,310.4,333.1,312.3,330.8,312.3L330.8,312.3z M359.5,229.5L359.5,229.5L359.5,229.5z M215.2,296.8h15.3l15.5,15.5h7.8
			l16-16.1h14.8c1.1,3.2,4.2,5.5,7.8,5.5c4.6,0,8.3-3.7,8.3-8.3c0-4.6-3.7-8.3-8.3-8.3c-3.6,0-6.7,2.3-7.8,5.5h-17.1l-14.9,14.9
			v-18.2l17.7-17.8h28.6c1.1,3.2,4.2,5.5,7.8,5.5c4.6,0,8.3-3.7,8.3-8.3c0-4.6-3.7-8.3-8.3-8.3c-3.6,0-6.7,2.3-7.8,5.5H276
			l16.5-16.6v-13.9l11.9-11.9c1.1,0.5,2.3,0.8,3.6,0.8c4.6,0,8.3-3.7,8.3-8.3c0-4.6-3.7-8.3-8.3-8.3c-4.6,0-8.3,3.7-8.3,8.3
			c0,1.3,0.3,2.5,0.8,3.6l-8,8v-25.4c3.2-1.1,5.5-4.2,5.5-7.8c0-4.6-3.7-8.3-8.3-8.3c-4.6,0-8.3,3.7-8.3,8.3c0,3.6,2.3,6.7,5.5,7.8
			v25.4l-8-8c0.5-1.1,0.8-2.3,0.8-3.6c0-4.6-3.7-8.3-8.3-8.3c-4.6,0-8.3,3.7-8.3,8.3c0,4.6,3.7,8.3,8.3,8.3c1.3,0,2.5-0.3,3.6-0.8
			l11.9,11.9v11.6l-14.9,15v-11c3.2-1.1,5.5-4.2,5.5-7.8c0-4.6-3.7-8.3-8.3-8.3c-4.6,0-8.3,3.7-8.3,8.3c0,3.6,2.3,6.7,5.5,7.8v16.5
			l-13.8,13.9v-81.4l11.3-11.4c1.1,0.5,2.3,0.8,3.6,0.8c4.6,0,8.3-3.7,8.3-8.3c0-4.6-3.7-8.3-8.3-8.3c-4.6,0-8.3,3.7-8.3,8.3
			c0,1.3,0.3,2.5,0.8,3.6L250,193l-10.2-10.2c0.5-1.1,0.8-2.3,0.8-3.6c0-4.6-3.7-8.3-8.3-8.3c-4.6,0-8.3,3.7-8.3,8.3
			c0,4.6,3.7,8.3,8.3,8.3c1.3,0,2.5-0.3,3.6-0.8l11.3,11.4v58.1l-19.9-20v-16c3.2-1.1,5.5-4.2,5.5-7.8c0-4.6-3.7-8.3-8.3-8.3
			c-4.6,0-8.3,3.7-8.3,8.3c0,3.6,2.3,6.7,5.5,7.8v10.4l-15.5-15.5v-15.4c3.2-1.1,5.5-4.2,5.5-7.8c0-4.6-3.7-8.3-8.3-8.3
			c-4.6,0-8.3,3.7-8.3,8.3c0,3.6,2.3,6.7,5.5,7.8v17.7l17.1,17.2h-9.8c-1.1-3.2-4.2-5.5-7.8-5.5c-4.6,0-8.3,3.7-8.3,8.3
			c0,4.6,3.7,8.3,8.3,8.3c3.6,0,6.7-2.3,7.8-5.5h15.3l23.8,23.9v41.5l-12.7-12.8v-16c3.2-1.1,5.5-4.2,5.5-7.8c0-4.6-3.7-8.3-8.3-8.3
			c-4.6,0-8.3,3.7-8.3,8.3c0,3.6,2.3,6.7,5.5,7.8v10.4l-18.5-18.6c0.5-1.1,0.8-2.3,0.8-3.6c0-4.6-3.7-8.3-8.3-8.3
			c-4.6,0-8.3,3.7-8.3,8.3c0,4.6,3.7,8.3,8.3,8.3c1.3,0,2.5-0.3,3.6-0.8l18.5,18.6h-9.8c-1.1-3.2-4.2-5.5-7.8-5.5
			c-4.6,0-8.3,3.7-8.3,8.3c0,4.6,3.7,8.3,8.3,8.3C211,302.3,214.1,300,215.2,296.8L215.2,296.8z M207.4,297.3c1.8,0,3.3-1.5,3.3-3.3
			c0-1.8-1.5-3.3-3.3-3.3c-1.8,0-3.3,1.5-3.3,3.3C204.1,295.8,205.6,297.3,207.4,297.3L207.4,297.3z M292.5,296.8
			c1.8,0,3.3-1.5,3.3-3.3c0-1.8-1.5-3.3-3.3-3.3c-1.8,0-3.3,1.5-3.3,3.3C289.2,295.3,290.7,296.8,292.5,296.8L292.5,296.8z
			 M231.7,272.4c1.8,0,3.3-1.5,3.3-3.3c0-1.8-1.5-3.3-3.3-3.3c-1.8,0-3.3,1.5-3.3,3.3C228.4,270.9,229.9,272.4,231.7,272.4
			L231.7,272.4z M306.9,270.2c1.8,0,3.3-1.5,3.3-3.3c0-1.8-1.5-3.3-3.3-3.3c-1.8,0-3.3,1.5-3.3,3.3
			C303.6,268.7,305,270.2,306.9,270.2L306.9,270.2z M203,268.5c1.8,0,3.3-1.5,3.3-3.3c0-1.8-1.5-3.3-3.3-3.3c-1.8,0-3.3,1.5-3.3,3.3
			C199.7,267,201.2,268.5,203,268.5L203,268.5z M269.3,244.7c1.8,0,3.3-1.5,3.3-3.3c0-1.8-1.5-3.3-3.3-3.3c-1.8,0-3.3,1.5-3.3,3.3
			C266,243.2,267.5,244.7,269.3,244.7L269.3,244.7z M200.2,240.8c1.8,0,3.3-1.5,3.3-3.3c0-1.8-1.5-3.3-3.3-3.3
			c-1.8,0-3.3,1.5-3.3,3.3C196.9,239.3,198.4,240.8,200.2,240.8L200.2,240.8z M308,217.5c1.8,0,3.3-1.5,3.3-3.3
			c0-1.8-1.5-3.3-3.3-3.3c-1.8,0-3.3,1.5-3.3,3.3C304.7,216,306.1,217.5,308,217.5L308,217.5z M271.5,217.5c1.8,0,3.3-1.5,3.3-3.3
			c0-1.8-1.5-3.3-3.3-3.3c-1.8,0-3.3,1.5-3.3,3.3C268.2,216,269.7,217.5,271.5,217.5L271.5,217.5z M224.5,215.8
			c1.8,0,3.3-1.5,3.3-3.3c0-1.8-1.5-3.3-3.3-3.3c-1.8,0-3.3,1.5-3.3,3.3C221.2,214.3,222.7,215.8,224.5,215.8L224.5,215.8z
			 M289.7,195.9c1.8,0,3.3-1.5,3.3-3.3c0-1.8-1.5-3.3-3.3-3.3c-1.8,0-3.3,1.5-3.3,3.3C286.4,194.4,287.9,195.9,289.7,195.9
			L289.7,195.9z M203.6,195.3c1.8,0,3.3-1.5,3.3-3.3c0-1.8-1.5-3.3-3.3-3.3c-1.8,0-3.3,1.5-3.3,3.3
			C200.2,193.8,201.7,195.3,203.6,195.3L203.6,195.3z M267.6,182.5c1.8,0,3.3-1.5,3.3-3.3c0-1.8-1.5-3.3-3.3-3.3
			c-1.8,0-3.3,1.5-3.3,3.3C264.3,181.1,265.8,182.5,267.6,182.5L267.6,182.5z M232.3,182.5c1.8,0,3.3-1.5,3.3-3.3
			c0-1.8-1.5-3.3-3.3-3.3c-1.8,0-3.3,1.5-3.3,3.3C229,181.1,230.5,182.5,232.3,182.5z"/>
	</g>
	<g>
		<path d="M73.8,381.5v16h18.5v-16h5v38.3h-5v-18H73.8v18h-5v-38.3H73.8z"/>
		<path d="M130.7,405.8c0,10.2-7.1,14.6-13.7,14.6c-7.5,0-13.2-5.5-13.2-14.2c0-9.2,6-14.6,13.7-14.6
			C125.3,391.7,130.7,397.4,130.7,405.8z M108.8,406.1c0,6,3.5,10.6,8.4,10.6c4.8,0,8.4-4.5,8.4-10.7c0-4.7-2.3-10.6-8.2-10.6
			C111.4,395.4,108.8,400.9,108.8,406.1z"/>
		<path d="M137,399.8c0-2.8-0.1-5.2-0.2-7.5h4.4l0.2,4.4h0.2c1.5-2.6,4.1-5.1,8.6-5.1c3.8,0,6.6,2.3,7.8,5.5h0.1
			c0.9-1.5,1.9-2.7,3.1-3.6c1.7-1.3,3.5-1.9,6.1-1.9c3.6,0,9,2.4,9,11.9v16.2h-4.9v-15.6c0-5.3-1.9-8.5-6-8.5
			c-2.8,0-5.1,2.1-5.9,4.6c-0.2,0.7-0.4,1.6-0.4,2.5v17h-4.9v-16.5c0-4.4-1.9-7.6-5.7-7.6c-3.1,0-5.4,2.5-6.2,5
			c-0.3,0.7-0.4,1.6-0.4,2.4v16.6H137V399.8z"/>
		<path d="M187.2,407c0.1,6.8,4.4,9.6,9.4,9.6c3.6,0,5.7-0.6,7.6-1.4l0.9,3.6c-1.8,0.8-4.8,1.7-9.2,1.7c-8.5,0-13.5-5.6-13.5-13.9
			c0-8.3,4.9-14.9,12.9-14.9c9,0,11.4,7.9,11.4,13c0,1-0.1,1.8-0.2,2.3H187.2z M201.9,403.4c0.1-3.2-1.3-8.1-6.9-8.1
			c-5.1,0-7.3,4.7-7.7,8.1H201.9z"/>
		<path d="M231.4,407.8l-4,12.1h-5.1l13-38.3h6l13.1,38.3h-5.3l-4.1-12.1H231.4z M243.9,403.9l-3.8-11c-0.9-2.5-1.4-4.8-2-7h-0.1
			c-0.6,2.3-1.2,4.6-1.9,6.9l-3.8,11.1H243.9z"/>
		<path d="M258.8,414.7c1.5,1,4.1,2,6.6,2c3.6,0,5.3-1.8,5.3-4.1c0-2.4-1.4-3.7-5.1-5.1c-4.9-1.8-7.3-4.5-7.3-7.8
			c0-4.4,3.6-8.1,9.5-8.1c2.8,0,5.2,0.8,6.8,1.7l-1.3,3.6c-1.1-0.7-3.1-1.6-5.6-1.6c-3,0-4.6,1.7-4.6,3.8c0,2.3,1.7,3.3,5.2,4.7
			c4.8,1.8,7.2,4.2,7.2,8.3c0,4.8-3.8,8.3-10.3,8.3c-3,0-5.8-0.7-7.7-1.9L258.8,414.7z"/>
		<path d="M281.3,414.7c1.5,1,4.1,2,6.6,2c3.6,0,5.3-1.8,5.3-4.1c0-2.4-1.4-3.7-5.1-5.1c-4.9-1.8-7.3-4.5-7.3-7.8
			c0-4.4,3.6-8.1,9.5-8.1c2.8,0,5.2,0.8,6.8,1.7l-1.3,3.6c-1.1-0.7-3.1-1.6-5.6-1.6c-3,0-4.6,1.7-4.6,3.8c0,2.3,1.7,3.3,5.2,4.7
			c4.8,1.8,7.2,4.2,7.2,8.3c0,4.8-3.8,8.3-10.3,8.3c-3,0-5.8-0.7-7.7-1.9L281.3,414.7z"/>
		<path d="M310.1,384.6c0.1,1.7-1.2,3.1-3.2,3.1c-1.8,0-3-1.4-3-3.1c0-1.8,1.3-3.1,3.1-3.1C308.9,381.4,310.1,382.8,310.1,384.6z
			 M304.5,419.8v-27.5h5v27.5H304.5z"/>
		<path d="M317.2,414.7c1.5,1,4.1,2,6.6,2c3.6,0,5.3-1.8,5.3-4.1c0-2.4-1.4-3.7-5.1-5.1c-4.9-1.8-7.3-4.5-7.3-7.8
			c0-4.4,3.6-8.1,9.5-8.1c2.8,0,5.2,0.8,6.8,1.7l-1.3,3.6c-1.1-0.7-3.1-1.6-5.6-1.6c-3,0-4.6,1.7-4.6,3.8c0,2.3,1.7,3.3,5.2,4.7
			c4.8,1.8,7.2,4.2,7.2,8.3c0,4.8-3.8,8.3-10.3,8.3c-3,0-5.8-0.7-7.7-1.9L317.2,414.7z"/>
		<path d="M346.4,384.4v7.9h7.2v3.8h-7.2V411c0,3.4,1,5.3,3.8,5.3c1.3,0,2.3-0.2,2.9-0.3l0.2,3.8c-1,0.4-2.5,0.7-4.4,0.7
			c-2.3,0-4.2-0.7-5.4-2.1c-1.4-1.5-1.9-3.9-1.9-7.2v-15h-4.3v-3.8h4.3v-6.6L346.4,384.4z"/>
		<path d="M374.5,419.8l-0.4-3.5h-0.2c-1.5,2.2-4.5,4.1-8.4,4.1c-5.6,0-8.4-3.9-8.4-7.9c0-6.7,5.9-10.3,16.6-10.2v-0.6
			c0-2.3-0.6-6.4-6.3-6.4c-2.6,0-5.2,0.8-7.2,2l-1.1-3.3c2.3-1.5,5.6-2.4,9-2.4c8.4,0,10.5,5.7,10.5,11.3v10.3
			c0,2.4,0.1,4.7,0.5,6.6H374.5z M373.7,405.8c-5.5-0.1-11.7,0.9-11.7,6.2c0,3.2,2.2,4.8,4.7,4.8c3.6,0,5.9-2.3,6.7-4.6
			c0.2-0.5,0.3-1.1,0.3-1.6V405.8z"/>
		<path d="M386.6,399.8c0-2.8-0.1-5.2-0.2-7.5h4.4l0.3,4.6h0.1c1.4-2.6,4.6-5.2,9.1-5.2c3.8,0,9.7,2.3,9.7,11.7v16.4h-5V404
			c0-4.4-1.7-8.1-6.4-8.1c-3.3,0-5.9,2.3-6.7,5.1c-0.2,0.6-0.3,1.5-0.3,2.3v16.6h-5V399.8z"/>
		<path d="M424,384.4v7.9h7.2v3.8H424V411c0,3.4,1,5.3,3.8,5.3c1.3,0,2.3-0.2,2.9-0.3l0.2,3.8c-1,0.4-2.5,0.7-4.4,0.7
			c-2.3,0-4.2-0.7-5.4-2.1c-1.4-1.5-1.9-3.9-1.9-7.2v-15h-4.3v-3.8h4.3v-6.6L424,384.4z"/>
	</g>
</g>
</svg>
