<?xml version="1.0" encoding="utf-8"?>
<!-- Generator: Adobe Illustrator 26.0.0, SVG Export Plug-In . SVG Version: 6.00 Build 0)  -->
<svg version="1.1" id="Layer_1" xmlns="http://www.w3.org/2000/svg" xmlns:xlink="http://www.w3.org/1999/xlink" x="0px" y="0px"
	 viewBox="0 0 500 500" style="enable-background:new 0 0 500 500;" xml:space="preserve">
<style type="text/css">
	.st0{fill:#008EC7;}
	.st1{fill:#005B9B;}
	.st2{fill:#FFFFFF;}
</style>
<g id="Layer_2_00000008864291052253687440000007455780405892949916_">
	<path class="st0" d="M394.9,145.8H105.1L55.3,250l49.7,104.2h289.9L444.7,250L394.9,145.8z M378.3,336.8H116L74.5,250l41.4-86.8
		h262.3l41.4,86.8L378.3,336.8z"/>
	<polygon class="st1" points="419.8,250 378.3,336.8 116,336.8 74.5,250 116,163.2 378.3,163.2 	"/>
	<path class="st2" d="M188.7,220.7v62h-14.4v-25.4h-28.1v25.4h-14.4v-62h14.3v24.4h28.1v-24.4H188.7z"/>
	<path class="st2" d="M216.3,232.4h-19.8v-11.7h54v11.7h-19.8v50.3h-14.4V232.4z"/>
	<path class="st2" d="M271.9,232.4h-19.8v-11.7h54v11.7h-19.8v50.3h-14.3V232.4z"/>
	<path class="st2" d="M355,223.5c3.8,1.6,7.1,4.3,9.4,7.8c2.2,3.6,3.4,7.7,3.3,12c0.1,4.2-1,8.3-3.3,11.9c-2.3,3.5-5.5,6.2-9.4,7.8
		c-4.5,1.9-9.4,2.8-14.3,2.7h-12.5v17.1h-14.3v-62h26.8C345.6,220.6,350.4,221.5,355,223.5z M349.7,251.1c2.3-2,3.5-4.9,3.4-7.9
		c0-3.5-1.1-6.2-3.4-8c-2.2-1.9-5.5-2.8-9.8-2.8h-11.7v21.5h11.7C344.2,253.9,347.4,253,349.7,251.1z"/>
</g>
</svg>
