<?xml version="1.0" encoding="utf-8"?>
<!-- Generator: Adobe Illustrator 26.0.0, SVG Export Plug-In . SVG Version: 6.00 Build 0)  -->
<svg version="1.1" id="Layer_1" xmlns="http://www.w3.org/2000/svg" xmlns:xlink="http://www.w3.org/1999/xlink" x="0px" y="0px"
	 viewBox="0 0 500 500" style="enable-background:new 0 0 500 500;" xml:space="preserve">
<style type="text/css">
	.st0{fill:#1F70C1;}
	.st1{fill:#166671;}
	.st2{fill:#BCCD29;}
</style>
<g>
	<g>
		<g>
			<polygon id="Rectangle-path_00000059282290194843494530000012571192733562250148_" class="st0" points="43.2,265.6 123.6,265.6 
				123.6,277.1 43.2,277.1 			"/>
			<polygon id="Rectangle-path_00000127023335453765222370000006085795435820316042_" class="st0" points="43.2,243.5 123.6,243.5 
				123.6,255 43.2,255 			"/>
			<polygon id="Rectangle-path_00000047018349394743354040000009453521271445834882_" class="st0" points="66.1,221.4 100.6,221.4 
				100.6,233 66.1,233 			"/>
			<polygon id="Rectangle-path_00000108995344735286558880000004168897941462657920_" class="st0" points="66.1,199.4 100.6,199.4 
				100.6,211 66.1,211 			"/>
			<polygon id="Rectangle-path_00000112601881212488984180000001991968793831767434_" class="st0" points="66.1,177.4 100.6,177.4 
				100.6,188.9 66.1,188.9 			"/>
			<polygon id="Rectangle-path_00000060720829278017007340000003786129947118682535_" class="st0" points="66.1,155.3 100.6,155.3 
				100.6,166.8 66.1,166.8 			"/>
			
				<rect id="Rectangle-path_00000032616228755251600980000002346885040271290291_" x="43.2" y="133.2" class="st0" width="80.4" height="11.6"/>
			
				<rect id="Rectangle-path_00000182489720671627068240000018204422370112310694_" x="43.2" y="111.2" class="st0" width="80.4" height="11.6"/>
		</g>
		<g>
			<path id="Shape_00000178927517353505722410000011993684227886621609_" class="st0" d="M135.1,255h123.7c2.1-3.6,3.6-7.5,4.6-11.6
				H135.1V255z"/>
			<path id="Shape_00000088829899623312672910000002094313072905101716_" class="st0" d="M249.1,199.4h-91.1V211h100.7
				C256.1,206.5,252.9,202.6,249.1,199.4z"/>
			<path id="Shape_00000090986478033898098110000017656946897046637486_" class="st0" d="M158.1,177.4v11.6h91.1
				c3.9-3.2,7.1-7.1,9.6-11.6L158.1,177.4L158.1,177.4z"/>
			<path id="Shape_00000174592610604703556530000013654101128297922185_" class="st0" d="M258.8,133.2H135.1v11.6h128.3
				C262.3,140.7,260.7,136.8,258.8,133.2z"/>
			<path id="Shape_00000145768621174034881160000004071172991933210754_" class="st0" d="M220.7,111.2h-85.7v11.6h115.2
				C242.6,115.6,232.1,111.2,220.7,111.2z"/>
			
				<rect id="Rectangle-path_00000016784119959306853830000016047296888721781158_" x="158.1" y="155.3" class="st0" width="34.5" height="11.6"/>
			<path id="Shape_00000052791887924395829920000012127483545774623660_" class="st0" d="M227,166.8h36.1c1-3.7,1.6-7.6,1.6-11.6
				H227L227,166.8L227,166.8z"/>
			<polygon id="Rectangle-path_00000145758839600217866130000000753578639077880709_" class="st0" points="158.1,221.4 192.5,221.4 
				192.5,233 158.1,233 			"/>
			<path id="Shape_00000087392503402654373100000015048766885129904821_" class="st0" d="M227,221.4V233h37.6c0-4-0.5-7.9-1.6-11.6
				H227z"/>
			<path id="Shape_00000060715116042535997040000007530771429178844823_" class="st0" d="M135.1,277l85.7,0.1
				c11.5,0,21.8-4.4,29.6-11.6H135.1V277z"/>
		</g>
		<g>
			<polygon id="Rectangle-path_00000065784609830060322870000002570872112713960073_" class="st0" points="273,265.6 330.4,265.6 
				330.4,277.1 273,277.1 			"/>
			<polygon id="Rectangle-path_00000158023015025825940510000006743030360536201885_" class="st0" points="273,243.5 330.4,243.5 
				330.4,255 273,255 			"/>
			<polygon id="Rectangle-path_00000173148791862197810250000006865428368512378033_" class="st0" points="295.9,221.4 330.4,221.4 
				330.4,233 295.9,233 			"/>
			<polygon id="Rectangle-path_00000035517196596680535730000014164155450499509379_" class="st0" points="295.9,199.4 330.4,199.4 
				330.4,211 295.9,211 			"/>
			<polygon id="Shape_00000065758578831702920010000018077911417573004990_" class="st0" points="346.4,133.2 273,133.2 273,144.8 
				350.4,144.8 			"/>
			<polygon id="Shape_00000124846007511136782290000009341310368781159833_" class="st0" points="338.8,111.2 273,111.2 273,122.8 
				342.8,122.8 			"/>
			<polygon id="Rectangle-path_00000070097223319205550880000016423910009985668244_" class="st0" points="399.3,265.6 456.8,265.6 
				456.8,277.1 399.3,277.1 			"/>
			<polygon id="Rectangle-path_00000089541432792952808500000010582149056970375587_" class="st0" points="399.3,243.5 456.8,243.5 
				456.8,255 399.3,255 			"/>
			<polygon id="Rectangle-path_00000165229091858892089320000015775461276546131084_" class="st0" points="399.3,221.4 433.8,221.4 
				433.8,233 399.3,233 			"/>
			<polygon id="Rectangle-path_00000104667963211873655690000009429166189659299997_" class="st0" points="399.3,199.4 433.8,199.4 
				433.8,211 399.3,211 			"/>
			<polygon id="Shape_00000056394851936887576400000003892130263455893674_" class="st0" points="399.3,188.9 433.8,188.9 
				433.8,177.4 399.3,177.4 399.3,177.4 368.1,177.4 364.9,186.7 361.6,177.4 330.4,177.4 330.4,177.4 295.9,177.4 295.9,188.9 
				330.4,188.9 330.4,178.3 334.1,188.9 395.7,188.9 399.3,178.3 			"/>
			<polygon id="Shape_00000057143828445141858510000003212469739218690196_" class="st0" points="433.8,155.3 375.7,155.3 
				371.8,166.8 433.8,166.8 			"/>
			<polygon id="Shape_00000061467417771914873320000015035807164020091575_" class="st0" points="391,111.2 387,122.8 456.8,122.8 
				456.8,111.2 			"/>
			<polygon id="Shape_00000139270255166428491860000006506349551917396873_" class="st0" points="364.9,277 368.8,265.6 
				360.9,265.6 			"/>
			<polygon id="Shape_00000143579897167798568480000013478622825058845338_" class="st0" points="357.3,255 372.5,255 376.6,243.5 
				353.2,243.5 			"/>
			<polygon id="Shape_00000091011088907662787110000000671210830018770873_" class="st0" points="349.5,233 380.2,233 384.3,221.4 
				345.5,221.4 			"/>
			<polygon id="Shape_00000065790833707016729500000003250070627758639771_" class="st0" points="341.8,211 388,211 391.9,199.4 
				337.8,199.4 			"/>
			<polygon id="Shape_00000108310513617109532860000009852191832416351627_" class="st0" points="295.9,166.8 358,166.8 354,155.3 
				295.9,155.3 			"/>
			<polygon id="Shape_00000156584167233693281760000004085996221901384836_" class="st0" points="379.4,144.8 456.8,144.8 
				456.8,133.2 383.4,133.2 			"/>
		</g>
	</g>
	<g id="Layer_2_00000099651540160650561570000003468911209585239732_">
		<g id="Layer_1-2_00000027583682896395284090000013868611421980085899_">
			<polygon class="st1" points="70.2,315.1 70.2,364.6 84.4,364.6 84.4,337.1 100,364.6 114.6,364.6 114.6,315.1 100.5,315.1 
				100.5,342.6 85.7,315.1 			"/>
			<polygon class="st1" points="159.9,325 159.9,354.7 168.6,354.7 168.6,332.8 186.2,354.7 200,354.7 200,325 191.1,325 
				191.1,347.1 173.6,325 			"/>
			<polygon class="st1" points="240.6,342.9 218.4,342.9 218.4,347.9 242.3,347.9 242.3,354.7 209.6,354.7 209.6,325 242,325 
				242,331.8 218.4,331.8 218.4,336.9 240.6,336.9 			"/>
			<polygon class="st1" points="321.8,342.9 299.7,342.9 299.7,347.9 323.5,347.9 323.5,354.7 290.8,354.7 290.8,325 323.2,325 
				323.2,331.8 299.7,331.8 299.7,336.9 321.8,336.9 			"/>
			<polygon class="st1" points="270.6,354.7 270.6,332.3 283.4,332.3 283.4,325 249,325 249,332.3 261.8,332.3 261.8,354.7 			"/>
			<polygon class="st1" points="345.1,347.5 366.3,347.5 366.3,354.7 331,354.7 331,347.5 352.2,332.2 331.5,332.2 331.5,325 
				365.7,325 365.7,332.2 			"/>
			<polygon class="st1" points="386.9,347.5 411.9,347.5 407.7,354.7 372.7,354.7 372.7,347.5 393.9,332.2 373.3,332.2 373.3,325 
				407.5,325 407.5,332.2 			"/>
			<path class="st1" d="M446.7,354.7h10.1L440.6,325h-11.5l-16.2,29.7H423l2.7-5h18.5L446.7,354.7z M429.1,342.9l5.7-10.9l5.7,10.9
				H429.1z"/>
			<path class="st2" d="M92.2,388.8c-27.1,0-49-21.9-49-49c0-27.1,21.9-49,49-49s49,21.9,49,49C141.2,366.8,119.3,388.8,92.2,388.8z
				 M92.2,296.4c-24,0-43.4,19.4-43.4,43.4s19.4,43.4,43.4,43.4s43.4-19.4,43.4-43.4l0,0C135.6,315.8,116.2,296.4,92.2,296.4z"/>
			<rect x="290.8" y="314.4" class="st2" width="32.4" height="5.2"/>
		</g>
	</g>
</g>
</svg>
