<?xml version="1.0" encoding="utf-8"?>
<!-- Generator: Adobe Illustrator 26.0.0, SVG Export Plug-In . SVG Version: 6.00 Build 0)  -->
<svg version="1.1" id="Layer_1" xmlns="http://www.w3.org/2000/svg" xmlns:xlink="http://www.w3.org/1999/xlink" x="0px" y="0px"
	 viewBox="0 0 500 500" style="enable-background:new 0 0 500 500;" xml:space="preserve">
<style type="text/css">
	.st0{fill-rule:evenodd;clip-rule:evenodd;fill:#1B1918;}
	.st1{fill-rule:evenodd;clip-rule:evenodd;fill:#FFFFFF;}
	.st2{fill-rule:evenodd;clip-rule:evenodd;fill:#09AF05;}
</style>
<g id="surface1_00000121968978997677407230000015844341682411521172_">
	<path class="st0" d="M19.2,321.6h231.4V178.4H19.2V321.6z"/>
	<path class="st1" d="M208.6,223.1h-26.9l1.7-4.6h25.3V223.1z"/>
	<path class="st1" d="M136.8,218.5l25,0l1.6,4.7c0,0-26.6,0-26.6,0S136.8,218.5,136.8,218.5L136.8,218.5z"/>
	<path class="st1" d="M116.9,218.5c4.1,0.4,7.7,1.9,10.8,4.7c0,0-45.3,0-45.3,0c0,0,0-4.7,0-4.7H116.9z"/>
	<path class="st1" d="M46.8,223.1h31.5v-4.6H46.8V223.1z"/>
	<path class="st1" d="M208.6,231.8h-30c0,0,1.6-4.6,1.6-4.6h28.4V231.8z"/>
	<path class="st1" d="M166.5,231.8h-29.7v-4.6h28.1L166.5,231.8z"/>
	<path class="st1" d="M131.2,227.2c0.6,1.5,1.3,2.8,1.3,4.6H82.4v-4.6H131.2z"/>
	<path class="st1" d="M46.8,231.8h31.5v-4.6H46.8V231.8z"/>
	<path class="st1" d="M175.5,240.6l1.6-4.6l22.5,0v4.6L175.5,240.6z"/>
	<path class="st1" d="M168,235.9l1.6,4.6h-24v-4.6H168z"/>
	<path class="st1" d="M132.9,235.9c0,1.6-0.2,3.3-0.7,4.6h-13.7v-4.6H132.9z"/>
	<path class="st1" d="M55.6,240.6h13.5v-4.6H55.6V240.6z"/>
	<path class="st1" d="M91.5,240.6H105v-4.6H91.5V240.6z"/>
	<path class="st1" d="M159,245.6c0,0,0,3.5,0,3.5h-13.3v-4.6H171l1.6,4.3c0,0,1.5-4.3,1.5-4.3h25.6v4.6h-13.2c0,0,0-3.5,0-3.5
		l-1.2,3.5l-25,0L159,245.6z"/>
	<path class="st1" d="M91.5,244.5h38.8c-0.8,1.5-2.4,3.4-3.8,4.6c0,0-34.9,0-34.9,0S91.5,244.5,91.5,244.5z"/>
	<path class="st1" d="M55.6,249.1h13.5v-4.6H55.6V249.1z"/>
	<path class="st1" d="M186.4,257.8h13.2v-4.6h-13.2V257.8z"/>
	<path class="st1" d="M159,253.2h-13.3v4.6c0,0,13.3,0,13.3,0S159,253.2,159,253.2z"/>
	<path class="st1" d="M183.8,253.2c-0.1,0-1.6,4.6-1.6,4.6l-18.9,0c0,0-1.7-4.6-1.7-4.6H183.8z"/>
	<path class="st1" d="M91.5,253.2h34.9c1.6,1.3,3,3,4.2,4.6c0.1,0-39,0-39,0S91.5,253.2,91.5,253.2z"/>
	<path class="st1" d="M69.1,257.8v-4.6H55.6c0,0,0,4.6,0,4.6C55.6,257.8,69.1,257.8,69.1,257.8z"/>
	<path class="st1" d="M186.4,266.5h13.2v-4.6h-13.2V266.5z"/>
	<path class="st1" d="M145.7,266.5H159v-4.6h-13.3V266.5z"/>
	<path class="st1" d="M179.1,266.5c0,0,1.6-4.6,1.7-4.6h-16c0,0,1.6,4.6,1.6,4.6S179.1,266.6,179.1,266.5z"/>
	<path class="st1" d="M91.5,266.5c0,0,0-4.6,0-4.6h13.7c0,0,0,4.6,0,4.6C105.2,266.5,91.5,266.5,91.5,266.5z"/>
	<path class="st1" d="M132.4,261.9c0.7,1.4,0.7,3.1,0.9,4.6h-14.5v-4.6H132.4z"/>
	<path class="st1" d="M55.6,266.5h13.5v-4.6H55.6V266.5z"/>
	<path class="st1" d="M186.4,275.1h22.2v-4.6h-22.2V275.1z"/>
	<path class="st1" d="M136.8,275.1H159v-4.6h-22.2V275.1z"/>
	<path class="st1" d="M176.1,275.1h-6.8l-1.6-4.6h10L176.1,275.1z"/>
	<path class="st1" d="M46.8,270.4v4.6h31.5c0,0,0-4.6,0-4.6C78.3,270.4,46.8,270.4,46.8,270.4z"/>
	<path class="st1" d="M132.7,270.4c-0.3,1.5-0.6,3.4-1.7,4.6l-0.4,0H82.4v-4.6H132.7z"/>
	<path class="st1" d="M173,283.8h-0.6l-1.6-4.6h3.8L173,283.8z"/>
	<path class="st1" d="M186.4,283.8h22.2v-4.6h-22.2V283.8z"/>
	<path class="st1" d="M82.4,283.8v-4.6c0,0,45.5,0,45.6,0c-3.1,2.9-7.2,4.6-11.8,4.6L82.4,283.8L82.4,283.8z"/>
	<path class="st1" d="M136.8,283.8H159v-4.6h-22.2V283.8z"/>
	<path class="st1" d="M78.3,279.2c0,0,0,4.6,0,4.6c0,0-31.5,0-31.5,0c0,0,0-4.6,0-4.6C46.8,279.2,78.2,279.2,78.3,279.2z"/>
	<path class="st1" d="M216.3,274.4c0.8,0,1.7,0.2,2.5,0.7c0.8,0.4,1.4,1.1,1.9,1.9c0.5,0.8,0.7,1.7,0.7,2.5c0,0.9-0.2,1.7-0.7,2.5
		c-0.4,0.8-1.1,1.4-1.9,1.9c-0.8,0.4-1.6,0.7-2.5,0.7c-0.9,0-1.7-0.2-2.5-0.7c-0.8-0.4-1.4-1.1-1.9-1.9c-0.4-0.8-0.7-1.6-0.7-2.5
		c0-0.9,0.2-1.7,0.7-2.5c0.5-0.8,1.1-1.4,1.9-1.9C214.6,274.6,215.4,274.4,216.3,274.4z M216.3,275.2c-0.7,0-1.4,0.2-2.1,0.5
		s-1.2,0.9-1.6,1.6c-0.4,0.7-0.6,1.4-0.6,2.1c0,0.7,0.2,1.4,0.6,2.1c0.4,0.7,0.9,1.2,1.6,1.6c0.7,0.4,1.4,0.6,2.1,0.6
		c0.7,0,1.4-0.2,2.1-0.6c0.7-0.4,1.2-0.9,1.6-1.6c0.4-0.7,0.6-1.4,0.6-2.1c0-0.7-0.2-1.4-0.6-2.1c-0.4-0.7-0.9-1.2-1.6-1.6
		S217,275.2,216.3,275.2z M214,282.3v-5.4h1.9c0.6,0,1.1,0,1.4,0.2c0.3,0.1,0.5,0.3,0.7,0.5c0.2,0.2,0.3,0.5,0.3,0.8
		c0,0.4-0.1,0.7-0.4,1c-0.3,0.3-0.7,0.5-1.1,0.5c0.2,0.1,0.3,0.2,0.5,0.3c0.2,0.2,0.5,0.6,0.8,1.1l0.7,1.1h-1.1l-0.5-0.9
		c-0.4-0.7-0.7-1.1-0.9-1.3c-0.2-0.1-0.4-0.2-0.7-0.2h-0.5v2.3H214z M214.9,279.2h1.1c0.5,0,0.9-0.1,1-0.2c0.2-0.2,0.3-0.4,0.3-0.6
		c0-0.2,0-0.3-0.1-0.4c-0.1-0.1-0.2-0.2-0.4-0.3c-0.2-0.1-0.5-0.1-0.9-0.1h-1V279.2z"/>
	<path class="st2" d="M250.6,320.8h230.2V178.4H250.6V320.8z"/>
	<path class="st1" d="M290.2,279.7v-63.7h17.6c22.4,0,33.6,10.3,33.6,31c0,9.8-3.1,17.7-9.3,23.7c-6.2,6-14.6,8.9-25,8.9H290.2z
		 M297.7,222.8V273h9.5c8.3,0,14.8-2.2,19.5-6.7c4.7-4.5,7-10.8,7-19c0-16.3-8.7-24.5-26-24.5H297.7z M354,279.7v-63.7h18.1
		c5.5,0,9.9,1.3,13.1,4c3.2,2.7,4.8,6.2,4.8,10.5c0,3.6-1,6.7-2.9,9.4c-2,2.7-4.6,4.6-8.1,5.7v0.2c4.3,0.5,7.7,2.1,10.3,4.8
		c2.6,2.7,3.9,6.3,3.9,10.7c0,5.4-2,9.8-5.9,13.2c-3.9,3.4-8.8,5.1-14.8,5.1H354z M361.4,222.8v20.6h7.6c4.1,0,7.3-1,9.6-3
		c2.3-2,3.5-4.7,3.5-8.3c0-6.2-4.1-9.3-12.2-9.3H361.4z M361.4,250.1V273h10.1c4.4,0,7.8-1,10.2-3.1c2.4-2.1,3.6-4.9,3.6-8.5
		c0-7.5-5.1-11.3-15.4-11.3H361.4z M440.4,279.7H402v-6.5l18.6-18.6c4.7-4.7,8.1-8.7,10.1-11.8c2-3.2,3-6.5,3-10.1
		c0-3.7-1-6.5-3.2-8.5c-2.1-2-5.1-3-9-3c-5.7,0-11.1,2.4-16.3,7.3v-7.6c5-3.9,10.8-5.8,17.4-5.8c5.7,0,10.1,1.5,13.4,4.6
		c3.3,3.1,4.9,7.2,4.9,12.4c0,4.1-1.1,8.1-3.4,12c-2.3,3.9-6.3,8.7-12.1,14.5L410.7,273v0.2h29.6V279.7z"/>
	<path class="st1" d="M448.3,274.8c0.8,0,1.7,0.2,2.5,0.7c0.8,0.4,1.4,1.1,1.9,1.9c0.5,0.8,0.7,1.7,0.7,2.5c0,0.9-0.2,1.7-0.7,2.5
		c-0.4,0.8-1.1,1.4-1.9,1.9c-0.8,0.4-1.6,0.7-2.5,0.7c-0.9,0-1.7-0.2-2.5-0.7c-0.8-0.4-1.4-1.1-1.9-1.9c-0.4-0.8-0.7-1.6-0.7-2.5
		c0-0.9,0.2-1.7,0.7-2.5c0.5-0.8,1.1-1.4,1.9-1.9C446.6,275,447.4,274.8,448.3,274.8z M448.3,275.6c-0.7,0-1.4,0.2-2.1,0.5
		c-0.7,0.4-1.2,0.9-1.6,1.6c-0.4,0.7-0.6,1.4-0.6,2.1c0,0.7,0.2,1.4,0.6,2.1c0.4,0.7,0.9,1.2,1.6,1.6c0.7,0.4,1.4,0.6,2.1,0.6
		c0.7,0,1.4-0.2,2.1-0.6c0.7-0.4,1.2-0.9,1.6-1.6c0.4-0.7,0.6-1.4,0.6-2.1c0-0.7-0.2-1.4-0.6-2.1c-0.4-0.7-0.9-1.2-1.6-1.6
		C449.7,275.8,449,275.6,448.3,275.6z M446,282.7v-5.4h1.9c0.6,0,1.1,0,1.4,0.2c0.3,0.1,0.5,0.3,0.7,0.5c0.2,0.2,0.3,0.5,0.3,0.8
		c0,0.4-0.1,0.7-0.4,1c-0.3,0.3-0.7,0.5-1.1,0.5c0.2,0.1,0.3,0.2,0.5,0.3c0.2,0.2,0.5,0.6,0.8,1.1l0.7,1.1h-1.1l-0.5-0.9
		c-0.4-0.7-0.7-1.1-0.9-1.3c-0.2-0.1-0.4-0.2-0.7-0.2h-0.5v2.3H446z M446.9,279.6h1.1c0.5,0,0.9-0.1,1-0.2c0.2-0.2,0.3-0.4,0.3-0.6
		c0-0.2,0-0.3-0.1-0.4c-0.1-0.1-0.2-0.2-0.4-0.3c-0.2-0.1-0.5-0.1-0.9-0.1h-1V279.6z"/>
</g>
</svg>
