<?xml version="1.0" encoding="utf-8"?>
<!-- Generator: Adobe Illustrator 26.0.0, SVG Export Plug-In . SVG Version: 6.00 Build 0)  -->
<svg version="1.1" id="Layer_1" xmlns="http://www.w3.org/2000/svg" xmlns:xlink="http://www.w3.org/1999/xlink" x="0px" y="0px"
	 viewBox="0 0 500 500" style="enable-background:new 0 0 500 500;" xml:space="preserve">
<style type="text/css">
	.st0{fill:#33CCFF;}
	.st1{fill:#FF4400;}
</style>
<g>
	<path class="st0" d="M83.5,192.2h37v115.6h-37L83.5,192.2L83.5,192.2z M31.5,192.2h36.9v115.6H31.5V192.2z M204.8,192.2h37v115.6
		h-37V192.2z M304.2,192.2h37v115.6h-37V192.2z M404.8,192.2h37v115.6h-37V192.2z"/>
	<path class="st1" d="M120.3,192.2h47.5v37h-47.5V192.2z M120.3,239.6h32.5v37h-32.5V239.6z M178.2,192.2h27.2v37h-27.2V192.2z
		 M241.4,192.2h27.2v37h-27.2V192.2z M277.7,192.2h27.2v37h-27.2V192.2z M340.8,192.2h27.2v37h-27.2V192.2z M378.2,192.2h27.2v37
		h-27.2V192.2z M441.3,192.2h27.2v37h-27.2V192.2z"/>
	<path d="M204.8,192.2h37v37h-37V192.2z M304.2,192.2h37v37h-37V192.2z M404.8,192.2h37v37h-37V192.2z M83.5,192.2h37v37h-37
		L83.5,192.2L83.5,192.2z M83.5,239.6h37v37h-37L83.5,239.6L83.5,239.6z"/>
</g>
</svg>
