<?xml version="1.0" encoding="utf-8"?>
<!-- Generator: Adobe Illustrator 26.0.0, SVG Export Plug-In . SVG Version: 6.00 Build 0)  -->
<svg version="1.1" id="Layer_1" xmlns="http://www.w3.org/2000/svg" xmlns:xlink="http://www.w3.org/1999/xlink" x="0px" y="0px"
	 viewBox="0 0 500 500" style="enable-background:new 0 0 500 500;" xml:space="preserve">
<g>
	<path d="M99.5,86.2c100.7,0,199.9,0,300.8,0c0,4.7,0,9,0,13.4c0,55.9-0.3,111.8,0.3,167.7c0.1,10.5-2.7,14.6-13.2,17.2
		c-92.4,22.3-184.7,22-277-0.5c-8.6-2.1-11.1-5.5-11.1-14.2c0.4-57.4,0.2-114.8,0.2-172.2C99.5,94.2,99.5,90.9,99.5,86.2z
		 M379.4,128.9c-44.6,31.3-87,61.1-129.6,91c-42.9-30.1-85.3-59.9-129.6-91c0,44.9-0.1,87.5,0.3,130c0,2.2,4.2,5.6,7,6.2
		c81.6,18.6,163.4,18.5,245-0.2c2.7-0.6,6.6-5,6.6-7.7C379.6,215.4,379.4,173.5,379.4,128.9z M129.8,106.6c-0.4,0.7-0.8,1.4-1.2,2.1
		c40.2,28.3,80.5,56.6,121.2,85.3c40.6-28.6,81-57,121.3-85.4c-0.4-0.7-0.8-1.4-1.2-2C289.9,106.6,209.9,106.6,129.8,106.6z"/>
	<path d="M224.6,411.2c-4.9,0-8.9,0-13.7,0c0-19.3,0-38.3,0-57.3c-0.8-0.3-1.6-0.5-2.3-0.8c-5.3,11-10.3,22.2-16,33
		c-1.6,3.1-5.4,7.6-7.7,7.3c-3.4-0.4-7.6-3.8-9.4-7.1c-6-10.9-11.1-22.4-18.9-33.1c0,19.2,0,38.3,0,57.9c-4.8,0-8.5,0-12.9,0
		c0-30.8,0-61.7,0-92.9c8.7-3,13.9-0.4,17.6,8.7c6.7,16.1,14.6,31.7,22.8,49.3c8.2-17.5,16.1-33.1,22.7-49.1
		c3.5-8.4,8-12.1,17.8-8.8C224.6,348.7,224.6,379.5,224.6,411.2z"/>
	<path d="M332.7,317.4c12.6,0,24.2-0.5,35.7,0.1c17.8,1,29,12.2,28.9,28c-0.1,16.5-11.8,27.5-29.9,28.1c-6.7,0.2-13.4,0-21.8,0
		c0,6.7,0,12.5,0,18.3c0,6,0,11.9,0,19c-4.3,0.2-8.2,0.4-13,0.7C332.7,380.3,332.7,349.5,332.7,317.4z M346.4,330.6
		c0,10.9,0,20.8,0,31.3c8.1,0,15.6,0.7,22.9-0.2c9.2-1.1,13.6-7.6,13.3-16.5c-0.3-9-5-14.6-14.8-14.6
		C360.8,330.6,353.8,330.6,346.4,330.6z"/>
	<path d="M238.4,410.5c7.4-20.6,14.8-41.2,22.3-61.8c3.2-8.8,6.2-17.6,10-26.1c1-2.3,4.6-4.9,7-4.9c2.4,0,6.1,2.6,7,4.9
		c10.9,28.9,21.5,57.9,32.2,87.3c-10.3,4.2-16,1.6-17.6-8.9c-1-7.3-5.1-10.1-12.4-9.1c-4,0.5-8.3,0.5-12.3,0
		c-10.9-1.3-18.3,0.8-20.6,13.7c-0.6,3.4-8.6,5.6-13.2,8.3C240,412.7,239.2,411.6,238.4,410.5z M278.1,338.2
		c-5.7,15.9-10.2,28.4-14.9,41.4c10.1,0,19,0,29.1,0C287.7,366.4,283.5,353.9,278.1,338.2z"/>
	<path d="M116.5,317.3c0,32,0,62.3,0,93.4c-4.2,0-8,0-12.7,0c0-30.5,0-61.1,0-92.8C107.7,317.7,111.5,317.5,116.5,317.3z"/>
</g>
</svg>
