<?xml version="1.0" encoding="utf-8"?>
<!-- Generator: Adobe Illustrator 26.0.0, SVG Export Plug-In . SVG Version: 6.00 Build 0)  -->
<svg version="1.1" id="Layer_1" xmlns="http://www.w3.org/2000/svg" xmlns:xlink="http://www.w3.org/1999/xlink" x="0px" y="0px"
	 viewBox="0 0 500 500" style="enable-background:new 0 0 500 500;" xml:space="preserve">
<style type="text/css">
	.st0{fill:url(#symbol_00000106842735034603614860000016501284411193647785_);}
	.st1{fill:url(#SVGID_1_);}
	.st2{fill:url(#SVGID_00000147207656370617121120000002673515037249778314_);}
	.st3{fill:url(#SVGID_00000098934037002214954880000002090941420967171241_);}
	.st4{fill:url(#SVGID_00000115494267943647920850000010310406190403601047_);}
	.st5{fill:url(#SVGID_00000178911643697872271720000017498326419620258227_);}
	.st6{fill:url(#SVGID_00000062880078023028307600000008531911618982981558_);}
	.st7{fill:url(#SVGID_00000099645022798236932470000003987405287810262680_);}
</style>
<g>
	
		<linearGradient id="symbol_00000173851734336159785240000005862569966704496061_" gradientUnits="userSpaceOnUse" x1="255.0106" y1="335.7788" x2="911.4768" y2="335.7788" gradientTransform="matrix(1 0 0 -1 0 502)">
		<stop  offset="0" style="stop-color:#4591ED"/>
		<stop  offset="1" style="stop-color:#00C9FF"/>
	</linearGradient>
	
		<path id="symbol_00000133495282257258156410000016020356393625278608_" style="fill:url(#symbol_00000173851734336159785240000005862569966704496061_);" d="
		M342.9,185.7l-18-78.5c-0.9-4.3-5-8.5-9.2-9.7l-82.5-25.3c-1.2-0.2-2.4-0.5-3.5-0.5c-3.5,0-7.3,1.4-9.5,3.5l-59.1,54.8
		c-3.1,2.8-5,8.5-4,12.8l19.1,83.9c0.9,4.3,5,8.5,9.2,9.7l77,23.6c1.2,0.2,2.4,0.5,3.5,0.5c3.5,0,7.3-1.4,9.5-3.5l63.1-58.6
		C342.2,195.6,343.8,190,342.9,185.7z M241.7,90.7l56.5,17.3c2.1,0.7,2.1,1.7,0,2.1l-29.8,6.9c-2.4,0.5-5.4-0.5-6.9-2.1l-20.8-22.5
		C239.1,90.9,239.6,90.2,241.7,90.7z M276.9,192.1c0.5,2.4-0.9,3.5-3.1,2.8l-61-18.7c-2.1-0.7-2.6-2.6-0.9-4l46.8-43.5
		c1.7-1.7,3.5-0.9,4,1.2L276.9,192.1z M176.5,136.8l49.6-46.1c1.7-1.7,4.3-1.4,5.9,0.2l24.8,26.7c1.7,1.7,1.4,4.3-0.2,5.9L207,169.6
		c-1.7,1.7-4.3,1.4-5.9-0.2l-24.8-26.7C174.8,141.1,174.8,138.5,176.5,136.8z M188.5,210.1l-13.2-57.4c-0.5-2.4,0.2-2.6,1.9-0.9
		l20.8,22.5c1.7,1.7,2.4,5,1.7,7.1l-9,29.1C190.2,212.2,189,212.2,188.5,210.1z M261.1,243.4l-64.5-19.9c-2.1-0.7-3.5-3.1-2.8-5.2
		l10.6-35c0.7-2.1,3.1-3.5,5.2-2.8l64.5,19.9c2.1,0.7,3.5,3.1,2.8,5.2l-10.6,35C265.6,242.9,263.2,244.1,261.1,243.4z M318.5,196.4
		l-43.3,40.2c-1.7,1.7-2.6,0.9-1.9-1.2l9-29.1c0.7-2.1,3.1-4.5,5.4-5l29.8-6.9C319.7,194,320.2,194.9,318.5,196.4z M323.3,187.8
		l-35.7,8c-2.4,0.5-4.5-0.9-5-3.1l-15.1-65.9c-0.5-2.4,0.9-4.5,3.1-5l35.7-8c2.4-0.5,4.5,0.9,5,3.1l15.1,65.9
		C326.8,185,325.4,187.4,323.3,187.8z"/>
	<g id="type_00000139997383910374144960000007963189087326968741_">
		<g>
			
				<linearGradient id="SVGID_1_" gradientUnits="userSpaceOnUse" x1="-88.426" y1="148.6586" x2="426.866" y2="148.6586" gradientTransform="matrix(1 0 0 -1 0 502)">
				<stop  offset="0" style="stop-color:#4591ED"/>
				<stop  offset="1" style="stop-color:#00C9FF"/>
			</linearGradient>
			<path class="st1" d="M38.1,336.4l16.5-2.2l-11.7,66.4H26.7L38.1,336.4z M42.9,308.4l16.5-2.2l-3.2,18.2l-16.5,2.4L42.9,308.4z"/>
			
				<linearGradient id="SVGID_00000042711966780970107160000017274311764617916066_" gradientUnits="userSpaceOnUse" x1="-88.426" y1="134.6523" x2="426.866" y2="134.6523" gradientTransform="matrix(1 0 0 -1 0 502)">
				<stop  offset="0" style="stop-color:#4591ED"/>
				<stop  offset="1" style="stop-color:#00C9FF"/>
			</linearGradient>
			<path style="fill:url(#SVGID_00000042711966780970107160000017274311764617916066_);" d="M106.1,354c0.2-0.7,0.2-1.5,0.2-1.7
				c0-1.7-0.7-2.8-3.3-2.8c-4.3,0-13.4,4.1-19.5,7.6l-7.6,43.4H59.8l11.3-64l13.9-2.4l-0.2,8c8.5-4.6,18.7-8.2,26.5-8.2
				c8.9,0,11.9,5.9,11.9,13c0,2.6-0.2,4.3-0.7,6.5l-8.3,47.3H98L106.1,354z"/>
			
				<linearGradient id="SVGID_00000056415920191833357830000009302040288360592777_" gradientUnits="userSpaceOnUse" x1="-88.426" y1="135.1161" x2="426.866" y2="135.1161" gradientTransform="matrix(1 0 0 -1 0 502)">
				<stop  offset="0" style="stop-color:#4591ED"/>
				<stop  offset="1" style="stop-color:#00C9FF"/>
			</linearGradient>
			<path style="fill:url(#SVGID_00000056415920191833357830000009302040288360592777_);" d="M175.1,348.2h-15l-9.8,55.3
				c-1.9,10.6-5.8,17.3-14.3,24.7l-10.4-9.6c5.2-5,7.6-9.5,8.7-16.5l9.5-53.8h-10l2.2-13.2h10l1.7-9.5c2.4-13.9,8-20,24.5-20
				c5.4,0,12.4,0.7,20.6,2.6l16.5-2.2l-16.7,94.4h-16.1l14.1-80c-6.5-1.3-13-2-18.2-2c-5.6,0-7.8,1.9-8.5,6.5l-1.7,10h16.3
				L175.1,348.2z"/>
			
				<linearGradient id="SVGID_00000124133653827502126480000017395959519251879571_" gradientUnits="userSpaceOnUse" x1="-88.426" y1="134.0958" x2="426.866" y2="134.0958" gradientTransform="matrix(1 0 0 -1 0 502)">
				<stop  offset="0" style="stop-color:#4591ED"/>
				<stop  offset="1" style="stop-color:#00C9FF"/>
			</linearGradient>
			<path style="fill:url(#SVGID_00000124133653827502126480000017395959519251879571_);" d="M228.4,381.6c-0.2,0.9-0.2,1.5-0.2,1.7
				c0,1.7,0.7,2.8,3.3,2.8c4.3,0,13.4-4.1,19.5-7.6l7.4-42.3L275,334l-11.5,66.6h-13.7l0.2-6.9c-8.5,4.6-18.7,8.2-26.5,8.2
				c-8.9,0-11.9-5.9-11.9-13c0-2.6,0.2-4.3,0.7-6.5l8-46l16.5-2.2L228.4,381.6z"/>
			
				<linearGradient id="SVGID_00000156563040283348809900000002364346438450726023_" gradientUnits="userSpaceOnUse" x1="-88.426" y1="134.7451" x2="426.866" y2="134.7451" gradientTransform="matrix(1 0 0 -1 0 502)">
				<stop  offset="0" style="stop-color:#4591ED"/>
				<stop  offset="1" style="stop-color:#00C9FF"/>
			</linearGradient>
			<path style="fill:url(#SVGID_00000156563040283348809900000002364346438450726023_);" d="M300.4,367.5l-14.1-30.8l15-2.8
				l9.8,23.2l16.1-22.1h17.3l-26.7,34.5l14.3,31h-16.3l-8.9-18.9l-15.8,18.9h-17.3L300.4,367.5z"/>
			
				<linearGradient id="SVGID_00000172423467265848166690000011920753601201591442_" gradientUnits="userSpaceOnUse" x1="-88.426" y1="147.9165" x2="426.866" y2="147.9165" gradientTransform="matrix(1 0 0 -1 0 502)">
				<stop  offset="0" style="stop-color:#4591ED"/>
				<stop  offset="1" style="stop-color:#00C9FF"/>
			</linearGradient>
			<path style="fill:url(#SVGID_00000172423467265848166690000011920753601201591442_);" d="M393.9,400.6h-13.7v-7.2
				c-5.6,5-12.6,8.5-22.3,8.5c-11.3,0-15.2-6.1-15.2-14.8c0-2.2,0.2-4.5,0.7-6.9l3.3-19.1c3-16.7,6.1-27.3,31.7-27.3
				c2.4,0,7,0.4,10.8,1.3l4.6-26.5l16.5-2.2L393.9,400.6z M387,348.2c-3-0.7-7.2-0.7-9.5-0.7c-10.4,0-13,4.1-14.5,12.8l-4.1,23
				c-0.2,0.7-0.2,1.3-0.2,1.7c0,2.4,1.7,3.5,4.6,3.5c6.9,0,14.8-5.6,18.2-9.8L387,348.2z"/>
			
				<linearGradient id="SVGID_00000057843667370987652760000011341194083456894346_" gradientUnits="userSpaceOnUse" x1="-88.426" y1="148.0093" x2="426.866" y2="148.0093" gradientTransform="matrix(1 0 0 -1 0 502)">
				<stop  offset="0" style="stop-color:#4591ED"/>
				<stop  offset="1" style="stop-color:#00C9FF"/>
			</linearGradient>
			<path style="fill:url(#SVGID_00000057843667370987652760000011341194083456894346_);" d="M426.9,308.4l16.5-2.2l-5.9,33.4
				c7.2-4.1,14.1-5.8,20.6-5.8c11.3,0,15.2,6.1,15.2,14.8c0,2.2-0.2,4.5-0.7,6.9l-3.2,19.1c-3.5,19.7-10.2,27.3-33.8,27.3
				c-6.1,0-18-2-24.5-4.3L426.9,308.4z M428.9,387.4c3,0.6,6.1,0.9,9.5,0.9c10.4,0,13-4.3,14.5-12.8l4.1-23c0.2-0.7,0.2-1.3,0.2-1.7
				c0-2.4-1.7-3.5-4.6-3.5c-5,0-11.9,2.2-17.6,6.1L428.9,387.4z"/>
		</g>
	</g>
</g>
</svg>
