<?xml version="1.0" encoding="utf-8"?>
<!-- Generator: Adobe Illustrator 26.0.0, SVG Export Plug-In . SVG Version: 6.00 Build 0)  -->
<svg version="1.1" id="Layer_1" xmlns="http://www.w3.org/2000/svg" xmlns:xlink="http://www.w3.org/1999/xlink" x="0px" y="0px"
	 viewBox="0 0 500 500" style="enable-background:new 0 0 500 500;" xml:space="preserve">
<style type="text/css">
	.st0{fill:#5382A1;}
	.st1{fill:#E76F00;}
</style>
<g>
	<g>
		<path class="st0" d="M208.6,276.3c0,0-12.1,7,8.6,9.4c25,2.9,37.8,2.4,65.4-2.8c0,0,7.2,4.5,17.4,8.5
			C238.1,317.9,160,289.9,208.6,276.3"/>
		<path class="st0" d="M201,241.7c0,0-13.5,10,7.1,12.2c26.7,2.8,47.8,3,84.4-4.1c0,0,5.1,5.1,13,7.9
			C230.8,279.6,147.5,259.5,201,241.7"/>
		<path class="st1" d="M264.7,183.1c15.2,17.5-4,33.3-4,33.3s38.7-20,20.9-45c-16.6-23.3-29.3-34.9,39.6-74.8
			C321.1,96.6,213.1,123.6,264.7,183.1"/>
		<path class="st0" d="M346.4,301.9c0,0,8.9,7.4-9.8,13c-35.7,10.8-148.5,14.1-179.8,0.4c-11.3-4.9,9.9-11.7,16.5-13.1
			c6.9-1.5,10.9-1.2,10.9-1.2c-12.5-8.8-81,17.3-34.8,24.8C275.4,346.3,379.1,316.6,346.4,301.9"/>
		<path class="st0" d="M214.4,205.9c0,0-57.4,13.6-20.3,18.6c15.6,2.1,46.8,1.6,75.9-0.8c23.7-2,47.6-6.3,47.6-6.3
			s-8.4,3.6-14.4,7.7c-58.3,15.3-170.8,8.2-138.4-7.5C192.1,204.4,214.4,205.9,214.4,205.9"/>
		<path class="st0" d="M317.3,263.5c59.2-30.8,31.8-60.4,12.7-56.4c-4.7,1-6.8,1.8-6.8,1.8s1.7-2.7,5.1-3.9
			c37.8-13.3,66.9,39.2-12.2,60C316.1,265,317,264.2,317.3,263.5"/>
		<path class="st1" d="M281.6,32.1c0,0,32.8,32.8-31.1,83.3c-51.3,40.5-11.7,63.6,0,89.9c-29.9-27-51.9-50.8-37.1-72.9
			C234.9,100,294.8,84.2,281.6,32.1"/>
		<path class="st0" d="M220.2,346.9c56.9,3.6,144.2-2,146.2-28.9c0,0-4,10.2-47,18.3c-48.5,9.1-108.4,8.1-143.9,2.2
			C175.5,338.5,182.8,344.5,220.2,346.9"/>
	</g>
	<g>
		<path class="st1" d="M201.4,381.6c0-2.4-0.1-4.5,0-6.6c0-0.4,0.6-1,1-1.1c7.6-1.7,15.3-2.8,23-0.8c6.6,1.7,10.5,6.7,10.6,13.5
			c0,10.2,0,20.5,0,30.7c0,1.4-0.3,2-1.8,1.9c-1.6-0.1-3.7,0.5-4.8-0.3c-0.9-0.6-0.8-2.8-1.2-4.5c-0.8,0.5-1.6,1-2.3,1.5
			c-5.2,3.6-10.9,5.3-17.2,4.1c-8.1-1.5-12.8-8.8-11.5-16.9c1.1-6.6,5.3-10.2,11.2-11.6c5.7-1.3,11.7-1.7,17.6-2.4
			c2.6-0.3,2.7-0.1,2.6-2.7c-0.2-3.4-2.2-6.1-5.6-7c-6.3-1.7-12.4-0.7-18.4,1.2C203.7,380.9,202.7,381.2,201.4,381.6z M228.8,394.5
			c-5.2,0.6-10.2,1-15.1,1.9c-2,0.3-4.1,1.4-5.8,2.5c-3.2,2-3.3,5.4-2.8,8.6c0.5,3,2.5,4.7,5.4,5.4c6.7,1.6,12.4-0.5,17.6-4.6
			c0.3-0.3,0.6-0.9,0.6-1.3C228.8,403.1,228.8,399.2,228.8,394.5z"/>
		<path class="st1" d="M327.4,414.3c-1.2,0.8-2.4,1.6-3.6,2.4c-5,3.1-10.5,4.4-16.3,3.2c-5.7-1.1-10.3-6-11.1-11.7
			c-0.9-6.7,1.6-12.1,7.1-15.1c3.8-2.1,7.9-2.9,12.2-3.3c3.5-0.3,7-0.6,10.6-0.8c1.3-0.1,1.7-0.6,1.7-1.9c0-4.1-2.1-7-6.2-7.9
			c-6.2-1.5-12.3-0.5-18.3,1.4c-0.7,0.2-1.4,0.5-2.2,0.7c-0.2,0.1-0.4,0-0.8,0c0-2.1-0.1-4.3,0-6.4c0-0.4,0.6-1,1-1.1
			c7.6-1.7,15.3-2.8,23-0.8c6.7,1.7,10.6,6.7,10.6,13.7c0.1,10.1,0,20.2,0.1,30.3c0,1.5-0.3,2.3-2,2.1c-0.2,0-0.5,0-0.8,0
			c-1.4,0-3.2,0.4-4-0.3c-0.8-0.6-0.5-2.5-0.6-3.8C327.7,414.8,327.6,414.7,327.4,414.3z M327.8,401.6c0-1.7-0.1-3.4,0-5.1
			c0.1-1.3-0.4-1.7-1.7-1.6c-4.3,0.4-8.7,0.6-13,1.4c-2.3,0.4-4.6,1.5-6.5,2.8c-3,2-3.2,5.3-2.6,8.5c0.5,2.9,2.4,4.6,5.3,5.3
			c5.4,1.3,10.3,0.2,15.1-2.6c2.4-1.4,4-3,3.4-5.9C327.7,403.5,327.8,402.5,327.8,401.6z"/>
		<path class="st1" d="M156.1,411.7c2.4,0.5,4.5,1.3,6.6,1.4c2.7,0.2,5.4,0.1,8.1-0.4c3.8-0.7,5.8-3.6,5.9-7.8
			c0.2-5.1,0.3-10.2,0.3-15.3c0-7.8,0-15.7,0-23.5c0-1.7-0.5-2.3-2.3-2.3c-3.1,0.1-6.2,0-9.3,0c-1.2,0-1.7-0.3-1.7-1.6
			c0.1-5.2-0.7-4.3,4.2-4.4c4.9,0,9.9,0,14.8,0c1.6,0,2,0.5,2,2.1c-0.1,14.3,0,28.6-0.1,42.8c0,5.8-1.6,10.9-6.7,14.2
			c-4.5,2.9-9.5,3.3-14.6,2.9c-1.9-0.1-3.8-0.5-5.6-0.7c-1.2-0.1-1.8-0.6-1.8-1.9C156.2,415.4,156.1,413.7,156.1,411.7z"/>
		<path class="st1" d="M246,373.1c2.5,0,4.7-0.1,6.8,0.1c0.7,0.1,1.5,1,1.8,1.7c3.5,8.9,6.9,17.7,10.4,26.6c1,2.7,2.1,5.4,3.4,8.5
			c0.5-1.1,0.9-1.7,1.1-2.3c4.2-10.9,8.5-21.9,12.7-32.8c0.5-1.3,1.1-1.9,2.6-1.8c1.8,0.1,3.6,0,5.7,0c-0.9,2.2-1.6,4.1-2.3,5.9
			c-5.2,12.8-10.4,25.5-15.5,38.3c-0.6,1.4-1.3,1.9-2.8,1.9c-5.5-0.1-5.5,0-7.5-5.2c-5.2-12.9-10.4-25.8-15.5-38.7
			C246.5,374.7,246.3,374.1,246,373.1z"/>
		<path d="M205.3,467c0-13.5,0-26.6,0-40c0.7,0,1.3-0.1,1.9-0.1c4.2,0,8.5,0,12.7,0c9.2,0,15.4,4.4,18.1,13.2
			c2.4,7.8,1.6,15.4-4.3,21.5c-3.5,3.6-8.1,5.4-13.1,5.4C215.5,467.1,210.5,467,205.3,467z M210.1,431c0,10.8,0,21.3,0,31.9
			c3.7,0,7.2,0,10.7,0c3.9-0.1,7.1-1.8,9.4-4.9c3.5-4.8,4.5-10.1,3.2-15.8c-1.3-5.6-6.4-10.7-11.4-11.1
			C218.1,430.8,214.2,431,210.1,431z"/>
		<path d="M264.4,467c0-13.5,0-26.7,0-40.1c4.8,0,9.4-0.4,14.1,0.1c7.5,0.7,11.5,9.7,7.1,15.6c-0.8,1.1-2.1,1.9-3.2,2.9
			c0,0,0.1,0.2,0.2,0.3c6.4,2,8.4,10.5,4.9,16.2c-2,3.3-5.2,4.7-8.7,5C274.1,467.3,269.4,467,264.4,467z M269,462.8
			c0.4,0.1,0.7,0.1,0.9,0.1c2.4,0,4.8,0.1,7.2,0c3.6-0.1,6.5-2.6,6.9-6.1c0.5-3.9-1.4-7.2-5.1-7.9c-3.2-0.6-6.6-0.5-10-0.6
			C269,453.4,269,458,269,462.8z M269.1,430.8c0,4.8,0,9.1,0,13.5c2.3,0,4.5,0,6.7,0c3.5-0.1,6.2-2.4,6.7-5.8c0.4-3.4-1.5-6.4-5-7.1
			C274.8,430.9,272,431,269.1,430.8z"/>
		<path d="M346.4,459.4c0,2.1,0.1,3.5,0,4.9c0,0.5-0.5,1.2-1,1.3c-8.5,3.2-16.8,3.3-24.4-2.4c-7.8-5.8-9.8-18.2-4.9-26.5
			c7-12,18.6-12.4,28.1-9.4c1.9,0.6,2.7,1.7,2.3,3.6c-0.1,0.7,0,1.5,0,2.6c-5.3-3.5-10.7-4.6-16.5-2.8c-3.4,1-6.2,3.1-8.3,6
			c-4.5,6.3-4,15.5,1,21.3c3,3.5,7,5.1,11.4,5.6C338.5,464.1,342.5,462.5,346.4,459.4z"/>
		<path d="M153.6,463.7c1.2-0.9,2.3-1.8,3.4-2.7c0.3,0.3,0.8,0.8,1.4,1.2c1.7,1.1,3.5,2.1,5.5,1.1c1.9-1,2.5-3,2.5-5
			c0.1-2.6,0-5.3,0-8c0-7.1,0-14.1,0-21.2c0-0.7,0-1.4,0-2.1c1.6,0,2.9,0,4.5,0c0,0.7,0.1,1.5,0.1,2.2c0,9.8-0.1,19.6,0.1,29.4
			c0.1,5.4-3.5,10.2-10.5,9.2C157.8,467.3,155.5,466.2,153.6,463.7z"/>
	</g>
</g>
</svg>
