<?xml version="1.0" encoding="utf-8"?>
<!-- Generator: Adobe Illustrator 26.0.0, SVG Export Plug-In . SVG Version: 6.00 Build 0)  -->
<svg version="1.1" id="Layer_1" xmlns="http://www.w3.org/2000/svg" xmlns:xlink="http://www.w3.org/1999/xlink" x="0px" y="0px"
	 viewBox="0 0 500 500" style="enable-background:new 0 0 500 500;" xml:space="preserve">
<style type="text/css">
	.st0{fill-rule:evenodd;clip-rule:evenodd;fill:#D33833;}
	.st1{fill:#EF3D3A;}
	.st2{fill:#231F20;}
	.st3{fill-rule:evenodd;clip-rule:evenodd;fill:#F0D6B7;}
	.st4{fill-rule:evenodd;clip-rule:evenodd;fill:#335061;}
	.st5{fill-rule:evenodd;clip-rule:evenodd;fill:#6D6B6D;}
	.st6{fill-rule:evenodd;clip-rule:evenodd;fill:#DCD9D8;}
	.st7{fill-rule:evenodd;clip-rule:evenodd;fill:#F7E4CD;}
	.st8{fill:#F7E4CD;}
	.st9{fill-rule:evenodd;clip-rule:evenodd;fill:#49728B;}
	.st10{fill-rule:evenodd;clip-rule:evenodd;fill:#FFFFFF;}
	.st11{fill:#FFFFFF;}
	.st12{fill:none;stroke:#D33833;stroke-width:2.5;stroke-miterlimit:5;}
	.st13{fill-rule:evenodd;clip-rule:evenodd;fill:#EF3D3A;}
	.st14{fill-rule:evenodd;clip-rule:evenodd;fill:#231F20;}
	.st15{fill-rule:evenodd;clip-rule:evenodd;fill:#81B0C4;}
	.st16{fill-rule:evenodd;clip-rule:evenodd;fill:#1D1919;}
</style>
<g>
	<g id="g10" transform="matrix(1.25,0,0,-1.25,0,312)">
		<g id="g3393">
			<path id="path22" class="st0" d="M292.8,81.3c0-52.4-41.5-94.9-92.8-94.9c-51.2,0-92.8,42.5-92.8,94.9
				c0,52.4,41.5,94.9,92.8,94.9C251.2,176.2,292.8,133.7,292.8,81.3"/>
			<path id="path24" class="st1" d="M111,57.8c0,0-6.7,98.9,84.5,101.8l-6.4,10.6l-49.5-16.6l-14.1-16.3l-12.4-23.7L106.1,86
				l2.1-18.4"/>
			<path id="path26" class="st2" d="M136.5,146c-16.3-16.7-26.3-39.6-26.3-65.1l0,0c0-25.4,10.1-48.4,26.3-65.1l0,0
				c16.3-16.6,38.7-26.9,63.5-26.9l0,0c24.8,0,47.2,10.3,63.5,26.9l0,0c16.3,16.6,26.3,39.6,26.3,65.1l0,0
				c0,25.4-10.1,48.4-26.3,65.1l0,0c-16.3,16.6-38.7,26.9-63.5,26.9l0,0C175.2,172.9,152.8,162.6,136.5,146L136.5,146z M132.4,11.8
				c-17.3,17.7-28,42.1-28,69.1l0,0c0,27,10.7,51.4,28,69.1l0,0c17.3,17.7,41.2,28.7,67.6,28.7l0,0c26.4,0,50.4-11,67.6-28.7l0,0
				c17.3-17.7,28-42.1,28-69.1l0,0c0-27-10.7-51.4-28-69.1l0,0C250.4-5.9,226.4-16.8,200-16.8l0,0C173.6-16.8,149.6-5.9,132.4,11.8
				L132.4,11.8"/>
			<path id="path28" class="st3" d="M239,80.8l-14.1-2.1l-19.1-2.1l-12.4-0.4l-12,0.4l-9.2,2.8l-8.1,8.8l-6.4,18l-1.4,3.9l-8.5,2.8
				l-4.9,8.1l-3.5,11.7l3.9,10.2l9.2,3.2l7.4-3.5l3.5-7.8l4.2,0.7l1.4,1.8l-1.4,8.1l-0.4,10.2l2.1,14.1l-0.1,8.1l6.4,10.3l11.3,8.1
				l19.8,8.5l21.9-3.2l19.1-13.8l8.8-14.1l5.7-10.2l1.4-25.4l-4.2-21.9l-7.8-19.4l-7.4-10.2"/>
			<path id="path30" class="st4" d="M227,19.6l-50.5-2.1V9l4.2-29.7l-2.1-2.5l-35.3,12l-2.5,4.2L137.3,33l-8.1,24l-1.8,5.7
				l28.3,19.4l8.8,3.5l7.8-9.5l6.7-6l7.8-2.5l3.5-1.1l4.2-18.4l3.2-3.9l8.1,2.8l-5.7-11l30.7-14.5L227,19.6"/>
			<path id="path32" class="st5" d="M143.3,142.9l9.2,3.2l7.4-3.5l3.5-7.8l4.2,0.7l1.1,4.2l-2.1,8.1l2.1,19.4l-1.8,10.6l6.4,7.4
				l13.8,11l-3.9,5.3l-19.4-9.5l-8.1-6.4l-4.6-9.9l-7.1-9.5l-2.1-11.3L143.3,142.9"/>
			<path id="path34" class="st6" d="M157.8,176.2c0,0,5.3,13.1,26.5,19.4c21.2,6.4,1.1,4.6,1.1,4.6l-23-8.8l-8.8-8.8l-3.9-7.1
				L157.8,176.2"/>
			<path id="path36" class="st6" d="M147.2,145.4c0,0-7.4,24.7,20.8,28.3l-1.1,4.2l-19.4-4.6l-5.7-18.4l1.4-12L147.2,145.4"/>
			<path id="path38" class="st7" d="M158.5,112.6l4.6,4.5c0,0,2.1-0.2,2.4-2.7c0.4-2.5,1.4-24.7,16.6-36.8
				c1.4-1.1-11.3,1.8-11.3,1.8L159.5,97"/>
			<path id="path40" class="st7" d="M223.5,119.3c0,0,0.8,10.7,3.7,9.9c2.9-0.8,2.9-3.7,2.9-3.7S223.1,120.9,223.5,119.3"/>
			<path id="path42" class="st8" d="M252.8,158.5c0,0-5.8-1.2-6.4-6.4c-0.5-5.1,6.4-1.1,7.4-0.7"/>
			<path id="path44" class="st8" d="M210.1,158.1c0,0-7.8-1.1-7.8-6c0-4.9,8.8-4.6,11.3-2.5"/>
			<path id="path46" class="st7" d="M162,135.2c0,0-13.4,8.1-14.8,0.4c-1.4-7.8-4.6-13.4,2.1-21.6l-4.6,1.4l-4.2,11l-1.4,10.6
				l8.1,8.5l9.2-0.7l5.3-4.2L162,135.2"/>
			<path id="path48" class="st7" d="M168.4,157.4c0,0,6,31.1,36.4,37.1c25,4.9,38.2-1.1,43.1-6.7c0,0-22.3,26.5-43.5,18.4
				c-21.2-8.1-36.7-23-36.4-32.5C168.6,157.4,168.4,157.4,168.4,157.4"/>
			<path id="path50" class="st7" d="M250.4,184.3c0,0-10.2,0.4-10.6-8.8c0,0,0-1.4,0.7-2.8c0,0,8.1,9.2,13.1,4.2"/>
			<path id="path52" class="st7" d="M205.5,171.7c0,0-1.8,14.1-13.8,5.9c-7.8-5.3-7.1-12.7-5.7-14.1c1.4-1.4,1-4.3,2.1-2.3
				c1.1,2,0.7,8.3,4.6,10.1C196.6,173,203,174.9,205.5,171.7"/>
			<path id="path54" class="st9" d="M172.3,76.2L139,61.3c0,0,13.8-54.8,6.7-71.7l-4.9,1.8l-0.4,20.8l-9.2,39.6l-3.9,11L162,86.1
				L172.3,76.2"/>
			<path id="path56" class="st9" d="M175.7,45.9l4.7-5.7V18.9h-5.7c0,0-0.7,14.8-0.7,16.6c0,1.8,0.7,8.1,0.7,8.1"/>
			<path id="path58" class="st9" d="M175.8,15.7L159.9,15l4.6-3.2l11.3-1.8"/>
			<path id="path60" class="st4" d="M230.2,19.3l13.1,0.4l3.2-32.5L233-14.7L230.2,19.3"/>
			<path id="path62" class="st4" d="M233.7,19.3l19.8,1.1c0,0,8.1,20.5,8.1,21.6s7.1,29.7,7.1,29.7l-15.9,16.6l-3.2,2.8l-8.5-8.5
				V49.7L233.7,19.3"/>
			<path id="path64" class="st9" d="M242.6,21.7l-12.4-2.5l1.8-9.9c4.6-2.1,12.4,3.5,12.4,3.5"/>
			<path id="path66" class="st9" d="M242.9,83.6l24.7-18.4l0.7,8.5L249.6,91L242.9,83.6"/>
			<path id="path68" class="st10" d="M188.1-50.3l-7.3,29.7l-3.6,21.9l-0.6,16.3l33.1,1.8l20.6,0l-1.9-37.1l3.2-28.6l-0.4-5.3
				l-26.9-2.1L188.1-50.3"/>
			<path id="path70" class="st6" d="M225.6,19.6c0,0-1.8-36.7,3.5-62.9c0,0-10.6-6.7-26.1-8.5l29.7,1.1l3.5,2.1L232,9.4l-1.1,12.4"
				/>
			<path id="path72" class="st10" d="M247.1-10.1l13.8,3.9L287-4.8l3.9,12l-7.1,20.8l-8.1,1.1l-11.3-3.5l-10.8-5.3l-5.8,1.1
				l-4.5-1.8"/>
			<path id="path74" class="st6" d="M246.8-3c0,0,9.2,4.2,10.6,3.9l-3.9,19.4l4.6,1.8c0,0,3.2-18.4,3.2-20.5c0,0,19.8-1.1,21.6-1.1
				c0,0,4.2,8.1,3.2,16.6l3.9-11.3l0.4-6.4L284.6-9l-6.4-1.4l-10.6,0.4l-3.5,4.6l-12.4-1.8l-3.9-1.4"/>
			<path id="path76" class="st11" d="M232.9,22.1l-7.8,19.8L217,53.5c0,0,1.8,4.9,4.2,4.9s8.1,0,8.1,0l7.8-2.8l-0.7-13.1L232.9,22.1
				"/>
			<path id="path78" class="st6" d="M234.5,28.8c0,0-9.9,19.1-9.9,21.9c0,0,1.8,4.2,4.2,3.2s7.8-3.9,7.8-3.9v6.7l-12,2.5l-8.1-1.1
				l13.8-32.5l2.8-0.4"/>
			<path id="path80" class="st11" d="M191.2,75.4l-9.8,1.1l-9.2,2.8v-3.2l4.5-5l14.1-6.4"/>
			<path id="path82" class="st6" d="M175.4,74.4c0,0,11-4.6,14.5-3.5l0.4-4.2l-9.9,2.1l-6,4.2L175.4,74.4"/>
			<path id="path84" class="st0" d="M247,57.3c-6,0.2-11.4,0.9-16.2,2.2c0.3,1.9-0.3,3.9,0.2,5.3c1.3,1,3.5,0.9,5.5,1.2
				c-1.7,0.8-4.2,1.2-6.1,0.7c0,1.3-0.7,2.2-1,3.2c3.4,1.2,11.3,9.1,15.8,6.5c2.1-1.2,3-8.3,3.2-11.8
				C248.6,61.7,248.2,58.8,247,57.3"/>
			<path id="path86" class="st12" d="M247,57.3c-6,0.2-11.4,0.9-16.2,2.2c0.3,1.9-0.3,3.9,0.2,5.3c1.3,1,3.5,0.9,5.5,1.2
				c-1.7,0.8-4.2,1.2-6.1,0.7c0,1.3-0.7,2.2-1,3.2c3.4,1.2,11.3,9.1,15.8,6.5c2.1-1.2,3-8.3,3.2-11.8
				C248.6,61.7,248.2,58.8,247,57.3z"/>
			<path id="path88" class="st0" d="M218.4,67.1c0-0.5,0-0.9-0.1-1.4c-1.9-1.2-4.9-1.2-6.9-2.2c3-0.1,5.4-0.9,7.5-1.9
				c0-1.1-0.1-2.3-0.1-3.4c-3.4-2.3-6.6-5.8-10.6-8.1c-1.9-1-8.6-3.7-10.6-3.2c-1.1,0.3-1.3,1.7-1.7,3c-1,2.9-3.2,7.5-3.4,11.8
				c-0.3,5.5-0.8,14.7,5.1,13.5c4.8-0.9,10.3-3.1,14-5.1C213.6,68.9,214.9,67.3,218.4,67.1"/>
			<path id="path90" class="st12" d="M218.4,67.1c0-0.5,0-0.9-0.1-1.4c-1.9-1.2-4.9-1.2-6.9-2.2c3-0.1,5.4-0.9,7.5-1.9
				c0-1.1-0.1-2.3-0.1-3.4c-3.4-2.3-6.6-5.8-10.6-8.1c-1.9-1-8.6-3.7-10.6-3.2c-1.1,0.3-1.3,1.7-1.7,3c-1,2.9-3.2,7.5-3.4,11.8
				c-0.3,5.5-0.8,14.7,5.1,13.5c4.8-0.9,10.3-3.1,14-5.1C213.6,68.9,214.9,67.3,218.4,67.1z"/>
			<path id="path92" class="st0" d="M221.8,60.6c-0.5,3-1.1,3.8-0.9,6.4C228.8,72.3,230.3,57.9,221.8,60.6"/>
			<path id="path94" class="st12" d="M221.8,60.6c-0.5,3-1.1,3.8-0.9,6.4C228.8,72.3,230.3,57.9,221.8,60.6z"/>
			<path id="path96" class="st13" d="M233.3,58.1c0,0-2.5,3.5-0.7,4.6c1.8,1.1,3.5,0,4.6,1.8c1.1,1.8,0,2.8,0.4,4.9s2.1,2.5,3.9,2.8
				c1.8,0.4,6.7,1.1,7.4-0.7l-2.1,6.4l-4.2,1.4L229,71.6l-0.7-3.9v-7.8"/>
			<path id="path98" class="st13" d="M196.2,46.5c-0.4,5.5-0.9,11-1.4,16.5c-0.7,8.2,2,6.8,9.1,6.8c1.1,0,6.7-1.3,7.1-2.1
				c1.9-3.9-3.2-3.1,2.2-6c4.6-2.5,12.7,1.5,10.9,7.1c-1,1.2-5.4,0.4-7,1.2c-2.8,1.4-5.5,2.9-8.3,4.3c-3.5,1.8-11.6,4.5-15.4,1.9
				c-9.5-6.5,0.6-22.6,4-29.3"/>
			<path id="path100" class="st14" d="M205.5,171.7c-9.6,2.2-14.4-4-17.3-10.5c-2.6,0.6-1.6,4.2-0.9,6c1.7,4.7,8.7,11.1,14.3,10.2
				C204,176.9,207.3,174.7,205.5,171.7"/>
			<path id="path102" class="st14" d="M252.4,160.7c0.2,0,0.3,0,0.5,0c2.2-4.5,4.1-9.3,6.8-13.3c-1.8-4.3-13.9-8.1-13.7-0.4
				c2.6,1.1,7.1,0.2,9.4,1.7C254,152.4,252.1,155.5,252.4,160.7"/>
			<path id="path104" class="st14" d="M210.4,160.6c2.1-3.8,2.7-7.8,5.7-10.6c1.3-1.3,3.9-2.9,2.6-6.4c-0.3-0.8-2.5-2.7-3.7-3.1
				c-4.6-1.4-15.3-0.3-11.7,5.4c3.8-0.2,8.9-2.5,11.7,0.3C212.9,149.6,209,156.5,210.4,160.6"/>
			<path id="path106" class="st14" d="M250.7,122.1c-6.9-4.4-14.6-9.3-25.9-8.1c-2.4,2.1-3.3,6.8-1,9.9c1.2-2.1,0.5-6,3.9-6.6
				c6.4-1.1,13.9,3.9,18.5,5.7c2.9,4.8-0.2,6.6-2.8,9.7c-5.3,6.4-12.4,14.3-12.1,23.8c2.1,1.5,2.3-2.4,2.6-3.1
				c2.8-6.5,9.7-14.7,14.8-20.2c1.2-1.4,3.3-2.7,3.5-3.6C252.8,127,250.4,123.8,250.7,122.1"/>
			<path id="path108" class="st14" d="M159.6,126.8c-2.2,1.2-2.7,6.7-5.2,6.8c-3.6,0.2-3-7.1-3-11.3c-2.5,2.3-2.9,9.3-1.1,12.9
				c-2.1,1-3-1.1-4.2-1.9C147.6,144.1,162,138.3,159.6,126.8"/>
			<path id="path110" class="st14" d="M255.1,117.6c-3.2-6.1-7.8-12.9-17.2-13.1c-0.2,2-0.3,5,0,6.2
				C245.1,111.4,249.6,115.1,255.1,117.6"/>
			<path id="path112" class="st14" d="M209.9,113.6c6-3.2,17.1-3.5,25.3-3.3c0.4-1.8,0.4-4,0.4-6.2
				C225.1,103.6,212.6,106.2,209.9,113.6"/>
			<path id="path114" class="st14" d="M208.7,107.7c4.2-10.5,18.5-9.2,30.5-9c-0.5-1.4-1.7-3-3.1-3.5c-3.9-1.6-14.5-2.8-19.9,0.1
				c-3.4,1.8-5.6,5.9-7.5,8.3C207.9,104.8,203.4,107.7,208.7,107.7"/>
			<path id="path116" class="st15" d="M250.2,50.1c-4.9-8.4-9.6-17-15.4-24.3c2.4,7.1,3.5,19.1,3.8,28.2
				C243.7,56.3,248.1,53.4,250.2,50.1"/>
			<path id="path118" class="st14" d="M276.5,20c-5.5-1.1-9.3-6.4-14.6-6.1C264.8,18.1,269.9,19.8,276.5,20"/>
			<path id="path120" class="st14" d="M278.9,11.4c-4.5-0.5-9.7-1.2-14.2-0.8C266.8,13.9,275.1,12.8,278.9,11.4"/>
			<path id="path122" class="st14" d="M280.4,4.1c-5-0.1-11.2,0-16,0.4C267.2,7.5,277.2,5.6,280.4,4.1"/>
			<path id="path124" class="st6" d="M240.8-16.1c0.7-6.3,3.2-12.7,2.9-19.6c-2.8-0.9-4.4-1.8-8.1-1.7c-0.3,5.9-1,14.8-0.8,20.4
				C236.6-17.2,239.3-15.7,240.8-16.1"/>
			<path id="path126" class="st3" d="M232.7,76.6c-2.5-1.6-4.7-3.7-7.1-5.4c-5.4-0.3-8.3,0.4-12.2,3.4c0.1,0.2,0.5,0.1,0.5,0.4
				C219.6,72.5,226.9,76.1,232.7,76.6"/>
			<path id="path128" class="st15" d="M202.6,37.5c1.6,6.8,7.7,10.4,13.4,14.1c5.8-7.3,9.3-16.8,13.2-25.9
				C220,28.5,210.6,33,202.6,37.5"/>
			<path id="path130" class="st14" d="M234.8-17c-0.2-5.6,0.5-14.5,0.8-20.4c3.7,0,5.3,0.8,8.1,1.7c0.3,6.9-2.2,13.3-2.9,19.6
				C239.3-15.7,236.6-17.2,234.8-17z M177,14.7c2.4-22.5,6-41.4,12.5-61.3c14.4-4.4,31.8-4.8,44.6-0.8c-2.3,11.2-1.3,24.9-2.7,36.9
				c-1,9-0.5,18.1-1.9,27.3C214,20,192.2,17.5,177,14.7z M233.1,16.7c-0.1-9.7,0.4-19.2,1.2-28.9c3.7,0.6,6.2,0.9,9.7,1.7
				c-1.1,9.3-1,19.8-3.3,28C238,17.5,235.7,17.5,233.1,16.7z M251.9,18.2c-1.8,0.4-3.8,0-5.5,0c0.8-7.9,2.7-16.6,3.4-24.8
				c2.6-0.1,4.1,1.2,6.2,1.6C256.2,2.2,255.4,12.2,251.9,18.2L251.9,18.2z M280.4-7.8c5.5,1.3,9,8.1,7.4,15
				c-1,4.7-2.9,13.4-4.9,16.4c-1.5,2.2-5.4,5.1-8.6,3.1c-5.1-3.3-14.2-4.2-17.9-8.2c1.9-6.3,2.5-14.8,3.2-22.8
				c6.4-0.4,14.3,1.8,19.7-0.5c-3.7-1.2-8.6-1.2-11.8-3C270.2-9.1,276.4-8.8,280.4-7.8L280.4-7.8z M229.1,25.7
				c-3.9,9.1-7.4,18.6-13.2,25.9c-5.6-3.8-11.8-7.3-13.4-14.1C210.6,33,220,28.5,229.1,25.7z M238.7,53.9
				c-0.4-9.1-1.4-21.1-3.8-28.2c5.8,7.4,10.5,16,15.4,24.3C248.1,53.4,243.7,56.3,238.7,53.9z M227.8,57.8c-2.2,0.2-4.1-2.5-6.9-1.3
				c-0.7-0.7-1.2-1.5-1.9-2.2c6.3-7.6,9.2-18.4,14-27.3c2.6,8.6,2.3,18,2.9,27.3C232.3,54.1,230.4,57.5,227.8,57.8z M220.9,67
				c-0.2-2.6,0.4-3.5,0.9-6.4C230.3,57.9,228.8,72.3,220.9,67z M211.4,70.1c-3.7,2-9.2,4.2-14,5.1c-5.9,1.1-5.3-8.1-5.1-13.5
				c0.2-4.3,2.5-8.9,3.4-11.8c0.5-1.3,0.6-2.8,1.7-3c2-0.5,8.7,2.2,10.6,3.2c4,2.2,7.2,5.7,10.6,8.1c0,1.1,0.1,2.3,0.1,3.4
				c-2.1,1-4.4,1.8-7.5,1.9c2.1,1,5.1,1,6.9,2.2c0,0.5,0,0.9,0.1,1.4C214.9,67.3,213.6,68.9,211.4,70.1z M176.2,76.5
				c-3.1-3.1,8.6-7.3,12.3-7.6c0,2,1.1,3.8,0.9,5.2C185,74.9,179.2,74.4,176.2,76.5z M213.9,75c0-0.3-0.4-0.2-0.5-0.4
				c3.9-3.1,6.9-3.7,12.2-3.4c2.4,1.8,4.6,3.8,7.1,5.4C226.9,76.1,219.6,72.5,213.9,75z M248.5,64.5c-0.2,3.5-1.1,10.5-3.2,11.8
				c-4.5,2.6-12.4-5.3-15.8-6.5c0.4-1.1,1-1.9,1-3.2c2,0.5,4.4,0.2,6.1-0.7c-2-0.2-4.2-0.2-5.5-1.2c-0.5-1.4,0.1-3.3-0.2-5.3
				c4.7-1.3,10.2-2.1,16.2-2.2C248.2,58.8,248.6,61.7,248.5,64.5z M171,73.5c-1,0.7-7.5,9.1-8.4,8.8c-11.8-4.6-22.8-12.7-32.6-20.2
				c9.4-20.1,13.2-44.7,13.8-68.5c10.7-5,20.2-12.3,34.7-13c-1.7,11.9-3.2,22.6-4.2,33.8c-3.7,1.5-8.9-0.1-12.3,0.5
				c0,4.1,5.2,1.8,5.7,4.6c0.3,2.1-2.9,2.3-1.8,5.6c2.7-1,4.1-3.1,6.9-3.9c2.6,5.7,0,15.8,0.3,20.6c0.1,0.9,0.4,5,2.5,4.2
				c1.8-0.6-0.1-10.8,0.1-15.3c0.2-4.2-0.5-8.2,1.2-10.8c14.1,1.9,28.4,3.2,43.6,3.6c-3.3,1.4-7.3,2.8-11.7,5.3
				c-2.4,1.3-9.8,4.1-10.5,6.4c-1.1,3.6,2.9,5.5,3.5,8.6c-7.1-3.9-8.5,3.7-10.2,9.1c-1.5,4.9-2.4,8.5-2.8,11.3
				C182.8,66.8,176.3,69.8,171,73.5L171,73.5z M242.2,81.3c9.8,4.8,11.6-17.8,7.7-25c0.6-2.2,2.6-3,3.5-4.9
				c-5.5-9.8-11.5-18.9-17.1-28.6c4.2,2.6,10.1,0.5,15,2.4c1.8,0.7,3.1,4.8,4.4,8.1c3.7,9,7.6,20.3,9.4,28.9c0.4,2,1.5,6.2,1.2,8
				c-0.4,3.1-4.7,5.4-6.8,7.4c-4,3.6-6.5,6.7-10.6,10C247.2,84.9,243.6,83.3,242.2,81.3L242.2,81.3z M148.6,168.2
				c-4.7-5.1-3.7-14.8-3.1-21.6c8.4,5.3,19.6-0.4,19.5-9.4c4,0.1,1.5,5,0.8,8.2c-2.4,10.4,4,21.6,0.3,31.1
				C158.9,175.8,152.9,172.9,148.6,168.2L148.6,168.2z M182,198c-10.6-3-24.1-10.7-28.5-20.2c3.4,0.5,5.7,2.2,9,2.4
				c1.3,0.1,2.9-0.5,4.3-0.2c2.9,0.7,5.3,7.2,7.5,9.5c2.1,2.3,4.7,3.3,6.4,5.5c1.1,0.5,2.8,0.5,2.8,2.2
				C183.1,197.7,182.6,198.1,182,198z M237,195.1c-11,6.2-29.5,10.8-41.2,5c-9.4-4.7-22.1-12.5-26.5-22.3c4.1-9.5-1.2-18.2-1.5-27.8
				c-0.2-5.1,2.4-9.6,2.6-15.2c-1.4-2.3-5.6-2.6-8.6-2.4c-1,4.9-2.7,10.5-7.8,11.1c-7.2,0.8-12.5-5.2-12.8-11.4
				c-0.4-7.3,5.6-19.5,14.1-18.6c3.3,0.3,4.1,3.6,7.7,3.6c1.9-3.9-3-5.1-3.5-7.9c-0.1-0.7,0.4-3.5,0.7-4.8c1.5-6.4,5-14.7,8.4-19.5
				c4.3-6.2,12.8-7.1,21.9-7.7c1.6,3.5,7.6,3.2,11.5,2.3c-4.7,1.9-9,6.3-12.6,10.3c-4.1,4.6-8.3,9.5-8.6,15.4
				c7.8-10.9,14.3-20.3,28.5-25.1c10.8-3.6,23.4,1.7,31.6,7.5c3.4,2.4,5.5,6.2,7.9,9.8c9.1,13.1,13.4,31.9,12.5,50.1
				c-0.4,7.5-0.4,15-2.9,20c-2.6,5.3-11.5,10-16.7,5.2c-1,5.1,4.3,8.3,10.5,6.5C248,184.7,243.3,191.6,237,195.1L237,195.1z
				 M257.5,26c8.6,4.3,24.6,11.5,30,0c2-4.2,4.3-11.4,5.3-15.8c1.5-6.2-1.6-19.1-7.9-21.2c-5.6-1.8-12.1-1.7-18.9-0.4
				c-0.8,0.7-1.7,1.8-2.3,3c-4.8,0.2-9.3-0.3-13.1-2.2c0.4-3.6-2-4.1-4.3-4.9c-1.7-6.6,3.3-15.3,2.1-21.4c-0.9-4.3-6.2-5-10.1-5.8
				c-0.1-2.4,0.2-4.4,0.4-6.4c-0.9-3.3-4.9-5.2-8.7-5.6c-12.5-1.5-31.4-2.2-43.4,2.1c-3.3,8.2-6,18.2-8.8,27.6
				c-11.7-1.2-21.2,5-30.1,9.2c-3.1,1.4-7.4,2.2-8.5,4.7c-1.1,2.4-0.7,6.9-0.9,11.2c-0.7,11-1.3,21.6-4.2,32.9
				c-1.3,5.1-3.6,9.5-5.2,14.4c-1.5,4.5-4,10.1-4.7,14.6c-1,6.7,5.3,7,9.3,9.9c6.2,4.5,11.1,6.9,17.8,11c2,1.2,8,4.2,8.7,5.6
				c1.4,2.8-2.3,6.7-3.3,8.8c-1.6,3.4-2.4,6.3-2.6,9.7c-5.6,0.9-9.9,4.2-12.5,8c-4.3,6.3-7.2,17.9-3.5,26.7c0.3,0.7,1.7,2.1,1.9,3.1
				c0.4,2.1-0.8,4.9-0.9,7.1c-0.4,11.5,1.9,21.3,9.7,24.8c3.1,12.5,14.3,16.6,24.9,22.8c3.9,2.3,8.3,3.8,12.8,5.5
				c16.1,5.9,40.9,4.8,54.2-5.3c5.7-4.3,14.7-13.4,18-19.9c8.6-17.3,8-46.3,2-67.3c-0.8-2.8-2-7-3.6-10.4c-1.1-2.4-4.7-7.1-4.2-9.2
				c0.4-2.2,8.1-8,9.7-9.5c2.9-2.8,8.5-6.6,9-10.2c0.5-3.8-1.7-9-2.8-12.7C265.2,48.3,261.6,36.9,257.5,26"/>
			<path id="path132" class="st7" d="M200.3,110.9c0.5,0.6,3,1.6,6.6-0.2c0,0-4.2-0.7-3.9-7.8l-1.8,0.4
				C201.2,103.4,199.4,109.8,200.3,110.9"/>
			<path id="path134" class="st16" d="M231.3,50.2c0-1.1-0.9-1.9-1.9-1.9c-1.1,0-1.9,0.9-1.9,1.9c0,1.1,0.9,1.9,1.9,1.9
				C230.4,52.1,231.3,51.3,231.3,50.2"/>
			<path id="path136" class="st16" d="M233.2,41.2c0-1.1-0.9-1.9-1.9-1.9c-1.1,0-1.9,0.9-1.9,1.9s0.9,1.9,1.9,1.9
				C232.3,43.1,233.2,42.2,233.2,41.2"/>
		</g>
	</g>
	<g>
		<path d="M143.6,393.6h7V430c0,14.5-7.1,18.9-16.5,18.9c-2.6,0-5.7-0.6-7.5-1.3l1.1-5.7c1.5,0.6,3.6,1.1,5.9,1.1
			c6.3,0,10-2.8,10-13.5V393.6z"/>
		<path d="M166.1,429.7c0.2,9.6,6.3,13.6,13.4,13.6c5.1,0,8.2-0.9,10.8-2l1.2,5.1c-2.5,1.1-6.8,2.4-13,2.4c-12,0-19.2-7.9-19.2-19.7
			c0-11.8,6.9-21.1,18.3-21.1c12.8,0,16.2,11.2,16.2,18.4c0,1.5-0.2,2.6-0.2,3.3H166.1z M186.9,424.7c0.1-4.5-1.9-11.6-9.9-11.6
			c-7.2,0-10.3,6.6-10.9,11.6H186.9z"/>
		<path d="M202.6,419.5c0-4-0.1-7.4-0.3-10.6h6.3l0.4,6.5h0.2c1.9-3.7,6.5-7.4,12.9-7.4c5.4,0,13.8,3.2,13.8,16.6V448h-7.1v-22.5
			c0-6.3-2.3-11.6-9-11.6c-4.7,0-8.3,3.3-9.5,7.3c-0.3,0.9-0.5,2.1-0.5,3.3V448h-7.1V419.5z"/>
		<path d="M254.5,426.8h0.2c1-1.4,2.3-3.1,3.5-4.4l11.5-13.5h8.6L263,425l17.2,23h-8.6l-13.5-18.7l-3.6,4V448h-7v-57.4h7V426.8z"/>
		<path d="M294.6,397.9c0.1,2.4-1.7,4.4-4.5,4.4c-2.5,0-4.3-1.9-4.3-4.4c0-2.5,1.9-4.4,4.4-4.4C292.9,393.5,294.6,395.4,294.6,397.9
			z M286.7,448v-39.1h7.1V448H286.7z"/>
		<path d="M305.6,419.5c0-4-0.1-7.4-0.3-10.6h6.3l0.4,6.5h0.2c1.9-3.7,6.5-7.4,12.9-7.4c5.4,0,13.8,3.2,13.8,16.6V448h-7.1v-22.5
			c0-6.3-2.3-11.6-9-11.6c-4.7,0-8.3,3.3-9.5,7.3c-0.3,0.9-0.5,2.1-0.5,3.3V448h-7.1V419.5z"/>
		<path d="M349.5,440.7c2.1,1.4,5.8,2.8,9.4,2.8c5.2,0,7.6-2.6,7.6-5.8c0-3.4-2-5.3-7.3-7.2c-7-2.5-10.3-6.4-10.3-11.1
			c0-6.3,5.1-11.5,13.5-11.5c4,0,7.4,1.1,9.6,2.4l-1.8,5.2c-1.5-1-4.4-2.3-8-2.3c-4.2,0-6.5,2.4-6.5,5.3c0,3.2,2.3,4.7,7.4,6.6
			c6.8,2.6,10.3,6,10.3,11.8c0,6.9-5.3,11.7-14.6,11.7c-4.3,0-8.2-1-11-2.7L349.5,440.7z"/>
	</g>
</g>
</svg>
