<?xml version="1.0" encoding="utf-8"?>
<!-- Generator: Adobe Illustrator 26.0.0, SVG Export Plug-In . SVG Version: 6.00 Build 0)  -->
<svg version="1.1" id="Layer_1" xmlns="http://www.w3.org/2000/svg" xmlns:xlink="http://www.w3.org/1999/xlink" x="0px" y="0px"
	 viewBox="0 0 500 500" style="enable-background:new 0 0 500 500;" xml:space="preserve">
<style type="text/css">
	.st0{fill-rule:evenodd;clip-rule:evenodd;fill:#253858;}
	.st1{fill-rule:evenodd;clip-rule:evenodd;fill:#2684FF;}
	.st2{fill-rule:evenodd;clip-rule:evenodd;fill:#0E65DF;}
</style>
<g id="Layer_x0020_1_00000085235008702057187510000002990715117786353305_">
	<g id="_1620296750800_00000034062779640369379240000008192918292286525624_">
		<path class="st0" d="M261,403.5c-7.3,0-11,4.6-11,10.5v3.7h-5.5v5.5h5.5v28.4h6v-28.4h8.7v-5.5H256l-0.5-3.2
			c0-3.2,1.8-5.5,5.5-5.5c1.4,0,2.7,0.5,3.7,0.5v-5.5C263.3,403.9,262.4,403.5,261,403.5z M91,404.9c-0.9,0-1.8,0.5-2.3,0.9
			c-0.9,0.9-1.4,1.8-1.4,3.2c0,1.4,0.9,2.7,2.3,3.2c1.4,0.9,2.7,0.9,4.1,0c0.9-0.5,1.8-1.8,1.8-3.2c0-1.4-0.5-2.3-0.9-3.2
			c-0.9-0.5-1.8-0.9-3.2-0.9C91.5,404.9,91.5,404.9,91,404.9L91,404.9z M188.2,406.7c-10.5,0-15.6,5-15.6,11.9
			c0,7.3,4.1,10.5,14.2,13.3c8.7,1.8,11,4.1,11,7.8c0,4.1-2.7,6.9-9.2,6.9c-6,0-12.4-1.8-16.5-4.1v6.4c3.7,1.8,7.3,3.2,16,3.2
			c11,0,15.6-5,15.6-12.8c0-7.8-5-11-14.7-13.3c-7.8-1.8-10.5-3.7-10.5-7.3c0-4.1,3.7-6,9.2-6c5-0.5,9.6,0.9,13.7,3.2v-6
			C198.7,408.1,194.6,406.7,188.2,406.7L188.2,406.7z M74.5,407.1v31.2c0,4.6-1.8,7.8-6.9,7.8c-2.3,0-4.6-0.5-6.4-1.4v6
			c2.3,0.9,5,1.4,7.3,1.4c8.2,0,11.9-6,11.9-13.7v-31.2H74.5L74.5,407.1z M272.9,410.8v6.9h-5.5v5.5h5.5V441c0,6.4,3.7,10.5,11,10.5
			c1.4,0,2.7,0,3.7-0.5v-5.5c-0.9,0-2.3,0.5-3.2,0.5c-3.7,0-5.5-2.3-5.5-5v-17.9h8.7v-5.5h-8.7v-6.9H272.9z M424.1,417.2
			c-10.5,0-16,7.3-16,17.4c0,10.5,5.5,17.4,18.3,17.4c3.2,0,7.3-0.5,10.1-1.8v-5.5c-3.2,1.4-6.4,1.8-10.1,1.8
			c-7.8,0-11.5-3.7-12.4-9.2h24.7v-2.7C438.8,424.6,434.2,417.2,424.1,417.2L424.1,417.2z M137.3,417.2c-9.6,0-14.2,7.8-14.2,17.4
			c0,10.1,4.6,17.4,13.7,17.4c5,0,9.2-2.3,11-6.4v6h6v-33.9h-6v6C146,419.5,142.3,417.2,137.3,417.2L137.3,417.2z M225.3,417.2
			c-10.5,0-16.5,7.3-16.5,17.4s6.4,17.9,16.5,17.9c9.6,0,15.6-7.8,15.6-17.9S235.3,417.2,225.3,417.2z M362.7,417.2
			c-9.2,0-14.2,7.8-14.2,17.4c0,10.1,4.6,17.4,13.7,17.4c5,0,9.2-2.3,11.5-6.4v6h5.5v-33.9h-5.5v6
			C371.4,419.5,367.7,417.2,362.7,417.2L362.7,417.2z M119.4,417.2c-5.5,0-8.7,2.7-10.5,6.4v-6h-5.5v33.9h5.5v-20.2
			c0-6.9,4.6-9.2,11.9-8.2v-6C120.3,417.2,119.9,417.2,119.4,417.2L119.4,417.2z M404.4,417.2c-5.5,0-8.7,2.7-10.5,6.4v-6h-6v33.9h6
			v-20.2c0-6.9,4.6-9.2,11.9-8.2v-6C405.3,417.2,404.9,417.2,404.4,417.2L404.4,417.2z M289.4,417.7l12.4,33.9h7.3l6-16.5l3.2-10.1
			l3.2,10.1l5.5,16.5h7.8l12.4-33.9h-6.4l-10.1,28.9l-9.6-28.9h-5.5l-10.1,28.9l-9.6-28.9H289.4L289.4,417.7z M88.7,417.7v33.9h5.5
			v-33.9H88.7z M423.6,422.3c6,0,8.7,3.7,9.2,10.1H414l0,0C414.5,426.4,417.7,422.3,423.6,422.3z M138.7,422.7c5,0,9.2,3.2,9.2,10.5
			v2.7c0,7.3-4.6,11-9.6,11c-6,0-9.2-4.1-9.2-12.4C129.1,426.8,132.3,422.7,138.7,422.7L138.7,422.7z M364.1,422.7
			c5,0,9.6,3.2,9.6,10.5v2.7c0,7.3-5,11-10.1,11c-6,0-9.2-4.1-9.2-12.4C354.5,426.8,357.7,422.7,364.1,422.7z M225.3,422.7
			c6.9,0,10.1,5.5,10.1,11.9s-3.2,12.4-10.1,12.4c-7.3,0-10.5-6-10.5-12.4l0,0C214.7,428.2,217.9,422.7,225.3,422.7L225.3,422.7z"/>
		<path class="st1" d="M404.4,201.9L263.7,61.2L250,47.5L95.6,201.9c-5,5-5,13.3,0,18.3l96.7,96.7l57.7,57.7l154.4-154.4
			C409.4,215.2,409.4,206.9,404.4,201.9z M250,259.2l-48.6-48.1l48.6-48.6l48.1,48.6L250,259.2z"/>
		<path class="st2" d="M250,162.5c-31.6-31.6-32.1-82.9-0.5-114.5L143.7,153.8l57.7,57.3L250,162.5z"/>
		<path class="st2" d="M298.6,211.1L250,259.2c15.1,15.6,23.8,36.2,23.8,57.7c0,21.5-8.7,42.6-23.8,57.7l105.8-106.3L298.6,211.1
			L298.6,211.1z"/>
	</g>
</g>
</svg>
