<?xml version="1.0" encoding="utf-8"?>
<!-- Generator: Adobe Illustrator 26.0.0, SVG Export Plug-In . SVG Version: 6.00 Build 0)  -->
<svg version="1.1" id="Layer_1" xmlns="http://www.w3.org/2000/svg" xmlns:xlink="http://www.w3.org/1999/xlink" x="0px" y="0px"
	 viewBox="0 0 500 500" style="enable-background:new 0 0 500 500;" xml:space="preserve">
<style type="text/css">
	.st0{fill-rule:evenodd;clip-rule:evenodd;fill:#2B2B2B;}
</style>
<path class="st0" d="M340.5,221.8h16.4V219c0-2.1,0.9-4.1,2.3-5.5c1.4-1.4,3.3-2.3,5.5-2.3h34.1c2.1,0,4.1,0.9,5.5,2.3v0
	c1.4,1.4,2.3,3.3,2.3,5.5v52.7c0,2.1-0.9,4.1-2.3,5.5l0,0c-1.4,1.4-3.3,2.3-5.5,2.3h-16.4v2.8c0,2.1-0.9,4.1-2.3,5.5l0,0
	c-1.4,1.4-3.3,2.3-5.5,2.3h-34.1c-2.1,0-4.1-0.9-5.5-2.3h0c-1.4-1.4-2.3-3.3-2.3-5.5v-52.7c0-2.1,0.9-4.1,2.3-5.5
	C336.4,222.6,338.3,221.8,340.5,221.8L340.5,221.8z M356.9,258h-6.8l-0.3-0.1c-0.9,1-2.1,1.6-3.5,1.6c-2.6,0-4.8-2.2-4.8-4.9
	s2.1-4.9,4.8-4.9c1.4,0,2.6,0.6,3.5,1.5h7.2v-23.7h-16.4c-0.5,0-1,0.2-1.4,0.6c-0.4,0.4-0.6,0.9-0.6,1.4v52.7c0,0.5,0.2,1,0.6,1.4
	l0,0c0.4,0.4,0.9,0.6,1.4,0.6h34.1c0.6,0,1.1-0.2,1.4-0.6c0.4-0.4,0.6-0.9,0.6-1.4v-2.8h-11.9c-2.1,0-4.1-0.9-5.5-2.3h0
	c-1.4-1.4-2.3-3.3-2.3-5.5V258L356.9,258z M362.7,243.9L362.7,243.9h12l-4-3.9l2.9-2.9l9.4,9.4l-9.5,9.5l-2.8-2.8l4.1-4.1h-12.1
	v22.5c0,0.5,0.2,1,0.6,1.4l0,0c0.4,0.4,0.9,0.6,1.4,0.6h17.7h16.4c0.6,0,1.1-0.2,1.4-0.6c0.4-0.4,0.6-0.9,0.6-1.4V219
	c0-0.6-0.2-1.1-0.6-1.4l0,0c-0.4-0.4-0.9-0.6-1.4-0.6h-34.1c-0.5,0-1,0.2-1.4,0.6c-0.4,0.4-0.6,0.9-0.6,1.4v2.8V243.9L362.7,243.9z
	 M370.1,174.7c-20.8,0-39.6,8.4-53.2,22.1c-13.6,13.6-22.1,32.5-22.1,53.2c0,20.8,8.4,39.6,22.1,53.2c13.6,13.6,32.5,22.1,53.2,22.1
	c20.8,0,39.6-8.4,53.2-22.1c13.6-13.6,22.1-32.5,22.1-53.2c0-20.8-8.4-39.6-22.1-53.2C409.7,183.1,390.9,174.7,370.1,174.7
	L370.1,174.7z M419.2,200.8c-12.6-12.6-30-20.4-49.2-20.4c-19.2,0-36.6,7.8-49.2,20.4c-12.6,12.6-20.4,30-20.4,49.2
	c0,19.2,7.8,36.6,20.4,49.2c12.6,12.6,30,20.4,49.2,20.4c19.2,0,36.6-7.8,49.2-20.4c12.6-12.6,20.4-30,20.4-49.2
	C439.6,230.8,431.8,213.4,419.2,200.8L419.2,200.8z M88.7,209.7h15.8v52.8c0,6.9-0.6,12.2-1.7,15.9c-1.5,4.8-4.3,8.7-8.3,11.7
	c-4,2.9-9.3,4.4-15.8,4.4c-7.7,0-13.6-2.3-17.8-6.9c-4.2-4.6-6.2-11.3-6.3-20.2l14.9-1.9c0.2,4.7,0.8,8.1,1.9,10.1
	c1.7,3,4.2,4.5,7.7,4.5c3.5,0,5.9-1.1,7.4-3.2c1.4-2.1,2.2-6.6,2.2-13.3V209.7L88.7,209.7z M117.7,262c0-5.3,1.2-10.4,3.7-15.4
	c2.4-5,5.9-8.8,10.4-11.4c4.5-2.6,9.5-3.9,15-3.9c8.5,0,15.5,3,21,8.9c5.5,6,8.2,13.4,8.2,22.5c0,9.1-2.8,16.7-8.3,22.7
	c-5.5,6-12.5,9-20.8,9c-5.2,0-10.1-1.3-14.8-3.8c-4.7-2.5-8.3-6.2-10.7-11C118.9,274.8,117.7,269,117.7,262L117.7,262z M133.1,262.9
	c0,6,1.3,10.6,4,13.8c2.7,3.2,5.9,4.8,9.8,4.8c3.9,0,7.2-1.6,9.8-4.8c2.6-3.2,4-7.8,4-13.9c0-5.9-1.3-10.5-4-13.6
	c-2.6-3.2-5.9-4.8-9.8-4.8c-3.9,0-7.2,1.6-9.8,4.8C134.4,252.3,133.1,256.9,133.1,262.9L133.1,262.9z M187.7,224.4v-14.8h14.9v14.8
	H187.7L187.7,224.4z M187.7,292.9v-60.4h14.9v60.4H187.7L187.7,292.9z M269.4,292.9h-14.9v-30.8c0-6.5-0.3-10.7-1-12.6
	c-0.7-1.9-1.7-3.4-3.1-4.5c-1.5-1.1-3.2-1.6-5.2-1.6c-2.6,0-5,0.8-7,2.3c-2.1,1.5-3.5,3.5-4.3,6c-0.8,2.5-1.2,7.1-1.2,13.9v27.3
	h-14.9v-60.4h13.8v8.9c5-6.8,11.2-10.1,18.7-10.1c3.3,0,6.3,0.6,9.1,1.9c2.8,1.3,4.8,2.9,6.2,4.8c1.4,2,2.4,4.2,2.9,6.7
	c0.6,2.5,0.8,6.1,0.8,10.7V292.9z"/>
</svg>
