<?xml version="1.0" encoding="utf-8"?>
<!-- Generator: Adobe Illustrator 26.0.0, SVG Export Plug-In . SVG Version: 6.00 Build 0)  -->
<svg version="1.1" id="Layer_1" xmlns="http://www.w3.org/2000/svg" xmlns:xlink="http://www.w3.org/1999/xlink" x="0px" y="0px"
	 viewBox="0 0 500 500" style="enable-background:new 0 0 500 500;" xml:space="preserve">
<style type="text/css">
	.st0{fill-rule:evenodd;clip-rule:evenodd;fill:url(#SVGID_1_);}
	.st1{fill-rule:evenodd;clip-rule:evenodd;fill:url(#SVGID_00000062193541370901751940000001965475978175194023_);}
</style>
<g transform="matrix(.171716 0 0 .171716 4.88261 -10.60266)">
	<path d="M325.8,1446.7c0,18.4-2.6,33.4-7.8,45.1c-5.2,11.6-15.8,21.2-31.8,28.8c16,7.2,26.6,16.8,31.8,28.8
		c5.2,11.6,7.8,26.4,7.8,44.5v106.3c0,19.2,3.6,32.8,10.8,40.9c7.2,8.4,19.6,12.6,37.3,12.6h48.7c10,0,15,5,15,15v15.6
		c0,10-5,15-15,15h-48.7c-35.2,0-60.7-7.6-76.3-22.8c-15.2-15.2-22.8-40.7-22.8-76.3v-106.3c0-18-3.6-30.8-10.8-38.5
		c-7.2-8-19.6-12-37.3-12h-48.1c-10,0-15-5-15-15v-15.6c0-10,5-15,15-15h48.1c17.6,0,30-4,37.3-12c7.2-8,10.8-21,10.8-39.1v-105.7
		c0-35.6,7.6-61.1,22.8-76.3c15.6-15.2,41.1-22.8,76.3-22.8h48.7c10,0,15,5,15,15v15.6c0,10-5,15-15,15h-48.7
		c-17.6,0-30,4.2-37.3,12.6c-7.2,8.4-10.8,22-10.8,40.9V1446.7z M809.9,1235.8c10,0,15,5,15,15v39.7c0,10-5,15-15,15h-39.1
		c-10,0-15-5-15-15v-39.7c0-10,5-15,15-15H809.9z M809.9,1392c10,0,15,5,15,15v213.3c0,58.9-13.8,101.5-41.5,128
		c-27.2,26.9-62.1,40.3-104.5,40.3c-31.6,0-61.7-6-90.2-18c-6.4-2.4-9.6-6.6-9.6-12.6c0-2.4,0.6-4.8,1.8-7.2l6-14.4
		c2.4-6.4,6.6-9.6,12.6-9.6c2.8,0,5,0.4,6.6,1.2c25.2,9.2,49.5,13.8,72.7,13.8c29.2,0,52.3-9.2,69.1-27.6
		c16.8-18.4,25.2-49.7,25.2-93.7V1439H605.6c-10,0-15-5-15-15v-16.9c0-10,5-15,15-15L809.9,1392z M1271.1,1426.3
		c-2.4,8.8-8.4,12.4-18,10.8c-22.8-3.6-40.9-5.4-54.1-5.4c-20,0-36.8,3.4-50.5,10.2c-13.6,6.4-20.4,15.6-20.4,27.6
		c0,10.4,5.4,19.6,16.2,27.6s25.8,13.2,45.1,15.6c35.6,4.4,62.1,14.8,79.3,31.2c17.6,16.4,26.4,36.6,26.4,60.6c0,28-11,50.7-33,67.9
		c-22,17.2-53.1,25.8-93.1,25.8c-26.9,0-53.9-2.2-81.1-6.6c-8.4-1.2-12.6-5.6-12.6-13.2c0-2,0.2-3.6,0.6-4.8l3.6-15.6
		c1.6-9.2,7.4-13.2,17.4-12c23.2,4,47.3,6,72.1,6c24,0,42.5-4.4,55.3-13.2c13.2-8.8,19.8-20.2,19.8-34.2c0-11.6-5-21.6-15-30
		c-9.6-8.4-24.8-13.6-45.7-15.6c-33.2-3.2-59.3-13-78.1-29.4c-18.8-16.8-28.2-36.8-28.2-60.1c0-24.4,10.2-44.5,30.6-60.1
		c20.4-15.6,48.9-23.4,85.3-23.4c23.6,0,47.3,2.2,70.9,6.6c8,1.2,12,5.6,12,13.2c0,2-0.2,3.6-0.6,4.8L1271.1,1426.3z M2030,1409.5
		c0-8.8,4.6-14.2,13.8-16.2c32-4.8,66.1-7.2,102.1-7.2c44.9,0,77.3,9.4,97.3,28.2c20,18.4,30,49.5,30,93.1v170c0,10-5,15-15,15h-21
		c-10,0-15-5-15-15v-170c0-28-5.8-47.7-17.4-58.9c-11.6-11.2-31.2-16.8-58.9-16.8c-19.2,0-40.9,0.8-64.9,2.4v243.3c0,10-5,15-15,15
		h-21c-10,0-15-5-15-15L2030,1409.5z M2529.1,1341c0-18.8-3.6-32.4-10.8-40.9c-7.2-8.4-19.6-12.6-37.3-12.6h-48.7c-10,0-15-5-15-15
		v-15.6c0-10,5-15,15-15h48.7c35.2,0,60.5,7.6,75.7,22.8c15.6,15.2,23.4,40.7,23.4,76.3v105.7c0,18,3.6,31.1,10.8,39.1
		c7.2,8,19.6,12,37.3,12h48.1c10,0,15,5,15,15v15.6c0,10-5,15-15,15h-48.1c-17.6,0-30,4-37.3,12c-7.2,7.6-10.8,20.4-10.8,38.5v106.3
		c0,35.7-7.6,61.1-22.8,76.3s-40.7,22.8-76.3,22.8h-48.7c-10,0-15-5-15-15v-15.6c0-10,5-15,15-15h48.7c17.6,0,30-4.2,37.3-12.6
		c7.2-8,10.8-21.6,10.8-40.9V1594c0-18,2.6-32.8,7.8-44.5c5.2-12,15.8-21.6,31.8-28.8c-16-7.6-26.6-17.2-31.8-28.8
		c-5.2-11.6-7.8-26.6-7.8-45.1V1341z"/>
	<g transform="matrix(.584792 0 0 .584792 331.14107 176.44319)">
		
			<linearGradient id="SVGID_1_" gradientUnits="userSpaceOnUse" x1="8386.8672" y1="-4880.8662" x2="8836.5449" y2="-5330.5439" gradientTransform="matrix(0.1004 0 0 -0.1004 1190.4982 1611.0579)">
			<stop  offset="0" style="stop-color:#000000"/>
			<stop  offset="1" style="stop-color:#FFFFFF"/>
		</linearGradient>
		<path class="st0" d="M2262.6,2476.2c141.2,192.5,279.4-53.7,279.2-201.8c-0.2-175.1-177.7-272.9-279.3-272.9
			c-163.1,0-318.5,134.8-318.5,319.3c0,205,178.1,318.6,318.5,318.6c-31.8-4.6-137.7-27.3-139.1-271.2
			c-1-165,53.8-230.9,138.9-201.9c1.9,0.7,93.8,37,93.8,155.4C2356.1,2439.6,2262.6,2476.2,2262.6,2476.2L2262.6,2476.2z"/>
		
			<linearGradient id="SVGID_00000019639118890204089250000006240429652436068020_" gradientUnits="userSpaceOnUse" x1="13067.6201" y1="-9156.1699" x2="12617.9424" y2="-8706.4922" gradientTransform="matrix(0.1004 0 0 -0.1004 1190.4982 1611.0579)">
			<stop  offset="0" style="stop-color:#000000"/>
			<stop  offset="1" style="stop-color:#FFFFFF"/>
		</linearGradient>
		<path style="fill-rule:evenodd;clip-rule:evenodd;fill:url(#SVGID_00000019639118890204089250000006240429652436068020_);" d="
			M2262.5,2166.2c-93.3-32.2-207.6,44.7-207.6,198.8c0,251.5,186.4,274.4,209,274.4c163.1,0,318.5-134.8,318.5-319.3
			c0-205-178.1-318.6-318.5-318.6c38.9-5.4,209.6,42.1,209.6,275.4c0,152.2-127.5,235-210.4,199.6c-1.9-0.7-93.8-37-93.8-155.4
			C2169.3,2203.1,2262.5,2166.2,2262.5,2166.2L2262.5,2166.2z"/>
	</g>
</g>
</svg>
