<?xml version="1.0" encoding="utf-8"?>
<!-- Generator: Adobe Illustrator 26.0.0, SVG Export Plug-In . SVG Version: 6.00 Build 0)  -->
<svg version="1.1" id="Layer_1" xmlns="http://www.w3.org/2000/svg" xmlns:xlink="http://www.w3.org/1999/xlink" x="0px" y="0px"
	 viewBox="0 0 500 500" style="enable-background:new 0 0 500 500;" xml:space="preserve">
<style type="text/css">
	.st0{fill-rule:evenodd;clip-rule:evenodd;fill:#EC145A;}
	.st1{fill-rule:evenodd;clip-rule:evenodd;fill:#404041;}
</style>
<g>
	<g>
		<ellipse class="st0" cx="249.2" cy="219.4" rx="51.4" ry="52.3"/>
		<path class="st1" d="M250.4,67.2c-15.1,0-29.7,2.3-43.4,6.6c-4.3,1.3-7.3,5.3-7.3,9.9v62.7c0,8,8.5,12.7,15.4,8.9
			c10.4-6,22.5-9.4,35.3-9.4c39.9,0,72.4,33,72.4,73.6c0,40.7-32.4,73.6-72.4,73.6c-39.2,0-71.1-31.7-72.3-71.2v-100
			c0-5.7-4.6-10.3-10.2-10.3h-57.2c-5.6,0-10.2,4.6-10.2,10.2L100.1,224c0,81.5,68.3,147.5,150.2,147.5
			c81.8,0,149.6-68.1,149.6-152.2C399.9,135.2,333,67.2,250.4,67.2z"/>
	</g>
	<path class="st1" d="M100.2,432.2v-35.7h4.7v17.7l17.6-17.7h6.3L114,411l15.5,21.2h-6.2l-12.6-18l-5.8,5.7v12.4H100.2L100.2,432.2z
		 M129.5,432.2l13.6-35.7h5.1l14.4,35.7h-5.3l-4.1-10.8h-14.9l-3.8,10.8H129.5L129.5,432.2z M139.6,417.5h12.1l-3.7-9.9
		c-1.1-3-2-5.5-2.5-7.5c-0.5,2.3-1.1,4.6-2,6.9L139.6,417.5L139.6,417.5z M172.7,432.2h4.9l13.8-35.7h-4.8l-9.5,26
		c-0.7,1.9-1.4,3.9-1.9,5.8c-0.5-1.8-1.1-3.8-1.9-5.8l-9.2-26h-5.1L172.7,432.2L172.7,432.2z M195.7,432.2v-35.7h25.6v4.2h-20.9v11
		h19.5v4.2h-19.5V428h21.7v4.2H195.7L195.7,432.2z M228.5,432.2v-35.7h4.8l18.6,28v-28h4.5v35.7h-4.8l-18.6-28v28H228.5L228.5,432.2
		z M264.4,432.2v-35.7h25.6v4.2h-20.9v11h19.5v4.2h-19.5V428h21.7v4.2H264.4L264.4,432.2z M313.8,418.2V414h15v13.2
		c-2.3,1.8-4.7,3.2-7.1,4.2c-2.4,0.9-5,1.4-7.5,1.4c-3.5,0-6.6-0.7-9.5-2.3c-2.8-1.5-5-3.7-6.4-6.5c-1.4-2.8-2.2-6-2.2-9.5
		c0-3.5,0.7-6.7,2.2-9.7c1.4-3,3.5-5.2,6.2-6.7c2.7-1.5,5.8-2.2,9.3-2.2c2.6,0,4.9,0.4,6.9,1.3c2.1,0.8,3.7,2,4.9,3.5
		c1.2,1.5,2.1,3.5,2.7,5.9l-4.2,1.2c-0.5-1.8-1.2-3.2-2-4.3c-0.8-1-1.9-1.9-3.4-2.5c-1.5-0.6-3.1-0.9-4.9-0.9c-2.1,0-4,0.3-5.5,1
		c-1.6,0.7-2.8,1.5-3.8,2.6c-1,1.1-1.7,2.3-2.2,3.5c-0.9,2.2-1.4,4.6-1.4,7.2c0,3.2,0.5,5.9,1.6,8c1.1,2.1,2.7,3.7,4.7,4.8
		c2.1,1,4.3,1.6,6.6,1.6c2,0,4-0.4,5.9-1.2c1.9-0.8,3.4-1.6,4.4-2.5v-6.7H313.8L313.8,418.2z M331.8,432.2l13.6-35.7h5.1l14.4,35.7
		h-5.3l-4.1-10.8h-14.9l-3.8,10.8H331.8L331.8,432.2z M342,417.5H354l-3.7-9.9c-1.1-3-2-5.5-2.5-7.5c-0.5,2.3-1.1,4.6-2,6.9
		L342,417.5L342,417.5z M368.7,432.2v-35.7h15.7c3.2,0,5.6,0.3,7.2,1c1.6,0.6,2.9,1.8,3.9,3.4c1,1.6,1.5,3.4,1.5,5.4
		c0,2.5-0.8,4.7-2.4,6.4c-1.6,1.7-4.1,2.8-7.5,3.3c1.2,0.6,2.2,1.2,2.8,1.8c1.4,1.3,2.7,2.9,3.9,4.8l6.1,9.7H394l-4.7-7.4
		c-1.4-2.2-2.5-3.8-3.4-4.9c-0.9-1.1-1.7-1.9-2.4-2.4c-0.7-0.4-1.4-0.8-2.1-0.9c-0.5-0.1-1.4-0.2-2.6-0.2h-5.4v15.9H368.7
		L368.7,432.2z M373.4,412.3h10c2.1,0,3.8-0.2,5-0.7c1.2-0.4,2.1-1.2,2.7-2.1c0.6-1,0.9-2,0.9-3.2c0-1.7-0.6-3.1-1.8-4.2
		c-1.2-1.1-3.1-1.6-5.7-1.6h-11.2V412.3z"/>
</g>
</svg>
