<?xml version="1.0" encoding="utf-8"?>
<!-- Generator: Adobe Illustrator 26.0.0, SVG Export Plug-In . SVG Version: 6.00 Build 0)  -->
<svg version="1.1" id="Layer_1" xmlns="http://www.w3.org/2000/svg" xmlns:xlink="http://www.w3.org/1999/xlink" x="0px" y="0px"
	 viewBox="0 0 500 500" style="enable-background:new 0 0 500 500;" xml:space="preserve">
<style type="text/css">
	.st0{fill:#17B2E7;}
	.st1{fill:#232323;}
</style>
<g>
	<path class="st0" d="M169.2,251.1c-0.4,1.3-1.3,2.3-2.3,3.3c-6.5,6.5-12.9,12.9-19.4,19.4c-2.3,2.3-4.8,2.3-7.2,0
		c-6.7-6.7-13.3-13.3-20-20c-2.3-2.3-2.3-4.8,0-7c6.7-6.7,13.4-13.4,20.1-20.1c2.2-2.2,4.7-2.2,6.9,0c6.5,6.5,13,13,19.5,19.5
		c1,1,1.9,1.9,2.3,3.3C169.2,249.9,169.2,250.5,169.2,251.1z"/>
	<path class="st0" d="M104.9,313.6c-1.3-0.4-2.3-1.3-3.3-2.3c-6.4-6.5-12.9-12.9-19.4-19.4c-2.3-2.3-2.3-4.8,0-7.1
		c6.7-6.7,13.4-13.4,20.1-20.1c2.2-2.2,4.8-2.2,7,0c6.7,6.7,13.4,13.4,20.1,20.1c2.3,2.3,2.3,4.8,0,7.1c-6.5,6.5-13,13-19.5,19.6
		c-0.9,0.9-1.9,1.8-3.2,2.1C106.1,313.6,105.5,313.6,104.9,313.6z"/>
	<path class="st0" d="M81.4,234.1c0-7.4,0.1-14.9,0-22.3c0-2.2,0.5-3.8,2.1-5.3c1.3-1.1,2.5-2.5,3.7-3.7c4.9-4.9,9.8-9.8,14.7-14.7
		c2.3-2.3,4.8-2.3,7.1,0c6.7,6.7,13.3,13.3,20,20c2.3,2.3,2.3,4.8,0,7.1c-7.9,7.9-15.8,15.8-23.7,23.7c-7,7-13.9,13.9-20.9,20.9
		c-1.3,1.3-2.4,1-2.9-0.8c-0.1-0.6-0.2-1.2-0.2-1.7C81.4,249.6,81.4,241.9,81.4,234.1z"/>
	<path class="st0" d="M65.5,250.3c0,6.8,0,13.7,0,20.5c0,0.6-0.1,1.3-0.3,1.9c-0.5,1.2-1.3,1.3-2.2,0.4c-3.1-3.1-6.3-6.3-9.4-9.4
		c-3.6-3.6-7.2-7.3-10.9-10.9c-1.5-1.5-1.5-3.6,0-5.1c6.7-6.7,13.3-13.5,20-20.2c0.4-0.4,0.9-1.1,1.6-0.8c0.7,0.3,1,0.9,1.1,1.6
		c0.1,0.4,0.1,0.9,0.1,1.3C65.5,236.6,65.5,243.4,65.5,250.3C65.5,250.3,65.5,250.3,65.5,250.3z"/>
	<path class="st1" d="M243.1,242.8c1.3,1.8,2.7,3.5,4,5.3c2.8,3.7,5.6,7.4,8.4,11.2c3.6,4.8,7.2,9.6,10.8,14.3
		c3.5,4.7,7,9.4,10.6,14.1c0.3,0.3,0.4,0.7,0.2,1.1c-0.2,0.4-0.6,0.5-1,0.6c-0.2,0-0.4,0-0.6,0c-3.3,0-6.5,0-9.8,0
		c-0.6,0-1-0.2-1.3-0.6c-6.1-8.2-12.3-16.4-18.4-24.6c-3.5-4.7-7-9.3-10.5-13.9c0,0-0.1-0.1-0.1-0.1c-0.4,0.4-0.8,0.8-1.3,1.2
		c-2.8,2.6-5.7,5.3-8.5,7.9c-1.6,1.5-3.1,2.9-4.7,4.4c-0.2,0.2-0.3,0.4-0.3,0.6c0,7.9,0,15.8,0,23.8c0,0.1,0,0.2,0,0.3
		c0,0.7-0.4,1.1-1.1,1.1c-2.8,0-5.5,0-8.3,0c-0.7,0-1.1-0.4-1.1-1.1c0-0.1,0-0.2,0-0.3c0-25.2,0-50.3,0-75.5c0,0,0,0,0-0.1
		c0-1,0.3-1.3,1.3-1.3c2.5,0,5.1,0,7.6,0c0.2,0,0.3,0,0.5,0c0.7,0,1.1,0.4,1.1,1.1c0,0.1,0,0.2,0,0.3c0,12.2,0,24.4,0,36.6
		c0,0.1,0,0.3,0,0.5c0.6-0.6,1.2-1.1,1.8-1.6c3.3-3.1,6.7-6.3,10-9.4c4.4-4.1,8.8-8.2,13.2-12.3c3.7-3.4,7.3-6.9,11-10.3
		c1.5-1.5,3.1-2.9,4.6-4.4c0.3-0.3,0.7-0.5,1.1-0.5c3.9,0,7.8,0,11.6,0c0.7,0,1,0.2,1.2,0.7c0.1,0.4,0,0.7-0.3,1
		c-1.1,1.1-2.2,2.1-3.4,3.2c-2,1.9-4,3.7-6,5.6c-2.8,2.6-5.5,5.2-8.3,7.8c-2.8,2.7-5.6,5.3-8.5,8C246.9,239.2,245,241,243.1,242.8z"
		/>
	<path class="st1" d="M316.2,210.1c0.7,0,1.4,0.1,2.2,0.1c5.5,0.4,10.8,1.7,15.7,4.2c3.5,1.8,6.6,4.2,9.4,7c3,3.1,5.5,6.5,7.4,10.3
		c1.4,2.8,2.3,5.8,3,8.9c0.8,3.8,1.1,7.6,0.9,11.4c-0.3,6.2-1.6,12.1-4.5,17.6c-2,3.8-4.7,7.2-7.8,10.2c-5,4.8-11,7.9-17.8,9.3
		c-2.5,0.5-5.1,0.9-7.6,0.9c-0.1,0-0.2,0-0.3,0.1c-1,0-2,0-3,0c-0.7,0-1.3-0.1-2-0.1c-7.9-0.6-15-3-21.3-8
		c-4.9-3.9-8.8-8.7-11.4-14.4c-1.3-2.9-2.2-6-2.8-9.1c-0.7-3.6-0.9-7.1-0.7-10.7c0.4-7.6,2.4-14.7,6.8-20.9
		c5.1-7.3,11.9-12.6,20.6-15.1c2.6-0.8,5.3-1.3,8.1-1.5c0.9-0.1,1.7-0.1,2.6-0.2c0.1,0,0.3,0,0.4-0.1
		C314.7,210.1,315.4,210.1,316.2,210.1z M315,279.9c2.8,0,5.5-0.3,8.2-0.9c5.8-1.4,10.6-4.4,14.4-9c3.9-4.7,5.9-10.1,6.5-16.1
		c0.2-2.1,0.2-4.1,0.1-6.2c-0.1-2.2-0.4-4.5-1-6.6c-1.9-6.8-5.7-12.2-11.5-16.1c-4.4-2.9-9.3-4.3-14.5-4.5c-2.8-0.1-5.7,0-8.5,0.5
		c-4.9,0.9-9.3,2.9-13,6.2c-3.6,3.2-6.3,7.1-7.9,11.6c-1.2,3.5-1.7,7-1.8,10.7c0,2.8,0.2,5.7,0.8,8.4c1.1,5,3.4,9.4,6.9,13.2
		c3.1,3.3,6.8,5.7,11.1,7.2C308,279.5,311.5,279.9,315,279.9z"/>
	<path class="st1" d="M366.7,250.2c0-12.6,0-25.1,0-37.7c0-0.1,0-0.2,0-0.3c0-0.7,0.4-1.1,1.1-1.1c0,0,0.1,0,0.1,0
		c10.8,0,21.5,0,32.3,0c5,0,9.7,1.1,14.2,3.2c3.9,1.8,7.4,4.2,10.4,7.3c4.9,5,8.1,10.9,9.7,17.8c0.9,3.9,1.3,7.9,1.2,11.9
		c-0.1,5.4-1.1,10.7-3.1,15.7c-1.7,4.2-4.2,7.9-7.3,11.2c-4.7,5.1-10.5,8.4-17.3,10.1c-2.9,0.7-5.9,1-8.9,1c-10.4,0-20.9,0-31.3,0
		c-0.2,0-0.4,0-0.5,0c-0.4-0.1-0.6-0.3-0.7-0.7c0-0.2-0.1-0.4-0.1-0.6C366.7,275.4,366.7,262.8,366.7,250.2z M377.2,279.2
		c0.2,0,0.3,0,0.5,0c7,0,14,0,21,0c1.3,0,2.5-0.1,3.8-0.2c2.6-0.2,5.1-0.9,7.5-2c3.1-1.4,5.7-3.5,8-6c2.1-2.4,3.7-5,5-8
		c1.3-3.1,2-6.4,2.3-9.7c0.2-3.1,0.1-6.1-0.3-9.1c-0.5-3.6-1.7-7-3.5-10.1c-2-3.5-4.6-6.5-7.9-8.8c-4-2.8-8.4-4.1-13.3-4.1
		c-7.5,0-15,0-22.5,0c-0.1,0-0.3,0-0.4,0C377.2,240.5,377.2,259.8,377.2,279.2z"/>
	<path class="st1" d="M458.5,288.4c-0.3,0.7-0.5,0.9-1.3,0.9c-2.6,0-5.3,0-7.9,0c-0.9,0-1.3-0.3-1.3-1.3c0-25.2,0-50.4,0-75.6
		c0-1,0.3-1.3,1.3-1.3c2.6,0,5.3,0,7.9,0c0.3,0,0.7,0.1,1,0.3c0.2,0.1,0.2,0.4,0.3,0.6C458.5,237.5,458.5,262.9,458.5,288.4z"/>
</g>
</svg>
