<?xml version="1.0" encoding="utf-8"?>
<!-- Generator: Adobe Illustrator 26.0.0, SVG Export Plug-In . SVG Version: 6.00 Build 0)  -->
<svg version="1.1" id="Layer_1" xmlns="http://www.w3.org/2000/svg" xmlns:xlink="http://www.w3.org/1999/xlink" x="0px" y="0px"
	 viewBox="0 0 500 500" style="enable-background:new 0 0 500 500;" xml:space="preserve">
<style type="text/css">
	.st0{fill:#00AFD7;}
	.st1{fill:#555759;}
	.st2{fill:#53575A;}
</style>
<g>
	<path class="st0" d="M353.4,214c0-11.4-3.7-21.2-9.4-28.2c-8.6-10.6-16.8-15.7-29-18.9c-3.6-0.9-7.6-1.2-10.2-1.7
		c-2-8.7-5.7-16.3-10.5-22.1c-9.2-11.3-21.4-17.1-32.2-20.2c-10.9-3-20.5-3.5-25.7-3.5c-2.2,0-9.3,0.2-12.7,0.2l0.1,40.6
		c-0.2,0-0.6,0-0.8,0c-4.4,0-14.1,0.4-23.9,4.9c-4.8,2.2-9.8,5.6-13.7,10.4c-3,3.8-5.5,8.5-6.8,14.1c-4,0.2-9.9,1.2-15.7,3.7
		c-4,1.9-8.1,4.5-11.3,8.7c-2.9,3.8-4.8,9.1-5,15h-0.1c0,0,2.1,17.7,15.9,17.7c12.7,0,163.5,0,174.7,0
		C352,234.8,353.4,215,353.4,214z M242.9,216.4l-0.2-77.9c6.3,0.6,14.8,2,22.5,5.6c5.5,2.6,10.4,5.9,14.2,10.8
		c3.8,4.8,8.7,12.6,8.5,27.9c10-1.5,20.4,0.1,29.6,5.8c13.2,8.3,17.1,18,17.1,25.4c0,0.7,0,1.5,0,2.1c0,0.2,0,0.7,0,0.9h-91.8
		C242.7,216.9,242.9,216.7,242.9,216.4L242.9,216.4z"/>
	<g>
		<path class="st1" d="M157.1,313.4h6.7l-2.1,9h-16.8l1.5-6.2c-6.6,4.7-12.4,7.1-17.5,7.1c-3.8,0-6.8-1.2-9.1-3.7s-3.4-5.2-3.4-8.1
			c0-2.1,0.6-5.8,1.8-10.9l5.3-22.5h-6.6l2.1-9h16.6l-6.8,28.9c-1.3,5.8-2,9.4-2,10.8c0,1.6,0.6,2.9,1.7,3.8c1.1,1,2.5,1.5,4,1.5
			c3.9,0,9.3-2.6,16.4-7.7l6.7-28.2h-8l2.1-9h17.9L157.1,313.4z"/>
		<path class="st1" d="M179.8,269.2h16.8l-1.5,6.5c7.1-4.9,13.2-7.3,18.5-7.3c2.8,0,5.3,0.8,7.4,2.5c2.1,1.7,3.6,3.8,4.4,6.4
			c7.4-5.9,14-8.9,19.8-8.9c4.1,0,7.3,1.3,9.3,3.9c2.1,2.6,3.1,5.4,3.1,8.4c0,2.4-0.6,6.1-1.8,11l-5.3,21.9h7.8l-2.1,9h-17.8
			l7.6-32.1c0.8-3.3,1.1-5.5,1.1-6.9c0-3.8-1.9-5.7-5.6-5.7c-3.9,0-9.4,2.5-16.5,7.3l-6.6,28.4h8.1l-2.1,9h-17.7l7.6-32.7
			c0.8-3.1,1.1-5.3,1.1-6.3c0-1.7-0.6-3-1.7-4c-1.1-1-2.5-1.6-3.9-1.6c-3.9,0-9.6,2.5-16.9,7.3l-6.4,28.4h8l-2.1,9h-24.1l2.1-9h6.2
			l8-35.3h-6.8L179.8,269.2z"/>
		<path class="st1" d="M305.4,313.4h6.7l-2.1,9h-16.8l1.5-6.2c-6.6,4.7-12.4,7.1-17.5,7.1c-3.8,0-6.8-1.2-9.1-3.7
			c-2.2-2.5-3.4-5.2-3.4-8.1c0-2.1,0.6-5.8,1.8-10.9l5.3-22.5h-6.6l2.1-9h16.6l-6.8,28.9c-1.3,5.8-2,9.4-2,10.8
			c0,1.6,0.6,2.9,1.7,3.8c1.1,1,2.5,1.5,4,1.5c3.9,0,9.3-2.6,16.4-7.7l6.7-28.2h-8l2.1-9h17.9L305.4,313.4z"/>
		<path class="st1" d="M324.8,313.4l14.1-58.6h-7.2l2.1-9H351l-16.1,67.6h7.3l-2.1,9h-23.3l2.1-9H324.8z"/>
		<path class="st1" d="M347.6,300.9c0-5.5,1.2-10.8,3.8-15.8s6.4-9.2,11.5-12.6c5.2-3.4,10.9-4.9,17.3-4.9c7.4,0,13.1,2.1,17.1,6.5
			c4,4.4,5.9,9.8,5.9,16.4c0,5.2-1.2,10.5-3.8,16c-2.6,5.5-6.5,9.8-11.8,12.8c-5.3,3-10.9,4.6-16.8,4.6c-6.8,0-12.4-2-16.8-6.1
			C349.9,313.8,347.6,308.2,347.6,300.9z M358.8,299.9c0,9.6,4.5,14.5,13.3,14.5c6.3,0,11.2-2.4,15-7.2s5.7-10.3,5.7-16.6
			c0-4-1.3-7.3-3.9-9.8s-6.1-3.7-10.3-3.7c-6.1,0-10.9,2.4-14.5,6.9C360.6,288.8,358.8,294,358.8,299.9z"/>
		<path class="st1" d="M405.7,307.5h9.1c0,2.5,1.1,4.4,3.3,5.7c2.2,1.3,5,2,8.6,2c3.3,0,5.8-0.7,7.5-2c1.8-1.3,2.7-2.9,2.7-4.8
			c0-1.8-0.8-3.4-2.4-4.7c-1.6-1.3-4.3-2.8-8.2-4.3c-3.9-1.6-6.9-2.9-9-4.1s-3.7-2.9-5-5s-2-4.4-2-6.7c0-4.1,1.7-7.7,5.2-10.8
			c3.4-3,8.1-4.6,14.1-4.6c5.6,0,10.2,1.6,13.8,4.6l1.1-3.8h8.9l-3.4,15h-9c-0.1-2.7-1.3-4.6-3.7-5.8c-2.4-1.1-4.9-1.7-7.8-1.7
			s-5.3,0.6-6.9,1.8c-1.7,1.1-2.5,2.7-2.5,4.4c0,1.5,0.4,2.6,1.5,3.6c1,0.9,2.9,1.9,5.7,3c8,3,13.1,5.9,15.7,8.6
			c2.6,2.8,3.8,6.1,3.8,10c0,4.6-1.8,8.4-5.4,11.2c-3.6,2.8-8.9,4.3-15.8,4.3c-6.5,0-11-1.5-13.7-4.4l-0.8,3.5h-9L405.7,307.5z"/>
		<path class="st1" d="M55.4,313.4l14.1-58.6h-7.7l2.1-9c0,0,9.1,0,12.9,0s4,3,4,3L70,293.9l23.2-16.8c0,0-2.6,0-4.9,0
			c-3.1,0-2.9-2-2.9-2l1.3-5.9h26.7l-1.9,8H106l-24.8,18l12,18.3h8.6l-2.1,9c0,0-4.8,0-8.7,0s-5.2-2.9-5.2-2.9l-15.9-24.2l-4.5,18.2
			c0,0,1.7-0.1,3.8,0c3.6,0.1,3.6,2.7,3.6,2.7l-1.5,6.3H46.7l2.1-9H55.4z"/>
		<path class="st2" d="M157.1,313.2h6.6l-2.1,9h-16.8l1.5-6.2c-6.5,4.7-12.3,7.1-17.6,7.1c-3.8,0-6.8-1.2-9.1-3.7
			c-2.2-2.5-3.4-5.2-3.4-8c0-2.1,0.7-5.8,1.9-10.9l5.2-22.5h-6.6l2.1-9h16.5l-6.8,28.9c-1.3,5.8-2,9.4-2,10.8c0,1.6,0.6,2.8,1.6,3.8
			c1,0.9,2.4,1.5,4,1.5c3.8,0,9.3-2.6,16.4-7.7L155,278h-8l2.1-9h17.9L157.1,313.2z"/>
		<path class="st2" d="M179.7,268.9h16.8l-1.5,6.5c7.1-4.9,13.2-7.3,18.5-7.3c2.8,0,5.3,0.8,7.4,2.6c2.1,1.6,3.6,3.7,4.4,6.4
			c7.4-5.8,14-9,19.8-9c4.1,0,7.2,1.3,9.3,3.8c2.1,2.6,3.1,5.3,3.1,8.4c0,2.4-0.7,5.9-1.9,10.9l-5.2,21.9h7.8l-2.1,9h-17.8l7.6-32.1
			c0.8-3.1,1.2-5.6,1.2-6.9c0-3.7-1.9-5.7-5.6-5.7c-4,0-9.4,2.4-16.4,7.3l-6.6,28.4h8l-2.1,9h-17.9l7.6-32.7
			c0.8-3.1,1.2-5.3,1.2-6.4c0-1.6-0.6-3-1.7-4c-1-1-2.4-1.6-3.8-1.6c-4,0-9.5,2.4-17,7.3l-6.4,28.4h8l-2.1,9h-24.1l2.1-9h6.3l8-35.3
			h-6.9L179.7,268.9z"/>
		<path class="st2" d="M305.1,313.2h6.6l-2.1,9H293l1.5-6.2c-6.5,4.7-12.3,7.1-17.6,7.1c-3.8,0-6.8-1.2-9.1-3.7
			c-2.2-2.6-3.4-5.2-3.4-8c0-2.1,0.7-5.8,1.9-10.9l5.2-22.5h-6.6l2.1-9h16.6l-6.8,28.9c-1.3,5.8-2,9.4-2,10.8c0,1.6,0.6,2.8,1.6,3.8
			c1,0.9,2.4,1.5,4,1.5c3.8,0,9.3-2.6,16.4-7.7l6.6-28.2h-8l2.1-9h17.9L305.1,313.2z"/>
		<path class="st2" d="M324.6,313.2l14.1-58.5h-7.2l2.1-9h17.1l-16.3,67.6h7.3l-2.1,9h-23.3l2.1-9h5.9v-0.1H324.6z"/>
		<path class="st2" d="M347.5,300.7c0-5.5,1.3-10.8,3.8-15.7c2.6-5,6.4-9.2,11.5-12.6c5-3.4,10.9-4.9,17.3-4.9
			c7.4,0,13.2,2.1,17.1,6.5c4,4.4,5.9,9.9,5.9,16.4c0,5.2-1.3,10.5-3.8,15.9c-2.5,5.4-6.5,9.8-11.7,12.8c-5.3,3-10.9,4.7-16.8,4.7
			c-6.8,0-12.3-2-16.8-6.2C349.7,313.7,347.5,307.9,347.5,300.7z M358.7,299.7c0,9.5,4.4,14.3,13.3,14.3c6.3,0,11.2-2.4,15-7.2
			c3.7-4.8,5.7-10.4,5.7-16.6c0-4-1.3-7.3-3.8-9.8c-2.6-2.4-5.9-3.6-10.2-3.6c-5.9,0-10.8,2.2-14.5,6.9
			C360.4,288.6,358.7,293.8,358.7,299.7z"/>
		<path class="st2" d="M405.6,307.3h9.1c0,2.6,1,4.4,3.4,5.7c2.4,1.3,5,2,8.6,2c3.4,0,5.7-0.7,7.6-2c1.7-1.3,2.7-2.9,2.7-4.8
			c0-1.7-0.8-3.4-2.2-4.7c-1.6-1.3-4.3-2.8-8.1-4.3c-4-1.5-6.9-2.9-9-4.1c-2-1.2-3.7-2.9-5-5c-1.3-2.1-2-4.4-2-6.8
			c0-4.1,1.7-7.7,5-10.8c3.5-3,8.1-4.7,14.1-4.7c5.6,0,10.1,1.6,13.7,4.7l1-3.8h9l-3.5,14.8h-9c-0.1-2.7-1.3-4.7-3.7-5.7
			c-2.4-1.2-4.9-1.7-7.8-1.7s-5.2,0.6-6.9,1.7c-1.8,1.1-2.6,2.7-2.6,4.4c0,1.5,0.6,2.7,1.5,3.6c0.9,0.9,2.9,1.9,5.7,2.9
			c8,3,13.2,5.8,15.7,8.6c2.5,2.8,3.7,6.2,3.7,10c0,4.7-1.7,8.4-5.3,11.2c-3.6,2.8-8.7,4.3-15.7,4.3c-6.5,0-11.1-1.5-13.7-4.4
			l-0.8,3.5H402L405.6,307.3z"/>
		<path class="st2" d="M55.3,313.2l14.1-58.5h-7.7l2.1-9c0,0,9.1,0,12.9,0c3.8,0,4,3,4,3l-10.9,44.9l23.2-16.8c0,0-2.6,0-4.9,0
			c-3.1,0-2.8-2-2.8-2l1.3-5.9h26.6l-1.9,8H106l-24.8,18.3l12,18.3h8.5l-2.1,9c0,0-4.8,0-8.7,0c-3.8,0-5.2-2.8-5.2-2.8l-15.8-24.2
			l-4.5,18c0,0,1.6,0,3.8,0c3.6,0.1,3.6,2.7,3.6,2.7l-1.5,6.3H46.6l2.1-9h6.6L55.3,313.2L55.3,313.2z"/>
		<g>
			<path class="st2" d="M260.6,368c0,3.7-3.1,6.4-7.7,6.4h-9.9l3.7-21.3h6.9c3.7,0,6.3,2.2,6.3,5.7c0,1.9-0.8,3.5-2.2,4.4
				C259.6,364.3,260.6,365.9,260.6,368z M256.4,367.9c0-1.6-1-2.6-2.8-2.6h-4.5l-0.9,5.3h4.9C255,370.7,256.4,369.8,256.4,367.9z
				 M250.4,356.9l-0.9,4.9h3.1c1.9,0,3-1,3-2.7c0-1.5-0.9-2.2-2.6-2.2H250.4z"/>
			<path class="st2" d="M279.9,358.5l-2.7,15.1c-0.8,4.3-3.8,6.9-8,6.9c-3,0-5.8-1.3-7.6-3.6l2.7-2.9c1.7,1.9,3.1,2.6,4.9,2.6
				c2,0,3.4-1,3.7-3.1l0.1-0.9c-1,0.8-2.6,1.3-4,1.3c-3.1,0-5.5-2.1-5.5-5.3c0-0.6,0.1-1.2,0.1-1.7l1.5-8.4h4.4L268,367
				c0,0.2-0.1,0.7-0.1,0.9c0,1.5,1,2.6,2.7,2.6c1.5,0,3-0.9,3.4-2.8l1.6-9L279.9,358.5L279.9,358.5z"/>
			<path class="st2" d="M288.3,364.5c0-6.5,5.5-11.9,12.1-11.9c6.2,0,10.4,4.4,10.4,10.2c0,6.5-5.5,11.9-12.1,11.9
				C292.7,374.9,288.3,370.5,288.3,364.5z M306.3,363.3c0-3.8-2.6-6.4-6.3-6.4c-4.1,0-7.3,3.4-7.3,7.6c0,3.8,2.6,6.5,6.3,6.5
				C303,370.8,306.3,367.6,306.3,363.3z"/>
			<path class="st2" d="M330.4,365.7c0,5.2-3.7,9.2-8.5,9.2c-2.2,0-4.1-0.8-5.2-2.2l-1.3,7.7H311l3.8-21.9h4l-0.2,1.7
				c1.2-1.3,2.9-2,4.9-2C327.4,358,330.4,361.4,330.4,365.7z M326,366.2c0-2.4-1.6-4.1-3.8-4.1c-2.6,0-4.4,2.1-4.4,4.9
				c0,2.4,1.6,4,3.8,4C324,370.9,326,368.8,326,366.2z"/>
			<path class="st2" d="M338.2,368.4c0,0.1,0,0.6,0,0.8c0,1.5,1.2,2,3.4,2c0.7,0,0.9,0,1.3,0l-0.7,3.6c-0.7,0.1-1.2,0.1-2,0.1
				c-3.8,0-6.5-1.6-6.5-4.9c0-0.6,0-0.9,0.1-1.6l1-6.3h-2.5l0.7-3.6h2.6l0.7-4h4.4l-0.8,4h4.5l-0.7,3.6H339L338.2,368.4z"/>
			<path class="st2" d="M348,358.5h4.4l-2.8,15.9h-4.4L348,358.5z M348.3,352.7c0-1.6,1.2-2.7,2.8-2.7s2.8,1.2,2.8,2.7
				c0,1.5-1.2,2.7-2.8,2.7C349.5,355.4,348.3,354.2,348.3,352.7z"/>
			<path class="st2" d="M379.9,363.5c0,0.7-0.1,1.2-0.1,1.9l-1.6,9.2h-4.4l1.6-9.1c0-0.4,0.1-0.8,0.1-1c0-1.6-1-2.6-2.6-2.6
				c-1.5,0-2.9,0.9-3.1,2.9l-1.7,9.8h-4.4l1.6-9.1c0-0.2,0.1-0.7,0.1-1c0-1.6-1-2.6-2.6-2.6c-1.5,0-2.9,0.9-3.1,2.9l-1.7,9.8h-4.4
				l2.8-15.9h4l-0.2,1.3c1-1,2.7-1.7,4.5-1.7c2,0,3.6,0.8,4.5,2.2c1.3-1.3,3.1-2.2,5.5-2.2C377.9,358,379.9,360.3,379.9,363.5z"/>
			<path class="st2" d="M382.4,366.9c0-4.8,4-8.7,9.1-8.7c4.7,0,8.3,3.5,8.3,8c0,4.8-4,8.7-9.1,8.7
				C385.8,374.9,382.4,371.4,382.4,366.9z M395.1,366.2c0-2.4-1.6-4.1-4-4.1c-2.6,0-4.4,2.1-4.4,4.8c0,2.4,1.6,4.1,3.8,4.1
				C393.1,370.9,395.1,368.8,395.1,366.2z"/>
			<path class="st2" d="M418.5,358.5l-10.8,16.4h-1.5l-5-16.4h4.4l2.4,9l5.6-9H418.5z"/>
			<path class="st2" d="M433.4,367.9h-11.1c0.4,2.1,1.9,3.1,4.4,3.1c1.6,0,3-0.4,4.5-1.5l1.6,2.9c-1.9,1.5-4,2.2-6.5,2.2
				c-4.8,0-8.3-3.1-8.3-7.8c0-4.9,4-8.7,9-8.7c4.1,0,7.1,2.9,7.1,7.1C433.9,366,433.7,367.1,433.4,367.9z M422.3,364.9h7.4
				c0-2-1.3-3.4-3.4-3.4C424.4,361.6,422.9,362.9,422.3,364.9z"/>
		</g>
	</g>
</g>
</svg>
