<?xml version="1.0" encoding="utf-8"?>
<!-- Generator: Adobe Illustrator 26.0.0, SVG Export Plug-In . SVG Version: 6.00 Build 0)  -->
<svg version="1.1" id="Layer_1" xmlns="http://www.w3.org/2000/svg" xmlns:xlink="http://www.w3.org/1999/xlink" x="0px" y="0px"
	 viewBox="0 0 500 500" style="enable-background:new 0 0 500 500;" xml:space="preserve">
<style type="text/css">
	.st0{fill:#FAAB18;}
	.st1{fill-rule:evenodd;clip-rule:evenodd;fill:#FAAB18;}
</style>
<g>
	<path class="st0" d="M469,278v9.2c0,1.6-0.5,3.2-1.4,4.6c-0.7,1.3-1.8,2.4-3.1,3.1c-1.3,0.8-2.9,1.3-4.4,1.3
		c-1.6,0-3.2-0.4-4.6-1.3c-1.3-0.7-2.4-1.8-3.1-3.1c-0.8-1.4-1.3-2.9-1.3-4.6v-45.1c0-1.6,0.4-3.1,1.3-4.4c0.7-1.3,1.8-2.4,3.1-3.1
		c1.4-0.9,2.9-1.3,4.6-1.4c1.6,0,3.1,0.5,4.4,1.4c1.3,0.7,2.4,1.8,3.1,3.1c0.9,1.3,1.3,2.9,1.4,4.4v10.1l8.2-1v-9.1
		c0-3.1-0.8-6.1-2.4-8.7c-1.5-2.5-3.5-4.7-6-6.2c-2.7-1.5-5.7-2.3-8.7-2.4c-3.1,0.1-6.1,0.9-8.7,2.4c-2.5,1.5-4.6,3.7-6.1,6.2
		c-1.6,2.6-2.4,5.7-2.4,8.7v45.1c0,3.1,0.8,6.1,2.4,8.7c3,5.4,8.8,8.6,14.9,8.5c6.1,0.2,11.8-3.1,14.8-8.5c1.6-2.6,2.4-5.7,2.4-8.7
		V278H469z M421.6,206.8h8.3v-11.2h-8.3V206.8z M429.9,303.6h-8.3v-87.8h8.3V303.6z M413.4,224.8c-3.6-0.1-7.2,0.6-10.6,1.9
		c-2.5,1.1-4.7,2.8-6.2,5l-1.5-6h-5.6v77.9h8.3V243c0-1.8,0.4-3.5,1.3-5.1c0.8-1.4,2-2.6,3.5-3.4c1.5-0.8,3.2-1.3,4.9-1.4h5.9
		L413.4,224.8z M352.2,234h10v58.9c0,2,0.6,4,1.6,5.8c0.9,1.7,2.4,3.2,4.1,4.1c1.8,1,3.8,1.6,5.8,1.6v-8.3c-0.8,0-1.7-0.3-2.3-0.9
		c-0.5-0.7-0.8-1.5-0.9-2.3V234h10.1v-8.3h-10.1v-16l-8.3,1v15h-10V234z M318.8,242.1c0-1.6,0.5-3.1,1.2-4.4
		c0.7-1.3,1.8-2.4,3.1-3.1c2.8-1.8,6.3-1.8,9.1,0c1.3,0.7,2.4,1.8,3.1,3.1c0.8,1.3,1.2,2.9,1.1,4.4v15.7h-17.7L318.8,242.1z
		 M336.7,278v9.2c0,1.6-0.3,3.2-1.1,4.6c-0.7,1.3-1.8,2.4-3.1,3.1c-2.8,1.7-6.3,1.7-9.1,0c-1.3-0.7-2.4-1.8-3.1-3.1
		c-0.8-1.4-1.2-3-1.2-4.6v-21.1h25.9v-24c0.1-3.1-0.7-6.1-2.3-8.7c-1.5-2.6-3.7-4.7-6.2-6.2c-2.6-1.5-5.6-2.3-8.6-2.4
		c-3.1,0.1-6.1,0.9-8.7,2.4c-2.5,1.6-4.6,3.7-6.1,6.2c-1.5,2.7-2.4,5.7-2.4,8.7v45.1c0,3.1,0.8,6.1,2.4,8.7c1.5,2.5,3.6,4.7,6.1,6.2
		c2.7,1.5,5.7,2.3,8.7,2.3c3,0,6-0.7,8.6-2.3c2.6-1.5,4.7-3.6,6.2-6.2c1.6-2.6,2.4-5.7,2.3-8.7v-10.3L336.7,278z M288.1,212.5h0.2
		v91.1h8.3V195.9H284l-17.8,95h-0.3l-17.6-95h-12.4v107.7h8.3v-90.4h0.3l17.1,90.4h9.4L288.1,212.5z M220.7,241.2
		c0-2.9-0.7-5.8-2.1-8.3c-1.5-2.3-3.5-4.3-5.9-5.8c-2.5-1.4-5.3-2.2-8.2-2.3c-2.9,0-5.7,0.8-8.2,2.3c-2.4,1.4-4.4,3.4-5.9,5.8
		c-1.4,2.5-2.2,5.4-2.2,8.3v10.1l8.3-0.9v-9.2c0-1.4,0.3-2.8,1-4.1c0.7-1.2,1.7-2.2,3-2.8c1.2-0.7,2.6-1.1,4-1.1
		c1.4,0,2.8,0.4,4.1,1.1c1.2,0.6,2.1,1.6,2.7,2.8c0.8,1.2,1.2,2.6,1.1,4.1v7.8c0,1.5-0.4,3.1-1.1,4.4c-0.6,1.2-1.3,2.3-2.3,3.3
		l-2.4,2c-0.3,0.2-0.7,0.4-1,0.6l-12.4,7.2c0,0-0.3,0.2-1,0.8c-0.9,0.6-1.7,1.3-2.4,2.2c-1,1.1-1.9,2.4-2.5,3.7
		c-0.7,1.7-1,3.4-1,5.2v8.7c0,3.1,0.8,6.1,2.3,8.7c3.1,5.3,8.8,8.6,14.9,8.5c2.2,0.1,4.4-0.4,6.4-1.2c2-0.7,3.8-1.8,5.3-3.3
		c1,1.2,2.3,2.1,3.7,2.7c1.5,0.7,3,1,4.7,1v-8.3c-0.7,0-1.5-0.3-1.9-0.9c-0.6-0.5-0.9-1.3-0.9-2.1L220.7,241.2z M194.6,278.4
		c0-1,0.3-1.9,0.7-2.7c0.4-0.6,0.9-1.1,1.5-1.5c0.2-0.2,0.4-0.4,0.7-0.6l12.3-7.1c0.3-0.1,0.6-0.3,0.9-0.6c0.6-0.5,1.2-1,1.8-1.6
		v22.7c0,1.6-0.4,3.2-1.3,4.6c-0.7,1.3-1.8,2.4-3.1,3.1c-1.4,0.8-3,1.2-4.7,1.3c-1.6,0-3.1-0.4-4.4-1.3c-1.4-0.7-2.5-1.8-3.3-3.1
		c-0.7-1.4-1.1-3-1.1-4.6L194.6,278.4z M153.1,295.3v-99.4h-8.4v107.7h34.4v-8.3H153.1z"/>
	<path class="st1" d="M77.1,195.6c-30,0-54.3,24.3-54.3,54.3c0,30,24.3,54.3,54.3,54.3s54.3-24.3,54.3-54.3c0,0,0,0,0,0
		C131.3,219.9,107,195.6,77.1,195.6z M100.5,290.2v-64.9h-8.7v68.8c-3.3,1.1-6.7,1.8-10.1,2.2v-37.8H73v37.8
		c-4-0.3-7.8-1.2-11.6-2.5v-68.5h-8.7v64.4c-22-13.4-29-42.1-15.6-64.1s42.1-29,64.1-15.6s29,42.1,15.6,64.1
		C112.8,280.8,107.2,286.3,100.5,290.2z"/>
</g>
</svg>
