<?xml version="1.0" encoding="utf-8"?>
<!-- Generator: Adobe Illustrator 26.0.0, SVG Export Plug-In . SVG Version: 6.00 Build 0)  -->
<svg version="1.1" id="Layer_1" xmlns="http://www.w3.org/2000/svg" xmlns:xlink="http://www.w3.org/1999/xlink" x="0px" y="0px"
	 viewBox="0 0 500 500" style="enable-background:new 0 0 500 500;" xml:space="preserve">
<style type="text/css">
	.st0{fill-rule:evenodd;clip-rule:evenodd;fill:#FCFCFC;}
	.st1{fill-rule:evenodd;clip-rule:evenodd;fill:#292929;}
	.st2{fill-rule:evenodd;clip-rule:evenodd;fill:#FDC037;}
</style>
<g>
	<g>
		<path class="st0" d="M209.9,167.4l-0.4,0.5c-2.2,8.4-8.2,19.3-12,26.9c-4.4,8.9-8.5,16.6-12.2,26.2c-5.6,14.7-16.8,41.6-18.4,58.1
			c1.2,2,3.8,3.2,7.7,9.4c6.1,9.8,10.2,22.7,17.3,32.2c7,9.2,23.6,15.9,27.4,39.1c14.2,0.9,26,1.3,39.8-1.1c6-1,11.8-2.4,17.3-4.2
			c5.6-1.8,10.7-4.9,15.3-6.4c1.5-15.5,3.2-51.5,13.7-59.9c0.2-24.9-2.4-46.4-8.3-68.9c-5.5-21.1-13.2-37.1-21.4-55.6
			c-1.9,0.4-12.2,6.4-15.9,8c-16,6.9-22.7,10.9-35.3,4.8C217.2,173,212.3,168.2,209.9,167.4z"/>
		<path class="st1" d="M152.8,278.3c7.8-1.7,7.2-1.4,14.2,0.8c1.6-16.5,12.7-43.4,18.4-58.1c3.7-9.6,7.8-17.3,12.2-26.2
			c3.8-7.6,9.8-18.4,12-26.9l0.4-0.5c-1.3-3.6-19.2-14,0.1-30l3.1-2.7c0-0.2,0.2-0.2,0.3-0.3c-7.6-10.6-7.4-30.1,3.3-35.9
			c7.5-4,13.7,0.9,16.4,5.8c3.3,6.2,3.4,12.9,2.3,20.7c7.6-1.1,8.3-0.6,15.3,0.7c-1.2-7.8-1.2-15,2.3-21.5c2.5-4.6,9.2-10,16.4-5.7
			c4.8,2.9,7.7,9.2,8.3,16.4c0.7,9-1.5,13.4-5,19.2c3.1,3.8,9.3,5.4,11.6,14.1c1.1,4.2,0.1,6.8-2,9.4c-2.2,2.7-3.5,3.1-5.2,4.6
			c-0.1,0.1-0.3,0.3-0.4,0.3c-0.1,0.1-0.3,0.3-0.3,0.4l-0.6,0.8c8.2,18.5,15.9,34.5,21.4,55.6c5.9,22.5,8.5,44,8.3,68.9
			c0.5,21.1,4.6,31.6,28.5,30.9c28.7-0.8,24.6-27.3,27.4-32.7c0-41.6-6.8-60.9-31-93c-4.6-6.1-14.3-17.5-18.1-23.6
			c-9.9-16-4.2-14.7-6.4-34.7c-1.8-16.2-0.3-18.5-5-36.8c-2.4-9.6-8.1-21.8-14-27.7c-3.8-3.9-6.3-6.7-11.4-9.5
			c-5.4-3-8.6-4.2-15.2-5.6c-10.8-2.3-25.5-0.8-35,4.7c-17.5,10.2-23.5,39.4-23.7,59.2c0,3.8-0.7,5.4-0.7,9.7l-0.2,15.4
			c-4.2,29.6-16.8,41.6-28.2,70.3c-6.8,17-11.1,29.1-16.2,46.4l-3.2,14.4c0,0.2-0.1,0.3-0.1,0.5
			C152.9,277.1,152.8,276.8,152.8,278.3z"/>
		<path class="st2" d="M152.8,278.3c-1.9,1.3-3.5,1.9-5,3.7c-3.1,3.7-4.3,6.9-5.5,11.6l-1.1,4.6c-0.4,1.1,0,0-0.4,0.9
			c-1.3,3.1-14.8,2.3-23,7.7c-14.2,9.3-2.3,19.2-5.8,39.9c-1,5.8-2.4,6.9-0.6,12.2c0.4,1.2,1.9,3.6,2.7,4.5c2,2.4,6.2,4.5,9.2,5.8
			c13.4,5.3,30.6,4.3,37.3,6.4c6.8,2.2,23,11.7,36.6,13.1h6.3c4.5-0.6,8.4-2.5,11.2-6.5c1.3-3,2.9-4.7,4-9c1.1-4.5,0.7-8.7,0.6-13.3
			c-3.8-23.2-20.4-29.9-27.4-39.1c-7.2-9.5-11.2-22.4-17.3-32.2c-3.8-6.2-6.5-7.4-7.7-9.4C159.9,276.9,160.6,276.5,152.8,278.3z"/>
		<path class="st2" d="M305.5,288.3c-10.5,8.4-12.2,44.4-13.7,59.9c0.9,9.5-1.2,16.6,0.6,26.8c1.3,7.6,8,12.5,16.6,13.7h9.1
			c8.1-1.1,16.8-5,24-12.2c13.1-13.3,10.9-12.9,27.3-19c7.1-2.6,15-5.2,18.4-11.6c5.4-10.1-3.6-19.3-10.5-23.9
			c-15.2-10.1-11.5-7.1-11.2-18.1c0.1-3.3,2.2-14-4.6-17.4c-2.8,5.5,1.4,31.9-27.4,32.7C310.1,319.8,306,309.3,305.5,288.3z"/>
		<path class="st2" d="M235.4,124.9l-7.7,2.2l-9.8,4.6c-1.2,1.4-2.5,2.2-4.5,2.6c-0.1,0.1-0.3,0.1-0.3,0.3l-3.1,2.7
			c-19.4,15.9-1.4,26.4-0.1,30l-0.4,0.5l0.4-0.5c2.4,0.9,7.3,5.6,14.8,9.2c12.7,6.1,19.3,2.1,35.3-4.8c3.7-1.6,14-7.6,15.9-8
			l0.6-0.8c0.1-0.1,0.2-0.3,0.3-0.4c0.1-0.1,0.2-0.2,0.4-0.3c1.6-1.5,2.9-2,5.2-4.6c2.1-2.6,3.1-5.2,2-9.4
			c-2.3-8.7-8.5-10.3-11.6-14.1c-2.1-0.4-3.1-0.9-4.5-2.3c-2.2-0.5-8.8-3.3-10.3-4.2l-7.3-2.1C243.7,124.3,243,123.9,235.4,124.9z"
			/>
		<path class="st1" d="M219.3,359.8c0.1,4.6,0.5,8.8-0.6,13.3c-1.1,4.3-2.7,6-4,9c5.9-3.4,24.9-7.2,35.2-7.2c14.1,0.1,28.3,0,42.5,0
			c-1.8-10.1,0.3-17.3-0.6-26.8c-4.6,1.5-9.7,4.5-15.3,6.4c-5.6,1.8-11.3,3.2-17.3,4.2C245.3,361.1,233.6,360.7,219.3,359.8z"/>
		<path class="st0" d="M213.4,134.3c2-0.4,3.3-1.3,4.5-2.6c-2.1-6.1-3.4-17.3,2.3-20.6c3.3-1.9,5.9,1.6,6.9,4.3
			c1.3,3.5,1.5,7.9,0.6,11.7l7.7-2.2c1.1-7.7,1-14.5-2.3-20.7c-2.7-4.9-8.9-9.9-16.4-5.8C206,104.2,205.8,123.7,213.4,134.3z"/>
		<path class="st0" d="M250.7,125.6l7.3,2.1c-3.8-26.2,18.7-19.8,10.3,4.2c1.3,1.3,2.4,1.8,4.5,2.3c3.5-5.8,5.7-10.2,5-19.2
			c-0.6-7.3-3.5-13.6-8.3-16.4c-7.3-4.4-14,1-16.4,5.7C249.5,110.6,249.5,117.8,250.7,125.6z"/>
		<path class="st1" d="M258,127.7c1.5,0.9,8.1,3.7,10.3,4.2C276.7,107.9,254.2,101.5,258,127.7z"/>
		<path class="st1" d="M217.9,131.7l9.8-4.6c0.9-3.8,0.7-8.2-0.6-11.7c-1-2.7-3.5-6.3-6.9-4.3C214.5,114.4,215.8,125.7,217.9,131.7z
			"/>
	</g>
	<g>
		<path d="M110.6,403.4h5.4v37h17.7v4.5h-23.1V403.4z"/>
		<path d="M145.5,406.7c0.1,1.8-1.3,3.3-3.5,3.3c-1.9,0-3.3-1.5-3.3-3.3c0-1.9,1.4-3.4,3.4-3.4C144.2,403.3,145.5,404.8,145.5,406.7
			z M139.5,444.9v-29.8h5.4v29.8H139.5z"/>
		<path d="M153.9,423.2c0-3.1-0.1-5.6-0.2-8.1h4.8l0.3,4.9h0.1c1.5-2.8,4.9-5.6,9.9-5.6c4.1,0,10.5,2.5,10.5,12.7v17.8h-5.4v-17.2
			c0-4.8-1.8-8.8-6.9-8.8c-3.6,0-6.3,2.5-7.3,5.5c-0.2,0.7-0.4,1.6-0.4,2.5v17.9h-5.4V423.2z"/>
		<path d="M213,436.8c0,3.1,0.1,5.8,0.2,8.1h-4.8l-0.3-4.9h-0.1c-1.4,2.4-4.6,5.5-9.9,5.5c-4.7,0-10.3-2.6-10.3-13.1v-17.4h5.4v16.5
			c0,5.7,1.7,9.5,6.7,9.5c3.6,0,6.2-2.5,7.1-4.9c0.3-0.8,0.5-1.8,0.5-2.8v-18.3h5.4V436.8z"/>
		<path d="M224.6,415.1l4.3,6.4c1.1,1.7,2,3.2,3,4.9h0.2c1-1.8,2-3.3,3-4.9l4.2-6.3h5.9l-10.2,14.4l10.5,15.4h-6.2l-4.4-6.7
			c-1.2-1.7-2.2-3.4-3.2-5.2h-0.1c-1,1.8-2,3.4-3.1,5.2l-4.3,6.7h-6l10.6-15.2l-10.1-14.6H224.6z"/>
		<path d="M263.8,404c3.3-0.5,7.1-0.9,11.4-0.9c7.7,0,13.2,1.8,16.8,5.2c3.7,3.4,5.9,8.2,5.9,14.9c0,6.8-2.1,12.3-6,16.1
			c-3.9,3.9-10.3,6-18.4,6c-3.8,0-7-0.2-9.7-0.5V404z M269.2,440.7c1.4,0.2,3.3,0.3,5.4,0.3c11.5,0,17.7-6.4,17.7-17.6
			c0.1-9.8-5.5-16-16.8-16c-2.8,0-4.9,0.2-6.3,0.6V440.7z"/>
		<path d="M304.8,404c2.3-0.5,6-0.9,9.8-0.9c5.4,0,8.8,0.9,11.4,3c2.2,1.6,3.4,4.1,3.4,7.3c0,4-2.6,7.5-7,9.1v0.1
			c3.9,1,8.6,4.3,8.6,10.4c0,3.6-1.4,6.3-3.5,8.3c-2.9,2.6-7.6,3.9-14.4,3.9c-3.7,0-6.5-0.2-8.3-0.5V404z M310.2,421h4.9
			c5.7,0,9-3,9-7c0-4.9-3.7-6.8-9.1-6.8c-2.5,0-3.9,0.2-4.7,0.4V421z M310.2,440.9c1,0.2,2.6,0.2,4.5,0.2c5.5,0,10.7-2,10.7-8.1
			c0-5.7-4.9-8-10.7-8h-4.4V440.9z"/>
		<path d="M363,436.8c0,3.1,0.1,5.8,0.2,8.1h-4.8l-0.3-4.9H358c-1.4,2.4-4.6,5.5-9.9,5.5c-4.7,0-10.3-2.6-10.3-13.1v-17.4h5.4v16.5
			c0,5.7,1.7,9.5,6.7,9.5c3.6,0,6.2-2.5,7.1-4.9c0.3-0.8,0.5-1.8,0.5-2.8v-18.3h5.4V436.8z"/>
		<path d="M371.2,439.4c1.6,1,4.4,2.2,7.1,2.2c3.9,0,5.8-2,5.8-4.4c0-2.6-1.5-4-5.5-5.5c-5.4-1.9-7.9-4.9-7.9-8.4
			c0-4.8,3.9-8.7,10.3-8.7c3,0,5.7,0.9,7.3,1.8l-1.4,3.9c-1.2-0.7-3.3-1.7-6.1-1.7c-3.2,0-5,1.8-5,4.1c0,2.5,1.8,3.6,5.7,5.1
			c5.2,2,7.8,4.6,7.8,9c0,5.2-4.1,8.9-11.2,8.9c-3.3,0-6.3-0.8-8.4-2L371.2,439.4z"/>
	</g>
</g>
</svg>
