<?xml version="1.0" encoding="utf-8"?>
<!-- Generator: Adobe Illustrator 26.0.0, SVG Export Plug-In . SVG Version: 6.00 Build 0)  -->
<svg version="1.1" id="Layer_1" xmlns="http://www.w3.org/2000/svg" xmlns:xlink="http://www.w3.org/1999/xlink" x="0px" y="0px"
	 viewBox="0 0 500 500" style="enable-background:new 0 0 500 500;" xml:space="preserve">
<style type="text/css">
	.st0{font-family:'ArialMT';}
	.st1{font-size:22.3166px;}
</style>
<g id="layer1_00000176727418546140721210000016392552520967072693_" transform="translate(-171.1264,-231.669)">
	<g id="g3963" transform="translate(925.8326,120.8762)">
		<g id="g3771" transform="matrix(2.914897,0,0,2.914897,-717.5904,128.5015)">
			<g id="g3773">
				<path id="path3775" d="M98.5,12.7c-21.2,0-25.2,30.2-13.3,30.2C97.2,42.9,119.7,12.7,98.5,12.7z"/>
				<path id="path3777" d="M63.3,39.2c6.4,0.4,13.3-24.2,1.4-22.7C52.7,18.1,56.9,38.8,63.3,39.2z"/>
				<path id="path3779" d="M34.2,54.5c4.5-2,0.6-21.4-7.1-16.1C19.4,43.7,29.7,56.5,34.2,54.5z"/>
				<path id="path3781" d="M46.9,44.3c5.4-1.1,5.7-23.2-3.9-19.2C33.4,29.1,41.5,45.4,46.9,44.3L46.9,44.3z"/>
				<path id="path3783" d="M75,93.7c1,7.3-5.3,10.9-11.5,6.2C43.8,84.9,96,77.5,92.6,57c-2.9-17-54.9-11.7-60.8,14.8
					c-4,17.9,16.5,42.8,37.9,42.8c10.5,0,22.7-9.5,25-21.6C96.4,83.9,74.2,87.6,75,93.7L75,93.7z"/>
			</g>
		</g>
		<g id="g3956" transform="matrix(1.098291,0,0,1.098291,41.06056,-50.07504)">
			<path id="path3787" d="M-518.7,495.4c-7,0.2-12.5,2.7-16.5,7.5c-4.2,5-6.3,11.9-6.3,20.7c0,8.8,2.1,15.7,6.3,20.7
				c4.2,5,10,7.5,17.4,7.5c7.4,0,13.2-2.5,17.4-7.5c4.2-5,6.3-11.9,6.3-20.7c0-8.8-2.1-15.7-6.3-20.7c-4.2-5-10-7.5-17.4-7.5
				C-518.1,495.4-518.4,495.4-518.7,495.4z M-518.1,505.6c0.1,0,0.2,0,0.3,0c3.6,0,6.5,1.6,8.5,4.7c2,3.2,3,7.6,3,13.3
				c0,5.7-1,10.1-3,13.3c-2,3.2-4.8,4.7-8.5,4.7c-3.6,0-6.4-1.6-8.4-4.7s-3-7.6-3-13.3c0-5.7,1-10.2,3-13.3
				C-524.3,507.2-521.6,505.7-518.1,505.6z"/>
			<path id="path3789" d="M-597.4,546.7c-6.1,5.2-15.3,5.1-19.1,5.1c-7.7,0-13.7-2.5-18.2-7.6c-4.5-5.1-6.7-11.9-6.7-20.6
				c0-8.8,2.3-15.7,6.8-20.7c4.6-5,10.8-7.5,18.7-7.5c3.1,0,6,0.3,8.8,1c2.8,0.7,5.5,1.7,8,3l-3.2,9.4c-1.4-0.8-3-1.5-4.5-2
				c-2.5-0.8-5.1-1.3-7.6-1.3c-4.7,0-8.4,1.6-10.9,4.7c-2.5,3.1-3.8,7.6-3.8,13.4c0,5.8,1.2,10.2,3.7,13.3c2.5,3.1,6.2,4.7,10.5,4.7
				c4.4,0,7.1-1.1,8.6-2.3V530h-9.6v-9.4h18.5"/>
			<path id="path3793" d="M-486.3,496.4h15.1l10.5,33.9l10.5-33.9h12.8l5.8,54.4h-11.2l-3.5-34l-10.6,34.2h-7.5l-10.6-35.3
				l-3.5,35.1h-11.3l5.8-54.4"/>
			<path id="path3795" d="M-423.6,496.4h32V507h-20.2v11.3h15.5v9.4h-15.5v12.5h20.8v10.6h-32.7V496.4"/>
			<path id="path3791" d="M-589.3,496.4h7.5l23.7,32.7v-32.7h10.1v54.4h-7.5l-23.7-32.7v32.7h-10.1V496.4"/>
		</g>
		<text transform="matrix(1 0 0 1 -378.5574 509.9361)" class="st0 st1">TM</text>
	</g>
</g>
</svg>
