<?xml version="1.0" encoding="utf-8"?>
<!-- Generator: Adobe Illustrator 26.0.0, SVG Export Plug-In . SVG Version: 6.00 Build 0)  -->
<svg version="1.1" id="Layer_1" xmlns="http://www.w3.org/2000/svg" xmlns:xlink="http://www.w3.org/1999/xlink" x="0px" y="0px"
	 viewBox="0 0 500 500" style="enable-background:new 0 0 500 500;" xml:space="preserve">
<style type="text/css">
	.st0{fill:#C02428;}
	.st1{fill:#525357;}
</style>
<g>
	<path class="st0" d="M368,231h-11.9v5.9c-4.1-4.7-10-7.2-16.2-7.2c-14,0-24.3,11.5-24.3,27.8c0,15.6,10.3,26.8,24,26.8
		c6.6,0,11.5-2.2,16.2-7.5v7.2c0,10.9-4.4,16.2-13.1,16.2c-4.7,0-9.4-2.2-11.5-5.9c-1.3-2.2-1.6-4.1-1.9-8.4h-11.5
		c0,15.6,9.7,25.3,25,25.3c8.7,0,16.5-3.4,20.9-10c3.4-5,4.4-9.4,4.4-19.7L368,231z M342.1,240c8.7,0,14.4,6.9,14.4,16.5
		c0,10-5.9,16.9-14.4,16.9c-8.7,0-14.4-6.6-14.4-16.5C327.7,246.9,333.3,240,342.1,240z"/>
	<path class="st1" d="M137.6,231v51.8h11.9v-26.5c0-10.9,2.8-15.6,9.7-15.6c5.3,0,7.8,4.4,7.8,13.7v28.7h11.9v-26.5
		c0-10.9,2.8-15.6,9.7-15.6c5.6,0,7.8,3.7,7.8,13.7v28.7h11.9v-32.8c0-14-5.9-21.2-17.5-21.2c-6.2,0-11.5,2.8-15.3,7.5
		c-3.1-5-8.1-7.5-13.7-7.5c-5,0-7.8,1.2-12.2,6.2V231H137.6z M252.8,231v5.9c-5.3-5.3-9.7-7.5-16.2-7.5c-14,0-24.3,11.5-24.3,26.8
		c0,16.2,10.3,27.8,24.7,27.8c6.2,0,10.3-1.9,15.9-6.9v5.3h11.9V231L252.8,231z M238.8,240c8.7,0,14.7,6.9,14.7,16.5
		c0,10-5.9,16.9-14.7,16.9c-8.4,0-14.4-6.9-14.4-16.9C224.4,247.2,230.6,240,238.8,240z M286.2,231h-11.9v51.8h11.9L286.2,231z
		 M280.3,201.9c-4.3,0-7.8,3.4-7.8,7.7c0,0.1,0,0.1,0,0.2c0,4.4,3.4,7.8,7.8,7.8s7.8-3.4,7.8-7.8c0-4.3-3.4-7.8-7.7-7.8
		C280.4,201.9,280.3,201.9,280.3,201.9z M297.1,188.8H309v93.6h-11.9V188.8z"/>
	<path class="st0" d="M387,231h-11.9v30c0,8.1,1.6,12.5,5.3,16.9c4.1,4.4,10,6.6,16.5,6.6c6.9,0,12.5-2.2,16.9-6.6
		c4.1-4.4,5.3-8.7,5.3-16.9v-30h-11.9v29.7c0,8.7-3.1,12.8-10.3,12.8c-6.9,0-10-4.1-10-12.8V231z M427.3,231v51.8h11.9v-25
		c0-12.8,2.8-17.5,10.9-17.5c7.5,0,9.7,3.4,9.7,13.4v29h11.9v-31.8c0-14.4-5.9-21.5-18.7-21.5c-5.6,0-9.4,1.6-14,6.2V231H427.3z
		 M76.8,235c-10,0-18.4,8.1-18.4,18.4c0,10.3,8.1,18.4,18.4,18.4c10,0,18.4-8.1,18.4-18.4C95.2,243.1,86.8,235,76.8,235L76.8,235z
		 M48.1,253.1c0-15.6,12.8-28.4,28.4-28.4s28.4,12.8,28.4,28.4c0,0.9,0,2.2-0.3,3.1c-0.3,2.8,1.9,5,4.7,5c4.7,0,5.3-5.9,5.3-8.1
		c0-20.9-17.2-38.1-38.1-38.1c-20.9,0-38.1,17.2-38.1,38.1c0,20.9,17.2,38.1,38.1,38.1c11.2,0,21.2-4.7,28.1-12.5l7.8,6.6
		c-8.4,10-21.5,16.2-35.6,16.2c-26.6,0.1-48.3-21.4-48.4-48.1c0-0.1,0-0.2,0-0.3c0-26.5,21.5-48.4,48.4-48.4
		c26.5,0,48.1,21.8,48.1,48.4c0,10.6-5,19.4-15.3,19.4c-4.4,0-7.2-2.2-8.7-4.4c-5,8.1-14,13.4-24.3,13.4
		C60.8,281.5,48.1,269,48.1,253.1L48.1,253.1z M76.8,244.7c4.6,0,8.4,3.7,8.4,8.4c0,0,0,0,0,0.1c0,4.6-3.7,8.4-8.4,8.4
		c0,0,0,0-0.1,0c-4.6,0-8.4-3.7-8.4-8.4c0,0,0,0,0-0.1C68.3,248.5,72.1,244.7,76.8,244.7C76.7,244.7,76.7,244.7,76.8,244.7z"/>
</g>
</svg>
