<?xml version="1.0" encoding="utf-8"?>
<!-- Generator: Adobe Illustrator 26.0.0, SVG Export Plug-In . SVG Version: 6.00 Build 0)  -->
<svg version="1.1" id="Layer_1" xmlns="http://www.w3.org/2000/svg" xmlns:xlink="http://www.w3.org/1999/xlink" x="0px" y="0px"
	 viewBox="0 0 500 500" style="enable-background:new 0 0 500 500;" xml:space="preserve">
<style type="text/css">
	.st0{fill-rule:evenodd;clip-rule:evenodd;fill:#69B4D7;}
	.st1{fill-rule:evenodd;clip-rule:evenodd;fill:#4D4D4D;}
</style>
<g>
	<path class="st0" d="M232,201.2c-0.2-0.8-0.2-3.7-0.1-4.6c0.2-2,0.6-1.9,1-3.6c0.9-3.5,1.5-4.8,3.9-7.3l2.2-1.9
		c2.1-1.2,1.2-1.3,3.1-2c0.6-0.2,1.7-0.5,1.9-0.5c2.8-1.2,4.7-3.2,10.8-0.7c4.3,1.8,5.6,0.9,10.6,7.5c1.3,1.7,1,0.5,1.5,3.1
		c1,4.5,3.1,6.6,0.5,11.5c-0.8,1.5-0.3,2-1,3.5l-4,5.1c-1.2,1.3-3.9,3.1-5.6,3.6l-4.1,1.4c-3.6,0.7-5.2-0.2-7.2-0.8
		c-1.2-0.4-2.4-0.4-3.5-0.9l-5.3-4c-1.2-1.2-3.1-3.8-3.6-5.5C232.8,203.3,232.3,202.2,232,201.2L232,201.2z M121.6,199.7
		c0,7.3-0.1,14.6,2.2,21.4c0.6,1.9,0.5,5,1,7.2l3.8,11.7c0.9,4.4,2.7,7.6,4.5,11.6c0.6,1.3,0.8,1,1.4,2c1.4,2.9,1.9,5.1,4,8.1
		c2.6,3.7,4.3,7.7,8.6,13.1l4.4,5.7c2.5,2.7,5.1,5.6,7.8,8.3l17.1,14.4l9.6,6.1c1.5,0.8,1.4,1.1,2.4,1.6l8.2,3.8
		c2.9,1.7,9.6,4,13,5.1l7.2,2.2c2.2,0.3,1.4,0.3,3,1c3.4,1.5,8.5,0.5,12.1,2.2c4.1,1.9,31.2,0.6,37,0l4.3-1.1
		c2.2-0.5,4.8-0.3,6.7-0.9c2.2-0.7,2.4-1.2,5.6-1.5c3.1-0.3,7.4-3,10.2-3.8l19.7-9c1.2-0.7,1-0.8,2.1-1.5c4.2-2.5,10.1-5.2,12.2-9.9
		c2.4-5.2,2.4-6.5,2.2-12.5c-0.1-3.3-1.4-5.6-3.6-8c-2.5-2.8-4.9-4.9-8.9-6.1c-7.7-2.3-14,0.2-19.8,4.5c-1.1,0.8,0.3-0.1-1.3,0.7
		c-1.2,0.7-0.3,0.2-1.2,0.7l-4.8,2.8c-1.5,0.6-1.2,0.3-2.5,1.1c-1.6,1-0.7,0.6-2.7,1.3l-5.8,2.3c-1.8,0.6-2.9,1.5-5,1.9
		c-6.4,1.2-5,1.8-13.3,2.1c-4.8,0.2-0.8,1.4-13.5,1.4c-6.7,0-10.9-1.3-17.1-1.7c-2.3-0.1-1.6,0.1-3.4-0.7c-3.2-1.4-2.6-0.8-6-1.5
		c-1.9-0.4-1.4-1.2-5.5-2c-1.5-0.3-1.1-0.4-2.4-1.1c-1-0.6-1.9-0.7-2.9-1.1c-1.7-0.7-1.1-0.8-2.2-1.4c-0.9-0.5-1.8-0.4-3-1
		l-17.5-12.7c-4.2-3.9-8.4-7.8-11.8-12.4l-2.5-3.5c-2.7-3.8-5.1-7.6-6.8-11.9c-0.9-2.2-3.1-5.1-3.8-7.7c-1-4-1.1-2.8-2-5.5
		c-0.8-2.4-0.3-3.5-1.5-6c-1.1-2.5-0.7-4-0.9-6.8c-0.2-2.3-1-4.2-1.3-6.1l-0.5-14.6c0.1-2.9,1-3.9,1.3-6.1c0.3-2.4,0.2-4.7,0.6-7
		c0.5-2.6,1.2-2.4,1.7-5.9c0.4-2.7,1.7-6.1,2.6-8.5c0.6-1.5,0.9-1.3,1.3-2.5c0.4-1.2,0.3-1.9,0.8-2.9l7.1-11.9
		c3.2-4.1,6.3-8.5,10.1-12.5c3.2-3.3,9.8-9.9,13.9-12.2c1.6-0.9,1.2-0.9,2.5-1.6c2.3-1.3,4.5-3.1,6.9-4.2c1.6-0.7,1.3-0.2,2.8-1.2
		c2.9-1.9,7.5-2.8,10.6-4.5l12.2-3c8.3-0.4,7.8-1.7,21.1-1.6c3.6,0,5.6,1.3,9.5,1.4c5.1,0.2,5.8,0.6,9.9,1.9
		c1.5,0.5,3.1,0.3,4.7,0.8l7.9,3.2c2.2,1,2.2,0.5,4.2,1.9c1.8,1.2,2.4,0.6,4.1,1.7l3.3,2.1c13.2,9.4,20,14.7,29.1,28.1
		c1.3,1.9,0.4,1.9,1.9,3.6c2.1,2.5,2.9,5.7,4,7.1c2,2.7,0.6,1.3,1.8,4.4c0.7,1.9,1,0.6,1.8,3.7c0.6,2.4,1.1,2.1,1.7,3.8
		c0.5,1.6,0.4,3,0.9,4.6c0.6,1.9,1.3,2.3,1.5,4.4c0.5,4.3,0.5,6.4,1.4,10.4c0.7,3.2,1.3,9.8-0.2,13.2c-1.9,4-3.1,7.8-7,10.2
		c-1.4,0.8-1.8,1.6-3.3,2.2c-3.3,1.3-7.6,3-11.4,1.6c-0.7-0.2-1-0.7-1.7-1.1c-1-0.5-1.3-0.3-2.4-0.7c-3.8-1.5-6.1-4.7-8.3-8.1
		c-3.3-5.2-1.7-14.4-3.2-19.8c-0.4-1.3-1.1-2.5-1.4-4.8l-1.4-4.1c-0.8-1.6-0.7-2.5-1.6-4c-5.4-8.5-7.2-12-15.2-18.9
		c-2.5-2.1-5.4-3.8-8.4-5.1c-4.4-2-4.9-3-10.3-4.2c-7-1.5-1.6-2.2-15.4-2.3c-3.6,0-6.2,0.2-9.6,0.4c-3,0.2-3.2,1.1-5.8,1.8l-3.9,1
		c-5.1,2.2-10.3,4.3-14.6,8l-5.3,4.7c-4.4,4.2-7.4,9-10.6,14.4c-0.8,1.4-0.6,2.1-1.4,3.6c-1,1.9-0.8,1.2-1.3,3.9
		c-0.7,3.6-1.7,6.2-2.1,10.2c-0.5,4.2-0.2,8.7,0.2,12.8l0.2,4.2c0.3,2.1,0.7,2,1.3,3.7c0.5,1.6,0.4,2.5,0.9,4.1l4.9,10.1
		c3.8,5,6.7,9.9,11.9,13.7c2.7,2,5.6,4.6,9.1,6c0.8,0.3,1,0.4,1.6,0.8c3.1,2,7.1,2.7,9.9,3.7c0.1,0,0.2,0.1,0.4,0.1
		c3.8,1.4,2.7,1.4,6.7,1.6c4.8,0.2,15,1,19.2-0.7c2.1-0.8,0.6-0.9,3.9-1.3c4.6-0.5,12.9-5.8,16.5-8.4c6.2-4.6,5.9-1.8,12.6,2.6
		l9.8,5.2c1.2,0.5,2.7,0.4,4.2,0.8c4.4,1.2,0,1.4,8.2,1.8c3.3,0.1,6.3,0.4,10,0.4c7.9,0,6.8-0.8,11.5-2.3c1.4-0.5,2.9-0.4,4.1-1
		c1.6-0.7,0.7-0.7,3.2-1.4c0.2,0,0.6-0.1,0.8-0.2l1.3-0.6c0.1-0.1,0.2-0.2,0.3-0.2l0.9-0.6c0.1-0.1,0.2-0.1,0.3-0.2
		c0.1-0.1,0.2-0.1,0.3-0.2c0.1-0.1,0.2-0.1,0.3-0.2c0.1-0.1,0.2-0.1,0.3-0.2l3.5-2.1c4.2-2.7,8.1-6.5,11.4-10.2c1.7-2,4.9-6.2,6-8.6
		c0.2-0.5,0.4-1.1,0.8-1.7c1.6-2.7,2.9-5.4,3.5-8.7c0.6-3.3,1.6-3.5,2-7.3c0.9-7.5,1.2-24.3-1.3-32c-0.7-2.2-0.7-5.5-1.4-8
		c-0.5-1.6-1.1-1.7-1.4-3.5c-0.6-3.7-0.1-2.9-1.6-6.3l-1.9-5c-0.7-1.5-0.5-2.5-1.1-4l-4.6-9.4c-1-1.5-0.9-2.2-1.6-3.5
		c-0.5-1-0.4-0.3-1-1.5c-3.1-5.3-7.2-10.7-10.8-15.7c-5.4-7.5-12.4-13.4-19.1-19.6c-3.3-3.1-7.6-5.9-11.3-8.3l-15.5-8.6
		c-1.6-0.9-2.1-0.8-3.5-1.5c-1.6-0.8-0.9-0.9-3.4-1.6c-3.2-0.9-2.9-1.4-7.1-2.5c-1.5-0.4-2-1.1-3.5-1.4l-1.3-0.2
		c-3.2-0.5-4.8-1.5-10-2.5c-4.7-0.9-8.4-1.8-13.4-2c-5.7-0.2-12.9-1-18.5-0.3c-5.2,0.6-9.2-0.3-13.3,1.2c-3.9,1.3-8.1,0.9-11.8,2.7
		c-2.2,1-5.6,0.6-7.7,1.9c-2.8,1.7-7.7,2.2-11,3.6l-16,8.1c-1.5,0.9-0.9,0.9-2.8,1.8c-4.6,2.2-13,9.3-17,13.1l-6.1,5.9
		c-0.1,0.1-0.2,0.2-0.2,0.3l-3,3.1c-0.1,0.1-0.1,0.2-0.2,0.3l-3.2,3.5c-1,1.2-0.2,0.1-1.2,1.2c-2,2-4.4,6.1-6.4,8.2l-9,15.2
		c-0.8,1.7-0.3,1.8-1.5,3.5c-2.4,3.4-4.4,9.9-5.4,13.8c-0.4,1.8-0.9,1.1-1.5,3.4c-0.3,1.2-0.5,2.7-1,4c-1.2,3-1.2,4.4-1.8,7.8
		c-0.5,3.2-1.4,4.8-1.8,8.2C121.8,186.8,121.6,193.7,121.6,199.7z"/>
	<path class="st1" d="M177.4,398.3c0-1.1,0-2.1-0.1-3c-0.1-0.9-0.2-1.7-0.4-2.4c-0.4-1.5-1.1-2.7-2.2-3.7c-1.1-0.9-2.7-1.4-4.7-1.4
		c-1.1,0-2.2,0.2-3.3,0.5c-1.1,0.3-2.3,0.8-3.4,1.3c-1.1,0.6-2.2,1.3-3.2,2.1c-1,0.8-1.9,1.7-2.8,2.7v34.5h-12.3v-30.5
		c0-1.1,0-2.1-0.1-3c-0.1-0.9-0.2-1.7-0.4-2.4c-0.4-1.5-1.1-2.7-2.2-3.7c-1.1-0.9-2.6-1.4-4.7-1.4c-1.1,0-2.2,0.2-3.3,0.5
		c-1.1,0.3-2.3,0.8-3.4,1.3c-1.1,0.6-2.2,1.3-3.2,2.1c-1,0.8-1.9,1.7-2.8,2.7v34.5h-12.3v-50H123l1.1,6.9h0.2c0.7-1,1.6-2,2.7-3
		c1.1-1,2.4-1.9,3.8-2.6c1.4-0.8,2.9-1.4,4.6-1.8c1.7-0.5,3.4-0.7,5.3-0.7c3.3,0,6.3,0.7,8.9,2.2c2.6,1.5,4.6,3.7,6,6.8h0.2
		c1-1.3,2-2.6,3.2-3.7c1.2-1.1,2.5-2,4-2.8c1.4-0.8,3-1.4,4.7-1.9c1.7-0.4,3.5-0.7,5.4-0.7c3.6,0,6.6,0.8,9,2.2
		c2.4,1.5,4.3,3.5,5.6,6c0.3,0.7,0.6,1.4,0.9,2.1c0.2,0.8,0.4,1.7,0.6,2.6c0.2,1,0.3,2,0.3,3.2c0.1,1.2,0.1,2.5,0.1,4v31h-12.3
		V398.3L177.4,398.3z M230.3,423.5h-0.2c-0.7,0.7-1.5,1.5-2.5,2.2c-1,0.8-2.1,1.5-3.3,2.2c-1.2,0.7-2.6,1.2-4.1,1.6
		c-1.5,0.4-3.2,0.6-4.9,0.6c-2.4,0-4.6-0.4-6.7-1.1c-2.1-0.7-3.8-1.8-5.3-3.2c-1.5-1.4-2.6-3.1-3.5-5.1c-0.8-2-1.3-4.2-1.3-6.6
		c0-2.7,0.5-5.1,1.5-7.2c1-2.1,2.4-3.9,4.1-5.4c1.8-1.5,3.9-2.6,6.3-3.4c2.4-0.8,5.1-1.2,8.1-1.2c2.2,0,4.2,0.1,6,0.4
		c1.8,0.3,3.4,0.6,4.8,1v-2c0-1.2-0.2-2.3-0.6-3.4c-0.4-1.1-1-2-1.9-2.9c-0.9-0.8-2-1.5-3.4-2c-1.4-0.5-3.1-0.7-5.2-0.7
		c-2.5,0-5,0.3-7.4,0.8c-2.5,0.5-5.2,1.4-8.1,2.5v-9.6c2.5-1.1,5.2-1.9,8-2.5c2.8-0.6,5.8-0.9,8.9-0.9c3.6,0,6.9,0.4,9.6,1.3
		c2.7,0.9,5,2.1,6.9,3.7c1.9,1.6,3.2,3.4,4.2,5.6c0.9,2.1,1.4,4.5,1.4,7v18.9c0,3.3,0,6.2,0.1,8.5c0.1,2.4,0.1,4.5,0.2,6.3h-11.1
		L230.3,423.5L230.3,423.5z M229.3,407.5c-1.2-0.3-2.5-0.5-4-0.8c-1.5-0.2-3-0.3-4.6-0.3c-3,0-5.4,0.6-7.1,1.8
		c-1.7,1.2-2.6,3-2.6,5.5c0,1.1,0.2,2.1,0.6,3c0.4,0.8,0.9,1.6,1.6,2.1c0.7,0.5,1.5,1,2.3,1.3c0.9,0.3,1.9,0.4,2.8,0.4
		c1.2,0,2.4-0.2,3.5-0.5c1.1-0.3,2.1-0.7,3-1.2c0.9-0.5,1.8-1.1,2.5-1.7c0.7-0.6,1.4-1.2,1.9-1.8V407.5L229.3,407.5z M253.2,378.8
		h12.3v50h-12.3V378.8L253.2,378.8z M252.9,354h12.9v13.2h-12.9V354L252.9,354z M277.5,428.8V354h12.3v74.8H277.5L277.5,428.8z
		 M332.1,428.7c-1.4,0.4-3,0.7-4.9,1c-1.9,0.2-3.7,0.4-5.4,0.4c-4.2,0-7.6-0.7-10.3-2c-2.7-1.4-4.6-3.3-5.7-5.9
		c-0.8-1.8-1.2-4.3-1.2-7.4v-25.9h-9.3v-10h9.3v-14h12.3v14h14.5v10h-14.5v24.3c0,1.9,0.3,3.3,0.9,4.3c1,1.6,3.1,2.4,6.1,2.4
		c1.4,0,2.8-0.1,4.2-0.3c1.4-0.2,2.7-0.5,3.9-0.8V428.7L332.1,428.7z M374.5,403.8c0-2.6-0.3-5-0.9-7c-0.6-2-1.5-3.7-2.6-5.1
		c-1.1-1.4-2.4-2.4-4-3.1c-1.6-0.7-3.2-1-5.1-1c-1.8,0-3.4,0.3-5,1c-1.5,0.7-2.9,1.7-3.9,3.1c-1.1,1.4-2,3.1-2.6,5.1
		c-0.6,2-0.9,4.4-0.9,7c0,2.6,0.3,5,0.9,7c0.6,2,1.5,3.7,2.6,5.1c1.1,1.4,2.5,2.4,4,3.1c1.5,0.7,3.2,1.1,5,1.1s3.5-0.4,5-1.1
		c1.5-0.7,2.8-1.7,3.9-3.1c1.1-1.4,2-3.1,2.6-5.1C374.2,408.8,374.5,406.4,374.5,403.8L374.5,403.8z M387.2,403.8
		c0,3.9-0.6,7.5-1.8,10.7c-1.2,3.2-2.8,6-5,8.3c-2.2,2.3-4.8,4.1-7.9,5.3c-3.1,1.3-6.6,1.9-10.4,1.9c-3.9,0-7.5-0.6-10.6-1.9
		c-3.1-1.3-5.8-3-7.9-5.3c-2.2-2.3-3.8-5.1-5-8.3c-1.1-3.2-1.7-6.8-1.7-10.7c0-3.9,0.6-7.5,1.8-10.7c1.2-3.2,2.8-6,5-8.3
		c2.2-2.3,4.8-4.1,7.9-5.3s6.6-1.9,10.4-1.9c3.9,0,7.5,0.6,10.6,1.9c3.1,1.3,5.8,3,7.9,5.3c2.2,2.3,3.8,5.1,5,8.3
		C386.6,396.3,387.2,399.8,387.2,403.8z"/>
</g>
</svg>
