<?xml version="1.0" encoding="utf-8"?>
<!-- Generator: Adobe Illustrator 26.0.0, SVG Export Plug-In . SVG Version: 6.00 Build 0)  -->
<svg version="1.1" id="Layer_1" xmlns="http://www.w3.org/2000/svg" xmlns:xlink="http://www.w3.org/1999/xlink" x="0px" y="0px"
	 viewBox="0 0 500 500" style="enable-background:new 0 0 500 500;" xml:space="preserve">
<style type="text/css">
	.st0{fill-rule:evenodd;clip-rule:evenodd;fill:#8A8AC1;}
	.st1{fill:#4D4D4D;}
</style>
<g>
	<path class="st0" d="M232,204.1c-0.2-0.8-0.2-3.7-0.1-4.6c0.2-2,0.6-1.9,1-3.6c0.9-3.5,1.5-4.8,3.9-7.3l2.2-1.9
		c2.1-1.2,1.2-1.3,3.1-2c0.6-0.2,1.7-0.5,1.9-0.5c2.8-1.2,4.7-3.2,10.8-0.7c4.3,1.8,5.6,0.9,10.6,7.5c1.3,1.7,1,0.5,1.5,3.1
		c1,4.5,3.1,6.6,0.5,11.5c-0.8,1.5-0.3,2-1,3.5l-4,5.1c-1.2,1.3-3.9,3.1-5.6,3.6l-4.1,1.4c-3.6,0.7-5.2-0.2-7.2-0.8
		c-1.2-0.4-2.4-0.4-3.5-0.9l-5.3-4c-1.2-1.2-3.1-3.8-3.6-5.5C232.8,206.1,232.3,205,232,204.1L232,204.1z M121.6,202.5
		c0,7.3-0.1,14.6,2.2,21.4c0.6,1.9,0.5,5,1,7.2l3.8,11.7c0.9,4.4,2.7,7.6,4.5,11.6c0.6,1.3,0.8,1,1.4,2c1.4,2.9,1.9,5.1,4,8.1
		c2.6,3.7,4.3,7.7,8.6,13.1l4.4,5.7c2.5,2.7,5.1,5.6,7.8,8.3l17.1,14.4l9.6,6.1c1.5,0.8,1.4,1.1,2.4,1.6l8.2,3.8
		c2.9,1.7,9.6,4,13,5.1l7.2,2.2c2.2,0.3,1.4,0.3,3,1c3.4,1.5,8.5,0.5,12.1,2.2c4.1,1.9,31.2,0.6,37,0l4.3-1.1
		c2.2-0.5,4.8-0.3,6.7-0.9c2.2-0.7,2.4-1.2,5.6-1.5c3.1-0.3,7.4-3,10.2-3.8l19.7-9c1.2-0.7,1-0.8,2.1-1.5c4.2-2.5,10.1-5.2,12.2-9.9
		c2.4-5.2,2.4-6.5,2.2-12.5c-0.1-3.3-1.4-5.6-3.6-8c-2.5-2.8-4.9-4.9-8.9-6.1c-7.7-2.3-14,0.2-19.8,4.5c-1.1,0.8,0.3-0.1-1.3,0.7
		c-1.2,0.7-0.3,0.2-1.2,0.7l-4.8,2.8c-1.5,0.6-1.2,0.3-2.5,1.1c-1.6,1-0.7,0.6-2.7,1.3l-5.8,2.3c-1.8,0.6-2.9,1.5-5,1.9
		c-6.4,1.2-5,1.8-13.3,2.1c-4.8,0.2-0.8,1.4-13.5,1.4c-6.7,0-10.9-1.3-17.1-1.7c-2.3-0.1-1.6,0.1-3.4-0.7c-3.2-1.4-2.6-0.8-6-1.5
		c-1.9-0.4-1.4-1.2-5.5-2c-1.5-0.3-1.1-0.4-2.4-1.1c-1-0.6-1.9-0.7-2.9-1.1c-1.7-0.7-1.1-0.8-2.2-1.4c-0.9-0.5-1.8-0.4-3-1
		l-17.5-12.7c-4.2-3.9-8.4-7.8-11.8-12.4l-2.5-3.5c-2.7-3.8-5.1-7.6-6.8-11.9c-0.9-2.2-3.1-5.1-3.8-7.7c-1-4-1.1-2.8-2-5.5
		c-0.8-2.4-0.3-3.5-1.5-6c-1.1-2.5-0.7-4-0.9-6.8c-0.2-2.3-1-4.2-1.3-6.1l-0.5-14.6c0.1-2.9,1-3.9,1.3-6.1c0.3-2.4,0.2-4.7,0.6-7
		c0.5-2.6,1.2-2.4,1.7-5.9c0.4-2.7,1.7-6.1,2.6-8.5c0.6-1.5,0.9-1.3,1.3-2.5c0.4-1.2,0.3-1.9,0.8-2.9l7.1-11.9
		c3.2-4.1,6.3-8.5,10.1-12.5c3.2-3.3,9.8-9.9,13.9-12.2c1.6-0.9,1.2-0.9,2.5-1.6c2.3-1.3,4.5-3.1,6.9-4.2c1.6-0.7,1.3-0.2,2.8-1.2
		c2.9-1.9,7.5-2.8,10.6-4.5l12.2-3c8.3-0.4,7.8-1.7,21.1-1.6c3.6,0,5.6,1.3,9.5,1.4c5.1,0.2,5.8,0.6,9.9,1.9
		c1.5,0.5,3.1,0.3,4.7,0.8l7.9,3.2c2.2,1,2.2,0.5,4.2,1.9c1.8,1.2,2.4,0.6,4.1,1.7l3.3,2.1c13.2,9.4,20,14.7,29.1,28.1
		c1.3,1.9,0.4,1.9,1.9,3.6c2.1,2.5,2.9,5.7,4,7.1c2,2.7,0.6,1.3,1.8,4.4c0.7,1.9,1,0.6,1.8,3.7c0.6,2.4,1.1,2.1,1.7,3.8
		c0.5,1.6,0.4,3,0.9,4.6c0.6,1.9,1.3,2.3,1.5,4.4c0.5,4.3,0.5,6.4,1.4,10.4c0.7,3.2,1.3,9.8-0.2,13.2c-1.9,4-3.1,7.8-7,10.2
		c-1.4,0.8-1.8,1.6-3.3,2.2c-3.3,1.3-7.6,3-11.4,1.6c-0.7-0.2-1-0.7-1.7-1.1c-1-0.5-1.3-0.3-2.4-0.7c-3.8-1.5-6.1-4.7-8.3-8.1
		c-3.3-5.2-1.7-14.4-3.2-19.8c-0.4-1.3-1.1-2.5-1.4-4.8l-1.4-4.1c-0.8-1.6-0.7-2.5-1.6-4c-5.4-8.5-7.2-12-15.2-18.9
		c-2.5-2.1-5.4-3.8-8.4-5.1c-4.4-2-4.9-3-10.3-4.2c-7-1.5-1.6-2.2-15.4-2.3c-3.6,0-6.2,0.2-9.6,0.4c-3,0.2-3.2,1.1-5.8,1.8l-3.9,1
		c-5.1,2.2-10.3,4.3-14.6,8l-5.3,4.7c-4.4,4.2-7.4,9-10.6,14.4c-0.8,1.4-0.6,2.1-1.4,3.6c-1,1.9-0.8,1.2-1.3,3.9
		c-0.7,3.6-1.7,6.2-2.1,10.2c-0.5,4.2-0.2,8.7,0.2,12.8l0.2,4.2c0.3,2.1,0.7,2,1.3,3.7c0.5,1.6,0.4,2.5,0.9,4.1l4.9,10.1
		c3.8,5,6.7,9.9,11.9,13.7c2.7,2,5.6,4.6,9.1,6c0.8,0.3,1,0.4,1.6,0.8c3.1,2,7.1,2.7,9.9,3.7c0.1,0,0.2,0.1,0.4,0.1
		c3.8,1.4,2.7,1.4,6.7,1.6c4.8,0.2,15,1,19.2-0.7c2.1-0.8,0.6-0.9,3.9-1.3c4.6-0.5,12.9-5.8,16.5-8.4c6.2-4.6,5.9-1.8,12.6,2.6
		l9.8,5.2c1.2,0.5,2.7,0.4,4.2,0.8c4.4,1.2,0,1.4,8.2,1.8c3.3,0.1,6.3,0.4,10,0.4c7.9,0,6.8-0.8,11.5-2.3c1.4-0.5,2.9-0.4,4.1-1
		c1.6-0.7,0.7-0.7,3.2-1.4c0.2,0,0.6-0.1,0.8-0.2l1.3-0.6c0.1-0.1,0.2-0.2,0.3-0.2l0.9-0.6c0.1-0.1,0.2-0.1,0.3-0.2
		c0.1-0.1,0.2-0.1,0.3-0.2c0.1-0.1,0.2-0.1,0.3-0.2c0.1-0.1,0.2-0.1,0.3-0.2l3.5-2.1c4.2-2.7,8.1-6.5,11.4-10.2c1.7-2,4.9-6.2,6-8.6
		c0.2-0.5,0.4-1.1,0.8-1.7c1.6-2.7,2.9-5.4,3.5-8.7c0.6-3.3,1.6-3.5,2-7.3c0.9-7.5,1.2-24.3-1.3-32c-0.7-2.2-0.7-5.5-1.4-8
		c-0.5-1.6-1.1-1.7-1.4-3.5c-0.6-3.7-0.1-2.9-1.6-6.3l-1.9-5c-0.7-1.5-0.5-2.5-1.1-4l-4.6-9.4c-1-1.5-0.9-2.2-1.6-3.5
		c-0.5-1-0.4-0.3-1-1.5c-3.1-5.3-7.2-10.7-10.8-15.7c-5.4-7.5-12.4-13.4-19.1-19.6c-3.3-3.1-7.6-5.9-11.3-8.3L305.1,85
		c-1.6-0.9-2.1-0.8-3.5-1.5c-1.6-0.8-0.9-0.9-3.4-1.6c-3.2-0.9-2.9-1.4-7.1-2.5c-1.5-0.4-2-1.1-3.5-1.4l-1.3-0.2
		c-3.2-0.5-4.8-1.5-10-2.5c-4.7-0.9-8.4-1.8-13.4-2c-5.7-0.2-12.9-1-18.5-0.3c-5.2,0.6-9.2-0.3-13.3,1.2c-3.9,1.3-8.1,0.9-11.8,2.7
		c-2.2,1-5.6,0.6-7.7,1.9c-2.8,1.7-7.7,2.2-11,3.6l-16,8.1c-1.5,0.9-0.9,0.9-2.8,1.8c-4.6,2.2-13,9.3-17,13.1l-6.1,5.9
		c-0.1,0.1-0.2,0.2-0.2,0.3l-3,3.1c-0.1,0.1-0.1,0.2-0.2,0.3l-3.2,3.5c-1,1.2-0.2,0.1-1.2,1.2c-2,2-4.4,6.1-6.4,8.2l-9,15.2
		c-0.8,1.7-0.3,1.8-1.5,3.5c-2.4,3.4-4.4,9.9-5.4,13.8c-0.4,1.8-0.9,1.1-1.5,3.4c-0.3,1.2-0.5,2.7-1,4c-1.2,3-1.2,4.4-1.8,7.8
		c-0.5,3.2-1.4,4.8-1.8,8.2C121.8,189.6,121.6,196.5,121.6,202.5z"/>
	<g>
		<path class="st1" d="M115.6,385.2h10v5.6c3.6-4.4,7.9-6.5,12.8-6.5c2.6,0,4.9,0.5,6.8,1.6c1.9,1.1,3.5,2.7,4.8,4.9
			c1.8-2.2,3.8-3.8,5.8-4.9c2.1-1.1,4.3-1.6,6.7-1.6c3,0,5.6,0.6,7.7,1.8c2.1,1.2,3.7,3,4.7,5.4c0.7,1.8,1.1,4.6,1.1,8.5v26.3h-10.9
			v-23.5c0-4.1-0.4-6.7-1.1-7.9c-1-1.5-2.6-2.3-4.6-2.3c-1.5,0-3,0.5-4.3,1.4c-1.3,0.9-2.3,2.3-2.9,4.1s-0.9,4.6-0.9,8.5v19.7h-10.9
			v-22.5c0-4-0.2-6.6-0.6-7.7s-1-2-1.8-2.6c-0.8-0.6-1.9-0.9-3.3-0.9c-1.7,0-3.2,0.5-4.5,1.4c-1.3,0.9-2.3,2.2-2.9,3.9
			c-0.6,1.7-0.9,4.5-0.9,8.5v20h-10.9V385.2z"/>
		<path class="st1" d="M195,397.8l-9.9-1.8c1.1-4,3-6.9,5.7-8.8c2.7-1.9,6.7-2.9,12.1-2.9c4.8,0,8.5,0.6,10.8,1.7
			c2.4,1.1,4,2.6,5,4.4c1,1.8,1.5,5,1.5,9.7l-0.1,12.7c0,3.6,0.2,6.3,0.5,8s1,3.6,2,5.5h-10.8c-0.3-0.7-0.6-1.8-1-3.2
			c-0.2-0.6-0.3-1.1-0.4-1.3c-1.9,1.8-3.8,3.2-6,4.1s-4.4,1.4-6.8,1.4c-4.2,0-7.6-1.1-10-3.4c-2.4-2.3-3.7-5.2-3.7-8.7
			c0-2.3,0.6-4.4,1.7-6.2c1.1-1.8,2.7-3.2,4.7-4.2c2-1,4.9-1.8,8.6-2.5c5.1-1,8.6-1.8,10.6-2.7v-1.1c0-2.1-0.5-3.6-1.5-4.5
			c-1-0.9-3-1.3-5.8-1.3c-1.9,0-3.4,0.4-4.5,1.1C196.6,394.5,195.7,395.9,195,397.8z M209.6,406.6c-1.4,0.5-3.6,1-6.6,1.7
			c-3,0.6-5,1.3-5.9,1.9c-1.4,1-2.1,2.3-2.1,3.8c0,1.5,0.6,2.8,1.7,3.9c1.1,1.1,2.6,1.7,4.3,1.7c2,0,3.8-0.6,5.6-1.9
			c1.3-1,2.2-2.2,2.6-3.6c0.3-0.9,0.4-2.7,0.4-5.3V406.6z"/>
		<path class="st1" d="M231,379.7v-10.1h10.9v10.1H231z M231,426.3v-41.1h10.9v41.1H231z"/>
		<path class="st1" d="M253,426.3v-56.7h10.9v56.7H253z"/>
		<path class="st1" d="M293.9,385.2v8.7h-7.4v16.6c0,3.4,0.1,5.3,0.2,5.9c0.1,0.6,0.5,1,1,1.4c0.5,0.4,1.1,0.5,1.8,0.5
			c1,0,2.5-0.3,4.4-1l0.9,8.4c-2.5,1.1-5.4,1.6-8.6,1.6c-2,0-3.7-0.3-5.3-1c-1.6-0.7-2.7-1.5-3.5-2.6c-0.7-1-1.2-2.5-1.5-4.2
			c-0.2-1.3-0.3-3.8-0.3-7.7v-17.9h-5v-8.7h5v-8.2l10.9-6.3v14.5H293.9z"/>
		<path class="st1" d="M298.9,405.2c0-3.6,0.9-7.1,2.7-10.5c1.8-3.4,4.3-6,7.6-7.7c3.3-1.8,6.9-2.7,10.9-2.7c6.2,0,11.3,2,15.3,6.1
			c4,4,6,9.1,6,15.3c0,6.2-2,11.4-6,15.5c-4,4.1-9.1,6.1-15.1,6.1c-3.8,0-7.4-0.9-10.8-2.6c-3.4-1.7-6-4.2-7.8-7.5
			C299.8,413.9,298.9,409.9,298.9,405.2z M310,405.8c0,4.1,1,7.2,2.9,9.4s4.3,3.2,7.2,3.2s5.2-1.1,7.1-3.2s2.9-5.3,2.9-9.4
			c0-4-1-7.1-2.9-9.3s-4.3-3.2-7.1-3.2s-5.2,1.1-7.2,3.2S310,401.7,310,405.8z"/>
		<path class="st1" d="M346,414.6l10.9-1.7c0.5,2.1,1.4,3.7,2.8,4.8c1.4,1.1,3.4,1.6,6,1.6c2.8,0,4.9-0.5,6.3-1.5
			c1-0.7,1.4-1.7,1.4-2.9c0-0.8-0.3-1.5-0.8-2.1c-0.5-0.5-1.8-1-3.6-1.4c-8.8-1.9-14.3-3.7-16.7-5.3c-3.2-2.2-4.9-5.3-4.9-9.2
			c0-3.6,1.4-6.6,4.2-9s7.2-3.6,13.1-3.6c5.6,0,9.8,0.9,12.5,2.7c2.7,1.8,4.6,4.5,5.6,8.1l-10.3,1.9c-0.4-1.6-1.3-2.8-2.5-3.7
			c-1.2-0.9-3-1.3-5.2-1.3c-2.9,0-4.9,0.4-6.2,1.2c-0.8,0.6-1.2,1.3-1.2,2.2c0,0.8,0.4,1.4,1.1,2c1,0.7,4.4,1.7,10.2,3.1
			c5.8,1.3,9.8,2.9,12.1,4.8c2.3,1.9,3.4,4.6,3.4,8.1c0,3.8-1.6,7-4.7,9.7c-3.1,2.7-7.8,4.1-14,4.1c-5.6,0-10-1.1-13.3-3.4
			C349.1,421.6,347,418.5,346,414.6z"/>
	</g>
</g>
</svg>
