<?xml version="1.0" encoding="utf-8"?>
<!-- Generator: Adobe Illustrator 26.0.0, SVG Export Plug-In . SVG Version: 6.00 Build 0)  -->
<svg version="1.1" id="Layer_1" xmlns="http://www.w3.org/2000/svg" xmlns:xlink="http://www.w3.org/1999/xlink" x="0px" y="0px"
	 viewBox="0 0 500 500" style="enable-background:new 0 0 500 500;" xml:space="preserve">
<style type="text/css">
	.st0{fill:#040404;}
</style>
<g>
	<path class="st0" d="M59,170.4v159.3h11.5v3.8H54.7V166.6h15.8v3.8L59,170.4z M103.2,220.9v8.1h0.2c2-2.9,4.7-5.4,7.8-7.1
		c3-1.7,6.5-2.5,10.4-2.5c3.8,0,7.2,0.7,10.3,2.2c3.1,1.5,5.5,4,7.1,7.7c1.8-2.6,4.2-4.9,7.2-6.9c3-2,6.6-3,10.8-3
		c3.1,0,6.1,0.4,8.7,1.1c2.7,0.8,5,2,6.9,3.7c1.9,1.7,3.4,3.9,4.5,6.6c1.1,2.7,1.6,6,1.6,9.9v39.8h-16.3v-33.7c0-2-0.1-3.9-0.2-5.6
		c-0.1-1.6-0.5-3.2-1.3-4.6c-0.7-1.3-1.8-2.4-3-3.1c-1.3-0.8-3.2-1.1-5.5-1.1c-2.3,0-4.2,0.4-5.6,1.3c-1.4,0.9-2.5,2-3.3,3.5
		c-0.8,1.5-1.4,3.1-1.6,4.8c-0.3,1.8-0.4,3.6-0.4,5.5v33.2H125V247c0-1.8,0-3.5-0.1-5.2c-0.1-1.6-0.4-3.3-1-4.8
		c-0.6-1.4-1.6-2.7-2.9-3.5c-1.3-0.9-3.3-1.3-5.9-1.3c-1,0-2.1,0.2-3,0.5c-1.3,0.4-2.6,1.1-3.7,2c-1.2,1-2.2,2.3-3,4.1
		c-0.8,1.8-1.3,4.2-1.3,7.1v34.6H87.7v-59.6L103.2,220.9z M189.1,229.6c1.6-2.5,3.9-4.6,6.4-6.1c2.7-1.6,5.7-2.7,8.8-3.3
		c3.2-0.6,6.5-1,9.8-1c3,0,6,0.2,9.1,0.6c3.1,0.4,5.9,1.3,8.4,2.5c2.5,1.2,4.6,2.9,6.2,5.1c1.6,2.2,2.4,5.1,2.4,8.7v31
		c0,2.7,0.2,5.3,0.5,7.7c0.3,2.5,0.8,4.3,1.6,5.5h-16.6c-0.6-1.9-1-3.8-1.1-5.8c-2.6,2.7-5.7,4.6-9.2,5.6c-3.5,1.1-7.1,1.6-10.8,1.6
		c-2.8,0-5.5-0.3-7.9-1c-2.3-0.6-4.5-1.7-6.4-3.2c-1.9-1.5-3.3-3.4-4.3-5.5c-1-2.2-1.6-4.9-1.6-7.9c0-3.4,0.6-6.2,1.8-8.4
		c1.2-2.2,2.7-3.9,4.6-5.2c1.9-1.3,4-2.3,6.4-2.9c2.4-0.7,4.8-1.2,7.3-1.6c2.5-0.4,4.9-0.7,7.2-0.9c2.4-0.2,4.5-0.6,6.3-1
		c1.8-0.5,3.3-1.1,4.4-2s1.6-2.2,1.5-3.9c0-1.8-0.3-3.2-0.9-4.2c-0.5-1-1.3-1.8-2.3-2.4c-1-0.6-2.2-1-3.3-1.1
		c-1.4-0.2-2.7-0.3-4.1-0.3c-3.2,0-5.7,0.7-7.6,2.1c-1.8,1.4-2.9,3.7-3.2,6.9h-16.3C186.4,235.3,187.4,232.1,189.1,229.6z
		 M221.3,252.7c-1.1,0.4-2.2,0.6-3.3,0.9c-1.2,0.2-2.5,0.4-3.7,0.6c-1.3,0.2-2.6,0.3-3.9,0.6c-1.2,0.2-2.4,0.5-3.6,0.9
		c-1.1,0.3-2.2,0.9-3.1,1.6c-0.9,0.7-1.6,1.5-2.1,2.5c-0.5,1-0.8,2.3-0.8,3.8c0,1.5,0.3,2.7,0.8,3.7c0.5,1,1.3,1.8,2.2,2.4
		c0.9,0.6,2,1,3.2,1.2c1.2,0.2,2.5,0.3,3.8,0.3c3.2,0,5.7-0.5,7.5-1.6c1.8-1.1,3.1-2.4,3.9-3.9c0.8-1.5,1.4-3,1.6-4.5
		c0.2-1.5,0.3-2.8,0.3-3.7v-6.1C223.2,251.9,222.3,252.4,221.3,252.7z M283.2,220.9v10.9h-12v29.5c0,2.8,0.5,4.6,1.4,5.5
		c0.9,0.9,2.8,1.4,5.5,1.4c0.9,0,1.8,0,2.6-0.1c0.8-0.1,1.6-0.2,2.4-0.3v12.7c-1.5,0.2-3.1,0.4-4.6,0.5c-1.6,0.1-3.3,0.1-4.9,0.1
		c-2.5,0-4.9-0.2-7.2-0.5c-2.1-0.3-4.1-1-6-2c-1.7-1-3.1-2.5-4.1-4.3c-1-1.8-1.5-4.3-1.5-7.3v-35.1h-9.9v-10.9h9.9V203h16.3v17.9
		H283.2L283.2,220.9z M306.6,220.9v11.1h0.2c1.6-3.7,4.2-6.9,7.6-9.2c1.7-1.1,3.5-2,5.4-2.6c1.9-0.6,3.9-0.9,6-0.9
		c1.1,0,2.3,0.2,3.6,0.6V235c-0.9-0.2-1.8-0.3-2.8-0.4c-1-0.1-2.1-0.2-3.1-0.2c-3,0-5.5,0.5-7.6,1.5c-2,0.9-3.7,2.3-5,4.1
		c-1.3,1.8-2.2,3.9-2.7,6c-0.6,2.5-0.8,5-0.8,7.5v26.8h-16.3v-59.5L306.6,220.9z M336.3,211.6v-13.5h16.3v13.5H336.3L336.3,211.6z
		 M352.6,220.9v59.5h-16.3v-59.5H352.6L352.6,220.9z M361.1,220.9h18.6l10.5,15.5l10.3-15.5h18.1L399,248.7l22,31.7h-18.6L390,261.6
		l-12.4,18.8h-18.3l21.4-31.3L361.1,220.9z M441,329.6V170.3h-11.5v-3.8h15.8v166.9h-15.8v-3.8L441,329.6z"/>
</g>
</svg>
