<?xml version="1.0" encoding="utf-8"?>
<!-- Generator: Adobe Illustrator 26.0.0, SVG Export Plug-In . SVG Version: 6.00 Build 0)  -->
<svg version="1.1" id="Layer_1" xmlns="http://www.w3.org/2000/svg" xmlns:xlink="http://www.w3.org/1999/xlink" x="0px" y="0px"
	 viewBox="0 0 500 500" style="enable-background:new 0 0 500 500;" xml:space="preserve">
<style type="text/css">
	.st0{fill-rule:evenodd;clip-rule:evenodd;fill:#222222;}
</style>
<g>
	<path class="st0" d="M61.8,303c2.2-0.3,4.3-0.5,6.3-0.5c2.1,0,4.2,0.2,6.3,0.5L88,331.1l14-28.1c1.7-0.3,3.6-0.5,5.7-0.5
		c2.1,0,4.1,0.2,6,0.5l2.8,51.6c-2.1,0.3-4.1,0.5-5.9,0.5c-1.9,0-3.7-0.2-5.5-0.5l-1.5-37.3l-12,25.8c-0.8,0.1-1.6,0.2-2.4,0.3
		c-0.8,0.1-1.6,0.1-2.5,0.1c-0.7,0-1.4,0-2.1-0.1c-0.7-0.1-1.5-0.2-2.2-0.3l-11.2-26.3L70,354.6c-1.8,0.3-3.4,0.5-5.1,0.5
		c-1.8,0-3.6-0.2-5.4-0.5L61.8,303z M419,323.2h-4.9l-0.4-1.5l14.2-18.1h1.7V315h9.2c0.2,0.8,0.3,1.4,0.3,2c0,0.6,0.1,1.2,0.1,1.9
		c0,0.7,0,1.4-0.1,2c-0.1,0.7-0.2,1.4-0.3,2.2h-9.2v15.4c0,1.6,0.1,2.8,0.4,3.8c0.3,1,0.6,1.7,1.1,2.3c0.5,0.6,1.1,0.9,1.8,1.1
		c0.7,0.2,1.5,0.3,2.5,0.3c0.8,0,1.5-0.1,2.2-0.2c0.7-0.1,1.4-0.2,1.9-0.3c0.4,1,0.6,2,0.8,3c0.2,1,0.2,2,0.2,2.8c0,0.6,0,1,0,1.4
		c0,0.4-0.1,0.7-0.1,1.1c-2.3,0.6-4.7,0.8-7.2,0.8c-4.6,0-8.1-1.1-10.5-3.2c-2.4-2.1-3.6-5.6-3.6-10.5V323.2L419,323.2z
		 M392.8,337.1c-2.8-0.8-5-2-6.6-3.6c-1.6-1.6-2.4-4-2.4-7.2c0-3.8,1.4-6.8,4.1-9c2.8-2.2,6.5-3.3,11.3-3.3c2,0,3.9,0.2,5.8,0.5
		c1.9,0.4,3.9,0.9,5.8,1.6c-0.1,1.3-0.4,2.7-0.8,4.1c-0.4,1.4-0.9,2.7-1.4,3.7c-1.2-0.5-2.6-0.9-4-1.3c-1.5-0.4-3-0.6-4.6-0.6
		c-1.7,0-3.1,0.3-4,0.8c-1,0.5-1.4,1.4-1.4,2.5c0,1.1,0.3,1.9,1,2.3c0.7,0.5,1.7,0.9,2.9,1.3l4.3,1.3c1.4,0.4,2.7,0.9,3.8,1.5
		c1.1,0.6,2.1,1.3,2.9,2.2c0.8,0.9,1.4,1.9,1.9,3.2c0.5,1.3,0.7,2.8,0.7,4.6c0,1.9-0.4,3.6-1.2,5.2c-0.8,1.6-1.9,3-3.4,4.2
		c-1.5,1.2-3.3,2.1-5.4,2.8c-2.1,0.7-4.5,1-7.2,1c-1.2,0-2.3,0-3.3-0.1c-1-0.1-2-0.2-2.9-0.4c-0.9-0.2-1.9-0.4-2.8-0.6
		c-0.9-0.3-1.9-0.6-3-1c0.1-1.4,0.3-2.7,0.7-4.1c0.4-1.4,0.9-2.7,1.5-4.1c1.7,0.7,3.2,1.1,4.7,1.5c1.5,0.3,3,0.5,4.7,0.5
		c0.7,0,1.5-0.1,2.3-0.2c0.8-0.1,1.6-0.4,2.3-0.7c0.7-0.3,1.3-0.8,1.8-1.3c0.5-0.5,0.7-1.2,0.7-2.1c0-1.2-0.4-2.1-1.1-2.6
		c-0.7-0.5-1.8-1-3.1-1.4L392.8,337.1z M360.1,355.1c-3.2,0-5.9-0.5-8.3-1.6c-2.3-1-4.3-2.5-5.8-4.3c-1.5-1.8-2.7-4-3.5-6.5
		c-0.8-2.5-1.2-5.2-1.2-8c0-2.9,0.4-5.6,1.2-8.1c0.8-2.5,1.9-4.7,3.5-6.6c1.5-1.8,3.5-3.3,5.8-4.4c2.3-1.1,5.1-1.6,8.3-1.6
		s6,0.5,8.3,1.6c2.4,1.1,4.3,2.5,5.9,4.4c1.6,1.8,2.7,4,3.5,6.6c0.8,2.5,1.1,5.2,1.1,8.1c0,2.9-0.4,5.6-1.1,8
		c-0.8,2.5-1.9,4.6-3.5,6.5c-1.6,1.8-3.5,3.3-5.9,4.3C366.1,354.6,363.3,355.1,360.1,355.1z M360.1,346.9c2.8,0,4.9-1,6.1-3.1
		c1.2-2.1,1.9-5.1,1.9-9.1c0-3.9-0.6-7-1.9-9.1c-1.2-2.1-3.3-3.1-6.1-3.1c-2.8,0-4.8,1-6,3.1c-1.2,2.1-1.9,5.1-1.9,9.1
		c0,3.9,0.6,7,1.9,9.1C355.3,345.9,357.3,346.9,360.1,346.9z M281.4,315c0.7-0.2,1.4-0.3,2.1-0.3c0.7-0.1,1.5-0.1,2.4-0.1
		c0.9,0,1.6,0,2.3,0.1c0.7,0.1,1.3,0.2,2,0.3c0.2,0.3,0.3,0.6,0.4,1.1c0.1,0.5,0.2,1,0.3,1.5c0.1,0.5,0.2,1,0.3,1.6
		c0.1,0.5,0.1,0.9,0.2,1.3c0.4-0.8,0.9-1.5,1.6-2.3c0.7-0.8,1.4-1.4,2.3-2c0.9-0.6,1.9-1.1,3.1-1.5c1.1-0.4,2.4-0.6,3.8-0.6
		c6.1,0,10,2.3,11.7,7c1-1.9,2.4-3.5,4.3-4.9c1.8-1.4,4.2-2.1,7-2.1c4.4,0,7.7,1.2,9.8,3.7c2.1,2.4,3.1,6.3,3.1,11.5v24.9
		c-1.8,0.3-3.6,0.5-5.4,0.5c-1.8,0-3.6-0.2-5.4-0.5V332c0-2.7-0.3-4.8-1-6.3c-0.7-1.5-2.1-2.2-4.1-2.2c-0.9,0-1.7,0.1-2.5,0.4
		c-0.8,0.3-1.6,0.7-2.3,1.4c-0.7,0.7-1.2,1.6-1.7,2.9c-0.4,1.2-0.6,2.8-0.6,4.8v21.1c-1.8,0.3-3.6,0.5-5.4,0.5
		c-1.8,0-3.6-0.2-5.4-0.5V332c0-2.7-0.3-4.8-1-6.3c-0.7-1.5-2.1-2.2-4.1-2.2c-0.9,0-1.7,0.1-2.6,0.4c-0.9,0.3-1.6,0.7-2.3,1.5
		c-0.7,0.7-1.2,1.8-1.6,3.1c-0.4,1.3-0.6,3-0.6,5.2v20.5c-1.8,0.3-3.6,0.5-5.4,0.5s-3.6-0.2-5.4-0.5L281.4,315L281.4,315z
		 M252.7,315c0.8-0.2,1.5-0.3,2.2-0.3c0.7-0.1,1.4-0.1,2.2-0.1c0.8,0,1.5,0.1,2.2,0.2c0.7,0.1,1.5,0.2,2.2,0.4
		c0.2,0.3,0.3,0.6,0.4,1.1c0.1,0.5,0.2,1,0.3,1.5c0.1,0.5,0.2,1.1,0.3,1.6c0.1,0.5,0.1,1,0.2,1.3c1.1-1.6,2.5-3,4.1-4.2
		c1.6-1.2,3.6-1.9,6.1-1.9c0.5,0,1.1,0,1.7,0.1c0.7,0.1,1.1,0.1,1.4,0.2c0.1,0.5,0.2,1.1,0.2,1.7c0.1,0.7,0.1,1.3,0.1,2
		c0,0.9,0,1.8-0.1,2.8c-0.1,1-0.2,2-0.4,2.9c-0.6-0.1-1.2-0.2-1.9-0.2c-0.7,0-1.1,0-1.3,0c-0.9,0-1.8,0.1-2.9,0.3
		c-1.1,0.2-2.1,0.6-3,1.4c-1,0.8-1.8,1.9-2.4,3.4c-0.6,1.5-0.9,3.6-0.9,6.4v18.6c-0.9,0.2-1.8,0.3-2.7,0.3c-0.9,0.1-1.8,0.1-2.7,0.1
		c-0.9,0-1.7,0-2.6-0.1c-0.9-0.1-1.8-0.2-2.8-0.3V315L252.7,315z M223,337.9c0.2,3,1.3,5.2,3.2,6.6c1.9,1.4,4.4,2,7.6,2
		c1.7,0,3.5-0.2,5.3-0.5c1.8-0.3,3.5-0.8,5.1-1.4c0.6,1,1,2.2,1.4,3.6c0.4,1.4,0.6,2.9,0.7,4.5c-3.9,1.5-8.4,2.3-13.3,2.3
		c-3.6,0-6.8-0.5-9.4-1.5c-2.6-1-4.7-2.4-6.4-4.2c-1.6-1.8-2.9-3.9-3.6-6.4c-0.8-2.5-1.2-5.2-1.2-8.1c0-2.9,0.4-5.6,1.2-8.1
		c0.8-2.5,2-4.7,3.6-6.6c1.6-1.9,3.6-3.3,5.9-4.4c2.3-1.1,5.1-1.6,8.2-1.6c2.7,0,5.2,0.5,7.3,1.4c2.1,1,3.9,2.3,5.4,3.9
		c1.5,1.7,2.6,3.6,3.4,5.9c0.8,2.3,1.1,4.8,1.1,7.4c0,1,0,1.9-0.1,2.8c-0.1,0.9-0.2,1.7-0.3,2.2L223,337.9L223,337.9z M238.4,330.4
		c-0.1-2.4-0.8-4.4-2-5.9c-1.2-1.5-3-2.2-5.2-2.2c-2.5,0-4.4,0.7-5.8,2.1c-1.3,1.4-2.1,3.4-2.3,6H238.4z M188.6,323.2h-4.9l-0.4-1.5
		l14.2-18.1h1.7V315h9.2c0.2,0.8,0.3,1.4,0.3,2c0,0.6,0.1,1.2,0.1,1.9c0,0.7,0,1.4-0.1,2c-0.1,0.7-0.2,1.4-0.3,2.2h-9.2v15.4
		c0,1.6,0.1,2.8,0.4,3.8c0.3,1,0.6,1.7,1.1,2.3c0.5,0.6,1.1,0.9,1.8,1.1c0.7,0.2,1.5,0.3,2.5,0.3c0.8,0,1.5-0.1,2.2-0.2
		c0.7-0.1,1.4-0.2,1.9-0.3c0.4,1,0.6,2,0.8,3c0.2,1,0.2,2,0.2,2.8c0,0.6,0,1,0,1.4c0,0.4-0.1,0.7-0.1,1.1c-2.3,0.6-4.7,0.8-7.2,0.8
		c-4.6,0-8.1-1.1-10.5-3.2c-2.4-2.1-3.6-5.6-3.6-10.5L188.6,323.2L188.6,323.2z M160.2,323.2h-4.9l-0.4-1.5l14.2-18.1h1.7V315h9.2
		c0.2,0.8,0.3,1.4,0.3,2c0,0.6,0.1,1.2,0.1,1.9c0,0.7,0,1.4-0.1,2c-0.1,0.7-0.2,1.4-0.3,2.2h-9.2v15.4c0,1.6,0.1,2.8,0.4,3.8
		c0.3,1,0.6,1.7,1.1,2.3c0.5,0.6,1.1,0.9,1.8,1.1c0.7,0.2,1.5,0.3,2.5,0.3c0.8,0,1.5-0.1,2.2-0.2c0.7-0.1,1.4-0.2,1.9-0.3
		c0.4,1,0.6,2,0.8,3c0.2,1,0.2,2,0.2,2.8c0,0.6,0,1,0,1.4c0,0.4-0.1,0.7-0.1,1.1c-2.3,0.6-4.7,0.8-7.2,0.8c-4.6,0-8.1-1.1-10.5-3.2
		c-2.4-2.1-3.6-5.6-3.6-10.5V323.2L160.2,323.2z M142.6,336.2c-0.6-0.1-1.3-0.2-2-0.3c-0.7-0.1-1.3-0.1-1.9-0.1
		c-2.5,0-4.4,0.4-5.9,1.3c-1.4,0.9-2.2,2.3-2.2,4.3c0,1.3,0.3,2.3,0.8,3c0.6,0.7,1.2,1.2,2,1.6c0.8,0.3,1.6,0.5,2.5,0.6
		c0.9,0.1,1.7,0.1,2.3,0.1c0.8,0,1.5-0.1,2.3-0.2c0.8-0.1,1.4-0.2,2-0.3V336.2z M142.6,328.4c0-1.2-0.2-2.2-0.6-3
		c-0.4-0.8-1-1.4-1.7-1.8c-0.7-0.4-1.6-0.7-2.6-0.9c-1-0.2-2.2-0.2-3.4-0.2c-2.7,0-5.6,0.5-8.7,1.6c-0.7-1.3-1.2-2.6-1.6-3.7
		c-0.4-1.2-0.5-2.6-0.5-4.2c2.2-0.8,4.4-1.3,6.7-1.7c2.2-0.4,4.3-0.5,6.2-0.5c5.3,0,9.4,1.3,12.3,3.8c3,2.5,4.4,6.6,4.4,12.1v22.7
		c-1.8,0.6-3.9,1.1-6.4,1.6c-2.5,0.5-5.4,0.8-8.6,0.8c-2.6,0-4.9-0.2-7.1-0.7c-2.1-0.5-4-1.2-5.5-2.3c-1.5-1.1-2.7-2.4-3.6-4.1
		c-0.8-1.7-1.3-3.7-1.3-6.1c0-2.4,0.5-4.5,1.6-6.1c1-1.6,2.4-3,4-3.9c1.6-1,3.5-1.7,5.5-2.1c2-0.4,4-0.6,6.1-0.6
		c1.5,0,3.1,0.1,4.9,0.2L142.6,328.4L142.6,328.4z"/>
	<path class="st0" d="M288.6,157.4l0.7,13.9c11.3,12.5,15.8,30.2,10.1,46.8c-8.4,24.8-36.1,37.8-61.9,29.1
		c-25.8-8.7-39.8-35.9-31.4-60.7c5.6-16.7,20-28,36.6-31l9-10.6c-28-0.8-54.5,16.6-64,44.6c-11.6,34.3,6.8,71.6,41.1,83.3
		c34.3,11.6,71.6-6.8,83.3-41.1C321.6,203.7,311.3,173.9,288.6,157.4z"/>
	<path class="st0" d="M272.5,198.6l-0.5-19.5l-0.4-11.2l-0.3-9.7c0,0,0.1-4.7-0.1-5.8c0-0.2-0.1-0.4-0.2-0.6c0,0,0,0,0-0.1
		c0,0,0,0,0-0.1c-0.2-0.3-0.5-0.6-0.8-0.7c-0.4-0.1-0.8-0.1-1.1,0c0,0,0,0,0,0c0,0-0.1,0-0.1,0.1c-0.2,0.1-0.3,0.2-0.5,0.3
		c-0.8,0.8-3.6,4.5-3.6,4.5l-6.1,7.6l-7.1,8.7l-12.2,15.2c0,0-5.6,7-4.4,15.6c1.2,8.6,7.6,12.8,12.6,14.5c5,1.7,12.6,2.2,18.8-3.9
		C272.7,207.5,272.5,198.6,272.5,198.6z"/>
</g>
</svg>
