<?xml version="1.0" encoding="utf-8"?>
<!-- Generator: Adobe Illustrator 26.0.0, SVG Export Plug-In . SVG Version: 6.00 Build 0)  -->
<svg version="1.1" id="Layer_1" xmlns="http://www.w3.org/2000/svg" xmlns:xlink="http://www.w3.org/1999/xlink" x="0px" y="0px"
	 viewBox="0 0 500 500" style="enable-background:new 0 0 500 500;" xml:space="preserve">
<style type="text/css">
	.st0{fill:#2481D7;}
</style>
<path class="st0" d="M182.6,267.8v-27.4h-0.1l-8.4,27.4h-8.7l-8.4-27.4h-0.1v27.4h-8.7v-35.7h14.6l7,24.3h0.1l6.9-24.4h14.6v35.7
	L182.6,267.8L182.6,267.8z M223.2,253.8c0,0.9-0.1,2.5-0.1,2.5h-18.9c0.1,2.8,2.4,4.7,6,4.7s6.1-1.4,7.9-2.8h0.4l2.7,7
	c-1.7,1.4-5.6,3.1-10.8,3.1c-8.4,0-14.4-5.4-14.4-14.7c0-9.2,6-15.1,13.9-15.1C217.9,238.6,223.2,244.8,223.2,253.8L223.2,253.8z
	 M204.6,250.2h10.9c-0.2-2.3-2.3-4.4-5.5-4.4C206.7,245.8,204.9,248,204.6,250.2z M249.9,243l-3,6.7h-0.4c-2.4-2.6-5.8-4-8.4-4
	c-2.2,0-3,0.9-3,1.9c0,1.2,0.4,1.4,6.6,2.9c5.7,1.4,9.4,3.6,9.4,9c0,5.8-4,8.9-11,8.9c-6.9,0-11.9-2.6-13.8-4.7l3.2-7.1h0.4
	c2.5,2,5.5,4.1,9.9,4.1c2.6,0,3.1-0.7,3.1-1.7s-0.5-1.5-6.7-3c-6.6-1.7-9.2-4.3-9.2-8.6c0-5.4,4.3-8.8,10.8-8.8
	C243.9,238.6,248.6,241.5,249.9,243z M277.3,243l-3,6.7h-0.4c-2.4-2.6-5.8-4-8.4-4c-2.2,0-3,0.9-3,1.9c0,1.2,0.4,1.4,6.6,2.9
	c5.7,1.4,9.4,3.6,9.4,9c0,5.8-4,8.9-11,8.9c-6.9,0-11.9-2.6-13.8-4.7l3.2-7.1h0.4c2.5,2,5.5,4.1,9.9,4.1c2.6,0,3.1-0.7,3.1-1.7
	s-0.5-1.5-6.7-3c-6.6-1.7-9.2-4.3-9.2-8.6c0-5.4,4.3-8.8,10.8-8.8C271.3,238.6,276.1,241.5,277.3,243z M304.8,249.6v18.2h-6.7
	l-0.7-3.8h-0.1c-1.4,2.4-4.2,4.4-8.2,4.4c-5.5,0-8.3-3.6-8.3-8.2c0-4.7,2.1-7.6,8.8-8.9c6.7-1.2,7.1-1.7,7.1-3.2
	c0-1.4-1.3-2.1-3.9-2.1c-2.9,0-6.1,2-7.9,4.7h-0.4l-3.3-6.9c3.1-3.1,7.1-5.2,12.2-5.2C299.7,238.6,304.8,242.8,304.8,249.6z
	 M296.7,255.2c-0.4,0.8-1.4,1.3-4.4,2c-2.9,0.7-3.3,1.5-3.3,2.6c0,1.1,0.9,1.7,2.4,1.7c2.3,0,5.4-1.5,5.4-3.9v-2.5
	C296.7,255.2,296.7,255.2,296.7,255.2z M328.6,243h0.1l0.4-3.8h6.6v24.9c0,8.8-5,13.6-14,13.6c-5.2,0-9.1-1.7-11.5-3.5l2.5-7.3h0.4
	c2.4,2,5,3.1,8.3,3.1c4.3,0,5.8-1.7,5.8-5.5v-2.6h-0.1c-1.2,1.8-3.6,3.3-7.4,3.3c-6.8,0-11.5-5.3-11.5-12.9
	c0-8.3,5.6-13.9,12.2-13.9C324.6,238.6,327.4,241,328.6,243L328.6,243z M317.1,252.3c0,3.5,2.2,5.7,5.5,5.7c3.2,0,5.4-2,5.4-5.8
	c0-3.6-1.9-6.1-5.4-6.1C319,246.1,317.1,248.8,317.1,252.3z M367.2,253.8c0,0.9-0.1,2.5-0.1,2.5h-18.9c0.1,2.8,2.4,4.7,6,4.7
	c3.6,0,6.1-1.4,7.9-2.8h0.4l2.6,7.1c-1.7,1.4-5.6,3.1-10.8,3.1c-8.4,0-14.4-5.4-14.4-14.7c0-9.2,6-15.1,13.9-15.1
	C361.8,238.6,367.2,244.8,367.2,253.8z M348.4,250.2h10.9c-0.2-2.3-2.3-4.4-5.5-4.4C350.7,245.8,348.8,248,348.4,250.2z
	 M390.8,232.1c7,0,10.8,3.4,10.8,9.2c0,4.1-1.9,6.6-5.6,8.2v0.1c3.3,1.3,5.6,4.1,5.6,8.7c0,4.6-2.6,9.5-12.1,9.5h-17.8v-35.7
	L390.8,232.1L390.8,232.1z M380.7,246.7h8.5c2.1,0,3.3-1.2,3.3-3.1c0-1.7-0.9-3.2-3.6-3.2h-8.2V246.7L380.7,246.7z M380.7,259.5h8.5
	c2.1,0,3.3-1.2,3.3-3.1c0-1.9-0.9-3.3-3.6-3.3h-8.2V259.5L380.7,259.5z M415.6,230.5c0,3.1-1.9,5.3-5.3,5.3c-3.4,0-5.3-2.3-5.3-5.3
	c0-3.1,1.9-5.2,5.3-5.2S415.6,227.4,415.6,230.5z M406,267.8v-28.5h8.4v28.5H406L406,267.8z M439.2,241l-1.2,7.6h-0.4
	c-0.8-0.9-2-1.7-3.9-1.7c-3.3,0-5.3,3.1-5.3,8.2v12.7h-8.4v-28.5h6.9l0.4,3.8h0.1c1.5-3.1,3.9-4.4,6.5-4.4
	C436,238.6,438.1,239.4,439.2,241z M461.7,267.8L461,264h-0.1c-1.7,2.6-4.2,4.4-8.7,4.4c-7.6,0-12.5-6.1-12.5-14.5
	c0-8.6,5.1-15.3,12.7-15.3c3.3,0,6.1,1.3,7.7,3.6h0.1v-12.2h8.2v37.9H461.7L461.7,267.8z M448.1,253.6c0,4.3,2.5,7,6.2,7
	c3.7,0,6.3-2.4,6.3-7.1c0-4.3-2.5-7.4-6.1-7.4C450.7,246.1,448.1,249.2,448.1,253.6L448.1,253.6z M118.7,223.8c-3.9,0-7.4,2-9.5,4.9
	l-14.3,20.1c-0.5,0.8-1.4,1.2-2.3,1.2c-1.6,0-2.9-1.3-2.9-2.9c0-0.6,0.1-1.2,0.4-1.6l12.2-18.1c1.2-1.8,2-4.1,2-6.5
	c0-6.4-5.2-11.7-11.7-11.7H31.6v11.7h52.2c0,3.2-2.6,5.8-5.8,5.8H31.6c0,4.2,0.9,8.1,2.4,11.7H72c0,3.2-2.6,5.8-5.8,5.8H37.4
	c5.3,7.1,13.8,11.7,23.3,11.7H75c1.6,0,2.9,1.3,2.9,2.9s-1.3,2.9-2.9,2.9H60.7l-19.5,29.1h35.2c16.1,0,29.8-10.5,34.6-25l6.6-19.9
	c2.1-6.4,6-12.1,11.1-16.4C126.7,226,122.9,223.8,118.7,223.8z M118.7,231.7c-1.2,0-2.2-1-2.2-2.2s1-2.2,2.2-2.2
	c1.2,0,2.2,1,2.2,2.2C120.9,230.8,119.9,231.7,118.7,231.7z"/>
</svg>
