<?xml version="1.0" encoding="utf-8"?>
<!-- Generator: Adobe Illustrator 26.0.0, SVG Export Plug-In . SVG Version: 6.00 Build 0)  -->
<svg version="1.1" id="Layer_1" xmlns="http://www.w3.org/2000/svg" xmlns:xlink="http://www.w3.org/1999/xlink" x="0px" y="0px"
	 viewBox="0 0 500 500" style="enable-background:new 0 0 500 500;" xml:space="preserve">
<style type="text/css">
	.st0{fill:url(#SVGID_1_);}
	.st1{fill:url(#SVGID_00000150099217567066011170000015023078495260214170_);}
	.st2{fill:url(#SVGID_00000159463195371670363670000015196594120856721063_);}
	.st3{fill:#231F1F;}
</style>
<g>
	<g transform="matrix(.569 0 0 .569 199.451 -82.735)">
		
			<linearGradient id="SVGID_1_" gradientUnits="userSpaceOnUse" x1="-1675.7817" y1="4992.8101" x2="-1430.5114" y2="4847.8838" gradientTransform="matrix(7.021460e-02 0 0 7.021460e-02 163.283 304.4542)">
			<stop  offset="0" style="stop-color:#909CA9"/>
			<stop  offset="1" style="stop-color:#EDEDEE"/>
		</linearGradient>
		<path class="st0" d="M223.7,473.5L140,500.8L67.2,533l-20.4,5.4c-5.2,4.9-10.6,9.9-16.5,15c-6.5,5.6-12.5,10.6-17.1,14.3
			c-5.1,4-12.7,11.6-16.6,16.4c-5.8,7.2-10.3,14.9-12.3,20.8c-3.5,10.6-1.8,21.4,4.9,31.3c8.6,12.7,25.7,25.6,45.7,34.4
			c10.2,4.5,27.3,10.2,40.2,13.5c21.4,5.4,63,11.3,85.8,12.2c4.6,0.2,10.8,0.2,11.1,0c0.5-0.3,4-7.1,8.2-15.5
			c14-28.7,24.2-55.5,29.7-78.5c3.3-13.9,5.9-32.5,7.6-54.4c0.4-6.1,0.6-26.7,0.3-33.7c-0.6-11.4-1.6-20.6-3.2-29.7
			c-0.3-1.3-0.3-2.5-0.2-2.6c0.3-0.2,1-0.4,11.3-3.4L223.7,473.5L223.7,473.5L223.7,473.5L223.7,473.5z M204.6,484.7
			c0.8,0,2.8,19.4,3.3,31.7c0.1,2.6,0.1,4.3-0.1,4.3c-0.5,0-10.7-6-18-10.6c-6.3-4-18.3-12-20.2-13.5c-0.6-0.4-0.6-0.5,4.6-2.3
			C183,491.4,203.9,484.7,204.6,484.7z M162,498.7c0.6,0,2,0.8,5.5,3c13,8.2,30.7,18,38.3,21.3c2.3,1,2.6,0.6-2.8,4.3
			c-11.5,7.8-25.9,15.6-43.5,23.3c-3.1,1.4-5.7,2.5-5.8,2.5c-0.1,0,0.3-1.6,0.8-3.5c4.2-15.8,6.6-31.7,6.8-44.5
			C161.4,498.9,161.4,498.9,162,498.7C161.9,498.7,161.9,498.7,162,498.7L162,498.7z M153.2,502.1c0.4,0.4,0.1,14.6-0.4,18.4
			c-1.1,9.2-2.9,17.8-5.8,27.5c-0.7,2.3-1.3,4.3-1.5,4.4c-0.3,0.3-8.9-8.2-11.8-11.5c-4.9-5.7-8.8-11.4-11.6-17
			c-1.5-2.8-3.7-8.4-3.5-8.6C119.6,514.8,152.9,501.8,153.2,502.1L153.2,502.1z M111.8,518.4c0.1,0,0.1,0,0.2,0.1
			c0.1,0.1,0.6,1.1,0.9,2.3c2,5.5,6.6,13.6,10.5,18.8c4.3,5.7,9.9,11.8,14.6,15.8c1.5,1.3,2.9,2.5,3.1,2.7c0.4,0.4,0.5,0.3-9.8,4.2
			c-12,4.6-25,9.1-39.9,13.9c-3.6,1.1-7.1,2.3-10.7,3.5c-0.6,0.2-0.4-0.1,1.3-2.7c7.4-11.6,18.7-34.3,25-50.4
			c1.1-2.8,2.2-5.6,2.3-6.2c0.3-0.9,0.6-1.2,1.4-1.6C111.2,518.5,111.6,518.4,111.8,518.4L111.8,518.4z M99.2,523.6
			c0.2,0.1-3,6.9-6.2,13.1c-6.1,12-12.8,23.7-21.8,38c-1.5,2.5-3,4.7-3.2,5c-0.3,0.4-0.4,0.3-1.5-1.6c-2.2-4.2-3.9-9.7-4.9-14.7
			c-0.9-4.9-0.8-13.5,0.3-18.9c0.8-3.9,0.8-3.9,2.7-4.8C72.7,535.6,98.9,523.4,99.2,523.6L99.2,523.6z M208.3,528v2.7
			c0,14.1-1.5,33.5-3.7,47.6c-0.4,2.5-0.7,4.5-0.8,4.6c0,0-1.8-0.5-4-1.1c-9.5-3-19.8-7.3-29.1-12.5c-6.1-3.4-15.1-8.9-14.8-9.1
			c0.1-0.1,2.7-1.5,5.8-3.1c12.4-6.5,24.3-13.4,34.6-20.3c3.9-2.6,9.7-6.8,10.9-7.9L208.3,528L208.3,528z M51.4,546.8
			c0.3,0,0.2,0.5-0.2,2.8c-0.3,1.6-0.6,4.7-0.7,6.8c-0.5,9.2,1,16.1,5.6,25.4c1.3,2.6,2.3,4.7,2.2,4.8c-0.4,0.4-42.3,12.7-55.5,16.3
			c-3.9,1.1-7.3,2-7.6,2.1c-0.4,0.1-0.5,0.1-0.3-1c1.5-9.3,8.5-21.4,18.4-31.7c6.6-6.8,11.8-10.8,20.8-15.9
			c6.5-3.7,16.4-9.2,17.1-9.4C51.3,546.8,51.3,546.8,51.4,546.8L51.4,546.8z M150.1,564.4c0.1-0.1,1.6,0.8,3.4,1.8
			c13.5,7.8,32.4,15.1,48.5,18.9l1.5,0.3l-2,1.1c-8.4,4.7-36.1,16.2-64.3,26.8c-4.1,1.5-8.2,3-8.9,3.4c-0.8,0.3-1.5,0.5-1.5,0.4
			c0-0.1,1.1-2.3,2.6-5c7.9-14.8,15.9-32.8,19.9-45.4C149.7,565.6,150,564.5,150.1,564.4L150.1,564.4z M140,567.7
			c0.1,0.1-0.4,1.4-1.1,2.9c-5.5,13.3-12.7,27.9-22,44.2c-2.3,4.2-4.3,7.5-4.4,7.5c-0.1,0-2-1.1-4.2-2.5
			c-13.4-8.2-25.3-18.3-33.1-28.2l-1.1-1.4l5.8-1.6c20.6-5.6,38.1-11.7,55.5-19.2C137.9,568.5,140,567.7,140,567.7z M202.5,589.5
			C202.5,589.5,202.6,589.6,202.5,589.5c0.1,1.5-3.2,14.5-5.8,23.9c-2.2,7.9-4.1,14.1-7.6,25.1c-1.5,4.8-2.8,8.8-2.9,8.8
			c-0.1,0-0.4-0.1-0.8-0.2c-18.8-3.4-35.6-8.2-51.4-14.5c-4.4-1.8-10.8-4.6-11.1-4.9c-0.1-0.1,3.7-1.9,8.5-4
			c28.8-12.6,58.6-26.9,68.9-33C201.4,589.9,202.3,589.5,202.5,589.5L202.5,589.5z M58.2,594.5c0.1,0.1-7.9,11.7-19.2,27.5
			c-3.9,5.5-8.5,12-10.2,14.4c-1.7,2.4-4.3,6.2-5.8,8.5l-2.7,4.1l-2.8-2.4c-3.4-2.8-9.2-8.7-11.8-12c-5.4-6.8-9.1-13.9-10.6-20.4
			c-0.7-3-0.7-4.6-0.1-4.7c0.9-0.3,17.8-4.2,33.7-7.9c8.8-2,19-4.4,22.6-5.3C55.2,595.2,58.2,594.5,58.2,594.5L58.2,594.5z
			 M66.3,597.6l2,2.3c9.1,10.2,18.4,17.7,29.7,24.3c2,1.1,3.5,2.2,3.4,2.2c-0.4,0.3-39.1,14-57,20.2C34.4,650.1,26.1,653,26,653
			c-0.1,0-0.6-0.4-1.3-0.8l-1.1-0.8l1.8-2.7c5.9-8.6,13.4-18,29.7-37.6L66.3,597.6L66.3,597.6z M116.8,633.7
			c0.1-0.1,2.8,0.9,6.3,2.2c8.2,3.1,14.7,5.1,23.5,7.3c10.8,2.7,26.3,5.4,35.5,6.1c1.4,0.1,2.2,0.3,1.9,0.4
			c-0.4,0.3-9.7,3.4-16.6,5.5c-10.9,3.4-44.1,13.2-71.2,21c-5,1.5-9.3,2.7-9.6,2.7c-0.6,0.1-2.7-0.4-2.7-0.7c0-0.1,1.5-2.1,3.4-4.2
			c9.1-10.9,18.2-23,25.7-34.5C115,636.3,116.8,633.8,116.8,633.7L116.8,633.7z M105.7,634c0.1,0.1-4.4,7.3-12.3,19.7
			c-3.4,5.3-7.1,11.2-8.4,13.3c-1.3,2-3.2,5.2-4.2,7l-1.8,3.2l-0.9-0.3c-2.3-0.6-18.3-6.3-22.5-8c-5.3-2.1-10.7-4.6-14.7-6.8
			c-5.1-2.7-11.4-6.8-10.9-6.9c0.1-0.1,8.8-2.4,19.2-5.3c27.7-7.5,43.1-11.9,53.1-15.1C104,634.4,105.6,633.9,105.7,634L105.7,634z
			 M184.4,652.5L184.4,652.5c0.3,0.6-9.9,29.1-13.7,38.1c-0.8,2-1.1,2.5-1.6,2.5c-1.1-0.1-15.9-2.2-25-3.5
			c-15.8-2.4-42.2-7-48.8-8.5l-1.5-0.3l9.4-2.2c20.2-4.6,30-7,39.9-10.1c12.5-3.8,24.8-8.5,37.3-14.4
			C182.4,653.2,184,652.5,184.4,652.5L184.4,652.5z"/>
		
			<linearGradient id="SVGID_00000049901647491040772740000007839334314776173246_" gradientUnits="userSpaceOnUse" x1="-1666.1066" y1="192.3633" x2="-1468.7557" y2="192.3633" gradientTransform="matrix(7.021460e-02 0 0 7.021460e-02 163.283 304.4542)">
			<stop  offset="0" style="stop-color:#939FAB"/>
			<stop  offset="1" style="stop-color:#DCDEE1"/>
		</linearGradient>
		<path style="fill:url(#SVGID_00000049901647491040772740000007839334314776173246_);" d="M137.4,278.4
			c-1.4-0.2-23.9,7.9-38.3,13.8c-19.5,8-34.7,15.6-44.1,22.1c-3.5,2.5-7.8,6.8-8.5,8.5c-0.3,0.6-0.4,1.4-0.4,2.2l8.5,8l20.2,6.5
			l48,8.6l54.9,9.4l0.6-4.7c-0.2,0-0.3-0.1-0.5-0.1l-7.2-1.1l-1.5-2.6c-7.5-13.2-15.7-29.5-20.5-40.5c-3.7-8.5-7.3-18.4-9.2-25.5
			C138.3,278.7,138.1,278.5,137.4,278.4L137.4,278.4L137.4,278.4L137.4,278.4z M136.4,281.6L136.4,281.6c0.1,0.1,0.4,1.8,0.6,3.9
			c1.1,8.9,3,17.4,6.1,26.6c2.3,7,2.3,6.6-0.4,5.8c-6.5-1.8-35.4-6.8-56.3-9.7c-3.4-0.4-6.2-0.9-6.2-0.9
			c-0.3-0.3,15.1-8.3,21.9-11.5C110.9,291.9,134.6,281.9,136.4,281.6z M75.4,310l2.5,0.8c13.4,4.6,47.1,11,65.7,12.5
			c2.1,0.2,3.9,0.4,3.9,0.4c0.1,0.1-1.7,1-4,2.1c-9,4.5-18.9,10-25.7,14.2c-2,1.3-3.9,2.3-4.1,2.3c-0.3,0-1.6-0.3-3-0.4l-2.5-0.4
			l-6.3-6.2c-11.1-10.8-19.9-19.2-23.2-22.3L75.4,310z M72.9,311.9l8.9,11.1c4.9,6.1,9.8,12.1,10.9,13.5c1.1,1.3,2,2.4,1.9,2.5
			c-0.3,0.2-12.9-2.3-19.6-3.8c-6.9-1.6-9.7-2.3-14-3.7l-3.5-1.1v-0.9c0.1-4.2,5.4-10.6,14.6-17L72.9,311.9L72.9,311.9z
			 M148.7,327.1c0.3,0,0.6,0.6,1.3,2.3c2.2,4.7,8.9,17.5,10.5,20c0.5,0.8,1.4,0.9-7.5-0.6c-21.4-3.5-28.3-4.6-28.3-4.7
			c0-0.1,0.6-0.5,1.5-0.9c6.6-3.7,13.3-8.4,19.3-13.3c1.5-1.2,2.8-2.3,3-2.5C148.5,327.1,148.6,327,148.7,327.1L148.7,327.1z"/>
		
			<radialGradient id="SVGID_00000133488353193585853120000013310803330766391684_" cx="-28943.5293" cy="-16875.0176" r="262.0215" gradientTransform="matrix(-6.742650e-02 -1.012820e-02 2.048400e-02 -0.1349 -1436.7092 -2139.2632)" gradientUnits="userSpaceOnUse">
			<stop  offset="0" style="stop-color:#EE352C"/>
			<stop  offset="1" style="stop-color:#A91D22"/>
		</radialGradient>
		<path style="fill:url(#SVGID_00000133488353193585853120000013310803330766391684_);" d="M46.9,322c0,0-1.4,2.2-0.1,5.5
			c0.8,2,3.2,4.5,5.9,7c0,0,28.2,27.5,31.6,31.4c15.6,18,22.3,35.7,23,60.1c0.4,15.7-2.6,29.5-10,45.5
			c-13.2,28.7-40.9,60.4-83.8,95.6l6.3-2.1c4-3,9.6-6.3,22.5-13.3c29.8-16.3,63.3-31.3,104.5-46.8c59.2-22.3,156.6-48.3,212-56.8
			l5.8-0.9l-0.9-1.4c-5.1-7.8-8.5-12.7-12.7-17.9c-12.1-15.1-26.9-27.3-44.9-37.4c-24.8-13.9-56.9-24.7-97.5-32.7
			c-7.7-1.5-24.5-4.4-38.1-6.5c-29-4.5-47.7-7.6-68.3-11.1c-7.4-1.3-18.5-3.2-25.8-4.7c-3.8-0.8-11.1-2.5-16.8-4.5
			C54.9,329.1,48.3,327.4,46.9,322L46.9,322z M63.2,337.8c0.1-0.1,1.1,0.3,2.4,0.8c2.4,0.8,5.5,1.8,9.2,2.8c2.8,0.8,5.6,1.5,8.4,2.2
			c3.8,0.9,7,1.8,7,1.8c0.4,0.4,6.8,20.9,9,28.7c0.8,3,1.5,5.5,1.4,5.5c-0.1,0.1-0.8-1-1.6-2.5c-7.4-13-19.1-26.3-32.6-36.9
			C64.6,339,63.2,337.9,63.2,337.8L63.2,337.8z M94.3,346.4c0.3,0,1.7,0.2,3.4,0.6c10.8,2.4,30.1,6.1,42.4,8.2
			c2.1,0.3,3.7,0.7,3.7,0.8c0,0.1-0.8,0.6-1.7,1.1c-2.1,1.1-10.5,6.1-13.3,8c-7,4.7-13.3,9.7-17.9,14.3c-1.8,1.8-3.4,3.4-3.4,3.4
			s-0.4-1.1-0.7-2.4c-2.3-8.8-7-21.8-11.3-31C94.9,347.8,94.3,346.5,94.3,346.4C94.3,346.5,94.3,346.4,94.3,346.4L94.3,346.4z
			 M149.1,356.8c0.4,0.1,1,2.3,2.3,7c2.3,9.2,3.4,19.4,3,29c-0.1,2.7-0.3,5.1-0.4,5.4l-0.2,0.6l-3.3-1.1c-6.8-2.2-17.8-5.4-27.2-8
			c-5.4-1.5-9.7-2.8-9.7-2.9c0-0.4,7.8-8.2,11.2-11.2C131.2,370.1,148.6,356.6,149.1,356.8L149.1,356.8z M153.5,357.5
			c0.2-0.2,26.2,4.3,38,6.6c8.8,1.7,21.6,4.4,22.3,4.7c0.4,0.1-0.9,0.9-5.2,2.8c-16.7,7.5-29.1,14.3-41.4,22.5
			c-3.2,2.2-5.9,3.9-6,3.9c-0.1,0-0.1-1.8-0.1-4c0-12-2.4-24.2-6.8-34.4C153.8,358.5,153.4,357.5,153.5,357.5z M220.8,370.8
			c0.2,0.2-0.6,5.3-1.4,8.4c-2.3,9.4-8.4,23.4-15.9,36.6c-1.3,2.3-2.5,4.2-2.7,4.3c-0.1,0.1-1.8-0.9-3.8-2
			c-7.3-4.3-15.7-8.4-24.8-12.1c-2.5-1.1-4.7-2-4.8-2.1c-0.4-0.4,19.9-13.9,30.7-20.3C206.6,378.2,220.5,370.5,220.8,370.8
			L220.8,370.8z M225.6,371.5c0.6,0,12.1,3.2,18.1,4.9c14.9,4.4,31.9,10.7,43.1,15.8l4.6,2.1l-3.2,0.8
			c-27.2,6.3-50.5,13.5-72.9,22.6c-1.8,0.8-3.5,1.4-3.6,1.4c-0.1,0,0.5-1.5,1.3-3.2c6.8-14.4,11.1-29.4,12.2-42.1
			C225.2,372.5,225.4,371.5,225.6,371.5L225.6,371.5z M110.9,397.8c0.2-0.2,9,1.9,13.7,3.2c7.2,2,22.5,7.1,22.5,7.5
			c0,0.1-1.7,1.5-3.7,3.3c-8.3,6.9-16.3,14.2-25.8,23.4c-2.8,2.7-5.3,4.9-5.4,4.9c-0.1,0-0.2-0.4-0.1-0.9
			c1.5-10.6,1.1-24.3-0.9-38.1C111,399.4,110.9,397.9,110.9,397.8z M295.7,398c0.1,0.1-4,6.7-6.7,10.4c-3.8,5.4-9.4,12.7-22,28.5
			c-6.6,8.4-14.1,17.8-16.6,20.9c-2.5,3.2-4.6,5.8-4.7,5.8c-0.1,0-0.9-1.1-1.8-2.5c-7.1-10.6-15.6-19.9-25.6-28.3
			c-1.9-1.6-4-3.3-4.7-3.8c-0.7-0.5-1.3-1-1.3-1.1c0-0.2,10.8-4.8,18.9-8.1c14.3-5.8,33.8-12.8,48.4-17.3
			C287.4,400.2,295.6,397.9,295.7,398L295.7,398z M300.6,399.3c0.3-0.1,1.8,0.7,3.6,1.8c15.4,8.8,30.4,20.1,42.3,31.8
			c3.4,3.3,11.6,11.9,11.5,12c0,0-2.9,0.3-6.3,0.5c-26.6,2-60.7,7.7-93.5,15.6c-2.2,0.5-4.2,0.9-4.3,0.9c-0.1,0,2.3-2.5,5.4-5.4
			c19.2-18.5,28-30.2,38.4-51.1C299.2,402.1,300.5,399.5,300.6,399.3C300.5,399.3,300.5,399.3,300.6,399.3L300.6,399.3z
			 M159.7,413.7c0.9,0.2,9.1,4,15.3,7.1c5.7,2.8,14.2,7.4,14.7,7.8c0.1,0.1-3,1.6-6.7,3.5c-11.9,5.9-22.1,11.6-32.7,18
			c-3,1.8-5.6,3.4-5.6,3.4c-0.3,0-0.2-0.3,1.5-3.4c5.7-10.4,10.2-22.8,12.8-34.9C159.3,414.3,159.5,413.7,159.7,413.7L159.7,413.7z
			 M151.5,415.2c0.2,0.2-2,8-3.3,12.2c-2.6,8-7,18.1-11.2,25.7c-1,1.8-2.5,4.4-3.4,5.8l-1.6,2.5l-3.5-3.4c-4.1-4-7.5-6.5-11.8-8.7
			c-1.7-0.9-3-1.6-3-1.8c0-0.5,10.8-10.3,19.1-17.4C138.8,425.1,151.3,415,151.5,415.2L151.5,415.2z M201.8,435.9l3.1,2
			c7.1,4.6,15.4,10.8,21.8,16.1c3.6,3,10.6,9.2,12,10.8l0.8,0.8l-5.1,1.5c-29,8-51.4,15.2-77.5,24.8c-2.9,1.1-5.4,2-5.6,2
			c-0.4,0-0.7,0.3,5.8-5.7c16.7-15.4,31.5-32.3,42.5-48.8L201.8,435.9L201.8,435.9z M188.6,439.2c0.1,0.1-8.5,12.3-13.7,19.2
			c-6.2,8.2-17.2,22-24.8,31c-3.2,3.7-5.9,6.8-6,6.9c-0.2,0.1-0.3-0.9-0.3-2.3c0-7.7-2-15.8-5.4-22.8c-1.5-2.9-1.7-3.6-1.4-3.9
			c1.2-1.1,19.6-11.6,31.3-17.8C176.1,445.3,188.4,439.1,188.6,439.2L188.6,439.2z M108.6,458.8c0.2,0,1.6,0.8,3.3,1.6
			c4,2.2,7.7,4.7,10.9,7.3c0.1,0.1-1.5,1.5-3.7,3c-6,4.3-15.1,11.2-20.4,15.4c-5.6,4.4-5.8,4.6-5.1,3.6c4.2-6.4,6.3-10,8.5-14.6
			c2-4.1,3.9-9,5.3-13.2C107.8,460.2,108.5,458.8,108.6,458.8L108.6,458.8z M129.9,475.5c0.3-0.1,0.7,0.5,2.4,3
			c3.6,5.4,6.4,12.6,7.1,18.4l0.1,1.3l-8.7,3.4c-15.5,6-29.8,12-39.5,16.4c-2.7,1.3-7.5,3.5-10.6,5.1c-3.1,1.6-5.6,2.8-5.6,2.7
			c0-0.1,2-1.5,4.4-3.3c18.9-13.7,35.3-28.8,47.6-43.8c1.3-1.6,2.5-3,2.7-3.1L129.9,475.5L129.9,475.5z M120.1,477.9
			c0.3,0.3-7,8.4-11.9,13.4C96,503.8,83.9,513.6,68.9,523c-1.9,1.2-3.6,2.3-3.8,2.4c-0.4,0.3,0.1-0.4,6.7-7.5
			c4.2-4.5,7.3-8.3,10.9-13c2.4-3.1,2.8-3.5,6.3-6C98.4,492.2,119.8,477.7,120.1,477.9z"/>
	</g>
	<path class="st3" d="M111.9,338.3c-0.7,0-1.3,0.1-2,0.1c-13.4,0.7-22.5,6.6-27.7,18.1c-4.5,10.4-4,24.1,0.1,34.5
		c4.7,10.2,12.4,15.7,25.2,17.7c2.7,0.4,4.5,1.9,9.8,8.1l6.5,7.6h11.7l-7.8-7.8c-4.3-4.3-7.8-8-7.8-8.4c0-0.3,1.6-1,3.6-1.7
		c6.6-2,12-7.1,15.8-14.8c3.1-6.2,3.5-8.2,4-15.9C144.4,352.6,132.2,338.1,111.9,338.3L111.9,338.3L111.9,338.3z M122.2,398.7
		c-5.7,2.8-14,3.3-19.4,1.3c-5.6-2-11-7.8-13.4-14.4c-2.7-7.2-2.3-20.4,0.8-26.4c5-9.5,11.5-13.9,21.1-13.9
		c14.2,0,22.3,8.7,23.4,25.1C135.5,384.2,130.9,394.5,122.2,398.7L122.2,398.7z M324.3,358c-4.9,0-8.7,2-11.2,5.9l-2,3.1V359h-8.5
		v48.3h8.5v-15.4c0-14.1,0.2-15.8,2.2-19.6c2.7-5.3,7.4-7.9,11.9-6.7l3,0.9V358L324.3,358L324.3,358L324.3,358z M274.4,357.6
		c-1.7,0-3.4,0.2-5.2,0.6c-11.4,3-17.8,13.9-17.4,25.1c0,9.4,1.8,14.1,6.3,19c9.3,7.6,17.7,8.2,29,4.1c1.9-0.8,4-1.8,4-1.8V397
		l-4,2.1c-9.2,4-16.1,4-21.6-0.7c-3.5-3.6-5.1-7.9-5.8-12.8h34.3V379C294.1,365.7,286.1,357.4,274.4,357.6L274.4,357.6L274.4,357.6z
		 M260.6,378.8c0,0,1.3-8.3,6-11.5c2.3-1.6,4.9-2.4,7.4-2.4c2.5,0,5.1,0.8,7.2,2.4c4.3,3.3,5,11.4,5,11.4L260.6,378.8L260.6,378.8
		L260.6,378.8L260.6,378.8z M55.7,370.1c-9.2-5.6-13.3-9.6-12.8-14.3c1.4-13.1,17.7-11.3,26.6-6.3l0.1-8.8c0,0-5-2.2-12.1-2.3
		c-10.9-0.2-18,3.4-21.3,10.7c-4.9,10.8-0.6,18.9,15,27.9c8.7,5.1,12.6,9.5,12.6,14.3c0,9.9-12,13.4-24.3,7.2
		c-2.5-1.3-4.7-2.3-4.8-2.3c-0.4,2.8-0.2,9.6-0.2,9.6s3.8,1.6,9.5,2.7c14.1,2.8,27-3.8,28.2-14.6C73.2,383.6,69.6,378.3,55.7,370.1
		L55.7,370.1z M399.5,357.5c-1.7,0-3.4,0.2-5.3,0.6c-11.4,3-17.8,13.9-17.3,25.1c0,9.4,1.8,14,6.3,18.9c9.3,7.6,17.7,8.2,29,4.1
		c1.9-0.8,4-1.8,4-1.8v-7.6l-4,2.1c-9.2,4-16.1,4-21.6-0.7c-3.5-3.6-5.1-7.8-5.8-12.8h34.2v-6.5
		C419.2,365.6,411.2,357.3,399.5,357.5L399.5,357.5L399.5,357.5z M385.7,378.7c0,0,1.3-8.3,6-11.6c2.3-1.6,4.8-2.4,7.4-2.4
		c2.5,0,5.1,0.8,7.2,2.4c4.3,3.3,5,11.5,5,11.5L385.7,378.7L385.7,378.7L385.7,378.7z M230,370.2c-9.2-5.6-13.3-9.6-12.8-14.3
		c1.4-13.1,17.7-11.3,26.6-6.3l0.1-8.8c0,0-5-2.2-12.1-2.3c-10.9-0.2-18,3.4-21.3,10.7c-4.9,10.8-0.5,18.9,15,27.9
		c8.7,5.1,12.6,9.4,12.6,14.2c0,9.9-12,13.5-24.3,7.2c-2.5-1.3-4.7-2.3-4.8-2.3c-0.4,2.8-0.2,9.6-0.2,9.6s3.8,1.5,9.4,2.7
		c14.1,2.8,27-3.8,28.2-14.6C247.4,383.7,243.7,378.4,230,370.2L230,370.2L230,370.2z M449.5,357.9c-4.9,0-8.7,2-11.2,5.9l-2,3.1v-8
		h-8.5v48.3h8.5v-15.4c0-14.1,0.2-15.8,2.2-19.6c2.7-5.3,7.4-7.9,11.9-6.7l3,0.9v-8.4L449.5,357.9L449.5,357.9z M162.4,369.9v-30.8
		h-8.6v68.2h36v-8.1h-27.5L162.4,369.9L162.4,369.9z M360.5,379.5l-7.1,18.4l-6.8-18.5l-6.9-20.5H331c5.7,16.1,11.9,32.5,18.1,48.4
		c2.7,0.1,5.4,0,8.1,0l9.5-23.9l9.7-24.4H368C368,358.9,364.3,368.6,360.5,379.5L360.5,379.5L360.5,379.5z M182.1,320.5
		c1.4,0,2.5-0.4,3.5-1.4c0.9-0.9,1.4-2,1.4-3.4c0-1.4-0.5-2.5-1.4-3.4c-0.9-0.9-2-1.3-3.4-1.3c-1.4,0-2.5,0.4-3.5,1.4
		c-0.9,0.9-1.4,2.1-1.4,3.4c0,1.4,0.4,2.5,1.4,3.4C179.6,320.1,180.7,320.5,182.1,320.5L182.1,320.5L182.1,320.5z M179.1,312.7
		c0.8-0.8,1.8-1.2,3.1-1.2c1.2,0,2.2,0.4,3,1.2c0.8,0.8,1.3,1.8,1.3,3c0,1.2-0.4,2.3-1.3,3.1c-0.8,0.8-1.8,1.2-3,1.2
		c-1.2,0-2.2-0.4-3-1.2c-0.8-0.8-1.3-1.9-1.3-3.1C177.9,314.5,178.3,313.5,179.1,312.7z M181.1,316.1h0.6c0.4,0,0.8,0.4,1.1,1.1
		l0.7,1.5h1l-0.8-1.7c-0.3-0.7-0.7-1-1.1-1.2c0.5-0.1,0.9-0.3,1.2-0.6c0.3-0.3,0.4-0.7,0.4-1.1c0-0.5-0.2-0.9-0.5-1.2
		c-0.4-0.3-1-0.5-1.8-0.5h-1.8v6.2h0.9v-2.6L181.1,316.1L181.1,316.1z M181.1,313.3h0.8c0.6,0,0.9,0.1,1.2,0.3
		c0.2,0.2,0.3,0.4,0.3,0.8c0,0.7-0.4,1.1-1.3,1.1h-0.9L181.1,313.3L181.1,313.3L181.1,313.3z M39.6,315.6c0-2.2-0.1-3.8-0.1-4.7h0.1
		c0.2,1.1,0.5,1.9,0.7,2.5l8.2,18.4h1.4l8.2-18.5c0.2-0.5,0.4-1.3,0.7-2.3h0.1c-0.2,1.8-0.2,3.4-0.2,4.7v16.2h2.8v-24.1H58
		l-7.6,16.8c-0.3,0.7-0.7,1.7-1.2,3h-0.1c-0.2-0.7-0.6-1.6-1.1-2.9l-7.4-16.9h-3.8v24.1h2.7L39.6,315.6L39.6,315.6L39.6,315.6z
		 M67.7,315.6h2.4v15h-2.4V315.6z M68.9,310.1c0.5,0,0.9-0.2,1.3-0.5c0.3-0.3,0.6-0.8,0.6-1.3c0-0.5-0.2-0.9-0.6-1.3
		c-0.3-0.3-0.8-0.5-1.3-0.5c-0.5,0-0.9,0.2-1.3,0.5c-0.3,0.3-0.6,0.8-0.6,1.3c0,0.6,0.2,0.9,0.6,1.3C68,310,68.4,310.1,68.9,310.1
		L68.9,310.1z M87.4,331v-2.6c-1.3,1-2.8,1.5-4.2,1.5c-1.8,0-3.2-0.6-4.3-1.8c-1-1.2-1.6-2.8-1.6-4.7c0-2.1,0.6-3.7,1.7-5
		c1.1-1.2,2.5-1.8,4.3-1.8c1.4,0,2.8,0.4,4.1,1.3V315c-1.2-0.6-2.5-0.9-4-0.9c-2.8,0-4.9,0.9-6.5,2.6c-1.6,1.7-2.4,4-2.4,6.8
		c0,2.5,0.7,4.6,2.2,6.2c1.5,1.6,3.5,2.5,6,2.5C84.5,332.1,86.1,331.8,87.4,331L87.4,331z M94.4,323c0-2,0.4-3.6,1.3-4.7
		c0.8-1,1.7-1.5,2.8-1.5c0.9,0,1.6,0.2,2.1,0.6v-2.9c-0.4-0.2-0.9-0.2-1.6-0.2c-1,0-1.9,0.3-2.7,0.9c-0.8,0.7-1.5,1.6-1.9,2.9h-0.1
		v-3.5h-2.8v17.2h2.8L94.4,323L94.4,323z M110.2,332.2c2.6,0,4.7-0.8,6.2-2.5c1.5-1.6,2.3-3.9,2.3-6.6c0-2.8-0.7-5-2.2-6.6
		c-1.4-1.6-3.4-2.4-6-2.4s-4.7,0.8-6.2,2.3c-1.7,1.6-2.5,4-2.5,6.9c0,2.6,0.7,4.7,2.2,6.3C105.6,331.3,107.6,332.1,110.2,332.2
		L110.2,332.2L110.2,332.2z M106.3,318.1c1.1-1.1,2.4-1.7,4.1-1.7c1.8,0,3.1,0.6,4.1,1.7c1,1.2,1.5,2.8,1.5,5c0,2.1-0.4,3.8-1.4,4.9
		c-0.9,1.2-2.3,1.8-4.1,1.8c-1.8,0-3.1-0.6-4.2-1.8c-1-1.2-1.5-2.8-1.5-4.9C104.6,321.1,105.2,319.4,106.3,318.1L106.3,318.1z
		 M130.8,330.7c1-0.9,1.6-2.1,1.6-3.5c0-1.3-0.4-2.3-1.3-3.1c-0.7-0.7-1.7-1.3-3.2-1.9c-1.3-0.6-2.2-1.1-2.6-1.4
		c-0.4-0.4-0.7-1-0.7-1.8c0-0.7,0.3-1.3,0.8-1.7c0.6-0.4,1.3-0.7,2.2-0.7c1.5,0,2.8,0.4,3.9,1.2V315c-1.1-0.6-2.3-0.8-3.7-0.8
		c-1.8,0-3.3,0.5-4.4,1.4c-1.2,0.9-1.7,2.2-1.7,3.6c0,1.3,0.4,2.3,1.1,3.1c0.6,0.7,1.6,1.3,3.1,1.9c1.4,0.6,2.3,1.2,2.8,1.6
		c0.5,0.4,0.7,1,0.7,1.6c0,1.6-1.1,2.4-3.3,2.4c-1.7,0-3.1-0.5-4.5-1.6v3c1.2,0.7,2.6,1.1,4.2,1.1
		C128.1,332.2,129.7,331.7,130.8,330.7L130.8,330.7L130.8,330.7z M144,314.1c-2.6,0-4.7,0.8-6.2,2.3c-1.6,1.6-2.5,4-2.5,6.9
		c0,2.6,0.7,4.7,2.2,6.3c1.6,1.7,3.6,2.5,6.2,2.5c2.7,0,4.7-0.8,6.2-2.5c1.6-1.6,2.3-3.9,2.3-6.6c0-2.8-0.7-5-2.2-6.6
		C148.5,314.9,146.5,314.1,144,314.1L144,314.1L144,314.1z M149.3,323.2c0,2.1-0.4,3.8-1.4,4.9c-0.9,1.2-2.3,1.8-4.1,1.8
		c-1.8,0-3.1-0.6-4.2-1.8c-1-1.2-1.5-2.8-1.5-4.9c0-2.2,0.6-3.9,1.7-5.1c1-1.1,2.4-1.7,4.1-1.7c1.7,0,3.1,0.6,4.1,1.7
		C148.8,319.3,149.3,320.9,149.3,323.2L149.3,323.2L149.3,323.2z M156.8,331.8h2.8v-14.9h4v-2.3h-4v-2.7c0-2.4,0.9-3.6,2.9-3.6
		c0.7,0,1.3,0.2,1.8,0.4v-2.5c-0.5-0.2-1.2-0.3-2-0.3c-1.5,0-2.7,0.4-3.7,1.4c-1.2,1.1-1.8,2.5-1.8,4.5v2.8h-2.9v2.3h2.9
		L156.8,331.8L156.8,331.8z M168.1,327.1c0,3.4,1.5,5.1,4.5,5.1c1.1,0,1.9-0.2,2.6-0.6v-2.4c-0.5,0.4-1.1,0.6-1.8,0.6
		c-0.9,0-1.6-0.2-2-0.7c-0.4-0.5-0.6-1.3-0.6-2.5v-9.7h4.4v-2.3h-4.4v-5.1c-0.9,0.3-1.9,0.6-2.8,0.9v4.2h-3v2.3h3L168.1,327.1
		L168.1,327.1z M464.1,358.8c-0.9-0.9-2-1.3-3.4-1.3c-1.4,0-2.5,0.4-3.5,1.4c-0.9,0.9-1.4,2.1-1.4,3.4c0,1.4,0.4,2.5,1.4,3.4
		c0.9,0.9,2.1,1.3,3.5,1.3c1.4,0,2.5-0.4,3.5-1.4c0.9-0.9,1.4-2,1.4-3.4C465.6,360.8,465.1,359.7,464.1,358.8L464.1,358.8z
		 M463.7,365.3c-0.8,0.8-1.8,1.2-3,1.2c-1.2,0-2.2-0.4-3-1.2c-0.8-0.8-1.3-1.9-1.3-3.1c0-1.2,0.4-2.2,1.2-3c0.8-0.8,1.8-1.2,3.1-1.2
		c1.2,0,2.2,0.4,3,1.2c0.8,0.8,1.3,1.8,1.3,3C465,363.5,464.6,364.5,463.7,365.3z M461.2,362.5c0.5-0.1,0.9-0.3,1.2-0.6
		c0.3-0.3,0.4-0.7,0.4-1.1c0-0.5-0.2-0.9-0.5-1.2c-0.4-0.3-1-0.5-1.8-0.5h-1.8v6.2h0.9v-2.6h0.5c0.4,0,0.8,0.4,1.1,1.1l0.7,1.5h1.1
		l-0.8-1.7C461.9,362.9,461.5,362.6,461.2,362.5L461.2,362.5L461.2,362.5z M460.6,361.9h-0.9v-2.1h0.8c0.6,0,0.9,0.1,1.2,0.3
		c0.2,0.2,0.3,0.4,0.3,0.8C461.9,361.6,461.4,361.9,460.6,361.9L460.6,361.9L460.6,361.9z M306.7,313.8h0.8v-6.2h2v-0.8h-4.9v0.8h2
		L306.7,313.8L306.7,313.8z M311.4,309.2c0-0.6,0-1.1,0-1.4c0.1,0.3,0.2,0.6,0.2,0.7l2.4,5.3h0.4l2.4-5.4c0.1-0.2,0.1-0.4,0.2-0.7
		c-0.1,0.6-0.1,1-0.1,1.3v4.7h0.8v-6.9h-1l-2.2,4.8c-0.1,0.2-0.2,0.5-0.3,0.9h-0.1c0-0.2-0.2-0.4-0.3-0.8l-2.2-4.9h-1.1v7h0.8
		L311.4,309.2L311.4,309.2L311.4,309.2z"/>
</g>
</svg>
