<?xml version="1.0" encoding="utf-8"?>
<!-- Generator: Adobe Illustrator 26.0.0, SVG Export Plug-In . SVG Version: 6.00 Build 0)  -->
<svg version="1.1" id="Layer_1" xmlns="http://www.w3.org/2000/svg" xmlns:xlink="http://www.w3.org/1999/xlink" x="0px" y="0px"
	 viewBox="0 0 500 500" style="enable-background:new 0 0 500 500;" xml:space="preserve">
<style type="text/css">
	.st0{fill:#F1511B;}
	.st1{fill:#80CC28;}
	.st2{fill:#00ADEF;}
	.st3{fill:#FBBC09;}
	.st4{fill:#706D6E;}
</style>
<g>
	<g>
		<path class="st0" d="M243.4,199.5h-126v-126h126V199.5z"/>
		<path class="st1" d="M382.6,199.5h-126v-126h126V199.5z"/>
		<path class="st2" d="M243.4,338.7h-126v-126h126V338.7z"/>
		<path class="st3" d="M382.6,338.7h-126v-126h126V338.7z"/>
	</g>
	<path class="st4" d="M400.7,394.6v-7.3h-9.1v-11.4l-0.3,0.1l-8.6,2.6l-0.2,0.1v8.6h-13.5v-4.8c0-2.2,0.5-4,1.5-5.1
		c1-1.1,2.4-1.7,4.2-1.7c1.3,0,2.6,0.3,4,0.9l0.3,0.1V369l-0.2-0.1c-1.3-0.5-3-0.7-5.1-0.7c-2.7,0-5.1,0.6-7.2,1.7
		c-2.1,1.1-3.8,2.8-4.9,4.9c-1.2,2.1-1.7,4.5-1.7,7.1v5.3h-6.3v7.3h6.3v30.9h9.1v-30.9h13.5v19.6c0,8.1,3.8,12.2,11.3,12.2
		c1.2,0,2.5-0.1,3.9-0.4c1.4-0.3,2.3-0.6,2.8-0.9l0.1-0.1v-7.4l-0.4,0.2c-0.5,0.3-1.1,0.6-1.8,0.8c-0.7,0.2-1.3,0.3-1.8,0.3
		c-1.8,0-3.1-0.5-3.9-1.4c-0.8-0.9-1.2-2.6-1.2-4.9v-18.1L400.7,394.6L400.7,394.6L400.7,394.6z M333.3,419c-3.3,0-5.9-1.1-7.7-3.3
		c-1.8-2.2-2.8-5.3-2.8-9.2c0-4.1,0.9-7.2,2.8-9.4c1.8-2.2,4.4-3.3,7.7-3.3c3.2,0,5.7,1.1,7.5,3.2c1.8,2.1,2.7,5.3,2.7,9.4
		c0,4.2-0.9,7.3-2.6,9.5C339.1,417.9,336.6,419,333.3,419 M333.7,386.4c-6.3,0-11.3,1.8-14.9,5.5c-3.6,3.6-5.4,8.7-5.4,15
		c0,6,1.8,10.8,5.3,14.3c3.5,3.5,8.2,5.3,14.1,5.3c6.1,0,11-1.9,14.6-5.6c3.6-3.7,5.4-8.7,5.4-14.8c0-6.1-1.7-10.9-5-14.4
		C344.3,388.1,339.6,386.4,333.7,386.4 M298.7,386.4c-4.3,0-7.8,1.1-10.5,3.3c-2.7,2.2-4.1,5-4.1,8.5c0,1.8,0.3,3.4,0.9,4.7
		c0.6,1.4,1.5,2.6,2.7,3.6c1.2,1,3.1,2,5.5,3.1c2.1,0.9,3.6,1.6,4.6,2.1c1,0.6,1.6,1.1,2,1.7c0.4,0.5,0.6,1.3,0.6,2.2
		c0,2.6-1.9,3.8-5.9,3.8c-1.5,0-3.1-0.3-5-0.9c-1.8-0.6-3.5-1.5-5.1-2.6l-0.4-0.3v8.8l0.1,0.1c1.3,0.6,2.9,1.1,4.8,1.5
		c1.9,0.4,3.6,0.6,5.2,0.6c4.7,0,8.4-1.1,11.1-3.3c2.8-2.2,4.1-5.1,4.1-8.7c0-2.6-0.8-4.8-2.2-6.6c-1.5-1.8-4-3.4-7.6-4.8
		c-2.8-1.1-4.7-2.1-5.4-2.8c-0.7-0.7-1.1-1.7-1.1-2.9c0-1.1,0.5-2,1.4-2.7c0.9-0.7,2.2-1.1,3.9-1.1c1.5,0,3.1,0.2,4.6,0.7
		c1.5,0.5,2.9,1.1,4,1.9l0.4,0.3V388l-0.1-0.1c-1-0.4-2.4-0.8-4.1-1.1C301.5,386.5,300,386.4,298.7,386.4 M260.3,419
		c-3.3,0-5.9-1.1-7.7-3.3c-1.8-2.2-2.8-5.3-2.8-9.2c0-4.1,0.9-7.2,2.8-9.4c1.8-2.2,4.4-3.3,7.7-3.3c3.2,0,5.7,1.1,7.5,3.2
		c1.8,2.1,2.7,5.3,2.7,9.4c0,4.2-0.9,7.3-2.6,9.5C266.2,417.9,263.7,419,260.3,419 M260.7,386.4c-6.3,0-11.3,1.8-14.9,5.5
		c-3.6,3.6-5.4,8.7-5.4,15c0,6,1.8,10.8,5.3,14.3c3.5,3.5,8.2,5.3,14.1,5.3c6.1,0,11-1.9,14.6-5.6c3.6-3.7,5.4-8.7,5.4-14.8
		c0-6.1-1.7-10.9-5-14.4C271.4,388.1,266.7,386.4,260.7,386.4 M226.6,393.9v-6.6h-9v38.2h9V406c0-3.3,0.8-6.1,2.2-8.1
		c1.5-2,3.4-3.1,5.8-3.1c0.8,0,1.7,0.1,2.7,0.4c1,0.3,1.7,0.5,2.1,0.8l0.4,0.3v-9.1l-0.1-0.1c-0.8-0.4-2-0.5-3.5-0.5
		c-2.3,0-4.3,0.7-6,2.2C228.7,390.1,227.6,391.8,226.6,393.9L226.6,393.9z M201.5,386.4c-4.1,0-7.8,0.9-10.9,2.6
		c-3.1,1.7-5.6,4.2-7.2,7.4c-1.6,3.2-2.5,6.9-2.5,11c0,3.6,0.8,6.9,2.4,9.9c1.6,2.9,3.9,5.2,6.7,6.8c2.9,1.6,6.2,2.4,9.8,2.4
		c4.3,0,7.9-0.9,10.9-2.5l0.1-0.1v-8.2l-0.4,0.3c-1.3,1-2.8,1.7-4.4,2.3c-1.6,0.6-3,0.8-4.3,0.8c-3.5,0-6.4-1.1-8.4-3.3
		c-2.1-2.2-3.1-5.2-3.1-9.1c0-3.9,1.1-7,3.2-9.3c2.1-2.3,5-3.5,8.4-3.5c3,0,5.8,1,8.6,3l0.4,0.3v-8.7l-0.1-0.1c-1-0.6-2.4-1-4.2-1.4
		C204.8,386.6,203.2,386.4,201.5,386.4 M174.7,387.3h-9v38.2h9V387.3z M170.3,371c-1.5,0-2.8,0.5-3.8,1.5c-1.1,1-1.6,2.3-1.6,3.8
		c0,1.5,0.5,2.7,1.6,3.7c1,1,2.3,1.5,3.8,1.5c1.5,0,2.8-0.5,3.9-1.5c1.1-1,1.6-2.2,1.6-3.7c0-1.4-0.5-2.7-1.6-3.7
		C173.2,371.5,171.9,371,170.3,371 M147.9,384.5v41.1h9.2v-53.4h-12.7l-16.1,39.6l-15.7-39.6H99.3v53.4h8.6v-41.1h0.3l16.5,41.1h6.5
		l16.3-41.1L147.9,384.5L147.9,384.5z"/>
</g>
</svg>
