<?xml version="1.0" encoding="utf-8"?>
<!-- Generator: Adobe Illustrator 26.0.0, SVG Export Plug-In . SVG Version: 6.00 Build 0)  -->
<svg version="1.1" id="Layer_1" xmlns="http://www.w3.org/2000/svg" xmlns:xlink="http://www.w3.org/1999/xlink" x="0px" y="0px"
	 viewBox="0 0 500 500" style="enable-background:new 0 0 500 500;" xml:space="preserve">
<style type="text/css">
	.st0{fill:#5059C9;}
	.st1{fill:#7B83EB;}
	.st2{opacity:0.1;enable-background:new    ;}
	.st3{opacity:0.2;enable-background:new    ;}
	.st4{fill:url(#SVGID_1_);}
	.st5{fill:#FFFFFF;}
	.st6{fill:#555AAC;}
</style>
<g>
	<g>
		<path class="st0" d="M305.1,181.1h72.1c6.8,0,12.3,5.5,12.3,12.3l0,0v65.7c0,25-20.3,45.3-45.3,45.3l0,0H344
			c-25,0-45.3-20.3-45.3-45.3c0,0,0,0,0,0v-71.6C298.7,184,301.6,181.1,305.1,181.1L305.1,181.1z"/>
		<circle class="st0" cx="353.9" cy="138.9" r="29.2"/>
		<circle class="st1" cx="263" cy="126" r="42.2"/>
		<path class="st1" d="M319.2,181.1h-119c-6.7,0.2-12.1,5.8-11.9,12.5v74.9c-0.9,40.4,31,73.9,71.4,74.9c40.4-1,72.3-34.5,71.4-74.9
			v-74.9C331.3,186.9,326,181.3,319.2,181.1z"/>
		<path class="st2" d="M266.2,181.1v105c0,4.8-2.9,9.1-7.4,11c-1.4,0.6-2.9,0.9-4.5,0.9H194c-0.8-2.1-1.6-4.3-2.3-6.5
			c-2.3-7.4-3.4-15.2-3.4-23v-74.9c-0.2-6.7,5.2-12.3,11.9-12.5H266.2z"/>
		<path class="st3" d="M259.7,181.1v111.4c0,1.5-0.3,3.1-0.9,4.5c-1.8,4.5-6.2,7.4-11,7.4h-50.8c-1.1-2.1-2.1-4.3-3.1-6.5
			c-0.9-2.2-1.6-4.3-2.3-6.5c-2.3-7.4-3.4-15.2-3.4-23v-74.9c-0.2-6.7,5.2-12.3,11.9-12.5H259.7z"/>
		<path class="st3" d="M259.7,181.1v98.5c0,6.5-5.3,11.8-11.9,11.9h-56.1c-2.3-7.4-3.4-15.2-3.4-23v-74.9
			c-0.2-6.7,5.2-12.3,11.9-12.5H259.7z"/>
		<path class="st3" d="M253.2,181.1v98.5c0,6.5-5.3,11.8-11.9,11.9h-49.6c-2.3-7.4-3.4-15.2-3.4-23v-74.9
			c-0.2-6.7,5.2-12.3,11.9-12.5H253.2z"/>
		<path class="st2" d="M266.2,147.6V168c-1.1,0.1-2.1,0.1-3.2,0.1s-2.1-0.1-3.2-0.1c-2.2-0.1-4.4-0.5-6.5-1
			c-13.1-3.1-24-12.3-29.2-24.8c-0.9-2.1-1.6-4.3-2.1-6.5h32.4C260.9,135.7,266.2,141,266.2,147.6z"/>
		<path class="st3" d="M259.7,154.1v14c-2.2-0.1-4.4-0.5-6.5-1c-13.1-3.1-24-12.3-29.2-24.8h23.8
			C254.4,142.2,259.7,147.5,259.7,154.1z"/>
		<path class="st3" d="M259.7,154.1v14c-2.2-0.1-4.4-0.5-6.5-1c-13.1-3.1-24-12.3-29.2-24.8h23.8
			C254.4,142.2,259.7,147.5,259.7,154.1z"/>
		<path class="st3" d="M253.2,154.1V167c-13.1-3.1-24-12.3-29.2-24.8h17.3C247.9,142.2,253.2,147.5,253.2,154.1z"/>
		
			<linearGradient id="SVGID_1_" gradientUnits="userSpaceOnUse" x1="135.2548" y1="-1692.4387" x2="228.4385" y2="-1531.0483" gradientTransform="matrix(1 0 0 1 0 1825.3333)">
			<stop  offset="0" style="stop-color:#5A62C3"/>
			<stop  offset="0.5" style="stop-color:#4D55BD"/>
			<stop  offset="1" style="stop-color:#3940AB"/>
		</linearGradient>
		<path class="st4" d="M122.3,142.2h119c6.6,0,11.9,5.3,11.9,11.9v119c0,6.6-5.3,11.9-11.9,11.9h-119c-6.6,0-11.9-5.3-11.9-11.9
			v-119C110.4,147.5,115.8,142.2,122.3,142.2z"/>
		<path class="st5" d="M213.2,187.5h-23.8v64.8h-15.2v-64.8h-23.7v-12.6h62.6V187.5z"/>
	</g>
	<g>
		<path class="st6" d="M100.3,399.5c-0.3-5.1-0.6-11.3-0.5-15.9h-0.2c-1.3,4.3-2.8,8.9-4.6,14l-6.5,17.9h-3.6l-6-17.5
			c-1.7-5.2-3.2-9.9-4.3-14.3h-0.1c-0.1,4.6-0.4,10.8-0.7,16.3l-1,15.8h-4.5l2.6-36.8H77l6.3,17.8c1.5,4.5,2.8,8.6,3.7,12.4h0.2
			c0.9-3.7,2.2-7.8,3.9-12.4l6.6-17.8h6.1l2.3,36.8h-4.6L100.3,399.5z"/>
		<path class="st6" d="M119.1,381.8c0.1,1.6-1.1,2.9-3.1,2.9c-1.7,0-2.9-1.3-2.9-2.9c0-1.7,1.3-3,3-3
			C117.9,378.8,119.1,380.1,119.1,381.8z M113.7,415.6v-26.4h4.8v26.4H113.7z"/>
		<path class="st6" d="M145.3,414.6c-1.3,0.7-4,1.5-7.6,1.5c-8,0-13.2-5.4-13.2-13.5c0-8.1,5.6-14,14.2-14c2.8,0,5.3,0.7,6.7,1.4
			l-1.1,3.7c-1.1-0.7-2.9-1.3-5.6-1.3c-6.1,0-9.3,4.5-9.3,10c0,6.1,3.9,9.9,9.2,9.9c2.7,0,4.5-0.7,5.9-1.3L145.3,414.6z"/>
		<path class="st6" d="M150.9,397.4c0-3.1-0.1-5.8-0.2-8.2h4.2l0.2,5.2h0.2c1.2-3.5,4.1-5.8,7.3-5.8c0.5,0,0.9,0.1,1.4,0.2v4.5
			c-0.5-0.1-1-0.2-1.6-0.2c-3.4,0-5.8,2.6-6.4,6.2c-0.1,0.7-0.2,1.4-0.2,2.2v14.1h-4.7V397.4z"/>
		<path class="st6" d="M192.2,402.2c0,9.8-6.8,14-13.2,14c-7.2,0-12.7-5.2-12.7-13.6c0-8.8,5.8-14,13.1-14
			C187,388.6,192.2,394.1,192.2,402.2z M171.2,402.5c0,5.8,3.3,10.2,8,10.2c4.6,0,8-4.3,8-10.3c0-4.5-2.2-10.2-7.9-10.2
			C173.7,392.2,171.2,397.4,171.2,402.5z"/>
		<path class="st6" d="M197.6,410.7c1.4,0.9,3.9,1.9,6.3,1.9c3.5,0,5.1-1.7,5.1-3.9c0-2.3-1.4-3.5-4.9-4.9c-4.7-1.7-7-4.3-7-7.5
			c0-4.3,3.4-7.8,9.1-7.8c2.7,0,5,0.8,6.5,1.6l-1.2,3.5c-1-0.7-2.9-1.5-5.4-1.5c-2.8,0-4.4,1.6-4.4,3.6c0,2.2,1.6,3.2,5,4.5
			c4.6,1.7,6.9,4,6.9,8c0,4.6-3.6,7.9-9.9,7.9c-2.9,0-5.6-0.7-7.4-1.8L197.6,410.7z"/>
		<path class="st6" d="M243.7,402.2c0,9.8-6.8,14-13.2,14c-7.2,0-12.7-5.2-12.7-13.6c0-8.8,5.8-14,13.1-14
			C238.6,388.6,243.7,394.1,243.7,402.2z M222.8,402.5c0,5.8,3.3,10.2,8,10.2c4.6,0,8-4.3,8-10.3c0-4.5-2.2-10.2-7.9-10.2
			C225.2,392.2,222.8,397.4,222.8,402.5z"/>
		<path class="st6" d="M250.3,415.6v-22.8h-3.7v-3.7h3.7v-1.3c0-3.7,0.8-7.1,3.1-9.2c1.8-1.7,4.2-2.5,6.4-2.5c1.7,0,3.2,0.4,4.1,0.8
			l-0.7,3.7c-0.7-0.3-1.7-0.6-3.1-0.6c-4.1,0-5.1,3.6-5.1,7.6v1.4h6.4v3.7h-6.4v22.8H250.3z"/>
		<path class="st6" d="M272.1,381.6v7.6h6.9v3.7h-6.9v14.2c0,3.3,0.9,5.1,3.6,5.1c1.3,0,2.2-0.2,2.8-0.3l0.2,3.6
			c-0.9,0.4-2.4,0.7-4.3,0.7c-2.2,0-4-0.7-5.2-2c-1.4-1.4-1.9-3.8-1.9-6.9v-14.4h-4.1v-3.7h4.1v-6.3L272.1,381.6z"/>
		<path class="st6" d="M300.9,382.9h-11.2v-4H317v4h-11.2v32.8h-4.8V382.9z"/>
		<path class="st6" d="M319.7,403.3c0.1,6.5,4.3,9.2,9.1,9.2c3.4,0,5.5-0.6,7.3-1.4l0.8,3.4c-1.7,0.8-4.6,1.6-8.8,1.6
			c-8.1,0-13-5.3-13-13.3c0-8,4.7-14.2,12.4-14.2c8.6,0,10.9,7.6,10.9,12.4c0,1-0.1,1.7-0.2,2.2H319.7z M333.8,399.8
			c0.1-3.1-1.3-7.8-6.7-7.8c-4.9,0-7,4.5-7.4,7.8H333.8z"/>
		<path class="st6" d="M359,415.6l-0.4-3.3h-0.2c-1.5,2.1-4.3,3.9-8.1,3.9c-5.3,0-8.1-3.8-8.1-7.6c0-6.4,5.7-9.9,15.9-9.8v-0.5
			c0-2.2-0.6-6.1-6-6.1c-2.5,0-5,0.8-6.9,2l-1.1-3.2c2.2-1.4,5.3-2.3,8.7-2.3c8.1,0,10,5.5,10,10.8v9.9c0,2.3,0.1,4.5,0.4,6.3H359z
			 M358.3,402.1c-5.2-0.1-11.2,0.8-11.2,6c0,3.1,2.1,4.6,4.5,4.6c3.4,0,5.6-2.2,6.4-4.4c0.2-0.5,0.3-1,0.3-1.5V402.1z"/>
		<path class="st6" d="M370.7,396.4c0-2.7-0.1-5-0.2-7.2h4.2l0.2,4.3h0.2c1.5-2.5,3.9-4.9,8.3-4.9c3.6,0,6.3,2.2,7.5,5.3h0.1
			c0.8-1.5,1.9-2.6,2.9-3.4c1.6-1.2,3.3-1.9,5.8-1.9c3.5,0,8.7,2.3,8.7,11.5v15.6h-4.7v-15c0-5.1-1.9-8.1-5.7-8.1
			c-2.7,0-4.9,2-5.7,4.4c-0.2,0.7-0.4,1.5-0.4,2.4v16.3h-4.7v-15.8c0-4.2-1.9-7.3-5.5-7.3c-3,0-5.2,2.4-6,4.8
			c-0.3,0.7-0.4,1.5-0.4,2.3v15.9h-4.7V396.4z"/>
		<path class="st6" d="M415.6,410.7c1.4,0.9,3.9,1.9,6.3,1.9c3.5,0,5.1-1.7,5.1-3.9c0-2.3-1.4-3.5-4.9-4.9c-4.7-1.7-7-4.3-7-7.5
			c0-4.3,3.4-7.8,9.1-7.8c2.7,0,5,0.8,6.5,1.6l-1.2,3.5c-1-0.7-2.9-1.5-5.4-1.5c-2.8,0-4.4,1.6-4.4,3.6c0,2.2,1.6,3.2,5,4.5
			c4.6,1.7,6.9,4,6.9,8c0,4.6-3.6,7.9-9.9,7.9c-2.9,0-5.6-0.7-7.4-1.8L415.6,410.7z"/>
	</g>
</g>
</svg>
