<?xml version="1.0" encoding="utf-8"?>
<!-- Generator: Adobe Illustrator 26.0.0, SVG Export Plug-In . SVG Version: 6.00 Build 0)  -->
<svg version="1.1" id="Layer_1" xmlns="http://www.w3.org/2000/svg" xmlns:xlink="http://www.w3.org/1999/xlink" x="0px" y="0px"
	 viewBox="0 0 500 500" style="enable-background:new 0 0 500 500;" xml:space="preserve">
<style type="text/css">
	.st0{fill:#10AA50;}
	.st1{fill:#B8C4C2;}
	.st2{fill:#12924F;}
	.st3{fill:#21313C;}
</style>
<g>
	<path class="st0" d="M77.3,237.9c-6.3-27.7-19.3-35-22.7-40.2c-1.4-2.3-2.6-4.7-3.6-7.1c-0.2,2.5-0.5,4-2.6,5.9
		c-4.2,3.7-22,18.2-23.5,49.7c-1.4,29.3,21.5,47.4,24.6,49.2c2.3,1.1,5.2,0,6.6-1C67.1,286.7,82.2,266.4,77.3,237.9"/>
	<path class="st1" d="M51.9,279.7c-0.6,7.3-1,11.5-2.5,15.6c0,0,1,6.9,1.6,14.2h2.4c0.6-5.1,1.4-10.3,2.6-15.3
		C53,292.7,52,286,51.9,279.7z"/>
	<path class="st2" d="M56.1,294.2L56.1,294.2c-3.1-1.4-4-8.2-4.2-14.5c0.8-10.4,1-20.8,0.7-31.3c-0.2-5.5,0.1-50.7-1.3-57.3
		c1,2.2,2.1,4.4,3.4,6.5c3.3,5.2,16.4,12.6,22.7,40.2C82.2,266.4,67.1,286.6,56.1,294.2z"/>
	<path class="st3" d="M468.4,284.2c-3.8,0-6.8-3-6.8-6.8c0-3.8,3-6.8,6.8-6.8c3.7,0,6.7,3,6.8,6.7c0.1,3.7-2.8,6.8-6.5,6.9
		C468.6,284.2,468.5,284.2,468.4,284.2 M468.4,271.2c-3.4,0-6.2,2.7-6.2,6.1s2.7,6.2,6.1,6.2c3.4,0,6.2-2.7,6.2-6.1c0,0,0,0,0,0
		c0.1-3.4-2.6-6.1-6-6.2C468.5,271.2,468.4,271.2,468.4,271.2 M470,281.7l-1.8-3.8h-1.4v3.8h-1v-8.6h2.5c1.9,0,2.7,0.8,2.7,2.4
		c0,1.3-0.6,2-1.7,2.3l1.8,3.9L470,281.7z M466.9,277h1.5c1.2,0,1.7-0.4,1.7-1.5c0-1.1-0.4-1.5-1.8-1.5h-1.4V277z"/>
	<path class="st3" d="M367.3,278c1.8,1.5,5.5,2.1,8.7,2.1c4.2,0,8.3-0.8,12.3-4.4c4.1-3.7,6.9-9.4,6.9-18.5c0-8.7-3.3-15.8-10.1-20
		c-3.8-2.4-8.8-3.4-14.5-3.4c-1.6,0-3.3,0.1-4.3,0.5c-0.4,0.3-0.7,0.7-0.8,1.2c-0.2,1.6-0.2,13.4-0.2,20.4c0,7.2,0,17.2,0.2,18.4
		C365.6,275.4,366.2,277.2,367.3,278 M349.8,229.9c1.5,0,7.1,0.3,9.8,0.3c4.9,0,8.3-0.3,17.5-0.3c7.7,0,14.2,2.1,18.8,6.1
		c5.6,4.8,8.6,11.6,8.6,19.8c0,11.7-5.3,18.4-10.7,22.2c-5.3,4-12.2,6.2-22.1,6.2c-5.2,0-14.3-0.2-21.8-0.3h-0.2
		c-0.4-0.7,0.6-3.4,1.3-3.5c2-0.2,2.6-0.3,3.5-0.7c1.6-0.7,2-1.5,2.1-4.3c0.3-5.4,0.2-11.8,0.2-19c0-5.2,0.1-15.3-0.1-18.5
		c-0.3-2.7-1.4-3.4-3.7-3.9c-1.6-0.3-3.3-0.6-4.9-0.8C348,232.8,349.4,230.4,349.8,229.9"/>
	<path class="st3" d="M426.2,234.3c-0.3,0.1-0.8,1-0.8,1.4c-0.1,3.1-0.2,11.2-0.2,16.9c0,0.2,0.2,0.4,0.4,0.4
		c1.1,0.1,3.9,0.2,6.3,0.2c3.3,0,5.2-0.4,6.3-1c2.8-1.4,4.1-4.4,4.1-7.7c0-7.5-5.2-10.4-13-10.4
		C428.2,234.1,427.2,234.2,426.2,234.3 M446,268.9c0-7.6-5.6-11.9-15.8-11.9c-0.4,0-3.7-0.1-4.5,0.1c-0.3,0.1-0.5,0.3-0.5,0.4
		c0,5.4-0.1,14.2,0.2,17.6c0.2,1.5,1.2,3.5,2.5,4.2c1.4,0.8,4.5,0.9,6.7,0.9C440.7,280.2,446,276.9,446,268.9 M410.4,230.1
		c0.8,0,3.1,0.3,9.1,0.3c5.6,0,10.1-0.2,15.6-0.2c6.7,0,16,2.4,16,12.5c0,4.9-3.5,8.9-8,10.8c-0.3,0.1-0.3,0.3,0,0.3
		c6.5,1.6,12.2,5.6,12.2,13.2c0,7.4-4.6,12.1-11.4,15.1c-4.1,1.8-9.2,2.4-14.3,2.4c-3.9,0-14.5-0.4-20.3-0.3c-0.6-0.3,0.6-3,1.1-3.5
		c1.3,0,2.7-0.3,4-0.6c2.1-0.5,2.3-1.2,2.6-4.3c0.2-2.7,0.2-12.3,0.2-19.1c0-9.3,0.1-15.7,0-18.8c-0.1-2.4-1-3.2-2.6-3.6
		c-1.3-0.3-3.5-0.5-5.2-0.8C408.6,233,409.9,230.4,410.4,230.1"/>
	<path class="st3" d="M96.6,284.2c-0.2-0.6-0.3-1.2-0.3-1.7c0-0.4,0.1-0.8,0.3-1.2c1.1-0.2,2.3-0.4,3.4-0.7c1.5-0.4,2.1-1.2,2.2-3.2
		c0.3-4.7,0.3-13.4,0.2-19.6v-0.2c0-0.7,0-1.6-0.8-2.2c-1.4-0.9-3-1.6-4.6-2c-0.7-0.2-1.1-0.6-1.1-1.1c0-0.5,0.5-1,1.4-1.2
		c2.5-0.3,9.2-1.8,11.8-3c0.3,0.3,0.4,0.8,0.3,1.2c0,0.3,0,0.6-0.1,0.9c-0.1,0.9-0.2,1.9-0.2,2.8c0,0.4,0.4,0.6,0.7,0.6
		c0.1,0,0.3-0.1,0.4-0.2c5-3.9,9.4-5.3,11.7-5.3c3.8,0,6.7,1.8,8.9,5.5c0.1,0.2,0.3,0.3,0.5,0.3c0.2,0,0.4-0.1,0.5-0.3
		c4.6-3.5,9.1-5.5,12.1-5.5c7.2,0,11.4,5.4,11.4,14.3c0,2.6,0,5.9,0,8.9c0,2.7,0,5.2,0,6.9c0,0.4,0.6,1.6,1.4,1.8
		c1,0.5,2.6,0.8,4.5,1.1h0.1c0.1,0.5-0.2,2.5-0.5,2.9c-0.5,0-1.1,0-1.9-0.1c-1.5-0.1-3.5-0.2-5.9-0.2c-4.8,0-7.2,0.1-9.6,0.2
		c-0.2-0.6-0.2-2.5,0-2.9c1-0.2,2-0.4,2.9-0.6c1.5-0.5,2-1.2,2-3.2c0-1.4,0.3-14-0.2-17c-0.5-3.1-2.8-6.7-7.9-6.7
		c-1.9,0-5,0.8-7.9,3c-0.2,0.2-0.3,0.5-0.3,0.7v0.1c0.3,1.6,0.3,3.5,0.3,6.3c0,1.6,0,3.3,0,5.1c0,3.5,0,6.7,0,9.2
		c0,1.7,1,2.1,1.8,2.4c0.4,0.1,0.8,0.2,1.2,0.3c0.7,0.2,1.4,0.3,2.5,0.5c0.2,0.7,0.1,1.5,0,2.2c0,0.3-0.1,0.5-0.3,0.7
		c-2.6-0.1-5.4-0.2-9.3-0.2c-1.2,0-3.1,0-4.8,0.1c-1.4,0-2.7,0.1-3.4,0.1c-0.2-0.5-0.3-1-0.3-1.5c0-0.5,0.1-1,0.3-1.4l1.1-0.2
		c0.9-0.2,1.7-0.3,2.5-0.5c1.3-0.4,1.8-1.1,1.9-2.8c0.3-3.8,0.5-14.9-0.1-17.7c-0.9-4.5-3.5-6.7-7.5-6.7c-2.4,0-5.4,1.2-7.9,3
		c-0.5,0.5-0.7,1.1-0.7,1.8c0,1.3,0,2.9,0,4.6c0,5.6,0,12.5,0.1,15.5c0.1,0.9,0.4,2,2.1,2.4c0.4,0.1,1,0.2,1.8,0.3
		c0.4,0.1,0.9,0.2,1.4,0.2c0.2,1,0.1,2-0.2,2.9c-0.8,0-1.7,0-2.8-0.1c-1.6-0.1-3.7-0.2-6-0.2c-2.7,0-4.6,0.1-6.2,0.2
		C98.4,284.1,97.5,284.2,96.6,284.2"/>
	<path class="st3" d="M184.4,251.8c-1.5,0-2.9,0.4-4.2,1.2c-3,1.8-4.6,5.5-4.6,11c0,10.1,5.1,17.2,12.4,17.2c2,0.1,3.9-0.6,5.3-1.9
		c2.2-1.8,3.4-5.5,3.4-10.8C196.8,258.6,191.8,251.8,184.4,251.8 M185.8,285c-13.1,0-17.8-9.6-17.8-18.7c0-6.3,2.6-11.2,7.7-14.6
		c3.6-2.2,7.6-3.4,11.8-3.5c10,0,17,7.2,17,17.5c0,7-2.8,12.6-8.1,16C193.9,283.3,189.5,285,185.8,285"/>
	<path class="st3" d="M318.2,251.8c-1.5,0-2.9,0.4-4.2,1.2c-3,1.8-4.6,5.5-4.6,11c0,10.1,5.1,17.2,12.4,17.2c2,0.1,3.9-0.6,5.3-1.9
		c2.2-1.8,3.4-5.5,3.4-10.8C330.6,258.6,325.6,251.8,318.2,251.8 M319.6,285c-13.1,0-17.8-9.6-17.8-18.7c0-6.3,2.6-11.2,7.7-14.6
		c3.6-2.2,7.6-3.4,11.8-3.5c10,0,17,7.2,17,17.5c0,7-2.8,12.6-8.1,16C327.7,283.3,323.3,285,319.6,285"/>
	<path class="st3" d="M274,251.5c-4,0-6.7,3.2-6.7,8.1c0,4.9,2.3,10.8,8.6,10.8c1.1,0,3.1-0.5,4-1.6c1.5-1.4,2.5-4.2,2.5-7.1
		C282.4,255.3,279.3,251.5,274,251.5 M273.5,285.7c-1.1,0-2.3,0.3-3.3,0.8c-3.2,2-4.7,4.1-4.7,6.5c0,2.2,0.9,4,2.7,5.6
		c2.3,1.9,5.3,2.8,9.3,2.8c7.9,0,11.4-4.2,11.4-8.4c0-2.9-1.5-4.9-4.5-6C282.1,286.1,278.2,285.7,273.5,285.7 M274,305.7
		c-4.7,0-8.1-1-11-3.2c-2.8-2.2-4.1-5.4-4.1-7.6c0-1.4,0.6-2.8,1.5-3.9c0.8-0.9,2.7-2.7,7.1-5.7c0.1-0.1,0.2-0.2,0.2-0.3
		c0-0.2-0.1-0.3-0.3-0.4c-3.6-1.4-4.7-3.7-5-4.9c0,0,0-0.1,0-0.2c-0.1-0.5-0.2-0.9,0.5-1.4c0.5-0.4,1.3-0.8,2.2-1.4
		c1.2-0.7,2.4-1.4,3.5-2.3c0.2-0.2,0.2-0.6,0-0.8c0,0-0.1-0.1-0.1-0.1c-5.4-1.8-8.1-5.8-8.1-11.9c0-3.9,1.8-7.5,5-9.7
		c2.2-1.7,7.6-3.8,11.1-3.8h0.2c3.6,0.1,5.6,0.8,8.5,1.9c1.6,0.6,3.3,0.8,5,0.8c3,0,4.3-0.9,5.4-2c0.2,0.5,0.3,1,0.3,1.5
		c0.1,1.3-0.3,2.5-1,3.6c-0.6,0.8-2,1.5-3.4,1.5c-0.1,0-0.3,0-0.4,0c-0.7,0-1.4-0.2-2-0.3l-0.3,0.1c-0.1,0.2,0,0.3,0,0.5
		c0,0,0,0.1,0,0.1c0.2,1.1,0.4,2.2,0.5,3.3c0,6.4-2.5,9.1-5.2,11.2c-2.6,2-5.7,3.2-9,3.5l0,0c-0.1,0-0.4,0-1,0.1
		c-0.4,0-0.9,0.1-1,0.1h-0.1c-0.6,0.2-2.1,0.9-2.1,2.3c0,1.1,0.7,2.5,4,2.8l2.2,0.2c4.4,0.3,9.9,0.7,12.5,1.6
		c3.5,1.2,5.8,4.6,5.8,8.3c0,5.7-4.1,11.1-10.9,14.4C281.1,304.9,277.6,305.7,274,305.7"/>
	<path class="st3" d="M253.9,281.1c-1.9-0.3-3.3-0.5-5-1.3c-0.3-0.3-0.5-0.8-0.6-1.2c-0.2-2.7-0.2-10.5-0.2-15.6
		c0-4.2-0.7-7.8-2.5-10.4c-2.1-2.9-5.1-4.7-8.9-4.7c-3.4,0-8,2.3-11.7,5.5c-0.1,0.1-0.7,0.6-0.7-0.2c0-0.9,0.1-2.6,0.2-3.7
		c0.1-0.6-0.1-1.2-0.6-1.6c-2.5,1.2-9.3,2.9-11.9,3.1c-1.9,0.4-2.3,2.1-0.3,2.8h0c1.6,0.4,3.1,1.1,4.5,2c0.8,0.6,0.7,1.5,0.7,2.2
		c0.1,5.8,0.1,14.7-0.2,19.5c-0.1,1.9-0.6,2.6-2,2.9l0.1,0c-1.1,0.3-2.1,0.5-3.2,0.6c-0.4,0.4-0.4,2.9,0,3.5c0.9,0,5.3-0.3,9-0.3
		c5.1,0,7.7,0.3,9,0.3c0.5-0.6,0.7-2.9,0.4-3.5c-1.2-0.1-2.4-0.2-3.6-0.5c-1.4-0.3-1.7-1-1.8-2.6c-0.2-4.1-0.2-12.7-0.2-18.6
		c0-1.6,0.4-2.4,1-2.9c1.7-1.6,4.6-2.6,7.2-2.6c2.5,0,4.1,0.8,5.3,1.8c1.4,1.2,2.3,3,2.5,4.9c0.3,3.3,0.3,9.9,0.3,15.6
		c0,3.1-0.3,3.9-1.4,4.2c-0.5,0.3-1.9,0.5-3.6,0.7c-0.5,0.5-0.4,2.9,0,3.5c2.3,0,4.9-0.3,8.7-0.3c4.8,0,7.9,0.3,9.1,0.3
		C254.1,284,254.3,281.7,253.9,281.1"/>
</g>
</svg>
