<?xml version="1.0" encoding="utf-8"?>
<!-- Generator: Adobe Illustrator 26.0.0, SVG Export Plug-In . SVG Version: 6.00 Build 0)  -->
<svg version="1.1" id="Layer_1" xmlns="http://www.w3.org/2000/svg" xmlns:xlink="http://www.w3.org/1999/xlink" x="0px" y="0px"
	 viewBox="0 0 500 500" style="enable-background:new 0 0 500 500;" xml:space="preserve">
<style type="text/css">
	.st0{fill:#660066;}
	.st1{fill:#FFFFFF;}
</style>
<g>
	<path class="st0" d="M184.7,251.1c0.7,1.6,1.4,3.3,2.1,5c0.6-1.7,1.4-3.4,2.1-5.1c0.7-1.6,1.5-3.2,2.3-4.8l22-43.5
		c0.4-0.7,0.8-1.3,1.2-1.7c0.4-0.4,0.9-0.7,1.4-0.9c0.5-0.2,1.1-0.3,1.7-0.3h17.5v86h-17.6v-49.5c0-2.4,0.1-5,0.3-7.8l-22.8,44.2
		c-0.7,1.4-1.7,2.4-2.8,3.1c-1.2,0.7-2.6,1-4.1,1h-2.7c-1.5,0-2.9-0.3-4.1-1c-1.2-0.7-2.1-1.7-2.8-3.1l-23-44.3
		c0.2,1.4,0.3,2.8,0.3,4.1c0.1,1.4,0.1,2.6,0.1,3.8v49.5h-17.6v-86H156c0.7,0,1.2,0.1,1.7,0.3c0.5,0.2,1,0.5,1.4,0.9
		c0.4,0.4,0.8,1,1.2,1.7l22.1,43.7C183.2,247.9,184,249.5,184.7,251.1L184.7,251.1z M329.5,242.7c0,3.7-0.4,7.3-1.1,10.7
		c-0.8,3.4-1.9,6.6-3.3,9.6c-1.4,3-3.2,5.8-5.3,8.3c-2.1,2.6-4.5,4.8-7.2,6.8l21.8,23.8h-16.4c-2.4,0-4.5-0.3-6.4-0.9
		c-1.9-0.6-3.6-1.7-5.1-3.5l-10.7-12c-1.7,0.3-3.5,0.6-5.3,0.8c-1.8,0.2-3.6,0.3-5.5,0.3c-6.7,0-12.8-1.1-18.3-3.4
		c-5.5-2.2-10.2-5.3-14.1-9.3c-3.9-3.9-7-8.6-9.1-14c-2.1-5.3-3.2-11.2-3.2-17.4s1.1-12,3.2-17.4c2.1-5.3,5.2-10,9.1-14
		c3.9-3.9,8.6-7,14.1-9.3c5.5-2.2,11.6-3.4,18.3-3.4c6.7,0,12.8,1.1,18.3,3.4s10.2,5.4,14.1,9.3c3.9,3.9,6.9,8.6,9.1,14
		C328.5,230.8,329.5,236.5,329.5,242.7L329.5,242.7z M309.1,242.7c0-4.2-0.6-8.1-1.7-11.5c-1.1-3.4-2.7-6.3-4.8-8.7
		c-2.1-2.4-4.6-4.2-7.6-5.4c-3-1.3-6.4-1.9-10.2-1.9c-3.8,0-7.3,0.6-10.3,1.9c-3,1.3-5.6,3.1-7.6,5.4s-3.6,5.2-4.8,8.7
		c-1.1,3.4-1.7,7.2-1.7,11.5s0.6,8.1,1.7,11.5c1.1,3.4,2.7,6.3,4.8,8.7c2.1,2.4,4.6,4.2,7.6,5.4c3,1.2,6.4,1.9,10.3,1.9
		c3.8,0,7.2-0.6,10.2-1.9c3-1.2,5.5-3.1,7.6-5.4s3.6-5.2,4.8-8.7S309.1,247,309.1,242.7z M393.6,199.7v15.8h-23.3v70.2h-19.9v-70.2
		H327v-15.8H393.6z M470,199.7v15.8h-24.2v70.2h-19.9v-70.2h-23.3v-15.8H470z"/>
	<path class="st1" d="M30.1,206.9v13.6h0.3c36.9,0,67,29.7,67.3,66.4h13.2C110.5,242.8,74.4,207,30.1,206.9z M30.1,234.9v13.6h0.3
		c21.4,0,38.8,17.2,39.1,38.4h13.2C82.3,258.2,58.9,235,30.1,234.9L30.1,234.9z M118.8,251.7v-27.3c-3.4-4.6-7.5-9.8-11.7-13.9
		c-4.6-4.6-10.1-8.7-15.3-12.4h-29C88.2,207.3,108.6,226.9,118.8,251.7z"/>
	<path class="st0" d="M30.3,248.4H30v33.9c0,2.4,2,4.5,4.5,4.5h34.9C69.1,265.6,51.7,248.4,30.3,248.4z M30.3,220.4H30v14.4
		c28.8,0.1,52.3,23.3,52.6,52h15C97.3,250.2,67.3,220.4,30.3,220.4z M118.8,282.4v-30.7c-10.1-24.8-30.6-44.5-56-53.6H34.5
		c-2.4,0-4.5,2-4.5,4.5v4.3c44.3,0.1,80.4,35.9,80.7,79.9h3.6C116.8,286.8,118.8,284.9,118.8,282.4L118.8,282.4z M107.1,210.5
		c4.1,4.1,8.3,9.3,11.7,13.9v-21.9c0-2.4-2-4.4-4.4-4.4c0,0,0,0,0,0H91.8C97.1,201.8,102.5,205.9,107.1,210.5z"/>
</g>
</svg>
