<?xml version="1.0" encoding="utf-8"?>
<!-- Generator: Adobe Illustrator 26.0.0, SVG Export Plug-In . SVG Version: 6.00 Build 0)  -->
<svg version="1.1" id="Layer_1" xmlns="http://www.w3.org/2000/svg" xmlns:xlink="http://www.w3.org/1999/xlink" x="0px" y="0px"
	 viewBox="0 0 500 500" style="enable-background:new 0 0 500 500;" xml:space="preserve">
<style type="text/css">
	.st0{fill-rule:evenodd;clip-rule:evenodd;fill:#146AB3;}
	.st1{fill-rule:evenodd;clip-rule:evenodd;fill:#FFFFFF;}
	.st2{fill-rule:evenodd;clip-rule:evenodd;}
</style>
<g>
	<g>
		<polygon class="st0" points="186.9,177.4 25.4,233 25.4,314.3 186.9,322.6 		"/>
		<path class="st1" d="M42.3,254.4c-1.5-0.4-2.3-1.9-1.9-3.4c0.4-1.5,1.9-2.3,3.4-1.9l55.3,15.6l56.8-47.2c1.2-1,2.9-0.8,3.9,0.4
			c1,1.2,0.8,2.9-0.4,3.9l-57.7,48c-0.7,0.7-1.7,0.9-2.7,0.7L42.3,254.4z"/>
	</g>
	<g>
		<path class="st2" d="M285.3,318.7h-8.2V272c0-3.7,0.2-8.2,0.7-13.5h-0.2c-0.8,3.1-1.5,5.4-2.1,6.7l-23.8,53.5h-4L224,265.6
			c-0.7-1.6-1.4-3.9-2.1-7.1h-0.2c0.2,2.8,0.4,7.3,0.4,13.6v46.6h-7.9v-69.6H225l21.3,48.5c1.7,3.7,2.7,6.5,3.2,8.4h0.3
			c1.4-3.8,2.5-6.7,3.3-8.6l21.8-48.3h10.2V318.7L285.3,318.7z M292.9,315.9v-9.6c1.1,1,2.4,1.8,4,2.6c1.5,0.8,3.1,1.4,4.8,2
			c1.7,0.5,3.4,0.9,5.1,1.2c1.7,0.3,3.3,0.4,4.8,0.4c5,0,8.8-0.9,11.2-2.8c2.5-1.9,3.7-4.5,3.7-8c0-1.9-0.4-3.5-1.2-4.9
			c-0.8-1.4-2-2.7-3.4-3.8c-1.5-1.2-3.2-2.3-5.2-3.3c-2-1-4.1-2.2-6.4-3.3c-2.4-1.2-4.7-2.5-6.8-3.7c-2.1-1.3-3.9-2.7-5.5-4.2
			c-1.5-1.5-2.8-3.2-3.7-5.2c-0.9-1.9-1.3-4.2-1.3-6.8c0-3.2,0.7-5.9,2.1-8.3c1.4-2.4,3.2-4.3,5.5-5.8c2.3-1.5,4.8-2.7,7.7-3.4
			c2.9-0.7,5.8-1.1,8.9-1.1c6.9,0,11.9,0.8,15,2.5v9.1c-4.1-2.9-9.4-4.3-15.8-4.3c-1.8,0-3.5,0.2-5.3,0.6c-1.8,0.4-3.4,1-4.8,1.8
			c-1.4,0.8-2.5,1.9-3.4,3.3c-0.9,1.3-1.3,2.9-1.3,4.9c0,1.8,0.3,3.3,1,4.6c0.7,1.3,1.6,2.5,2.9,3.5c1.3,1.1,2.9,2.1,4.7,3.1
			c1.9,1,4,2.1,6.4,3.3c2.5,1.2,4.9,2.5,7.1,3.9c2.2,1.4,4.2,2.9,5.9,4.5c1.7,1.7,3,3.5,4,5.5c1,2,1.5,4.3,1.5,6.9
			c0,3.4-0.7,6.3-2,8.7c-1.3,2.4-3.2,4.3-5.4,5.8c-2.3,1.5-4.9,2.6-7.9,3.2c-3,0.7-6.1,1-9.4,1c-1.1,0-2.5-0.1-4.1-0.3
			c-1.6-0.2-3.3-0.4-5-0.8c-1.7-0.3-3.3-0.8-4.8-1.3C295,317.1,293.8,316.5,292.9,315.9L292.9,315.9z M393.6,313.9
			c-7,4-14.7,5.9-23.3,5.9c-9.9,0-18-3.2-24.1-9.6c-6.1-6.4-9.2-14.9-9.2-25.5c0-10.8,3.4-19.6,10.2-26.5
			c6.8-6.9,15.4-10.4,25.9-10.4c7.6,0,13.9,1.2,19.1,3.7v9c-5.6-3.6-12.3-5.4-20-5.4c-7.8,0-14.2,2.7-19.2,8.1
			c-5,5.4-7.5,12.3-7.5,20.9c0,8.8,2.3,15.7,6.9,20.8c4.6,5,10.9,7.6,18.8,7.6c5.4,0,10.1-1.1,14.1-3.2v-19.5h-15.2v-7.4h23.4V313.9
			z"/>
		<path class="st0" d="M442,279.7c0,6.4-0.6,12-1.9,17c-1.3,5-3.1,9.2-5.5,12.6c-2.4,3.4-5.4,6.1-8.9,7.9c-3.5,1.8-7.5,2.7-11.9,2.7
			c-4.6,0-8.6-0.8-12.1-2.4v-7.6c3.8,2.2,8,3.3,12.3,3.3c3.1,0,5.9-0.6,8.4-1.9c2.5-1.3,4.6-3.2,6.3-5.7c1.7-2.5,3-5.5,3.9-9.2
			c0.9-3.6,1.4-7.8,1.4-12.5h-0.2c-3,6-8.2,9-15.5,9c-3,0-5.7-0.5-8.2-1.6c-2.5-1.1-4.6-2.5-6.5-4.5c-1.8-1.9-3.2-4.2-4.2-6.9
			c-1-2.7-1.5-5.6-1.5-8.8c0-3.4,0.6-6.6,1.7-9.4c1.1-2.9,2.7-5.3,4.7-7.4c2-2.1,4.4-3.6,7.1-4.8c2.7-1.1,5.7-1.7,9-1.7
			c3.5,0,6.6,0.7,9.3,2.1c2.7,1.4,5,3.5,6.8,6.2c1.9,2.7,3.3,6,4.2,10C441.5,270.1,442,274.6,442,279.7L442,279.7z M433.4,272.6
			c0-2.7-0.3-5.1-1-7.3c-0.7-2.2-1.7-4.1-2.9-5.7c-1.2-1.6-2.7-2.8-4.4-3.6c-1.7-0.9-3.6-1.3-5.6-1.3c-1.9,0-3.7,0.4-5.3,1.1
			c-1.7,0.8-3.1,1.8-4.3,3.2c-1.2,1.4-2.2,3-2.9,4.9c-0.7,1.9-1,4-1,6.2c0,2.5,0.3,4.7,1,6.6c0.7,1.9,1.6,3.6,2.8,4.9
			c1.2,1.4,2.7,2.4,4.4,3.1c1.7,0.7,3.6,1.1,5.8,1.1c1.8,0,3.6-0.3,5.2-1c1.6-0.7,3.1-1.6,4.3-2.8c1.2-1.2,2.2-2.6,2.9-4.2
			C433.1,276.1,433.4,274.4,433.4,272.6L433.4,272.6z M474.6,318.7h-8v-60.2c-0.6,0.6-1.5,1.3-2.7,2.1c-1.2,0.8-2.5,1.6-4,2.4
			c-1.5,0.8-3,1.5-4.7,2.2c-1.6,0.7-3.2,1.2-4.8,1.6v-8.1c1.7-0.5,3.6-1.1,5.6-2c2-0.8,3.9-1.8,5.8-2.8c1.9-1,3.7-2.1,5.4-3.2
			c1.7-1.1,3.1-2.2,4.4-3.3h3V318.7z"/>
	</g>
</g>
</svg>
