<?xml version="1.0" encoding="utf-8"?>
<!-- Generator: Adobe Illustrator 26.0.0, SVG Export Plug-In . SVG Version: 6.00 Build 0)  -->
<svg version="1.1" id="Layer_1" xmlns="http://www.w3.org/2000/svg" xmlns:xlink="http://www.w3.org/1999/xlink" x="0px" y="0px"
	 viewBox="0 0 500 500" style="enable-background:new 0 0 500 500;" xml:space="preserve">
<style type="text/css">
	.st0{fill:#00618A;}
	.st1{fill:#E48E00;}
	.st2{fill-rule:evenodd;clip-rule:evenodd;fill:#00618A;}
	.st3{fill-rule:evenodd;clip-rule:evenodd;fill:#E48E00;}
</style>
<g>
	<path class="st0" d="M29.4,343.6h14.5v-57.4l22.5,50c2.7,6,6.3,8.2,13.4,8.2s10.6-2.1,13.3-8.2l22.5-50v57.4h14.5v-57.3
		c0-5.6-2.2-8.3-6.9-9.7c-11-3.4-18.5-0.5-21.8,7L79.4,333L58,283.6c-3.2-7.5-10.8-10.4-21.8-7c-4.6,1.4-6.9,4.1-6.9,9.7V343.6z
		 M142.2,296.9h14.5v31.6c-0.1,1.7,0.6,5.8,8.5,5.9c4.1,0.1,31.4,0,31.6,0v-37.7h14.6c0.1,0,0,51.4,0,51.6
		c0.1,12.7-15.7,15.4-23,15.6h-45.9v-9.8l46,0c9.4-1,8.3-5.6,8.3-7.2v-3.8h-30.9c-14.4-0.1-23.5-6.4-23.6-13.6
		C142.2,328.9,142.6,297.2,142.2,296.9L142.2,296.9z"/>
	<path class="st1" d="M222.7,343.6h41.8c4.9,0,9.6-1,13.4-2.8c6.3-2.9,9.4-6.8,9.4-11.9v-10.6c0-4.2-3.5-8.1-10.3-10.7
		c-3.6-1.4-8.1-2.1-12.4-2.1h-17.6c-5.9,0-8.7-1.8-9.4-5.7c-0.1-0.5-0.1-0.9-0.1-1.3v-6.6c0-0.4,0-0.7,0.1-1.2
		c0.7-3,2.2-3.8,7.4-4.3c0.4,0,1-0.1,1.4-0.1h41.5v-9.7H247c-5.9,0-8.9,0.4-11.7,1.2c-8.7,2.7-12.5,7-12.5,14.5v8.5
		c0,6.5,7.4,12.1,19.8,13.4c1.4,0.1,2.8,0.2,4.2,0.2h15.1c0.6,0,1.1,0,1.5,0.1c4.6,0.4,6.6,1.2,8,2.9c0.9,0.9,1.1,1.7,1.1,2.6v8.5
		c0,1-0.7,2.3-2.1,3.4c-1.3,1.1-3.4,1.9-6.2,2.1c-0.6,0-1,0.1-1.5,0.1h-40.1L222.7,343.6L222.7,343.6z M377.9,326.8
		c0,10,7.4,15.6,22.4,16.7c1.4,0.1,2.8,0.2,4.2,0.2h37.9v-9.7h-38.2c-8.5,0-11.7-2.1-11.7-7.3v-50.1h-14.5L377.9,326.8L377.9,326.8z
		 M296.5,327.3v-34.6c0-8.8,6.2-14.1,18.3-15.8c1.3-0.2,2.6-0.3,3.9-0.3h27.6c1.4,0,2.7,0.1,4.1,0.3c12.2,1.7,18.3,7,18.3,15.8v34.6
		c0,7.1-2.6,10.9-8.7,13.4l14.3,12.9h-16.9L346,343.1l-11.7,0.7h-15.5c-2.7,0-5.5-0.4-8.5-1.2C301,340.1,296.5,335.3,296.5,327.3
		L296.5,327.3z M312.2,326.4c0,0.5,0.1,0.9,0.3,1.5c0.9,4,4.6,6.3,10.3,6.3h13.2l-12.1-11h16.9l10.6,9.6c2-1,3.2-2.6,3.7-4.7
		c0.1-0.5,0.1-0.9,0.1-1.4v-33.1c0-0.4,0-0.9-0.1-1.3c-0.9-3.7-4.6-5.9-10.2-5.9h-21.9c-6.5,0-10.6,2.8-10.6,7.2L312.2,326.4
		L312.2,326.4z"/>
	<g>
		<path class="st0" d="M455.2,260.4c-8.9-0.2-15.8,0.6-21.6,3c-1.7,0.7-4.3,0.7-4.6,2.8c0.9,1,1.1,2.4,1.8,3.6
			c1.4,2.3,3.7,5.3,5.8,6.9c2.3,1.7,4.7,3.6,7.1,5.1c4.4,2.7,9.3,4.2,13.5,6.9c2.5,1.6,4.9,3.6,7.4,5.3c1.2,0.9,2,2.2,3.6,2.8v-0.3
			c-0.8-1-1-2.5-1.8-3.6l-3.3-3.3c-3.2-4.3-7.3-8.1-11.7-11.2c-3.5-2.5-11.3-5.9-12.7-9.9l-0.3-0.3c2.5-0.3,5.4-1.2,7.6-1.8
			c3.8-1,7.2-0.8,11.2-1.8l5.3-1.5v-1c-2-2-3.4-4.8-5.6-6.6c-5.7-4.8-11.9-9.7-18.3-13.7c-3.5-2.2-7.9-3.7-11.7-5.6
			c-1.3-0.6-3.5-1-4.3-2c-2-2.5-3-5.7-4.6-8.6c-3.2-6.1-6.3-12.9-9.1-19.3c-1.9-4.4-3.2-8.8-5.6-12.7c-11.5-19-24-30.4-43.2-41.7
			c-4.1-2.4-9-3.3-14.2-4.6l-8.4-0.5c-1.7-0.7-3.5-2.8-5.1-3.8c-6.4-4-22.7-12.8-27.4-1.3c-3,7.3,4.5,14.4,7.1,18
			c1.9,2.6,4.3,5.5,5.6,8.4c0.9,1.9,1,3.8,1.8,5.8c1.8,5,3.5,10.4,5.8,15c1.2,2.3,2.5,4.8,4.1,6.9c0.9,1.3,2.5,1.8,2.8,3.8
			c-1.6,2.2-1.7,5.6-2.5,8.4c-4,12.5-2.5,28.1,3.3,37.4c1.8,2.8,5.9,8.9,11.7,6.6c5-2,3.9-8.4,5.3-14c0.3-1.3,0.1-2.2,0.8-3v0.3
			l4.6,9.1c3.4,5.5,9.4,11.2,14.5,15c2.6,2,4.7,5.4,8.1,6.6v-0.3h-0.3c-0.7-1-1.7-1.5-2.5-2.3c-2-2-4.2-4.4-5.8-6.6
			c-4.6-6.3-8.7-13.2-12.5-20.3c-1.8-3.4-3.3-7.2-4.8-10.7c-0.6-1.3-0.6-3.4-1.8-4.1c-1.6,2.6-4.1,4.6-5.3,7.6
			c-2,4.8-2.3,10.7-3,16.8c-0.4,0.2-0.2,0-0.5,0.3c-3.5-0.9-4.8-4.5-6.1-7.6c-3.3-7.9-3.9-20.6-1-29.7c0.8-2.4,4.2-9.8,2.8-11.9
			c-0.7-2.2-2.8-3.4-4.1-5.1c-1.5-2-3-4.7-4.1-7.1c-2.7-6.2-4-13.1-6.9-19.3c-1.4-3-3.7-6-5.6-8.6c-2.1-2.9-4.5-5.1-6.1-8.6
			c-0.6-1.3-1.4-3.3-0.5-4.6c0.2-0.8,0.8-1.4,1.5-1.5c1.5-1.1,5.6,0.4,7.1,1c4.1,1.7,7.5,3.3,10.9,5.6c1.7,1.1,3.3,3.2,5.3,3.8h2.3
			c3.6,0.8,7.6,0.3,10.9,1.3c5.9,1.8,11.2,4.6,16,7.6c14.6,9.2,26.6,22.4,34.8,38.1c1.3,2.5,1.9,4.9,3,7.6c2.3,5.4,5.3,11,7.6,16.3
			c2.3,5.3,4.6,10.6,7.9,15c1.7,2.3,8.4,3.5,11.4,4.8c2.1,0.9,5.6,1.8,7.6,3c3.8,2.3,7.6,5.1,11.2,7.6
			C449.4,255.4,454.9,258.2,455.2,260.4L455.2,260.4z"/>
		<path class="st2" d="M341.6,163.6c-1.9,0-3.2,0.2-4.6,0.5v0.3h0.3c0.9,1.8,2.5,3,3.6,4.6l2.5,5.3l0.3-0.3c1.6-1.1,2.3-2.9,2.3-5.6
			c-0.6-0.7-0.7-1.5-1.3-2.3C343.9,165.1,342.5,164.5,341.6,163.6L341.6,163.6z"/>
	</g>
	<path class="st3" d="M449.2,333.7c0,6.4,5.1,10.7,10.7,10.7s10.7-4.3,10.7-10.7s-5.1-10.7-10.7-10.7S449.2,327.3,449.2,333.7z
		 M468.2,333.7c0,4.9-3.7,8.5-8.3,8.5c-4.7,0-8.3-3.6-8.3-8.5s3.7-8.5,8.3-8.5C464.5,325.2,468.2,328.8,468.2,333.7z M462.8,339.8
		h2.4l-3.5-5.4c1.9-0.2,3.3-1.1,3.3-3.3c0-2.5-1.6-3.5-4.6-3.5h-4.8v12.2h2.1v-5.3h1.9L462.8,339.8L462.8,339.8z M457.7,332.8v-3.5
		h2.4c1.2,0,2.7,0.2,2.7,1.7c0,1.7-1.3,1.9-2.9,1.9L457.7,332.8L457.7,332.8z"/>
</g>
</svg>
