<?xml version="1.0" encoding="utf-8"?>
<!-- Generator: Adobe Illustrator 26.0.0, SVG Export Plug-In . SVG Version: 6.00 Build 0)  -->
<svg version="1.1" id="Layer_1" xmlns="http://www.w3.org/2000/svg" xmlns:xlink="http://www.w3.org/1999/xlink" x="0px" y="0px"
	 viewBox="0 0 500 500" style="enable-background:new 0 0 500 500;" xml:space="preserve">
<style type="text/css">
	.st0{fill:#008DC2;}
	.st1{fill:#FFFFFF;}
	.st2{fill:#68B346;stroke:#FFFFFF;stroke-width:0.8295;stroke-miterlimit:10;}
	.st3{fill:#101010;}
</style>
<g>
	<g transform="matrix(.237004 0 0 .237004 5.369548 -9.353936)">
		<path class="st0" d="M759.3,1057.9c0,183.5-148.7,332.2-332.2,332.2S95,1241.3,95,1057.9s148.7-332.2,332.2-332.2
			C610.6,725.5,759.3,874.4,759.3,1057.9"/>
		<g>
			<g>
				<path id="B_00000065776245902245257510000011762025811242525063_" class="st1" d="M242.2,948.9c0,14.6-11.9,26.6-26.6,26.6
					s-26.6-11.9-26.6-26.6c0-14.6,11.9-26.6,26.6-26.6c14.6,0,26.5,11.8,26.6,26.4C242.2,948.8,242.2,948.9,242.2,948.9"/>
			</g>
			<g>
				<path id="B_00000042721186741039783890000017781508062921908373_" class="st1" d="M246.7,1021.8c0,14.6-11.9,26.6-26.6,26.6
					c-14.6,0-26.6-11.9-26.6-26.6s11.9-26.6,26.6-26.6c14.6,0,26.5,11.8,26.6,26.4C246.7,1021.7,246.7,1021.8,246.7,1021.8"/>
			</g>
			<path class="st1" d="M263,1099c0,14.6-11.9,26.6-26.6,26.6s-26.6-11.9-26.6-26.6c0-14.6,11.9-26.6,26.6-26.6
				C251.1,1072.3,263,1084.2,263,1099 M299.3,1168.2c0,14.6-11.9,26.6-26.6,26.6s-26.6-11.9-26.6-26.6c0-14.6,11.9-26.6,26.6-26.6
				C287.4,1141.5,299.3,1153.4,299.3,1168.2"/>
			<g>
				<path id="C_00000130631585481437831360000008798095110504672394_" class="st1" d="M583.7,1265c0,14.6-11.9,26.6-26.6,26.6
					c-14.6,0-26.6-11.9-26.6-26.6s11.9-26.6,26.6-26.6C571.8,1238.4,583.7,1250.3,583.7,1265"/>
			</g>
			<path class="st1" d="M632,1207.8c0,14.6-11.9,26.6-26.6,26.6c-14.6,0-26.6-11.9-26.6-26.6c0-14.6,11.9-26.6,26.6-26.6
				C620.1,1181.3,632,1193.2,632,1207.8"/>
			<g>
				<path id="C_00000173840351352021600230000015642873938650041001_" class="st1" d="M492,803.9c0,14.6-11.9,26.6-26.6,26.6
					c-14.6,0-26.6-11.9-26.6-26.6c0-14.6,11.9-26.6,26.6-26.6C480.1,777.3,492,789.3,492,803.9"/>
			</g>
			<path class="st1" d="M422.1,779.4c0,14.6-11.9,26.6-26.6,26.6S369,794.1,369,779.4s11.9-26.6,26.6-26.6
				C410.2,752.8,422.1,764.8,422.1,779.4"/>
		</g>
		<g>
			<circle class="st2" cx="610.4" cy="978.7" r="177"/>
			
				<ellipse transform="matrix(4.531438e-02 -0.999 0.999 4.531438e-02 -987.045 1646.4486)" class="st2" cx="367.9" cy="1339.6" rx="34.3" ry="34.3"/>
			<circle class="st2" cx="248.6" cy="800.7" r="96.6"/>
		</g>
	</g>
	<path class="st3" d="M212,219.5h5.7v11c2.7-6.7,8.4-11.9,19.9-11.9c13.1,0,22,8.8,22,22.8v35.2h-5.7v-34.1c0-11.4-7-18.6-17.5-18.6
		c-11.4,0-18.7,8.8-18.7,22v30.7H212L212,219.5L212,219.5z M269.7,248.1c0-17.8,12.2-30,27.8-30c15.5,0,26.5,12.8,26.5,28.4
		l-0.1,2.8h-48.6c0.3,13.7,9.5,23.5,22.5,23.5c10.6,0,18-4.5,21.4-8.8v6.7c-5.3,4.8-11.7,7.5-21.4,7.5c-16.4,0-28.1-12-28.1-29.7
		L269.7,248.1L269.7,248.1z M318,244.3c-0.1-11.7-9.2-20.8-20.5-20.8c-11.9,0-21.6,9.2-22.1,20.8H318z M362.8,218
		c16.7,0,30,12.8,30,30s-13.2,30-30,30s-30-12.8-30-30S346.1,218,362.8,218z M362.8,272.7c13.9,0,24.3-10.6,24.3-24.7
		c0-14-10.4-24.7-24.3-24.7S338.5,234,338.5,248C338.5,262,348.9,272.7,362.8,272.7z M422.7,219.5h6.3l-24.2,51.6H440v-18.7h5.9
		v45.9H440v-21.8h-44.1L422.7,219.5z M465.2,219.5h5.7v65c0,12.8-7.4,15.4-14.5,15.4c-1.4,0-2.8-0.1-3.8-0.3v-5.3
		c1.4,0.2,2.9,0.3,4.3,0.3c5.8,0,8.3-2.8,8.3-10.1L465.2,219.5z M464,204.2c0-2.4,1.9-4.1,4.1-4.1s4.1,1.7,4.1,4.1
		c0,2.3-1.9,4-4.1,4S464,206.5,464,204.2z"/>
</g>
</svg>
