<?xml version="1.0" encoding="utf-8"?>
<!-- Generator: Adobe Illustrator 26.0.0, SVG Export Plug-In . SVG Version: 6.00 Build 0)  -->
<svg version="1.1" id="Layer_1" xmlns="http://www.w3.org/2000/svg" xmlns:xlink="http://www.w3.org/1999/xlink" x="0px" y="0px"
	 viewBox="0 0 500 500" style="enable-background:new 0 0 500 500;" xml:space="preserve">
<style type="text/css">
	.st0{fill:#009AC7;}
</style>
<g>
	<path d="M26.3,211.7h14.6v11.8h0.3c3.7-8.1,13.4-13.7,25.2-13.7c14.9,0,27.8,8.9,27.8,29.3v49.4H79.7v-45.3
		c0-14.4-8.2-19.8-17.5-19.8c-12.1,0-21.3,7.8-21.3,25.6v39.5H26.3V211.7z"/>
	<path d="M116.7,255.4c0,13.4,12.5,22.3,25.9,22.3c8.9,0,15.4-4.5,21.1-11.5l11,8.4c-8.1,10.5-19.3,15.7-34,15.7
		c-24.3,0-39.5-17.5-39.5-40.3c0-23,16.7-40.3,39.6-40.3c27,0.1,37.4,20.8,37.4,40.5v5.2L116.7,255.4L116.7,255.4z M162.6,243.7
		c-0.3-12.8-7.5-22.3-22.2-22.3c-14.4,0-23.8,12.1-23.8,22.3H162.6z"/>
	<path d="M206.1,247.5L179,211.7h18.7l18.6,27.2l18.3-27.2h17.6l-26.2,35.7l31.1,40.9h-18.7l-22.6-32.2l-22.6,32.2h-18L206.1,247.5z
		"/>
	<path d="M261,211.7h13.6v12h0.3c1.5-4.5,10.8-13.9,24.6-13.9c11.4,0,19.1,4.9,23.9,14.2c5-9.4,15-14.2,24.2-14.2
		c23.6,0,29.1,16.8,29.1,34v44.7h-14.6v-42.8c0-11.6-2.4-22.3-16.5-22.3c-14.1,0-19.6,9.5-19.6,23.1v41.9h-14.6v-40.1
		c0-14.6-2.1-24.9-16.2-24.9c-10.5,0-19.9,7.9-19.9,25.2v39.8H261L261,211.7L261,211.7z"/>
	<g>
		<circle class="st0" cx="427.8" cy="249.2" r="9.4"/>
		<g>
			<path d="M467.4,245.3c-2.4-19.9-19.4-35.4-39.9-35.4c-16.7,0-31,10.2-37.1,24.6l12.5,4.9c4.1-9.5,13.6-16.1,24.6-16.1
				c13.1,0,24,9.4,26.3,21.9h-5.1l12.5,12.3l12.5-12.3L467.4,245.3L467.4,245.3z"/>
			<path d="M452,260.9c-4.1,9.4-13.6,16-24.5,16c-12.9,0-23.6-9.1-26.1-21.2h5.6l-12.5-12.3L382,255.6h5.7
				c2.7,19.6,19.5,34.7,39.8,34.7c16.7,0,30.9-10.1,37-24.5L452,260.9z"/>
		</g>
	</g>
</g>
</svg>
