<?xml version="1.0" encoding="utf-8"?>
<!-- Generator: Adobe Illustrator 26.0.0, SVG Export Plug-In . SVG Version: 6.00 Build 0)  -->
<svg version="1.1" id="Layer_1" xmlns="http://www.w3.org/2000/svg" xmlns:xlink="http://www.w3.org/1999/xlink" x="0px" y="0px"
	 viewBox="0 0 500 500" style="enable-background:new 0 0 500 500;" xml:space="preserve">
<style type="text/css">
	.st0{fill-rule:evenodd;clip-rule:evenodd;fill:#0082C9;}
</style>
<g>
	<path class="st0" d="M250,57.1c84.2,0,152.4,68.6,152.4,153.2c0,28-7.5,54.3-20.6,76.9l0,0c5.8,24.5,28.1,62.5,17.5,73.4
		c-10.6,10.9-46.1-13.4-69.1-20l0,0c-23.3,14.5-50.8,22.9-80.2,22.9c-84.2,0-152.4-68.6-152.4-153.2C97.6,125.7,165.8,57.1,250,57.1
		L250,57.1z M250,115.2c-52.5,0-95.1,42.6-95.1,95.1c0,52.5,42.6,95.1,95.1,95.1c52.5,0,95.1-42.6,95.1-95.1
		C345.1,157.8,302.5,115.2,250,115.2z"/>
	<path class="st0" d="M75.2,442.1h-6.8l-24.5-38c-0.6-1-1.1-2-1.5-3h-0.2c0.2,1,0.3,3.2,0.3,6.5v34.4h-5.6v-47.6H44l23.8,37.4
		c1,1.5,1.6,2.6,1.9,3.2h0.1c-0.2-1.4-0.3-3.7-0.3-7v-33.6h5.6V442.1L75.2,442.1z M114.3,426.4h-24c0.1,3.8,1.1,6.7,3.1,8.8
		c2,2.1,4.6,3.1,8,3.1c3.8,0,7.3-1.3,10.6-3.8v5.1c-3,2.2-6.9,3.3-11.9,3.3c-4.8,0-8.6-1.5-11.3-4.6c-2.8-3.1-4.1-7.4-4.1-13
		c0-5.3,1.5-9.6,4.5-12.9c3-3.3,6.7-5,11.2-5c4.5,0,7.9,1.4,10.3,4.3c2.4,2.9,3.7,6.9,3.7,12V426.4L114.3,426.4z M108.7,421.8
		c0-3.1-0.8-5.6-2.3-7.3c-1.5-1.7-3.6-2.6-6.2-2.6c-2.6,0-4.8,0.9-6.5,2.8c-1.8,1.8-2.9,4.2-3.3,7.2H108.7L108.7,421.8z M147.4,408
		l-11.4,17.2l11.2,16.8h-6.3l-6.7-11c-0.4-0.7-0.9-1.5-1.5-2.6h-0.1c-0.1,0.2-0.6,1.1-1.6,2.6l-6.8,11h-6.3l11.6-16.7L118.3,408h6.3
		l6.6,11.6c0.5,0.9,1,1.8,1.4,2.7h0.1l8.5-14.3H147.4L147.4,408z M169.5,441.7c-1.3,0.7-3,1.1-5.1,1.1c-6,0-8.9-3.3-8.9-10v-20.1
		h-5.9V408h5.9v-8.3l5.4-1.8V408h8.6v4.6h-8.6v19.2c0,2.3,0.4,3.9,1.2,4.9c0.8,1,2.1,1.5,3.9,1.5c1.4,0,2.6-0.4,3.6-1.1V441.7
		L169.5,441.7z M199.1,440.5c-2.6,1.6-5.7,2.4-9.3,2.4c-4.9,0-8.8-1.6-11.7-4.7c-3-3.2-4.5-7.2-4.5-12.3c0-5.6,1.6-10.1,4.8-13.5
		c3.2-3.4,7.5-5.1,12.9-5.1c3,0,5.6,0.5,7.9,1.7v5.6c-2.5-1.8-5.2-2.7-8.1-2.7c-3.5,0-6.3,1.2-8.5,3.7c-2.2,2.5-3.3,5.8-3.3,9.8
		c0,4,1.1,7.1,3.1,9.4c2.1,2.3,4.9,3.5,8.4,3.5c3,0,5.8-1,8.4-3V440.5L199.1,440.5z M212.8,442.1h-5.5v-50.4h5.5V442.1L212.8,442.1z
		 M238,442.9c-5,0-9-1.6-12-4.8c-3-3.2-4.5-7.4-4.5-12.6c0-5.7,1.6-10.2,4.7-13.4c3.1-3.2,7.3-4.8,12.7-4.8c5.1,0,9,1.6,11.9,4.7
		c2.8,3.1,4.3,7.5,4.3,13c0,5.4-1.5,9.8-4.6,13C247.3,441.2,243.2,442.9,238,442.9L238,442.9z M238.4,411.8c-3.5,0-6.3,1.2-8.3,3.6
		c-2,2.4-3.1,5.7-3.1,9.9c0,4,1,7.2,3.1,9.5c2.1,2.3,4.8,3.5,8.3,3.5c3.5,0,6.2-1.1,8.1-3.4c1.9-2.3,2.8-5.5,2.8-9.7
		c0-4.3-0.9-7.5-2.8-9.8C244.6,413,241.9,411.8,238.4,411.8L238.4,411.8z M291.1,442.1h-5.4v-5.4h-0.1c-2.3,4.1-5.8,6.2-10.5,6.2
		c-8.1,0-12.2-4.8-12.2-14.5V408h5.4v19.5c0,7.2,2.8,10.8,8.2,10.8c2.7,0,4.8-1,6.6-2.9c1.7-2,2.6-4.5,2.6-7.7V408h5.4V442.1
		L291.1,442.1z M331.2,442.1h-5.5v-5.8h-0.1c-2.5,4.4-6.4,6.6-11.7,6.6c-4.3,0-7.7-1.5-10.2-4.6c-2.6-3-3.8-7.2-3.8-12.4
		c0-5.6,1.4-10.1,4.3-13.5c2.8-3.4,6.6-5.1,11.3-5.1c4.7,0,8.1,1.8,10.2,5.5h0.1v-21.1h5.5V442.1L331.2,442.1z M325.7,426.7v-5
		c0-2.7-0.9-5.1-2.7-7c-1.8-1.9-4.1-2.9-6.9-2.9c-3.3,0-5.9,1.2-7.8,3.7c-1.9,2.4-2.9,5.8-2.9,10.1c0,3.9,0.9,7,2.7,9.3
		c1.8,2.3,4.3,3.4,7.4,3.4c3,0,5.5-1.1,7.4-3.3C324.8,432.8,325.7,430,325.7,426.7L325.7,426.7z M376.6,441.7
		c-1.3,0.7-3,1.1-5.1,1.1c-6,0-8.9-3.3-8.9-10v-20.1h-5.9V408h5.9v-8.3l5.4-1.8V408h8.6v4.6h-8.6v19.2c0,2.3,0.4,3.9,1.2,4.9
		c0.8,1,2.1,1.5,3.9,1.5c1.4,0,2.6-0.4,3.6-1.1V441.7L376.6,441.7z M408.3,442.1h-5.5v-5.3h-0.1c-2.4,4.1-5.9,6.1-10.5,6.1
		c-3.4,0-6-0.9-8-2.7c-1.9-1.8-2.9-4.2-2.9-7.1c0-6.4,3.7-10.1,11.2-11.1l10.2-1.4c0-5.8-2.3-8.7-7-8.7c-4.1,0-7.8,1.4-11.1,4.2
		v-5.6c3.3-2.1,7.2-3.2,11.6-3.2c8,0,12,4.2,12,12.7V442.1L408.3,442.1z M402.8,424.8l-8.2,1.1c-2.5,0.4-4.4,1-5.7,1.9
		c-1.3,0.9-1.9,2.5-1.9,4.8c0,1.7,0.6,3,1.8,4.1c1.2,1.1,2.8,1.6,4.7,1.6c2.7,0,4.9-1,6.7-2.8c1.8-1.9,2.6-4.3,2.6-7.2V424.8
		L402.8,424.8z M424,442.1h-5.5v-50.4h5.5V442.1L424,442.1z M463.2,442.1h-7.6l-15-16.3h-0.1v16.3H435v-50.4h5.5v31.9h0.1l14.3-15.6
		h7.1l-15.8,16.4L463.2,442.1z"/>
</g>
</svg>
