<?xml version="1.0" encoding="utf-8"?>
<!-- Generator: Adobe Illustrator 26.0.0, SVG Export Plug-In . SVG Version: 6.00 Build 0)  -->
<svg version="1.1" id="Layer_1" xmlns="http://www.w3.org/2000/svg" xmlns:xlink="http://www.w3.org/1999/xlink" x="0px" y="0px"
	 viewBox="0 0 500 500" style="enable-background:new 0 0 500 500;" xml:space="preserve">
<style type="text/css">
	.st0{fill:#0082C9;}
</style>
<g>
	<path id="path1052" class="st0" d="M250.3,109.6c-44.4,0-82.1,30.1-93.8,70.9c-10.1-21.6-32.1-36.8-57.4-36.8
		c-34.8,0-63.4,28.6-63.4,63.4c0,34.8,28.6,63.5,63.4,63.5c25.3,0,47.3-15.2,57.4-36.8c11.7,40.8,49.3,70.9,93.8,70.9
		c44.1,0,81.6-29.7,93.5-70c10.3,21.2,32,35.9,57,35.9c34.8,0,63.5-28.6,63.5-63.5c0-34.8-28.6-63.4-63.5-63.4
		c-25,0-46.7,14.7-57,35.9C331.9,139.2,294.4,109.6,250.3,109.6z M250.3,146.8c33.5,0,60.3,26.8,60.3,60.3s-26.8,60.3-60.3,60.3
		c-33.5,0-60.3-26.8-60.3-60.3C190,173.6,216.8,146.8,250.3,146.8z M99.1,180.9c14.7,0,26.2,11.5,26.2,26.2
		c0,14.7-11.5,26.2-26.2,26.2c-14.7,0-26.2-11.5-26.2-26.2C72.9,192.4,84.4,180.9,99.1,180.9z M400.9,180.9
		c14.7,0,26.2,11.5,26.2,26.2c0,14.7-11.5,26.2-26.2,26.2c-14.7,0-26.2-11.5-26.2-26.2C374.7,192.4,386.2,180.9,400.9,180.9z"/>
	<path id="path1174" class="st0" d="M80.3,334.1c-1.2,0-1.8,0.7-1.8,1.9v51.3c0,1.2,0.5,1.9,1.8,1.9h1.4c1.2,0,1.9-0.7,1.9-1.9
		v-42.6l28,43.5c0.1,0.2,0.3,0.3,0.4,0.5c0,0,0.1,0.1,0.1,0.1c0.1,0.1,0.3,0.2,0.4,0.2c0.1,0,0.1,0.1,0.2,0.1c0.1,0,0.1,0,0.2,0
		c0.2,0.1,0.4,0.1,0.6,0.1h1.4c1.2,0,1.8-0.7,1.8-1.9v-51.3c0-1.2-0.5-1.9-1.8-1.9h-1.4c-1.2,0-1.9,0.7-1.9,1.9v42.6l-28-43.5
		c-0.1-0.1-0.2-0.2-0.3-0.4c-0.3-0.5-0.8-0.7-1.6-0.7L80.3,334.1z M416.8,334.8c-1.2,0-0.7,0.7-0.7,1.9v17.5c0,1.8,0.2,3,0.2,3h-0.2
		c0,0-3.4-7.8-12.7-7.8c-10.3,0-17.5,8.1-17.2,20.2c0,12,6.5,20.4,17,20.4c10.1,0,13.5-8.1,13.5-8.1h0.2c0,0-0.4,1.1-0.4,2.5v3
		c0,1.2,0.7,1.8,1.9,1.8h1.2c1.2,0,1.8-0.7,1.8-1.9v-50.5c0-1.2-1.9-1.9-3.2-1.9H416.8z M279.3,335c-1.2,0-0.5,0.7-0.5,1.9v43.4
		c0,8.5,5.7,9.6,8.8,9.6c1.4,0,1.9-0.7,1.9-1.9v-1.2c0-1.2-0.7-1.8-1.6-1.8c-1.8-0.2-4.1-0.7-4.1-5.7V337c0-1.2-1.9-1.9-3.2-1.9
		L279.3,335z M215.8,339.6c-1.2,0-1.9,0.7-1.9,1.9v9.2v4.4v20c0,9.2,5.1,14.3,13.6,14.3c1.6,0,2.1-0.5,2.1-1.8v-1.1
		c0-1.4-0.5-1.8-2.1-1.9c-3-0.2-8.5-1.2-8.5-10.3V355h8c1.2,0,1.9-0.5,1.9-1.8v-0.5c0-1.2-0.7-1.9-1.9-1.9h-8v-9.2
		c0-1.2-0.5-1.9-1.8-1.9L215.8,339.6z M145.2,349.5c-10.6,0-19.1,7.6-19.3,20.4c0,12,8.9,20.4,20.4,20.4c6.2,0,10.8-2.7,12.9-4.2
		c0.9-0.7,1.1-1.6,0.5-2.5l-0.5-0.9c-0.5-1.1-1.4-1.2-2.5-0.5c-1.8,1.4-5.3,3.5-10.3,3.5c-8,0-14.9-5.7-15-15.6h28.1
		c1.1,0,1.9-0.9,1.9-1.9C161.5,357,155.7,349.5,145.2,349.5z M255.2,349.5c-11.5,0-20.4,8.5-20.5,20.5c0,12,8.9,20.4,20.4,20.4
		c7.1,0,11.9-3.4,13.8-5c0.9-0.9,1.1-1.6,0.5-2.7l-0.5-0.7c-0.7-1.1-1.4-1.2-2.5-0.5c-1.8,1.6-5.5,4.1-11,4.1
		c-8.5,0-15.2-6.4-15.2-15.6c0-9.4,6.7-15.8,15.2-15.8c4.6,0,8,2.3,9.7,3.5c1.1,0.7,1.9,0.7,2.7-0.4l0.5-0.9
		c0.9-1.1,0.7-1.9-0.2-2.7C266.2,352.4,262,349.5,255.2,349.5L255.2,349.5z M315.1,349.5c-11.3,0-20.5,8.7-20.5,20.2
		c0,11.7,9.2,20.5,20.5,20.5c11.3,0,20.5-8.8,20.5-20.5C335.6,358.2,326.4,349.5,315.1,349.5z M200.5,350.1
		c-0.4,0.1-0.9,0.4-1.2,0.8l-7.2,8.5l-5.4,6.4l-8.1-9.7l-4.4-5.3c-0.4-0.5-0.8-0.7-1.3-0.8c-0.5,0-1,0.1-1.4,0.5l-1.1,0.9
		c-0.9,0.8-0.9,1.7-0.1,2.6l7.2,8.5l5.9,7.1l-8.7,10.4c0,0,0,0,0,0l-4.4,5.2c-0.8,0.9-0.7,2,0.2,2.7l1.1,0.9
		c0.9,0.8,1.8,0.6,2.6-0.4l7.2-8.5l5.4-6.4l8.1,9.7c0,0,0,0,0,0l4.4,5.2c0.8,0.9,1.8,1,2.7,0.2l1.1-0.9c0.9-0.8,0.9-1.7,0.1-2.6
		l-7.2-8.5l-5.9-7.1l8.7-10.4c0,0,0,0,0,0l4.4-5.2c0.8-0.9,0.7-2-0.2-2.7l-1.1-0.9C201.4,350.2,201,350.1,200.5,350.1L200.5,350.1z
		 M346,350.4c-1.2,0-1.8,0.7-1.8,1.9v22.8c0,10.1,7.4,15,16.6,15s16.6-5,16.6-15v-22.8c0.2-1.2-0.5-1.9-1.8-1.9h-1.4
		c-1.2,0-1.9,0.7-1.9,1.9v21.4c0,6-3.9,11.5-11.5,11.5c-7.4,0-11.5-5.5-11.5-11.5v-21.4c0-1.2-0.7-1.9-1.9-1.9L346,350.4z
		 M145.1,354c5.7,0,10.6,4.1,11,12.2h-24.4C132.9,358.2,138.5,354,145.1,354z M315.1,354.3c8.3,0,15,6.5,15,15.4
		c0,9.2-6.7,15.9-15,15.9c-8.3,0-15.1-6.9-15.2-15.9C299.8,361,306.7,354.3,315.1,354.3z M403.7,354.3c8.3,0,12.4,7.6,12.4,15.6
		c0,11.2-6,15.8-12.6,15.8c-7.3,0-12.2-6.2-12.4-15.8C391.2,360,396.8,354.3,403.7,354.3z"/>
</g>
</svg>
