<?xml version="1.0" encoding="utf-8"?>
<!-- Generator: Adobe Illustrator 26.0.0, SVG Export Plug-In . SVG Version: 6.00 Build 0)  -->
<svg version="1.1" id="Layer_1" xmlns="http://www.w3.org/2000/svg" xmlns:xlink="http://www.w3.org/1999/xlink" x="0px" y="0px"
	 viewBox="0 0 500 500" style="enable-background:new 0 0 500 500;" xml:space="preserve">
<style type="text/css">
	.st0{fill-rule:evenodd;clip-rule:evenodd;fill:#FF0050;}
</style>
<g>
	<path class="st0" d="M348.4,242.5l-0.7-13.7c-0.3-5.9,4.9-13.5,7.1-16.2c57.3-69.5-65.7-193.1-175-120c-7.5,3.8-36.2-13.2-54.6-5.8
		c-20.4,8.2-16.4,14.7,3.7,21.4c12.8,4.3,9.6,14.9-2.7,24.8c-12.8,12.7-19.4,42.1-18.7,64.2c2.8,85.5,49.7,156.7,177.2,146.2
		c21-2.5,27.8-3.7,57.7,2.3c7.4,1.5,31.1,6.8,40.7,7.4c10.3,1.2,12.7-3.7,5.4-6.4c-25.5-8.8-40.6-25.1-60.4-47.8l-19.3,0.2
		c-3.9,0.5-5.6-0.9-5.4-4.2l0.1-18.1c-15.5-11.5-27.9-28.5-32.7-46.1c-5.4-19.9-10.3-28.1-15.2,5.5c-3.1,21,0.5,44.8,8.7,66.6
		c-2.2,17.6-16.4,21-28.4,13c-35.9-16.5-52.1-34.6-55.2-81.2c-1.8-26.2,28.8-61.2,32.3-27.2c9.5,50.7,20.7,50.7,21.4,9.6
		c9.8-44.1,28-49.7,51.3-32.2c20.1,16.2,35,35.5,36.7,62.6C322.9,268,349.3,278.6,348.4,242.5z"/>
	<g>
		<g>
			<path d="M126,429.2v-63.6h8.9l33,46.9h0.4v-46.9h9.6v63.6h-8.9l-33-46.8h-0.4v46.8H126z"/>
		</g>
		<g>
			<path d="M186.5,405.2c0-15,8.9-24.5,22.7-24.5s22.6,9.5,22.6,24.5s-8.8,24.5-22.6,24.5S186.5,420.3,186.5,405.2z M222,405.2
				c0-10.4-4.8-16.6-12.9-16.6s-13,6.2-13,16.6c0,10.4,4.8,16.6,13,16.6S222,415.7,222,405.2z"/>
		</g>
		<g>
			<path d="M251.8,370.6v10.8h9.2v7.5h-9.2v26.7c0,4.1,1.9,6.1,5.9,6.1c1,0,2.6-0.1,3.3-0.2v7.5c-1.1,0.3-3.3,0.5-5.4,0.5
				c-9.6,0-13.3-3.7-13.3-12.9v-27.7h-6.6v-7.5h6.6v-10.8H251.8z"/>
		</g>
		<g>
			<path d="M268.6,369c0-3.1,2.5-5.5,5.6-5.5c3.1,0,5.6,2.4,5.6,5.5c0,3-2.5,5.5-5.6,5.5C271.1,374.5,268.6,372,268.6,369z
				 M269.4,381.3h9.6v47.9h-9.6V381.3z"/>
		</g>
		<g>
			<path d="M320.8,397.7c-0.9-5.1-4.8-8.9-11.4-8.9c-7.7,0-12.8,6.4-12.8,16.5c0,10.3,5.2,16.5,12.9,16.5c6.2,0,10.3-3,11.5-8.6h9.1
				c-1.1,10-9.1,16.7-20.6,16.7c-13.6,0-22.5-9.3-22.5-24.5c0-14.9,8.9-24.5,22.4-24.5c12.2,0,19.8,7.8,20.6,17H320.8z"/>
		</g>
		<g>
			<path d="M334.9,415.5c0-8.4,6.5-13.2,18.3-14l12.9-0.7V397c0-5.5-3.7-8.5-10-8.5c-5.2,0-9,2.7-9.8,6.8h-8.9
				c0.3-8.5,8.3-14.7,19-14.7c11.7,0,19.2,6.2,19.2,15.6v32.8h-9.1v-8h-0.2c-2.6,5.2-8.6,8.5-15.1,8.5
				C341.5,429.6,334.9,424,334.9,415.5z M366.1,411.2v-3.7l-11.6,0.8c-6.5,0.4-9.9,2.8-9.9,7.1c0,4.1,3.6,6.7,9.1,6.7
				C360.8,422,366.1,417.5,366.1,411.2z"/>
		</g>
	</g>
</g>
</svg>
