<?xml version="1.0" encoding="utf-8"?>
<!-- Generator: Adobe Illustrator 26.0.0, SVG Export Plug-In . SVG Version: 6.00 Build 0)  -->
<svg version="1.1" id="Layer_1" xmlns="http://www.w3.org/2000/svg" xmlns:xlink="http://www.w3.org/1999/xlink" x="0px" y="0px"
	 viewBox="0 0 500 500" style="enable-background:new 0 0 500 500;" xml:space="preserve">
<style type="text/css">
	.st0{fill:#444444;}
</style>
<g>
	<path class="st0" d="M111.5,294.3h-11.2L54.7,224h-0.5c0.1,1.9,0.2,4,0.4,6.4c0.2,2.4,0.3,4.9,0.4,7.6c0.1,2.7,0.1,5.4,0.1,8.2
		v48.1h-9v-83.6h11.2l45.4,70h0.4c-0.1-1.3-0.2-3.2-0.3-5.7s-0.2-5.1-0.3-8c-0.1-2.8-0.1-5.5-0.1-7.9v-48.5h9.2V294.3z"/>
	<path class="st0" d="M187,262.8c0,5.1-0.7,9.7-2,13.8c-1.3,4-3.3,7.5-5.8,10.2c-2.5,2.8-5.6,4.9-9.1,6.4c-3.6,1.5-7.6,2.2-12.1,2.2
		c-4.2,0-8-0.7-11.5-2.2c-3.5-1.5-6.5-3.6-9-6.4c-2.5-2.8-4.5-6.2-5.9-10.2c-1.4-4-2.1-8.6-2.1-13.8c0-6.9,1.2-12.7,3.5-17.5
		c2.3-4.8,5.7-8.5,10-11c4.3-2.5,9.5-3.8,15.5-3.8c5.7,0,10.7,1.3,15,3.8c4.3,2.6,7.6,6.2,10,11.1C185.8,250.1,187,256,187,262.8z
		 M139.2,262.8c0,5,0.7,9.4,2,13.1c1.3,3.7,3.4,6.6,6.2,8.6c2.8,2,6.4,3,10.8,3c4.3,0,7.9-1,10.7-3c2.8-2,4.9-4.9,6.2-8.6
		c1.3-3.7,2-8.1,2-13.1c0-5-0.7-9.3-2-13c-1.3-3.6-3.4-6.5-6.2-8.4c-2.8-2-6.4-3-10.8-3c-6.5,0-11.3,2.2-14.3,6.5
		C140.8,249.2,139.2,255.2,139.2,262.8z"/>
	<path class="st0" d="M223.6,287.6c1.6,0,3.2-0.1,4.8-0.4c1.6-0.3,3-0.6,4-1v7.4c-1.1,0.5-2.6,0.9-4.6,1.3c-2,0.3-3.9,0.5-5.8,0.5
		c-3.3,0-6.3-0.6-9-1.7c-2.7-1.2-4.9-3.1-6.5-5.9c-1.6-2.8-2.4-6.6-2.4-11.6V239h-8.9v-4.6l9-3.7L208,217h5.7v14.5H232v7.4h-18.4
		v36.9c0,3.9,0.9,6.9,2.7,8.8C218.2,286.6,220.6,287.6,223.6,287.6z"/>
	<path class="st0" d="M250,208.1c1.6,0,2.9,0.5,4,1.5c1.1,1,1.7,2.6,1.7,4.7c0,2.1-0.6,3.7-1.7,4.7c-1.1,1-2.5,1.5-4,1.5
		c-1.6,0-3-0.5-4.1-1.5c-1.1-1-1.6-2.6-1.6-4.7c0-2.1,0.5-3.7,1.6-4.7C247,208.6,248.4,208.1,250,208.1z M254.6,231.5v62.7h-9.5
		v-62.7H254.6z"/>
	<path class="st0" d="M302.6,239H287v55.3h-9.5V239h-11.1v-4.6l11.1-3.1v-4.2c0-5.3,0.8-9.5,2.3-12.8c1.6-3.3,3.8-5.7,6.8-7.3
		c3-1.6,6.6-2.3,10.9-2.3c2.4,0,4.6,0.2,6.6,0.6c2,0.4,3.8,0.9,5.3,1.4l-2.5,7.5c-1.3-0.4-2.8-0.8-4.4-1.2c-1.6-0.4-3.3-0.5-4.9-0.5
		c-3.6,0-6.3,1.2-8,3.5c-1.7,2.3-2.6,6-2.6,11v4.6h15.6V239z M319,208.1c1.6,0,2.9,0.5,4,1.5c1.1,1,1.7,2.6,1.7,4.7
		c0,2.1-0.6,3.7-1.7,4.7c-1.1,1-2.5,1.5-4,1.5c-1.6,0-3-0.5-4.1-1.5c-1.1-1-1.6-2.6-1.6-4.7c0-2.1,0.5-3.7,1.6-4.7
		C316,208.6,317.4,208.1,319,208.1z M323.6,231.5v62.7h-9.5v-62.7H323.6z"/>
	<path class="st0" d="M368.8,295.4c-5.6,0-10.6-1.2-14.9-3.5c-4.3-2.3-7.7-5.9-10.1-10.6c-2.4-4.8-3.6-10.8-3.6-18
		c0-7.6,1.3-13.8,3.8-18.6c2.5-4.8,6-8.4,10.5-10.7c4.5-2.3,9.5-3.5,15.2-3.5c3.1,0,6.1,0.3,9.1,0.9c2.9,0.6,5.3,1.4,7.2,2.4l-2.9,8
		c-1.9-0.8-4.1-1.5-6.6-2.1c-2.5-0.6-4.8-0.9-7-0.9c-4.3,0-8,0.9-10.8,2.8c-2.9,1.9-5,4.6-6.5,8.2c-1.4,3.6-2.1,8.1-2.1,13.4
		c0,5.1,0.7,9.4,2.1,13c1.4,3.6,3.5,6.3,6.2,8.2s6.2,2.8,10.4,2.8c3.3,0,6.3-0.4,9-1.1c2.7-0.7,5.1-1.5,7.3-2.5v8.5
		c-2.1,1.1-4.4,1.9-7,2.5C375.4,295.1,372.4,295.4,368.8,295.4z"/>
	<path class="st0" d="M453.9,262.8c0,5.1-0.7,9.7-2,13.8c-1.3,4-3.3,7.5-5.8,10.2s-5.6,4.9-9.1,6.4c-3.6,1.5-7.6,2.2-12.1,2.2
		c-4.2,0-8-0.7-11.5-2.2c-3.5-1.5-6.5-3.6-9-6.4c-2.5-2.8-4.5-6.2-5.9-10.2c-1.4-4-2.1-8.6-2.1-13.8c0-6.9,1.2-12.7,3.5-17.5
		c2.3-4.8,5.7-8.5,10-11c4.3-2.5,9.5-3.8,15.5-3.8c5.7,0,10.7,1.3,15,3.8c4.3,2.6,7.6,6.2,10,11.1
		C452.7,250.1,453.9,256,453.9,262.8z M406.2,262.8c0,5,0.7,9.4,2,13.1c1.3,3.7,3.4,6.6,6.2,8.6c2.8,2,6.4,3,10.8,3
		c4.3,0,7.9-1,10.7-3c2.8-2,4.9-4.9,6.2-8.6c1.3-3.7,2-8.1,2-13.1c0-5-0.7-9.3-2-13c-1.3-3.6-3.4-6.5-6.2-8.4c-2.8-2-6.4-3-10.8-3
		c-6.5,0-11.3,2.2-14.3,6.5C407.7,249.2,406.2,255.2,406.2,262.8z"/>
</g>
</svg>
