<?xml version="1.0" encoding="utf-8"?>
<!-- Generator: Adobe Illustrator 26.0.0, SVG Export Plug-In . SVG Version: 6.00 Build 0)  -->
<svg version="1.1" id="Layer_1" xmlns="http://www.w3.org/2000/svg" xmlns:xlink="http://www.w3.org/1999/xlink" x="0px" y="0px"
	 viewBox="0 0 500 500" style="enable-background:new 0 0 500 500;" xml:space="preserve">
<style type="text/css">
	.st0{fill:#8ACF4C;}
	.st1{fill:#77B142;}
	.st2{fill:#00447F;}
</style>
<g>
	<g>
		<path class="st0" d="M264.9,203.4c-5,0.1-9.9,0.2-14.8,0.2c-5,0-9.9-0.1-14.9-0.2c-41.8-1-75.2-6.3-99.2-13.8
			c-11.3-3.4-20.9-7.4-28.4-12v36.1v2.5v2.5v6.6c16.2,15.1,70.6,29,142.4,29s126.2-13.9,142.4-29v-6.6v-2.5v-2.5v-36.1
			c-7.5,4.6-17.3,8.6-28.6,12C339.8,197.2,306.6,202.4,264.9,203.4z"/>
		<path class="st0" d="M107.6,111v36.1v2.5v2.5v6.6c15,14,62.9,27,127,28.8c0.7,0,1.3,0,2,0c1.9,0,3.7,0.1,5.6,0.1
			c2.6,0,5.2,0.1,7.9,0.1c2.6,0,5.3,0,7.9-0.1c1.9,0,3.7-0.1,5.6-0.1c0.7,0,1.3,0,2,0c64.1-1.8,111.9-14.8,127-28.8v-6.6v-2.5v-2.5
			V111c-27.7,17-86.4,26-142.4,26S135.3,128,107.6,111z"/>
		<path class="st1" d="M391.7,110.3c-6.4-13.6-55.5-27-141.7-27c-85.9,0-135,13.3-141.6,26.9c-0.5,0.5-0.8,1-0.8,1.5v1.6v5.7
			c16.2,9.3,70.2,18,142.4,18s126.3-8.6,142.4-18v-5.7v-1.6C392.4,111.2,392.1,110.7,391.7,110.3z"/>
		<path class="st0" d="M107.6,243.7v41.7c0,0.8,0.2,1.6,0.7,2.3c6.7,24.9,66.9,43.5,141.8,43.5c74.7,0,134.8-18.5,141.7-43.3
			c0.5-0.7,0.7-1.6,0.7-2.5v-41.7c-23.6,14.8-72.1,26.4-142.4,26.4C179.7,270.2,131.1,258.5,107.6,243.7z"/>
	</g>
	<g>
		<path class="st2" d="M178.4,383.6c0,20.4-13.7,33.1-35.4,33.1c-21.8,0-35.4-12.7-35.4-33.1c0-20.4,13.7-33.1,35.4-33.1
			S178.4,363.2,178.4,383.6z M126.2,383.6c0,12.2,6.6,19.9,16.9,19.9c10.2,0,16.9-7.7,16.9-19.9c0-12.2-6.7-19.9-16.9-19.9
			C132.8,363.7,126.2,371.4,126.2,383.6z"/>
		<path class="st2" d="M216.6,351.6c21.6,0,34.3,11.2,34.3,31.6c0,20.4-12.7,32.4-34.3,32.4h-29.3v-64H216.6z M205.5,402.5h8.6
			c11.9,0,18.2-6.4,18.2-19.2c0-12-6.7-18.5-18.2-18.5h-8.6V402.5z"/>
		<path class="st2" d="M259.8,415.6v-64h33.6c14.1,0,22.7,6.1,22.7,16c0,7.2-6.1,12.9-14.1,13.9v0.4c9.7,0.4,17.4,6.8,17.4,15.3
			c0,11.2-9.7,18.4-25.1,18.4H259.8z M278.1,377.7h9.6c6.7,0,10.6-2.8,10.6-7.4c0-4.5-3.6-7.1-9.7-7.1h-10.5V377.7z M289.1,404
			c7.5,0,11.7-2.9,11.7-8.3c0-5.2-4.3-8.2-11.8-8.2h-10.9V404H289.1z"/>
		<path class="st2" d="M325,383.6c0-20.9,13.5-33.1,34.8-33.1c18.1,0,31.9,10.4,32.5,25.5h-17.5c-0.9-7.5-6.9-12.5-14.9-12.5
			c-9.9,0-16.3,7.6-16.3,20c0,12.6,6.3,20.1,16.3,20.1c8,0,13.8-4.7,15-12.2h17.5c-0.8,15.2-14.1,25.2-32.6,25.2
			C338.4,416.7,325,404.5,325,383.6z"/>
	</g>
</g>
</svg>
