<?xml version="1.0" encoding="utf-8"?>
<!-- Generator: Adobe Illustrator 26.0.0, SVG Export Plug-In . SVG Version: 6.00 Build 0)  -->
<svg version="1.1" id="Layer_1" xmlns="http://www.w3.org/2000/svg" xmlns:xlink="http://www.w3.org/1999/xlink" x="0px" y="0px"
	 viewBox="0 0 500 500" style="enable-background:new 0 0 500 500;" xml:space="preserve">
<style type="text/css">
	.st0{fill:#E44A49;}
	.st1{fill:#515151;}
</style>
<g>
	<g id="XMLID_1_">
		<path id="XMLID_2_" class="st0" d="M51.8,352.1c-4.5,0-8.5-0.8-12.2-2.8c-3.7-1.6-6.9-4.1-9.4-7.3c-2.4-2.9-4.5-6.5-6.1-10.2
			c-1.6-4.1-2-7.7-2-11.8s0.8-8.1,2.4-12.2c1.6-4.1,3.7-7.3,6.5-10.2c2.8-2.8,5.7-5.3,9.4-6.9c3.7-1.6,7.7-2.4,11.8-2.4
			c4.5,0,8.5,0.8,12.2,2.8c3.7,2,6.9,4.5,9.4,7.3c2.4,2.9,4.5,6.5,6.1,10.2c1.6,3.7,2,7.7,2,11.8c0,4.1-0.8,8.1-2.4,12.2
			c-1.6,4.1-3.7,7.3-6.1,10.2c-2.8,2.8-5.7,5.3-9.4,6.9C60,351.3,55.9,352.1,51.8,352.1L51.8,352.1z M28.2,320
			c0,3.7,0.4,6.9,1.6,10.2c1.2,3.3,2.8,6.1,4.9,8.5c2,2.4,4.5,4.5,7.3,6.1c2.8,1.6,6.1,2,9.8,2c3.7,0,6.9-0.8,9.8-2.4
			c2.8-1.6,5.3-3.7,7.3-6.1c2-2.4,3.7-5.3,4.9-8.5c1.2-3.3,1.6-6.5,1.6-9.8s-0.4-6.9-1.6-10.2c-1.2-3.3-2.9-6.1-4.9-8.5
			c-2-2.4-4.5-4.5-7.3-5.7c-2.9-1.6-6.1-2-9.4-2c-3.7,0-6.9,0.8-9.8,2.4c-2.9,1.6-5.3,3.7-7.3,6.1c-2,2.4-3.7,5.3-4.9,8.5
			C28.6,313.4,28.2,316.7,28.2,320z"/>
		<path id="XMLID_5_" class="st0" d="M134,351.7h-6.1v-26c0-5.7-0.8-9.8-2.4-12.2c-1.6-2.4-4.1-3.7-7.3-3.7c-1.6,0-3.7,0.4-5.3,0.8
			c-1.6,0.8-3.7,1.6-4.9,2.9c-1.6,1.2-2.8,2.4-4.1,4.1c-1.2,1.6-2,3.3-2.4,5.3v28.5h-6.1v-46.4h5.3v10.6c0.8-1.6,2-3.3,3.7-4.5
			c1.2-1.2,2.8-2.4,4.9-3.7c1.6-0.8,3.7-1.6,5.7-2.4c2-0.4,4.1-0.8,6.1-0.8c2.4,0,4.9,0.4,6.5,1.6c1.6,0.8,3.3,2.4,4.1,4.1
			c0.8,1.6,2,3.7,2.4,6.5c0.4,2.4,0.8,5.3,0.8,8.1v27.3L134,351.7L134,351.7z"/>
		<path id="XMLID_7_" class="st0" d="M169.8,352.5c-3.3,0-6.5-0.8-9.4-2c-2.9-1.2-5.3-2.8-7.3-5.3c-2-2.4-3.7-4.9-4.9-7.7
			c-1.2-2.8-1.6-6.1-1.6-9.4c0-3.3,0.4-6.5,1.6-9.4c1.2-2.8,2.8-5.3,4.9-7.7c2-2,4.5-4.1,7.3-5.3c2.9-1.2,6.1-2,9.4-2
			c3.3,0,6.5,0.8,9.4,2c2.9,1.2,5.3,2.9,7.3,5.3c2,2,3.7,4.9,4.9,7.7c1.2,2.9,1.6,6.1,1.6,9v2.4h-39.9c0,2.4,0.8,4.9,1.6,6.9
			c0.8,2,2,4.1,3.7,5.7s3.3,2.8,5.3,3.7c2,0.8,4.1,1.2,6.5,1.2c1.6,0,3.3-0.4,4.5-0.8c1.6-0.4,2.8-0.8,4.1-1.6
			c1.2-0.8,2.4-1.6,3.3-2.4c0.8-1.2,1.6-2,2.4-3.3l5.3,1.6c-0.8,1.6-1.6,3.3-2.8,4.9c-1.2,1.2-2.9,2.4-4.5,3.7
			c-1.6,1.2-3.7,2-5.7,2.4C173.9,352.5,171.9,352.5,169.8,352.5L169.8,352.5z M186.9,326.1c0-2.4-0.8-4.9-1.6-6.9
			c-0.8-2-2-3.7-3.7-5.3c-1.6-1.6-3.3-2.8-5.3-3.7c-2-0.8-4.1-1.2-6.5-1.2c-2.4,0-4.5,0.4-6.5,1.2c-2,0.8-3.7,2-5.3,3.7
			s-2.9,3.3-3.7,5.3c-0.8,2-1.6,4.5-1.6,6.9H186.9z"/>
		<path id="XMLID_10_" class="st1" d="M242.7,304.9c-0.4-0.4-1.2-0.8-2.4-1.6c-1.2-0.8-2.4-1.2-4.1-2c-1.6-0.8-3.3-1.2-5.3-1.6
			c-2-0.4-3.7-0.8-5.7-0.8c-3.3,0-6.1,0.8-7.7,2c-1.6,1.2-2.4,2.9-2.4,5.3c0,1.2,0.4,2.4,0.8,3.3c0.8,0.8,1.6,1.6,2.8,2.4
			c1.2,0.8,2.9,1.2,4.5,1.6c1.6,0.4,4.1,1.2,6.5,1.6c3.3,0.8,6.1,1.6,8.5,2.8c2.4,0.8,4.9,2,6.5,3.7c1.6,1.6,3.3,3.3,4.1,5.3
			c0.8,2,1.6,4.5,1.6,7.3c0,3.3-0.8,6.5-2,8.5c-1.2,2.4-2.9,4.5-5.3,5.7c-2,1.6-4.5,2.4-7.3,3.3c-2.8,0.8-5.7,1.2-9,1.2
			c-4.9,0-9.4-0.8-14.2-2c-4.5-1.6-9-3.7-12.6-6.1l5.3-10.6c0.4,0.4,1.6,1.2,2.8,2c1.2,0.8,3.3,1.6,4.9,2.4c2,0.8,4.1,1.6,6.5,2
			c2.4,0.4,4.9,0.8,7.3,0.8c6.9,0,10.2-2,10.2-6.5c0-1.6-0.4-2.4-1.2-3.7c-0.8-0.8-2-1.6-3.3-2.4c-1.6-0.8-3.3-1.2-5.3-2
			c-2-0.4-4.5-1.2-6.9-2c-2.8-0.8-5.7-1.6-7.7-2.9c-2.4-0.8-4.1-2-5.7-3.3c-1.6-1.2-2.4-2.8-3.3-4.5c-0.8-1.6-1.2-4.1-1.2-6.5
			c0-3.3,0.4-6.1,1.6-8.5c1.2-2.4,2.9-4.5,4.9-6.1c2-1.6,4.5-2.9,7.3-3.7c2.9-0.8,5.7-1.2,9-1.2c4.5,0,8.5,0.8,12.2,2
			c3.7,1.2,6.9,3.3,9.8,4.9L242.7,304.9L242.7,304.9z"/>
		<path id="XMLID_12_" class="st1" d="M261,298.4v-11.8h11.8v11.8H261z M261,351.7v-46.8h11.8v46.8H261z"/>
		<path id="XMLID_15_" class="st1" d="M304.1,352.1c-3.3,0-6.1-0.8-8.5-2c-2.4-1.2-4.9-2.8-6.5-5.3c-2-2-3.3-4.9-4.5-7.7
			c-0.8-2.8-1.6-6.1-1.6-9c0-3.3,0.4-6.5,1.6-9.4c1.2-2.8,2.4-5.3,4.5-7.7c2-2,4.1-4.1,6.9-5.3c2.8-1.2,5.7-2,9-2
			c3.7,0,6.9,0.8,9.8,2.4c2.8,1.6,4.9,3.7,6.9,6.5v-8.1h10.6v44.8c0,3.7-0.8,6.5-2,9.4c-1.2,2.8-3.3,4.9-5.3,6.9
			c-2,2-4.9,3.3-8.1,4.5c-3.3,0.8-6.5,1.6-10.6,1.6c-5.3,0-9.4-0.8-13-2.4c-3.7-1.6-6.5-4.1-9-7.3l6.5-6.5c1.6,2,4.1,4.1,6.9,5.3
			c2.9,1.2,5.7,2,8.5,2c2,0,3.7-0.4,5.3-0.8c1.6-0.4,3.3-1.2,4.5-2.4c1.2-1.2,2.4-2.4,2.8-4.1c0.8-1.6,1.2-3.7,1.2-6.1v-5.7
			c-1.6,2.8-3.7,4.9-6.5,6.1C310.6,350.9,307.4,352.1,304.1,352.1L304.1,352.1z M308.6,342.3c1.2,0,2.4-0.4,3.7-0.8
			c1.2-0.4,2.4-0.8,3.3-1.6c0.8-0.8,2-1.6,2.4-2.4c0.8-0.8,1.2-2,1.6-2.9v-11.4c-1.2-2.9-2.9-4.9-4.9-6.5c-2.4-1.6-4.5-2.4-7.3-2.4
			c-2,0-3.7,0.4-4.9,1.2c-1.2,0.8-2.9,2-4.1,3.3c-1.2,1.2-2,2.8-2.4,4.5c-0.4,1.6-0.8,3.7-0.8,5.3c0,2,0.4,3.7,0.8,5.3
			c0.8,1.6,1.6,3.3,2.8,4.5c1.2,1.2,2.4,2,4.1,2.8C304.9,341.9,306.6,342.3,308.6,342.3L308.6,342.3z"/>
		<path id="XMLID_18_" class="st1" d="M388.4,351.7h-11.8v-26.5c0-3.7-0.8-6.5-2-8.1c-1.2-1.6-3.3-2.4-5.3-2.4
			c-1.2,0-2.4,0.4-3.7,0.8c-1.2,0.4-2.4,1.2-3.7,2c-1.2,0.8-2,2-2.8,3.3c-0.8,1.2-1.6,2.4-2,4.1v27.3h-12.2v-47.2h11v8.5
			c1.6-2.9,4.1-5.3,7.3-6.9s6.9-2.4,11-2.4c2.9,0,5.3,0.4,7.3,1.6c2,1.2,3.3,2.4,4.5,4.1c1.2,1.6,1.6,3.7,2,6.1
			c0.4,2,0.4,4.5,0.4,6.9V351.7z"/>
		<path id="XMLID_20_" class="st1" d="M414,352.5c-2.4,0-4.5-0.4-6.5-1.2c-2-0.8-3.7-1.6-5.3-3.3c-1.6-1.2-2.4-2.8-3.3-4.9
			c-0.8-1.6-1.2-3.7-1.2-6.1c0-2,0.4-4.1,1.6-6.1c0.8-2,2.4-3.7,4.1-4.9c1.6-1.2,4.1-2.4,6.5-3.3c2.4-0.8,5.3-1.2,8.1-1.2
			c2,0,4.1,0,6.1,0.4c2,0.4,3.7,0.8,5.3,1.6v-2.8c0-3.3-0.8-5.3-2.4-7.3c-1.6-2-4.5-2.4-7.7-2.4c-2.4,0-4.9,0.4-7.3,1.2
			c-2.4,0.8-4.9,2-7.3,4.1l-3.7-7.7c6.1-4.1,12.6-6.1,19.5-6.1c6.9,0,11.8,1.6,15.9,4.9c3.7,3.3,5.7,8.1,5.7,14.2v14.7
			c0,1.2,0.4,2,0.8,2.8c0.4,0.4,1.2,0.8,2.4,0.8v10.2c-1.2,0.4-2,0.4-3.3,0.4c-1.2,0-2,0-2.4,0c-2.4,0-4.1-0.4-5.3-1.6
			c-1.2-1.2-2-2.4-2-4.1l-0.4-2.4c-2,2.9-4.5,4.9-7.7,6.1C420.5,351.7,417.3,352.5,414,352.5L414,352.5z M417.3,344
			c2,0,4.1-0.4,5.7-1.2c1.6-0.8,3.3-1.6,4.1-2.9c1.2-0.8,2-2,2-3.3v-5.3c-1.6-0.4-2.8-0.8-4.5-1.2c-1.6-0.4-3.3-0.4-4.9-0.4
			c-3.3,0-5.7,0.8-7.7,2c-2,1.2-2.8,3.3-2.8,5.3c0,2,0.8,3.7,2.4,4.9C413.2,343.2,415.2,344,417.3,344L417.3,344z"/>
		<path id="XMLID_23_" class="st1" d="M454.7,286.2h11.8v49.6c0,3.7,1.6,5.3,4.9,5.3c0.8,0,1.2,0,2.4-0.4c0.8-0.4,1.6-0.4,2.4-0.8
			l1.6,9.8c-1.6,0.8-3.7,1.2-5.7,1.6c-2,0.4-4.1,0.8-5.7,0.8c-3.7,0-6.5-0.8-8.5-2.8c-2-2-3.3-4.9-3.3-8.5L454.7,286.2L454.7,286.2z
			"/>
	</g>
	<path id="XMLID_8438_" class="st0" d="M250.2,128.4c-41.5,0-75.3,33.8-75.3,75.3c0,26.5,13.8,49.7,34.2,63.1
		c1.2-0.8,2.4-1.6,3.7-2.4c0.8-0.4,2-1.2,2.8-1.6c1.2-0.4,2.4-1.2,3.3-1.6c1.2-0.4,2.4-0.8,3.7-1.6c0.8-0.4,2-0.8,2.8-1.2
		c1.2-0.4,2.9-0.8,4.1-1.2c1.2-0.4,2-0.4,3.3-0.8c1.2-0.4,2-0.4,3.3-0.8c1.2-0.4,2.4-0.4,3.7-0.4c1.2,0,2.8-0.4,4.1-0.4v-4.9v-4.1
		v-16.7v-4.1v-15.1h-4.1v-8.1H260v53.7c11.4,1.6,21.6,5.7,30.9,11.4c20.8-13.4,34.2-36.6,34.2-63.1
		C325.5,162.1,291.7,128.4,250.2,128.4L250.2,128.4z M272.6,203.6c0-12.2-10.2-22.4-22.4-22.4c-12.2,0-22.4,10.2-22.4,22.4
		c0,8.5,4.9,16.3,12.2,19.9v4.5c-9.4-4.1-16.3-13.4-16.3-24.4c0-14.7,11.8-26.5,26.4-26.5c14.7,0,26.5,11.8,26.5,26.5
		c0,9.4-4.9,17.5-12.2,22.4v-4.9C269.3,216.7,272.6,210.6,272.6,203.6z M264.4,248v-4.5c16.7-5.7,28.5-21.6,28.5-40.3
		c0-23.2-19.1-42.3-42.7-42.3c-23.6,0-42.7,19.1-42.7,42.7c0,19.9,13.8,37,32.6,41.5v4.1c-20.8-4.5-36.6-23.2-36.6-45.6
		c0-26,20.8-46.8,46.8-46.8c26,0,46.8,20.8,46.8,46.8C297,224.4,283.2,242.3,264.4,248z"/>
</g>
</svg>
