<?xml version="1.0" encoding="utf-8"?>
<!-- Generator: Adobe Illustrator 26.0.0, SVG Export Plug-In . SVG Version: 6.00 Build 0)  -->
<svg version="1.1" id="Layer_1" xmlns="http://www.w3.org/2000/svg" xmlns:xlink="http://www.w3.org/1999/xlink" x="0px" y="0px"
	 viewBox="0 0 500 500" style="enable-background:new 0 0 500 500;" xml:space="preserve">
<style type="text/css">
	.st0{fill-rule:evenodd;clip-rule:evenodd;fill:#0C6FA5;}
	.st1{fill-rule:evenodd;clip-rule:evenodd;fill:#3A4D55;}
	.st2{fill-rule:evenodd;clip-rule:evenodd;fill:#E6E6E7;}
	.st3{fill-rule:evenodd;clip-rule:evenodd;fill:#AAD7F1;}
	.st4{fill-rule:evenodd;clip-rule:evenodd;fill:#5FA6DA;}
	.st5{fill-rule:evenodd;clip-rule:evenodd;fill:#70B6E8;}
	.st6{fill-rule:evenodd;clip-rule:evenodd;fill:#BBBDBF;}
</style>
<g>
	<g>
		<path class="st0" d="M449.7,386.6c0,1.2,1,2.1,2.4,2.1h3.1c1.4,0,3.1-0.9,3.1-2.1V382c0-5.2-2.1-8.4-4.6-10.9
			c-2.6-2.6-6.6-4.4-11.6-4.4c-4,0-7.6,1.1-10.4,3.2c-4.6,3.4-7.7,10-5.5,15.6c2.9,7.5,8.6,14.3,15.5,22.6c2.9,3.5,6,4.7,7.7,10.1
			c1,3.2-0.5,5.5-2.1,7c-1.4,1.4-2.9,2.3-4.9,2.3c-2.6,0-3.5-0.2-5-1.6c-1.6-1.5-2.9-2.1-2.9-5.5v-4.5c0-1.2-1-2.1-2.3-2.1h-3.6
			c-1.3,0-2.4,0.9-2.4,2.1v5.1c0,5.2,1.6,8.5,3.9,11c2.8,2.7,6.8,4.5,11.8,4.5c4,0,7.5-1.2,10.3-3.2c2.6-1.9,6.3-8,6.2-13.5
			c0-1.5,0-3-0.8-4.4c-3.3-5.7-16-20.8-21.8-30.3c-1.7-2.8-1.2-6.9,0.4-8.4c1.5-1.4,3.5-2,5.6-2c2,0,4,0.6,5.5,2
			c1.6,1.5,2.2,2.5,2.2,5.8V386.6L449.7,386.6z M394.6,406.2v27.9c0,1.2,1,2.1,2.3,2.1h3.2c1.3,0,2.4-0.9,2.4-2.1v-52
			c0-5.2-1.5-8.5-3.9-11c-2.7-2.8-6.8-4.5-11.8-4.5c-5,0-9.1,1.7-11.8,4.5c-2.4,2.5-3.9,8-3.9,13.2v49.8c0,1.2,1.1,2.1,2.4,2.1h3.2
			c1.3,0,2.3-0.9,2.3-2.1v-27.9H394.6L394.6,406.2z M378.8,397v-12c0-3.4,0.6-5.9,2.3-7.5c1.5-1.4,3.4-2.1,5.6-2.1
			c2.2,0,4.1,0.7,5.6,2.1c1.7,1.6,2.3,4.1,2.3,7.5v12H378.8L378.8,397z M336.7,406.2v27.9c0,1.2,1,2.1,2.3,2.1h3.2
			c1.3,0,2.4-0.9,2.4-2.1V384c0-5.2-1.5-10.4-3.9-12.9c-2.7-2.8-6.8-4.5-11.8-4.5c-5,0-9.1,1.7-11.8,4.5c-2.4,2.5-3.9,7.6-3.9,12.9
			v50.1c0,1.2,1.1,2.1,2.4,2.1h3.2c1.3,0,2.3-0.9,2.3-2.1v-27.9H336.7L336.7,406.2z M320.9,397v-12.4c0-3.4,0.6-5.9,2.3-7.5
			c1.5-1.4,3.4-2.1,5.6-2.1c2.2,0,4.1,0.7,5.6,2.1c1.7,1.6,2.3,4.1,2.3,7.5V397H320.9L320.9,397z M264.3,434.2
			c0,1.2,1.1,2.1,2.4,2.1h4c1.3,0,2.3-0.9,2.3-2.1v-26.7c0-1.1,0.8-1.9,2-1.9h10.6c1.3,0,2.3-0.9,2.3-2.1v-4.2c0-1.2-1-2.1-2.3-2.1
			H275c-1.2,0-2-0.8-2-1.9v-18.5c0-1.1,0.8-1.9,2-1.9h10.6c1.3,0,2.3-0.9,2.3-2.1v-4.5c0-1.2-1-2.1-2.3-2.1h-18.9
			c-1.3,0-2.4,0.9-2.4,2.1V434.2z"/>
		<path class="st1" d="M227,434.5c0,1.1,1.1,2.1,2.4,2.1h3.6c1.3,0,2.3-0.9,2.3-2.1v-51.3c0-5.7-2-9.2-4.5-11.6
			c-2.7-2.6-8.1-4.4-11.5-4.4c-3.9,0-6.2,1.3-7,1.3c-2,0-1.5-2.8-5.4-2.6c-3.8,0.1-3.9,3.6-3.9,4.9v63.6c0,1.2,1.1,2.1,2.4,2.1h3.6
			c1.3,0,2.3-0.9,2.3-2.1v-49.2c0-3.4,0.6-5.9,2.3-7.5c1.5-1.4,3.4-2.1,5.6-2.1c2.1,0,4.1,0.7,5.6,2.1c1.6,1.6,2.3,4.1,2.3,7.5
			V434.5L227,434.5z M175,436.5c1.3,0,2.3-0.9,2.3-2.1v-4.2c0-1.2-1-2.1-2.3-2.1h-10.6c-1.2,0-2-0.8-2-1.9v-18.4
			c0-1.1,0.8-1.9,2-1.9H175c1.3,0,2.3-0.9,2.3-2.1v-4.5c0-1.2-1-2.1-2.3-2.1h-10.6c-1.2,0-2-0.8-2-1.9V377c0-1.1,0.8-1.9,2-1.9H175
			c1.3,0,2.3-0.9,2.3-2.1v-4.5c0-1.2-1-2.1-2.3-2.1h-18.9c-1.3,0-2.4,0.9-2.4,2.1v65.9c0,1.2,1.1,2.1,2.4,2.1H175L175,436.5z
			 M105.1,436.5c1.3,0,3-0.9,3-2.1v-26.6c0-1.1,0.8-1.9,2-1.9h5.1c9.2,0,16.9-5.6,16.9-15.5V383c0-9.4-6.2-16.6-16.9-16.6h-13.4
			c-1.3,0-2.4,0.9-2.4,2.1v65.9c0,1.2,1.1,2.1,2.4,2.1H105.1L105.1,436.5z M123.2,389.4c0,3.4-0.6,3.7-2.2,5.2
			c-1.5,1.4-3.5,2.3-5.6,2.3h-5.2c-1.4,0-2-0.6-2-1.8v-19c0-1.2,0.7-1.8,2.3-1.8h4.8c2.1,0,4.3,0.7,5.8,2.1c1.6,1.6,2.1,4.1,2.1,7.5
			V389.4L123.2,389.4z M58,436.7c5,0,9.1-1.7,11.8-4.5c2.4-2.5,3.9-5.7,3.9-11v-38.8c0-5.2-1.5-8.5-3.9-11C67.1,368.7,63,367,58,367
			c-5,0-9.9,1.7-12.6,4.5c-2.4,2.5-3.9,5.7-3.9,11v38.8c0,5.2,1.5,8.5,3.9,11C48.1,435,52.9,436.7,58,436.7L58,436.7z M58,428
			c-2.2,0-4.1-0.7-5.6-2.1c-1.7-1.6-2.3-4.1-2.3-7.5v-33.9c0-3.4,0.6-5.9,2.3-7.5c1.5-1.4,3.4-2.1,5.6-2.1c2.2,0,3.4,0.7,4.8,2.1
			c1.7,1.6,2.3,4.1,2.3,7.5v33.9c0,3.4-0.6,5.9-2.3,7.5C61.3,427.3,60.2,428,58,428z"/>
	</g>
	<g>
		<path class="st2" d="M162.4,67.4h175.2c24.6,0,44.8,20.2,44.8,44.8v175.2c0,24.6-20.2,44.8-44.8,44.8H162.4
			c-24.6,0-44.8-20.2-44.8-44.8V112.2C117.6,87.5,137.8,67.4,162.4,67.4z"/>
		<path class="st3" d="M119.7,301.1l1.8-0.6c38.4-2.9,38.4-23,62.9-22.3c31.2,0.9,36.8,22.1,65.1,21.5c31.7-0.7,40.7-20.3,63.6-21.2
			c29.3-1.2,38.1,23.6,66.9,21.6c-6,18.6-23.6,32.2-44.1,32.2H163.5C143.3,332.2,126,319.2,119.7,301.1z"/>
		<path class="st4" d="M272.3,295.2c-14.5,5.9-30.8,5.3-46.9-1.4c16.2-27.5,16.7-43.7-11.1-48.5c-49.8-8.6-64.8-40.4-68.4-76.6
			c16.3,17.9,32.4,22.1,56,14.5c18-5.8,33.5,7.1,46,25.3c10.7-16.5,26.1-29.1,41.8-25.7c30,6.4,31.7,8.4,60.6-13.5
			c-2.5,41.1-22.3,68.8-67.8,76.4c-18.1,3-29.2,9.9-20,27.7L272.3,295.2z"/>
		<path class="st5" d="M272.3,295.2c-5.5,2.2-11.2,3.5-17,3.9c-10.3-25.8-16.4-57.3-16.4-91.2c0-3.6,0.1-7.2,0.2-10.7
			c3.1,3.4,6,7.2,8.8,11.3c10.7-16.5,26.1-29.1,41.8-25.7c30,6.4,31.7,8.4,60.6-13.5c-2.5,41.1-22.3,68.8-67.8,76.4
			c-18.1,3-29.2,9.9-20,27.7L272.3,295.2z"/>
		
			<rect x="168.8" y="105.2" transform="matrix(0.9521 -0.3058 0.3058 0.9521 -29.7913 65.3564)" class="st6" width="49.9" height="45.2"/>
		<path class="st1" d="M162.2,111.2l50.2-16.1l15.5,48.4l-52.8,17l-15.5-48.4L162.2,111.2L162.2,111.2z M208.8,102.2l-42.2,13.5
			l12.1,37.7l42.2-13.5L208.8,102.2z"/>
		
			<rect x="217.6" y="118.1" transform="matrix(0.1481 -0.989 0.989 0.1481 63.0794 359.3977)" class="st6" width="45.2" height="49.9"/>
		<path class="st1" d="M219.2,114.3l52.1,7.8l-7.5,50.2l-54.9-8.2l7.5-50.2L219.2,114.3L219.2,114.3z M265,126.8l-43.8-6.6
			l-5.9,39.1l43.8,6.6L265,126.8z"/>
		
			<rect x="282.1" y="110.5" transform="matrix(0.9987 -5.077108e-02 5.077108e-02 0.9987 -6.3599 15.7618)" class="st6" width="49.9" height="45.2"/>
		<path class="st1" d="M280.9,109l52.6-2.7l2.6,50.7l-55.4,2.8l-2.6-50.7L280.9,109L280.9,109z M328.2,112.2l-44.2,2.2l2,39.5
			l44.2-2.2L328.2,112.2z"/>
		<path class="st1" d="M319,123.7l1.6,18l-3.7,0.3l-1.6-18L319,123.7L319,123.7z M307.4,124.8l1.3,17.2l-3.7,0.3l-1.3-17.2
			L307.4,124.8L307.4,124.8z M295.5,125.5l1.4,17.6l-3.7,0.3l-1.4-17.6L295.5,125.5L295.5,125.5z M253.7,136.3l-2,18l-3.7-0.4l2-18
			L253.7,136.3L253.7,136.3z M242.1,135.1l-2.2,17.2l-3.7-0.5l2.2-17.2L242.1,135.1L242.1,135.1z M230.3,133.4l-2.1,17.6l-3.7-0.4
			l2.1-17.6L230.3,133.4L230.3,133.4z M180.6,123.5l5.9,16.7l-3.5,1.2l-5.9-16.7L180.6,123.5L180.6,123.5z M192,119.7l5.7,16.3
			l-3.5,1.2l-5.7-16.3L192,119.7L192,119.7z M202.8,115.7l6.2,17l-3.5,1.3l-6.2-17L202.8,115.7z"/>
		<path class="st1" d="M162.4,63.3h175.2c13.5,0,25.7,5.5,34.5,14.4c8.9,8.9,14.4,21.1,14.4,34.5v175.2c0,13.5-5.5,25.7-14.4,34.5
			c-8.9,8.9-21.1,14.4-34.5,14.4H162.4c-13.5,0-25.7-5.5-34.5-14.4c-8.9-8.9-14.4-21.1-14.4-34.5V112.2c0-13.5,5.5-25.7,14.4-34.5
			C136.7,68.8,148.9,63.3,162.4,63.3L162.4,63.3z M247.7,202.1c5.4-7.4,11.7-13.7,18.6-17.9c7.5-4.6,15.7-6.8,24-5l4.5,1
			c24.3,5.3,27.1,5.9,53-13.8c1.6-1.2,4-0.9,5.2,0.7c0.6,0.7,0.8,1.6,0.8,2.5l0,0c-1.3,21.4-7.2,39.3-18.7,52.9
			c-11.5,13.7-28.6,23-52.2,26.9c-8.3,1.4-14.8,3.5-18.1,7.1c-2.8,3.1-3,7.9,0.7,15.1c0.1,0.1,0.1,0.2,0.1,0.3l8.2,18.4
			c3.9-1.8,7.5-3.8,11-5.8c8.5-4.8,16.5-9.4,27.8-9.8c15.7-0.6,25.7,5.5,35.6,11.6c8.5,5.2,16.8,10.3,28.8,10.2c0.7-2.9,1-6,1-9.1
			V112.2c0-11.2-4.6-21.3-11.9-28.7c-7.4-7.4-17.5-11.9-28.7-11.9H162.4c-11.2,0-21.3,4.6-28.7,11.9c-7.4,7.4-11.9,17.5-11.9,28.7
			v175.2c0,3.2,0.4,6.3,1.1,9.3c18.4-1.7,27.2-7.7,34.8-12.8c7.6-5.2,14.2-9.7,26.7-9.3c16.7,0.5,26.3,6.3,35.6,11.9
			c1.3,0.8,2.6,1.6,3.9,2.3c6.5-11.5,9.7-20.6,8.7-27.1c-1-6.4-6.9-10.6-19-12.7c-25.9-4.5-42.9-15.1-53.8-29.4
			c-10.9-14.2-15.8-31.8-17.6-50.6c-0.2-2.1,1.3-3.9,3.4-4.1c1.2-0.1,2.4,0.4,3.1,1.2l0,0c7.7,8.4,15.2,13.6,23.4,15.7
			c8.3,2.2,17.5,1.3,28.6-2.3c7.9-2.5,15.4-1.9,22.4,1c6.8,2.8,13,7.8,18.7,14.1c1.6,1.8,3.2,3.7,4.7,5.6
			C246.9,200.9,247.3,201.5,247.7,202.1L247.7,202.1z M270.2,190.5c-7.2,4.4-13.8,11.6-19.2,20c-0.3,0.5-0.6,0.9-1.1,1.2
			c-1.7,1.2-4,0.7-5.2-1c-1.3-1.9-2.7-3.8-4.2-5.7c-1.4-1.8-2.9-3.6-4.3-5.2c-5-5.5-10.4-9.8-16-12.2c-5.4-2.3-11.1-2.8-17.2-0.8
			c-12.5,4-23.1,4.9-32.8,2.4c-6.8-1.8-13.1-5.2-19.2-10.3c2.4,13.5,6.8,25.9,14.7,36.2c9.9,12.8,25.3,22.4,49.2,26.5
			c15.7,2.7,23.5,9,25.1,18.9c1.4,8.3-2.2,18.8-9.3,31.5c6.3,2.4,12.5,3.7,18.6,3.9c6,0.2,12-0.7,17.9-2.7l-8.1-18.1
			c-5.4-10.5-4.6-18,0.4-23.5c4.5-5,12.6-7.9,22.4-9.5c21.8-3.7,37.4-12,47.7-24.4c8.9-10.6,14.1-24.2,16.1-40.3
			c-22.7,16.6-27.4,15.6-52.4,10.1l-4.5-1C282.5,185.2,276.2,186.9,270.2,190.5L270.2,190.5z M288.7,291.1
			c-4.7,2.7-9.5,5.4-15.2,7.7c-8,3.4-16.2,4.9-24.5,4.7c-8.3-0.3-16.6-2.3-25.1-6.1c-0.1,0-0.3-0.1-0.4-0.2c-2.6-1.4-5-2.8-7.5-4.3
			c-8.5-5.1-17.3-10.4-31.9-10.8c-10.1-0.3-15.8,3.5-22.3,8c-8.1,5.5-17.4,11.9-36.5,13.9c2,4.5,4.9,8.6,8.4,12.1
			c7.4,7.4,17.5,11.9,28.7,11.9h175.2c4.8,0,9.4-0.8,13.7-2.4c3.4-1.3,6.6-3.1,9.5-5.2c5.8-4.2,10.5-9.9,13.6-16.5
			c-12.4-0.6-21.1-5.9-29.8-11.2c-8.9-5.5-17.9-11-31.4-10.5C303.6,282.6,296.4,286.7,288.7,291.1z"/>
	</g>
</g>
</svg>
