<?xml version="1.0" encoding="utf-8"?>
<!-- Generator: Adobe Illustrator 26.0.0, SVG Export Plug-In . SVG Version: 6.00 Build 0)  -->
<svg version="1.1" id="Layer_1" xmlns="http://www.w3.org/2000/svg" xmlns:xlink="http://www.w3.org/1999/xlink" x="0px" y="0px"
	 viewBox="0 0 500 500" style="enable-background:new 0 0 500 500;" xml:space="preserve">
<style type="text/css">
	.st0{fill:#253858;}
	.st1{fill-rule:evenodd;clip-rule:evenodd;fill:url(#SVGID_1_);}
	.st2{fill:url(#SVGID_00000072986563047494021790000001066048636001058959_);}
	.st3{fill:#2684FF;}
</style>
<g transform="matrix(1.13192 0 0 1.13192 31.11 155.014)">
	<path class="st0" d="M238.7,96.7c-2.7,5.5-7.6,8.2-13.9,8.2c-10.9,0-16.3-9.4-16.3-21.4c0-11.6,5.6-21.4,17.1-21.4
		c6,0,10.6,2.7,13.1,8.1V63h6.9v37.5c0,12.1-5.6,20.3-20.5,20.3c-5,0.2-9.9-0.6-14.6-2.2v-6.9c4.6,1.6,9.4,2.4,14.4,2.5
		c10.3,0,13.9-5.6,13.9-13.1L238.7,96.7z M135.6,120.2h-7V62.9h7v7.4c2.7-5.5,7.6-8.2,13.9-8.2c10.9,0,16.5,9.4,16.5,21.4
		c0,11.6-5.7,21.4-17.3,21.4c-5.9,0-10.6-2.7-13.1-8.1V120.2z M187.3,104.9c-4.9,0.1-9.9-0.9-14.4-3.1v-7.5
		c4.5,2.5,9.5,3.9,14.6,4.1c5.5,0,8.2-2.2,8.2-5.5s-2.4-4.9-10.2-6.9c-9.2-2.2-13.1-5.7-13.1-12.5c0-7.1,5.6-11.6,14.9-11.6
		c4.6-0.1,9.2,0.9,13.2,3v7.3c-4.9-2.5-9-3.8-13.3-3.8c-5.2,0-8,1.9-8,5c0,2.9,1.9,4.7,9.5,6.5c9.2,2.2,13.8,5.6,13.8,12.8
		C202.7,99.7,198.3,104.9,187.3,104.9L187.3,104.9z M67.7,76.9c0-16.3,9.4-27.8,26.1-27.8s26,11.5,26,27.8c0,16.5-9.4,28.1-26,28.1
		S67.7,93.3,67.7,76.9z M261,86.7c1,7,5.6,11.6,15.3,11.6c4.3,0,8.5-0.7,12.5-2.2v6.5c-3.3,1.8-8.5,2.5-12.8,2.5
		c-15.4,0-22.2-8.9-22.2-21.5c0-12.4,6.9-21.3,19.4-21.3c12.7,0,17.8,8.8,17.8,21.3v3.2L261,86.7L261,86.7z M366.9,86.7
		c1,7,5.6,11.6,15.3,11.6c4.3,0,8.5-0.7,12.5-2.2v6.5c-3.3,1.8-8.6,2.5-12.8,2.5c-15.4,0-22.1-8.9-22.1-21.5
		c0-12.4,6.9-21.3,19.4-21.3c12.7,0,17.8,8.8,17.8,21.3v3.2L366.9,86.7L366.9,86.7z M351.5,104.1h-7.1V62.9h7.1V104.1z M306.5,104.1
		h-7V62.9h7v6.8c2.6-4.7,7.6-7.7,13.1-7.6c9.4,0,14.9,6.5,14.9,17.9v24.2h-7.1V79.2c0-7.4-3-10.7-9.7-10.7
		c-6.6,0-11.1,4.4-11.1,12.7V104.1z M147.6,68.6c-6.4,0-12,4.1-12,13.1v3.3c0,9.2,5.2,13.1,11.2,13.1c8,0,12.1-5.3,12.1-14.8
		C158.9,73.6,155,68.6,147.6,68.6z M226.6,98.3c6.3,0,12-4.1,12-13.1v-3.3c0-9.2-5.2-13.1-11.2-13.1c-8,0-12.1,5.3-12.1,14.8
		C215.3,93.3,219.3,98.3,226.6,98.3L226.6,98.3L226.6,98.3L226.6,98.3z M75.1,76.9c0,11.5,5.4,20.9,18.7,20.9s18.6-9.4,18.6-20.9
		c0-11.2-5.4-20.6-18.6-20.6S75.1,65.7,75.1,76.9L75.1,76.9z M260.9,80.5h23c-0.4-7.7-3.9-12-10.9-12
		C265.4,68.4,261.6,73.3,260.9,80.5z M366.8,80.5h23c-0.4-7.7-3.9-12-10.9-12C371.3,68.4,367.5,73.3,366.8,80.5L366.8,80.5z
		 M348,47.1c0.1,0,0.2,0,0.4,0c2.5,0,4.6,2.1,4.6,4.6c0,0.1,0,0.2,0,0.4c0,2.7-2.2,4.9-4.9,4.9c-2.7,0-4.9-2.2-4.9-4.9
		c0-0.1,0-0.2,0-0.4c0-2.5,2.1-4.6,4.6-4.6C347.8,47.1,347.9,47.1,348,47.1z"/>
	
		<linearGradient id="SVGID_1_" gradientUnits="userSpaceOnUse" x1="-573.4813" y1="-164.1918" x2="-572.5555" y2="-164.1918" gradientTransform="matrix(0 46.9319 -46.9319 0 -7688.2778 26967.7188)">
		<stop  offset="0" style="stop-color:#2684FF"/>
		<stop  offset="0.82" style="stop-color:#0052CC"/>
		<stop  offset="1" style="stop-color:#0052CC"/>
	</linearGradient>
	<circle class="st1" cx="17.6" cy="64.2" r="16.5"/>
	<g>
		
			<linearGradient id="SVGID_00000141430103459757541430000015137542931477342365_" gradientUnits="userSpaceOnUse" x1="-565.4162" y1="-162.178" x2="-564.4904" y2="-162.178" gradientTransform="matrix(15.7209 32.9023 -32.9023 15.7209 3560.2026 21239.168)">
			<stop  offset="0" style="stop-color:#2684FF"/>
			<stop  offset="0.62" style="stop-color:#0052CC"/>
			<stop  offset="1" style="stop-color:#0052CC"/>
		</linearGradient>
		<path style="fill:url(#SVGID_00000141430103459757541430000015137542931477342365_);" d="M16.2,113.4C5.4,106.6-3.6,97.1-9.9,86.1
			c-0.2-0.3-0.3-0.6-0.3-0.9c0-0.7,0.4-1.4,1-1.7l12.5-6.1c0.8-0.5,1.9-0.1,2.4,0.7c6.3,10.6,15.6,19.1,26.9,24.3
			c-4.2,4.2-8.7,7.9-13.6,11C18.1,114,17,114,16.2,113.4z"/>
		<path class="st3" d="M18.9,113.4c10.8-6.9,19.7-16.3,26.1-27.3c0.2-0.3,0.3-0.6,0.3-0.9c0-0.7-0.4-1.4-1-1.7l-12.5-6.1
			c-0.8-0.5-1.9-0.1-2.4,0.7c-6.3,10.6-15.6,19.1-26.9,24.3c4.1,4.2,8.7,7.9,13.6,11C17,114,18.1,114,18.9,113.4z"/>
	</g>
</g>
</svg>
