<?xml version="1.0" encoding="utf-8"?>
<!-- Generator: Adobe Illustrator 26.0.0, SVG Export Plug-In . SVG Version: 6.00 Build 0)  -->
<svg version="1.1" id="Layer_1" xmlns="http://www.w3.org/2000/svg" xmlns:xlink="http://www.w3.org/1999/xlink" x="0px" y="0px"
	 viewBox="0 0 500 500" style="enable-background:new 0 0 500 500;" xml:space="preserve">
<style type="text/css">
	.st0{fill:#253858;}
	.st1{fill-rule:evenodd;clip-rule:evenodd;fill:url(#SVGID_1_);}
	.st2{fill:url(#SVGID_00000039118382387018623420000008874382100425192336_);}
	.st3{fill:#2684FF;}
</style>
<g transform="matrix(1.13192 0 0 1.13192 31.11 155.014)">
	<path class="st0" d="M237.4,96.4c-2.6,5.3-7.4,8-13.5,8c-10.6,0-15.9-9.1-15.9-20.8c0-11.3,5.5-20.8,16.7-20.8
		c5.8,0,10.3,2.6,12.7,7.8v-7h6.7V100c0,11.8-5.5,19.7-19.9,19.7c-4.8,0.1-9.7-0.6-14.3-2.2v-6.7c4.5,1.5,9.2,2.4,13.9,2.4
		c10,0,13.5-5.4,13.5-12.8L237.4,96.4z M137.3,119.2h-6.9V63.5h6.9v7.2c2.6-5.3,7.4-8,13.5-8c10.7,0,16,9.1,16,20.8
		c0,11.3-5.6,20.8-16.8,20.8c-5.8,0-10.3-2.6-12.7-7.8V119.2z M187.4,104.4c-4.8,0.1-9.6-0.9-13.9-3v-7.3c4.4,2.4,9.3,3.8,14.3,3.9
		c5.3,0,8-2.2,8-5.3s-2.3-4.8-9.9-6.6c-8.9-2.2-12.7-5.6-12.7-12.2c0-7,5.4-11.2,14.5-11.2c4.5-0.1,8.9,0.9,12.9,2.9v7.1
		c-4.8-2.4-8.7-3.7-13-3.7c-5,0-7.8,1.8-7.8,4.9c0,2.8,1.9,4.6,9.3,6.3c8.9,2.2,13.4,5.5,13.4,12.4
		C202.5,99.3,198.1,104.4,187.4,104.4L187.4,104.4z M71.3,77.1c0-15.9,9.1-27,25.4-27s25.3,11.1,25.3,27c0,16-9.1,27.2-25.3,27.2
		S71.3,93.1,71.3,77.1z M259.1,86.6c1,6.8,5.4,11.2,14.8,11.2c4.2,0,8.3-0.7,12.2-2.2v6.3c-3.3,1.7-8.3,2.4-12.4,2.4
		c-15,0-21.5-8.6-21.5-20.9c0-12.1,6.7-20.7,18.9-20.7c12.3,0,17.3,8.6,17.3,20.7v3.1H259.1z M362,86.6c1,6.8,5.4,11.2,14.8,11.2
		c4.2,0,8.3-0.7,12.2-2.2v6.3c-3.3,1.7-8.3,2.4-12.4,2.4c-15,0-21.5-8.6-21.5-20.9c0-12.1,6.7-20.7,18.9-20.7
		c12.3,0,17.3,8.6,17.3,20.7v3.1H362z M347,103.6h-6.9v-40h6.9V103.6z M303.4,103.6h-6.9v-40h6.9v6.6c2.5-4.6,7.4-7.5,12.7-7.4
		c9.2,0,14.5,6.3,14.5,17.4l0,23.5h-6.9V79.4c0-7.2-2.9-10.4-9.4-10.4c-6.4,0-10.8,4.2-10.8,12.3L303.4,103.6z M149,69.1
		c-6.2,0-11.7,3.9-11.7,12.8v3.2c0,8.9,5,12.8,10.9,12.8c7.8,0,11.8-5.1,11.8-14.4C160,73.9,156.1,69.1,149,69.1z M225.7,98
		c6.2,0,11.7-3.9,11.7-12.8V82c0-8.9-5-12.8-10.9-12.8c-7.8,0-11.8,5.1-11.8,14.4C214.7,93.1,218.6,98,225.7,98L225.7,98L225.7,98
		L225.7,98z M78.5,77.1c0,11.1,5.2,20.3,18.2,20.3s18.1-9.2,18.1-20.3c0-10.9-5.2-20.1-18.1-20.1S78.5,66.3,78.5,77.1L78.5,77.1z
		 M259,80.7h22.3c-0.4-7.4-3.8-11.7-10.7-11.7C263.4,69,259.7,73.7,259,80.7z M361.9,80.7h22.3c-0.4-7.4-3.8-11.7-10.6-11.7
		C366.3,69,362.6,73.7,361.9,80.7L361.9,80.7z M343.6,48.2c0.1,0,0.2,0,0.3,0c2.5,0,4.5,2,4.5,4.5c0,0.1,0,0.2,0,0.3
		c0,2.6-2.2,4.8-4.8,4.8s-4.8-2.2-4.8-4.8c0-0.1,0-0.2,0-0.3c0-2.5,2-4.5,4.5-4.5C343.4,48.1,343.5,48.2,343.6,48.2z"/>
	
		<linearGradient id="SVGID_1_" gradientUnits="userSpaceOnUse" x1="-646.5502" y1="576.7917" x2="-645.6505" y2="576.7917" gradientTransform="matrix(0 41.4622 41.4622 0 -23892.5059 26861.4805)">
		<stop  offset="0" style="stop-color:#2684FF"/>
		<stop  offset="0.82" style="stop-color:#0052CC"/>
		<stop  offset="1" style="stop-color:#0052CC"/>
	</linearGradient>
	<circle class="st1" cx="22.6" cy="64.8" r="16.1"/>
	<g>
		
			<linearGradient id="SVGID_00000148619337133464575590000016523088542916106378_" gradientUnits="userSpaceOnUse" x1="-637.175" y1="575.225" x2="-636.2753" y2="575.225" gradientTransform="matrix(13.8887 29.0677 29.0677 -13.8887 -7858.2896 26596.4238)">
			<stop  offset="0" style="stop-color:#2684FF"/>
			<stop  offset="0.62" style="stop-color:#0052CC"/>
			<stop  offset="1" style="stop-color:#0052CC"/>
		</linearGradient>
		<path style="fill:url(#SVGID_00000148619337133464575590000016523088542916106378_);" d="M21.2,112.7C10.7,106,2,96.9-4.2,86.1
			c-0.1-0.3-0.2-0.6-0.2-0.9c0-0.7,0.4-1.3,1-1.6l12.2-6c0.8-0.4,1.9-0.1,2.3,0.7c6.1,10.3,15.2,18.5,26.1,23.6
			c-4,4-8.4,7.6-13.2,10.7C23.1,113.2,22,113.2,21.2,112.7z"/>
		<path class="st3" d="M23.9,112.7c10.5-6.7,19.2-15.8,25.4-26.6c0.2-0.3,0.2-0.6,0.2-0.9c0-0.7-0.4-1.3-1-1.6l-12.2-6
			c-0.8-0.4-1.9-0.1-2.3,0.7C27.9,88.7,18.8,96.9,8,102c4,4,8.4,7.6,13.2,10.7C22,113.2,23.1,113.2,23.9,112.7z"/>
	</g>
</g>
</svg>
