<?xml version="1.0" encoding="utf-8"?>
<!-- Generator: Adobe Illustrator 26.0.0, SVG Export Plug-In . SVG Version: 6.00 Build 0)  -->
<svg version="1.1" id="Layer_1" xmlns="http://www.w3.org/2000/svg" xmlns:xlink="http://www.w3.org/1999/xlink" x="0px" y="0px"
	 viewBox="0 0 500 500" style="enable-background:new 0 0 500 500;" xml:space="preserve">
<style type="text/css">
	.st0{fill:#C74634;}
</style>
<path class="st0" d="M219.3,258.9h30l-15.9-25.6l-29.2,46.3h-13.3l35.5-55.5c2.7-3.8,7.9-4.8,11.8-2.1c0.8,0.5,1.5,1.2,2,2
	l35.6,55.6h-13.3l-6.2-10.3H226L219.3,258.9 M357.2,269.2V221h-11.3v53c0,1.5,0.6,2.9,1.7,3.9c1.1,1.1,2.6,1.7,4.1,1.7H403l6.7-10.3
	L357.2,269.2 M170.8,260.6c10.9,0,19.8-8.9,19.8-19.8s-8.9-19.8-19.8-19.8h-49.3v58.6h11.3v-48.2h37.3c5.2,0,9.5,4.2,9.5,9.5
	c0,5.2-4.2,9.5-9.5,9.5h-31.8l33.6,29.2h16.3l-22.6-19H170.8 M52.3,279.5h34c16.2-0.4,28.9-13.9,28.5-30
	c-0.4-15.6-12.9-28.1-28.5-28.5h-34c-16.2-0.4-29.6,12.3-30,28.5s12.3,29.6,28.5,30C51.3,279.6,51.8,279.6,52.3,279.5 M85.6,269.2
	H53.1c-10.5-0.3-18.7-9.1-18.3-19.6c0.3-10,8.3-18,18.3-18.3h32.5c10.5-0.3,19.2,7.9,19.6,18.3c0.3,10.5-7.9,19.2-18.3,19.6
	C86.4,269.2,86,269.2,85.6,269.2 M299.4,279.5h34.7l6.6-10.3h-40.6c-10.5,0.3-19.2-7.9-19.6-18.3c-0.3-10.5,7.9-19.2,18.3-19.6
	c0.4,0,0.8,0,1.2,0h33l6.7-10.3h-40.4c-16.2-0.4-29.6,12.3-30,28.5c-0.4,16.2,12.3,29.6,28.5,30
	C298.4,279.6,298.9,279.6,299.4,279.5 M437.1,269.2c-8.5,0-15.9-5.6-18.3-13.8H467l6.6-10.3h-54.8c2.3-8.2,9.8-13.8,18.3-13.8h33
	l6.6-10.3h-40.4c-16.2,0.4-28.9,13.9-28.5,30c0.4,15.6,12.9,28.1,28.5,28.5h34.7l6.6-10.3L437.1,269.2"/>
</svg>
