<?xml version="1.0" encoding="utf-8"?>
<!-- Generator: Adobe Illustrator 26.0.0, SVG Export Plug-In . SVG Version: 6.00 Build 0)  -->
<svg version="1.1" id="Layer_1" xmlns="http://www.w3.org/2000/svg" xmlns:xlink="http://www.w3.org/1999/xlink" x="0px" y="0px"
	 viewBox="0 0 500 500" style="enable-background:new 0 0 500 500;" xml:space="preserve">
<style type="text/css">
	.st0{fill:#25C151;}
</style>
<path class="st0" d="M121.4,232.9c-1.8-3.5-5-6.1-8.7-7.3c-1.6-0.5-3.3-0.8-5-0.8H81.2v10.5h26.5c1.3,0,2.5,0.4,3.4,1.3
	c0.9,0.9,1.4,2.2,1.3,3.4v4.6H92.1c-2.4-0.1-4.9,0.4-7.1,1.5c-1.8,0.9-3.5,2.2-4.7,3.8c-1.2,1.5-2.1,3.2-2.6,5
	c-0.5,1.6-0.8,3.3-0.8,5c-0.1,2.4,0.5,4.9,1.5,7.1c0.9,1.8,2.2,3.5,3.8,4.7c1.5,1.2,3.1,2.1,4.9,2.6c1.6,0.5,3.3,0.8,5,0.8h15.6
	c2.5,0.1,4.9-0.4,7.1-1.5c1.8-0.9,3.5-2.2,4.7-3.8c1.2-1.5,2.1-3.1,2.6-4.9c0.5-1.6,0.8-3.3,0.8-5V240
	C123,237.5,122.5,235.1,121.4,232.9L121.4,232.9z M112.4,259.8c0,1.2-0.4,2.5-1.2,3.4c-0.9,0.9-2.2,1.4-3.5,1.4H92.2
	c-1.2,0-2.4-0.4-3.4-1.2c-1-0.9-1.5-2.1-1.4-3.4c0-1.3,0.4-2.5,1.2-3.4c0.9-1,2.2-1.5,3.5-1.4h20.3L112.4,259.8z M211.8,255.4
	c2.5,0.1,4.9-0.5,7.1-1.5c3.5-1.8,6.2-5,7.4-8.8c0.5-1.6,0.8-3.3,0.8-5c0.1-2.5-0.5-4.9-1.5-7.1c-0.9-1.8-2.2-3.5-3.8-4.7
	c-1.5-1.2-3.2-2.1-5-2.6c-1.6-0.5-3.3-0.8-5-0.8h-15.7c-2.5-0.1-4.9,0.5-7.1,1.5c-1.8,0.9-3.5,2.2-4.7,3.8c-1.2,1.5-2.1,3.2-2.6,5
	c-0.5,1.6-0.8,3.3-0.8,5v20c-0.1,2.5,0.5,4.9,1.5,7.1c1.8,3.6,5,6.2,8.8,7.4c1.6,0.5,3.3,0.8,5,0.8h29.4v-10.6h-29.3
	c-1.3,0-2.5-0.4-3.4-1.2c-0.9-0.9-1.5-2.2-1.4-3.5v-4.7L211.8,255.4z M191.4,240.1c0-1.3,0.4-2.5,1.2-3.5c0.9-1,2.2-1.5,3.5-1.4
	h15.7c1.2,0,2.4,0.4,3.4,1.2c0.9,0.9,1.5,2.1,1.4,3.4c0,1.3-0.4,2.5-1.2,3.4c-0.9,1-2.2,1.5-3.5,1.4h-20.4L191.4,240.1z
	 M303.2,275.2h-16.8c-6,0-9.5-2.4-11.3-4.5c-3.7-4.1-3.8-9.3-3.7-10.7v-20.1c0-5.8,2.4-9.3,4.4-11.1c4.1-3.8,9.4-3.9,10.7-3.8h21
	v-18.2h10.7v53.6c0,5.5-2.2,8.8-4.2,10.7C309.9,275,304.3,275.2,303.2,275.2L303.2,275.2z M282,260.5c0,0.6,0.1,2.1,0.9,3
	c0.8,0.9,2.3,1,3.4,1h16.8c4.2-0.1,4.2-3.2,4.2-4.2v-24.7H286c-0.6,0-2.2,0.2-3,1c-0.6,0.6-1,1.7-1,3.3L282,260.5z M35.5,293.3H24.8
	v-53.7c0-5.5,2.3-8.8,4.2-10.7c4.2-4.1,9.9-4.2,10.8-4.2h16.8c6,0,9.5,2.4,11.3,4.5c3.7,4.1,3.8,9.3,3.7,10.7v20.2
	c0,5.8-2.4,9.3-4.4,11.1c-4.1,3.8-9.4,3.9-10.7,3.8H35.5L35.5,293.3z M57,264.4c0.6,0,2.2-0.2,3-1c0.6-0.6,1-1.7,1-3.3v-20.8
	c0-0.6-0.1-2.1-0.9-3c-0.8-0.9-2.3-1-3.5-1H39.7c-4.2,0.1-4.2,3.2-4.2,4.3v24.8H57z M242,275.2h-10.7v-35.5c0-5.5,2.2-8.8,4.2-10.7
	c4.2-4.2,9.9-4.3,10.9-4.3h20.8v10.7h-20.8c-4.3,0.1-4.3,3.2-4.3,4.3L242,275.2z M338.6,275.2c-0.8,0-6.6-0.2-10.8-4.4
	c-1.9-1.9-4.1-5.2-4.1-10.6v-35.5h10.7v35.5c0,2.3,0.8,3.1,1.7,3.5c0.8,0.4,1.7,0.7,2.7,0.7h20.9v-39.8h10.7v50.5L338.6,275.2z
	 M159.6,292.8h-25.5v-10.7h25.4c2.7,0,3.6-1,4.2-2.1c0.5-1,0.8-2,0.9-3.1v-2h-20.2c-1.3,0-7,0-11.3-4c-2.1-2-4.6-5.6-4.6-11.8v-18.6
	c0-1.3,0-7,4.2-11.4c2-2.1,5.6-4.6,11.7-4.6h15.2c6.3,0,15.8,4.2,15.8,15.8v36.7C175.2,283.5,170.9,292.8,159.6,292.8L159.6,292.8z
	 M139.2,240.2v19c0,1.9,0.4,3.2,1.2,4c1.3,1.2,3.5,1.2,3.5,1.2h20.6v-23.9c0-2.8-1.1-3.8-2.3-4.4c-0.9-0.4-1.8-0.7-2.8-0.7h-15.1
	c-1.8,0-3.1,0.4-3.9,1.2C139.4,237.5,139.1,239.4,139.2,240.2L139.2,240.2z M459.5,292.9h-25.3v-10.7h25.3c2.7,0,3.6-1,4.2-2
	c0.5-0.9,0.8-2,0.9-3v-2h-20.2c-6.2,0-9.8-2.5-11.8-4.6c-4.1-4.3-4.1-10-4.1-11.4v-34.5h10.7v34.9c0,0.7,0.2,2.6,1.2,3.6
	c0.8,0.8,2.1,1.2,3.9,1.2h20.2v-39.9h10.7v52.6C475.1,283.6,470.9,292.9,459.5,292.9L459.5,292.9z M404.6,275.2h-10.7v-39.8h-18.2
	v-10.7h18.2V211h10.7v13.7h18.2v10.7h-18.3L404.6,275.2z"/>
</svg>
