<?xml version="1.0" encoding="utf-8"?>
<!-- Generator: Adobe Illustrator 26.0.0, SVG Export Plug-In . SVG Version: 6.00 Build 0)  -->
<svg version="1.1" id="Layer_1" xmlns="http://www.w3.org/2000/svg" xmlns:xlink="http://www.w3.org/1999/xlink" x="0px" y="0px"
	 viewBox="0 0 500 500" style="enable-background:new 0 0 500 500;" xml:space="preserve">
<style type="text/css">
	.st0{fill-rule:evenodd;clip-rule:evenodd;fill:#334866;}
	.st1{fill-rule:evenodd;clip-rule:evenodd;fill:#A3B7D6;}
	.st2{fill-rule:evenodd;clip-rule:evenodd;fill:#C8D4E6;}
	.st3{fill-rule:evenodd;clip-rule:evenodd;fill:#B3F2FF;}
	.st4{fill-rule:evenodd;clip-rule:evenodd;fill:#18CEF2;}
	.st5{fill-rule:evenodd;clip-rule:evenodd;fill:#8AE7FA;}
	.st6{fill-rule:evenodd;clip-rule:evenodd;fill:#EDF1F7;}
	.st7{fill-rule:evenodd;clip-rule:evenodd;fill:#5D779B;}
</style>
<g>
	<path class="st0" d="M327.3,360c-5.8,0.7-12.2,5.3-14.9,10.5c-3.9,7.6-3.5,13.7-3.5,22c0,2.6-0.4,10.1,0.7,12
		c1.8,3,5.9,3.7,8.8,1.9c3.4-2.1,2.4-6.7,2.4-10.3c0-4.3-0.1-8.6,0-12.9c0.1-6.2,4.5-15.1,12.1-12.6c2.8,0.9,5.1,4,6,6.7
		c1.6,4.4,1.3,7,1.3,11.5c0,4.2-0.1,8.6,0,12.7c0.1,1.9,0.4,3.2,1.9,4.4c1.4,1.1,3,1.6,4.8,1.4c4.6-0.6,5.1-3.9,5-7.8
		c-0.1-4.2-0.1-8.7,0-12.8c0.1-3.9,0.2-7,2.1-10.6c1.4-2.7,3.6-5.5,6.8-5.9c7.5-1.1,10.6,8.6,10.9,14.4c0.2,4.1,0,8.6,0,12.7
		c0,3.9-0.9,7.4,3.4,9.4c3,1.4,7.4,0.1,8.2-3.3c0.6-2.6,0.3-9.5,0.3-12.5c0-8.2,0.3-13.9-4.3-21.1c-3.1-4.9-9.7-9.6-15.6-10
		c-4-0.2-7.2,0.1-10.8,1.9c-1,0.5-3,1.7-3.9,2.4c-0.9,0.8-2.1,2.7-3.4,2.5c-1.1-0.2-2.5-2-3.5-2.8
		C337.5,360.6,333.3,359.3,327.3,360L327.3,360z M185.8,370.5c1.3-0.6,4.8,0.1,6.2,0.4c2.9,0.7,6.4,3.4,8,5.8c1,1.5,1.1,1.9,1.7,3.6
		c0.2,0.5,0.1,0.9,0.3,1.4c0.3,1.2,0.4,1.9,0.3,3.2c-0.3,6.2-5.3,11.7-11.2,12.9c-4.2,0.8-7.5-0.1-10.9-2.5
		c-2.4-1.7-4.8-5.6-5.4-8.4c-0.1-0.6-0.1-2.7,0-3.4c0-2.3,0.2-3.2,1.4-5.5c1.4-2.6,2.7-3.5,5-5.3C182.8,371.2,184,371.4,185.8,370.5
		L185.8,370.5z M213.8,387c1.6-13.1-7-22.7-18.7-26.3c-3.5-1.1-10-0.9-13.5,0c-3.4,0.9-7.5,2.7-10.1,5c-3.3,3-4.4,4.6-6.7,8.4
		c-1.1,1.8-1.3,3.9-1.7,5.9c-0.5,2.6-0.4,4.5-0.4,7.1c0,9.8,0.2,20.7,0,30.3c0,2.4,0,4,2.1,5.5c1.6,1.2,4,1.5,5.8,0.9
		c1.7-0.6,3.4-1.9,3.8-3.8c0.4-1.7,0.1-12.3,0.1-15c0-3.2,2.1-0.5,3.7,0.3c3.6,2,7.8,3.4,12,3.2c7.3-0.3,15.1-4.6,19.5-10.7
		C212.2,394.3,213.2,391.3,213.8,387L213.8,387z M62,370.6c0.6-0.3,2.5-0.2,3.3-0.2c3.3,0,1.5,0.1,3,0.4c3.8,0.8,5.8,2.8,8.3,5.5
		c0.2,0.3,1,1.9,1.2,2.3c0.6,1.4,0.5,1.3,0.7,2.8c0.1,0.5,0.3,0.9,0.4,1.4c0.3,3.2-0.7,6.8-2.6,9.4c-2.3,3.2-3,3.2-5.8,4.6
		c-3.2,1.6-8.1,1.7-11.2,0c-4.7-2.6-5.9-4.5-7.7-9.6c-0.3-1-0.2-2.2-0.2-3.3c0-1.5-0.1-1.7,0.3-3.1c0.3-1.3,0.1-1.3,0.8-2.7
		c1.5-2.9,2.6-3.6,4.9-5.5c0.6-0.5,2.9-1.6,3.4-1.7C61.3,370.7,61.4,370.9,62,370.6L62,370.6z M62.4,360.1c-8.2,1.1-14.4,4-19.1,11
		c-2.7,3.9-3,6.8-3.7,11.4c-0.3,1.7-0.1,27.6-0.1,30c0,1.8-0.2,5.8,0.1,7.4c0.7,3.3,6,5.6,9.8,2.4c1.8-1.5,1.9-3.6,1.9-5.8
		c-0.1-3.3,0.1-8.2,0-11.2c-0.2-4.2,1.3-1.5,3.2-0.5c0.8,0.4,1.6,0.9,2.4,1.3c1.8,0.8,3.8,1.7,5.7,1.9c1.1,0.1,2.3,0.4,3.3,0.5
		c1,0.1,2.3-0.3,3.4-0.4c5.7-0.7,11-3.7,15-7.7c2.7-2.6,4.2-6.2,5.5-9.5c1.4-3.5,1.1-9.5-0.1-13c-1.4-4.1-2.7-6.2-5.5-9.5
		c-2.3-2.7-5.7-4.6-8.9-6.2C71.9,360.3,66.2,359.7,62.4,360.1L62.4,360.1z M110.1,385.6c-0.1-0.9,0-2.3,0.1-3.2
		c0.2-1.7,0.1-1.2,0.7-2.8c0.7-1.8,1.2-2.9,2.5-4.4c2.1-2.6,5.7-4.5,9-4.7c4.3-0.2,7.1,0.4,10.5,3.2c2.9,2.4,4.4,5.5,4.6,9.2
		c0.2,4-0.7,7.3-3.4,10.3c-4.9,5.6-13.6,6.4-19.2,1.4c-1.9-1.7-3.3-3.8-4.1-6.3c-0.2-0.5-0.4-0.7-0.5-1.2
		C110.2,386.7,110.1,386.2,110.1,385.6L110.1,385.6z M121.1,360.1c-2.9,0.4-8,1.8-10.5,3.3c-3,1.8-5.4,3.6-7.4,6.5
		c-2.7,3.7-3.6,5-4.3,9.7c-0.4,2.4-0.8,3.7-0.6,6.4c0.1,1.4,0.8,4.5,1.2,5.8c1.3,3.8,2.3,5.8,5.1,8.7c2.2,2.3,5.2,4.6,8.1,5.8
		c3.1,1.3,8.4,2.3,11.8,2.2c3.6-0.1,7.7-1.6,11-2.9c1.7-0.7,3.7-2.5,4.3-2.7c1-0.5,2.5,2,3.5,2.8c1.6,1.3,2.7,1.7,4.6,2.4
		c2.3,0.9,8.3-0.4,7.5-5.7c-0.2-1.5-1.9-3.1-3-4c-3.9-3.3-3-6.1-3-10.9c0-4.6,0.4-7.9-1.6-12.3C143.4,365.1,131.5,358.6,121.1,360.1
		L121.1,360.1z M255.9,375.9c-0.4,0.6-2.4,1.1-3.1,1.4c-3.7,1.5-8.7,4-12.5,5.7l-4.6,2.2c-0.7,0.4-0.7,0.7-1.6,0.8
		c-1,0.1-0.8-0.7-0.7-1.4c0.1-0.7,0-1.5,0.2-2.2c0.5-2.2,1.7-4.3,3.1-6c2-2.4,6.1-4.2,9.4-4.3c1.9-0.1,2.4,0.2,4.1,0.5
		C251.5,372.7,255.6,374.5,255.9,375.9L255.9,375.9z M244.9,361.7c-13.3,1.7-23.9,12.8-22.8,26.9c0.7,8.6,6.7,15.6,14.6,18.5
		c1,0.4,2.1,0.9,3.1,1.1c5.5,1,5.8,1,11,0.1c1.6-0.3,4.9-1.2,6.4-1.9l5-3.3c1.3-1,3.3-2.8,4.2-4.1c1.2-1.9,0.8-4.8-0.8-6.3
		c-5.9-5.6-9.9,3.8-15.9,5.6c-1.9,0.6-5.6,0.6-7.5,0c-1-0.3-5-2-5.1-3.1c-0.1-0.9,1.7-1.3,2.4-1.5c0.9-0.3,1.9-0.9,2.8-1.3
		c7.7-3.6,15.2-6.6,22.9-10.3c2.1-1,3.8-1.5,4.3-4C270.9,371,257.7,360,244.9,361.7L244.9,361.7z M447.9,331.4
		c-1.9,0.2-2.5,0.5-3.8,2c-1.3,1.4-1.2,2.9-1.2,4.6c0.1,3.9,0,7.8,0,11.7V385c0,6-0.3,14.2,4.7,18.8c2.1,2,5,4.1,8.1,3.5
		c3.2-0.6,5.7-3.1,4.8-6.5c-0.9-3.4-3.8-2.2-5.2-6.6c-0.8-2.5-0.4-8.4-0.4-11.3v-41c0-4.2,0.9-7.3-2.3-9.5
		C450.9,331.3,449.8,331.3,447.9,331.4L447.9,331.4z M423.1,331.7c-1.2,0.4-2.6,1.5-3.3,2.5c-1.2,1.7-0.8,3.1-0.8,5
		c-0.1,15.4,0,31.3,0,46.8c0,6.3-0.1,13.7,5.3,18.2c2.6,2.2,4.7,3.8,8.4,3c2.9-0.7,5.3-4,3.7-6.9c-1.8-3.1-4.1-2-5.2-6.5
		c-0.5-2-0.2-9-0.2-11.5v-40.9c0-1.5,0.2-4.5-0.1-5.8C430.1,332.5,426,330.7,423.1,331.7L423.1,331.7z M300.4,359.7
		c8.1-1.1,9.9,6.8,5.3,9.4c-2.8,1.6-3-0.1-8.1,1.8c-2.5,0.9-4.1,2.2-5.8,4.1c-2.2,2.5-2.4,3.8-3,7c-0.6,3.1-0.5,15.8-0.4,19.5
		c0.2,7.1-9.1,7.2-11.1,3c-1.2-2.6-0.8-6.3-0.8-9.2c0-3.3,0.1-6.7,0-9.9c0-1.8,0.3-3,0.4-4.6c0.2-5.9,4.8-12.2,9.1-15.8
		c2.1-1.7,4-2.6,6.5-3.5c1.5-0.5,4.1-1.5,5.8-1.7C298.9,359.8,299.7,359.8,300.4,359.7L300.4,359.7z M400.3,360
		c-1.9,0.4-3.9,1.6-4.6,3.6c-0.3,0.9-0.1,22.5-0.1,24.4c0,4.8-0.1,9.4,2.6,13.7c1.9,2.9,6.9,6.4,10.5,5.7c5.7-1.2,5.9-6.8,2.4-9.4
		c-1.1-0.8-3.1-1.4-3.4-4.7c-0.4-3.5-0.2-20.2-0.2-24.4c0-2.3,0.4-5.1-1.2-6.9C404.9,360.4,402.3,359.6,400.3,360L400.3,360z
		 M400.3,340.9c-1.7,0.6-2.7,0.9-4,2.4c-1.1,1.4-1.4,3.3-1.3,5c0.2,2,2.8,4.7,4.5,5c3.1,0.6,4.7,0.3,7-2.1c1.3-1.4,1.2-3.3,1.2-5.2
		C407.6,342.7,403.4,339.9,400.3,340.9z"/>
	<polygon class="st1" points="250,274.7 328.4,318.2 328.4,169.7 250,125.7 	"/>
	<polygon class="st2" points="250,274.7 171.6,318.2 171.6,169.7 250,125.7 	"/>
	<polygon class="st3" points="300.4,273.2 250,244.2 200.3,273.2 250,300.9 	"/>
	<polygon class="st3" points="300.4,229.3 250,200.3 200.3,229.3 250,257 	"/>
	<polygon class="st4" points="250,300.9 200.3,273.2 200.3,291.6 250,318.6 	"/>
	<polygon class="st4" points="250,257 200.3,229.3 200.3,247.7 250,274.7 	"/>
	<polygon class="st5" points="250,318.6 250,300.9 300.4,273.2 300.4,291.6 	"/>
	<polygon class="st5" points="250,274.7 250,257 300.4,229.3 300.4,247.7 	"/>
	<polygon class="st3" points="300.4,186.7 250,157.7 200.3,186.7 250,214.4 	"/>
	<polygon class="st4" points="250,214.4 200.3,186.7 200.3,205.1 250,232.1 	"/>
	<polygon class="st5" points="250,232.1 250,214.4 300.4,186.7 300.4,205.1 	"/>
	<polygon class="st1" points="150.6,305.5 171.6,318.2 171.6,169.7 150.6,157.7 	"/>
	<polygon class="st6" points="349.4,305.5 328.4,318.2 328.4,169.7 250,125.7 171.6,169.7 150.6,157.7 250,100.6 349.4,157.7 	"/>
	<polygon class="st0" points="150.6,305.5 150.6,157.7 129.2,145.3 129.2,294.1 	"/>
	<polygon class="st7" points="150.6,157.7 129.2,145.3 250,75.9 370.8,145.3 370.8,294.1 349.4,305.5 349.4,157.7 250,100.6 	"/>
</g>
</svg>
