<?xml version="1.0" encoding="utf-8"?>
<!-- Generator: Adobe Illustrator 26.0.0, SVG Export Plug-In . SVG Version: 6.00 Build 0)  -->
<svg version="1.1" id="Layer_1" xmlns="http://www.w3.org/2000/svg" xmlns:xlink="http://www.w3.org/1999/xlink" x="0px" y="0px"
	 viewBox="0 0 500 500" style="enable-background:new 0 0 500 500;" xml:space="preserve">
<style type="text/css">
	.st0{fill:#FFFFFF;}
	.st1{fill:#169CEE;}
</style>
<g>
	<circle class="st0" cx="111.9" cy="250.6" r="71.8"/>
	<path class="st1" d="M465.4,284.7v-10.6c-5.2,2.8-10.8,3.9-15.7,3.9c-10,0-16.9-5-17.3-16.5h35.4c0.5-3.1,0.6-6.3,0.6-8.8
		c0-12.8-7.5-22.5-20.9-22.6c-16.3-0.1-26.6,11.8-26.6,30.1v0.3c0,17.3,11.2,27.6,27.8,27.6C454.3,288,460.6,287,465.4,284.7
		 M447.1,239.3c7.2,0,10.7,5,10.7,12.8v0.6h-24.7C434.7,244,439.6,239.3,447.1,239.3 M393.1,263l1.2,0.5c8.1,2.9,10,4.7,10,8.4
		c0,4.3-3.2,6.6-10,6.6c-5.4,0-11.8-1.7-18.2-4.8v11.1c5.4,2.1,12,3.2,17.7,3.2c14.2,0,21.5-6.8,21.5-16.3c0-8.4-3.9-13.5-15.7-17.7
		l-1.2-0.5c-9-3.2-10.7-5-10.7-8.2c0-3.5,2.9-6.2,9.4-6.2c5,0,10.1,1.7,15.6,4.3V233c-4.7-1.7-9.7-2.9-15.3-2.9
		c-12.6,0-20.5,6.9-20.5,16.6C376.9,254.4,380.9,258.6,393.1,263 M350.8,249.1c3.5-5.4,8.6-8.4,14.9-8.4c2.1,0,4.4,0.3,6.2,0.9v-10
		c-1.7-0.6-3.9-1-6.2-1c-6.5,0-11.3,2.8-15.7,8.5l-0.5-7.8h-9.6v55.6h10.8v-37.8H350.8z M319.9,287h9.6v-37.5
		c0-13.2-6.6-19.5-20.4-19.5c-6.6,0-13.5,2.1-18.7,4.8v10.7c6.2-3.7,12.8-5.9,18.1-5.9c7.4,0,10.3,3.2,10.3,9.1v4.4
		c-15.1,0.6-24.2,3.1-28.9,7.8c-3.3,3.2-5,7.8-5,12.3c0,9.6,7,15,16.6,15c6.2,0,12.3-2.5,17.7-7.6L319.9,287z M303.7,279
		c-4.7,0-7.9-2.5-7.9-6.6c0-6.5,5.4-10.1,22.9-10.7v9.7C314.6,276,309.7,279,303.7,279 M241.5,252.9v-28.6h14.2
		c9.7,0,15.3,4.5,15.3,14.1v0.1c0,9.7-5.6,14.2-15.3,14.2h-14.2V252.9z M230,287h11.4v-23.8h13.4c17.2,0,27.3-9.1,27.3-24.5v-0.1
		c0-15.3-10.3-24.4-27.3-24.4H230V287z M125.3,269.5H85.8c-5.8,0-9.1,3.5-9.1,8.6c0,4.5,3.1,7.8,7.5,7.8c5.2,0,8.1-3.5,8.4-8.6H104
		c-0.6,12.4-8.4,19.1-19.9,19.1c-10.8,0-18.9-7.4-18.9-18.3c0-11.4,8.5-19.4,21.3-19.4h39.1c13.2,0,23.2-9.7,23.2-22.7
		c0-13.2-9-22.5-21.7-22.5c-12.6,0-22.9,9.2-22.9,26.3v11.2H92.5v-11.2c0-22.6,14.5-37.3,34.7-37.3c19.2,0,33.2,13.8,33.2,33.3
		C160.5,255.3,145.5,269.5,125.3,269.5 M111.9,330.3c44.9,0,80.3-35.5,80.3-80.3s-35.4-80.3-80.3-80.3S31.6,205.4,31.6,250
		C31.6,294.8,67,330.3,111.9,330.3"/>
</g>
</svg>
