<?xml version="1.0" encoding="utf-8"?>
<!-- Generator: Adobe Illustrator 26.0.0, SVG Export Plug-In . SVG Version: 6.00 Build 0)  -->
<svg version="1.1" id="Layer_1" xmlns="http://www.w3.org/2000/svg" xmlns:xlink="http://www.w3.org/1999/xlink" x="0px" y="0px"
	 viewBox="0 0 500 500" style="enable-background:new 0 0 500 500;" xml:space="preserve">
<style type="text/css">
	.st0{fill-rule:evenodd;clip-rule:evenodd;fill:#F29511;}
	.st1{fill-rule:evenodd;clip-rule:evenodd;fill:url(#SVGID_1_);}
</style>
<g>
	<path class="st0" d="M260.4,193.5h25.2c1.7,0.4,3.4,0.8,5.1,1.4h-35.4C257,194.3,258.7,193.8,260.4,193.5L260.4,193.5z
		 M294.6,196.2c1.1,0.4,2.1,0.9,3.1,1.4h-49.4c1-0.5,2.1-0.9,3.1-1.4H294.6L294.6,196.2z M300.5,198.9c0.8,0.4,1.6,0.9,2.4,1.4
		h-59.7c0.8-0.5,1.6-0.9,2.4-1.4H300.5L300.5,198.9z M305.1,201.7c0.7,0.4,1.3,0.9,2,1.4h-68c0.6-0.5,1.3-0.9,2-1.4H305.1
		L305.1,201.7z M308.9,204.4c0.6,0.4,1.1,0.9,1.7,1.4h-75.1c0.5-0.5,1.1-0.9,1.7-1.4H308.9L308.9,204.4z M312.1,207.2
		c0.5,0.4,1,0.9,1.4,1.4h-81.1c0.5-0.5,1-0.9,1.4-1.4H312.1L312.1,207.2z M315,209.9c0.4,0.4,0.9,0.9,1.3,1.4h-86.4
		c0.4-0.5,0.8-0.9,1.3-1.4H315L315,209.9z M317.4,212.7c0.4,0.4,0.8,0.9,1.1,1.4h-91.1c0.4-0.5,0.7-0.9,1.1-1.4H317.4L317.4,212.7z
		 M319.6,215.4c0.3,0.4,0.7,0.9,1,1.4h-95.2c0.3-0.5,0.7-0.9,1-1.4H319.6L319.6,215.4z M321.6,218.1c0.3,0.4,0.6,0.9,0.9,1.4h-98.9
		c0.3-0.5,0.6-0.9,0.9-1.4H321.6L321.6,218.1z M323.3,220.9c0.3,0.4,0.5,0.9,0.8,1.4H222c0.3-0.5,0.5-0.9,0.8-1.4H323.3L323.3,220.9
		z M324.8,223.6c0.2,0.4,0.5,0.9,0.7,1.4H220.6c0.2-0.5,0.4-0.9,0.7-1.4H324.8L324.8,223.6z M326.1,226.4c0.2,0.4,0.4,0.9,0.6,1.4
		H219.3c0.2-0.5,0.4-0.9,0.6-1.4H326.1L326.1,226.4z M327.3,229.1c0.2,0.5,0.3,0.9,0.5,1.4H218.3c0.2-0.5,0.3-0.9,0.5-1.4H327.3
		L327.3,229.1z M328.3,231.8c0.2,0.5,0.3,0.9,0.4,1.4H217.3c0.1-0.5,0.3-0.9,0.4-1.4H328.3L328.3,231.8z M329.1,234.6
		c0.1,0.5,0.2,0.9,0.4,1.4H216.6c0.1-0.5,0.2-0.9,0.4-1.4H329.1L329.1,234.6z M329.8,237.3c0.1,0.5,0.2,0.9,0.3,1.4H216
		c0.1-0.5,0.2-0.9,0.3-1.4H329.8L329.8,237.3z M330.3,240.1c0.1,0.5,0.2,0.9,0.2,1.4H215.5c0.1-0.5,0.1-0.9,0.2-1.4H330.3
		L330.3,240.1z M330.8,242.8c0.1,0.5,0.1,0.9,0.2,1.4H215.1c0-0.5,0.1-0.9,0.2-1.4H330.8L330.8,242.8z M331,245.5
		c0,0.5,0.1,0.9,0.1,1.4H214.9c0-0.5,0.1-0.9,0.1-1.4H331L331,245.5z M331.2,248.3c0,0.5,0,0.9,0,1.4H214.8c0-0.5,0-0.9,0-1.4H331.2
		L331.2,248.3z M331.2,251c0,0.5,0,0.9,0,1.4H214.9c0-0.5,0-0.9,0-1.4H331.2L331.2,251z M331.1,253.8c0,0.5-0.1,0.9-0.1,1.4H215
		c0-0.5-0.1-0.9-0.1-1.4H331.1L331.1,253.8z M330.9,256.5c0,0.5-0.1,0.9-0.2,1.4H215.3c-0.1-0.5-0.1-0.9-0.2-1.4H330.9L330.9,256.5z
		 M330.5,259.3c-0.1,0.5-0.1,0.9-0.2,1.4H215.8c-0.1-0.5-0.2-0.9-0.2-1.4H330.5L330.5,259.3z M330,262c-0.1,0.5-0.2,0.9-0.3,1.4
		H216.3c-0.1-0.5-0.2-0.9-0.3-1.4H330L330,262z M329.4,264.7c-0.1,0.5-0.2,0.9-0.4,1.4H217c-0.1-0.5-0.3-0.9-0.4-1.4H329.4
		L329.4,264.7z M328.6,267.5c-0.1,0.5-0.3,0.9-0.4,1.4H217.9c-0.2-0.5-0.3-0.9-0.4-1.4H328.6L328.6,267.5z M327.7,270.2
		c-0.2,0.5-0.3,0.9-0.5,1.4H218.9c-0.2-0.5-0.4-0.9-0.5-1.4H327.7L327.7,270.2z M326.6,273c-0.2,0.5-0.4,0.9-0.6,1.4H220.1
		c-0.2-0.5-0.4-0.9-0.6-1.4H326.6L326.6,273z M325.3,275.7c-0.2,0.5-0.5,0.9-0.7,1.4H221.4c-0.2-0.4-0.5-0.9-0.7-1.4H325.3
		L325.3,275.7z M323.9,278.4c-0.3,0.5-0.5,0.9-0.8,1.4H223c-0.3-0.4-0.5-0.9-0.8-1.4H323.9L323.9,278.4z M322.2,281.2
		c-0.3,0.5-0.6,0.9-0.9,1.4h-96.7c-0.3-0.4-0.6-0.9-0.9-1.4H322.2L322.2,281.2z M320.4,283.9c-0.3,0.5-0.7,0.9-1,1.4h-92.7
		c-0.3-0.4-0.7-0.9-1-1.4H320.4L320.4,283.9z M318.3,286.7c-0.4,0.5-0.7,0.9-1.1,1.4h-88.3c-0.4-0.4-0.8-0.9-1.1-1.4H318.3
		L318.3,286.7z M315.9,289.4c-0.4,0.5-0.9,0.9-1.3,1.4h-83.2c-0.4-0.4-0.9-0.9-1.3-1.4H315.9L315.9,289.4z M313.2,292.1
		c-0.5,0.5-1,0.9-1.5,1.4h-77.5c-0.5-0.4-1-0.9-1.5-1.4H313.2L313.2,292.1z M310.2,294.9c-0.6,0.5-1.1,0.9-1.7,1.4h-70.9
		c-0.6-0.4-1.1-0.9-1.7-1.4H310.2L310.2,294.9z M306.6,297.6c-0.7,0.5-1.3,0.9-2,1.4h-63.1c-0.7-0.4-1.4-0.9-2-1.4H306.6
		L306.6,297.6z M302.3,300.4c-0.8,0.5-1.6,0.9-2.5,1.4h-53.6c-0.8-0.4-1.7-0.9-2.5-1.4H302.3L302.3,300.4z M297,303.1
		c-1.1,0.5-2.2,0.9-3.3,1.4h-41.4c-1.1-0.4-2.2-0.9-3.3-1.4H297L297,303.1z M289.6,305.9c-1.8,0.5-3.7,1-5.6,1.4h-22
		c-1.9-0.4-3.8-0.8-5.6-1.4H289.6z"/>
	<linearGradient id="SVGID_1_" gradientUnits="userSpaceOnUse" x1="70.4831" y1="259.7414" x2="391.6898" y2="222.9736">
		<stop  offset="0" style="stop-color:#1B2469"/>
		<stop  offset="1" style="stop-color:#091027"/>
	</linearGradient>
	<path class="st1" d="M55.8,197.1h37.1c8.2,0,14.3,0.9,18.5,2.6c4.2,1.7,7.4,4.2,9.6,7.4c2.3,3.3,3.4,7.1,3.4,11.6
		c0,3.2-0.6,6.3-1.7,9.2c-1.1,2.9-2.8,5.7-5.1,8.4c-2.3,2.6-4.8,4.8-7.7,6.5c-2.9,1.7-6.1,2.9-9.6,3.6c-5.2,1.1-10.3,1.6-15.3,1.6
		h-9.6l-3.5,15.4c-0.4,1.5-0.5,2.7-0.5,3.5c0,0.9,0.4,1.5,1.1,2c0.7,0.5,2.1,0.7,4.2,0.7h4.6l-2.8,11.6H37.2l2.7-11.6H43
		c3,0,5-0.4,6.2-1.3c1.1-0.9,2-2.6,2.6-5.2l10.8-48c0.3-1.4,0.5-2.4,0.5-3.2c0-0.8-0.2-1.4-0.5-1.9c-0.4-0.5-0.9-0.9-1.6-1.1
		c-0.5-0.2-1.7-0.3-3.6-0.3h-4.2L55.8,197.1L55.8,197.1z M78.6,234.7H83c4.5,0,7.7-0.3,9.7-1c2.8-0.9,5.1-2.6,7-5.1
		c1.9-2.5,2.9-5.2,2.9-8.1c0-2.1-0.5-4-1.6-5.6c-1.1-1.6-2.5-2.7-4.4-3.4c-1.9-0.7-4.9-1.1-9-1.1h-3.4L78.6,234.7L78.6,234.7z
		 M168.3,192.8l-15.8,69.9c-0.5,2.3-0.8,3.7-0.8,4.3c0,0.7,0.2,1.2,0.7,1.6c0.5,0.4,1,0.6,1.6,0.6c0.8,0,1.7-0.3,2.8-0.9
		c1.8-0.9,3.3-2.1,4.7-3.4l6.5,7.8c-3.9,3.7-7.4,6.3-10.7,7.8c-3.3,1.5-6.6,2.2-10,2.2c-4.3,0-7.8-1.3-10.5-3.9
		c-2.7-2.6-4-5.9-4-9.7c0-2,0.4-4.6,1.1-7.9l11.7-51.6h-13.2l3.1-11.6c3.9-0.1,8-0.5,12.2-1.3c4.2-0.8,8.9-2,14.3-3.8H168.3
		L168.3,192.8z M224,259.5l7.6,8.8c-5.9,5.2-11.5,8.9-16.7,11.1c-5.3,2.2-10.7,3.3-16.3,3.3c-7.8,0-13.8-1.6-18.2-4.9
		c-6.7-5.1-10.1-12-10.1-20.7c0-6.5,1.8-12.5,5.5-18.2c3.6-5.6,8.9-10.3,15.8-13.9c6.9-3.6,14.3-5.4,22.1-5.4
		c6.6,0,11.7,1.5,15.4,4.4c3.7,2.9,5.5,6.5,5.5,10.6c0,2.9-0.6,5.4-1.9,7.6c-1.7,2.9-4.1,5.3-7.1,7.2c-3.1,1.9-7.7,3.6-14,4.9
		c-6.2,1.3-12.8,2-19.8,2v1.5c0,3.3,1.1,6,3.2,8.2c2.1,2.1,4.9,3.2,8.3,3.2c2.9,0,6-0.8,9.3-2.3C217.1,264.8,220.9,262.3,224,259.5
		L224,259.5z M194.1,245.7c6.3-0.4,11.2-1.1,14.6-2.1c3.4-1.1,5.8-2.4,7.3-4c1.1-1.2,1.6-2.5,1.6-3.9c0-1.3-0.5-2.4-1.5-3.3
		c-1-0.9-2.4-1.3-4.1-1.3c-2,0-4.2,0.6-6.6,1.7c-2.4,1.2-4.5,2.8-6.4,4.8C197.2,239.6,195.6,242.3,194.1,245.7L194.1,245.7z
		 M267.9,219.6h-5c-4.3,2.7-9,4.4-14.1,5.2l-2.5,11.6h9.2l6.2,12.9c-3.7,5.6-6.3,9.2-8,11.1c-1.6,1.8-3.2,3.1-4.7,3.8
		c-1.5,0.7-3.4,1.1-5.9,1.2c-3.5,0.2-6,0.6-7.3,1.2c-1.4,0.7-2.5,1.7-3.4,3.1c-0.9,1.4-1.4,3-1.4,4.6c0,1.5,0.4,2.9,1.2,4.3
		c0.8,1.4,1.8,2.3,2.9,3c1.6,0.8,3.3,1.1,5.1,1.1c2.2,0,4.7-0.6,7.4-1.9c2.7-1.3,5.7-3.7,9.2-7.3c3.4-3.6,6.8-8,10.1-13.3l3.5,7.3
		c2,4.2,3.9,7.3,5.7,9.3c1.8,2,4,3.5,6.4,4.5c2.5,1,5.2,1.5,8.2,1.5c7.6,0,15-3.3,22.1-10l-7.1-7.8c-3.3,3.1-6.2,4.6-8.9,4.6
		c-1.6,0-3.2-0.8-4.9-2.4c-1.6-1.6-3.7-5-6.1-10.2l-3.2-6.6c4-5.5,6.2-8.6,6.7-9.1c1.1-1.3,2.3-2.5,3.7-3.6c1-0.8,2.1-1.3,3.1-1.6
		c0.7-0.2,2.4-0.4,5-0.5c2.4-0.1,3.8-0.3,4.3-0.4c1.2-0.3,2.3-0.8,3.5-1.7c1.2-0.8,2.1-1.9,2.7-3c0.6-1.2,0.9-2.5,0.9-4.1
		c0-2.3-0.8-4.2-2.5-5.8c-1.6-1.6-3.7-2.3-6.3-2.3c-2.3,0-4.7,0.6-7.4,1.8c-2.7,1.2-5.4,3.1-8,5.7c-1.9,1.8-5.5,6.5-10.8,14
		L267.9,219.6L267.9,219.6z M389.4,221.1l-10.9,41.8c-0.5,1.9-0.7,3-0.7,3.6c0,0.8,0.2,1.5,0.7,2c0.5,0.5,1.1,0.8,1.8,0.8
		c0.8,0,1.7-0.3,2.8-0.9c1.8-1,3.3-2.1,4.6-3.4l6.5,7.9c-6.8,6.6-13.8,9.9-20.9,9.9c-4.2,0-7.6-1.2-10.2-3.5
		c-2.1-1.9-3.7-4.7-4.7-8.4c-2.5,3.4-5.6,6.2-9.3,8.5c-3.8,2.3-8,3.5-12.6,3.5c-4.7,0-8.5-1.4-11.3-4.1c-2.8-2.7-4.2-6.2-4.2-10.5
		c0-2.5,0.3-4.7,0.9-6.6c0.1-0.6,0.3-1.2,0.4-1.8l5-23.1h-12.9l2.9-11.6c4.2-0.1,8.6-0.7,13.3-1.6c4.7-0.9,9-2.2,12.9-3.7h6.3
		l-8.8,41.2c-0.5,2.1-0.7,3.5-0.7,4.1c0,1,0.4,1.8,1.2,2.4c0.8,0.6,1.8,0.9,3,0.9c1.7,0,3.5-0.6,5.4-1.9c2.8-1.9,5.3-4.5,7.6-8.1
		c2.3-3.5,4.4-7.9,6.2-13.2c1.9-5.2,2.9-8.7,3.2-10.4c0.1-0.6,0.2-1.3,0.4-2l3.1-11.7H389.4L389.4,221.1z M437.2,219.6
		c5.3,0,10,0.7,14.2,2.2c4.2,1.5,7.2,3.3,8.9,5.3c1.7,2,2.6,4,2.6,6.1c0,2.2-0.7,4.1-2.1,5.6c-1.4,1.5-3.3,2.2-5.6,2.2
		c-1.1,0-2.1-0.1-3.1-0.4c-1-0.3-2-0.7-2.8-1.3c-0.6-0.4-1.8-1.3-3.4-2.9c-1.6-1.6-2.8-2.6-3.4-2.9c-1.1-0.6-2.2-1.1-3.6-1.4
		c-1.3-0.4-2.8-0.5-4.4-0.5c-2.8,0-4.7,0.4-5.9,1.3c-1.2,0.8-1.8,1.9-1.8,3.2c0,1.1,0.3,1.9,1,2.5c0.9,0.9,2.4,1.7,4.3,2.3
		c8,2.7,13.7,4.8,17,6.5c3.4,1.7,5.9,3.7,7.6,6c1.7,2.3,2.6,5.1,2.6,8.3c0,3.7-1.2,7.1-3.5,10.4c-2.3,3.3-5.7,5.9-10.1,7.8
		c-4.4,1.9-10,2.9-16.7,2.9c-9.8,0-17.6-1.8-23.4-5.5c-4.5-2.8-6.7-6.1-6.7-9.8c0-2.2,0.8-4.1,2.3-5.6c1.5-1.5,3.4-2.3,5.6-2.3
		c0.9,0,1.9,0.2,2.8,0.5c0.9,0.3,1.9,0.9,3,1.7c0.7,0.5,1.8,1.6,3.3,3.3c1.2,1.4,2.1,2.3,2.8,2.8c1.9,1.4,3.6,2.3,5.3,2.8
		c1.6,0.5,3.7,0.8,6.2,0.8c3.3,0,5.7-0.4,7.2-1.3c2-1.2,3-2.5,3-4c0-1.5-0.7-2.7-2.2-3.7c-1.1-0.7-4.8-2.1-11-4.2
		c-7.3-2.5-12.3-5.2-15.1-8.3c-2.8-3-4.2-6.5-4.2-10.5c0-3.5,1.1-6.7,3.2-9.6c2.1-3,5.4-5.4,9.8-7.2
		C425.1,220.5,430.6,219.6,437.2,219.6z"/>
</g>
</svg>
