<?xml version="1.0" encoding="utf-8"?>
<!-- Generator: Adobe Illustrator 26.0.0, SVG Export Plug-In . SVG Version: 6.00 Build 0)  -->
<svg version="1.1" id="Layer_1" xmlns="http://www.w3.org/2000/svg" xmlns:xlink="http://www.w3.org/1999/xlink" x="0px" y="0px"
	 viewBox="0 0 500 500" style="enable-background:new 0 0 500 500;" xml:space="preserve">
<style type="text/css">
	.st0{fill-rule:evenodd;clip-rule:evenodd;fill:#5C6BC0;}
	.st1{fill-rule:evenodd;clip-rule:evenodd;fill:#FFFFFF;}
</style>
<g>
	<g>
		<path class="st0" d="M201.9,138h96.2c11.7,0,21.3,9.6,21.3,21.3v96.2c0,11.7-9.6,21.3-21.3,21.3h-96.2c-11.7,0-21.3-9.6-21.3-21.3
			v-96.2C180.6,147.6,190.2,138,201.9,138z"/>
		<path class="st1" d="M198.6,237.1v-59.4h19.3c7.3,0,12.1,0.3,14.3,0.9c3.4,0.9,6.3,2.8,8.6,5.8c2.3,3,3.5,6.8,3.5,11.6
			c0,3.6-0.7,6.7-2,9.2c-1.3,2.5-3,4.4-5,5.9c-2,1.4-4.1,2.4-6.2,2.8c-2.9,0.6-7,0.9-12.5,0.9h-7.8v22.4H198.6L198.6,237.1z
			 M210.6,187.7v16.9h6.6c4.7,0,7.9-0.3,9.5-0.9c1.6-0.6,2.8-1.6,3.7-2.9c0.9-1.3,1.4-2.9,1.4-4.6c0-2.2-0.6-4-1.9-5.4
			c-1.3-1.4-2.9-2.3-4.8-2.7c-1.4-0.3-4.3-0.4-8.6-0.4H210.6L210.6,187.7z M254.1,237.1v-59.4h11.7l24.5,39.8v-39.8h11.1v59.4h-12
			l-24.1-39v39H254.1z"/>
	</g>
	<path class="st0" d="M35.9,347.5V298h18.7c3.3,0,5.8,0.2,7.5,0.5c2.4,0.4,4.5,1.2,6.1,2.3c1.6,1.1,3,2.7,4,4.8c1,2,1.5,4.3,1.5,6.7
		c0,4.2-1.3,7.8-4,10.7c-2.7,2.9-7.5,4.4-14.5,4.4H42.5v20.2H35.9L35.9,347.5z M42.5,321.5h12.8c4.2,0,7.2-0.8,9-2.4
		c1.8-1.6,2.7-3.8,2.7-6.7c0-2.1-0.5-3.8-1.6-5.3c-1-1.5-2.4-2.5-4.1-2.9c-1.1-0.3-3.1-0.4-6.1-0.4H42.5V321.5L42.5,321.5z
		 M79,329.5c0-6.6,1.8-11.5,5.5-14.7c3.1-2.6,6.8-4,11.3-4c4.9,0,8.9,1.6,12.1,4.8c3.1,3.2,4.7,7.7,4.7,13.3c0,4.6-0.7,8.2-2.1,10.9
		c-1.4,2.6-3.4,4.7-6,6.2c-2.6,1.5-5.5,2.2-8.7,2.2c-5,0-9.1-1.6-12.2-4.8C80.5,340.2,79,335.6,79,329.5L79,329.5z M85.2,329.6
		c0,4.6,1,8,3,10.3c2,2.3,4.5,3.4,7.6,3.4c3,0,5.5-1.1,7.5-3.4c2-2.3,3-5.8,3-10.5c0-4.4-1-7.8-3-10c-2-2.3-4.5-3.4-7.5-3.4
		c-3.1,0-5.6,1.1-7.6,3.4C86.2,321.6,85.2,325,85.2,329.6L85.2,329.6z M119.7,361.2v-49.6h5.5v4.7c1.3-1.8,2.8-3.2,4.4-4.1
		c1.6-0.9,3.6-1.4,6-1.4c3.1,0,5.8,0.8,8.1,2.4c2.3,1.6,4.1,3.8,5.3,6.6c1.2,2.9,1.8,6,1.8,9.4c0,3.7-0.7,6.9-2,9.9
		c-1.3,2.9-3.2,5.2-5.7,6.7c-2.5,1.6-5.1,2.3-7.9,2.3c-2,0-3.8-0.4-5.4-1.3c-1.6-0.9-2.9-1.9-4-3.2v17.5H119.7L119.7,361.2z
		 M125.2,329.8c0,4.6,0.9,8,2.8,10.2c1.9,2.2,4.1,3.3,6.8,3.3c2.7,0,5-1.1,6.9-3.4c1.9-2.3,2.9-5.8,2.9-10.6c0-4.6-0.9-8-2.8-10.2
		c-1.9-2.3-4.1-3.4-6.7-3.4c-2.6,0-4.9,1.2-6.8,3.6C126.2,321.7,125.2,325.2,125.2,329.8L125.2,329.8z M181.6,334.4l5.9,0.8
		c-0.7,4.1-2.3,7.3-5,9.6c-2.7,2.3-6,3.5-9.9,3.5c-4.9,0-8.8-1.6-11.8-4.8c-3-3.2-4.5-7.8-4.5-13.8c0-3.9,0.6-7.2,1.9-10.1
		c1.3-2.9,3.2-5.1,5.9-6.5c2.6-1.5,5.5-2.2,8.5-2.2c3.9,0,7.1,1,9.5,2.9c2.5,2,4.1,4.8,4.8,8.4l-5.9,0.9c-0.6-2.4-1.6-4.2-3-5.4
		c-1.4-1.2-3.2-1.8-5.2-1.8c-3.1,0-5.6,1.1-7.5,3.3c-1.9,2.2-2.9,5.7-2.9,10.4c0,4.8,0.9,8.3,2.8,10.5c1.9,2.2,4.3,3.3,7.2,3.3
		c2.4,0,4.4-0.7,6-2.2C180.1,339.6,181.2,337.4,181.6,334.4L181.6,334.4z M190.4,329.5c0-6.6,1.8-11.5,5.5-14.7
		c3.1-2.6,6.8-4,11.3-4c4.9,0,8.9,1.6,12.1,4.8c3.1,3.2,4.7,7.7,4.7,13.3c0,4.6-0.7,8.2-2.1,10.9c-1.4,2.6-3.4,4.7-6,6.2
		c-2.6,1.5-5.5,2.2-8.6,2.2c-5,0-9.1-1.6-12.2-4.8C192,340.2,190.4,335.6,190.4,329.5L190.4,329.5z M196.6,329.6c0,4.6,1,8,3,10.3
		c2,2.3,4.5,3.4,7.6,3.4c3,0,5.5-1.1,7.5-3.4c2-2.3,3-5.8,3-10.5c0-4.4-1-7.8-3-10c-2-2.3-4.5-3.4-7.5-3.4c-3.1,0-5.6,1.1-7.6,3.4
		C197.7,321.6,196.6,325,196.6,329.6L196.6,329.6z M231.1,347.5v-35.9h5.5v5.5c1.4-2.5,2.7-4.2,3.9-5c1.2-0.8,2.5-1.2,3.9-1.2
		c2.1,0,4.1,0.6,6.3,1.9l-2.2,5.6c-1.5-0.8-2.9-1.2-4.4-1.2c-1.3,0-2.5,0.4-3.6,1.2c-1,0.8-1.8,1.9-2.2,3.3c-0.7,2.2-1,4.5-1,7.1
		v18.7H231.1L231.1,347.5z M254.2,347.5v-35.9h5.5v5.1c2.6-3.9,6.4-5.9,11.4-5.9c2.2,0,4.1,0.4,6,1.2c1.8,0.8,3.2,1.8,4.1,3.1
		c0.9,1.3,1.5,2.8,1.9,4.5c0.2,1.1,0.3,3.1,0.3,5.9v22h-6.1v-21.8c0-2.5-0.2-4.3-0.7-5.6c-0.5-1.2-1.3-2.2-2.5-2.9
		c-1.2-0.7-2.6-1.1-4.2-1.1c-2.6,0-4.8,0.8-6.7,2.5c-1.9,1.6-2.8,4.8-2.8,9.3v19.6H254.2L254.2,347.5z M293.3,347.5V298h6.7l26,38.8
		V298h6.3v49.5h-6.7l-26-38.8v38.8H293.3L293.3,347.5z M340.2,329.5c0-6.6,1.8-11.5,5.5-14.7c3.1-2.6,6.8-4,11.3-4
		c4.9,0,8.9,1.6,12.1,4.8c3.1,3.2,4.7,7.7,4.7,13.3c0,4.6-0.7,8.2-2.1,10.9c-1.4,2.6-3.4,4.7-6,6.2c-2.6,1.5-5.5,2.2-8.6,2.2
		c-5,0-9.1-1.6-12.2-4.8C341.8,340.2,340.2,335.6,340.2,329.5L340.2,329.5z M346.4,329.6c0,4.6,1,8,3,10.3c2,2.3,4.5,3.4,7.6,3.4
		c3,0,5.5-1.1,7.5-3.4c2-2.3,3-5.8,3-10.5c0-4.4-1-7.8-3-10c-2-2.3-4.5-3.4-7.5-3.4c-3.1,0-5.6,1.1-7.6,3.4
		C347.4,321.6,346.4,325,346.4,329.6L346.4,329.6z M394.1,342.1l0.8,5.4c-1.7,0.4-3.2,0.5-4.6,0.5c-2.2,0-3.9-0.3-5.1-1
		c-1.2-0.7-2.1-1.6-2.6-2.8c-0.5-1.1-0.7-3.5-0.7-7.2v-20.7h-4.5v-4.7h4.5v-8.9l6.1-3.7v12.5h6.1v4.7h-6.1v21c0,1.7,0.1,2.9,0.3,3.4
		c0.2,0.5,0.6,0.9,1,1.2c0.5,0.3,1.2,0.4,2.1,0.4C392.2,342.3,393,342.2,394.1,342.1L394.1,342.1z M400.1,304.9V298h6.1v6.9H400.1
		L400.1,304.9z M400.1,347.5v-35.9h6.1v35.9H400.1L400.1,347.5z M416.9,347.5v-31.2h-5.4v-4.7h5.4v-3.8c0-2.4,0.2-4.2,0.6-5.4
		c0.6-1.6,1.6-2.8,3.1-3.8c1.5-1,3.5-1.5,6.2-1.5c1.7,0,3.6,0.2,5.7,0.6l-0.9,5.3c-1.3-0.2-2.5-0.3-3.6-0.3c-1.8,0-3.1,0.4-3.9,1.2
		c-0.8,0.8-1.1,2.2-1.1,4.4v3.3h7v4.7H423v31.2H416.9L416.9,347.5z M434.4,361.3c1.4,0.5,2.8,0.7,3.9,0.7c1.9,0,3.6-0.5,5-1.4
		c1.4-0.9,2.6-2.4,3.7-4.4c0.8-1.5,2-4.2,3.4-8.1l13.6-36.5H458l-7.6,20.9c-1,2.6-1.8,5.3-2.5,8.1c-0.8-2.9-1.6-5.7-2.6-8.3
		l-7.5-20.7h-6.5l13.6,36c-0.3,0.7-0.4,1.2-0.5,1.5c-0.9,2.4-1.5,3.9-1.9,4.5c-0.5,0.8-1.2,1.4-2,1.9c-0.8,0.4-1.9,0.7-3.2,0.7
		c-1,0-2.1-0.2-3.5-0.5L434.4,361.3z"/>
</g>
</svg>
