<?xml version="1.0" encoding="utf-8"?>
<!-- Generator: Adobe Illustrator 26.0.0, SVG Export Plug-In . SVG Version: 6.00 Build 0)  -->
<svg version="1.1" id="Layer_1" xmlns="http://www.w3.org/2000/svg" xmlns:xlink="http://www.w3.org/1999/xlink" x="0px" y="0px"
	 viewBox="0 0 500 500" style="enable-background:new 0 0 500 500;" xml:space="preserve">
<style type="text/css">
	.st0{fill:#231F20;}
	.st1{fill:#367FAF;}
	.st2{fill:#231F20;stroke:#231F20;stroke-width:5.046;}
	.st3{fill:#417BA2;}
	.st4{fill:none;stroke:#FFFFFF;stroke-width:1.682;stroke-linecap:round;stroke-linejoin:round;}
	.st5{fill:none;stroke:#FFFFFF;stroke-width:1.682;stroke-linecap:round;stroke-linejoin:bevel;}
	.st6{fill:none;stroke:#FFFFFF;stroke-width:1.682;stroke-linejoin:round;}
	.st7{fill:#FFFFFF;stroke:#FFFFFF;stroke-width:0.561;}
	.st8{fill:#FFFFFF;stroke:#FFFFFF;stroke-width:0.28;}
</style>
<g>
	<path class="st0" d="M66,386.8H45.7v-18.6h21.5c7.9,0,11.8,3.1,11.8,9.5C79,383.7,74.7,386.8,66,386.8 M80.7,368
		c-2.8-2.3-6.7-3.4-11.7-3.4l-29.2,0.1v44.6h5.9l-0.1-19h21.7c5.5,0,9.7-1.1,12.9-3.4c3.1-2.3,4.7-5.4,4.7-9.5
		C84.9,373.5,83.5,370.3,80.7,368L80.7,368z M118.8,399.9c-0.6,1.5-1.5,2.8-2.8,3.8c-2.6,2.3-6.7,3.5-12.1,3.5
		c-4.9,0-8.6-1.1-11.3-3.4c-2.6-2.3-3.9-5.3-3.9-9.1c0-2,0.3-3.7,1-5.3c0.7-1.5,1.7-2.8,3-3.9c2.7-2.2,6.4-3.4,11.2-3.4
		c10.5,0,15.8,4.2,15.8,12.5C119.7,396.6,119.4,398.4,118.8,399.9 M119.9,383.5c-3.6-3-8.9-4.5-15.9-4.5c-6.6,0-11.8,1.5-15.4,4.5
		c-3.3,2.7-4.9,6.4-4.9,11.1s1.7,8.4,5.1,11.2c1.9,1.6,4.1,2.7,6.5,3.3c2.5,0.7,5.4,1,8.7,1c7,0,12.3-1.5,16-4.4
		c3.3-2.7,4.9-6.4,4.9-11.2C124.9,389.9,123.2,386.1,119.9,383.5L119.9,383.5z M164.4,401.2c0,6-5.9,9-17.8,9
		c-3.6,0-6.7-0.2-9.1-0.6c-2.5-0.4-4.5-1.1-6-2.1c-1.2-0.7-2.2-1.7-2.8-2.9c-0.7-1.4-1.2-2.9-1.4-4.5l5.5,0c0,2.4,1,4.1,2.9,5.2
		c2.1,1.3,5.7,2,11,2c8.3,0,12.4-1.9,12.4-5.7c0-2.2-1.4-3.7-4.2-4.5c-0.6-0.2-3.9-0.6-10-1.3l-11.5-1.8c-3.3-1.2-4.9-3.3-4.9-6.4
		c0-3,1.5-5.2,4.4-6.7c1.4-0.6,3.2-1.1,5.4-1.4s4.7-0.5,7.5-0.5c11.4,0,17,3.2,17,9.7h-5.2c0-4.6-4-6.8-12-6.8
		c-4.1,0-7.1,0.5-9.1,1.4c-2,0.9-3,2.3-3,4.3c0,1.7,1.3,3.1,4.1,3.9c1.6,0.4,5.2,0.9,10.9,1.4c5.1,0.4,8.6,1,10.5,1.8
		C162.6,395.9,164.4,398,164.4,401.2L164.4,401.2z M186.1,409.3l-2.2,0.3l-1.4,0.1c-3.6,0-6.2-0.5-7.8-1.4c-1.6-0.9-2.4-2.6-2.4-5
		V383h-6.5v-3h6.5l0.1-9.6h5v9.6h8.7v3l-8.7,0v19.8c0,1.5,0.4,2.5,1.3,3.1c0.9,0.6,2.4,0.8,4.6,0.8c0.3,0,0.7,0,1,0s1-0.2,1.7-0.4
		L186.1,409.3L186.1,409.3z M220.8,402.6c-1.4,1-3,1.8-4.7,2.3c-1.8,0.5-3.8,0.8-6.1,0.8c-10.5,0-15.8-3.9-15.8-11.8
		c0-3.7,1.3-6.5,4-8.6c2.7-2.1,6.5-3.1,11.4-3.1c4.9,0,8.7,1,11.2,3.1c2.5,2.1,3.8,4.9,3.8,8.4C224.7,397.6,223.4,400.6,220.8,402.6
		 M229.7,380.1h-5l-0.1,5c-2.2-2-3.8-3.3-4.7-3.9c-2.8-1.4-6.4-2.1-10.9-2.1c-6.5,0-11.5,1.3-15,4.1c-3.3,2.5-4.9,6.1-4.9,10.8
		c0,2.3,0.4,4.4,1.2,6.2c0.8,1.8,2.1,3.4,3.6,4.7c3.5,2.6,8.3,3.9,14.6,3.9c7.6,0,12.9-1.9,16.1-5.7v5.2c0,3.3-1.2,5.9-3.5,7.7
		c-2.3,1.8-6.1,2.7-11.4,2.7c-5,0-8.5-0.6-10.6-1.9c-1.6-1-2.6-2.6-3.3-5h-5.2c0.6,3.3,2.1,5.7,4.6,7.1c2.9,1.7,7.8,2.5,14.6,2.5
		c13.1,0,19.7-4.4,19.7-13.3L229.7,380.1L229.7,380.1z M256.9,383c-1.4-0.2-2.8-0.3-4.2-0.3c-8.3,0-12.4,4.1-12.4,12.3v14.3h-5
		l-0.1-29.2l5,0v5.2h0.3c0.8-2,2.2-3.6,4-4.7c2-1,5-1.5,9-1.5h3.4L256.9,383L256.9,383z M261.6,392.8c0.6-3.3,2.1-5.9,4.3-7.7
		c1.4-1,3.1-1.8,4.9-2.4s3.9-0.8,6.1-0.8c4.5,0,8.1,1.1,10.9,3.3c2.8,2.2,4.2,4.7,4.2,7.5L261.6,392.8 M292.5,383.8
		c-1.8-1.6-3.9-2.8-6.5-3.5s-5.7-1.2-9.1-1.2c-6.6,0-11.6,1.4-15.1,4.1c-3.6,2.7-5.4,6.5-5.4,11.2c0,4.7,1.7,8.5,5.2,11.2
		c3.7,3.1,9,4.6,15.8,4.6c2.7,0,5.2-0.3,7.5-0.9s4.3-1.3,6-2.4c3-2,4.9-4.4,5.7-7.3h-5.4c-1.9,5-6.5,7.5-13.9,7.5
		c-5.2,0-9.3-1.2-12.1-3.7c-2.4-2.1-3.6-4.8-3.6-8.1h35.8C297.3,390.4,295.7,386.5,292.5,383.8L292.5,383.8z"/>
	<path class="st1" d="M350.4,397.3c0,8.7-7.7,13-23.1,13c-9.2,0-16-1.5-20.2-4.5c-3.5-2.5-5.2-6.2-5.2-11.2h6.2
		c0,8.1,6.4,12.2,19.2,12.2c6.2,0,10.6-0.9,13.3-2.5c2.3-1.5,3.5-3.8,3.5-6.9c0-3.1-1.6-5.3-4.7-6.5c-1.7-0.7-6.2-1.5-13.1-2.5
		c-8.8-1.2-14.4-2.4-17-3.6c-3.8-1.8-5.7-4.8-5.7-9.1c0-3.9,1.6-7,4.8-8.9c3.4-2.1,9.4-3.2,17.7-3.2c15.1,0,22.7,4.6,22.7,13.7h-6.3
		c0-6.8-5.6-10.2-16.8-10.2c-5.6,0-9.7,0.7-12.4,2.1c-2.5,1.5-3.7,3.6-3.7,6.5c0,3,1.6,5.1,4.7,6.3c1.7,0.7,6.6,1.7,14.9,2.9
		c7.7,1,13,2.3,15.7,3.7C348.5,390.1,350.4,393.1,350.4,397.3L350.4,397.3z M400.9,401.7c-2.4,1.7-5,3-7.9,3.8
		c-2.9,0.8-6.2,1.3-9.8,1.3c-7.4,0-13.4-1.8-17.9-5.4c-4.6-3.6-6.8-8.5-6.8-14.5c0-6.3,2.3-11.2,6.8-14.7c4.5-3.5,10.5-5.3,18-5.3
		c7.6,0,13.5,1.8,17.8,5.5c2.2,1.7,3.9,3.8,5.1,6.3c1.1,2.4,1.6,5.1,1.6,8.2C407.8,393.2,405.5,398.1,400.9,401.7 M404.2,404.7
		c3.2-2.1,5.6-4.6,7.2-7.5s2.3-6.4,2.3-10.2c0-6.9-2.5-12.5-7.6-16.6c-2.7-2.3-6-4-9.8-5.1c-3.8-1.1-8.2-1.7-13.1-1.7
		c-9.6,0-17.1,2.1-22.5,6.3c-5.5,4.2-8.2,9.9-8.2,17.1c-0.2,6.7,2.9,13,8.2,17c5.5,4.3,13,6.5,22.5,6.5c3.3,0,6.5-0.2,9.7-0.7
		c2.8-0.5,5.1-1.2,7.1-2.1l9.2,5.8l3.8-3.2L404.2,404.7L404.2,404.7z M460.2,409.2h-42.4v-44.6l5.8-0.1v41h36.7L460.2,409.2z"/>
	<path class="st2" d="M312.3,259c1.7-13.9,1.2-16,11.5-13.7l2.6,0.2c8,0.4,18.4-1.3,24.5-4.1c13.2-6.1,21-16.3,8-13.7
		c-29.7,6.1-31.7-3.9-31.7-3.9c31.3-46.5,44.4-105.5,33.1-120c-30.8-39.4-84.2-20.8-85.1-20.3l-0.3,0.1c-5.9-1.2-12.4-1.9-19.8-2.1
		c-13.4-0.2-23.6,3.5-31.3,9.4c0,0-95.2-39.2-90.8,49.3c0.9,18.8,27,142.6,58.1,105.2c11.4-13.7,22.3-25.2,22.3-25.2
		c5.5,3.6,12,5.5,18.8,4.8l0.5-0.5c-0.2,1.7-0.1,3.4,0.2,5.3c-8,8.9-5.7,10.5-21.7,13.8c-16.2,3.3-6.7,9.3-0.5,10.8
		c7.5,1.9,25,4.5,36.7-11.9l-0.5,1.9c3.1,2.5,2.9,18.1,3.4,29.2s1.2,21.5,3.5,27.6c2.3,6.1,4.9,21.9,26,17.3
		C297.7,314.8,311.1,309.4,312.3,259"/>
	<path class="st3" d="M359.1,227.7c-29.7,6.1-31.7-3.9-31.7-3.9c31.3-46.5,44.4-105.5,33.1-120c-30.8-39.4-84.2-20.8-85.1-20.3
		l-0.3,0.1c-5.9-1.2-12.4-1.9-19.8-2.1c-13.4-0.2-23.6,3.5-31.3,9.4c0,0-95.2-39.2-90.8,49.3c0.9,18.8,27,142.6,58.1,105.2
		c11.4-13.7,22.3-25.2,22.3-25.2c5.5,3.6,12,5.5,18.8,4.8l0.5-0.5c-0.2,1.7-0.1,3.4,0.2,5.3c-8,8.9-5.7,10.5-21.7,13.8
		c-16.2,3.3-6.7,9.3-0.5,10.8c7.5,1.9,25,4.5,36.7-11.9l-0.5,1.9c3.1,2.5,5.3,16.3,5,28.9c-0.4,12.5-0.6,21.1,1.9,27.9
		c2.5,6.7,4.9,21.9,26,17.3c17.6-3.8,26.7-13.5,28-29.8c0.9-11.6,2.9-9.9,3.1-20.2l1.6-4.9c1.9-15.7,0.3-20.8,11.1-18.4l2.6,0.2
		c8,0.4,18.4-1.3,24.5-4.1C364.2,235.2,372,225,359.1,227.7L359.1,227.7z"/>
	<g>
		<g>
			<path class="st4" d="M249,236.7c-0.8,29.2,0.2,58.6,3.1,65.8c2.9,7.2,9,21.1,30,16.5c17.6-3.8,24-11.1,26.8-27.2
				c2-11.8,6-44.7,6.5-51.5 M223.8,90.2c0,0-95.3-38.9-90.9,49.6c0.9,18.8,27,142.6,58.1,105.2c11.4-13.7,21.6-24.4,21.6-24.4
				 M275.3,83.1c-3.3,1,53-20.6,85,20.3c11.3,14.4-1.7,73.5-33.1,120"/>
			<path class="st5" d="M327.1,223.4c0,0,2,10.1,31.7,3.9c13-2.7,5.2,7.5-8,13.7c-10.8,5-35.1,6.3-35.5-0.6
				C314.3,222.4,328.1,227.9,327.1,223.4c-0.9-4-7.1-8-11.1-17.9c-3.6-8.6-48.8-74.8,12.6-65c2.3-0.5-16-58.4-73.5-59.3
				s-55.5,70.7-55.5,70.7"/>
		</g>
		<g>
			<path class="st6" d="M232.9,229.5c-8,8.9-5.7,10.5-21.7,13.8c-16.2,3.3-6.7,9.3-0.5,10.8c7.5,1.9,25,4.6,36.7-11.9
				c3.6-5,0-13-4.9-15.1C240.2,226.2,237,224.9,232.9,229.5z"/>
			<path class="st4" d="M232.4,229.4c-0.8-5.3,1.7-11.5,4.4-18.8c4.1-11,13.5-22,6-56.8c-5.6-26-43.3-5.4-43.3-1.9
				c0,3.5,1.7,17.9-0.6,34.5c-3,21.8,13.9,40.2,33.3,38.3"/>
		</g>
	</g>
	<g>
		<path class="st7" d="M223.4,151.3c-0.2,1.2,2.2,4.4,5.3,4.8s5.7-2.1,5.9-3.3c0.2-1.2-2.2-2.5-5.3-3
			C226.3,149.4,223.6,150.1,223.4,151.3L223.4,151.3z"/>
		<path class="st8" d="M317.5,148.8c0.2,1.2-2.2,4.4-5.3,4.8s-5.7-2.1-5.9-3.3c-0.2-1.2,2.2-2.5,5.3-3
			C314.7,147,317.3,147.6,317.5,148.8L317.5,148.8z"/>
	</g>
	<path class="st4" d="M328.5,140.5c0.5,9.4-2,15.9-2.4,25.9c-0.5,14.6,7,31.3-4.2,48"/>
</g>
</svg>
