<?xml version="1.0" encoding="utf-8"?>
<!-- Generator: Adobe Illustrator 26.0.0, SVG Export Plug-In . SVG Version: 6.00 Build 0)  -->
<svg version="1.1" id="Layer_1" xmlns="http://www.w3.org/2000/svg" xmlns:xlink="http://www.w3.org/1999/xlink" x="0px" y="0px"
	 viewBox="0 0 500 500" style="enable-background:new 0 0 500 500;" xml:space="preserve">
<style type="text/css">
	.st0{fill:#5B87DA;}
	.st1{fill:#1EDCFF;}
</style>
<g transform="matrix(.316136 0 0 .316136 8.350387 23.493729)">
	<path d="M150.6,871.7c-18.4,0-35.4-7.4-43.9-14.5v74.3H77.1V692.4h25.1l2.5,17.7c8.1-11.3,27.2-21.2,48.1-21.2
		c51.6,0,65.1,41.7,65.1,91.2C217.8,835.3,199.4,871.7,150.6,871.7L150.6,871.7z M106.7,833.9c8.8,7.1,23,13.8,39.6,13.8
		c34.3,0,41.7-26.9,41.7-67.9s-6.3-66.8-39.6-66.8c-17.7,0-31.8,8.5-41.7,17.3L106.7,833.9z M343.7,717.2
		c-19.8,3.9-40,10.6-54.8,18.4v132.3h-29.7V692.4h24.4l3.2,20.5c10.6-10.6,30.1-20.9,53-23L343.7,717.2z M390.4,793.2
		c1.8,37.1,11,54.8,46.7,54.8c18.7,0,38.2-4.6,51.6-9.9l4.6,22.6c-14.5,6-37.5,10.6-56.6,10.6c-63.3,0-76-43.2-76-92.3
		c0-50.6,16.6-90.2,70.4-90.2c47.7,0,67.5,33.6,67.5,75.7v28.6L390.4,793.2L390.4,793.2z M390.4,769.9h79.6v-6.4
		c0-32.5-10.3-52.3-39.3-52.3C397.8,711.2,390.7,734.9,390.4,769.9L390.4,769.9z M582.7,871.4c-17.7,0-40.3-3.9-55.5-11.7l5.7-23.3
		c13.4,6.4,32.9,11,48.5,11c23.3,0,35.7-6.4,35.7-26.2c0-18.8-12.7-24.4-36.4-30.1c-38.5-9.2-53-22.6-53-52.7
		c0-32.9,18-49.5,59.1-49.5c17,0,35,3.2,47.4,8.8l-5,23.7c-11-4.6-27.9-8.5-41.7-8.5c-22.3,0-30.8,6-30.8,23.7
		c0,18.4,8.5,21.9,33.6,28.7c34.3,9.2,55.9,20.2,55.9,53.8C646,855.8,619.2,871.4,582.7,871.4L582.7,871.4z M772.6,866.1
		c-7.4,2.8-24.8,5.3-36.1,5.3c-30.1,0-42.8-16.6-42.8-43.9v-111h-30.4v-24.1h30.4v-42.8l29.7-4.2v47h49.9l-2.5,24.1h-47.4v109.6
		c0,16.3,3.9,21.2,20.2,21.2c7.1,0,17.3-1.4,26.5-3.5L772.6,866.1z M870.9,871.4c-50.9,0-73.9-38.2-73.9-91.2s23-91.2,73.9-91.2
		c50.9,0,73.9,38.2,73.9,91.2S921.8,871.4,870.9,871.4z M870.9,712.9c-36.8,0-44.2,30.1-44.2,67.2c0,37.1,7.4,67.2,44.2,67.2
		c36.8,0,44.2-30.1,44.2-67.2S907.7,712.9,870.9,712.9L870.9,712.9z"/>
	<g transform="rotate(314.999)">
		<g>
			<circle class="st0" cx="521.3" cy="1259" r="20.1"/>
			<circle class="st0" cx="521.3" cy="1337.3" r="22.4"/>
			
				<ellipse transform="matrix(-1 -1.514249e-05 1.514249e-05 -1 1042.5765 2831.1575)" class="st0" cx="521.3" cy="1415.6" rx="24.6" ry="24.6"/>
			
				<ellipse transform="matrix(-1 -1.514249e-05 1.514249e-05 -1 1042.5754 2987.5532)" class="st0" cx="521.3" cy="1493.8" rx="26.8" ry="26.8"/>
		</g>
		<g>
			<circle class="st1" cx="443.1" cy="1180.8" r="17.9"/>
			<circle class="st1" cx="443.1" cy="1259.1" r="20.1"/>
			<circle class="st1" cx="443.1" cy="1337.3" r="22.4"/>
			<circle class="st1" cx="443.1" cy="1415.5" r="24.6"/>
			
				<ellipse transform="matrix(-1 -1.514249e-05 1.514249e-05 -1 886.0926 2987.6216)" class="st1" cx="443.1" cy="1493.8" rx="26.8" ry="26.8"/>
		</g>
		<circle cx="364.8" cy="1102.6" r="15.7"/>
		<circle cx="364.8" cy="1180.8" r="17.9"/>
		<circle cx="364.8" cy="1259.1" r="20.1"/>
		<circle cx="364.8" cy="1337.3" r="22.4"/>
		<ellipse transform="matrix(-1 -1.514249e-05 1.514249e-05 -1 729.6284 2831.1636)" cx="364.8" cy="1415.6" rx="24.6" ry="24.6"/>
		<ellipse transform="matrix(-1 -1.514249e-05 1.514249e-05 -1 729.6619 2987.4727)" cx="364.8" cy="1493.7" rx="26.8" ry="26.8"/>
	</g>
	<g>
		<circle class="st0" cx="1148.3" cy="742.9" r="17.9"/>
		<circle class="st0" cx="1092.9" cy="798.2" r="17.9"/>
		<circle class="st0" cx="1037.6" cy="853.6" r="17.9"/>
		<circle class="st0" cx="1148.3" cy="853.5" r="17.9"/>
		
			<ellipse transform="matrix(0.7071 -0.7071 0.7071 0.7071 -234.8386 1140.1962)" class="st0" cx="1258.9" cy="853.6" rx="5.7" ry="5.7"/>
		
			<ellipse transform="matrix(0.7071 -0.7071 0.7071 0.7071 -211.894 1084.8475)" class="st0" cx="1203.6" cy="798.2" rx="5.7" ry="5.7"/>
	</g>
</g>
</svg>
