<?xml version="1.0" encoding="utf-8"?>
<!-- Generator: Adobe Illustrator 26.0.0, SVG Export Plug-In . SVG Version: 6.00 Build 0)  -->
<svg version="1.1" id="Layer_1" xmlns="http://www.w3.org/2000/svg" xmlns:xlink="http://www.w3.org/1999/xlink" x="0px" y="0px"
	 viewBox="0 0 500 500" style="enable-background:new 0 0 500 500;" xml:space="preserve">
<style type="text/css">
	.st0{fill-rule:evenodd;clip-rule:evenodd;fill:#040605;}
	.st1{fill-rule:evenodd;clip-rule:evenodd;fill:#EDFE00;}
	.st2{fill-rule:evenodd;clip-rule:evenodd;fill:#595225;}
</style>
<g>
	<path class="st0" d="M38.8,296.3c0,7.7,4.3,9.7,9.3,9.7c3,0,6-0.9,9.6-1.4c-1.7-13.2-2.2-26.2-2.3-39.1c2.4,0.4,5.2,0.6,7.7,0.6
		c19.5,0,40.3-11,40.3-32.5c0-14.6-11.5-29.2-37.6-29.2H45.5c-3.4,0-8.9-0.4-8.9-0.4s0.7,1.6,1.4,15.5c0.4,9.2,0.7,20.6,0.7,32.5
		V296.3L38.8,296.3z M55.3,258.7V248c0-11.9,0.6-36.1,0.6-36.1h4.4c17.2,0,25.2,11.3,25.2,22.9c0,12-8.7,24.2-25.2,24.2
		C58.7,259,57,259,55.3,258.7L55.3,258.7z M114.1,295c0,8.9,3.7,11,9,11c3,0,6.5-0.9,10-1.4c-0.3-0.1-3.3-5.3-3.3-33.5
		c0-15.9,3.2-27.5,14.3-27.5c3.3,0,6.9,1.7,11.5,4l0.7-0.3c1.1-3,1.7-7,1.7-10.2c0-3.2-1.4-5.6-7-5.6c-7.7,0-17.6,5.6-21.6,14.6
		l-0.6-0.1c0,0,1-3.2,1-5.3c0-5.9-5-9.2-11.6-9.2c-2.3,0-4.6,0.6-7,1.3c0.6,0.6,3.6,8.2,3.6,37.3C114.8,278,114.1,286.4,114.1,295
		L114.1,295z M159.4,270.5c0,18.6,12.3,36.3,36.4,36.3c24.7,0,37.8-20.5,37.8-41.9c0-17.3-12.3-34.1-36.4-34.1
		C172.4,230.8,159.4,250,159.4,270.5L159.4,270.5z M176.9,268.1c0-15.3,6-30.7,18.8-30.7c13.8,0,20.5,15.1,20.5,30.1
		c0,16.3-6.2,32.7-18.9,32.7C183.6,300.2,176.9,284.3,176.9,268.1L176.9,268.1z M257.9,294.3c3.7,12,18.5,12.5,18.5,12.5l5-10.9
		c3.6-7.7,8.7-18.5,10.3-24.8h0.7c3,9.5,5.2,17.1,7,23.2c3.7,12,19.4,12.5,19.4,12.5l21.6-60.2c3.9-10.8,7.5-12.9,7.5-12.9v-0.7
		c0,0-2.2-1.1-6.6-1.1c-12.5,0-5,5.6-24.4,61.1v0.1h-0.7c-6.5-15.9-14.3-42.1-17.2-54.5c-1-4.4-6.5-6.7-11.3-6.7
		c-5.7,0-8.3,1.3-8.3,1.3s7.5,15.2,7.5,23.8c0,7.7-2.6,16.3-11.5,36.1h-0.7c-6.3-15.9-15.6-42.1-18.6-54.5
		c-1.1-4.4-6.5-6.7-11.3-6.7c-5,0-7.9,0.6-10.8,1.1v0.7c2.7,2.3,4.3,5.6,5.7,8.6C245,253.7,253.8,281.2,257.9,294.3L257.9,294.3z
		 M353.8,293.6c0,9.6,6.6,12.5,12.9,12.5c12.3,0,15.9-8.9,15.9-8.9l-0.6-0.4c0,0-2.6,2-5.4,2c-5,0-6.3-4.6-6.5-9.5
		c-0.4-12.6-0.6-25.7-0.6-38.4c0-15.2,0.6-30.2,0.6-44.7c0-8.9-8.9-10.5-18.5-10.6l-0.4,0.6c0,0,1.9,2.9,2.6,16.1
		c0.4,9.2,0.7,22.1,0.7,35.6C354.5,264.3,353.8,281.8,353.8,293.6z"/>
	<path class="st0" d="M442.1,306.6h-36.5c-5.1-5.3-10.7-10.4-4-31.4c3-9.4,10.6-13.2,6.6-25.2c-1.9-5.6-9.2-7.8-11.8-1.6
		c-1.2,2.7,0.2,5.4,1.9,4.4c4-2.2,5.1,2,2.2,3.2c-4.2,1.6-8.2-0.3-8.3-6.3c-0.1-5.5,4.4-9.1,10-8.4c4.9,0.6,7.6,2.8,9.2,5.9
		c1.4,2.7,2.1,6.1,1.8,9.9c-1.2,10.2-10.5,19.3-10.2,33.6c-0.1,7.3,2.9,11.8,7.6,13.8c-0.8-10.7,1.8-20.2,7.2-28.9
		c4.4-7.1,5.8-16.2,6.8-25.8l0-15.3c-13-3.3-24-16.3-26.4-27.6c2.1-0.4,4.1-0.7,6-1c-1.6-4.2-0.7-9.3,1.6-12.3
		c0.2-0.3,0.4-0.4,0.6-0.4c0.2,0,0.4,0.2,0.6,0.6c1.7,4.1,3.5,7.8,6.5,11.2c12.7-0.6,22.8,1.9,32.6,9.3c6.2,0.8,12.1,1.1,16.1-0.6
		c0.3-0.1,0.8-0.2,1,0c0.2,0.1,0.1,0.6,0,0.9c-0.8,3.4-3.6,5.9-7.2,9c0.7,0.7,1.3,1.5,2,2.3c-10,8.4-20.8,11-30.5,9.4
		c-0.2,14.9,2.5,36.6,7.7,43C442.2,286.6,443.8,294.6,442.1,306.6z"/>
	<path class="st1" d="M425,219.5c-10.4,5-18.3-2-20-11.3C416.1,207.5,423,212,425,219.5z"/>
	<path class="st1" d="M453.1,221.7c-5.2,9.2-19.1,7.6-22.2-0.8C435.9,216.7,447.3,216,453.1,221.7z"/>
	<path class="st2" d="M408.1,205.3c-3.8,0.8-3.8-3-2.3-8.8C406.2,200.9,409.8,204.5,408.1,205.3z"/>
	<path class="st2" d="M447.8,216.1c2.4,3.4,6.5,4,12.9-0.8C456.3,216.1,452.4,216.3,447.8,216.1z"/>
	<path class="st0" d="M416.7,211.4c-0.4,3-2.1,5-5,5.8C412.4,214.3,414.1,212.5,416.7,211.4z"/>
	<path class="st0" d="M442.2,226.8c-1.3-2.5-1.5-5.2,0-8.2C443.6,221.3,443.6,224,442.2,226.8z"/>
	<g>
		<path class="st2" d="M424,285.2c0-0.4,0.3-0.7,0.7-0.7c0.4,0,0.6,0.4,0.6,0.7l-1.2,21.4h-1.3L424,285.2z"/>
		<path class="st2" d="M428.4,285.2c0-0.4,0.3-0.7,0.7-0.7c0.4,0,0.7,0.3,0.7,0.7v21.4h-1.3V285.2z"/>
	</g>
	<path class="st2" d="M421,282.2c-2.3,1.5-5.5,1.8-7,9.9c-2.2-8.7,9.2-14.2,11.1-40.2C424.6,264.8,422.5,274.8,421,282.2z"/>
	<path class="st2" d="M422.9,226.5l-0.7-1.8c-0.5-1.3,0.9-2.1,2.4-1.6c1,0.3,1.9,0.8,2.8,1.3c1.5,0.8,1.9,2,0,2.6
		c-2.8,1-3,2-1.5,3.1c1.8,1.4,4.5,0.6,6.6,0c1.6-0.4,1.8,0.3,0.3,1c-4.5,2-7.8,1-8.4-0.7c-0.1-0.3-0.2-0.8-1-0.6
		c-4.2-0.1-6.3-1.2-7.4-2.9c-1-1.6,0.1-2,0.5-1.4C418.6,228.8,424.1,229.6,422.9,226.5z"/>
	<path class="st2" d="M413.4,299.6c-0.8,0.9-1.2,0.3-1.1-0.7c0.5-4.4,6-4.2,6.5,0c0.1,0.9-0.2,1.7-0.9,0.8
		C416.4,297.7,414.9,297.5,413.4,299.6z"/>
</g>
</svg>
