<?xml version="1.0" encoding="utf-8"?>
<!-- Generator: Adobe Illustrator 26.0.0, SVG Export Plug-In . SVG Version: 6.00 Build 0)  -->
<svg version="1.1" id="Layer_1" xmlns="http://www.w3.org/2000/svg" xmlns:xlink="http://www.w3.org/1999/xlink" x="0px" y="0px"
	 viewBox="0 0 500 500" style="enable-background:new 0 0 500 500;" xml:space="preserve">
<style type="text/css">
	.st0{fill-rule:evenodd;clip-rule:evenodd;fill:#F6E148;}
	.st1{fill-rule:evenodd;clip-rule:evenodd;fill:#F23759;}
	.st2{fill-rule:evenodd;clip-rule:evenodd;}
	.st3{fill-rule:evenodd;clip-rule:evenodd;fill:#F2B51D;}
</style>
<g>
	<g>
		<path class="st0" d="M174.9,201.4v8.6c4.9,0.9,4.1,4.1,3.8,12.2c-0.5,15-6.9,28.7-18.6,37.7c-4.7,3.6-8.9,6.5-10.6,14
			c-1.9,8.5,2,17.1,9.9,21.2c6.8,3.5,21.6,2.2,30.2,2.2l97.1,0c1.1-1.5,2.9-2.5,4.5-4.5c4.6-5.6,6.6-14,4.5-21.1
			c-3.2-11-10.1-12.8-16-19.4c-5.6-6.3-9.7-13-11.4-23.8c-1.4-8.6,0.7-30.7-1.4-33.8c-3.1-3.5-9.6-5.3-17.8-18.7
			c-4.8-7.8-8.1-17.6-8.4-28.6c-1.2-2.7,0.6-1.7-1.7-3.4c-0.8-0.6-2.4-1.4-3.4-2c-1.9-1.1-5.8-2.7-7-3.7
			c-26.8,4.3-46.3,27.2-49.3,52.9C178.5,196.9,180.3,200.2,174.9,201.4z"/>
		<path class="st1" d="M295.7,130.4c-1.8,0.8-1.8,2-4.1,2.1c-2.1,0.1-7.3-2.8-0.2-8.6c1.8-1.5,4.3-4.5,6-5.3
			c3.8-1.7,5.6,1.2,5.6,4.5l0,42.7c0,2.6-0.3,4.2-2.1,5c-2.1,0.9-3.9-0.2-4.6-1.4C295,167.3,295.7,134.3,295.7,130.4L295.7,130.4z
			 M353.5,157.5c0.5-2.4,1.2-4.9,0.8-7.9c-4.3-3.1-2.7,0.2-3.7-9c-1.1-10.9-5-18.9-11.1-27c-6.1-8.1-17.5-16.6-32.7-18.8
			c-30.2-4.5-54.5,17.9-58.2,43.1c-4.6,30.6,17.6,54.6,43,58.5c24.4,3.7,46.9-9.9,55.7-31.8C349,160.2,348.2,157.4,353.5,157.5z"/>
		<path class="st2" d="M263.7,304.7c0.6,8.5-3.2,14-7.1,18.4c-13.8,15.7-44,5.2-42.5-18.4L263.7,304.7L263.7,304.7z M295.3,86.8
			c-6.8,0.5-13.7,2.3-20.8,5.4c-3.2,1.4-8.4,4.8-11.3,6.9c-2.3,1.6-7.6,6.7-9.3,9.3c-3.7-2.5-4.7-4.9-12.4-6.2
			c-5.5-0.9-11.5,1.6-14.5,3.8c-7.5,5.6-11.6,15.6-6.4,26.4c-6.8,1.6-15.7,6.2-20.5,9.9c-17.5,13.2-29,32.5-28.6,54.9
			c0.1,2.9,1,4,3.5,4.2c5.3-1.2,3.6-4.6,4.3-10.3c3-25.8,22.5-48.7,49.3-52.9c3.6-0.7,8.8-1.2,12.5-1l-0.4,10.1
			c0.3,11.1,3.6,20.8,8.4,28.6c8.2,13.4,14.7,15.2,17.8,18.7c4.6,2.3,8.7,5,14.9,6.9c6.2,1.9,11.6,2.6,18.4,2.7
			c0,13.6-1.1,25.3,4.1,37.2c5.5,12.4,11.2,14.8,18.5,22.2c11.5,11.6,7.3,33.6-15.8,33.6c-6.7,0-13.5,0.1-20.1,0l-97.1,0
			c-8.6,0-23.5,1.3-30.2-2.2c-7.9-4.1-11.8-12.7-9.9-21.2c1.7-7.4,5.9-10.4,10.6-14c11.7-9,18.1-22.7,18.6-37.7
			c0.3-8.1,1.1-11.3-3.8-12.2c-3.4,0.1-3.5,2.6-3.4,6.3c0.2,13.6-2.6,24.6-12.1,34.1c-4.4,4.4-9.7,7.5-12.9,12.2
			c-2.6,3.9-5,8.7-5,15.1c-0.1,11.5,6.5,20.5,15.9,24.9c5.9,2.8,10.3,2.1,18.5,2.1c6.7,0,13.4,0,20.1,0c14.4,0,9.1-2.1,11.5,8.6
			c1.1,5.1,3.8,10.1,6.8,13.3c6.5,7,14.1,10.6,21.6,11.4h6.6c15.3-1.6,28.6-14.6,29-33.4l36.3,0c8,0,12.3-0.9,18.4-5.7
			c7.4-5.8,11.8-15.6,9.7-26.3c-3-14.7-11.6-14.7-21.1-27.5c-8.7-11.7-7.4-26.6-7.4-41.1c3.4-0.8,6.9-1.3,9.9-2.4
			c8.4-3.2,7.8-2.4,16.4-8.1c4.8-3.2,12-10.5,14.9-15.5c0.8-1.4,1.7-2.4,2.4-3.9c1.4-2.7,2.7-5.5,3.8-8.4c1.4-3.8,2.5-6.4-1.4-8.2
			c-5.2-0.1-4.5,2.7-6.2,7c-8.9,21.9-31.3,35.5-55.7,31.8c-25.4-3.9-47.6-27.9-43-58.5c3.8-25.2,28-47.6,58.2-43.1
			c15.2,2.2,26.6,10.8,32.7,18.8c6.2,8.1,10,16.1,11.1,27c1,9.2-0.6,6,3.7,9c1.5-0.6,3-0.7,3.7-2.3c0.6-1.3,0.5-3.8,0.4-5.5
			c-0.6-10-4.2-19.3-9-27.3c-3.8-6.4-11.1-14.1-17.7-18.1c-9-5.5-18.4-8.8-28.1-9.5H295.3L295.3,86.8z M228.4,130.6
			c-8.6-10,4.8-30.4,20.9-16.1c-1,2.3-2.4,4.7-3.6,7.2c-1.2,2.5-2.1,5.6-3,8L228.4,130.6z"/>
		<path class="st3" d="M286.7,297.3c6.7,0.2,13.5,0,20.1,0c23.1,0,27.3-22.1,15.8-33.6c-7.3-7.4-13-9.8-18.5-22.2
			c-5.2-11.8-4.1-23.5-4.1-37.2c-6.8-0.1-12.1-0.8-18.4-2.7c-6.2-1.9-10.3-4.7-14.9-6.9c2.1,3.1,0,25.2,1.4,33.8
			c1.7,10.8,5.8,17.5,11.4,23.8c5.9,6.6,12.8,8.4,16,19.4c2.1,7.1,0.1,15.5-4.5,21.1C289.6,294.8,287.8,295.8,286.7,297.3z"/>
		<path class="st3" d="M263.7,304.7l-49.6,0c-1.5,23.6,28.7,34.1,42.5,18.4C260.5,318.7,264.3,313.1,263.7,304.7z"/>
		<path class="st2" d="M295.7,130.4c0,4-0.7,36.9,0.7,39c0.8,1.2,2.5,2.3,4.6,1.4c1.8-0.8,2.1-2.4,2.1-5l0-42.7
			c0-3.4-1.9-6.3-5.6-4.5c-1.8,0.8-4.2,3.8-6,5.3c-7.1,5.7-1.9,8.6,0.2,8.6C293.9,132.3,293.9,131.2,295.7,130.4z"/>
		<path class="st3" d="M228.4,130.6l14.2-0.9c0.9-2.3,1.9-5.4,3-8c1.2-2.6,2.6-4.9,3.6-7.2C233.2,100.2,219.8,120.6,228.4,130.6z"/>
		<path class="st3" d="M228.5,138.2c1.2,1,5.2,2.7,7,3.7c1,0.6,2.6,1.5,3.4,2c2.4,1.7,0.5,0.8,1.7,3.4l0.4-10.1
			C237.3,136.9,232.1,137.5,228.5,138.2z"/>
	</g>
	<path class="st2" d="M38,412.5v-36.2h11.7c4.4,0,7.3,0.2,8.7,0.5c2.1,0.5,3.8,1.7,5.2,3.6c1.4,1.8,2.1,4.2,2.1,7.1
		c0,2.2-0.4,4.1-1.2,5.6c-0.8,1.5-1.8,2.7-3.1,3.6c-1.2,0.9-2.5,1.4-3.8,1.7c-1.7,0.3-4.3,0.5-7.6,0.5h-4.8v13.7H38L38,412.5z
		 M45.4,382.4v10.3h4c2.9,0,4.8-0.2,5.8-0.6c1-0.4,1.7-1,2.3-1.8c0.5-0.8,0.8-1.7,0.8-2.8c0-1.3-0.4-2.4-1.2-3.3
		c-0.8-0.9-1.7-1.4-2.9-1.6c-0.9-0.2-2.6-0.2-5.2-0.2H45.4L45.4,382.4z M71.8,376.3h7.3v19.6c0,3.1,0.1,5.1,0.3,6.1
		c0.3,1.5,1,2.7,2.2,3.6c1.2,0.9,2.8,1.3,4.8,1.3c2,0,3.6-0.4,4.6-1.3c1-0.9,1.7-1.9,1.9-3.1c0.2-1.2,0.3-3.3,0.3-6.2v-20.1h7.3
		v19.1c0,4.4-0.2,7.4-0.6,9.2c-0.4,1.8-1.1,3.3-2.2,4.6c-1.1,1.2-2.5,2.2-4.2,3c-1.8,0.7-4.1,1.1-6.9,1.1c-3.4,0-6.1-0.4-7.8-1.2
		c-1.8-0.8-3.2-1.8-4.2-3.1c-1-1.3-1.7-2.6-2-4c-0.5-2.1-0.7-5.1-0.7-9.2V376.3L71.8,376.3z M106.4,400.8l7.1-0.7
		c0.4,2.4,1.3,4.1,2.6,5.3c1.3,1.1,3.1,1.7,5.3,1.7c2.3,0,4.1-0.5,5.3-1.5c1.2-1,1.8-2.2,1.8-3.5c0-0.9-0.3-1.6-0.8-2.2
		c-0.5-0.6-1.4-1.1-2.6-1.6c-0.9-0.3-2.8-0.8-5.8-1.6c-3.9-1-6.6-2.2-8.2-3.6c-2.2-2-3.3-4.4-3.3-7.3c0-1.8,0.5-3.6,1.6-5.2
		c1-1.6,2.5-2.8,4.5-3.7c2-0.8,4.3-1.3,7.1-1.3c4.5,0,7.9,1,10.2,3c2.3,2,3.5,4.7,3.6,8.1l-7.3,0.3c-0.3-1.9-1-3.2-2-4
		c-1-0.8-2.6-1.2-4.6-1.2c-2.1,0-3.8,0.4-5,1.3c-0.8,0.6-1.2,1.3-1.2,2.3c0,0.9,0.4,1.6,1.1,2.2c0.9,0.8,3.2,1.6,6.7,2.4
		c3.6,0.8,6.2,1.7,7.9,2.6c1.7,0.9,3,2.1,4,3.7c1,1.6,1.4,3.5,1.4,5.8c0,2.1-0.6,4-1.7,5.8c-1.2,1.8-2.8,3.2-4.9,4
		c-2.1,0.9-4.7,1.3-7.9,1.3c-4.6,0-8.1-1.1-10.6-3.2C108.3,407.9,106.9,404.8,106.4,400.8L106.4,400.8z M142.1,412.5v-36.2h7.3v14.3
		h14.3v-14.3h7.3v36.2h-7.3v-15.8h-14.3v15.8H142.1L142.1,412.5z M200.8,412.5v-30.1h-10.7v-6.1h28.7v6.1h-10.7v30.1H200.8
		L200.8,412.5z M223.6,412.5v-36.2h26.8v6.1h-19.5v8h18.1v6.1h-18.1v9.8h20.2v6.1H223.6L223.6,412.5z M280.5,399.2l7.1,2.2
		c-1.1,4-2.9,6.9-5.4,8.9c-2.5,1.9-5.7,2.9-9.6,2.9c-4.8,0-8.8-1.6-11.9-4.9c-3.1-3.3-4.6-7.8-4.6-13.5c0-6,1.6-10.7,4.7-14.1
		c3.1-3.3,7.2-5,12.3-5c4.4,0,8,1.3,10.8,3.9c1.7,1.6,2.9,3.8,3.7,6.7l-7.2,1.7c-0.4-1.9-1.3-3.4-2.7-4.4c-1.4-1.1-3-1.6-5-1.6
		c-2.7,0-4.9,1-6.5,2.9c-1.7,1.9-2.5,5-2.5,9.4c0,4.6,0.8,7.8,2.5,9.8c1.7,1.9,3.8,2.9,6.4,2.9c1.9,0,3.6-0.6,5-1.9
		C278.9,403.8,279.9,401.8,280.5,399.2L280.5,399.2z M293.9,412.5v-36.2h7.3v14.3h14.3v-14.3h7.3v36.2h-7.3v-15.8h-14.3v15.8H293.9
		L293.9,412.5z M330.4,376.3h7.3v19.6c0,3.1,0.1,5.1,0.3,6.1c0.3,1.5,1,2.7,2.2,3.6c1.2,0.9,2.8,1.3,4.8,1.3c2,0,3.6-0.4,4.6-1.3
		c1-0.9,1.7-1.9,1.9-3.1c0.2-1.2,0.3-3.3,0.3-6.2v-20.1h7.3v19.1c0,4.4-0.2,7.4-0.6,9.2c-0.4,1.8-1.1,3.3-2.2,4.6
		c-1.1,1.2-2.5,2.2-4.2,3c-1.8,0.7-4.1,1.1-6.9,1.1c-3.4,0-6.1-0.4-7.8-1.2c-1.8-0.8-3.2-1.8-4.2-3.1c-1-1.3-1.7-2.6-2-4
		c-0.5-2.1-0.7-5.1-0.7-9.2V376.3L330.4,376.3z M367.2,412.5v-35.9h7.3v29.8h18.2v6.1H367.2L367.2,412.5z M397.9,376.3h7.3v19.6
		c0,3.1,0.1,5.1,0.3,6.1c0.3,1.5,1,2.7,2.2,3.6c1.2,0.9,2.8,1.3,4.8,1.3c2,0,3.6-0.4,4.6-1.3c1-0.9,1.7-1.9,1.9-3.1
		c0.2-1.2,0.3-3.3,0.3-6.2v-20.1h7.3v19.1c0,4.4-0.2,7.4-0.6,9.2c-0.4,1.8-1.1,3.3-2.2,4.6c-1.1,1.2-2.5,2.2-4.2,3
		c-1.8,0.7-4.1,1.1-6.9,1.1c-3.4,0-6.1-0.4-7.8-1.2c-1.8-0.8-3.2-1.8-4.2-3.1c-1-1.3-1.7-2.6-2-4c-0.5-2.1-0.7-5.1-0.7-9.2V376.3
		L397.9,376.3z M432.5,400.8l7.1-0.7c0.4,2.4,1.3,4.1,2.6,5.3c1.3,1.1,3.1,1.7,5.3,1.7c2.3,0,4.1-0.5,5.3-1.5c1.2-1,1.8-2.2,1.8-3.5
		c0-0.9-0.3-1.6-0.8-2.2c-0.5-0.6-1.4-1.1-2.6-1.6c-0.9-0.3-2.8-0.8-5.8-1.6c-3.9-1-6.6-2.2-8.2-3.6c-2.2-2-3.3-4.4-3.3-7.3
		c0-1.8,0.5-3.6,1.6-5.2c1-1.6,2.5-2.8,4.5-3.7c2-0.8,4.3-1.3,7.1-1.3c4.5,0,7.9,1,10.2,3c2.3,2,3.5,4.7,3.6,8.1l-7.3,0.3
		c-0.3-1.9-1-3.2-2-4c-1-0.8-2.6-1.2-4.6-1.2c-2.1,0-3.8,0.4-5,1.3c-0.8,0.6-1.2,1.3-1.2,2.3c0,0.9,0.4,1.6,1.1,2.2
		c0.9,0.8,3.2,1.6,6.7,2.4c3.6,0.8,6.2,1.7,7.9,2.6c1.7,0.9,3,2.1,4,3.7c1,1.6,1.4,3.5,1.4,5.8c0,2.1-0.6,4-1.7,5.8
		c-1.2,1.8-2.8,3.2-4.9,4c-2.1,0.9-4.7,1.3-7.9,1.3c-4.6,0-8.1-1.1-10.6-3.2C434.5,407.9,433,404.8,432.5,400.8z"/>
</g>
</svg>
