<?xml version="1.0" encoding="utf-8"?>
<!-- Generator: Adobe Illustrator 26.0.0, SVG Export Plug-In . SVG Version: 6.00 Build 0)  -->
<svg version="1.1" id="Layer_1" xmlns="http://www.w3.org/2000/svg" xmlns:xlink="http://www.w3.org/1999/xlink" x="0px" y="0px"
	 viewBox="0 0 500 500" style="enable-background:new 0 0 500 500;" xml:space="preserve">
<style type="text/css">
	.st0{fill-rule:evenodd;clip-rule:evenodd;fill:#F8E200;}
	.st1{fill-rule:evenodd;clip-rule:evenodd;fill:#231F20;}
	.st2{fill:#231F20;}
	.st3{font-family:'SFUIDisplay-Medium';}
	.st4{font-size:57.6797px;}
</style>
<g>
	<rect x="47.4" y="47.4" class="st0" width="405.3" height="405.3"/>
	<path class="st1" d="M176.9,194.5l-0.9-2.2l2,2.2c1.4,4,36.5,57.2,41.8,65.6c3.2,5.1,7.3,7.7,4.3,14.2
		c-4.7,10.1-9.1,21.2-13.7,30.3C207.7,300.8,179,203.9,176.9,194.5L176.9,194.5z M254.7,239.5c1.3-6.4,9.6-23.9,12.6-31l22.6-54
		c2-2.7,3.4-1.6,7.7-1.1c13.3,1.4,26.4,2.4,39.8,3.6c-0.1,2.8,0.9,0.3-1.7,3.1l-7.9,7.5c-3.8,3.7-6.9,6.7-10.7,10.4
		c-3.7,3.6-7.3,6.7-10.7,10.4C293.7,201.9,267,229,254.7,239.5L254.7,239.5z M178.3,168.4l54.2,83.4c1.6-1.6,19.2-43.9,21.5-49.9
		c2.9-7.2,20.6-46.8,20.3-50.8L161,140.8C166.4,149.9,172.5,160,178.3,168.4L178.3,168.4z M288.3,119.8l-6.6,17.1l-61.8-6
		L288.3,119.8L288.3,119.8z M206,320.3h8.8c7.5-5.1,6.5-2.8,10.7-12.7l14.4-32.6l59.7-58.1c2-2.1,3.3-4.1,5.3-6.2l41.8-40.6
		c13.6-13.3,5-25.7-6.3-27.8c-13.2-2.4-30.4-1.4-43.4-4.3c5.9-17.8,13.5-21.5-4.6-33.3h-8.8c-13.8,6.5-121.7,17.1-131.8,23.9
		c-11.1,7.5-2.8,27.1,0.9,38.5c8.5,26.3,16.1,53,24,79.6l18,59.7C198.1,317.4,198.2,314.9,206,320.3z"/>
	<text transform="matrix(1 0 0 1 135.5608 387.3696)"><tspan x="0" y="0" class="st2 st3 st4">p</tspan><tspan x="33.6" y="0" class="st2 st3 st4">ushed</tspan></text>
</g>
</svg>
