<?xml version="1.0" encoding="utf-8"?>
<!-- Generator: Adobe Illustrator 26.0.0, SVG Export Plug-In . SVG Version: 6.00 Build 0)  -->
<svg version="1.1" id="Layer_1" xmlns="http://www.w3.org/2000/svg" xmlns:xlink="http://www.w3.org/1999/xlink" x="0px" y="0px"
	 viewBox="0 0 500 500" style="enable-background:new 0 0 500 500;" xml:space="preserve">
<style type="text/css">
	.st0{fill-rule:evenodd;clip-rule:evenodd;fill:#074A82;}
	.st1{fill-rule:evenodd;clip-rule:evenodd;fill:#FF4D00;}
</style>
<g>
	<path class="st0" d="M243.8,221c-6.9,0-12.6,5.2-12.6,11.7c0,0.5,0,1,0.1,1.5c-10.1,4.5-17.4,14.3-18.4,25.9l-0.5,28.6
		c-1,3.5-2.8,5.7-5.5,6.3c-1.4,0-3.5-0.1-3.5,1.9c0,1.1,0.9,1.9,2,1.9c9.1,0,18.2,0,27.2,0c0.7,5.7,5.4,10.1,11,10.1
		c5.6,0,10.3-4.4,11-10.1c9.2,0,18.1,0.1,27.2,0.1c1.1,0,2-0.9,2-1.9c0-2-2.1-1.9-3.5-1.9c-2.7-0.6-4.5-2.8-5.5-6.3l-0.5-28.6
		c-1-11.6-8.3-21.5-18.4-25.9c0.1-0.5,0.1-1,0.1-1.5C256.3,226.3,250.7,221,243.8,221z"/>
	<g>
		<path class="st1" d="M26,297.6V244h12.7c3.9,0,7,1.3,9.3,4c2.3,2.7,3.4,6.2,3.4,10.7c0,4.5-1.1,8.2-3.4,10.8c-2.3,2.7-5.4,4-9.3,4
			h-9.3v24H26L26,297.6z M29.4,269.8h9.2c3,0,5.3-1,6.9-2.9c1.6-1.9,2.4-4.7,2.4-8.1c0-3.5-0.8-6.2-2.4-8.1
			c-1.6-1.9-3.9-2.9-6.9-2.9h-9.2V269.8z"/>
		<path class="st1" d="M60.5,278.8V244h3.9v34.9c0,5,1.2,8.9,3.6,11.6c2.4,2.8,5.7,4.1,9.9,4.1c4.2,0,7.5-1.4,9.9-4.1
			c2.4-2.8,3.6-6.6,3.6-11.6V244h3.9v34.8c0,6.1-1.6,10.9-4.7,14.4c-3.1,3.5-7.4,5.2-12.7,5.2c-5.4,0-9.6-1.7-12.7-5.2
			S60.5,284.9,60.5,278.8z"/>
		<path class="st1" d="M105,286.9l3.2-1.9c3.2,6.4,7.6,9.7,13.3,9.7c3.1,0,5.6-0.9,7.5-2.7c1.9-1.8,2.8-4.2,2.8-7.2
			c0-2.5-0.6-4.6-1.9-6.1c-1.4-1.7-3.6-3.5-6.7-5.4l-5.2-3.2c-3.6-2.4-6.1-4.5-7.6-6.4c-1.5-1.9-2.3-4.4-2.5-7.7
			c0-3.8,1.3-6.9,3.9-9.2c2.6-2.3,5.8-3.5,9.7-3.5c6.4,0,11,3.1,14,9.3l-3.2,1.9c-2.6-5-6.2-7.5-10.8-7.5c-2.8,0-5.1,0.8-6.9,2.3
			c-1.8,1.5-2.7,3.7-2.7,6.4c0,2.2,0.6,4.1,1.7,5.5c1.2,1.5,3.2,3.1,6.3,5l5.2,3.2c3.8,2.5,6.6,4.8,8.2,7.1c1.6,2.2,2.5,4.9,2.5,8
			c0,4.2-1.4,7.5-4.1,10.1c-2.7,2.5-6.1,3.7-10.4,3.7C114,298.4,108.5,294.6,105,286.9z"/>
		<polygon class="st1" points="149.7,297.6 149.7,244 154.1,244 154.1,266.7 183.8,266.7 183.8,244 188.1,244 188.1,297.6 
			183.8,297.6 183.8,270.5 154.1,270.5 154.1,297.6 		"/>
	</g>
	<g>
		<path class="st1" d="M291.6,287.1l3.3-1.9c3.3,6.3,7.9,9.5,13.8,9.5c3.2,0,5.8-0.9,7.8-2.6c2-1.7,2.9-4.1,2.9-7.1
			c0-2.5-0.7-4.5-2-6c-1.4-1.6-3.7-3.4-6.9-5.3l-5.4-3.2c-3.7-2.3-6.3-4.4-7.9-6.2c-1.5-1.8-2.4-4.3-2.5-7.5c0-3.7,1.3-6.7,4-9
			c2.7-2.3,6-3.4,10-3.4c6.6,0,11.4,3,14.5,9.1l-3.3,1.9c-2.6-4.9-6.4-7.3-11.1-7.3c-2.9,0-5.2,0.8-7.1,2.3
			c-1.9,1.5-2.8,3.6-2.8,6.2c0,2.2,0.6,4,1.8,5.4c1.2,1.4,3.4,3.1,6.5,4.9l5.3,3.2c4,2.4,6.8,4.7,8.5,6.9c1.7,2.2,2.5,4.8,2.5,7.9
			c0,4.1-1.4,7.4-4.2,9.9c-2.8,2.4-6.3,3.7-10.7,3.7C300.9,298.3,295.2,294.6,291.6,287.1z"/>
		<path class="st1" d="M364.9,297.8l-4.7-12.5h-23.8l-4.6,12.5h-4.2l19.8-53h1.9l19.8,53H364.9L364.9,297.8z M348.4,252.7
			l-10.6,28.9h21.1L348.4,252.7z"/>
		<polygon class="st1" points="377.1,297.5 377.1,245.1 403.5,245.1 403.5,248.7 380.9,248.7 380.9,269.1 399.7,269.1 399.7,272.7 
			380.9,272.7 380.9,297.5 		"/>
		<polygon class="st1" points="409.2,297.5 409.2,245.1 438.5,245.1 438.5,248.7 413.3,248.7 413.3,267.3 432.9,267.3 432.9,271 
			413.3,271 413.3,293.9 439.3,293.9 439.3,297.5 		"/>
		<path class="st1" d="M474,297.5h-3.8L457.8,274h-0.1h-9.1v23.5h-3.3v-52.5h12.4c3.8,0,6.8,1.3,9.1,3.9c2.2,2.6,3.4,6.1,3.4,10.5
			c0,3.7-0.8,6.7-2.3,9.2c-1.5,2.5-3.7,4.1-6.5,4.8L474,297.5L474,297.5z M448.7,248.7v21.5h9c2.9,0,5.2-0.9,6.8-2.8
			c1.6-1.9,2.4-4.5,2.4-7.9c0-3.3-0.8-6-2.4-7.9c-1.6-1.9-3.8-2.9-6.8-2.9H448.7z"/>
	</g>
	<g>
		<path class="st1" d="M203.8,235.1c0,1.2-0.9,2.1-2.1,2.1c-1.2,0-2.1-0.9-2.1-2.1c0-8,3.3-15.3,8.5-20.6c5.3-5.3,12.5-8.5,20.6-8.6
			c1.2,0,2.1,0.9,2.1,2.1c0,1.2-0.9,2.1-2.1,2.1c-6.9,0-13.1,2.8-17.6,7.3C206.6,222,203.8,228.3,203.8,235.1z"/>
		<path class="st1" d="M189,235.2c0,1.2-0.9,2.1-2.1,2.1c-1.2,0-2.1-0.9-2.1-2.1c0-12.2,4.9-23.2,12.9-31.2c8-8,19-13,31.2-13
			c1.2,0,2.1,0.9,2.1,2.1c0,1.2-0.9,2.1-2.1,2.1c-11,0-21,4.5-28.2,11.8C193.5,214.2,189,224.2,189,235.2z"/>
		<g>
			<path class="st1" d="M283.7,235.1c0,1.2,0.9,2.1,2.1,2.1c1.2,0,2.1-0.9,2.1-2.1c0-8-3.3-15.3-8.5-20.6
				c-5.3-5.3-12.5-8.5-20.6-8.6c-1.2,0-2.1,0.9-2.1,2.1c0,1.2,0.9,2.1,2.1,2.1c6.9,0,13.1,2.8,17.6,7.3
				C280.9,222,283.7,228.3,283.7,235.1z"/>
			<path class="st1" d="M298.5,235.2c0,1.2,0.9,2.1,2.1,2.1s2.1-0.9,2.1-2.1c0-12.2-4.9-23.2-12.9-31.2c-8-8-19-13-31.2-13
				c-1.2,0-2.1,0.9-2.1,2.1c0,1.2,0.9,2.1,2.1,2.1c11,0,21,4.5,28.2,11.8C294.1,214.2,298.5,224.2,298.5,235.2z"/>
		</g>
	</g>
</g>
</svg>
