<?xml version="1.0" encoding="utf-8"?>
<!-- Generator: Adobe Illustrator 26.0.0, SVG Export Plug-In . SVG Version: 6.00 Build 0)  -->
<svg version="1.1" id="Layer_1" xmlns="http://www.w3.org/2000/svg" xmlns:xlink="http://www.w3.org/1999/xlink" x="0px" y="0px"
	 viewBox="0 0 500 500" style="enable-background:new 0 0 500 500;" xml:space="preserve">
<style type="text/css">
	.st0{fill-rule:evenodd;clip-rule:evenodd;fill:#3693D0;stroke:#FFFFFF;stroke-width:0;stroke-miterlimit:22.9256;}
	.st1{fill-rule:evenodd;clip-rule:evenodd;fill:#FFFFFF;}
	.st2{fill-rule:evenodd;clip-rule:evenodd;fill:#3693D0;}
</style>
<g>
	<g>
		
			<ellipse transform="matrix(0.7071 -0.7071 0.7071 0.7071 -60.6639 232.2346)" class="st0" cx="250" cy="189.3" rx="114.8" ry="114.8"/>
		<path class="st1" d="M243.2,140.5l28.8-3.8L243.9,200l0,0c4.9-0.4,9.8-2.1,14.5-5l0,0l0,0c4.7-3,9.1-6.7,13.1-11.2l0,0l0,0
			c4-4.5,7.4-9.5,10.3-15l0,0l0,0c2.9-5.5,5-10.9,6.3-16.2l0,0l0,0c0.8-3.3,1.1-6.4,1-9.5l0,0l0,0c-0.1-3-0.9-5.7-2.4-8l0,0l0,0
			c-1.5-2.3-3.8-4.1-6.9-5.5l0,0l0,0c-3.1-1.4-7.3-2.1-12.6-2.1l0,0l0,0c-6.2,0-12.3,1-18.3,3l0,0l0,0c-6,2-11.6,5-16.7,8.8l0,0l0,0
			c-5.1,3.9-9.6,8.7-13.4,14.4l0,0l0,0c-3.8,5.7-6.5,12.3-8.2,19.6l0,0l0,0c-0.6,2.4-1,4.3-1.1,5.8l0,0l0,0
			c-0.1,1.5-0.2,2.7-0.1,3.6l0,0l0,0c0.1,0.9,0.2,1.7,0.4,2.2l0,0l0,0c0.2,0.5,0.3,1,0.5,1.5l0,0l0,0c-6.4,0-11.2-1.3-14.1-3.9l0,0
			l0,0c-3-2.6-3.7-7.1-2.2-13.6l0,0l0,0c1.5-6.7,5-13.1,10.3-19.1l0,0l0,0c5.4-6.1,11.7-11.4,19.1-16l0,0l0,0
			c7.4-4.6,15.5-8.3,24.3-11l0,0l0,0c8.8-2.7,17.3-4.1,25.7-4.1l0,0l0,0c7.3,0,13.5,1,18.5,3.1l0,0l0,0c5,2.1,8.9,4.8,11.7,8.2l0,0
			l0,0c2.8,3.4,4.5,7.4,5.2,11.9l0,0l0,0c0.7,4.5,0.5,9.3-0.7,14.2l0,0l0,0c-1.4,5.9-4,11.9-7.9,17.9l0,0l0,0
			c-3.9,6-8.7,11.4-14.5,16.3l0,0l0,0c-5.8,4.9-12.5,8.8-20,11.8l0,0l0,0c-7.5,3-15.5,4.5-24,4.5l0,0h-0.9l-24.1,54h-27.3
			L243.2,140.5z"/>
	</g>
	<g>
		<path class="st2" d="M198.5,410.2c0.8,0.6-0.1,1.6-1.2,3.8l-4.7,10.5h18.1c0.5-1.1,0.7-1.9,1.3-3.1c0.7-1.4,0.8-1.9,1.5-3.4
			l15.2-33.8c1.3-2.6,2.3-3.8,4.1-5.7l2.6-2.3c1.5-1,4.9-1.9,6.3-0.3c3.5,4-4.5,16.6-5.9,20.3c-2.6,6.8-6.4,12.4-6.4,20.5
			c0,11.6,16.5,9.5,22.9,5.7c3.1-1.9,5.2-4.8,8-6.7c0.9,11,18.9,13,31.9,4.4c8.6-5.7,14.4-14.6,18.6-24c3.3-7.3-0.1-6.3,8-8.2
			c1.8-0.4,2.5-0.9,4.3-1.1c-1.8,7.8-10.3,17.4-10.3,29.9c0,11.6,17.5,10.5,28.7,3.7c2.3-1.4,4-3.2,6-4.8c3.3-2.6,6.1-6,8.6-9.5
			c6.5-8.7,14.4-23.8,15.9-35.1c1.1-8.2-1-9.3-7.8-9.3c-1.8,0-4.4,1.5-5.2,2.6c-2.2,2.8-2.7,7-0.7,10.1c2.3,0,3.8,0.3,5.4-0.5
			c-0.1,5.7-5,12.8-7.5,18l-4.9,7.8c-0.9,1.3-0.9,1.4-1.9,2.5c-4.2,4.9-8.6,10.9-16.1,10.9c-3.9,0-1-6.8-0.2-8.5
			c1-2,1.7-3.8,2.6-5.7l15.2-34.8h-18.1c-0.6,2.6-1.5,3.8-2.4,6l-3.7,8.6c-1.3,3.1-8.3,3.6-11.6,3.6c0.4-5,2.4-12.2-2.1-16.1
			c-7.6-6.7-21.5-1.3-28.4,3.2c-2.7,1.8-4.6,3.6-6.9,5.9c-7.4,7.4-14,18.3-16.6,28.6c-0.9,3.4-2.2,5.5-5.2,7.6
			c-4,2.7-13.2,4.9-5.8-10.2c4.5-9.1,9.3-17.1,10.7-27.6c0.7-5.4-3.2-10-8.6-10c-5.2,0-10.4,0.5-14.5,3.6l-1.3,1.1
			c-0.1,0.1-0.2,0.2-0.3,0.2c-0.1,0-0.2,0.1-0.2,0.2l-0.4,0.3c0.1-2.2,0.3-2.1,1.2-3.8c0.7-1.4,0.9-2.3,1.6-3.8l3.3-7
			c0.6-1.5,0.8-2,1.5-3.4c1.3-2.5,4.5-8.9,4.7-11.4c-1.8,0.4-4.5,0.7-6.4,1l-10,1.3c-4.2,0.8-2.7,1.7-5.2,6.6l-4.7,10.5
			c-0.9,2.3-1.4,3.2-2.4,5.5c-0.4,1.1-0.9,1.7-1.3,2.6l-10.6,24.2c-8.9,17.8-1,7.5-13.6,16.8c-0.1,0-0.2,0.1-0.3,0.2l-0.6-0.4
			c0-0.2,0.3-0.4,0.3-0.4c0.7,1.9,5.3-29.6,6.4-35.3c0.8-4.2,1.3-8.1,2.2-12c-1.9,0-16.3,1.6-18.3,2.3c-2,0.8-6.7,10.4-8,12.6
			c-4.3,7.1-8.5,14.1-13.8,20.5c-4.9,5.9-7.1,4.4-9.9,10.6c-1.8,4-1.4,6.9-8.3,6.9c-1.5,0-2-0.5-2.9-1c0-5.2,4.3-14.1,6.9-19.1
			l11.4-25.8c0.6-1.3,0.7-1.9,1.3-3.1h-18.1c-0.4,1.6-0.7,1.7-1.3,3.1l-10.3,23.5c-0.7,1.4-0.7,1.6-1.3,3.1c-0.5,1.4-1,2-1.6,3.3
			c-2.8,6.8-7.2,17.6-16.4,15.5c-0.2-1.9-0.5-1.2-0.5-2.5c0-2.9,12.3-29.1,14.6-34.5c0.5-1.1,0.8-1.5,1.3-2.6l2.5-5.8
			c0.6-1.5,0.9-1.6,1.3-3.1h-18.1c-0.6,2.7-1.6,3.9-2.5,6.3l-9.4,21.4c-2.7,6.8-13.6,25.2-5.2,31.1c7.1,5,17.6,1.5,23.4-4.1
			c1.4-1.4,2.4-2.7,4-3.8c0,14,14.5,11.2,22.7,6.5c2.2-1.3,3.7-3.4,6.2-4.1c2.7,11.5,22.8,8.6,32.2,2.3
			C187.3,417.4,196.4,413,198.5,410.2L198.5,410.2z M157.8,410.7c0-1.3,0.2-1.4,0.5-2.5c7.1,3.4,12.9-7.5,7.8-9.3l5.4-7.9
			c0.7-1,1.1-1.4,1.9-2.5l6.3-9.9c0.9-1.1,0.1-0.1,0.7-0.8c-3.2,13.8-1.2,32.3-11.9,36.6C164.2,416.1,157.8,416.2,157.8,410.7
			L157.8,410.7z M300.5,385.7c0,6.1,5-1.2-1.3,11.4c-2.4,4.9-7.1,12.1-11.9,15c-3.1,1.9-8.3,3.2-8.3-3.4c0-8,9.2-25.7,14.8-31.3
			l2.4-2.5c8.3-8.9,12.3-0.8,9.4,2.5C305.2,377.8,300.5,379.4,300.5,385.7z"/>
		<path class="st2" d="M407.4,412.7c0.8,0.7,0.6,0.3,0.1,1l-5,10.7h18.1c5.8-12.1,12.5-28.8,18.5-41.8c1.6-3.4,1-3.6,4.2-5.6
			c15.6-10.1,1.4,8.7,15.9,4.1c9-2.9,10.8-17.9,1.2-17.9c-6.2,0-11.8,4.8-15.7,7.4c0.7-2.8,1.9-4,2.5-6.4h-18.1
			c-0.7,3.1-8.2,18.9-10,23.3l-6.9,15.2l-6,5.2c-6.5,4.9-10.3,6.7-18.8,6.7c-8.9,0-4.4-12.2-3.9-13.2c0.7-1.3,1.2-1.2,2.9-1.5
			c28.3-4.6,36.8-30.1,28.1-35c-8.8-5-22.9,1-29.7,6.5c-4.5,3.6-11,11.5-13.7,16.7c-0.9,1.7-1.8,3-2.6,4.8
			c-2.7,6.1-4.5,10.4-5.4,17.7c-2.2,17.4,18.7,17.4,32.2,10.6C398.5,419.6,405.5,415.5,407.4,412.7L407.4,412.7z M386.3,394.1
			c3.3-6.2,10.4-20.7,17.7-23.5c6.9-2.6,2.5,7.8,1.4,9.8C401.8,386.5,394,393.4,386.3,394.1z"/>
		<path class="st2" d="M35.7,369.6c0,6,5.2,7.8,11.3,7.8c-0.2-2-0.5-1.1-0.5-2.9c0-4.9,2-10.5,3.8-13.9
			C63.1,334.8,96.5,336,96.5,348c0,10.1-3.3,17.8-9.2,25.1c-3.6,4.5-11.2,12-18.7,12.2c1.6-3.1,2.9-6.5,4.4-9.8
			c1.8-4,12.5-27.1,13.2-30.4c-4.5,0.4-9.8,1.5-14.3,1.9c-5.2,0.5-4.3-0.2-8,8.7c-8.6,20.8-20.2,44.5-29.4,65.8
			c-0.6,1.3-0.7,2-1.3,3.1h18.1l7.5-17c1.3-3,2.5-5.7,3.8-8.5c1.3-2.9,2.5-6.1,3.9-8.8c7.2,0,11.4-0.8,16.5-3.1
			c9.8-4.4,15.4-9.1,21.3-17.9c9.4-13.9,8.8-35.4-17.8-35.4c-15.6,0-35.9,9.5-44.3,20.4C39.1,358.4,35.7,363.4,35.7,369.6z"/>
	</g>
</g>
</svg>
