<?xml version="1.0" encoding="utf-8"?>
<!-- Generator: Adobe Illustrator 26.0.0, SVG Export Plug-In . SVG Version: 6.00 Build 0)  -->
<svg version="1.1" id="Layer_1" xmlns="http://www.w3.org/2000/svg" xmlns:xlink="http://www.w3.org/1999/xlink" x="0px" y="0px"
	 viewBox="0 0 500 500" style="enable-background:new 0 0 500 500;" xml:space="preserve">
<style type="text/css">
	.st0{fill-rule:evenodd;clip-rule:evenodd;fill:#32B34A;}
	.st1{fill-rule:evenodd;clip-rule:evenodd;fill:#FFFFFF;}
</style>
<g>
	<rect x="18.2" y="200.3" class="st0" width="463.5" height="99.3"/>
	<path class="st1" d="M331.1,240.7c0.5-0.6,1.3-0.9,2-0.9c1.2,0,2.3,0,3.5,0c0.6,0,1.3,0.2,1.8,0.7c0.5,0.5,0.7,1.3,0.7,2
		c0,5.1,0,10.3,0,15.4c0,1.5,0,3.1,0.2,4.6c0.2,1.2,0.6,2.6,1.6,3.4c1.2,1.1,2.9,1.2,4.4,1.1c2.7-0.2,5.2-1.7,6.7-4
		c1.1-1.6,1.7-3.6,2-5.5c0.2-1.1,0.1-2.3,0.1-3.5c0-3.8,0-7.5,0-11.3c0-0.9,0.2-1.9,0.9-2.4c0.9-0.7,2.2-0.5,3.2-0.5
		c1.1,0.1,2.3-0.2,3.3,0.4c0.8,0.5,1.2,1.5,1.1,2.4c0,9.3,0,18.6,0,27.8c0,0.8,0.1,1.7-0.3,2.4c-0.4,0.8-1.4,1.2-2.2,1.2
		c-1.2,0-2.3,0-3.5,0c-1,0-1.9-0.8-2.1-1.8c-0.2-1.5-0.1-3.1,0-4.6c-1.3,2.7-3.6,4.8-6.3,6c-2.7,1.3-5.9,1.5-8.8,1
		c-2.5-0.4-4.9-1.7-6.4-3.8c-1.8-2.6-2.3-5.8-2.3-8.9c0-6.3,0-12.6,0-18.9C330.5,242.2,330.5,241.3,331.1,240.7L331.1,240.7z
		 M180.6,240.4c0.5-0.5,1.3-0.7,2-0.7c1.1,0,2.2,0,3.3,0c0.8,0,1.5,0.3,2,1c0.5,0.7,0.5,1.7,0.5,2.5c0,5.8,0,11.7,0,17.5
		c0.1,1.9,0.4,4,1.9,5.2c1.3,1,3,1.1,4.6,0.9c2.2-0.2,4.3-1.5,5.7-3.2c1.8-2.3,2.6-5.2,2.6-8.1c0-4.4,0-8.7,0-13.1
		c0-0.9,0.2-1.8,1-2.4c0.9-0.7,2.1-0.4,3.2-0.5c1.1,0.1,2.3-0.2,3.3,0.4c0.8,0.5,1.1,1.5,1.1,2.4c0,9.5,0,19,0,28.5
		c0,0.9-0.2,1.9-0.9,2.5c-0.9,0.7-2.1,0.5-3.1,0.5c-1,0-2,0.1-2.9-0.3c-0.9-0.4-1.3-1.3-1.3-2.2c0-1.3,0-2.6,0.1-3.8
		c-2,4-6.2,6.7-10.7,7.1c-2.6,0.2-5.2-0.1-7.6-1.2c-1.7-0.8-3.1-2.2-4-3.9c-1.2-2.2-1.5-4.8-1.6-7.3c0-6.6,0-13.1,0-19.7
		C179.8,241.8,180,240.9,180.6,240.4L180.6,240.4z M418.2,247.4c-1.6,1.4-2.6,3.5-3,5.6c2.2,0.1,4.5,0,6.8,0c2.8,0,5.6,0,8.4,0
		c0-1-0.2-2-0.5-3c-0.6-1.8-1.9-3.3-3.6-4C423.6,244.9,420.3,245.5,418.2,247.4L418.2,247.4z M414.5,241.3c2.7-1.6,5.9-2.4,9-2.4
		c2.8,0,5.7,0.5,8.1,1.9c3.3,1.8,5.6,5.2,6.5,8.8c0.5,1.8,0.7,3.7,0.7,5.6c0,1.1-0.7,2.1-1.7,2.6c-0.7,0.4-1.5,0.3-2.3,0.3
		c-6.6,0-13.2,0-19.9,0c0.2,3,1.7,6,4.3,7.7c3.3,2.2,7.8,2.1,11.3,0.5c1.2-0.4,2.1-1.4,3.4-1.5c0.6-0.1,1.3,0.1,1.8,0.6
		c0.6,0.6,0.9,1.3,1.3,2c0.5,0.8,0.7,1.9,0.3,2.8c-0.4,0.8-1.2,1.1-1.9,1.6c-5,3-11.3,3.8-16.9,2.1c-4.1-1.2-7.8-3.9-9.9-7.6
		c-2.8-4.7-3.2-10.6-1.6-15.8C408.4,246.7,411,243.3,414.5,241.3L414.5,241.3z M229.9,239c3.6-0.3,7.3,0.2,10.6,1.8
		c0.8,0.4,1.8,0.8,2.3,1.7c0.5,1,0.1,2.2-0.5,3.2c-0.5,0.8-0.8,1.7-1.7,2c-1,0.4-2.1-0.1-3-0.5c-1.9-0.9-3.9-1.4-6-1.5
		c-1.2,0-2.5,0.2-3.4,0.9c-1.2,0.9-1.5,2.9-0.5,4.1c0.7,0.8,1.7,1.3,2.6,1.7c2.5,1,5.1,1.7,7.5,2.9c1.8,0.8,3.4,1.9,4.6,3.5
		c1.6,2.2,2,5.1,1.4,7.7c-0.6,2.5-2.2,4.7-4.4,6c-3.1,2-6.9,2.4-10.5,2.1c-3.5-0.3-6.9-1.7-9.8-3.7c-0.9-0.6-1-2-0.5-2.9
		c0.3-0.6,0.7-1.2,1.1-1.7c0.5-0.6,1.1-1.2,1.9-1.3c1.2-0.1,2.2,0.7,3.2,1.2c1.8,1,3.8,1.6,5.9,1.7c1.2,0,2.4,0,3.5-0.6
		c1-0.5,1.8-1.5,1.9-2.6c0.1-0.7-0.2-1.5-0.7-2c-1-1.1-2.4-1.6-3.7-2.1c-2.7-1-5.6-1.8-8.1-3.4c-1.7-1.1-3.3-2.6-4-4.6
		c-1.1-3.2-0.6-7,1.6-9.6C223.2,240.5,226.6,239.3,229.9,239L229.9,239z M447.9,230.9c0.9-0.6,2-0.5,3-0.5c1,0,2-0.2,2.9,0.3
		c0.9,0.4,1.4,1.5,1.4,2.4c0,2.4,0,4.8,0,7.1c1.6,0,3.2,0,4.8,0c0.8,0,1.7,0.1,2.3,0.7c0.7,0.7,0.8,1.7,0.8,2.6c0,0.9,0,1.9-0.6,2.6
		c-0.5,0.6-1.2,0.8-1.9,0.8c-1.8,0-3.5,0-5.3,0c0,4.4,0,8.7,0,13.1c0,1.6,0.2,3.3,1.3,4.5c0.9,1.2,2.4,1.8,3.9,2
		c0.9,0.1,1.9,0.2,2.5,0.8c0.6,0.6,0.6,1.5,0.6,2.3c0,1,0.1,2.1-0.2,3c-0.3,0.9-1.2,1.4-2.1,1.5c-1.1,0.1-2.2,0.1-3.3,0
		c-3.3-0.4-6.6-1.7-8.7-4.3c-1.9-2.2-2.7-5.1-2.7-7.9c0-5,0-10,0-15c-1.1,0-2.2,0.2-3.3-0.2c-0.9-0.4-1.2-1.3-1.3-2.2
		c0-1-0.1-2,0.3-3c0.3-0.8,1.1-1.2,1.9-1.3c0.8-0.1,1.7,0,2.5,0c0-2.3,0-4.7,0-7C446.9,232.4,447.2,231.4,447.9,230.9L447.9,230.9z
		 M391.3,226.4c0.9-0.2,1.8-0.1,2.7-0.1c1,0,2-0.2,2.9,0.4c0.8,0.5,1.1,1.5,1.1,2.4c0,10.7,0,21.4,0,32.1c0,1.2-0.1,2.4,0.3,3.6
		c0.3,0.9,1,1.6,1.9,1.8c0.7,0.1,1.6,0.2,2.1,0.9c0.6,0.8,0.5,1.8,0.5,2.7c0,1,0.1,2-0.3,2.9c-0.4,0.8-1.2,1.2-2,1.2
		c-2.1,0.1-4.2-0.1-6.1-1c-2-0.9-3.4-2.8-4.1-4.8c-0.9-2.8-0.7-5.7-0.7-8.6c0-10.3,0-20.5,0-30.8C389.5,228,390.1,226.7,391.3,226.4
		L391.3,226.4z M372.7,226.4c0.9-0.1,1.8,0,2.8-0.1c0.8,0,1.8-0.1,2.5,0.3c0.9,0.4,1.3,1.4,1.3,2.4c0,11.3,0,22.6,0,33.9
		c0,1.2,0.2,2.5,1.2,3.3c0.5,0.5,1.3,0.5,1.9,0.6c0.9,0.2,1.6,1,1.6,1.9c0.1,0.9,0,1.8,0,2.7c0,0.8-0.1,1.7-0.7,2.3
		c-0.4,0.4-1,0.7-1.6,0.7c-1.7,0.1-3.5,0-5.1-0.6c-1.6-0.5-3.1-1.5-4.1-3c-0.8-1.2-1.3-2.7-1.6-4.1c-0.3-1.7-0.2-3.4-0.2-5
		c0-10.9,0-21.8,0-32.8C370.8,227.7,371.6,226.6,372.7,226.4L372.7,226.4z M305.7,246.5c-2.3,0.4-4.3,1.9-5.4,4
		c-1.5,2.6-1.8,5.8-1.3,8.8c0.4,2.6,1.5,5.2,3.7,6.9c2,1.5,4.8,1.9,7.2,1.1c2.2-0.7,4-2.5,5-4.6c1.2-2.6,1.3-5.5,0.9-8.3
		c-0.4-2.6-1.7-5.3-4-6.8C310,246.4,307.7,246,305.7,246.5L305.7,246.5z M291.7,226.6c0.8-0.4,1.6-0.3,2.5-0.3
		c0.9,0,1.9-0.1,2.8,0.1c0.8,0.1,1.4,0.6,1.7,1.3c0.3,0.6,0.3,1.4,0.3,2.1c0,2.8,0,5.5,0,8.3c0,2.2,0.1,4.3-0.2,6.5
		c1.6-2.7,4.4-4.6,7.4-5.3c3.3-0.7,6.9-0.3,10,1.3c2.1,1.1,3.9,2.8,5.2,4.7c1.8,2.7,2.7,5.9,3,9c0.4,4-0.1,8.1-1.8,11.7
		c-1.1,2.4-2.9,4.6-5.1,6.1c-3.2,2.3-7.3,3.1-11.1,2.4c-3.3-0.5-6.4-2.6-8.1-5.6c0,1.1,0.2,2.2,0,3.3c-0.2,1-1.3,1.6-2.3,1.7
		c-1,0-2.1,0-3.2,0c-0.9,0-1.8-0.5-2.1-1.3c-0.4-0.8-0.3-1.6-0.3-2.5c0-13.7,0-27.5,0-41.2C290.5,228.1,290.9,227.1,291.7,226.6
		L291.7,226.6z M251.2,226.8c0.9-0.7,2.2-0.5,3.3-0.5c1.1,0,2.3-0.2,3.3,0.5c0.7,0.5,1,1.5,1,2.3c0,4.8,0,9.6,0,14.4
		c0,0.8-0.1,1.6-0.1,2.4c1.1-2.2,3-4,5.2-5.2c3.3-1.8,7.2-2.1,10.8-1.3c2.3,0.5,4.5,1.9,5.8,4c1.6,2.5,2.1,5.7,2.1,8.6
		c0,6.5,0,13,0,19.5c0,0.8-0.4,1.7-1.1,2.1c-1,0.5-2.1,0.3-3.1,0.4c-1.1,0-2.4,0.2-3.3-0.5c-0.8-0.6-1-1.6-1-2.5
		c0-5.6,0-11.2,0-16.7c0-1.8,0-3.7-0.9-5.3c-0.6-1.1-1.7-1.9-3-2.1c-2.9-0.5-6,0.4-8.1,2.4c-2.3,2.2-3.3,5.5-3.3,8.6
		c0,4.1,0,8.2,0,12.3c0,0.9,0.1,1.8-0.3,2.6c-0.4,0.8-1.3,1.2-2.1,1.2c-1,0-2.1,0-3.1,0c-0.8,0-1.8-0.2-2.3-0.8
		c-0.5-0.6-0.6-1.5-0.6-2.3c0-13.8,0-27.6,0-41.4C250.2,228.5,250.3,227.4,251.2,226.8L251.2,226.8z M149.9,233.8
		c0,5.4,0,10.8,0,16.2c2.7,0.1,5.4,0,8,0c1.8,0,3.6-0.4,5.1-1.5c1.6-1.1,2.5-3,2.8-4.9c0.3-1.9,0.2-3.8-0.6-5.6
		c-0.7-1.8-2.3-3.2-4.2-3.8c-1.4-0.5-2.9-0.5-4.3-0.5C154.5,233.8,152.2,233.7,149.9,233.8L149.9,233.8z M141.8,227.2
		c0.5-0.6,1.3-0.9,2.1-0.9c4.5,0,9.1,0,13.6,0c1.9,0,3.8-0.1,5.6,0.3c3,0.6,5.9,2.1,7.9,4.4c2.1,2.3,3.3,5.2,3.7,8.2
		c0.4,3.4,0.1,7-1.5,10.2c-1.2,2.5-3.1,4.6-5.4,6c-2.5,1.5-5.5,2.2-8.4,2.2c-3.2,0-6.3,0-9.5,0c0,4.6,0,9.1,0,13.7
		c0,0.9-0.2,1.9-1,2.4c-1,0.7-2.3,0.4-3.4,0.4c-1.1-0.1-2.4,0.2-3.3-0.5c-0.7-0.5-0.9-1.5-0.9-2.3c0-14,0-27.9,0-41.9
		C141.3,228.6,141.3,227.8,141.8,227.2z"/>
	<path class="st1" d="M72.5,233c0.3-0.3,0.8-0.2,1.2-0.3c3.5,0,6.9,0,10.4,0c2,0,4,0.6,5.8,1.5c2.7,1.4,4.8,3.7,6.2,6.4
		c3.4,6.3,3,14.6-1.3,20.4c-2.6,3.6-7,6-11.5,5.7c-3.4-0.1-6.7,0-10.1,0c-1,0-1.7-0.9-1.7-1.8c0-8.6,0-17.3,0-25.9
		c0-1.3,0-2.5,0-3.7C71.5,234.4,71.8,233.6,72.5,233L72.5,233z M57.6,234c0.3-0.6,0.9-1.2,1.6-1.2c1.9,0,3.9,0,5.8,0
		c1.1,0,1.9,1,2.1,2c0.1,0.8,0,1.5,0,2.3c0,8.9,0,17.9,0,26.8c0,0.7,0.1,1.4-0.4,2c-0.5,0.6-1.2,0.9-2,0.9c-1.8,0-3.5,0-5.3,0
		c-0.7,0-1.4-0.1-1.9-0.7c-0.5-0.6-0.4-1.4-0.4-2.2c0-4.9,0-9.8,0-14.7c0.1-4.2,0-8.3,0-12.5C57.4,235.8,57.2,234.8,57.6,234
		L57.6,234z M55.8,221.2c-4.2,2.9-7.7,6.7-10.3,11c-4.5,7.5-5.9,16.7-4.1,25.2c1.4,6.4,4.7,12.5,9.3,17.2c4.5,4.6,10.3,7.9,16.6,9.4
		c7,1.7,14.6,1.2,21.3-1.4c5.9-2.3,11.1-6.3,15-11.3c3.7-4.8,6.1-10.7,6.9-16.7c1-7.6-0.6-15.5-4.5-22.1
		c-3.8-6.6-9.9-11.8-16.9-14.7c-4.9-2-10.3-2.9-15.6-2.6C67.1,215.4,60.9,217.6,55.8,221.2L55.8,221.2z M72.3,209.4
		c-4.1,0.3-8.2,1.3-12,2.9c-6.5,2.6-12.3,7-16.6,12.5c-3.4,4.3-5.9,9.2-7.3,14.5c-2.8,10.1-1.5,21.3,3.7,30.5
		c3.3,6,8.2,11.1,13.9,14.7c5.2,3.3,11.1,5.4,17.2,6c7.4,0.8,15-0.4,21.8-3.6c5.6-2.6,10.6-6.5,14.5-11.4c3.8-4.7,6.6-10.4,8-16.3
		c1.7-7.2,1.4-14.8-0.9-21.8c-1.9-5.9-5.2-11.4-9.5-15.8c-5.5-5.6-12.6-9.7-20.3-11.4C80.6,209.3,76.4,209.1,72.3,209.4z"/>
</g>
</svg>
