<?xml version="1.0" encoding="utf-8"?>
<!-- Generator: Adobe Illustrator 26.0.0, SVG Export Plug-In . SVG Version: 6.00 Build 0)  -->
<svg version="1.1" id="Layer_1" xmlns="http://www.w3.org/2000/svg" xmlns:xlink="http://www.w3.org/1999/xlink" x="0px" y="0px"
	 viewBox="0 0 500 500" style="enable-background:new 0 0 500 500;" xml:space="preserve">
<style type="text/css">
	.st0{fill:#221C1D;}
	.st1{fill:#0773AF;}
	.st2{fill:#FFFFFF;}
</style>
<g>
	<path class="st0" d="M231,199.1c0.6,0.4,0.8,0.7,1,1c3.7,3.8,7.3,7.5,11,11.2c0.6,0.6,0.8,1.1,0.8,1.8v10.8v1.6
		c0.3,0.1,0.6,0.1,0.8,0.1h1.3h32.9h1.2c0.6,0,1,0.1,1.3,0.6c2.7,2.9,5.4,5.9,8.2,8.8c0.4,0.4,0.7,0.9,0.6,1.4v0.8v49
		c0,2,0.2,1.4-1.2,2.9c-2.4,2.4-5,4.9-7.4,7.4c-0.6,0.6-1.2,0.9-2,0.9h-37.7h-0.7c-0.4,0-0.7-0.1-1-0.4c-0.2-0.2-0.3-0.4-0.6-0.7
		c-2.7-2.9-5.2-5.8-7.9-8.6c-0.6-0.6-0.8-1.2-0.8-2v-1.9V201C231,200.5,231,199.9,231,199.1 M277.2,284.2c0.1-0.2,0.1-0.4,0.1-0.6
		v-44.8c0-0.2-0.1-0.3-0.1-0.6c-0.6-0.1-1.1-0.1-1.7-0.1h-26.8h-4c-0.2,0-0.6,0.1-0.9,0.1v1.7v42.4v1c0,0.2,0.1,0.6,0.1,0.9h32.6
		C276.7,284.3,276.9,284.2,277.2,284.2"/>
	<path class="st0" d="M409.7,297.3c-0.2-0.2-0.4-0.6-0.7-0.8c-2.4-2.7-4.9-5.3-7.4-8c-0.6-0.6-0.8-1.1-0.8-2V236
		c0-0.8,0.2-1.3,0.8-2c2.6-2.7,5-5.3,7.4-8c0.6-0.7,1.2-0.9,2-0.9h34.5h1.1l0.9,0.9c2.4,2.7,5,5.3,7.4,8c0.6,0.6,0.8,1.1,0.8,1.8
		v30.6v1c-0.3,0-0.6,0.1-0.8,0.1h-1.3H415c-0.6,0-1.2-0.1-1.8,0.1c0,0.3-0.1,0.6-0.1,0.9c-0.1,3.9,0,14.3,0.1,15.6
		c0.2,0,0.4,0.1,0.8,0.1h1.3h38.6c0.6,0,1.1-0.1,1.7,0.1c0,0.4-0.3,0.8-0.6,1.1c-2.2,3.2-4.4,6.4-6.7,9.6c-0.3,0.4-0.7,0.9-0.9,1.3
		c-0.3,0.6-0.8,0.8-1.3,0.7h-0.7h-33.9C410.8,297.3,410.3,297.3,409.7,297.3 M413,254.9c0.6,0.2,1.1,0.1,1.6,0.1h12h15.6
		c0.4,0,1,0.1,1.6-0.1c0-0.3,0.1-0.6,0.1-0.8v-2.3v-12c0-0.4,0.1-1-0.2-1.6H442H421h-7c-0.3,0-0.7,0.1-1.1,0.1
		C413,243.8,413,249.3,413,254.9"/>
	<path class="st0" d="M355,297.3h-43.5c-2.9-3-5.8-6.1-8.8-9.2v-1.6v-50.3c0-1.9-0.2-1.3,1.1-2.8c2.2-2.3,4.4-4.8,6.7-7.1
		c0.7-0.7,1.3-1,2.2-1h40.6h0.7c0.4,0,0.7,0.1,1,0.4c0.1,0.2,0.3,0.3,0.4,0.4c2.4,2.6,4.9,5.2,7.3,7.8c0.6,0.6,0.8,1.2,0.8,2.1v50.3
		c0,0.8-0.2,1.4-0.8,2c-2.6,2.8-5.1,5.5-7.7,8.3C355.3,296.9,355.1,297.1,355,297.3 M351.7,238.7c-0.1-0.1-0.1-0.2-0.2-0.2
		c-0.1,0-0.2-0.1-0.2-0.1h-34.7h-1.3h-0.1c0,0-0.1,0.1-0.2,0.2v1.6v39.5v3.5c0,0.3,0.1,0.7,0.1,0.9c0.6,0.2,1.1,0.1,1.7,0.1H350h1
		c0.2,0,0.6-0.1,0.9-0.2v-44.8C351.7,239.2,351.7,238.9,351.7,238.7"/>
	<path class="st0" d="M388.4,297.1c-0.3,0.1-0.4,0.1-0.6,0.1h-10.9c-0.1,0-0.2-0.1-0.4-0.1c0-0.2-0.1-0.6-0.1-0.8v-1.2v-93v-1.8
		c0.6-0.2,0.7,0.1,0.9,0.3c2.5,2.6,5,5.1,7.5,7.6c1,1,2,2.1,3.1,3.1c0.4,0.3,0.6,0.8,0.6,1.3v1v81.5
		C388.4,295.7,388.4,296.4,388.4,297.1"/>
	<path class="st0" d="M462.3,225.8c-4.7,0.1-9.4-3.7-9.5-9.4c0-5.8,4.8-9.5,9.5-9.5c5,0,9.4,4.1,9.4,9.5
		C471.9,221.6,467.4,225.8,462.3,225.8 M462.3,208c-4.3-0.1-8.3,3.5-8.3,8.3c0,4.8,4.1,8.2,8.2,8.2c4.3,0,8.3-3.4,8.3-8.2
		C470.6,211.6,466.6,207.9,462.3,208"/>
	<path class="st1" d="M66.7,213.8c0.2,0,0.4-0.1,0.7-0.1h1h36.8h1.6c0.1,0.3,0.1,0.6,0.2,0.8v1v62.1c0,0.6,0.1,1.2-0.1,1.8
		c-0.2,0-0.3,0.1-0.4,0.1H67.3c-0.1,0-0.2-0.1-0.4-0.1c0-0.2-0.1-0.6-0.1-0.8v-1.1v-61.8C66.6,215,66.5,214.5,66.7,213.8"/>
	<path class="st0" d="M464.2,216.5c1,1,1.7,2.1,2.3,3.2c-1,0.3-1.1,0.3-1.6-0.3c-0.3-0.6-0.7-1.1-1-1.7c-0.6-1-1.3-1.4-2.6-1.2
		c-0.1,0-0.2,0-0.4,0.1c0,0.3-0.1,0.6-0.1,0.9c0,0.8,0,1.6-0.1,2.3h-0.9c0-0.2-0.1-0.4-0.1-0.7c-0.1-3.3-0.1-6,0.2-7
		c0.1,0,0.3-0.1,0.4-0.1h3.2c0.3,0,0.8,0.1,1.1,0.2c0.8,0.2,1.2,0.8,1.3,1.6c0.1,0.8-0.1,1.6-0.8,2.1
		C464.9,216.1,464.5,216.3,464.2,216.5 M460.9,215.5c0.2,0,0.3,0.1,0.6,0.1h1.8c0.3,0,0.7-0.1,0.9-0.2c0.7-0.2,1-1,0.7-1.7
		c-0.2-0.4-0.6-0.6-1-0.7c-0.9-0.1-1.9-0.1-2.9,0C460.8,213.9,460.8,214.7,460.9,215.5"/>
	<path class="st2" d="M179.2,277.8c0,0.2-0.1,0.6-0.1,0.9h-1.6h-19.7h-8.6c-0.4,0-0.8,0-1.3-0.1v-1.9V223v-1.3
		c0-0.2-0.1-0.4-0.1-0.7c-0.2,0-0.4-0.1-0.6-0.1h-15.3c-0.2,0-0.4,0.1-0.8,0.1v1.7v22.2v38.8c0,0.9,0.2,1.6,0.9,2.2
		c3,3.2,6,6.4,9,9.6c0.3,0.4,0.8,0.8,1.1,1.1h1.2h40.2h0.7c0.4,0,0.8-0.1,1.1-0.4c0.2-0.2,0.3-0.4,0.6-0.6c3-3.1,5.9-6.3,8.9-9.4
		c0.3-0.3,0.7-0.8,1.1-1.2v-1.8v-60.3v-1.2c0-0.2-0.1-0.6-0.1-0.8c-0.3,0-0.6-0.1-0.8-0.1h-15.4h-0.1c0,0-0.1,0-0.1,0.1
		c-0.2,0.6-0.1,1.1-0.1,1.8v53.6V277.8z"/>
	<path class="st1" d="M242.5,331.3h-8.2l-1.4,3.5h-2.2l6.4-16.2h2.6l6.5,16.2h-2.2L242.5,331.3z M234.9,329.5h7l-3.4-9L234.9,329.5z
		"/>
	<path class="st1" d="M255.8,327.2c0-2.1-1-2.7-2.7-2.7c-1.3,0-2.7,0.7-3.4,1.8v8.5h-1.8v-11.6h1.9v1.7c1.1-1.2,2.6-1.9,4.2-2
		c2.4,0,3.8,1.2,3.8,3.8v8.2H256L255.8,327.2z"/>
	<rect x="267.1" y="318.8" class="st1" width="2" height="16.2"/>
	<path class="st1" d="M280.9,333.1c-0.9,1.2-2.4,2-4,2c-3.1,0-5.2-2.3-5.2-6.1c0-3.8,2.1-6.1,5.2-6.1c1.6,0,3,0.8,4,2.1v-6.2h1.8
		V335h-1.8V333.1z M280.9,326.4c-0.8-1.1-2.1-1.9-3.5-1.9c-2.3,0-3.8,1.9-3.8,4.5c0,2.6,1.4,4.5,3.8,4.5c1.4,0,2.7-0.7,3.5-1.9
		V326.4z"/>
	<path class="st1" d="M291.2,322.9c3.5,0,5.7,2.8,5.7,6.3v0.4h-9.4c0,2.3,1.9,4.1,4.2,4c1.3,0,2.7-0.6,3.7-1.4l0.9,1.2
		c-1.2,1.2-2.9,1.9-4.7,1.8c-3.4,0-5.9-2.5-5.9-6.1C285.5,325.7,287.8,322.9,291.2,322.9 M287.4,328.3h7.7c0-2.1-1.6-3.9-3.7-3.9
		h-0.1C288.7,324.4,287.5,326.6,287.4,328.3"/>
	<path class="st1" d="M299.6,323.2h1.8v1.9c0.9-1.3,2.3-2.1,3.9-2.1v1.9c-0.2,0-0.4-0.1-0.8-0.1c-1.3,0.1-2.4,0.8-3.2,1.9v8.2h-1.8
		L299.6,323.2z"/>
	<path class="st1" d="M314.5,333.5c-1,1.1-2.4,1.7-3.9,1.7c-2,0-4.1-1.3-4.1-3.9c0-2.5,2.1-3.9,4.1-3.9c1.4-0.1,2.9,0.6,3.9,1.6
		v-2.1c0-1.6-1.2-2.4-3-2.4c-1.3,0-2.7,0.6-3.5,1.7l-0.9-1.2c1.2-1.3,2.9-2,4.7-1.9c2.4,0,4.5,1.1,4.5,4v8h-1.8V333.5z M314.5,330.2
		c-0.8-1-2-1.6-3.2-1.4c-1.7,0-2.9,1.1-2.9,2.5c0,1.4,1.2,2.6,2.9,2.6c1.2,0.1,2.4-0.4,3.2-1.4V330.2z"/>
	<path class="st1" d="M319.2,337.2c0.8-0.6,1.3-1.3,1.6-2.2h-0.3c-0.7,0-1.1-0.4-1.1-1.1v-0.1c0-0.7,0.6-1.3,1.3-1.3
		c0.8,0,1.6,0.7,1.6,1.9c0,1.4-0.8,2.8-2,3.7L319.2,337.2z"/>
	<rect x="331" y="318.8" class="st1" width="2" height="16.2"/>
	<path class="st1" d="M344.4,327.2c0-2.1-1-2.7-2.7-2.7c-1.3,0-2.7,0.7-3.4,1.8v8.5h-1.8v-11.6h1.8v1.7c1.1-1.2,2.6-1.9,4.2-2
		c2.4,0,3.8,1.2,3.8,3.8v8.2h-1.8L344.4,327.2z"/>
	<path class="st1" d="M354.8,322.9c1.7-0.1,3.3,0.7,4.3,2l-1.2,1.1c-0.7-1-1.8-1.6-3-1.6c-2.4,0-4,1.9-4,4.5c0,2.7,1.6,4.5,4,4.5
		c1.2,0,2.3-0.6,3-1.6l1.2,1.1c-1,1.3-2.6,2.1-4.3,2c-3.4,0-5.9-2.7-5.9-6.1C348.9,325.6,351.3,322.9,354.8,322.9"/>
	<path class="st1" d="M362.2,332.4c0.8,0,1.3,0.6,1.3,1.3c0,0.8-0.6,1.3-1.3,1.3c-0.8,0-1.3-0.6-1.3-1.3
		C360.9,333.1,361.5,332.4,362.2,332.4"/>
	<path class="st1" d="M372,326.8c-0.1-4.4,3.3-8.2,7.8-8.3h0.4c2.4-0.1,4.8,1.1,6.2,3.2l-1.7,0.9c-1-1.4-2.7-2.3-4.5-2.3
		c-3.4,0-6.1,2.7-6.1,6.5c0,3.9,2.7,6.5,6.1,6.5c1.8,0,3.4-0.9,4.5-2.3l1.7,0.9c-1.4,2-3.8,3.2-6.2,3.2c-4.4,0.1-8.1-3.4-8.2-7.9
		V326.8z"/>
	<path class="st1" d="M388,329c0-3.4,2.2-6.1,5.8-6.1c3.5,0,5.8,2.8,5.8,6.1c0,3.4-2.2,6.1-5.8,6.1C390.3,335.2,388,332.4,388,329
		 M397.7,329c0-2.3-1.3-4.5-3.9-4.5c-2.6,0-3.9,2.1-3.9,4.5c0,2.4,1.4,4.5,3.9,4.5C396.2,333.5,397.7,331.4,397.7,329"/>
	<path class="st1" d="M416.3,327c0-1.4-0.7-2.4-2.1-2.4c-1.2,0.1-2.4,0.8-3.1,1.8v8.5h-1.8V327c0-1.4-0.7-2.4-2.1-2.4
		c-1.2,0.1-2.3,0.8-3.1,1.8v8.5h-1.8v-11.8h1.8v1.7c0.9-1.2,2.3-1.9,3.8-2c1.4-0.1,2.8,0.8,3.1,2.2c0.9-1.3,2.3-2.1,4-2.2
		c2.1,0,3.3,1.2,3.3,3.5v8.4h-1.8L416.3,327z"/>
	<path class="st1" d="M421.5,339.3v-16.1h1.8v1.8c0.9-1.2,2.4-2,4-2c3.1,0,5.2,2.3,5.2,6.1c0,3.8-2.1,6.1-5.2,6.1
		c-1.6,0-3.1-0.8-4-2.1v6.2H421.5z M426.7,324.6c-1.4,0-2.7,0.7-3.4,1.9v5.3c0.8,1.1,2.1,1.9,3.4,1.9c2.3,0,3.8-1.9,3.8-4.5
		C430.5,326.4,429.2,324.6,426.7,324.6"/>
	<path class="st1" d="M442.5,333.5c-1,1.1-2.4,1.7-3.9,1.7c-2,0-4.1-1.3-4.1-3.9c0-2.5,2.1-3.9,4.1-3.9c1.4-0.1,2.9,0.6,3.9,1.6
		v-2.1c0-1.6-1.2-2.4-3-2.4c-1.3,0-2.7,0.6-3.5,1.7l-0.8-1.2c1.2-1.3,2.9-2,4.7-1.9c2.4,0,4.5,1.1,4.5,4v8h-1.8L442.5,333.5z
		 M442.5,330.2c-0.8-1-2-1.6-3.2-1.4c-1.7,0-2.9,1.1-2.9,2.5c0,1.4,1.2,2.6,2.9,2.6c1.2,0,2.4-0.4,3.2-1.4V330.2z"/>
	<path class="st1" d="M455.4,327.2c0-2.1-1-2.7-2.7-2.7c-1.3,0-2.7,0.7-3.4,1.8v8.5h-1.8v-11.6h1.8v1.7c1.1-1.2,2.6-1.9,4.2-2
		c2.4,0,3.8,1.2,3.8,3.8v8.2h-1.8L455.4,327.2z"/>
	<path class="st1" d="M461.3,338c0.8,0.1,1.6-0.4,1.8-1.2l0.8-1.8l-4.9-11.8h2l3.9,9.5l3.9-9.5h2l-5.9,14.1
		c-0.4,1.4-1.9,2.4-3.4,2.3c-0.4,0-0.9-0.1-1.3-0.2l0.3-1.7C460.7,338,461,338,461.3,338"/>
	<path class="st1" d="M121.7,160.5h84.8h1.9c3.3,0.1,6.4,3,6.5,6.5v1.3v162.4c0,1,0,1.9-0.2,2.9c-0.9,3-3.5,4.9-5.9,5.1
		c-0.7,0-1.3,0.1-2.1,0.1h-86.4H36.5c-0.7,0-1.3,0-2.1-0.1c-2.8-0.2-6-2.8-6.1-6.8v-1.1V168.3c0-0.9,0-1.8,0.2-2.8
		c0.9-3.4,4.1-5.2,6.5-5.2h1.7C65.1,160.5,93.4,160.5,121.7,160.5 M118.2,309.1c0.2-0.1,0.3-0.2,0.4-0.3c3.1-2.9,6.2-5.9,9.3-8.8
		l0.1-0.1v-0.2c-2.9-3.3-6-6.7-8.9-10c0.3-0.3,0.4-0.7,0.8-0.9c0.9-1,1.8-2.1,2.8-3.1c1-0.9,1.2-2,1.2-3.3v-72.5v-0.8
		c0.1-0.8-0.2-1.3-0.8-2c-3.2-3.5-6.3-7.1-9.5-10.6c-0.2-0.2-0.3-0.6-0.4-0.7c-6.1-0.2-51.1-0.1-52.3,0.1c-3.2,3.5-6.4,7.2-9.6,10.8
		c-1.4,1.6-1.2,1-1.2,3v72.8v0.7c-0.1,0.8,0.1,1.3,0.7,1.9c0.9,1,1.8,2,2.7,3c2.6,2.8,5,5.7,7.5,8.4h1.7h42.8c1.7,0,1.3-0.2,2.4,1.1
		c3.2,3.5,6.3,7,9.5,10.5C117.5,308.4,117.8,308.7,118.2,309.1 M147.7,221.1c-0.2,0-0.4-0.1-0.6-0.1h-15.3c-0.2,0-0.4,0.1-0.8,0.1
		v1.7V245v38.8c0,0.9,0.2,1.6,0.9,2.2c3,3.2,6,6.4,9,9.6c0.3,0.4,0.8,0.8,1.1,1.1h1.2h40.2h0.7c0.4,0,0.8-0.1,1.1-0.4
		c0.2-0.2,0.3-0.4,0.6-0.6c3-3.1,5.9-6.3,8.9-9.4c0.3-0.3,0.7-0.8,1.1-1.2v-1.8V223v-1.2c0-0.2-0.1-0.6-0.1-0.8
		c-0.3,0-0.6-0.1-0.8-0.1h-15.4h-0.1c0,0-0.1,0-0.1,0.1c-0.2,0.6-0.1,1.1-0.1,1.8v53.6v1.3c0,0.2-0.1,0.6-0.1,0.9h-1.6h-19.7h-8.6
		c-0.4,0-0.8,0-1.3-0.1v-1.9v-53.7v-1.3C147.8,221.6,147.7,221.3,147.7,221.1"/>
	<path class="st2" d="M50.7,285c0.9,1,1.8,2,2.7,3c2.6,2.8,5,5.7,7.5,8.4h1.7h42.8c1.7,0,1.3-0.2,2.4,1.1c3.2,3.5,6.3,7,9.5,10.5
		c0.3,0.3,0.7,0.7,1,1.1c0.2-0.1,0.3-0.2,0.4-0.3c3.1-2.9,6.2-5.9,9.3-8.8l0.1-0.1v-0.2c-2.9-3.3-6-6.7-8.9-10
		c0.3-0.3,0.4-0.7,0.8-0.9c0.9-1,1.8-2.1,2.8-3.1c1-0.9,1.2-2,1.2-3.3v-72.5v-0.8c0.1-0.8-0.2-1.3-0.8-2c-3.2-3.5-6.3-7.1-9.5-10.6
		c-0.2-0.2-0.3-0.6-0.4-0.7c-6.2-0.2-51.2-0.1-52.4,0.1c-3.2,3.5-6.4,7.2-9.6,10.8c-1.4,1.6-1.2,1-1.2,3v72.8v0.7
		C49.9,283.9,50.1,284.5,50.7,285 M66.7,213.8c0.2,0,0.4-0.1,0.7-0.1h1h36.8h1.6c0.1,0.3,0.1,0.6,0.2,0.8v1v62.1
		c0,0.6,0.1,1.2-0.1,1.8c-0.2,0-0.3,0.1-0.4,0.1H67.3c-0.1,0-0.2-0.1-0.4-0.1c0-0.2-0.1-0.6-0.1-0.8v-1.1v-61.8
		C66.6,215,66.5,214.5,66.7,213.8"/>
</g>
</svg>
