<?xml version="1.0" encoding="utf-8"?>
<!-- Generator: Adobe Illustrator 26.0.0, SVG Export Plug-In . SVG Version: 6.00 Build 0)  -->
<svg version="1.1" id="Layer_1" xmlns="http://www.w3.org/2000/svg" xmlns:xlink="http://www.w3.org/1999/xlink" x="0px" y="0px"
	 viewBox="0 0 500 500" style="enable-background:new 0 0 500 500;" xml:space="preserve">
<style type="text/css">
	.st0{fill:#FF4500;}
	.st1{fill:#222222;}
	.st2{fill:#FFFFFF;}
</style>
<g id="Artwork" transform="translate(-56,-56)">
	<g id="g892">
		<g id="g884">
			<circle id="circle870" class="st0" cx="492.4" cy="281.2" r="10.1"/>
			<path id="path872" class="st1" d="M348.5,324.2c4.9,0,7.8-3.7,7.6-7.3c-0.1-1.9-0.3-3.1-0.5-4.1c-3-13.1-13.7-22.8-26.3-22.8
				c-15,0-27.2,13.6-27.2,30.3c0,16.7,12.2,30.3,27.2,30.3c9.4,0,16.2-3.4,21-8.8c2.4-2.7,1.9-6.7-1-8.7c-2.4-1.6-5.3-1-7.5,0.8
				c-2.1,1.8-6.1,5.4-12.5,5.4c-7.6,0-14.1-6.6-15.5-15.2h34.7V324.2z M329.2,301.4c6.8,0,12.7,5.3,14.9,12.6h-29.8
				C316.5,306.7,322.3,301.4,329.2,301.4z"/>
			<path id="path874" class="st1" d="M302.7,295.9c0-2.9-2.1-5.1-4.8-5.6c-8.3-1.2-16.1,1.8-20.5,7.4V297c0-3.5-2.9-5.7-5.7-5.7
				c-3.1,0-5.7,2.6-5.7,5.7v46.6c0,3,2.3,5.7,5.3,5.9c3.3,0.2,6.1-2.4,6.1-5.7v-24c0-10.6,8-19.4,19-18.2c0.4,0,0.8,0,1.1,0
				C300.4,301.3,302.7,298.9,302.7,295.9L302.7,295.9z"/>
			<path id="path876" class="st1" d="M498.1,302c0-3.1-2.6-5.7-5.7-5.7s-5.7,2.6-5.7,5.7c0,0.2,0,39.9,0,41.7c0,3.1,2.6,5.7,5.7,5.7
				s5.7-2.6,5.7-5.7C498.1,342,498.1,302.3,498.1,302z"/>
			<path id="path878" class="st1" d="M413.3,270.5c0-3.1-2.6-5.7-5.7-5.7l0,0c-3.1,0-5.7,2.6-5.7,5.7v25.4
				c-3.9-3.9-8.7-5.8-14.5-5.8c-15,0-27.2,13.6-27.2,30.3c0,16.7,12.2,30.3,27.2,30.3c5.8,0,10.7-2,14.6-5.9
				c0.5,2.7,2.9,4.7,5.6,4.7c3.1,0,5.7-2.6,5.7-5.7L413.3,270.5L413.3,270.5z M387.5,339.4c-8.7,0-15.8-8.5-15.8-19
				c0-10.5,7-19,15.8-19s15.8,8.5,15.8,19S396.1,339.4,387.5,339.4z"/>
			<path id="path880" class="st1" d="M472.8,270.5c0-3.1-2.6-5.7-5.7-5.7l0,0c-3.1,0-5.7,2.6-5.7,5.7v25.4
				c-3.9-3.9-8.7-5.8-14.5-5.8c-15,0-27.2,13.6-27.2,30.3s12.2,30.3,27.2,30.3c5.8,0,10.7-2,14.6-5.9c0.5,2.7,2.9,4.7,5.6,4.7
				c3.1,0,5.7-2.6,5.7-5.7V270.5z M446.9,339.4c-8.7,0-15.8-8.5-15.8-19c0-10.5,7-19,15.8-19s15.8,8.5,15.8,19
				S455.6,339.4,446.9,339.4z"/>
			<path id="path882" class="st1" d="M527,343.8v-42.4h5c2.7,0,5-2,5.2-4.8c0.2-2.9-2.2-5.4-5-5.4H527v-8c0-3-2.3-5.7-5.3-5.9
				c-3.3-0.2-6.1,2.4-6.1,5.7v8.3h-4.8c-2.7,0-5,2-5.2,4.8c-0.2,2.9,2.2,5.4,5,5.4h4.8v42.4c0,3.1,2.6,5.7,5.7,5.7l0,0
				C524.5,349.4,527,347,527,343.8L527,343.8z"/>
		</g>
		<g id="g890">
			<circle id="circle886" class="st0" cx="154.4" cy="306" r="79.7"/>
			<path id="path888" class="st2" d="M207.5,306c0-6.5-5.2-11.6-11.6-11.6c-3.1,0-6,1.2-8.1,3.2c-8-5.7-18.9-9.4-31.1-9.9l5.3-24.9
				l17.3,3.7c0.2,4.4,3.8,7.9,8.3,7.9c4.6,0,8.3-3.7,8.3-8.3s-3.7-8.3-8.3-8.3c-3.2,0-6.1,1.9-7.4,4.7l-19.3-4.1
				c-0.6-0.1-1.1,0-1.5,0.3c-0.5,0.3-0.8,0.8-0.9,1.3l-5.9,27.8c-12.4,0.4-23.5,4.1-31.6,9.9c-2.1-2-4.9-3.2-8.1-3.2
				c-6.5,0-11.6,5.2-11.6,11.6c0,4.8,2.9,8.7,6.8,10.6c-0.2,1.1-0.3,2.3-0.3,3.5c0,17.9,20.8,32.4,46.5,32.4s46.5-14.4,46.5-32.4
				c0-1.1-0.1-2.4-0.3-3.5C204.7,314.8,207.5,310.8,207.5,306L207.5,306z M127.9,314.3c0-4.6,3.7-8.3,8.3-8.3s8.3,3.7,8.3,8.3
				s-3.7,8.3-8.3,8.3C131.6,322.6,127.9,318.8,127.9,314.3z M174.2,336.2c-5.7,5.7-16.5,6.1-19.7,6.1c-3.2,0-14.1-0.5-19.7-6.1
				c-0.9-0.9-0.9-2.2,0-3c0.9-0.9,2.2-0.9,3,0c3.6,3.6,11.2,4.8,16.6,4.8c5.4,0,13.1-1.2,16.6-4.8c0.9-0.9,2.2-0.9,3,0
				C174.9,334,174.9,335.4,174.2,336.2z M172.6,322.6c-4.6,0-8.3-3.7-8.3-8.3s3.7-8.3,8.3-8.3s8.3,3.7,8.3,8.3
				C180.9,318.8,177.2,322.6,172.6,322.6z"/>
		</g>
	</g>
</g>
</svg>
