<?xml version="1.0" encoding="utf-8"?>
<!-- Generator: Adobe Illustrator 26.0.0, SVG Export Plug-In . SVG Version: 6.00 Build 0)  -->
<svg version="1.1" id="Layer_1" xmlns="http://www.w3.org/2000/svg" xmlns:xlink="http://www.w3.org/1999/xlink" x="0px" y="0px"
	 viewBox="0 0 500 500" style="enable-background:new 0 0 500 500;" xml:space="preserve">
<style type="text/css">
	.st0{fill:#636466;}
	.st1{fill:#A41E11;}
	.st2{fill:#D82C20;}
	.st3{fill:#FFFFFF;}
	.st4{fill:#7A0C00;}
	.st5{fill:#AD2115;}
</style>
<g transform="translate(-166.32586,-222.11295)">
	<path class="st0" d="M436.2,446.6c0,3.3-2.7,6.3-6.3,6.3c-2.7,0-5.1,0.7-7.1,2.3c-2.3,1.4-4,3.4-5.5,5.7c-2.8,3.8-4.3,8.3-4.9,10
		v22.6c0,3.4-3,6.3-6.5,6.3c-3.4,0-6.3-2.8-6.3-6.3v-46.8c0-3.4,2.8-6.2,6.3-6.2c3.6,0,6.5,2.7,6.5,6.2v0.8c0.7-0.8,1.7-1.8,2.5-2.4
		c3.9-2.6,9-4.7,15-4.6C433.5,440.5,436.2,443.2,436.2,446.6L436.2,446.6z"/>
	<path class="st0" d="M432.7,470c0.1-16.1,12.7-29.7,29-29.7c15.4,0,27.7,11.5,28.6,27.5v0.6c0,0.2,0,0.8-0.1,1.1
		c-0.4,2.8-2.8,4.7-6.2,4.7h-37.7c0.6,2.7,1.9,5.8,4,7.8c2.5,2.8,7.2,5,11.4,5.3c4.3,0.4,9.4-0.7,12.3-3c2.5-2.6,7.4-2.3,8.9-0.4
		c1.5,1.7,2.7,5.2,0,7.7c-5.8,5.3-12.8,7.8-21.2,7.8C445.4,499.6,432.8,486.2,432.7,470L432.7,470z M445.7,464.2h33.6
		c-1.2-4.7-7.2-11.8-17.6-12.6C451.6,452.1,446.6,459.3,445.7,464.2z"/>
	<path class="st0" d="M550.8,493.3c0,3.4-2.8,6.4-6.4,6.4c-3.2,0-5.7-2.3-6.3-5.1c-4.5,3.1-10.2,5.1-16.1,5.1
		c-16,0-28.8-13.5-28.8-29.6c0-16.3,12.8-29.8,28.8-29.8c5.8,0,11.5,1.9,15.9,5V423c0-3.4,2.8-6.4,6.5-6.4c3.6,0,6.4,3,6.4,6.4v47
		v0.1L550.8,493.3L550.8,493.3z M521.9,453.3c-4.3,0-8.2,1.8-11.2,4.9c-3,3-4.7,7.2-4.7,12c0,4.5,1.8,8.8,4.7,11.8
		c3,3.1,6.9,4.9,11.2,4.9c4.4,0,8.2-1.8,11.2-4.9c3-3,4.7-7.2,4.7-11.8c0-4.7-1.8-9-4.7-12C530.1,455.1,526.3,453.3,521.9,453.3z"/>
	<path class="st0" d="M573.4,425.5c0,3.6-2.7,6.5-6.4,6.5c-3.6,0-6.4-3-6.4-6.5V423c0-3.6,2.8-6.4,6.4-6.4c3.7,0,6.4,2.8,6.4,6.4
		V425.5L573.4,425.5z M573.4,447v46.3c0,3.6-2.7,6.4-6.4,6.4c-3.6,0-6.4-2.8-6.4-6.4V447c0-3.8,2.8-6.5,6.4-6.5
		C570.6,440.5,573.4,443.2,573.4,447z"/>
	<path class="st0" d="M581.5,482.7c2.1-2.8,6.3-3.2,8.9-0.9c3.1,2.6,8.4,5.3,13.1,5.2c3.2,0,6.2-1.1,8.1-2.3
		c1.7-1.4,2.1-2.6,2.1-3.6c0-0.6-0.1-0.8-0.4-1.2c-0.1-0.4-0.6-0.8-1.5-1.4c-1.7-1.2-5.2-2.5-9.5-3.3h-0.1
		c-3.7-0.7-7.2-1.7-10.3-3.1c-3.2-1.5-6.1-3.7-8.2-6.9c-1.3-2.1-2-4.7-2-7.5c0-5.5,3.1-10.1,7-13.1c4.2-2.8,9.1-4.4,14.6-4.4
		c8.2,0,14,3.9,17.8,6.5c2.8,1.9,3.7,5.8,1.9,8.8c-1.9,2.8-5.8,3.7-8.8,1.7c-3.8-2.5-7.1-4.4-10.9-4.4c-3,0-5.6,0.9-7.1,2.1
		c-1.5,1.1-1.9,2.1-1.9,2.7c0,0.5,0,0.6,0.2,0.9c0.1,0.2,0.5,0.7,1.3,1.2c1.5,1.1,4.6,2.1,8.7,2.8l0.1,0.1h0.1
		c3.9,0.7,7.6,1.8,11,3.4c3.2,1.4,6.4,3.7,8.4,7c1.4,2.4,2.3,5.1,2.3,7.8c0,5.8-3.2,10.7-7.5,13.8c-4.3,3-9.6,4.7-15.4,4.7
		c-9.3-0.1-16.4-4.4-21.1-8.2C579.7,489.4,579.4,485.3,581.5,482.7L581.5,482.7z"/>
	<path class="st1" d="M356.4,508.4c-8.3,4.3-51.5,22.1-60.7,26.9c-9.2,4.8-14.3,4.7-21.6,1.3c-7.3-3.5-53.2-22-61.5-26
		c-4.1-2-6.3-3.6-6.3-5.2v-15.8c0,0,59.8-13,69.5-16.5c9.7-3.5,13-3.6,21.2-0.6c8.2,3,57.4,11.9,65.5,14.9c0,0,0,14.1,0,15.6
		C362.5,504.5,360.7,506.2,356.4,508.4L356.4,508.4z"/>
	<path class="st2" d="M356.4,492.6c-8.3,4.3-51.5,22.1-60.7,26.9c-9.2,4.8-14.3,4.7-21.6,1.3c-7.3-3.5-53.2-22-61.5-26
		c-8.3-4-8.5-6.7-0.3-9.9c8.1-3.2,53.9-21.1,63.5-24.6c9.7-3.5,13-3.6,21.2-0.6c8.2,3,51.2,20.1,59.3,23.1
		C364.4,485.8,364.7,488.3,356.4,492.6L356.4,492.6z"/>
	<path class="st1" d="M356.4,482.7c-8.3,4.3-51.5,22.1-60.7,26.9c-9.2,4.8-14.3,4.7-21.6,1.3c-7.3-3.5-53.2-22-61.5-26
		c-4.1-2-6.3-3.6-6.3-5.2v-15.8c0,0,59.8-13,69.5-16.5c9.7-3.5,13-3.6,21.2-0.6c8.2,3,57.4,11.9,65.5,14.9c0,0,0,14.1,0,15.6
		C362.5,478.7,360.7,480.5,356.4,482.7z"/>
	<path class="st2" d="M356.4,466.9c-8.3,4.3-51.5,22.1-60.7,26.9c-9.2,4.8-14.3,4.7-21.6,1.3c-7.3-3.5-53.2-22-61.5-26
		c-8.3-4-8.5-6.7-0.3-9.9c8.1-3.2,53.9-21.1,63.5-24.6c9.7-3.5,13-3.6,21.2-0.6c8.2,3,51.2,20.1,59.3,23.1
		C364.4,460.1,364.7,462.5,356.4,466.9L356.4,466.9z"/>
	<path class="st1" d="M356.4,456c-8.3,4.3-51.5,22.1-60.7,26.9c-9.2,4.8-14.3,4.7-21.6,1.3c-7.3-3.5-53.2-22-61.5-26
		c-4.1-2-6.3-3.6-6.3-5.2v-15.8c0,0,59.8-13,69.5-16.5c9.7-3.5,13-3.6,21.2-0.6c8.2,3,57.4,11.9,65.5,14.9c0,0,0,14.1,0,15.6
		C362.5,452,360.7,453.7,356.4,456L356.4,456z"/>
	<path class="st2" d="M356.4,440.2c-8.3,4.3-51.5,22.1-60.7,26.9c-9.2,4.8-14.3,4.7-21.6,1.3c-7.3-3.5-53.2-22-61.5-26
		c-8.3-4-8.5-6.7-0.3-9.9c8.1-3.2,53.9-21.1,63.5-24.6c9.7-3.5,13-3.6,21.2-0.6c8.2,3,51.2,20.1,59.3,23.1
		C364.4,433.4,364.7,435.8,356.4,440.2L356.4,440.2z"/>
	<polygon class="st3" points="304.9,424.9 291.3,426.3 288.3,433.6 283.4,425.5 267.8,424.1 279.4,419.9 275.9,413.4 286.9,417.7 
		297.2,414.3 294.4,421 	"/>
	<polygon class="st3" points="287.5,460.3 262.2,449.8 298.4,444.3 	"/>
	<ellipse class="st3" cx="252.5" cy="436.5" rx="19.4" ry="7.5"/>
	<polygon class="st4" points="320.9,426.9 342.3,435.4 320.9,443.9 	"/>
	<polygon class="st5" points="297.2,436.3 320.9,426.9 320.9,443.9 318.6,444.8 	"/>
</g>
</svg>
