<?xml version="1.0" encoding="utf-8"?>
<!-- Generator: Adobe Illustrator 26.0.0, SVG Export Plug-In . SVG Version: 6.00 Build 0)  -->
<svg version="1.1" id="Layer_1" xmlns="http://www.w3.org/2000/svg" xmlns:xlink="http://www.w3.org/1999/xlink" x="0px" y="0px"
	 viewBox="0 0 500 500" style="enable-background:new 0 0 500 500;" xml:space="preserve">
<style type="text/css">
	.st0{fill:#04436A;}
	.st1{fill:#C1272D;}
	.st2{fill:#FFFFFF;}
	.st3{fill:#CCCCCC;}
</style>
<g>
	<g>
		<path class="st0" d="M175.2,248.4c0,4.3-1.6,7.1-4.7,8.5l4.4,16.8c0.2,0.8-0.2,1.2-0.9,1.2h-6.7c-0.6,0-1-0.3-1.1-0.9l-4.3-16.3
			h-4.4v16.2c0,0.6-0.4,1-1,1h-6.7c-0.6,0-1-0.4-1-1v-49.3c0-0.6,0.4-1,1-1H166c6,0,9.2,3.2,9.2,9.2L175.2,248.4L175.2,248.4z
			 M163.9,249.1c1.7,0,2.6-0.9,2.6-2.6v-12.1c0-1.7-0.9-2.6-2.6-2.6h-6.3v17.2L163.9,249.1L163.9,249.1z"/>
		<path class="st0" d="M180.3,232.7c0-6,3.2-9.2,9.2-9.2h7.2c6,0,9.2,3.2,9.2,9.2v32.8c0,6-3.2,9.2-9.2,9.2h-7.2
			c-6,0-9.2-3.2-9.2-9.2V232.7z M195.1,266.5c1.7,0,2.6-0.8,2.6-2.6v-29.6c0-1.7-0.9-2.6-2.6-2.6h-3.7c-1.7,0-2.6,0.9-2.6,2.6v29.6
			c0,1.7,0.9,2.6,2.6,2.6H195.1L195.1,266.5z"/>
		<path class="st0" d="M238.1,239.6c0,0.6-0.4,1-1,1h-6.4c-0.7,0-1-0.4-1-1v-5.1c0-1.7-0.9-2.6-2.6-2.6h-3.3c-1.7,0-2.6,0.9-2.6,2.6
			v29.2c0,1.7,0.9,2.6,2.6,2.6h3.3c1.7,0,2.6-0.8,2.6-2.6v-5.1c0-0.6,0.3-1,1-1h6.4c0.6,0,1,0.4,1,1v6.9c0,6-3.3,9.2-9.2,9.2h-7.2
			c-6,0-9.3-3.2-9.3-9.2v-32.8c0-6,3.3-9.2,9.3-9.2h7.2c6,0,9.2,3.2,9.2,9.2V239.6z"/>
		<path class="st0" d="M265.2,274.8c-0.8,0-1.2-0.3-1.5-1l-8.1-19l-2.4,4.6v14.2c0,0.8-0.4,1.3-1.3,1.3h-6.2c-0.8,0-1.3-0.4-1.3-1.3
			v-48.7c0-0.8,0.4-1.3,1.3-1.3h6.2c0.8,0,1.3,0.4,1.3,1.3v19.9l9.9-20.2c0.3-0.6,0.8-1,1.5-1h6.7c1,0,1.3,0.6,0.9,1.5l-10.9,22.4
			l11.6,25.9c0.4,0.8,0.1,1.5-1,1.5H265.2z"/>
		<path class="st0" d="M303.2,230.9c0,0.6-0.3,1.1-1,1.1h-16v12.8h12.2c0.6,0,1,0.4,1,1.1v6.3c0,0.7-0.4,1.1-1,1.1h-12.2v13h16
			c0.8,0,1,0.3,1,1v6.4c0,0.6-0.3,1-1,1h-23.6c-0.6,0-1-0.4-1-1v-49.3c0-0.6,0.4-1,1-1h23.6c0.8,0,1,0.4,1,1V230.9z"/>
		<path class="st0" d="M332.9,223.5c0.7,0,1,0.4,1,1v6.4c0,0.6-0.3,1-1,1h-7.4v41.8c0,0.7-0.3,1-1,1h-6.7c-0.6,0-1-0.3-1-1v-41.8
			h-7.4c-0.6,0-1-0.4-1-1v-6.4c0-0.6,0.4-1,1-1H332.9z"/>
		<path class="st0" d="M333.3,267.6c0-0.8,0.4-1.3,1.3-1.3h5.8c0.8,0,1.3,0.4,1.3,1.3v5.9c0,0.8-0.4,1.3-1.3,1.3h-5.8
			c-0.8,0-1.3-0.4-1.3-1.3V267.6z"/>
		<path class="st0" d="M373.9,239.6c0,0.6-0.4,1-1,1h-6.4c-0.7,0-1-0.4-1-1v-5.1c0-1.7-0.9-2.6-2.6-2.6h-3.3c-1.7,0-2.6,0.9-2.6,2.6
			v29.2c0,1.7,0.9,2.6,2.6,2.6h3.3c1.7,0,2.6-0.8,2.6-2.6v-5.1c0-0.6,0.3-1,1-1h6.4c0.6,0,1,0.4,1,1v6.9c0,6-3.3,9.2-9.2,9.2h-7.2
			c-6,0-9.3-3.2-9.3-9.2v-32.8c0-6,3.3-9.2,9.3-9.2h7.2c6,0,9.2,3.2,9.2,9.2V239.6z"/>
		<path class="st0" d="M397.2,224.5c0-0.6,0.4-1,1-1h6.6c0.8,0,1.1,0.4,1.1,1v49.3c0,0.6-0.3,1-1.1,1h-6.6c-0.6,0-1-0.4-1-1v-20.4
			H389v20.4c0,0.6-0.4,1-1,1h-6.6c-0.8,0-1.1-0.4-1.1-1v-49.3c0-0.6,0.3-1,1.1-1h6.6c0.6,0,1,0.4,1,1v20.4h8.2L397.2,224.5
			L397.2,224.5z"/>
		<path class="st0" d="M435.2,274.8c-0.6,0-0.9-0.3-1-0.9l-1.8-9.4h-11.4l-1.7,9.4c-0.1,0.6-0.4,0.9-1,0.9h-6.9
			c-0.7,0-1-0.4-0.8-1.1l10.6-49.3c0.1-0.6,0.5-0.9,1.1-0.9h8.9c0.6,0,1,0.3,1.1,0.9l10.6,49.3c0.1,0.7-0.1,1.1-0.9,1.1H435.2z
			 M426.6,234.7l-4.1,22.4h8.2L426.6,234.7z"/>
		<path class="st0" d="M466.8,223.5c0.7,0,1,0.4,1,1v6.4c0,0.6-0.3,1-1,1h-7.4v41.8c0,0.7-0.3,1-1,1h-6.7c-0.6,0-1-0.3-1-1v-41.8
			h-7.4c-0.6,0-1-0.4-1-1v-6.4c0-0.6,0.4-1,1-1H466.8z"/>
	</g>
	<path class="st1" d="M132.3,249.9c0-5-1.5-9.9-4.5-14.3c-2.7-4-6.4-7.6-11.1-10.6c-9.1-5.8-21-9-33.6-9c-4.2,0-8.3,0.4-12.4,1.1
		c-2.5-2.3-5.4-4.4-8.5-6.1c-16.5-8-30.2-0.2-30.2-0.2s12.7,10.4,10.6,19.6c-5.7,5.6-8.8,12.5-8.8,19.5c0,0,0,0,0,0.1c0,0,0,0,0,0.1
		c0,7.1,3.1,13.9,8.8,19.5c2.1,9.2-10.6,19.6-10.6,19.6s13.7,7.8,30.2-0.2c3.1-1.7,6-3.8,8.5-6.1c4,0.7,8.2,1.1,12.4,1.1
		c12.6,0,24.5-3.2,33.6-9c4.7-3,8.4-6.6,11.1-10.6c3-4.5,4.5-9.3,4.5-14.3C132.3,250,132.3,250,132.3,249.9
		C132.3,250,132.3,250,132.3,249.9z"/>
	<path class="st2" d="M83.2,223.1c23.3,0,42.2,12.1,42.2,26.9c0,14.9-18.9,26.9-42.2,26.9c-5.2,0-10.2-0.6-14.7-1.7
		c-4.7,5.6-14.9,13.4-24.9,10.9c3.2-3.5,8-9.4,7-19.1c-6-4.6-9.6-10.6-9.6-17.1C41,235.2,59.9,223.1,83.2,223.1"/>
	<g>
		<g>
			<circle class="st1" cx="83.2" cy="250.9" r="5.6"/>
		</g>
		<g>
			<circle class="st1" cx="102.7" cy="250.9" r="5.6"/>
		</g>
		<g>
			<circle class="st1" cx="63.7" cy="250.9" r="5.6"/>
		</g>
	</g>
	<g>
		<path class="st3" d="M83.2,273.5c-5.2,0-10.2-0.5-14.7-1.5c-4.1,4.3-12.6,10.1-21.4,9.9c-1.2,1.8-2.4,3.2-3.5,4.4
			c10,2.5,20.2-5.3,24.9-10.9c4.6,1.1,9.6,1.7,14.7,1.7c23.1,0,41.9-11.9,42.2-26.6C125,263.2,106.3,273.5,83.2,273.5z"/>
	</g>
</g>
</svg>
