<?xml version="1.0" encoding="utf-8"?>
<!-- Generator: Adobe Illustrator 26.0.0, SVG Export Plug-In . SVG Version: 6.00 Build 0)  -->
<svg version="1.1" id="Layer_1" xmlns="http://www.w3.org/2000/svg" xmlns:xlink="http://www.w3.org/1999/xlink" x="0px" y="0px"
	 viewBox="0 0 500 500" style="enable-background:new 0 0 500 500;" xml:space="preserve">
<style type="text/css">
	.st0{fill:#660099;}
	.st1{fill:#63C0DD;}
</style>
<g id="Rockset-logo_00000044173592671928381510000006457050051942396072_">
	<g id="RsLogo_x5F__x5B_Rockset_x5D_-Color-Copy_00000076587262469797960570000000889889144802263464_">
		<path id="Path_00000141421728472084564040000009062464114767284124_" class="st0" d="M103.4,239.1c0-11.4-7.8-19.7-20.6-19.7H54.2
			v61.2h13v-21.9h9.5l12,21.9h15L90,257.3C96.6,255.7,103.4,249.9,103.4,239.1z"/>
		<path id="Shape_00000034063169499007438160000008137381850301681837_" class="st0" d="M140,218.3c-18.5,0-31.9,13.2-31.9,31.7
			s13.5,31.7,31.9,31.7c18.6,0,32-13.2,32-31.7S158.6,218.3,140,218.3z M140,270.1c-11.3,0-18.5-8.7-18.5-20.1
			c0-11.5,7.2-20.1,18.5-20.1c11.3,0,18.6,8.6,18.6,20.1C158.6,261.4,151.3,270.1,140,270.1z"/>
		<path id="Path_00000000915242944417855600000015807569938714477967_" class="st0" d="M209,229.9c6.2,0,12,3.4,14.9,8.9l11.2-5.5
			c-4.3-7.6-12.1-15-26.1-15c-17.9,0-32.1,12.9-32.1,31.7s14.2,31.7,32.1,31.7c13.9,0,21.7-7.4,26.1-15.1l-11.2-5.4
			c-2.9,5.5-8.6,9-14.9,8.9c-10.7,0-18.7-8.5-18.7-20.1C190.3,238.4,198.3,229.9,209,229.9z"/>
		<polygon id="Path_00000162334333241264437610000009844823647303675058_" class="st0" points="292.3,219.3 276.3,219.3 
			254.6,246.7 254.6,219.3 241.6,219.3 241.6,280.6 254.6,280.6 254.6,261.8 259.4,256.1 277.9,280.6 294,280.6 268,248.1 		"/>
		<path id="Path_00000155127131740893933580000018304321090343970730_" class="st0" d="M321.2,243.1c-7.1-1.7-12.2-2.9-12.2-7.1
			c0-3.7,3.1-6.2,9-6.2c6.5,0,12.7,2.4,17.5,6.7l7.3-9.6c-6.1-5.6-14.1-8.5-23.9-8.5c-14.4,0-23.2,8.3-23.2,18.5
			c0,13.7,12.9,16.4,22.9,18.7c7.1,1.7,12.4,3.2,12.4,7.8c0,3.5-3.5,6.9-10.6,6.9c-7.3,0-14.4-2.9-19.5-8.2l-7.1,9.9
			c5.8,5.8,14.2,9.7,26,9.7c16.5,0,24.5-8.4,24.5-19.6C344.2,248.4,331.3,245.4,321.2,243.1z"/>
		<polygon id="Path_00000043450033571421791920000011098841516048966846_" class="st0" points="352,280.6 395.4,280.6 395.4,269.3 
			365.1,269.3 365.1,255 394.7,255 394.7,243.8 365.1,243.8 365.1,230.5 395.4,230.5 395.4,219.3 352,219.3 		"/>
		<polygon id="Path_00000048489547244504952540000003256407377652185502_" class="st0" points="400.2,219.3 400.2,230.8 
			418.1,230.8 418.1,280.6 431.2,280.6 431.2,230.8 449,230.8 449,219.3 		"/>
		<polygon id="Path_00000030474481294848436970000003906262886885719208_" class="st1" points="60.6,199.9 60.6,187.3 22.6,187.3 
			22.6,193.6 22.6,199.9 22.6,300.1 22.6,306.4 22.6,312.7 60.6,312.7 60.6,300.1 35.2,300.1 35.2,199.9 		"/>
		<polygon id="Path_00000054264944084268747330000012668659996916498059_" class="st1" points="439.4,199.9 439.4,187.3 
			477.4,187.3 477.4,193.6 477.4,199.9 477.4,300.1 477.4,306.4 477.4,312.7 439.4,312.7 439.4,300.1 464.8,300.1 464.8,199.9 		"/>
	</g>
</g>
</svg>
