<?xml version="1.0" encoding="utf-8"?>
<!-- Generator: Adobe Illustrator 26.0.0, SVG Export Plug-In . SVG Version: 6.00 Build 0)  -->
<svg version="1.1" id="Layer_1" xmlns="http://www.w3.org/2000/svg" xmlns:xlink="http://www.w3.org/1999/xlink" x="0px" y="0px"
	 viewBox="0 0 500 500" style="enable-background:new 0 0 500 500;" xml:space="preserve">
<style type="text/css">
	.st0{fill:#01579B;}
	.st1{fill:#4FC3F7;}
</style>
<g>
	<polygon class="st0" points="207.1,247.5 207.1,288.2 207.2,288.2 221.8,288.2 221.9,288.2 221.9,247.5 	"/>
	<polygon class="st0" points="460.6,213.2 464.3,213.2 464.3,223.2 466,223.2 466,213.2 469.7,213.2 469.7,211.8 460.6,211.8 	"/>
	<path class="st0" d="M481.3,211.7c-0.3,0-0.5,0.1-0.6,0.4l-4,6.2l-4-6.2c-0.1-0.3-0.4-0.4-0.6-0.4c-0.5,0-0.8,0.4-0.8,0.8v10.7h1.5
		v-8.4l3.3,5.2c0.1,0.1,0.3,0.4,0.6,0.4c0.3,0,0.5-0.1,0.6-0.4l3.2-5.2v8.4h1.5v-10.7C482.1,212.1,481.8,211.7,481.3,211.7z"/>
	<path class="st0" d="M182.6,235.7c0-13.1-10.1-23.8-24.6-23.8h-33.9c-4,0-7.4,3.3-7.4,7.4v69h14.7v-28.8h21l17,28.8H186l-18.2-30.9
		C176.7,253.8,182.6,245.3,182.6,235.7z M155.2,246.7h-23.8v-22.3h23.8c6.6,0,12.5,3.8,12.5,11C167.7,242.8,161.8,246.7,155.2,246.7
		z"/>
	<path class="st0" d="M344.8,255.4h30.2c3.6,0,6.4-2.8,6.4-6.2c0-3.4-2.8-6.2-6.4-6.2h-30.2v-18.5H385v-12.6h-47.4
		c-4,0-7.4,3.3-7.4,7.4v61.7c0,4,3.3,7.4,7.4,7.4h47.6v-12.6h-40.3L344.8,255.4L344.8,255.4z"/>
	<path class="st0" d="M459.2,235.7c0-13.1-10.1-23.8-24.6-23.8h-33.9c-4,0-7.4,3.3-7.4,7.4v69H408v-28.8h21l17,28.8h16.7l-18.2-30.9
		C453.4,253.8,459.2,245.3,459.2,235.7z M431.8,246.7H408v-22.3h23.8c6.6,0,12.5,3.8,12.5,11C444.3,242.8,438.4,246.7,431.8,246.7z"
		/>
	<path class="st0" d="M289.1,265.2l-21.6-53.4H253l29.8,72.2c1,2.7,3.4,4.1,6.2,4.1s5.2-1.5,6.2-4.1l29.8-72.2h-14.4L289.1,265.2z"
		/>
	<g>
		<path class="st1" d="M81.5,224.9c0,9.9-25.5,20.8-26.1,35.2c-0.6,12.5,9.9,21.8,31.4,28.1h0.6c3.8,0,6.9-3.1,6.9-6.9v-62.6
			c0-3.8-3.1-6.9-6.9-6.9H59C65.6,213.1,81.5,216.9,81.5,224.9z"/>
		<path class="st1" d="M27.1,260.5c4.7-14.5,20.8-21.2,31.4-26.1c10.3-4.8,29.1-12.5-3.8-22.6h-30c-3.8,0-6.9,3.1-6.9,6.9v62.6
			c0,3.8,3.1,6.9,6.9,6.9h9.7C29.8,283.9,22.5,274.6,27.1,260.5z"/>
		<path class="st0" d="M55.3,260.1c0.6-14.4,26.1-25.3,26.1-35.2c0-8-15.8-11.9-22.4-13.1h-4.3c32.9,10.1,14.2,17.7,3.7,22.6
			c-10.5,5-26.7,11.6-31.4,26.1c-4.5,14,2.8,23.5,7.4,27.7h52.3C65.1,281.9,54.7,272.6,55.3,260.1z"/>
	</g>
	<g>
		<g>
			<path class="st0" d="M218.1,243.3l-23-31.5H195h-15h-0.1l28.2,40.8C209.3,247.9,213.1,244.2,218.1,243.3z"/>
		</g>
		<g>
			<path class="st0" d="M211,243.3l23-31.5h0.1h15h0.1l-28.2,40.8C219.8,247.9,215.9,244.2,211,243.3z"/>
		</g>
	</g>
	<circle class="st0" cx="214.5" cy="246.7" r="8.8"/>
</g>
</svg>
