<?xml version="1.0" encoding="utf-8"?>
<!-- Generator: Adobe Illustrator 26.0.0, SVG Export Plug-In . SVG Version: 6.00 Build 0)  -->
<svg version="1.1" id="Layer_1" xmlns="http://www.w3.org/2000/svg" xmlns:xlink="http://www.w3.org/1999/xlink" x="0px" y="0px"
	 viewBox="0 0 500 500" style="enable-background:new 0 0 500 500;" xml:space="preserve">
<style type="text/css">
	.st0{filter:url(#Adobe_OpacityMaskFilter);}
	.st1{fill-rule:evenodd;clip-rule:evenodd;fill:#FFFFFF;}
	.st2{mask:url(#b_00000042719236191799227660000009240996478248724892_);fill-rule:evenodd;clip-rule:evenodd;fill:#00A1E0;}
	.st3{fill-rule:evenodd;clip-rule:evenodd;fill:#FFFFFE;}
</style>
<g>
	<defs>
		<filter id="Adobe_OpacityMaskFilter" filterUnits="userSpaceOnUse" x="63.7" y="119.5" width="372.7" height="260.9">
			<feColorMatrix  type="matrix" values="1 0 0 0 0  0 1 0 0 0  0 0 1 0 0  0 0 0 1 0"/>
		</filter>
	</defs>
	
		<mask maskUnits="userSpaceOnUse" x="63.7" y="119.5" width="372.7" height="260.9" id="b_00000042719236191799227660000009240996478248724892_">
		<g class="st0">
			<path id="a_00000145768587258865173070000005160231541106826658_" class="st1" d="M64.1,119.5h372.5v260.2H64.1V119.5z"/>
		</g>
	</mask>
	<path class="st2" d="M218.7,148c12-12.5,28.8-20.3,47.2-20.3c24.6,0,46,13.7,57.5,34.1c10.2-4.6,21.3-6.9,32.5-6.9
		c44.4,0,80.4,36.3,80.4,81.1s-36,81.1-80.4,81.1c-5.4,0-10.7-0.5-15.9-1.6c-10.1,17.9-29.3,30.1-51.2,30.1c-8.9,0-17.7-2-25.7-5.9
		c-10.2,24-34,40.8-61.6,40.8c-28.9,0-53.4-18.2-62.9-43.8c-4.2,0.9-8.5,1.3-12.8,1.3c-34.4,0-62.2-28.2-62.2-62.9
		c0-23.3,12.5-43.5,31.1-54.5c-3.9-9.1-6-18.9-6-28.8c0-40,32.5-72.3,72.4-72.3C184.7,119.5,205.6,130.7,218.7,148"/>
	<path class="st3" d="M118,254.8c-0.2,0.6,0.1,0.7,0.2,0.8c0.7,0.5,1.4,0.9,2.1,1.3c3.8,2,7.4,2.6,11.1,2.6
		c7.6,0,12.4-4.1,12.4-10.6v-0.1c0-6.1-5.4-8.3-10.4-9.8l-0.7-0.2c-3.8-1.2-7.1-2.3-7.1-4.8v-0.1c0-2.1,1.9-3.7,4.9-3.7
		c3.3,0,7.2,1.1,9.7,2.5c0,0,0.7,0.5,1-0.2c0.1-0.4,1.4-3.8,1.6-4.2c0.1-0.4-0.1-0.7-0.4-0.9c-2.9-1.8-6.8-2.9-11-2.9l-0.8,0
		c-7,0-11.9,4.2-11.9,10.3v0.1c0,6.4,5.4,8.5,10.4,9.9l0.8,0.3c3.7,1.1,6.8,2.1,6.8,4.7v0.1c0,2.4-2.1,4.1-5.4,4.1
		c-1.3,0-5.4,0-9.8-2.8c-0.5-0.3-0.8-0.5-1.3-0.8c-0.2-0.1-0.8-0.4-1,0.3L118,254.8 M229.8,254.8c-0.2,0.6,0.1,0.7,0.2,0.8
		c0.7,0.5,1.4,0.9,2.1,1.3c3.8,2,7.4,2.6,11.1,2.6c7.6,0,12.4-4.1,12.4-10.6v-0.1c0-6.1-5.4-8.3-10.4-9.8l-0.7-0.2
		c-3.8-1.2-7.1-2.3-7.1-4.8v-0.1c0-2.1,1.9-3.7,4.9-3.7c3.3,0,7.2,1.1,9.7,2.5c0,0,0.7,0.5,1-0.2c0.1-0.4,1.4-3.8,1.5-4.2
		c0.1-0.4-0.1-0.7-0.4-0.9c-2.9-1.8-6.8-2.9-11-2.9l-0.8,0c-7,0-11.9,4.2-11.9,10.3v0.1c0,6.4,5.4,8.5,10.4,9.9l0.8,0.3
		c3.7,1.1,6.8,2.1,6.8,4.7v0.1c0,2.4-2.1,4.1-5.4,4.1c-1.3,0-5.4,0-9.8-2.8c-0.5-0.3-0.9-0.5-1.3-0.8c-0.1-0.1-0.8-0.3-1,0.3
		L229.8,254.8 M306.2,241.9c0,3.7-0.7,6.6-2,8.7c-1.3,2-3.4,3-6.2,3s-4.9-1-6.2-3c-1.3-2.1-2-5-2-8.7c0-3.7,0.7-6.6,2-8.6
		c1.3-2,3.3-3,6.2-3c2.8,0,4.9,1,6.2,3C305.5,235.3,306.2,238.2,306.2,241.9 M312.6,235.1c-0.6-2.1-1.6-4-2.9-5.5
		c-1.3-1.6-2.9-2.8-4.9-3.7c-1.9-0.9-4.2-1.4-6.8-1.4s-4.9,0.5-6.8,1.4c-1.9,0.9-3.6,2.2-4.9,3.7c-1.3,1.6-2.3,3.4-2.9,5.5
		c-0.6,2.1-0.9,4.4-0.9,6.9c0,2.5,0.3,4.8,0.9,6.9c0.6,2.1,1.6,4,2.9,5.5c1.3,1.6,3,2.8,4.9,3.7c2,0.9,4.3,1.3,6.8,1.3
		c2.6,0,4.9-0.5,6.8-1.3c1.9-0.9,3.6-2.1,4.9-3.7c1.3-1.6,2.3-3.4,2.9-5.5c0.6-2.1,0.9-4.4,0.9-6.9
		C313.5,239.5,313.2,237.2,312.6,235.1 M365,252.6c-0.2-0.6-0.8-0.4-0.8-0.4c-0.9,0.4-1.9,0.7-3,0.8c-1.1,0.2-2.2,0.3-3.5,0.3
		c-3.1,0-5.5-0.9-7.3-2.7c-1.8-1.8-2.8-4.8-2.7-8.7c0-3.6,0.9-6.3,2.5-8.4c1.5-2.1,3.9-3.1,7.1-3.1c2.6,0,4.6,0.3,6.8,1
		c0,0,0.5,0.2,0.7-0.4c0.6-1.5,1-2.7,1.6-4.4c0.2-0.5-0.2-0.7-0.4-0.8c-0.8-0.3-2.8-0.9-4.3-1.1c-1.4-0.2-3-0.3-4.8-0.3
		c-2.7,0-5.1,0.5-7.1,1.4c-2,0.9-3.8,2.2-5.1,3.7c-1.4,1.6-2.4,3.4-3.1,5.5c-0.7,2.1-1,4.4-1,6.9c0,5.3,1.4,9.6,4.2,12.7
		c2.8,3.1,7.1,4.7,12.6,4.7c3.3,0,6.6-0.7,9-1.6c0,0,0.5-0.2,0.3-0.8L365,252.6 M376.2,238.4c0.3-2.1,0.9-3.8,1.8-5.1
		c1.3-2,3.3-3.1,6.2-3.1c2.8,0,4.7,1.1,6.1,3.1c0.9,1.3,1.3,3.1,1.4,5.1H376.2L376.2,238.4z M397.7,233.9c-0.5-2-1.9-4.1-2.8-5.1
		c-1.4-1.5-2.8-2.5-4.1-3.1c-2-0.8-4.1-1.3-6.2-1.3c-2.7,0-5.1,0.5-7.1,1.4c-2,0.9-3.7,2.2-5,3.8c-1.3,1.6-2.3,3.5-2.9,5.6
		c-0.6,2.1-0.9,4.5-0.9,6.9c0,2.5,0.3,4.8,1,6.9c0.7,2.1,1.7,4,3.1,5.5c1.4,1.5,3.2,2.8,5.4,3.6c2.2,0.8,4.8,1.3,7.8,1.3
		c6.2,0,9.5-1.4,10.9-2.2c0.2-0.1,0.5-0.4,0.2-1l-1.4-4c-0.2-0.6-0.8-0.4-0.8-0.4c-1.5,0.6-3.7,1.6-8.9,1.6c-3.4,0-5.8-1-7.4-2.5
		c-1.6-1.6-2.4-3.9-2.5-7.2l21.6,0c0,0,0.6,0,0.6-0.6C398.4,242.9,399.1,238.7,397.7,233.9L397.7,233.9z M203.2,238.4
		c0.3-2.1,0.9-3.8,1.8-5.1c1.3-2,3.3-3.1,6.2-3.1s4.7,1.1,6.1,3.1c0.9,1.3,1.3,3.1,1.4,5.1H203.2L203.2,238.4z M224.7,233.9
		c-0.5-2-1.9-4.1-2.8-5.1c-1.4-1.5-2.8-2.5-4.1-3.1c-2-0.8-4.1-1.3-6.2-1.3c-2.7,0-5.1,0.5-7.1,1.4c-2,0.9-3.7,2.2-5,3.8
		c-1.3,1.6-2.3,3.5-2.9,5.6c-0.6,2.1-0.9,4.5-0.9,6.9c0,2.5,0.3,4.8,1,6.9c0.7,2.1,1.7,4,3.1,5.5c1.4,1.5,3.2,2.8,5.4,3.6
		c2.2,0.8,4.8,1.3,7.8,1.3c6.2,0,9.5-1.4,10.9-2.2c0.2-0.1,0.5-0.4,0.2-1l-1.4-4c-0.2-0.6-0.8-0.4-0.8-0.4c-1.5,0.6-3.7,1.6-8.9,1.6
		c-3.3,0-5.8-1-7.4-2.5c-1.6-1.6-2.4-3.9-2.5-7.2l21.6,0c0,0,0.6,0,0.6-0.6C225.4,242.9,226.1,238.7,224.7,233.9L224.7,233.9z
		 M156.6,252.5c-0.8-0.7-1-0.8-1.2-1.3c-0.4-0.7-0.6-1.6-0.6-2.8c0-1.9,0.6-3.3,1.9-4.2c0,0,1.9-1.6,6.3-1.6c2,0,3.9,0.2,5.9,0.5
		v9.8h0c0,0-2.7,0.6-5.8,0.8C158.5,254,156.5,252.5,156.6,252.5L156.6,252.5z M165.2,237.3c-0.9-0.1-2-0.1-3.4-0.1
		c-1.8,0-3.6,0.2-5.3,0.7c-1.7,0.5-3.2,1.2-4.5,2.1c-1.3,0.9-2.4,2.1-3.1,3.6c-0.8,1.4-1.2,3.1-1.2,5c0,1.9,0.3,3.6,1,4.9
		c0.6,1.3,1.6,2.5,2.8,3.4c1.2,0.9,2.7,1.5,4.4,1.9c1.7,0.4,3.6,0.6,5.7,0.6c2.2,0,4.4-0.2,6.6-0.5c1.8-0.3,3.6-0.7,5.4-1.1
		c0.7-0.2,1.5-0.4,1.5-0.4c0.5-0.1,0.5-0.7,0.5-0.7l0-19.7c0-4.3-1.2-7.5-3.4-9.5c-2.3-2-5.6-3-9.9-3c-1.6,0-4.2,0.2-5.8,0.5
		c0,0-4.7,0.9-6.7,2.4c0,0-0.4,0.3-0.2,0.9l1.5,4.1c0.2,0.5,0.7,0.4,0.7,0.4s0.2-0.1,0.4-0.2c4.1-2.3,9.4-2.2,9.4-2.2
		c2.3,0,4.1,0.5,5.3,1.4c1.2,0.9,1.8,2.3,1.8,5.1v0.9C166.9,237.5,165.2,237.3,165.2,237.3L165.2,237.3z M339.1,226.1
		c0.1-0.3,0-0.6-0.3-0.8c0,0,0,0,0,0c-0.4-0.1-2.2-0.5-3.6-0.6c-2.7-0.2-4.2,0.3-5.6,0.9c-1.3,0.6-2.8,1.6-3.6,2.7l0-2.6
		c0-0.4-0.3-0.7-0.6-0.7h-5.5c-0.4,0-0.6,0.3-0.6,0.7v32.2c0,0.4,0.3,0.7,0.7,0.7h5.7c0.4,0,0.7-0.3,0.7-0.7v-16.2
		c0-2.2,0.2-4.3,0.7-5.7c0.5-1.3,1.1-2.4,1.9-3.2c0.7-0.7,1.7-1.3,2.7-1.6c0.9-0.3,1.9-0.4,2.9-0.4c1.1,0,2.4,0.3,2.4,0.3
		c0.4,0,0.6-0.2,0.8-0.6C337.8,229.6,338.9,226.6,339.1,226.1"/>
	<path class="st3" d="M286.1,211.3c-0.7-0.2-1.4-0.4-2.1-0.5c-1-0.2-2-0.2-2.9-0.2c-3.9,0-7,1.1-9.1,3.3c-2.1,2.2-3.6,5.5-4.3,9.8
		l-0.3,1.5h-4.9c0,0-0.6,0-0.7,0.6l-0.8,4.5c-0.1,0.4,0.1,0.7,0.7,0.7h4.8l-4.8,27c-0.4,2.2-0.8,4-1.3,5.3c-0.5,1.3-0.9,2.3-1.5,3.1
		c-0.6,0.7-1.1,1.2-2,1.5c-0.7,0.3-1.6,0.4-2.5,0.4c-0.5,0-1.2-0.1-1.7-0.2c-0.5-0.1-0.8-0.2-1.2-0.4c0,0-0.6-0.2-0.8,0.3
		c-0.2,0.5-1.5,4-1.6,4.4c-0.2,0.4,0.1,0.8,0.3,0.9c0.6,0.2,1.1,0.4,2,0.6c1.2,0.3,2.2,0.3,3.2,0.3c2,0,3.8-0.3,5.3-0.8
		c1.5-0.5,2.8-1.5,4-2.8c1.3-1.4,2-2.8,2.8-4.8c0.7-2,1.4-4.4,1.9-7.3l4.9-27.5h7.1c0,0,0.6,0,0.7-0.6l0.8-4.5
		c0.1-0.4-0.1-0.7-0.7-0.7h-6.9c0-0.2,0.3-2.6,1.1-4.9c0.3-1,1-1.8,1.5-2.3c0.5-0.5,1.1-0.9,1.8-1.1c0.8-0.2,1.5-0.3,2.3-0.3
		c0.7,0,1.3,0.1,1.8,0.2c0.7,0.1,0.9,0.2,1.1,0.3c0.7,0.2,0.8,0,0.9-0.3l1.7-4.5C286.7,211.6,286.3,211.4,286.1,211.3 M189.6,258
		c0,0.4-0.3,0.7-0.6,0.7h-5.7c-0.4,0-0.6-0.3-0.6-0.7v-46.1c0-0.4,0.3-0.7,0.6-0.7h5.7c0.4,0,0.6,0.3,0.6,0.7V258"/>
</g>
</svg>
