<?xml version="1.0" encoding="utf-8"?>
<!-- Generator: Adobe Illustrator 26.0.0, SVG Export Plug-In . SVG Version: 6.00 Build 0)  -->
<svg version="1.1" id="Layer_1" xmlns="http://www.w3.org/2000/svg" xmlns:xlink="http://www.w3.org/1999/xlink" x="0px" y="0px"
	 viewBox="0 0 500 500" style="enable-background:new 0 0 500 500;" xml:space="preserve">
<style type="text/css">
	.st0{fill:url(#path14_00000023276250528748365660000012782231933810285702_);}
	.st1{fill:url(#path16_00000176038815930938973950000007601258889707505542_);}
	.st2{fill:url(#path18_00000096780757335695451550000016974981796639534486_);}
	.st3{fill:url(#path20_00000017485810095449641320000013225248846951936170_);}
	.st4{fill:url(#path22_00000039116919489001618510000001359199036230306965_);}
</style>
<g>
	
		<linearGradient id="path14_00000042001809212062621850000009451178853648047008_" gradientUnits="userSpaceOnUse" x1="72.8363" y1="283.3351" x2="72.8363" y2="220.5943" gradientTransform="matrix(1 0 0 -1 0 502)">
		<stop  offset="0" style="stop-color:#99A29B"/>
		<stop  offset="1" style="stop-color:#738777"/>
	</linearGradient>
	
		<path id="path14_00000023969238828610991500000002974576560309923202_" style="fill:url(#path14_00000042001809212062621850000009451178853648047008_);" d="
		M104.9,212.5v5.4H48.1c-3.1,0-5.4,0.8-6.8,2.3c-1.5,1.5-2.2,3.9-2.2,7.1v26.3c0,1,0.2,1.7,0.7,2.2c0.5,0.5,1.2,0.7,2.1,0.7h50.6
		c1.5,0,2.6,0.3,3.2,1c0.7,0.7,1,1.8,1,3.5v3.7c0,1.6-0.3,2.8-1,3.5c-0.6,0.7-1.7,1-3.2,1H40.8v-5.5l-9.1,11.9l9.1,11.9V282h57.4
		c3.9,0,6.8-1,8.7-2.9c1.9-1.9,2.8-5,2.8-9v-15.5c0-3.7-0.9-6.5-2.6-8.3c-1.7-1.8-4.4-2.8-8-2.8H56.3c-1.5,0-2.5-0.3-3.2-1
		c-0.7-0.7-1-1.8-1-3.5v-3.7c0-1.6,0.3-2.8,1-3.5c0.7-0.7,1.7-1,3.2-1h48.6v5.4l9.1-11.9L104.9,212.5z"/>
	
		<linearGradient id="path16_00000114061941322344842930000007961671746063484837_" gradientUnits="userSpaceOnUse" x1="160.8418" y1="283.3351" x2="160.8418" y2="220.5943" gradientTransform="matrix(1 0 0 -1 0 502)">
		<stop  offset="0" style="stop-color:#99A29B"/>
		<stop  offset="1" style="stop-color:#738777"/>
	</linearGradient>
	
		<path id="path16_00000095326101789878085430000014951486879419692478_" style="fill:url(#path16_00000114061941322344842930000007961671746063484837_);" d="
		M196,282h-12.8v-25.4h-44.7V282h-12.8v-54.6c0-6.3,2.9-9.4,8.8-9.4h51.1c6.9,0,10.4,3.7,10.4,11.1V282 M179.2,230.8h-36.7
		c-1.5,0-2.5,0.4-3.1,1.1c-0.6,0.7-0.8,1.8-0.9,3.4v8.2h44.7v-8.2c0-1.6-0.3-2.8-0.9-3.4C181.7,231.2,180.7,230.8,179.2,230.8"/>
	
		<linearGradient id="path18_00000113336580630005166970000001461540750155477427_" gradientUnits="userSpaceOnUse" x1="255.7262" y1="283.3351" x2="255.7262" y2="220.5943" gradientTransform="matrix(1 0 0 -1 0 502)">
		<stop  offset="0" style="stop-color:#99A29B"/>
		<stop  offset="1" style="stop-color:#738777"/>
	</linearGradient>
	
		<path id="path18_00000080924044452904800620000005408723180220993707_" style="fill:url(#path18_00000113336580630005166970000001461540750155477427_);" d="
		M259.1,217.9h31c7,0,10.5,4.1,10.5,12.2V282h-13v-48.1c0-1.1-0.2-1.8-0.6-2.3c-0.4-0.5-1-0.7-1.9-0.7h-19.3c-1.3,0-2.3,0.4-2.9,1.1
		c-0.6,0.7-0.8,1.8-0.8,3.4V282h-12.5v-46.6c0-1.6-0.3-2.8-0.8-3.4c-0.6-0.7-1.5-1.1-2.9-1.1h-19.3c-0.9,0-1.5,0.2-1.9,0.7
		c-0.4,0.4-0.6,1.2-0.6,2.3V282h-13v-54.6c0-6.3,2.7-9.5,8.1-9.5h33.3c1.1,0,1.8,0.2,2.4,0.7c0.5,0.4,0.9,1.2,1,2.2
		c0.1-1,0.4-1.8,1-2.2C257.2,218.2,258,217.9,259.1,217.9"/>
	
		<linearGradient id="path20_00000155142998435620305960000006082368813541274780_" gradientUnits="userSpaceOnUse" x1="348.6288" y1="283.3351" x2="348.6288" y2="220.5943" gradientTransform="matrix(1 0 0 -1 0 502)">
		<stop  offset="0" style="stop-color:#99A29B"/>
		<stop  offset="1" style="stop-color:#738777"/>
	</linearGradient>
	
		<path id="path20_00000069384962912300502940000000801222380165694881_" style="fill:url(#path20_00000155142998435620305960000006082368813541274780_);" d="
		M383.7,253.6v15.6c0,4.4-1,7.7-2.9,9.7c-1.8,2-4.8,3-9,3h-58.4v-64h59.9c3.6,0,6.2,0.9,7.8,2.7c1.7,1.8,2.5,4.6,2.5,8.4v17.3
		c0,1.1-0.2,2-0.7,2.6c-0.4,0.6-1.1,0.9-2.1,1.1c1,0.1,1.7,0.5,2.1,1.1C383.5,251.6,383.7,252.4,383.7,253.6 M370.2,242.5
		c0.6-0.7,0.9-1.9,0.9-3.5l0-3.7c0-1.6-0.3-2.8-0.9-3.5c-0.6-0.7-1.7-1-3.1-1h-40.9v12.7H367C368.6,243.5,369.6,243.2,370.2,242.5
		L370.2,242.5z M326.3,256.5v12.7h40.9c1.4,0,2.4-0.3,3.1-1c0.6-0.7,0.9-1.9,0.9-3.5v-3.7c0-1.6-0.3-2.8-1-3.5c-0.6-0.7-1.6-1-3.1-1
		H326.3"/>
	
		<linearGradient id="path22_00000080927723765376762670000005833678619313474991_" gradientUnits="userSpaceOnUse" x1="433.0857" y1="283.3351" x2="433.0857" y2="220.5943" gradientTransform="matrix(1 0 0 -1 0 502)">
		<stop  offset="0" style="stop-color:#99A29B"/>
		<stop  offset="1" style="stop-color:#738777"/>
	</linearGradient>
	
		<path id="path22_00000101802002556894589510000009768396802539872666_" style="fill:url(#path22_00000080927723765376762670000005833678619313474991_);" d="
		M468.3,282h-12.9v-25.4h-44.8V282h-12.8v-54.6c0-6.3,2.9-9.4,8.8-9.4H458c6.9,0,10.3,3.7,10.3,11.1V282 M451.5,230.8h-36.8
		c-1.5,0-2.5,0.4-3.1,1.1c-0.6,0.7-0.8,1.8-0.9,3.5v8.2h44.8v-8.2c0-1.6-0.3-2.8-0.9-3.4C454,231.2,453,230.8,451.5,230.8"/>
</g>
</svg>
