<?xml version="1.0" encoding="utf-8"?>
<!-- Generator: Adobe Illustrator 26.0.0, SVG Export Plug-In . SVG Version: 6.00 Build 0)  -->
<svg version="1.1" id="Layer_1" xmlns="http://www.w3.org/2000/svg" xmlns:xlink="http://www.w3.org/1999/xlink" x="0px" y="0px"
	 viewBox="0 0 500 500" style="enable-background:new 0 0 500 500;" xml:space="preserve">
<style type="text/css">
	.st0{fill:#49B881;}
	.st1{fill:#99CFAC;}
</style>
<g>
	<path class="st0" d="M216.8,248.5l-7.1-1.5c-3.6-0.8-5.5-2.9-5.5-6.2c0-4.1,3.6-7.2,8.5-7.2c6.6,0,8.6,4.9,9.1,6.4
		c0.1,0.5,0.5,0.9,1,1.2c0.4,0.2,1,0.2,1.4,0.1l3.8-1.3c1-0.3,1.4-1.3,1.2-2.3c-1-3.4-4.6-11.3-16.5-11.3c-8.9,0-16.4,6.8-16.4,14.9
		c0,6.9,4.6,12.1,12.2,13.7l6.7,1.5c4.1,0.9,6.5,3.4,6.5,6.6c0,4.2-3.5,6.8-9,6.8c-6.5,0-9.8-4.3-10.5-8.4c-0.1-0.5-0.4-1-0.9-1.3
		c-0.5-0.2-1-0.3-1.5-0.2l-4.1,1.3c-0.9,0.3-1.4,1.2-1.3,2.1c1.3,6.6,6.7,13.8,18.4,13.8c9.8,0,17.2-6.4,17.2-14.9
		C229.7,255.5,225,250.4,216.8,248.5L216.8,248.5z M251,241.7c-7.9,0-16.2,6.6-16.2,17.8c0,5.3,1.7,10,5.1,13.3
		c3,3,7.3,4.8,11.8,4.8c6.8,0,12.3-3.6,14.8-9.6c0.2-0.5,0.2-1,0-1.5c-0.2-0.4-0.7-0.9-1.1-1l-3.4-1.2c-1-0.3-2,0.1-2.3,1
		c-1.4,3.4-4.1,5.1-8,5.1c-4.7,0-8.3-3.2-8.9-7.8c0-0.1,0-0.2,0.1-0.3c0,0,0.1-0.1,0.3-0.1h22.1c1,0,1.8-0.8,1.8-1.7v-1
		C267.1,248.4,260.9,241.7,251,241.7L251,241.7z M259,255.1c0,0.1,0,0.2-0.1,0.3c0,0-0.1,0.1-0.3,0.1h-15.1c-0.1,0-0.2-0.1-0.3-0.1
		c0,0-0.1-0.1-0.1-0.3c0.7-3.7,4-6.4,7.8-6.3C255.5,248.8,258.4,251.1,259,255.1L259,255.1z M302.5,242.7h-4c-1,0-1.9,0.9-1.8,2
		c0,0.2-0.2,0.3-0.2,0.3c-0.1,0-0.2,0.1-0.3,0c-2.1-1.8-4.9-2.8-8.6-2.8c-9,0-15.5,6.9-15.5,16.4c0,9.5,6.5,16.4,15.5,16.4
		c3.4,0,6.3-1.1,8.5-3c0.1-0.1,0.3-0.1,0.3-0.1c0.1,0,0.2,0.1,0.2,0.3v1.4c0,6.6-2.9,9.6-9.1,9.6c-3.9,0-7.1-2.4-7.9-6.2
		c-0.1-0.4-0.4-0.9-0.9-1.2c-0.4-0.2-0.9-0.3-1.4-0.2l-3.9,0.9c-1,0.2-1.7,1.2-1.4,2.3c1.4,6.8,7.6,11.5,15.4,11.5
		c5.9,0,10.3-1.7,13.3-5.3c2.4-2.9,3.7-6.9,3.7-11.6v-28.7C304.4,243.6,303.5,242.7,302.5,242.7L302.5,242.7z M288.5,268.1
		c-5.3,0-8.6-3.7-8.6-9.6c0-5.9,3.4-9.6,8.6-9.6c5,0,8.5,3.8,8.5,9.6S293.5,268.1,288.5,268.1z M350,241.8c-4.5,0-8,1.7-10.4,4.8
		c-0.1,0.1-0.2,0.2-0.3,0.2s-0.2-0.1-0.2-0.1c-2-3-5.4-4.9-9.5-4.9c-3.2,0-6.3,1.1-8.4,3c-0.2,0.1-0.3,0.1-0.4,0.1s-0.2-0.1-0.2-0.3
		c0-1-0.9-1.8-1.8-1.8h-3.9c-1,0-1.8,0.9-1.8,1.8v30c0,1.1,0.9,1.8,1.8,1.8h4c1,0,1.8-0.9,1.8-1.8v-18.4c0-4.5,2.7-7.4,6.7-7.4
		c5.3,0,6.1,4.1,6.1,6.6v19.1c0,1.1,0.9,1.8,1.8,1.8h4c1,0,1.8-0.9,1.8-1.8v-18.5c0-4.3,2.7-7.4,6.7-7.4c5.3,0,6.1,4.1,6.1,6.6v19.1
		c0,1.1,0.9,1.8,1.8,1.8h4c1,0,1.8-0.9,1.8-1.8v-19.8c0.1-8.9-5.8-13-11.7-13L350,241.8z M384.3,241.7c-7.9,0-16.2,6.6-16.2,17.8
		c0,5.3,1.7,10,5.1,13.3c3,3,7.3,4.8,11.8,4.8c6.8,0,12.3-3.6,14.8-9.6c0.2-0.5,0.2-1,0-1.5c-0.2-0.4-0.7-0.9-1.1-1l-3.4-1.2
		c-1-0.3-2,0.1-2.3,1c-1.4,3.4-4.1,5.1-8,5.1c-4.7,0-8.3-3.2-8.9-7.8c0-0.1,0-0.2,0.1-0.3c0,0,0.1-0.1,0.3-0.1h22.1
		c1,0,1.8-0.8,1.8-1.7v-1C400.6,248.4,394.4,241.7,384.3,241.7L384.3,241.7z M376.9,255.5c-0.1,0-0.2-0.1-0.3-0.1
		c0,0-0.1-0.1-0.1-0.3c0.7-3.7,4-6.4,7.8-6.3c4.3,0,7.4,2.4,8,6.3c0,0.1,0,0.2-0.1,0.3c0,0-0.1,0.1-0.3,0.1H376.9z M424.3,241.8
		c-3.4,0-6.3,1.2-8.6,3.4c-0.1,0.1-0.3,0.1-0.4,0.1s-0.2-0.1-0.2-0.3v-0.2c0-1-0.9-1.8-1.8-1.8h-3.9c-1,0-1.8,0.9-1.8,1.8v30
		c0,1.1,0.9,1.8,1.8,1.8h4c1,0,1.8-0.9,1.8-1.8V257c0-3.9,1.7-8.1,6.7-8.1c4.5,0,6.7,2.5,6.7,7.4v18.2c0,1.1,0.9,1.8,1.8,1.8h4
		c1,0,1.8-0.9,1.8-1.8v-19.2C436.5,246.9,431.8,241.8,424.3,241.8L424.3,241.8z M455.5,249.8h4.7c1,0,1.8-0.9,1.8-1.8v-3.5
		c0-1-0.9-1.8-1.8-1.8h-4.7c-0.2,0-0.3-0.2-0.3-0.3v-7.9c0-1-0.9-1.8-1.8-1.8h-3.5c-1,0-1.8,0.9-1.8,1.8v4.1c0,2-0.8,4.2-4.2,4.2
		H443c-1,0-1.8,0.9-1.8,1.8v3.5c0,1,0.9,1.8,1.8,1.8h3.9c0.2,0,0.4,0.2,0.4,0.3v16.6c0,6.1,3.7,9.9,9.8,9.9c1.7,0,2.9-0.2,3.6-0.3
		c0.9-0.2,1.4-1,1.4-1.8v-3.2c0-0.5-0.2-1.1-0.7-1.4c-0.4-0.3-1-0.5-1.4-0.4c-0.4,0-0.9,0.1-1.2,0.1c-2.7,0-3.8-1-3.8-3.7v-15.8
		C455.2,250.1,455.3,249.8,455.5,249.8L455.5,249.8z"/>
	<g transform="matrix(.363899 0 0 .363899 9.326133 15.935306)">
		<path class="st1" d="M295.7,702.4H95.2c-9.2,0-16.7-7.5-16.7-16.7c0-9.2,7.5-16.7,16.7-16.7h200.5c9.2,0,16.7,7.5,16.7,16.7
			C312.4,694.9,304.9,702.4,295.7,702.4z"/>
		<path class="st0" d="M253,805c-16.3,0-32.6-2.5-48.1-7.1c-8.8-2.9-13.8-12.1-10.9-20.9c2.9-8.8,12.1-13.8,20.9-10.9
			c12.1,3.8,25.1,5.9,38.1,5.9c56.9,0,106.3-36.4,122.6-90.8c2.5-8.8,12.1-13.8,20.9-11.3c8.8,2.5,13.8,12.1,11.3,20.9
			C386.5,758.9,324.6,805,253,805z"/>
		<path class="st1" d="M410.4,617.5H209.9c-9.2,0-16.7-7.5-16.7-16.7s7.5-16.7,16.7-16.7h200.5c9.2,0,16.7,7.5,16.7,16.7
			S419.6,617.5,410.4,617.5z"/>
		<path class="st0" d="M114,617.5c-1.7,0-3.3-0.4-5-0.8c-8.8-2.5-13.8-12.1-11.3-20.9C119.1,527.5,181,481.4,253,481.4
			c16.3,0,32.6,2.5,48.1,7.1c8.8,2.9,13.8,12.1,10.9,20.9c-2.9,8.8-12.1,13.8-20.9,10.9c-12.1-3.8-25.1-5.9-38.1-5.9
			c-56.9,0-106.3,36.4-122.6,90.8C127.9,612.9,121.2,617.5,114,617.5z"/>
		<g>
			<circle class="st1" cx="352.2" cy="537.1" r="16.7"/>
			<circle class="st1" cx="153.4" cy="749.7" r="16.7"/>
		</g>
	</g>
</g>
</svg>
