<?xml version="1.0" encoding="utf-8"?>
<!-- Generator: Adobe Illustrator 26.0.0, SVG Export Plug-In . SVG Version: 6.00 Build 0)  -->
<svg version="1.1" id="Layer_1" xmlns="http://www.w3.org/2000/svg" xmlns:xlink="http://www.w3.org/1999/xlink" x="0px" y="0px"
	 viewBox="0 0 500 500" style="enable-background:new 0 0 500 500;" xml:space="preserve">
<style type="text/css">
	.st0{fill:#243746;}
	.st1{fill:#99E1F4;}
	.st2{fill:#1A82E2;}
	.st3{fill:#00B2E3;}
	.st4{fill:#009DD9;}
</style>
<g>
	<g>
		<path class="st0" d="M122,286.1l11-8.6c3.1,5.3,8,8.4,13.6,8.4c6.1,0,9.4-4,9.4-8.3c0-5.2-6.3-6.8-13-8.9
			c-8.4-2.6-17.9-5.9-17.9-17.9c0-10.1,8.8-18.1,20.9-18.1c10.3,0,16.1,3.9,21.2,9.1l-9.9,7.5c-2.6-3.9-6.3-5.9-11.2-5.9
			c-5.6,0-8.6,3-8.6,7c0,4.8,6.1,6.5,12.8,8.7c8.5,2.8,18.2,6.5,18.2,18.6c0,10-7.9,19.6-21.8,19.6
			C135.3,297.4,127.7,292.5,122,286.1z M218.5,253.4h11.7v4.8c2.8-3.6,7-5.7,11.9-5.7c10.1,0,16.3,6.5,16.3,17.7v26.3h-12v-24.7
			c0-5.8-2.7-9.1-7.9-9.1c-4.5,0-8.2,3.1-8.2,10.3v23.6h-11.8L218.5,253.4L218.5,253.4z M261.2,275c0-15.2,11.2-22.4,20.9-22.4
			c5.6,0,10,2.1,12.9,5.1v-24.1h11.8v62.9H295v-4.8c-2.8,3.4-7.4,5.7-13,5.7C272.8,297.4,261.2,290.1,261.2,275z M295.3,274.9
			c0-6.4-4.6-11.6-11-11.6c-6.5,0-11.6,4.9-11.6,11.6s5,11.6,11.6,11.6C290.7,286.5,295.3,281.3,295.3,274.9z M309.5,265.1
			c0-17.9,13.5-32.3,32.2-32.3c9.3,0,17.1,3.4,22.8,8.7c2.3,2.2,4.3,4.7,5.8,7.4l-10.5,6.4c-3.9-7.2-9.8-10.9-18-10.9
			c-11.5,0-20.3,9.4-20.3,20.7c0,11.6,8.7,20.7,20.8,20.7c9.1,0,15.6-5.2,17.9-13.2h-19.8v-11.5H373v4.8c0,16.9-12,31.4-30.8,31.4
			C322.5,297.4,309.5,282.5,309.5,265.1z M376,253.4h11.7v7.1c2.1-4.5,6.1-7.1,11.9-7.1h4.7l-4.3,11.5h-3.2c-6.3,0-9.1,3.3-9.1,11.3
			v20.3H376L376,253.4L376,253.4z M407.4,253.4h11.8v43.1h-11.8v-31.6h-4.3L407.4,253.4z M413.4,246.9c3.9,0,7.1-3.1,7.1-7.1
			c0-3.9-3.1-7.1-7.1-7.1c-3.9,0-7.1,3.1-7.1,7.1C406.3,243.7,409.4,246.9,413.4,246.9z M422,275c0-15.2,11.2-22.4,20.9-22.4
			c5.6,0,10,2.1,12.9,5.1v-24.1h11.8v62.9h-11.8v-4.8c-2.8,3.4-7.4,5.7-13,5.7C433.6,297.4,422,290.1,422,275z M456.2,274.9
			c0-6.4-4.6-11.6-11-11.6c-6.5,0-11.6,4.9-11.6,11.6s5,11.6,11.6,11.6C451.5,286.5,456.2,281.3,456.2,274.9z M215.7,274.9
			c0-12.4-9.1-22.3-22.2-22.3c-12.4,0-22.4,10-22.4,22.4s9.3,22.4,22.8,22.4c9.3,0,16-4.5,19.8-10.9l-9.4-5.6
			c-2,3.8-5.8,6.2-10.3,6.2c-6.2,0-10.1-3.1-11.5-7.8h33.3L215.7,274.9L215.7,274.9z M182.9,269.7c1.8-4,5.6-6.8,10.6-6.8
			c5,0,8.7,2.3,10.3,6.8H182.9z"/>
	</g>
	<g>
		<rect x="57.5" y="271.4" class="st1" width="25.2" height="25.2"/>
		<polygon class="st1" points="57.5,246.1 57.5,246.1 57.5,246.1 32.4,246.1 32.4,271.4 57.5,271.4 		"/>
		<rect x="32.4" y="271.4" class="st2" width="25.2" height="25.2"/>
		<polygon class="st3" points="107.9,246.1 107.9,246.1 82.7,246.1 82.7,271.4 107.9,271.4 		"/>
		<rect x="57.5" y="221" class="st3" width="25.2" height="25.2"/>
		<polygon class="st4" points="57.5,246.1 57.5,271.4 82.7,271.4 82.7,246.1 82.7,246.1 		"/>
		<rect x="82.7" y="221" class="st2" width="25.2" height="25.2"/>
	</g>
	<g>
		<g>
			<path class="st0" d="M133.9,205.8v14.7h-3.4v-14.7h-5.2v-3h13.9v2.9L133.9,205.8L133.9,205.8z"/>
			<path class="st0" d="M163.9,220.5h-3.2l-3.9-12.8l-3.9,12.8h-3.2l-4.9-17.7l3.6,0.1l3.3,12.5l3.7-12.5h3.4l3.7,12.5l3.2-12.5h3.4
				L163.9,220.5z"/>
			<path class="st0" d="M175.6,220.5v-17.6h3.4v17.6H175.6z"/>
			<path class="st0" d="M186.9,220.5v-17.6h3.4v14.7h5.9l0.1,3H186.9z"/>
			<path class="st0" d="M203.2,220.5v-17.6h3.4v17.6H203.2z"/>
			<path class="st0" d="M222.1,220.8c-5,0-8.2-3.7-8.2-9.1c0-5.5,3.3-9.1,8.3-9.1c5,0,8.2,3.7,8.2,9.1
				C230.3,217.1,227.1,220.8,222.1,220.8z M222.1,205.3c-3,0-4.8,2.5-4.8,6.3c0,3.9,1.8,6.3,4.8,6.3c3,0,4.9-2.5,4.9-6.3
				C227,207.8,225.1,205.3,222.1,205.3z"/>
		</g>
	</g>
</g>
</svg>
