<?xml version="1.0" encoding="utf-8"?>
<!-- Generator: Adobe Illustrator 26.0.0, SVG Export Plug-In . SVG Version: 6.00 Build 0)  -->
<svg version="1.1" id="Layer_1" xmlns="http://www.w3.org/2000/svg" xmlns:xlink="http://www.w3.org/1999/xlink" x="0px" y="0px"
	 viewBox="0 0 500 500" style="enable-background:new 0 0 500 500;" xml:space="preserve">
<style type="text/css">
	.st0{fill:#9DD6E3;}
	.st1{fill:#3F72AB;}
	.st2{fill:#00A9D1;}
	.st3{fill:#2191C4;}
	.st4{fill:#212F38;}
</style>
<g>
	<polygon id="Fill-2" class="st0" points="61.7,295.5 86.3,295.5 86.3,270.9 61.7,270.9 	"/>
	<polygon id="Fill-3" class="st0" points="37.1,270.9 61.7,270.9 61.7,246.3 37.1,246.3 	"/>
	<polygon id="Fill-4" class="st1" points="37.1,295.5 61.7,295.5 61.7,270.9 37.1,270.9 	"/>
	<polygon id="Fill-5" class="st2" points="86.3,270.9 111,270.9 111,246.3 86.3,246.3 	"/>
	<polygon id="Fill-6" class="st2" points="61.7,246.3 86.3,246.3 86.3,221.6 61.7,221.6 	"/>
	<polygon id="Fill-7" class="st3" points="61.7,270.9 86.3,270.9 86.3,246.3 61.7,246.3 	"/>
	<polygon id="Fill-8" class="st1" points="86.3,246.3 111,246.3 111,221.6 86.3,221.6 	"/>
	<path class="st4" d="M184.4,269.3c1.8-4,5.5-6.7,10.4-6.7c4.9,0,8.5,2.3,10,6.7H184.4z M216.4,274.4c0-12.1-8.9-21.9-21.8-21.9
		c-12.1,0-21.9,9.8-21.9,21.9s9.1,21.9,22.3,21.9c9.1,0,15.7-4.4,19.4-10.7l-9.2-5.5c-1.9,3.8-5.7,6-10.1,6c-6.1,0-9.9-3.1-11.2-7.7
		h32.6L216.4,274.4L216.4,274.4z M451.7,274.4c0-6.2-4.5-11.3-10.8-11.3c-6.4,0-11.3,4.8-11.3,11.3s4.9,11.4,11.3,11.4
		C447.2,285.8,451.7,280.6,451.7,274.4L451.7,274.4z M418.3,274.5c0-14.9,11-21.9,20.5-21.9c5.5,0,9.8,2.1,12.6,5v-23.6h11.6v61.6
		h-11.6v-4.8c-2.8,3.3-7.2,5.5-12.7,5.5C429.7,296.4,418.3,289.3,418.3,274.5L418.3,274.5z M409.8,247c3.8,0,6.9-3.1,6.9-6.9
		s-3.1-6.9-6.9-6.9c-3.8,0-6.9,3.1-6.9,6.9S406,247,409.8,247L409.8,247z M404,253.4h11.6v42.2H404v-30.9h-4.2L404,253.4z
		 M373.3,253.4h11.5v6.9c2.1-4.4,5.9-6.9,11.6-6.9h4.6l-4.2,11.2h-3.1c-6.2,0-8.9,3.2-8.9,11.1v19.9h-11.6L373.3,253.4L373.3,253.4z
		 M308.3,264.8c0-17.5,13.3-31.7,31.4-31.7c9.1,0,16.8,3.3,22.4,8.5c2.3,2.1,4.2,4.6,5.7,7.2l-10.3,6.2c-3.8-7-9.6-10.6-17.6-10.6
		c-11.2,0-19.9,9.2-19.9,20.2c0,11.3,8.5,20.2,20.3,20.2c8.9,0,15.3-5,17.5-12.9h-19.3v-11.2h31.9v4.8c0,16.5-11.8,30.8-30.1,30.8
		C321,296.4,308.3,281.8,308.3,264.8L308.3,264.8z M294.3,274.4c0-6.2-4.5-11.3-10.8-11.3c-6.4,0-11.3,4.8-11.3,11.3
		s4.9,11.4,11.3,11.4C289.7,285.8,294.3,280.6,294.3,274.4L294.3,274.4z M260.9,274.5c0-14.9,10.9-21.9,20.5-21.9
		c5.5,0,9.8,2.1,12.6,5v-23.6h11.6v61.6H294v-4.8c-2.8,3.3-7.2,5.5-12.7,5.5C272.3,296.4,260.9,289.3,260.9,274.5L260.9,274.5z
		 M219.1,253.4h11.5v4.8c2.7-3.5,6.8-5.5,11.6-5.5c9.9,0,16,6.4,16,17.3v25.7h-11.7v-24.2c0-5.7-2.6-8.9-7.7-8.9
		c-4.4,0-8,3.1-8,10.1v23h-11.6L219.1,253.4L219.1,253.4z M124.8,285.4l10.7-8.4c3.1,5.3,7.9,8.2,13.3,8.2c6,0,9.2-3.9,9.2-8.1
		c0-5-6.2-6.7-12.7-8.7c-8.2-2.6-17.5-5.7-17.5-17.5c0-9.9,8.6-17.7,20.5-17.7c10,0,15.8,3.8,20.7,8.9l-9.7,7.3
		c-2.6-3.8-6.2-5.8-11-5.8c-5.5,0-8.4,3-8.4,6.8c0,4.8,5.9,6.3,12.5,8.5c8.4,2.7,17.8,6.4,17.8,18.2c0,9.8-7.7,19.2-21.4,19.2
		C137.8,296.4,130.3,291.7,124.8,285.4L124.8,285.4z M136.4,206.8v14.3h-3.3v-14.3H128V204h13.6v2.8H136.4 M165.8,221.1h-3.1
		l-3.8-12.6l-3.8,12.6h-3.1l-4.8-17.3l3.5,0.1l3.2,12.2l3.6-12.1h3.3l3.6,12.1l3.1-12.1h3.3L165.8,221.1 M177.3,221.1h3.3v-17.2
		h-3.3V221.1z M188.3,221.1v-17.2h3.3v14.3h5.7v2.9L188.3,221.1 M204.3,221.1h3.3v-17.2h-3.3V221.1z M222.7,206.3
		c-3,0-4.7,2.4-4.7,6.2s1.8,6.2,4.7,6.2c3,0,4.8-2.4,4.8-6.2S225.7,206.3,222.7,206.3 M222.7,221.5c-4.9,0-8.1-3.6-8.1-8.9
		c0-5.3,3.2-8.9,8.1-8.9c5,0,8.1,3.6,8.1,8.9C230.8,217.8,227.6,221.5,222.7,221.5"/>
</g>
</svg>
