<?xml version="1.0" encoding="utf-8"?>
<!-- Generator: Adobe Illustrator 26.0.0, SVG Export Plug-In . SVG Version: 6.00 Build 0)  -->
<svg version="1.1" id="Layer_1" xmlns="http://www.w3.org/2000/svg" xmlns:xlink="http://www.w3.org/1999/xlink" x="0px" y="0px"
	 viewBox="0 0 500 500" style="enable-background:new 0 0 500 500;" xml:space="preserve">
<style type="text/css">
	.st0{fill-rule:evenodd;clip-rule:evenodd;fill:#3B98D3;}
	.st1{fill-rule:evenodd;clip-rule:evenodd;fill:#000001;}
	.st2{fill-rule:evenodd;clip-rule:evenodd;fill:#F9E3D7;}
	.st3{fill-rule:evenodd;clip-rule:evenodd;fill:#B98D75;}
	.st4{fill-rule:evenodd;clip-rule:evenodd;fill:#003A51;}
	.st5{fill-rule:evenodd;clip-rule:evenodd;fill:#D7A382;}
	.st6{fill-rule:evenodd;clip-rule:evenodd;fill:#504743;}
	.st7{fill-rule:evenodd;clip-rule:evenodd;fill:#E2CDC4;}
	.st8{fill-rule:evenodd;clip-rule:evenodd;fill:#CED4D6;}
	.st9{fill-rule:evenodd;clip-rule:evenodd;fill:#AFA099;}
	.st10{fill-rule:evenodd;clip-rule:evenodd;fill:#D0B6AC;}
	.st11{fill-rule:evenodd;clip-rule:evenodd;fill:#FCCFB7;}
	.st12{fill-rule:evenodd;clip-rule:evenodd;fill:#06151D;}
	.st13{fill-rule:evenodd;clip-rule:evenodd;fill:#D1EDFB;}
</style>
<g>
	<g>
		<path class="st0" d="M285.6,267.1c1.4-0.2,31.5-0.1,32.1,0.1c0.4,0.2,1,3.1-0.6,3.3c-1,0.1-30.6,0.3-32-0.2
			C284.7,270.1,284,267.3,285.6,267.1L285.6,267.1z M285.4,255.7c0.2,0,7.7-0.5,7.1,0.4c-1.6,2.3-6.2,3.2-6.4,3.6
			c-0.5,1,0.2,0.8,1.3,2.8c0.6,1.1,2.8-0.7,3.6-0.8c1.1-0.1,4.3-2.8,5.2-4.5c0.7-1.4-0.5-1.5,3.4-1.5c2.3,0,3.7-0.1,4.6,0
			c2.8,0.1-1.4,6.3,4.7,6.3c4.5,0,8.7,1.3,8.1-3.1c-0.3-1.9-8.6,1.6-8.9-2.2c-0.1-1.7,2.4-1,7.8-1c2.5,0,2.1-0.4,2.1,2.3
			c0,7,0.7,6.2-2.6,6.2c-2.6,0-30.4,0.6-30.6-0.5c-0.2-0.9-0.1-7.2-0.1-7.7C284.7,255.6,285.1,255.7,285.4,255.7L285.4,255.7z
			 M298,248.8c0.1-0.1,4.6,0,5.2,0c2.1,0,1.3,3.4,1,3.6c-0.3,0.3-4.4,0.1-5.1,0.1c-1.5,0-1.3,0.2-1.3-1.3
			C297.8,250.7,297.8,249.1,298,248.8L298,248.8z M280.8,253.2c0,2.2-0.3,21.7,0.2,22.1c0.1,0,3.7,0.9,3.7-0.5c0-0.7,0-0.3,0.2-0.9
			c1.4-0.5,32.4-0.5,33,0c0.8,0.7-1.4,1.8,3,1.6c1.4-0.1,1.1-0.7,1.1-3.5c0-1.8,0.1-18.8,0-19c-0.5-1.3-13.3,0.4-13.6-0.8
			c-1.6-4.9,2.4-3.4,11.6-3.4c6.7,0,6.6,0.6,6.6-1.9c0-2.1-0.4-1.6-5.5-1.6c-2.5,0-44-0.4-44.6,0.3c-0.5,0.6-0.8,3.2,0.8,3.2
			c1.6,0,16.4,0,16.5,0c0.4,0.3,0.4,0.8,0.3,1.1c-0.1,3.5,1.6,2.6-10.3,2.6C282.6,252.5,280.8,252.2,280.8,253.2z"/>
		<path class="st0" d="M297.3,237.1c7.5-4,0.6-6.8,21.5-5.5c0.3,0,0.4,0,0.7,0.2c-14.7,11.6-12.8-2.2-16.6,2.8c-2.3,3,1.6,2,2.7,4.5
			c-0.9,1.4-12.9,1.2-7.7,5.1c3,2.2,29.2-8.3,26.7-15.3c-0.5-1.4-17,0.2-17.9-0.8c1.3-2.2,4.8-3.4-0.9-3.5c-0.9,0-8.2,7.6-9.7,8.7
			C294.2,234.7,294.7,235.9,297.3,237.1z"/>
		<path class="st0" d="M279,242.8c0.8-0.3,6.7-2.6,6.9-2.8c0.1-0.1,4-1.8,4.1-1.8c0.6,0.1,0,4.6,0.3,6c0.1,0.6,1,0.4,1.7,0.4
			c2.1,0,2-0.2,2.1-2.2c0-1.3,0.4-17.2-0.4-17.7c-0.6-0.4-2.4-0.3-3-0.2c-1.9,2.5,1.7,10.1-2.2,10.5l-9.2,3.5c0,0-3.2,0.6-2.1,1.8
			C278.1,241.2,277.6,242.3,279,242.8z"/>
		<path class="st0" d="M287.6,231.9c-0.1-1.3-1.5-2-3.3-3l-3.8-2.4c0,0-3.6,3-0.9,3.6c0.6,0.1,5.7,4.8,6.3,4.1L287.6,231.9z"/>
	</g>
	<g>
		<path class="st1" d="M432.6,299.1c0.6,0,0.8,0.4,1.3,0.6c0.5,0.2,0.3,0.1,0.7,0.3c0.2,0.1,0.2,0.2,0.5,0.3
			c1.5,0.4,1.4,2.5,1.6,3.8c0.1,0.8,0.1,1.7,0.2,2.5c0.1,0.8-0.2,1.1-0.7,1.9c-1.8-0.7-0.8-1.4-2.2-1.3c-0.6,0.8-0.4,1.5-1.3,2.5
			c-1.2,1.4-2.3,1.5-4.2,2c-1.7,0.3-5.5,0-6.8-0.5c-1.2-0.5-0.9-0.6-1.4-1c0.2-0.6,0.4-0.2,0.4-1.3c-0.6-0.5-0.5-0.3-0.9-1.2
			c-0.5-1.3,0-2.4,0.2-3.4c0.2-1.2,0-0.6,0.5-1.4c0.8-1.2,1.3-2.1,2.6-3.1c0.8-0.5,0.2-0.4,1.4-0.5c0.5-0.8,0.6-0.8,1.6-1.1
			c0.9-0.3,1-0.5,2.3-0.4l2.2,0.6c0.6,0.2,0.4,0.2,1,0.4C432.1,298.6,432.5,298.5,432.6,299.1L432.6,299.1z M360.8,293.2
			c-0.6-0.2-0.2-0.3-0.8-0.5c0.3-0.4,0.1-0.1,0.6-0.4c0.6-0.4-0.1-0.3,0.6-0.4C361.2,292.7,360.9,292.5,360.8,293.2L360.8,293.2z
			 M383.4,289.6c0-0.5,0.7-1.8,0.9-1.9c0.2,0.4,0,1.3-0.4,1.7C383.6,289.6,384,289.5,383.4,289.6L383.4,289.6z M393.5,280.2
			c-0.2,0.4-0.2,0.6-0.3,1.1l-0.7,2.2c-0.2,0.3-0.1,0-0.3,0.5c-0.2,0.6,0.1,0.2-0.4,1c-0.3,0.6-0.1,0.5-0.5,1
			c-0.8,1.2-0.3,0.6-1.2,0.9c-0.5,0.2-0.3,0.3-1.1,0.4c-0.5,0.1-1.8,0.7-2.2,0.6c-0.1,0-0.3,0.2-0.1-0.2l2.5-4.1
			c0.1-0.3,0-0.3,0.2-0.6l0.7-1.4c0.3-0.5,0.1-0.7,0.4-1.1l0.8-2.1c0.1-0.4,0.1-0.8,0.2-1.2c0.2-1,0.3-0.4,0.5-2.4
			c0.1-0.6,0.3-0.9,0.5-2.4c0,0,0-1.1,0.6-0.3C393.4,272.6,393.7,279.7,393.5,280.2L393.5,280.2z M391.6,296
			c0.5-0.1,0.9,0.3,1.5,0.4c1.5,0.4,2.6,1.1,2.8,1.1c1,0.4,0.7,0.3,1.7,0.5c0.7,0.1,0.9,0.4,1.5,0.5c3.9,0.5,9.5,1.6,13.3,0.5
			c2.5-0.7,3.8-0.9,6.1-2.2c0.4-0.2,0.8-0.6,1.2-0.8c0.5-0.3,0.8-0.4,1.2-0.8l0.9-0.6c0.2-0.2,0.1-0.1,0.3-0.2
			c0.7-0.6,1.9-1.9,2.5-2.8c0.8-1.2,1.4-1.9,1.7-3.4c0.4-1.8-0.4-2-1.2-2.8c-0.8-0.8-0.4-0.2-1.4-0.6c-0.8-0.3-0.6-0.3-1.7-0.5
			c-1.1-0.1-7.2-0.5-8-0.1c-0.5,0.5,0.2,0.5,0.3,1.1c0.1,1-0.7,0.8-1.4-0.8c-0.5-1.1-0.4-3.9-0.3-5.2c0-0.5,0.1-0.7,0.2-1.1
			c0.4-1.3,0.7-1.1-2.2-1.3c-0.9-0.1-1.3-0.2-2.4-0.2c-1.4,0-4.7-0.3-5.8-0.9l-5-1.7c-0.3-0.1-1.5-0.7-1.7-0.6
			c-0.4,0-0.4,0.1-0.4,0.7c-0.1,2.6-0.1,4.3-0.8,6.8l-0.7,2.9c-0.1,0.6-0.2,0.8-0.3,1.5c-0.1,0.2,0.1,0-0.1,0.2
			c-0.1,0.1-0.1,0.2-0.1,0.2c0,0-0.1,0.1-0.1,0.1c-0.2,0.2-0.6,0.6-0.8,0.9c-0.2,0.4-0.4,0.9-0.7,1.1c-0.6,0.3-0.4,0.2-0.7,0.6
			l-0.4,0.4c0,0-0.1,0-0.1,0.1c0,0-0.1,0.1-0.1,0.1c0,0-0.1,0-0.1,0.1l-0.2-0.4c-0.1-0.1,0-0.6-0.6-0.4c-1.5,0.6-0.6,0.1-1.4,0.4
			c-0.6,0.2-0.2,0.2-0.9,0.4c-2.1,0.5-0.5,0.3-1.8,0.6c-0.5,0.1-0.5,0.1-0.8,0.5l-0.4,0.6c-1.5-0.1-1,0.1-2.2,0.8
			c-0.8,0.5-1.1,0.6-1.5,1.5c-0.1,0.2,0,0.1-0.1,0.2c-0.2,0.3,0,0-0.2,0.2c-0.2,0.3-0.1,0.2-0.2,0.5c-0.2,0.4-0.4,0.5-0.9,1.4
			l-2.5,4.4c-0.2,0.3-0.1,0.2-0.2,0.5c-0.1,0.2,0,0.1-0.1,0.3c0,0.1-0.2,0.2-0.2,0.3c-0.2,0.3-0.1,0.3-0.4,0.8
			c-0.5,0.8-0.1,0.4-0.4,1.1c-0.1,0.4,0,0-0.1,0.3c-0.5,0.7-0.1,0.3-0.3,1.1c-0.2,0.8-0.4,0.2-0.3,1.2c0.3,0.2,0.5,0.2,0.8,0.5
			l2.6,1.4c0.9,0.3,0.1,0.4,1.4,0.5l4.2,1.3c1.6,0.7,1.2-0.3,3.9,1.6c2,1.4,3.5,1.5,6,1.3c1-0.1,0.8-0.1,1.5-0.4
			c0.9-0.4,0.7,0.1,1.2-0.7c0.3,0,0.7-0.1,0.9,0c0.8,0.3-0.1,0.6,1.8,1.2c0.9,0.3,2.4,0.9,2.9-0.3c0.4-0.4,0.6-0.7,0.5-1.5l-0.5-1.7
			c-0.1-0.3-0.2-0.3-0.4-0.6c-0.3-0.7-0.6-1.7-1.2-2.1l-0.7-0.9c0,0-0.1-0.1-0.1-0.1c-0.2-0.2-0.2-0.2-0.2-0.5c-0.3-1-0.6-1-1.1-1.7
			c-1-1.3-2.2-1.2-4.4-1c-0.7,0.1-1.6,0.1-2.3,0.4c-0.8,0.3-1.5,0.1-2.3,0.5c-0.6,0.3-0.4,0.1-1.1,0.3c-0.9,0.2-0.2,0.2-0.9,0.4
			c-0.5,0.1-0.7,0.1-1.1,0.3c-0.4,0.2-0.5,0.3-1.1,0.2c-0.7-0.1-0.6,0.1-1,0.3c-0.5,0.2-0.8,0.3-1.7,0.8c-1.1,0.7-0.6,0.3-0.8,0.2
			c1.2-0.6-0.2,0,1.2-0.7l0.5-0.3c0.7-0.3,0.3,0.1,0.9-0.4c0.6-0.5,0.5-0.1,1.1-0.4c0.9-0.5,0-0.2,1.1-0.4c0.7-0.1,0.3-0.1,0.7-0.4
			c0.6-0.3,0.9-0.1,1.6-0.4l3.3-0.7c0.6-0.1,1.1-0.3,1.6-0.4c0.9-0.2,3.2-0.3,4.1,0.2c0.7,0.5,1.3,1.1,1.8,1.8l0.4,0.5
			c0.7,0.8,0.4,0.9,1.3,2.1l0.1,0.1c0,0,0,0.1,0.1,0.1c0.4,0.6,0.3,0.4,0.5,1c0.2,0.6,0.4,0.8,0.7,1.5c0.3,0.1,0,0,0.5,0.1
			c0,0.5,0.1,1,0.3,1.5c0,0,0,0.1,0,0.1c0,0,0,0.1,0,0.1c0,0,0,0.1,0,0.1c0.2,0.8,0,1.2,0.6,1.4c0.5,0.2,5.5,0,6.1-0.1
			c1.6-0.3,6.4-1.2,7.6-1.6c0.7-0.3,1-0.4,2-0.4c0-0.5,0-0.6-0.2-0.9c-0.5-1-0.5-2-0.3-3.2c0.2-1.2-0.1-1.3,0.4-2.2l1-1.8
			c0.6-1.1,1.2-1.8,2.3-2.5c0.4-0.2,0-0.1,0.4-0.2c0.5-0.2,0.4-0.1,0.8-0.4c1.3-0.9,0.7-0.4,1.6-0.9c2.8-1.6,3.9-0.5,6.8,0.1
			c1.7,0.4,1.3,0.7,2.4,1.2l1.3,0.7c0.8,0.5,0.6,0.4,0.9,0.9l0.4,0.7c0.2,0.6,0.2,1.5,0.6,1.8c0.7-0.2-0.3-0.1,0.9-0.5l0.8-0.4
			c0.2-0.1,0.1-0.1,0.3-0.2l1.3-1.1c0.7-0.4,1-0.4,1.6-0.8c1.1-0.8,1-0.5,1.5-0.9c0.7-0.7,1-0.6,1.5-1c0-1.2,0-0.6-0.4-1.4
			c-0.1-0.3-0.1-0.5-0.3-0.8c-0.2-0.6-0.1,0-0.4-0.7c-0.1-0.4,0-0.4-0.2-0.8c-1-1.9-1.2-1.7-2.4-2.6l-5.4-3.5l-1.5-0.5
			c-0.2-0.1-1.1-0.7-2.1-0.9c-1.6-0.4-0.7-0.3-1.4-0.5c-1-0.3-0.9-0.5-1.4-0.5c-1.8-0.3-2.2-0.7-3.5-0.5c0,0.8,1.7,1.6,0.3,4.7
			l-2.5,3.8c-0.3,0.3-0.4,0.5-0.7,0.8c-0.2,0.2-0.7,0.6-0.9,0.7c-0.3,0.3-0.4,0.6-0.7,0.8c0,0-0.2,0.1-0.2,0.1
			c-0.2,0.1-0.1,0.1-0.2,0.2c-0.3,0.2-0.1,0.1-0.5,0.4c-0.8,0.5-1.2,0.8-2,1.2c-1,0.4-0.7,0.6-1.7,0.9c-1.5,0.5-3.4,1.5-5,1.6
			c-3,0.1-2.4,0.3-6,0.3c-2.5,0-4.6-0.5-6.8-0.9c-0.6-0.1-0.7-0.2-1.3-0.3c-1.7-0.3-1.4-0.5-2.4-0.6c-0.2-0.3,0,0-0.2-0.2
			c-0.7-0.6-0.6-0.1-1.9-0.8c-0.4-0.2-0.7-0.1-1.2-0.4c-1.2-0.7-0.5,0-1.4-0.6c-0.2-0.1,0-0.1-0.2-0.1c-0.3-0.1-0.4,0-0.6-0.2
			c-0.6-0.3,0.1-0.1-0.4-0.3c-0.4-0.2-0.3,0-0.8-0.4c-0.5-0.4,0.3,0.1-0.2-0.2c-0.2-0.1-0.3,0-0.8-0.3c0,0,0,0-0.1-0.1
			c0,0,0,0-0.1-0.1c0,0-0.1,0-0.1,0c-0.6-0.4-0.3,0.1-0.5-0.6c1.1,0.1,0.9,0.3,1,0.4c0.2,0.2,0.1,0.1,0.4,0.3l1.5,0.7
			c0.4,0.2-0.1,0,0.4,0.2C391.3,296.1,391.2,296,391.6,296L391.6,296z M379.6,261.2c-0.5,0.3-1.1,0.7-1.9,0.5c-1.1-0.2-2.3-1.2-3-2
			c-0.2-0.3-0.3-0.4-0.6-0.7c-0.4-0.3-0.4-0.2-0.6-0.6l-0.2-0.3c-0.6-0.9-0.2-0.5-0.5-1.2c-0.5-1.4-0.2-0.9-0.7-2.1
			c-0.2-0.5-0.3-2.4,0.2-3.4c0,0,0-0.1,0-0.1l0.4-0.6c0.2-0.3,0.3-0.6,0.5-0.7c1.9-1.3,1.7-0.4,2,0.7c0.3,1.3,0.6,2,0.9,3.5
			c0.1,0.5,0.2,0.4,0.5,1.3c0.2,0.6,0.3,0.5,0.4,0.8c0.1,0.3,0.1,0.6,0.3,1l0.8,1.7C378.5,260.1,379.3,260.1,379.6,261.2
			L379.6,261.2z M430.4,250.8c0.2,0.7,0.4,1.2,0.5,1.9c0.6,3.1,2.3,1.2,2.8,2c0.3,0.6-0.7,1.2-1,1.3c-1.5,0.5-2.5-0.6-3-1.8
			c-0.3-0.6-0.3-1.3-0.3-2.1C429.4,251.1,429.4,250.8,430.4,250.8L430.4,250.8z M428,247.8c0,0.5,0,0.1,0.1,0.3
			c1.2-0.1,0.9-0.5,1.6-0.5c1.3-0.1,0.6,0.7,0.4,1.2c-0.4,0.1-0.9,0.1-1.2,0.2c-0.5,0.1-0.4,0.3-0.8,0.4c-0.2,0-0.4,0-0.6,0.1
			c-0.7,0.2,0,0-0.4,0.2c-0.1,0.1,0.3,0.2-0.5,0.2c-0.2,0-0.2,0-0.3-0.1l-0.2-0.1c0.2-0.9,0.3,0,0.7-0.7l-0.9-0.2c0-0.8,0-0.6,0.3-1
			c0.2-0.4,0.2-0.6,0.3-0.8c0.2-0.4,0.8-0.8,1.3-0.9c1-0.2,0.1-0.2,1.7-0.6c0.6-0.1,1.8-1.1,1.8,0.3c0.1,1.7-1.8,1.6-2.1,1.7
			C429.1,247.6,428.8,248,428,247.8L428,247.8z M434,243.4c-0.1-0.8,0.1-0.8,0.5-1.2l1.8-3.9c0.2-0.3,0.1-0.5,0.3-0.8
			c0.2-0.4,0.1-0.1,0.3-0.5c0.2-0.4,0.3-1,0.5-1.4c0.1-0.3,0.2-0.4,0.3-0.7l0.2-0.6c0.1-0.3,0-0.6,0.1-0.8c0.1-0.4,0.2-0.4,0.4-0.6
			c0.4,0.6,0.2,1,0.3,1.9c0,3.5,0,3.3-0.5,6.4C437.8,243.6,438.6,243.8,434,243.4L434,243.4z M377.3,241c-0.6-0.6-1.6-1.7-1.9-2.5
			c-0.5-1.4-1.1-1.6,1.4-3.5c0,0,0.1,0,0.1-0.1c1.1-0.9,0.3-0.5,2.3-1.8c1.7-1.1,1.1-0.6,1.6-1.3l0.8,0l0.5,0.7
			c0.5,0.6,0.2,0.4,0.8,1.1c0.6,0.8,2.1,2.7,2.5,3.5c0.2,0.3,0,0.2,0.3,0.5c0.1,0.1,1.6,1.5,0.7,2.5c-0.1,0.1-0.3,0.2-0.4,0.3
			l-3.9,2.9c-0.7,0.4-1.4,0.8-2.2,0.8L377.3,241L377.3,241z M432.5,231.3c-0.2,0.6-0.2,1.1-0.5,1.7l-1,3.5c-0.3,0.7-0.2-0.1-0.3,0.8
			c-0.3,1.5-0.4,0.8-0.6,1.7l-1.2,3.3c-0.1,0.3-0.2,0.4-0.3,0.8c-0.2,0.4-0.9,1.2-0.2,1.5c0.4,0.1,0.8-0.2,1.7-0.4
			c0.5-0.1,1.3-0.3,1.6-0.7l0.6-3.9c0.1-3.1,0.2-2.3,0.4-4.1C432.8,234.3,433,232.2,432.5,231.3L432.5,231.3z M365.9,226.1
			c0,0.6,0.1,0.7,0.2,1.1l0,3.5c-0.2,1.9-0.1,7.1,0.2,9c0.1,0.4,0.2,0.6,0.2,1c0.2,1.8,0.8,2,0.4,2.8c0.2,1.1,0.5,2,0.6,3.1
			c0.1,0.8,0.2,0.8,0.5,1.3c0.5,0.7,1.3,1.2,1.8,1.8c0.9,1.1,1.2,0.6,0.8,2.3c-0.2,1-0.7,1.4-0.3,3.2c0.1,0.7,0.1,0.9,0.2,1.7
			c0.1,0.9,0.8,0.8,1.6,2c0.5,0.7,1,1.5,1.6,2.1l0.3,0.3c0.4,0.4,0.8,0.5,1.2,0.8c0.4,0.4-0.1,0.3,0.6,0.4c0,0.5-0.2,0.8-0.2,1.3
			c-0.1,0.6-0.1,0.8-0.1,1.5c0,0.3-0.1,1.2-0.2,1.5l-0.8,2.5c-0.2,0.5-0.1,0.9-0.3,1.3c-0.1,0.3-0.1,0.1-0.3,0.5l-0.4,1.2
			c-0.4,0.8-0.5,1.5-0.9,2.3c-0.1,0.2,0,0-0.1,0.2c-0.2,0.3,0,0-0.2,0.3l-0.6,1.1c-0.5,1.2-1.3,2.2-2,3.3c-0.1,0.1-0.1,0.1-0.1,0.2
			l-1.7,2.5c-0.2,0.4-0.4,0.6-0.7,0.9c-0.3,0.3-0.5,0.6-0.7,0.9c-0.5,0.8-1.2,1.6-1.9,2.3c0,0,0,0-0.1,0.1l-5.4,5.1
			c-0.7,0.3-1.4-0.7-1.9-1.1c-1.7-1.4-1.5-1.8-2.4-3.2c-0.3-0.5-0.1,0-0.3-0.6c-0.2-0.5-0.3-0.5-0.5-1.1l-1-2.3
			c-0.1-0.3-0.1-0.3-0.2-0.6l-2.6-7.2c-0.1-0.3-0.2-0.3-0.3-0.6c-0.2-0.5-0.1-0.9-0.3-1.3c-0.3-0.8-0.3-1.2-0.5-1.9l-0.7-1.9
			c-0.2-0.5-0.2-0.9-0.3-1.4c-0.2-0.8-0.3-0.4-0.4-1.2c-0.2-1.5-0.3-0.9-0.6-2.7c0-0.3,0-0.4-0.1-0.7c-0.2-0.9-0.4-1-0.4-2.1
			c-0.1-1-0.5-1.3-0.5-2.8c0-0.7-0.1-0.8-0.3-1.3c-0.2-0.8-0.3-2.8-0.6-4.3c-0.3-1.4-0.2-3.2-0.2-4.7c0-0.8-0.2-0.6-1-0.6
			c-0.4,1.7-0.2,4.2,0.2,5.8c0.2,1.1,0,2.5,0.3,3.6c0.1,0.5,0.2,0.4,0.3,1c0.1,0.3,0.1,0.7,0.1,1.2c0,1.1,0.3,1.2,0.5,2.1l1.2,6.5
			c0.2,0.9,0.3,0.7,0.5,2c0.1,0.9,0.3,1.2,0.5,2.1l0.5,2.1c0.1,0.3,0.1,0.7,0.2,1.1c0.1,0.4,0.2,0.5,0.4,0.9
			c0.1,0.3,0.1,0.9,0.2,1.1c0.1,0.5,0.3,0.5,0.4,1c0.1,0.4,0.1,0.7,0.2,1.1c0.2,0.5,0.2,0.3,0.4,0.9c0.1,0.4,0.1,0.7,0.2,1l1.3,3.9
			c0.2,0.4,0.1,0.6,0.2,1l1.9,3.9c0.1,0.1,0.1,0.3,0.2,0.5l2.1,3.1c0.2,0.3,0.3,0.4,0.5,0.8l1.2,1.7c0,0,0,0,0.1,0.1
			c0,0,0,0,0.1,0.1l0.3,0.4c0,0,0,0,0.1,0.1l0.2,0.2c0,0,0,0.1,0.1,0.1l3,3.4c0,0,0,0,0.1,0.1c0.1,0.1,0.1,0.1,0.2,0.2
			c0.9,1,2.1,1.8,3.1,2.7l3.6,2.3c0.4,0.2,0.4,0.3,0.8,0.4c1.8,0.8,5.5,2.7,7.7,3.7l2.2,1c0.7,0.3,1.4,0.8,2.1,1l1,0.4
			c1,0.3,3.5,0.6,4.4,0.6c0.7,0,1.8-0.1,2.5,0c1.9,0.2,4.1-0.3,6,0.2c0.5,0.1,0.5,0.2,1.1,0.3c1.5,0.2,3.4,0.5,4.7,0.5
			c1.7,0,3.4,0.1,4.9-0.1c2.6-0.4,6.1-0.1,8.3-0.6c1-0.2,2.5-0.1,3.5-0.4c0.7-0.2,1.4-0.3,2.3-0.4c1.7-0.1,2.3-1,4.3-0.3
			c0.6,0.2,3.1,0.7,3.8,0.6l2.4-0.8c0.6-0.1,0.7-0.1,1.1-0.4c0.5-0.3,1-0.5,1.5-0.9c0.7-0.6,1.4-1.3,1.8-2.1l0.6,0.2
			c0.5,0.3,1,0.9,2-0.2c0.3-0.3,0.3-0.5,0.5-0.9l0.1-0.2c0,0,0-0.1,0.1-0.1c0.8-1.4-0.4-1.4,1.8-2.5c0,0,0.1-0.1,0.2-0.1l3.4-2.2
			c0.9-0.7,1.9-1.2,2.7-2l4.9-4.7c0,0,0,0,0.1-0.1c0,0,0,0,0.1-0.1c0,0,0,0,0.1-0.1l4.9-5.9c0.2-0.3,0.2-0.2,0.4-0.6
			c0.1-0.2,0.1-0.2,0.2-0.3l0.5-0.7c0,0,0-0.1,0-0.1l0.5-0.8c0,0,0-0.1,0-0.1l0.3-0.4c0,0,0-0.1,0-0.1l1.3-2.1c0.2-0.3,0,0,0.2-0.3
			c0.1-0.2,0.1-0.2,0.2-0.3l1.1-1.9c0.1-0.3,0,0,0.2-0.3c0.2-0.3,0,0,0.2-0.3c0-0.1,0.1-0.2,0.1-0.4c0.3-0.7,0.3-0.5,0.5-1.4
			c0.2-0.7,0.4-0.5,0.5-1.5c0-1,0.3-2.7-0.5-3.3c-0.1,0.3-0.2,0.6-0.2,0.8c-0.1,0.7,0,1.3-0.3,1.9c-0.3,0.6-0.3,1.1-0.6,1.7
			l-0.9,1.9c-0.2,0.3-0.1,0-0.2,0.4l-1.7,2.7c-0.2,0.3-0.3,0.4-0.5,0.7c-0.2,0.3-0.3,0.4-0.5,0.7l-1.4,1.9c-0.2,0.2-0.3,0.4-0.5,0.6
			l-0.5,0.6c-0.2,0.2-0.3,0.4-0.5,0.6l-1,1.2c-0.8,0.8-1.7,1.9-2.5,2.5l-2.2,1.8c-0.5,0.5-0.6,0.9-1.4,0.9c-0.2-0.5,0-0.5-0.4-1
			c-0.2-0.3-0.1,0-0.3-0.5l-1.2-2.5c-0.4-0.8-1.1-1.3-1.7-1.8c-1-0.9-3.1-2.5-4.3-3c-0.4-0.2-0.1,0-0.5-0.3
			c-0.4-0.3-0.5-0.2-0.9-0.5c-0.2-0.2,0.1,0-0.2-0.2c-0.2-0.1,0,0-0.3-0.1c-0.9-0.3-1.7-0.8-2.7-1.1c-0.1,0-0.4-0.1-0.5-0.1
			c-0.2-0.1-0.2-0.1-0.5-0.3l-2.3-0.6c-0.8-0.1-0.7-0.1-1.2-0.3c-0.9-0.3-1.7-0.2-2.5-0.4c-1.8-0.5-3.4-0.3-5.1-0.6
			c-1.4-0.3-4-0.3-5.6-0.2c-0.6,0-0.7,0.1-1.4,0.1c-0.9,0-0.6,0.1-1.3,0.3c-0.6-1.1-0.5-1.8-0.2-3c0.2-1.1,0.1-2,0.7-2.9
			c1.2,0,2.5,0.1,3.6-0.2c2.3-0.6,1.8,0,3.1-0.7c0.5-0.2,0.5-0.1,1-0.2c0.8-0.2,0.9-0.4,1.5-0.5l4.3-2c0.9-0.5,1.5-1.3,2.3-2
			l1.6-1.4c0,0,0,0,0.1-0.1l1.3-1.4c0,0,0-0.1,0-0.1l2.3-2.7c0.2-0.4,0.3-1.1,0.5-1.4c0.5-0.7,0.8-1.9,1.1-2.6
			c0.2-0.4,0.1-0.6,0.3-1c0.2-0.5,0.4-0.4,0.3-1c-0.5-1,0.2-1.9,0.3-2.2c0.1-0.4,0.1-0.7,0.3-1c0.3-0.5,0.3,0,0.4-1.1
			c-0.6,0.4-0.7,1.2-1.2,2.1c-0.3,0.5,0,0.5-0.4,0.7l-0.6,1.7c-0.1,0.4-0.2,0.5-0.3,0.9l-1,2.5c-0.2,0.6-0.2,0.3-0.4,0.7
			c-0.2,0.3-0.2,0.4-0.4,0.8c-0.8,1.3-1.8,2.6-2.9,3.7l-0.8,0.8c-0.7,0.8-0.4,0.4-1.1,1c0,0,0,0-0.1,0.1c-0.8,0.7-0.5,0.6-1.3,1.2
			c0,0-0.1,0-0.1,0.1c0,0-0.1,0-0.1,0.1l-1,0.7c-0.6,0.4-1.4,1.1-2.4,1.3c-1.3,0.2-0.6,0.3-1.4,0.6l-2.2,0.6
			c-1.6,0.4-2.2,0.5-3.9,0.7c-2.7,0.4-6.2,0.2-9.2,0.2c-0.8,0-3.3-0.5-4-0.7c-0.4-0.1-0.5-0.2-1-0.3c-0.3-0.1-0.7-0.1-1-0.2
			c-0.4-0.1-0.3-0.2-0.8-0.4c-0.9-0.4-1.2-0.4-1.8-0.6l-3.2-1.5c-0.3-0.1-0.6-0.1-0.9-0.3c-0.1-0.1-0.1-0.1-0.4-0.2
			c-0.2-0.1-0.2-0.1-0.4-0.1c-0.9-0.4-5.8-3.5-6.3-4.1l-0.9-0.5c-0.6-0.5-1.2-1.1-1.8-1.7c0,0,0,0-0.1-0.1l-0.6-0.6
			c-0.7-0.6-1.3-2.2-1.4-3.1c-0.1-1.2-0.3-0.6-0.5-1.3c-0.1-0.6,0-0.8-0.3-1.4c-0.3-0.7-0.4-2.1-0.6-2.9c-0.2-1-0.4-1.9-0.6-2.8
			c-0.2-0.9-0.2-2.1-0.4-3c-0.2-0.8-0.3-2.3,0.1-3c0.2,0.4,0.1,0.8,0.3,1.3c0.2,0.5,0.3,0.4,0.4,1.2l0.4,1.2c0.2,0.5,0.1,0.6,0.5,1
			c0.4,0.5,0.2,0.6,0.4,1.2l0.8,1.6c0.2,0.3,0,0.2,0.3,0.5l2,3c0.5,0.6,1.2,1,1.7,1.6l1.6,1.1c0.7,0.3,0.7,0.4,1,0.6
			c0.6,0.3,0.4,0,1.2,0.5c0-0.4,0.1-0.8-0.1-1.2c-0.2-0.3-0.3-0.2-0.4-0.7c-0.5-1.8-0.4-2.3-0.7-3.9c-0.1-0.6-0.2-1.1-0.3-1.8
			c-0.1-2.7-0.1-6,0-8.8c0.5-0.4,0.6-0.5,1.2-0.8c0.4-0.2,0.3-0.2,0.7-0.3c0.6-0.3,1.2-0.6,1.7-1.2c0.7-0.7,1.5-1,2.3-1.6
			c0.3-0.2,0.3-0.3,0.5-0.5l1.1-0.8c0.2-0.1,0.3-0.4,0.5-0.5c1.2-1.1,1.4-0.8,2-1.5l1.6-1.7c0,0,0.2-0.3,0.2-0.3l3.3-3.5
			c0.8-0.8,0.5-0.7,1-1.4l0.4-0.3c0,0,0.1,0,0.1,0c0,0,0,0.1,0,0.1l0.1,1.4c0.3,3,0.6,4,1,6.8c0.2,1,0.6,1.6,0.5,2.6
			c-0.9,0.1-1,0-1.7-0.2c-1.6-0.4-4.6,0.4-5.7,0.1c-0.2,0.2,0.1,0.1-0.4,0.2c-0.1,0-0.3,0-0.4,0c-0.3,0-0.5,0-0.7,0.1
			c-0.4,0.2-0.8,0.3-1.3,0.4c-1.3,0.2-1.6,0.6-2.6,0.9c-1.2,0.4-0.5,0.4-1.1,0.6c-1.8,0.5-0.3,0.2-1.3,0.5c-0.4,0.1-0.3,0-0.7,0.3
			c-1.1,0.8-1.4,0-1.3,1.3l0.9,0c0.3-0.1,0.5-0.1,0.8-0.3c0.8-0.5,3.8-1.5,4.6-1.7c0.8-0.2,1.3-0.1,2-0.4c0.6-0.2,1.5-0.3,2.2-0.3
			c0.9-0.1,1.3-0.3,2.3-0.3l3.8,0c1.3,0.1,0.9,0.5,1.2,1.1l0.7,1.5c0.3,0.6,1.8,3.2,1.7,3.5l0.5,0.3c0.7,0.3,0.5-0.4,0.3-0.8
			c-1.6-3.3-1.7-13.6-1.1-15.1l0.2,0.4c0,0.1,0.1,0.4,0.1,0.5c0.7,3.4,1.1,7,2.5,10.2c0.2,0.5,0.1,0.3,0.4,0.7
			c0.7,1.1,0.2,0.4,1.1,1.2c0.3,0.3-0.1,0.1,0.4,0.3c0,0,0.5,0.3,0.4-0.5l-0.5-3c-0.2-1.2-0.2-6.3-0.2-7.9c0-0.6,0-1.4,0-2l0.4-1.7
			c0.3,0.9,0.2,3.9,0.4,5.2c0.2,0.9,0.3,1.3,0.3,2.4c0,0.8,1.1,6.4,1.4,7c0.2,0.5,0.2,0.5,0.3,1.1c0.1,0.7,0.9,1.9,1.1,3
			c0.6,0.1,0.1-0.1,0.4,0.3l0.5,1c0.3,0.7,0,0.8,0.8,1.2c0.3-0.2,0.4-0.3,0.7-0.5c1.6-1.4,0.7-1.6,1.9-2c0.7-0.2,0.5-0.2,1.2-0.6
			l0.4-0.3c0.4-0.3,0.4-0.1,1.1-0.4l0.2-0.1c1-0.4,0.9,0.4,0.9,1.3c-0.1,1.8,0,2,0.3,3.5c0.2,0.7,0.1,0.5,0.4,1
			c0.2,0.4,0.2,0.6,0.5,0.7c0.4,0.2,0.7,0.1,0.9,0.4c0.2,0.2,0.2,0.5,0.4,0.8c0.8,0.1,1.6,0.1,2.2-0.4c0.3-0.2,0.4-0.3,0.6-0.7
			c0.3-0.5,0.3-0.4,0.5-0.7c0.2-0.4,0-0.5,0.3-1c0.5-0.8,0.4-2.2,0.3-3.4c-0.5,0.2-0.1,0.1-0.5,0.4c-0.6,0.5-1,0.1-1.5-0.2
			c0-0.7,0.1-1,0.2-1c0.2-0.3,0.6-0.6,1-0.7c0.3,0,0.2,0.1,0.8,0.2l0-1.4c0.6-0.4,2-0.3,3-0.2c1.2,0.1,1.3,0.6,2,0.6
			c1,0,0.4,0,0.7-0.3l-1.2-0.5c-0.4-0.1-1-0.1-1.4-0.2c-0.3-1.4-0.5,0-0.5-2.1c-0.3,0.2,0,0-0.3,0.3c-0.8,1-1,0.7-1.9,0.5
			c-1.2-0.3-3.1,0.4-3.2-0.6c0-0.7,0.5-0.8,0.6-0.9l0-0.4c1-0.6,0.8-0.5,2.3-0.6c0.8,0,1.8-0.1,2.6,0.1c0,0.2,0,0.6,0,0.8
			c0,0.2,0,0.2,0.1,0.4c0.2,0.5-0.3,0,0.3,0.4l0.9-1.6c1.1-1.8,0.4-2,1.6-1.9c0.1,0.3,0.1,0.5,0.1,0.9c0,0.1,0,0.5,0,0.6
			c0.1,0.4,0,0.2,0.2,0.5c0.8-0.6-0.2-0.8,0.9-0.8c0.2,0.5,0.1,4.8-0.1,5.7c-0.2,1.1-0.3,0.2-0.5,2.5c-0.1,1.2-0.5,1-1,1.9
			c0.3,0.5,0.3,0.1,0.5,0.6c0.3,0.8-0.3,1.4-0.4,2.2c-0.1,0.7-0.4,1.3-0.7,1.7l-0.7,0.8c0.2,0.5,0,0.3,0.4,0.6
			c0.7-0.2,2.2-1.8,2.5-2.4l4.4-7.6c0.1-0.2,0.1-0.1,0.2-0.2c0.4-0.6,0.6-1.3,0.9-1.9l1.4-2.9c0.2-0.7,0-0.4,0.3-1
			c0.3-0.6,0-0.5,0.6-1.5c0.4-0.7,0.5-1.5,0.7-2.1l0.5-1.7c0.1-0.7,0.2-0.6,0.4-1.1c0.1-0.4,0.1-0.8,0.2-1.2
			c0.1-0.4,0.3-0.4,0.4-1.1c0.2-1.2,0.1-2.3,0.4-3.9c0.4-2.3,0.3-7.8-0.2-9.5c-0.2-0.8-0.1-1.8-0.4-2.5c-0.2-0.7-0.2-0.2-0.3-1.1
			l-0.7-2.9c-0.1-0.4-0.1-0.2-0.2-0.5c-0.2-0.4-0.1-0.7-0.3-1.1c-0.1-0.3-0.1-0.1-0.3-0.5c-0.1-0.2-0.1-0.3-0.2-0.6l-1.3-3
			c-0.3-0.5-0.2-0.6-0.4-1.1c-0.1-0.4-0.1-0.2-0.2-0.4l-5.9-8.5c-0.1-0.1-0.1-0.1-0.2-0.2l-2.9-2.9c-0.1-0.1-0.1-0.1-0.2-0.2
			l-1.6-1.4c0,0,0,0-0.1-0.1c0,0-0.2-0.2-0.2-0.2l-3.8-2.8c-0.2-0.1-0.2-0.2-0.4-0.3l-2.8-1.6c-0.2-0.1-0.4-0.1-0.6-0.2
			c-0.7-0.3-1.2-0.7-2-0.9l-1-0.4c-0.4-0.2-0.8-0.2-1.1-0.4c-0.8-0.4-2.5-0.8-3.4-0.9c-0.5-0.1-0.5-0.2-1.1-0.4
			c-0.8-0.2-1.7-0.1-2.6-0.3c-1.8-0.4-7.4-0.5-9.6-0.1c-0.3,0.1-0.7,0.2-1.2,0.3c-1.8,0.3-3.5-0.1-5.4,0.2c-0.5,0.1-0.5,0.3-1,0.3
			c-0.5,0.1-0.7,0-1.1,0.2c-0.7,0.3-1.5,0.3-2.2,0.7c-0.5,0.2-1.1,0.2-1.6,0.5c-0.9,0.5-1.8,0.6-2.6,1.1c0,0-0.1,0.1-0.2,0.1
			c-0.2,0.1-0.1,0-0.3,0.1c-0.3,0.1-0.2,0.1-0.5,0.3l-2.4,1.3c-0.1,0.1-0.1,0-0.3,0.1l-4.4,2.8l-6.8,7.1c0,0,0,0-0.1,0.1l-0.6,0.8
			c0,0-0.1,0.1-0.1,0.1c0,0,0,0-0.1,0.1l-0.1,0.1c-0.7,1-1.5,1.8-2.2,2.8c-0.2,0.3-0.4,0.3-0.5,0.7c-0.4,0-0.9-0.1-1.2,0
			c-0.7,0.2-1.7,1.4-2,1.9l-0.8,1.1c-0.1,0.2-0.1,0.2-0.2,0.4c-0.6,0.9-1.1,2-1.5,3.1l-0.5,1.4c-0.2,0.7-0.6,1.2-0.9,1.8l-1.2,2.7
			c0.2,0.8,0.8,0.4,0.3,1.7l-0.3,1c-0.1,0.8-0.1,1.5-0.3,2.1c-0.1,0.4-0.2,0.6-0.2,1C366,224.5,366,225.4,365.9,226.1z"/>
		<path class="st2" d="M400.7,262.8c-0.6,0.4-1.8,2.3-4.8,1c-0.3-0.1-0.9-0.8-1.2-1.1l-0.1-0.1c-0.1-0.2-0.2-0.8-0.2-1.1
			c0.1-1.8,2.7-1.8,3.8-1.5c0.9,0.2,1.8,0.9,2.3,1.6C400.8,261.9,400.7,262.4,400.7,262.8L400.7,262.8z M430.4,259.7
			c1.2-0.4,3.2,0,3.5,0.9c0.9,2.2-3.3,3.9-4.7,2.5l-0.4-0.7c-0.1-0.3-0.2-0.8-0.1-1.1C428.8,260.6,429.7,260,430.4,259.7
			L430.4,259.7z M407.5,248.1c-0.3,0-0.8-0.6-2.1-0.4c-0.2,0-0.3,0-0.4,0.3l-0.1,0.6c0,1.9-0.1,1.1-1.1,1.2l0,0.9l1.4,0
			c0.2,0.9,0.2,1.3,0,2.2c-0.2,0.7-0.1,1.4-0.3,2.1c-0.4,1.2-1.4,1.9-2.6,2.4c-1,0.4-3.3,0.4-4.2-0.2c-0.3-0.2-0.4-0.4-0.6-0.7
			c-0.7-1.4-0.4-0.9-0.7-1.7c-0.2-0.4-0.3-0.3-0.2-0.8c-0.2-0.3-0.1,0-0.3-0.5c0-0.2,0-0.4-0.1-0.6c0-0.4-0.1-0.7-0.2-1.1
			c-0.2-1,0.1-1.4-0.3-2.2l-1.4,0.6c-0.7,0.5-0.6,0.7-1,0.7c-0.7-0.2-0.4-0.3-1-0.6c0.1-0.6,0.1-0.7,0.6-1c0.7-0.5,0.7-0.8,1.4-1.1
			l1.3-0.7c0.5-0.3,0.5-0.2,0.8-0.4c1.3-0.7,0.6-0.2,1.5-0.5c0.5-0.2,0.2-0.3,0.8-0.4c0.7-0.1,0.6,0,1.2-0.3c1.1-0.5,6.3-0.5,8,0.5
			c0.1,1.1,0,0.3-0.5,1.1c0.2,0.3,0.6,0.4,0.5,0.9c-0.1,0.2-0.1,0.3-0.3,0.3C407.4,248.5,407.6,248.3,407.5,248.1L407.5,248.1z
			 M412.3,249.9c0-0.3-1.5-2.9-1.7-3.5l-0.7-1.5c-0.2-0.6,0.1-1.1-1.2-1.1l-3.8,0c-1,0-1.3,0.2-2.3,0.3c-0.7,0.1-1.6,0.1-2.2,0.3
			c-0.8,0.2-1.2,0.2-2,0.4c-0.9,0.2-3.8,1.2-4.6,1.7c-0.3,0.2-0.5,0.2-0.8,0.3c-0.1,0.3,0.2,0.5-0.7,0.4c-0.5-0.1-0.3-0.1-0.6-0.4
			c-0.7,1.5-0.3,6.7-0.2,8.6c0.1,0.7,0,1.6,0.2,2.2c0.2,0.8,0.2,0.1,0.4,1.8c0.1,1.2,0.2,0.9,0.7,1.7c0.4,0.7,0.3,1.1,0.3,2
			c0.8,0.4,0.4-0.1,1.3,0.7c0,0,0.1,0.1,0.1,0.1c-0.2,0.1-1.6,0.3-1.9,0.3c-0.3-0.1-0.5-0.3-0.9-0.6c0,0-0.1,0-0.1,0l-0.5-0.3
			c-0.3-0.1-0.6-0.2-0.9-0.3c-0.3-0.2-0.3-0.2-0.7-0.4c-1.2-0.6-2.3-1.7-3.2-2.7l-0.9-1.3c0,0,0-0.1,0-0.1l-0.4-0.8
			c-0.7-1.2-0.5-1.1-1.1-1.3c-0.1,0.2-0.1,0-0.1,0.3c-0.2,0.8,0.5,2.9,0.6,3.2c0.3,1.3,0.5,3.8,1.6,4.7l2.6,2.6
			c0.2,0.3,0.3,0.4,0.4,0.6c0.5,0.6,5.4,3.7,6.3,4.1c0.2,0.1,0.2,0.1,0.4,0.1c0.3,0.1,0.3,0.2,0.4,0.2c0.3,0.1,0.6,0.2,0.9,0.3
			l3.2,1.5c0.6,0.2,0.8,0.2,1.8,0.6c0.4,0.2,0.4,0.2,0.8,0.4c0.3,0.1,0.6,0.1,1,0.2c0.4,0.1,0.6,0.2,1,0.3c0.6,0.2,3.2,0.7,4,0.7
			c3,0,6.4,0.2,9.2-0.2c1.7-0.3,2.4-0.3,3.9-0.7l2.2-0.6c0.8-0.3,0.1-0.4,1.4-0.6c1-0.1,1.8-0.9,2.4-1.3l1-0.7c0,0,0.1,0,0.1-0.1
			c0,0,0.1,0,0.1-0.1c0.8-0.6,0.5-0.5,1.3-1.2c0,0,0,0,0.1-0.1c0.7-0.6,0.4-0.2,1.1-1l0.8-0.8c1.1-1,2.1-2.4,2.9-3.7
			c0.2-0.3,0.2-0.5,0.4-0.8c0.3-0.4,0.2-0.1,0.4-0.7l1-2.5c0.1-0.4,0.2-0.6,0.3-0.9l0.6-1.7c0-1.2,0.7-2.4,1.3-3.4
			c0.6-1.1,0.3,0,1-1.2c0.4-0.7,0.8-0.6,0.9-1.4c0.2-0.9,0.4-1.7,0.4-2.6c-0.3,0-0.7,0-1,0c-0.5-0.1-0.3-0.2-0.6-0.4
			c-0.3-0.2-1.3-0.2-1.8-0.3c-2-0.3-2.2-0.6-2.2,0.4c0,0.3,0,0.6,0,0.9c0,1.2,0.1,2.6-0.3,3.6c-0.3,0.8-0.2,1.3-1.2,2.7
			c-0.5,0.8-1.7,1.4-2.6,1.3c-0.6,0-1-0.6-1.9-1.3l-0.7-0.8c-0.3-0.4-0.2-0.4-0.3-0.8c-0.2-0.6-0.3-0.6-0.4-1.5
			c-0.1-1.2,0.1-2.6-0.2-3.7l-2.9,1.5c-1.4,0.6-0.7,0.3-1.6,1.6l-0.5,0.5c-0.2,0.6-0.4,0.6-1,0.6c-1.9-0.1-0.9-1.1-1.5-2.1l-1.3-2.9
			c-0.3-0.9-0.1-0.7-0.6-1.4c-0.6,0.1-1.5,1.5-3.2-1.1c-0.4-0.6-1.3-2.5-1.5-3.1l-0.1-0.5c0-0.1,0-0.1-0.1-0.1l-0.2,0.7
			c0,0.4,0.4,2,0.6,2.6c0.1,0.4,0.1,0.7,0.2,1.1c0.4,1.6,0.2,1.6,0.4,2.3c0.2,0.7,0.5,1.5-0.3,1.8c-0.1-0.1-0.1-0.2-0.2-0.3
			l-0.2-0.3C413.1,250.9,412.3,250.6,412.3,249.9z"/>
		<path class="st2" d="M393.5,285.4c0.3,0.2,0.2-0.3,0.2,0.4l-0.5,0.1c-0.2,0.2-0.6,0.6-0.8,0.9c-0.2,0.4-0.4,0.9-0.7,1.1
			c-0.2,0.7-1.8,2.9-3.1,2.8c0-1.2,0.5-0.7,0.9-1.3c0.5-0.7-0.8-0.5-1.1-0.3l-1,0.5c-1,0.5-0.8,0.2-1.6,0.7c0,0-0.2,0.1-0.2,0.1
			c-0.5,0.2,0.3,0-0.4,0.1c0.4,1.5,0,1,1,2.1c0.3,0.3,0.4,0.4,0.7,0.7c1.5,1.3,1.5,1,2.2,1.5l0.4,0.3c0.3,0.2,0.6,0.3,1,0.5
			c0.1,0.1,0.4,0.1,0.5,0.2l0.4,0.4c0.5-0.1,0.9,0.3,1.5,0.4c1.5,0.4,2.6,1.1,2.8,1.1c1,0.4,0.7,0.3,1.7,0.5
			c0.7,0.1,0.9,0.4,1.5,0.5c3.9,0.5,9.5,1.6,13.3,0.5c2.5-0.7,3.8-0.9,6.1-2.2c0.4-0.2,0.8-0.6,1.2-0.8c0.5-0.3,0.8-0.4,1.2-0.8
			l0.9-0.6c0.2-0.2,0.1-0.1,0.3-0.2c0.7-0.6,1.9-1.9,2.5-2.8c0.8-1.2,1.4-1.9,1.7-3.4c0.4-1.8-0.4-2-1.2-2.8
			c-0.8-0.8-0.4-0.2-1.4-0.6c-0.8-0.3-0.6-0.3-1.7-0.5c-1.1-0.1-7.2-0.5-8-0.1c-0.5,0.5,0.2,0.5,0.3,1.1c0.1,1-0.7,0.8-1.4-0.8
			c-0.5-1.1-0.4-3.9-0.3-5.2c0-0.5,0.1-0.7,0.2-1.1c0.4-1.3,0.7-1.1-2.2-1.3c-0.9-0.1-1.3-0.2-2.4-0.2c-1.4,0-4.7-0.3-5.8-0.9
			l-5-1.7c-0.3-0.1-1.5-0.7-1.7-0.6c-0.4,0-0.4,0.1-0.4,0.7c-0.1,2.6-0.1,4.3-0.8,6.8l-0.7,2.9C393.8,284.5,393.6,284.7,393.5,285.4
			z"/>
		<path class="st0" d="M396,298.6c-0.8-0.1-4.8-1.6-5.6-2c-1-0.5-2.1-0.9-2.9-1.6c-1.3-1-1.6-1.2-2.7-2.7c-0.4-0.5-0.6-1.2-1.1-1.4
			c-1.6,0.8-2,1.3-3,2.7c-0.1,0.2-0.2,0.2-0.2,0.4l-3.9,7c-0.5,1-1.6,3.1-1.4,4.3c0.3,0.2,0.6,0.3,0.9,0.5c1,0.6,2.1,1.4,3.3,1.3
			c0.4-0.8,0.1-0.7,0.8-1.4c0.7-0.6,2.1-1.5,3-1.9c1.9-1.1,0.8-0.6,2.4-1c0.5-0.1,0.5-0.2,0.8-0.3c0.3-0.1,0.6-0.1,0.9-0.2
			c0.5-0.1,0.4-0.2,0.9-0.4c0.3-0.1,0.6-0.1,1-0.2c0.6-0.1,0.5-0.2,1-0.3c0.6-0.2,1.4-0.2,2-0.4c1.5-0.4,3.6-0.5,5.3-0.2l1.7,1.2
			l2.2,3.1c0.4,0.9,1.4,2.9,1.5,3.5c0,0.5,0.1,1,0.3,1.5c0,0,0,0.1,0,0.1c0,0,0,0.1,0,0.1c0,0,0,0.1,0,0.1c0.2,0.8,0,1.2,0.6,1.4
			c0.5,0.2,5.5,0,6.1-0.1c1.6-0.3,6.4-1.2,7.6-1.6c0.7-0.3,1-0.4,2-0.4c0-0.5,0-0.6-0.2-0.9c-0.5-1-0.5-2-0.3-3.2
			c0.2-1.2-0.1-1.3,0.4-2.2l1-1.8c0.6-1.1,1.2-1.8,2.3-2.5c0.4-0.2,0-0.1,0.4-0.2c0.5-0.2,0.4-0.1,0.8-0.4c1.3-0.9,0.7-0.4,1.6-0.9
			c2.8-1.6,3.9-0.5,6.8,0.1c1.7,0.4,1.3,0.7,2.4,1.2l1.3,0.7c0.8,0.5,0.6,0.4,0.9,0.9l0.4,0.7c0.2,0.6,0.2,1.5,0.6,1.8
			c0.7-0.2-0.3-0.1,0.9-0.5l0.8-0.4c0.2-0.1,0.1-0.1,0.3-0.2l1.3-1.1c0.7-0.4,1-0.4,1.6-0.8c1.1-0.8,1-0.5,1.5-0.9
			c0.7-0.7,1-0.6,1.5-1c0-1.2,0-0.6-0.4-1.4c-0.1-0.3-0.1-0.5-0.3-0.8c-0.2-0.6-0.1,0-0.4-0.7c-0.1-0.4,0-0.4-0.2-0.8
			c-1-1.9-1.2-1.7-2.4-2.6l-5.4-3.5l-1.5-0.5c-0.2-0.1-1.1-0.7-2.1-0.9c-1.6-0.4-0.7-0.3-1.4-0.5c-1-0.3-0.9-0.5-1.4-0.5
			c-1.8-0.3-2.2-0.7-3.5-0.5c0,0.8,1.7,1.6,0.3,4.7l-2.5,3.8c-0.3,0.3-0.4,0.5-0.7,0.8c-0.2,0.2-0.7,0.6-0.9,0.7
			c-0.3,0.3-0.4,0.6-0.7,0.8c0,0-0.2,0.1-0.2,0.1c-0.2,0.1-0.1,0.1-0.2,0.2c-0.3,0.2-0.1,0.1-0.5,0.4c-0.8,0.5-1.2,0.8-2,1.2
			c-1,0.4-0.7,0.6-1.7,0.9c-1.5,0.5-3.4,1.5-5,1.6c-3,0.1-2.4,0.3-6,0.3c-2.5,0-4.6-0.5-6.8-0.9c-0.6-0.1-0.7-0.2-1.3-0.3
			C396.7,298.9,397,298.7,396,298.6z"/>
		<path class="st2" d="M435,300.2c-0.3-0.1-0.3-0.1-0.5-0.3c-0.4-0.3-0.2-0.1-0.7-0.3c-0.6-0.2-0.7-0.6-1.3-0.6
			c-0.6,0-0.8-0.1-1.4-0.4c0,0-0.1,0-0.1,0l-0.3-0.1c0,0-0.1,0-0.1,0l-0.4-0.1c-0.4-0.1-2.1-0.4-2.7-0.3c-3.1,0.5-1.9,1-3.2,1.5
			c-0.4,0.1-0.9,0.3-1.2,0.5c0,0-0.2,0.1-0.2,0.1l-0.2,0.2c0,0-0.1,0.1-0.1,0.1l-0.9,1c-0.2,0.4-0.3,0.5-0.6,0.9
			c-0.5,0.7-0.1,0.3-0.5,1.2c-0.5,1.2-0.8,2.6-0.4,4c0.1,0.6,0.4,0.6,0.7,0.9c0.1,0,0.4-0.2,0.4-0.2c0.3,0,0.1,0,0.2,0l0.1,0.1
			c0,0,0.1,0,0.1,0.1c0.9,0.5,4.8,1.3,5.7,1.3c0.4,0,1.3-0.5,1.7-0.7l0.2-0.1c0.5-0.3,0.6-0.2,1-0.5c0.3-0.2,0.5-0.3,0.9-0.5
			c1.2-0.7,0.6-0.6,1.5-1.3c1.9-1.6,2.5-0.2,3,0.1c0.4,0.3,0,0.2,0.7,0.3c-0.2-2.1,0.1-3.6-0.6-5.3
			C435.4,300.5,435.4,301.2,435,300.2z"/>
		<path class="st2" d="M384.9,303.8c-0.2,0.3,0,0.1-0.4,0.4c-0.1,0-3.7,1.4-4.4,3.2l4.2,1.3c0.4,0.1,0.9,0.3,1.3,0.3
			c1.1,0,0.7,0.2,1.4,0.4c0.3,0.1,1.2,0.1,1.6,0.2c0.3,0,0.5,0,0.7,0.1c0.4,0.2,0.1,0.2,0.6,0.3l3.5-0.1c0.5-0.1,0.8-0.3,1.3-0.4
			c1.8-0.2,0.7-0.2,1.4-0.4c0.3-0.1,1.3,0,1.7,0c0.2,0.1,0.4,0.3,0.5,0.4l0.3,0.4c1.3,1.7,1.4,0.9,2.1,0.6c0.4-0.2,0.4,0,0.7-0.3
			c0.1-1.2-0.7-2.3-1.1-3.3c-0.3-0.6-0.4-0.1-0.4-1.2l-0.7-0.9c0,0-0.1-0.1-0.1-0.1c-0.2-0.2-0.2-0.2-0.2-0.5c-0.3-1-0.6-1-1.1-1.7
			c-1-1.3-2.2-1.2-4.4-1c-0.7,0.1-1.6,0.1-2.3,0.4c-0.8,0.3-1.5,0.1-2.3,0.5c-0.6,0.3-0.4,0.1-1.1,0.3c-0.9,0.2-0.2,0.2-0.9,0.4
			c-0.5,0.1-0.7,0.1-1.1,0.3C385.6,303.7,385.5,303.9,384.9,303.8z"/>
		<path class="st1" d="M396.7,253.9c-0.1,0.5,0,0.4,0.2,0.8c0.3,0.8,0,0.4,0.7,1.7c0.1,0.3,0.3,0.5,0.6,0.7c0.9,0.6,3.1,0.6,4.2,0.2
			c1.1-0.5,2.2-1.1,2.6-2.4c0.2-0.7,0.1-1.4,0.3-2.1c0.2-0.9,0.3-1.3,0-2.2l-1.4,0l0-0.9c1.1-0.1,1.2,0.7,1.1-1.2l0.1-0.6
			c0.1-0.3,0.2-0.2,0.4-0.3c1.3-0.2,1.8,0.4,2.1,0.4l0.4,0c-0.1-0.4-0.1-0.1-0.4-0.5c-0.6-0.6-0.5-0.4-2.4-0.5c-1,0-4.4-0.1-5.2,0.3
			c-0.7,0.4-0.9,0.1-1.5,0.4c-0.7,0.3,0.2,0.2-0.7,0.3c-0.3,0.1-0.6,0-0.9,0.1c-0.5,0.1-0.1,0.1-0.6,0.4c-0.1,0.1-0.2,0.1-0.3,0.2
			l-0.3,0.1c0.4,0.2,0.8,0,1,0.5L396.7,253.9z"/>
		<path class="st3" d="M401.7,242.4c-1.2-0.3-2.4,0.3-2.7,0.4c-0.6,0.2-0.7,0-1.2,0.3c-0.4,0.2-0.6,0.2-1.3,0.3l0.7-0.7
			c0.1-0.1,0.3-0.2,0.4-0.2l1.8-1.5c0.5-0.3,0.4,0,1.1-0.7l2.7-2.2c0,0,0,0,0.1-0.1c0,0,0,0,0.1-0.1c0,0,0,0,0.1-0.1l2.3-2.5
			c0.1-0.2,0.2-0.2,0.3-0.3c0.9-0.8,0.9-1.3,1.4-1.7c0.1,0.7,0.1,1.6,0.2,2.4l0.8,4.2c0.2,0.7,0.3,1.5,0.3,2.3
			c-0.7-0.1-0.8-0.3-1.7-0.3l-3.8,0c-0.4,0-0.8,0.1-1.2,0.3C401.7,242.3,401.8,242.3,401.7,242.4L401.7,242.4z M388.6,267.7
			c-0.1-0.2-0.2-0.4-0.4-0.6l-2.6-2.6c-1.1-0.9-1.3-3.4-1.6-4.7c-0.1-0.3-0.8-2.3-0.6-3.2c0.1-0.3,0-0.1,0.1-0.3
			c0.5,0.1,0.4,0,1.1,1.3l0.4,0.8c0,0,0,0.1,0,0.1l0.9,1.3c0.9,1,2.1,2,3.2,2.7c0.4,0.2,0.4,0.3,0.7,0.4c0.3,0.2,0.6,0.2,0.9,0.3
			l0.5,0.3c0,0,0.1,0,0.1,0c0.4,0.2,0.6,0.5,0.9,0.6c0.3,0,1.7-0.2,1.9-0.3c0,0-0.1-0.1-0.1-0.1c-0.8-0.8-0.4-0.4-1.3-0.7
			c0-0.9,0.2-1.3-0.3-2c-0.5-0.8-0.6-0.5-0.7-1.7c-0.1-1.7-0.2-1-0.4-1.8c-0.2-0.6-0.1-1.5-0.2-2.2c-0.2-1.9-0.6-7.1,0.2-8.6
			c0.3,0.3,0.1,0.3,0.6,0.4c0.9,0.1,0.6-0.1,0.7-0.4l-0.9,0c-0.1-1.3,0.2-0.5,1.3-1.3c0.4-0.3,0.3-0.1,0.7-0.3
			c1-0.3-0.5-0.1,1.3-0.5c0.6-0.2-0.1-0.2,1.1-0.6c0.9-0.3,1.3-0.7,2.6-0.9c0.5-0.1,0.9-0.3,1.3-0.4c0.2-0.1,0.4-0.1,0.7-0.1
			c0.1,0,0.3,0,0.4,0c0.5-0.1,0.2,0,0.4-0.2c1.1,0.3,4-0.5,5.7-0.1c0.7,0.2,0.8,0.4,1.7,0.2c0.1-1-0.3-1.6-0.5-2.6
			c-0.5-2.8-0.8-3.8-1-6.8l-0.1-1.4c0,0,0-0.1,0-0.1c0,0-0.1,0-0.1,0l-0.4,0.3c-0.5,0.7-0.2,0.5-1,1.4l-3.3,3.5c0,0-0.2,0.3-0.2,0.3
			l-1.6,1.7c-0.7,0.7-0.9,0.3-2,1.5c-0.2,0.2-0.3,0.4-0.5,0.5l-1.1,0.8c-0.2,0.2-0.3,0.3-0.5,0.5c-0.8,0.6-1.6,0.9-2.3,1.6
			c-0.5,0.5-1.1,0.9-1.7,1.2c-0.3,0.1-0.3,0.2-0.7,0.3c-0.6,0.3-0.7,0.4-1.2,0.8c-0.1,2.7-0.1,6,0,8.8c0,0.7,0.2,1.2,0.3,1.8
			c0.3,1.6,0.2,2.1,0.7,3.9c0.1,0.5,0.2,0.4,0.4,0.7c0.2,0.4,0.1,0.8,0.1,1.2c-0.8-0.4-0.6-0.2-1.2-0.5c-0.4-0.2-0.3-0.3-1-0.6
			l-1.6-1.1c-0.5-0.6-1.2-1-1.7-1.6l-2-3c-0.3-0.3-0.2-0.2-0.3-0.5l-0.8-1.6c-0.2-0.6,0-0.7-0.4-1.2c-0.3-0.4-0.2-0.5-0.5-1
			l-0.4-1.2c-0.1-0.7-0.1-0.6-0.4-1.2c-0.2-0.5-0.1-0.9-0.3-1.3c-0.4,0.7-0.3,2.1-0.1,3c0.2,0.9,0.2,2.1,0.4,3
			c0.2,0.9,0.4,1.8,0.6,2.8c0.2,0.8,0.3,2.2,0.6,2.9c0.3,0.6,0.1,0.8,0.3,1.4c0.1,0.6,0.4,0.1,0.5,1.3c0.1,0.9,0.7,2.5,1.4,3.1
			l0.6,0.6c0,0,0,0,0.1,0.1c0.6,0.6,1.1,1.3,1.8,1.7L388.6,267.7z"/>
		<path class="st4" d="M401.8,311.7c-0.9,0.1-0.3,0.4-1.1,0.4c0,0-2.1-0.4-2.4-0.7l-0.9-0.9c-0.1,0-0.5-0.3-0.5-0.3
			c-0.9-0.2-1.3,1.4-5.4,1.3c-1,0-1.6-0.2-2.3-0.5c-0.6-0.2-0.3-0.3-0.9-0.5c-0.7-0.3-0.6-0.4-1.2-0.9l-1.4-0.8
			c-0.5,0-1-0.2-1.3-0.3l-4.2-1.3c0.7-1.8,4.3-3.1,4.4-3.2c0.4-0.3,0.2-0.1,0.4-0.4c-0.7-0.1-0.6,0.1-1,0.3
			c-0.5,0.2-0.8,0.3-1.7,0.8c-1.1,0.7-0.6,0.3-0.8,0.2c1.2-0.6-0.2,0,1.2-0.7l0.5-0.3c0.7-0.3,0.3,0.1,0.9-0.4
			c0.6-0.5,0.5-0.1,1.1-0.4c0.9-0.5,0-0.2,1.1-0.4c0.7-0.1,0.3-0.1,0.7-0.4c0.6-0.3,0.9-0.1,1.6-0.4l3.3-0.7
			c0.6-0.1,1.1-0.3,1.6-0.4c0.9-0.2,3.2-0.3,4.1,0.2c0.7,0.5,1.3,1.1,1.8,1.8l0.4,0.5c0.7,0.8,0.4,0.9,1.3,2.1l0.1,0.1
			c0,0,0,0.1,0.1,0.1c0.4,0.6,0.3,0.4,0.5,1c0.2,0.6,0.4,0.8,0.7,1.5c0.3,0.1,0,0,0.5,0.1c-0.1-0.5-1.1-2.5-1.5-3.5l-2.2-3.1
			l-1.7-1.2c-1.7-0.3-3.8-0.2-5.3,0.2c-0.6,0.2-1.4,0.2-2,0.4c-0.5,0.1-0.4,0.2-1,0.3c-0.4,0.1-0.6,0.1-1,0.2
			c-0.4,0.1-0.4,0.2-0.9,0.4c-0.3,0.1-0.6,0.1-0.9,0.2c-0.3,0.1-0.3,0.2-0.8,0.3c-1.6,0.3-0.5-0.1-2.4,1c-0.9,0.5-2.3,1.3-3,1.9
			c-0.8,0.7-0.4,0.6-0.8,1.4c-1.2,0.1-2.4-0.7-3.3-1.3c-0.4-0.2-0.6-0.3-0.9-0.5c-0.1-1.2,0.9-3.2,1.4-4.3l3.9-7
			c0.1-0.2,0.1-0.2,0.2-0.4c1-1.4,1.4-1.8,3-2.7c0.5,0.2,0.7,1,1.1,1.4c1.1,1.5,1.4,1.7,2.7,2.7c0.9,0.7,2,1.1,2.9,1.6
			c0.8,0.4,4.8,1.9,5.6,2c-0.2-0.3,0,0-0.2-0.2c-0.7-0.6-0.6-0.1-1.9-0.8c-0.4-0.2-0.7-0.1-1.2-0.4c-1.2-0.7-0.5,0-1.4-0.6
			c-0.2-0.1,0-0.1-0.2-0.1c-0.3-0.1-0.4,0-0.6-0.2c-0.6-0.3,0.1-0.1-0.4-0.3c-0.4-0.2-0.3,0-0.8-0.4c-0.5-0.4,0.3,0.1-0.2-0.2
			c-0.2-0.1-0.3,0-0.8-0.3c0,0,0,0-0.1-0.1c0,0,0,0-0.1-0.1c0,0-0.1,0-0.1,0c-0.6-0.4-0.3,0.1-0.5-0.6c1.1,0.1,0.9,0.3,1,0.4
			c0.2,0.2,0.1,0.1,0.4,0.3l1.5,0.7c0.4,0.2-0.1,0,0.4,0.2c0.4,0.2,0.3,0.1,0.7,0.1l-0.4-0.4c-0.2-0.1-0.4-0.2-0.5-0.2
			c-0.4-0.2-0.7-0.3-1-0.5l-0.4-0.3c-0.6-0.5-0.7-0.2-2.2-1.5c-0.3-0.2-0.4-0.4-0.7-0.7c-1-1.1-0.6-0.6-1-2.1
			c0.7-0.1-0.1,0.1,0.4-0.1c0.1,0,0.2-0.1,0.2-0.1c0.8-0.5,0.6-0.2,1.6-0.7l1-0.5c0.4-0.2,1.6-0.4,1.1,0.3c-0.4,0.7-0.9,0.1-0.9,1.3
			c1.2,0.1,2.9-2,3.1-2.8c-0.6,0.3-0.4,0.2-0.7,0.6l-0.4,0.4c0,0-0.1,0-0.1,0.1c0,0-0.1,0.1-0.1,0.1c0,0-0.1,0-0.1,0.1l-0.2-0.4
			c-0.1-0.1,0-0.6-0.6-0.4c-1.5,0.6-0.6,0.1-1.4,0.4c-0.6,0.2-0.2,0.2-0.9,0.4c-2.1,0.5-0.5,0.3-1.8,0.6c-0.5,0.1-0.5,0.1-0.8,0.5
			l-0.4,0.6c-1.5-0.1-1,0.1-2.2,0.8c-0.8,0.5-1.1,0.6-1.5,1.5c-0.1,0.2,0,0.1-0.1,0.2c-0.2,0.3,0,0-0.2,0.2
			c-0.2,0.3-0.1,0.2-0.2,0.5c-0.2,0.4-0.4,0.5-0.9,1.4l-2.5,4.4c-0.2,0.3-0.1,0.2-0.2,0.5c-0.1,0.2,0,0.1-0.1,0.3
			c0,0.1-0.2,0.2-0.2,0.3c-0.2,0.3-0.1,0.3-0.4,0.8c-0.5,0.8-0.1,0.4-0.4,1.1c-0.1,0.4,0,0-0.1,0.3c-0.5,0.7-0.1,0.3-0.3,1.1
			c-0.2,0.8-0.4,0.2-0.3,1.2c0.3,0.2,0.5,0.2,0.8,0.5l2.6,1.4c0.9,0.3,0.1,0.4,1.4,0.5l4.2,1.3c1.6,0.7,1.2-0.3,3.9,1.6
			c2,1.4,3.5,1.5,6,1.3c1-0.1,0.8-0.1,1.5-0.4c0.9-0.4,0.7,0.1,1.2-0.7c0.3,0,0.7-0.1,0.9,0c0.8,0.3-0.1,0.6,1.8,1.2
			C399.8,312.3,401.3,312.9,401.8,311.7z"/>
		<path class="st5" d="M412.3,249.9c0,0.8,0.8,1,1.5,1l0.2,0.3c0.1,0.1,0.1,0.1,0.2,0.3c0.8-0.3,0.4-1.1,0.3-1.8
			c-0.2-0.7,0.1-0.6-0.4-2.3c-0.1-0.4-0.1-0.7-0.2-1.1c-0.1-0.6-0.6-2.2-0.6-2.6l0.2-0.7c0,0,0,0,0.1,0.1l0.1,0.5
			c0.1,0.6,1.1,2.5,1.5,3.1c1.8,2.7,2.7,1.3,3.2,1.1c0.5,0.7,0.4,0.6,0.6,1.4l1.3,2.9c0.6,1-0.4,1.9,1.5,2.1c0.7,0,0.8,0,1-0.6
			c0,0-0.1,0-0.1,0.1c0,0-0.1,0-0.1,0.1c-0.8,0.4-0.7,0.3-1.7,0c0.1-1.2-0.5-1.4-0.8-2.4c-0.2-1-0.9-2.3-1.1-3
			c-0.1-0.6,0-0.6-0.3-1.1c-0.3-0.6-1.4-6.2-1.4-7c0-1.1-0.1-1.5-0.3-2.4c-0.3-1.3-0.1-4.4-0.4-5.2l-0.4,1.7c-0.1,0.6,0,1.4,0,2
			c0,1.6,0,6.7,0.2,7.9l0.5,3c0.1,0.8-0.4,0.5-0.4,0.5c-0.4-0.1-0.1,0-0.4-0.3c-0.9-0.7-0.4,0-1.1-1.2c-0.3-0.4-0.2-0.2-0.4-0.7
			c-1.5-3.2-1.8-6.8-2.5-10.2c0-0.2-0.1-0.4-0.1-0.5l-0.2-0.4c-0.6,1.5-0.5,11.8,1.1,15.1c0.2,0.4,0.4,1.1-0.3,0.8L412.3,249.9z"/>
		<path class="st5" d="M435,300.2c0.3,1,0.4,0.2,0.8,1.3c0.6,1.7,0.4,3.2,0.6,5.3c-0.7-0.1-0.2,0-0.7-0.3c-0.5-0.4-1.1-1.7-3-0.1
			c-0.9,0.7-0.2,0.6-1.5,1.3c-0.4,0.2-0.6,0.3-0.9,0.5c-0.5,0.3-0.5,0.2-1,0.5l-0.2,0.1c-0.4,0.2-1.3,0.7-1.7,0.7
			c-0.9,0.1-4.8-0.8-5.7-1.3c0,0-0.1,0-0.1-0.1l-0.1-0.1c-0.1,0,0.1-0.1-0.2,0c-0.1,0-0.4,0.1-0.4,0.2c-0.3-0.3-0.6-0.3-0.7-0.9
			c-0.3-1.3,0-2.8,0.4-4c0.3-0.9-0.1-0.5,0.5-1.2c0.3-0.4,0.4-0.5,0.6-0.9l0.9-1c0,0,0.1-0.1,0.1-0.1l0.2-0.2c0,0,0.2-0.1,0.2-0.1
			c0.3-0.2,0.8-0.3,1.2-0.5c1.3-0.5,0.1-0.9,3.2-1.5c0.6-0.1,2.3,0.2,2.7,0.3l0.4,0.1c0,0,0.1,0,0.1,0l0.3,0.1c0,0,0.1,0,0.1,0
			c0.6,0.3,0.8,0.4,1.4,0.4c-0.1-0.5-0.4-0.4-0.9-0.6c-0.5-0.2-0.3-0.2-1-0.4l-2.2-0.6c-1.3-0.1-1.4,0.1-2.3,0.4
			c-1,0.3-1.1,0.3-1.6,1.1c-1.2,0.1-0.6,0-1.4,0.5c-1.4,1-1.9,1.9-2.6,3.1c-0.5,0.8-0.3,0.2-0.5,1.4c-0.2,1-0.7,2.1-0.2,3.4
			c0.3,0.9,0.3,0.6,0.9,1.2c0,1.1-0.2,0.7-0.4,1.3c0.5,0.4,0.2,0.5,1.4,1c1.3,0.5,5.1,0.8,6.8,0.5c1.9-0.4,3-0.6,4.2-2
			c0.9-1,0.7-1.7,1.3-2.5c1.4,0,0.4,0.6,2.2,1.3c0.5-0.7,0.8-1.1,0.7-1.9c-0.1-0.8-0.1-1.7-0.2-2.5
			C436.5,302.7,436.5,300.7,435,300.2z"/>
		<path class="st6" d="M432.7,245.4c0.4-0.1,0.3-0.3,0.9-0.5c0.7-0.3,3-0.3,3.7-0.2c0.1,0.9-0.5,1.4-0.9,1.9l-4-0.2
			C432.4,245.8,432.7,246,432.7,245.4L432.7,245.4z M437.9,246c0,0.8-0.7,0.4,0.1,1.5c0.4,0.5,1.2,0.6,1.9,0.7
			c1.1,0.1,0.2,0.5,1.1,0.5c0.4-0.6,0.6-3.6,0.4-4.4c-0.2,0.4-1,2.5-1.7,2.2c-0.9-0.4,1-1.7,0.1-3.2c-0.2,0.2-0.3,0.3-0.4,0.5
			C439.2,244.6,438.7,245.8,437.9,246z M437.9,246c-0.6-0.4-0.1,0.1-0.3-0.4c-0.1-0.2-0.1-0.2-0.1-0.4c0-0.1,0-0.6,0-0.8
			c-0.8-0.2-1.7-0.1-2.6-0.1c-1.6,0.1-1.3,0-2.3,0.6l0,0.4c-0.2,0.1-0.7,0.2-0.6,0.9c0,1.1,2,0.4,3.2,0.6c0.9,0.2,1.1,0.5,1.9-0.5
			c0.3-0.3,0-0.1,0.3-0.3c0,2.1,0.2,0.7,0.5,2.1c0.4,0.1,1,0.1,1.4,0.2l1.2,0.5c-0.3,0.3,0.3,0.3-0.7,0.3c-0.7,0-0.8-0.5-2-0.6
			c-1-0.1-2.4-0.1-3,0.2l0,1.4c-0.6-0.1-0.6-0.2-0.8-0.2c-0.4,0-0.8,0.4-1,0.7c0,0-0.2,0.3-0.2,1c0.5,0.3,0.9,0.7,1.5,0.2
			c0.4-0.3,0-0.2,0.5-0.4c0,1.2,0.2,2.6-0.3,3.4c-0.3,0.5-0.1,0.6-0.3,1c-0.1,0.3-0.2,0.2-0.5,0.7c-0.2,0.4-0.3,0.4-0.6,0.7
			c-0.6,0.4-1.4,0.4-2.2,0.4c-0.2-0.3-0.2-0.6-0.4-0.8c-0.2-0.2-0.5-0.2-0.9-0.4c-0.4-0.2-0.3-0.4-0.5-0.7c-0.3-0.5-0.2-0.3-0.4-1
			c-0.4-1.6-0.4-1.8-0.3-3.5c0-0.9,0.1-1.6-0.9-1.3l-0.2,0.1c-0.7,0.3-0.7,0.1-1.1,0.4l-0.4,0.3c-0.6,0.4-0.5,0.4-1.2,0.6
			c-1.2,0.3-0.3,0.5-1.9,2c-0.2,0.2-0.4,0.4-0.7,0.5c-0.8-0.3-0.4-0.4-0.8-1.2l-0.5-1c-0.3-0.3,0.2-0.1-0.4-0.3
			c0.3,1,0.8,1.2,0.8,2.4c1,0.3,0.9,0.4,1.7,0c0,0,0.1,0,0.1-0.1c0,0,0.1,0,0.1-0.1l0.5-0.5c0.9-1.2,0.2-0.9,1.6-1.6l2.9-1.5
			c0.3,1.1,0,2.5,0.2,3.7c0.1,0.9,0.3,0.8,0.4,1.5c0.1,0.5,0,0.5,0.3,0.8l0.7,0.8c1,0.7,1.4,1.3,1.9,1.3c0.8,0,2-0.5,2.6-1.3
			c1-1.4,0.9-1.9,1.2-2.7c0.4-1,0.3-2.4,0.3-3.6c0-0.3,0-0.6,0-0.9c0-1,0.2-0.7,2.2-0.4c0.4,0.1,1.4,0.1,1.8,0.3
			c0.3,0.2,0.1,0.3,0.6,0.4c0.3,0.1,0.7,0,1,0c0,0.9-0.2,1.7-0.4,2.6c-0.1,0.7-0.5,0.6-0.9,1.4c-0.7,1.2-0.4,0.1-1,1.2
			c-0.6,1.1-1.3,2.2-1.3,3.4c0.3-0.3,0.1-0.2,0.4-0.7c0.5-1,0.6-1.7,1.2-2.1c-0.1,1.1-0.1,0.5-0.4,1.1c-0.2,0.3-0.1,0.7-0.3,1
			c-0.1,0.2-0.8,1.2-0.3,2.2l0.7-0.7c0.2-0.3,0-0.1,0.2-0.2l0.7-0.8c0.3-0.4,0.6-1.1,0.7-1.7c0.1-0.7,0.7-1.4,0.4-2.2
			c-0.2-0.5-0.2,0-0.5-0.6c0.5-0.9,0.9-0.7,1-1.9c0.2-2.2,0.3-1.4,0.5-2.5c0.1-0.9,0.3-5.2,0.1-5.7c-1.1,0-0.1,0.2-0.9,0.8
			c-0.2-0.2-0.1-0.1-0.2-0.5c0-0.1,0-0.5,0-0.6c0-0.4-0.1-0.6-0.1-0.9c-1.3-0.1-0.6,0.1-1.6,1.9L437.9,246z"/>
		<path class="st7" d="M379.6,261.2c-0.3-1.1-1.1-1.1-1.5-2.2l-0.8-1.7c-0.2-0.4-0.1-0.7-0.3-1c-0.1-0.3-0.2-0.2-0.4-0.8
			c-0.3-0.9-0.4-0.8-0.5-1.3c-0.3-1.5-0.7-2.2-0.9-3.5c-0.2-1.1-0.1-2-2-0.7c-0.2,0.2-0.3,0.4-0.5,0.7l-0.4,0.6c0,0,0,0.1,0,0.1
			c-0.6,1-0.5,2.9-0.2,3.4c0.5,1.1,0.2,0.7,0.7,2.1c0.3,0.8-0.1,0.3,0.5,1.2l0.2,0.3c0.2,0.4,0.3,0.3,0.6,0.6
			c0.3,0.2,0.4,0.4,0.6,0.7c0.7,0.8,1.9,1.8,3,2C378.6,261.9,379.2,261.5,379.6,261.2z"/>
		<path class="st2" d="M401.7,242.4c0.1-0.1,0,0,0.2-0.2c0.3-0.2,0.8-0.3,1.2-0.3l3.8,0c0.9,0,1,0.2,1.7,0.3c0-0.8-0.1-1.6-0.3-2.3
			l-0.8-4.2c-0.1-0.8-0.1-1.6-0.2-2.4c-0.5,0.4-0.5,1-1.4,1.7c-0.1,0.1-0.2,0.1-0.3,0.3l-2.3,2.5c0,0,0,0-0.1,0.1c0,0,0,0-0.1,0.1
			c0,0,0,0-0.1,0.1l-2.7,2.2c-0.7,0.7-0.6,0.4-1.1,0.7l-1.8,1.5c-0.1,0.1-0.3,0.2-0.4,0.2l-0.7,0.7c0.6,0,0.8-0.1,1.3-0.3
			c0.5-0.2,0.6-0.1,1.2-0.3C399.4,242.7,400.5,242.1,401.7,242.4z"/>
		<path class="st8" d="M380.5,242.7c-0.6-0.2-0.9-0.7-1.3-1.1l-2.2-2.5c-0.6-0.8-0.9-0.8-0.9-1.4c0-0.4,0-0.2,0.6-0.8l4.2-3.5
			c0.7,0.5,0.8,0.5,1.3,1.3l0.7,1c0.3,0.4,1.1,2.1,1.7,2.9c0.3,0.3,0.3,0.6,0.2,1.1c-0.7,0.6-2.2,1-2.6,1.5c0,0,0,0-0.1,0.1
			c0,0,0,0-0.1,0.1L380.5,242.7L380.5,242.7z M379.9,244.2c0.8,0,1.5-0.4,2.2-0.8l3.9-2.9c0.1-0.1,0.3-0.2,0.4-0.3
			c0.9-1-0.6-2.4-0.7-2.5c-0.2-0.3-0.1-0.2-0.3-0.5c-0.5-0.8-1.9-2.7-2.5-3.5c-0.5-0.8-0.2-0.5-0.8-1.1l-0.5-0.7l-0.8,0
			c-0.4,0.7,0.1,0.2-1.6,1.3c-2.1,1.4-1.2,1-2.3,1.8c0,0-0.1,0-0.1,0.1c-2.5,1.9-1.9,2.1-1.4,3.5c0.3,0.8,1.3,1.9,1.9,2.5
			L379.9,244.2z"/>
		<path class="st0" d="M378.3,237.3c0.6-0.3,3.1-0.6,4-0.1c0.1,1.1,0.1,1.6-0.3,2.1c-0.5,0.8,0,1.5-1.2,1.4
			c-0.3-0.5-0.1-0.7-0.2-1.4c0-0.5-0.1-0.8-0.5-0.9C379.2,238.1,378.2,238.8,378.3,237.3L378.3,237.3z M380.5,242.7l1.7-1.5
			c0,0,0,0,0.1-0.1c0,0,0,0,0.1-0.1c0.5-0.4,1.9-0.9,2.6-1.5c0.1-0.5,0.1-0.8-0.2-1.1c-0.6-0.8-1.4-2.5-1.7-2.9l-0.7-1
			c-0.5-0.8-0.5-0.8-1.3-1.3l-4.2,3.5c-0.7,0.6-0.6,0.4-0.6,0.8c0,0.6,0.3,0.6,0.9,1.4l2.2,2.5C379.7,242.1,379.9,242.5,380.5,242.7
			z"/>
		<path class="st6" d="M396.7,253.9l-0.1-4.3c-0.2-0.5-0.5-0.3-1-0.5l0.3-0.1c0.1-0.1,0.2-0.1,0.3-0.2c0.4-0.3,0-0.3,0.6-0.4
			c0.2-0.1,0.6,0,0.9-0.1c0.9-0.2,0-0.1,0.7-0.3c0.6-0.2,0.8,0,1.5-0.4c0.8-0.4,4.2-0.3,5.2-0.3c1.9,0,1.7-0.1,2.4,0.5
			c0.3,0.3,0.4,0.1,0.4,0.5l-0.4,0c0.1,0.2-0.1,0.3,0.4,0.4c0.3,0,0.3-0.1,0.3-0.3c0.2-0.5-0.3-0.6-0.5-0.9c0.4-0.8,0.5,0,0.5-1.1
			c-1.7-1-6.8-1-8-0.5c-0.6,0.3-0.4,0.2-1.2,0.3c-0.6,0.1-0.3,0.2-0.8,0.4c-0.9,0.4-0.2-0.2-1.5,0.5c-0.4,0.2-0.4,0.1-0.8,0.4
			l-1.3,0.7c-0.7,0.3-0.7,0.6-1.4,1.1c-0.4,0.3-0.4,0.3-0.6,1c0.6,0.3,0.2,0.5,1,0.6c0.4,0,0.4-0.2,1-0.7l1.4-0.6
			c0.4,0.8,0.2,1.2,0.3,2.2c0.1,0.4,0.1,0.7,0.2,1.1c0,0.2,0,0.4,0.1,0.6C396.6,253.9,396.5,253.6,396.7,253.9z"/>
		<path class="st9" d="M432.5,231.3c-0.2,0.6-0.2,1.1-0.5,1.7l-1,3.5c-0.3,0.7-0.2-0.1-0.3,0.8c-0.3,1.5-0.4,0.8-0.6,1.7l-1.2,3.3
			c-0.1,0.3-0.2,0.4-0.3,0.8c-0.2,0.4-0.9,1.2-0.2,1.5c0.4,0.1,0.8-0.2,1.7-0.4c0.5-0.1,1.3-0.3,1.6-0.7l0.6-3.9
			c0.1-3.1,0.2-2.3,0.4-4.1C432.8,234.3,433,232.2,432.5,231.3z"/>
		<path class="st5" d="M385.7,309l1.4,0.8c0.5,0.5,0.5,0.6,1.2,0.9c0.5,0.2,0.3,0.3,0.9,0.5c0.8,0.3,1.3,0.5,2.3,0.5
			c4.2,0.1,4.6-1.6,5.4-1.3c0,0,0.4,0.2,0.5,0.3l0.9,0.9c0.3,0.2,2.4,0.7,2.4,0.7c0.8,0,0.2-0.3,1.1-0.4c0.4-0.4,0.6-0.7,0.5-1.5
			l-0.5-1.7c-0.1-0.3-0.2-0.3-0.4-0.6c-0.3-0.7-0.6-1.7-1.2-2.1c0,1.1,0.1,0.5,0.4,1.2c0.5,1,1.2,2.2,1.1,3.3
			c-0.4,0.2-0.4,0.1-0.7,0.3c-0.7,0.3-0.8,1.1-2.1-0.6l-0.3-0.4c-0.1-0.1-0.3-0.4-0.5-0.4c-0.4,0-1.4-0.1-1.7,0
			c-0.7,0.2,0.4,0.1-1.4,0.4c-0.5,0.1-0.9,0.3-1.3,0.4l-3.5,0.1c-0.6-0.1-0.3-0.1-0.6-0.3c-0.2-0.1-0.4-0.1-0.7-0.1
			c-0.4-0.1-1.3-0.1-1.6-0.2C386.4,309.2,386.8,309,385.7,309z"/>
		<path class="st10" d="M434,243.4c4.6,0.4,3.8,0.2,4.2-2.2c0.4-3.1,0.5-2.9,0.5-6.4c0-0.9,0.1-1.3-0.3-1.9
			c-0.2,0.1-0.3,0.2-0.4,0.6c-0.1,0.3,0,0.5-0.1,0.8l-0.2,0.6c-0.1,0.3-0.2,0.4-0.3,0.7c-0.2,0.4-0.3,1.1-0.5,1.4
			c-0.2,0.5-0.2,0.2-0.3,0.5c-0.1,0.3-0.1,0.4-0.3,0.8l-1.8,3.9C434.1,242.6,433.9,242.6,434,243.4z"/>
		<path class="st11" d="M400.7,262.8c0-0.5,0.1-0.9-0.1-1.3c-0.5-0.7-1.4-1.4-2.3-1.6c-1.2-0.2-3.7-0.3-3.8,1.5c0,0.4,0,0.9,0.2,1.1
			l0.1,0.1c0.2,0.3,0.8,0.9,1.2,1.1C399,265.1,400.1,263.2,400.7,262.8z"/>
		<path class="st11" d="M430.4,259.7c-0.7,0.2-1.6,0.9-1.8,1.6c-0.1,0.4,0,0.8,0.1,1.1l0.4,0.7c1.4,1.4,5.7-0.3,4.7-2.5
			C433.6,259.8,431.7,259.3,430.4,259.7z"/>
		<path class="st9" d="M366.9,243.5c0.4-0.9-0.2-1-0.4-2.8c-0.1-0.5-0.2-0.6-0.2-1c-0.3-1.9-0.4-7.1-0.2-9l0-3.5
			c-0.1-0.4-0.2-0.4-0.2-1.1c-0.6,1.1-0.2,1.5-0.7,3c-0.3,1-0.2,1.6-0.3,2.4c0,0.3-0.2,0.8-0.2,1.2c-0.1,0.8,0.2,1.6,0.2,2.4
			c0.1,3,0.4,2.4,0.5,3.4c0.2,1.9,0.2,1,0.5,2.2l0.7,2.6C366.9,243.7,366.5,243.5,366.9,243.5z"/>
		<path class="st10" d="M437.9,246c0,0.8-0.7,0.4,0.1,1.5c0.4,0.5,1.2,0.6,1.9,0.7c1.1,0.1,0.2,0.5,1.1,0.5c0.4-0.6,0.6-3.6,0.4-4.4
			c-0.2,0.4-1,2.5-1.7,2.2c-0.9-0.4,1-1.7,0.1-3.2c-0.2,0.2-0.3,0.3-0.4,0.5C439.2,244.6,438.7,245.8,437.9,246z"/>
		<path class="st12" d="M430.4,250.8c-1,0-1,0.3-1,1.4c0,0.8,0,1.5,0.3,2.1c0.5,1.1,1.5,2.3,3,1.8c0.4-0.1,1.4-0.8,1-1.3
			c-0.5-0.8-2.2,1.1-2.8-2C430.7,252,430.6,251.4,430.4,250.8z"/>
		<path class="st6" d="M428,247.8c-0.8-0.1-0.4,0.3-1.5,0.4c0.1-1,0.8-1.5,1.6-1.9c0.2-0.1,0.4-0.1,0.6-0.2c0.3-0.1,0.1-0.1,0.6-0.3
			c0.4-0.1,1.5-0.5,1.5,0.1C430.9,247.2,428.7,246.9,428,247.8z M428,247.8c0.8,0.2,1-0.2,1.2-0.3c0.3-0.2,2.2-0.1,2.1-1.7
			c-0.1-1.4-1.2-0.4-1.8-0.3c-1.6,0.4-0.7,0.3-1.7,0.6c-0.5,0.1-1.1,0.5-1.3,0.9c-0.1,0.3-0.1,0.5-0.3,0.8c-0.3,0.5-0.3,0.2-0.3,1
			l0.9,0.2c-0.4,0.7-0.5-0.2-0.7,0.7l0.2,0.1c0.1,0,0.1,0.1,0.3,0.1c0.8,0,0.4-0.1,0.5-0.2c0.4-0.2-0.3,0,0.4-0.2
			c0.2,0,0.4,0,0.6-0.1c0.5-0.1,0.4-0.2,0.8-0.4c0.3-0.1,0.9-0.1,1.2-0.2c0.2-0.4,0.9-1.2-0.4-1.2c-0.8,0-0.4,0.5-1.6,0.5
			C428,247.9,428,248.3,428,247.8z"/>
		<path class="st13" d="M378.3,237.3c-0.1,1.5,0.9,0.8,1.9,1.1c0.4,0.1,0.5,0.5,0.5,0.9c0,0.7-0.1,0.9,0.2,1.4
			c1.2,0.1,0.7-0.6,1.2-1.4c0.4-0.6,0.4-1.1,0.3-2.1C381.4,236.7,378.9,237,378.3,237.3z"/>
		<path class="st7" d="M432.7,245.4c0,0.6-0.2,0.4-0.3,1l4,0.2c0.4-0.5,1-1.1,0.9-1.9c-0.7-0.2-2.9-0.1-3.7,0.2
			C433,245.1,433.1,245.3,432.7,245.4z"/>
		<path class="st7" d="M428,247.8c0.7-0.9,2.9-0.6,2.8-1.9c0-0.5-1.1-0.2-1.5-0.1c-0.4,0.2-0.2,0.1-0.6,0.3
			c-0.2,0.1-0.4,0.1-0.6,0.2c-0.8,0.4-1.6,0.9-1.6,1.9C427.6,248.1,427.2,247.7,428,247.8z"/>
	</g>
	<path class="st0" d="M37.7,257.8l5.4-0.5c0.3,2.2,0.8,4,1.8,5.4c0.9,1.4,2.4,2.5,4.4,3.4c2,0.9,4.2,1.3,6.7,1.3
		c2.2,0,4.1-0.3,5.8-1c1.7-0.7,2.9-1.6,3.7-2.7c0.8-1.1,1.2-2.4,1.2-3.7c0-1.4-0.4-2.5-1.2-3.6c-0.8-1-2.1-1.9-3.9-2.6
		c-1.2-0.4-3.7-1.2-7.7-2.1c-4-1-6.8-1.9-8.4-2.7c-2.1-1.1-3.6-2.4-4.6-4c-1-1.6-1.5-3.4-1.5-5.4c0-2.2,0.6-4.3,1.9-6.2
		c1.2-1.9,3-3.4,5.4-4.3c2.4-1,5-1.5,8-1.5c3.2,0,6,0.5,8.5,1.6c2.5,1,4.3,2.6,5.7,4.6c1.3,2,2,4.3,2.1,6.8l-5.5,0.4
		c-0.3-2.7-1.3-4.8-3-6.2c-1.7-1.4-4.2-2.1-7.6-2.1c-3.5,0-6,0.6-7.6,1.9s-2.4,2.8-2.4,4.6c0,1.6,0.6,2.8,1.7,3.8c1.1,1,4,2,8.7,3.1
		c4.7,1.1,7.9,2,9.6,2.8c2.5,1.2,4.4,2.6,5.6,4.4c1.2,1.8,1.8,3.8,1.8,6.2c0,2.3-0.7,4.5-2,6.5c-1.3,2-3.2,3.6-5.7,4.8
		c-2.5,1.1-5.3,1.7-8.4,1.7c-3.9,0-7.2-0.6-9.8-1.7c-2.7-1.1-4.7-2.9-6.2-5.2C38.6,263.3,37.8,260.7,37.7,257.8L37.7,257.8z
		 M110.9,261.5l5.5,0.7c-0.9,3.2-2.5,5.7-4.8,7.5c-2.3,1.8-5.3,2.7-9,2.7c-4.6,0-8.2-1.4-10.9-4.2c-2.7-2.8-4-6.8-4-11.9
		c0-5.3,1.4-9.4,4.1-12.3c2.7-2.9,6.2-4.4,10.6-4.4c4.2,0,7.6,1.4,10.3,4.3c2.7,2.9,4,6.9,4,12.1c0,0.3,0,0.8,0,1.4H93.1
		c0.2,3.4,1.2,6.1,2.9,7.9c1.7,1.8,3.9,2.7,6.6,2.7c1.9,0,3.6-0.5,5-1.5C109,265.4,110.1,263.8,110.9,261.5L110.9,261.5z M93.5,253
		H111c-0.2-2.6-0.9-4.6-2-5.9c-1.7-2.1-3.9-3.1-6.6-3.1c-2.4,0-4.5,0.8-6.2,2.5C94.6,248,93.6,250.2,93.5,253L93.5,253z
		 M133.2,271.7v-31.4h4.8v4.8c1.2-2.2,2.4-3.7,3.4-4.4c1-0.7,2.2-1.1,3.4-1.1c1.8,0,3.6,0.6,5.5,1.7l-1.9,4.9
		c-1.3-0.7-2.6-1.1-3.9-1.1c-1.2,0-2.2,0.4-3.1,1.1c-0.9,0.7-1.6,1.7-2,2.9c-0.6,1.9-0.9,4-0.9,6.2v16.4H133.2L133.2,271.7z
		 M172.2,271.7l-11.9-31.4h5.7l6.7,18.8c0.7,2,1.4,4.1,2,6.3c0.5-1.7,1.1-3.6,2-6l7-19.2h5.5l-11.9,31.4H172.2L172.2,271.7z
		 M225.5,261.5l5.5,0.7c-0.9,3.2-2.5,5.7-4.8,7.5c-2.3,1.8-5.3,2.7-9,2.7c-4.6,0-8.2-1.4-10.9-4.2c-2.7-2.8-4-6.8-4-11.9
		c0-5.3,1.4-9.4,4.1-12.3c2.7-2.9,6.2-4.4,10.6-4.4c4.2,0,7.6,1.4,10.3,4.3c2.7,2.9,4,6.9,4,12.1c0,0.3,0,0.8,0,1.4h-23.4
		c0.2,3.4,1.2,6.1,2.9,7.9c1.7,1.8,3.9,2.7,6.6,2.7c1.9,0,3.6-0.5,5-1.5C223.6,265.4,224.6,263.8,225.5,261.5L225.5,261.5z M208,253
		h17.5c-0.2-2.6-0.9-4.6-2-5.9c-1.7-2.1-3.9-3.1-6.6-3.1c-2.4,0-4.5,0.8-6.2,2.5C209.1,248,208.2,250.2,208,253L208,253z
		 M247.8,271.7v-31.4h4.8v4.8c1.2-2.2,2.4-3.7,3.4-4.4c1-0.7,2.2-1.1,3.4-1.1c1.8,0,3.6,0.6,5.5,1.7l-1.9,4.9
		c-1.3-0.7-2.6-1.1-3.9-1.1c-1.2,0-2.2,0.4-3.1,1.1c-0.9,0.7-1.6,1.7-2,2.9c-0.6,1.9-0.9,4-0.9,6.2v16.4H247.8z"/>
</g>
</svg>
