<?xml version="1.0" encoding="utf-8"?>
<!-- Generator: Adobe Illustrator 26.0.0, SVG Export Plug-In . SVG Version: 6.00 Build 0)  -->
<svg version="1.1" id="Layer_1" xmlns="http://www.w3.org/2000/svg" xmlns:xlink="http://www.w3.org/1999/xlink" x="0px" y="0px"
	 viewBox="0 0 500 500" style="enable-background:new 0 0 500 500;" xml:space="preserve">
<style type="text/css">
	.st0{fill:#0675C1;}
</style>
<g>
	<g>
		<path class="st0" d="M271.3,224.6l-8.1,9.5c-5.6-4.6-11.1-6.7-17.6-6.7c-7,0-11.6,3-11.6,8.6s3,7.9,16,11.8
			c14.4,4.6,23.7,10.7,23.7,25.3c0,14.6-11.6,24.8-30.9,24.8c-13.2,0-23-4.6-29.5-11.1l8.8-9.7c5.6,5.1,12.1,8.1,20.2,8.1
			s13.7-3.9,13.7-10.9c0-6.3-3-9-15.3-12.8c-17.4-5.3-24.1-12.3-24.1-24.4c0-13.7,11.8-22.5,27.8-22.5
			C256.5,214.6,264.6,218.1,271.3,224.6z"/>
		<path class="st0" d="M302.4,228.8v22.5h23.9v12.5h-23.9v32.5h-16.9v-79.8h46.4l-1.9,12.3H302.4z"/>
		<path class="st0" d="M372.5,229.7v66.6h-16.9v-66.6h-21.1v-13.2h60.3l-1.9,13.2H372.5z"/>
		<path class="st0" d="M460.6,242.2c0,18.6-13.2,26.9-31.3,26.9h-9v27.1h-16.9v-79.8h24.6C448.3,216.5,460.6,224.8,460.6,242.2z
			 M443.2,242.2c0-9.3-5.6-13.5-15.5-13.5h-7.4v27.8h7.7C437.2,256.6,443.2,252.9,443.2,242.2z"/>
	</g>
	<path class="st0" d="M167.7,300.5H43.1c-2.1,0-3.7-1.6-3.7-3.7v-93.5c0-2.1,1.6-3.7,3.7-3.7h30.2c1.2,0,2.1,0.5,2.8,1.4l4.6,9.3
		c0.7,0.9,1.9,1.4,3,1.4l84-1.2c2.1,0,3.9,1.6,3.9,3.7v82.3C171.6,298.8,169.7,300.5,167.7,300.5z"/>
</g>
</svg>
