<?xml version="1.0" encoding="utf-8"?>
<!-- Generator: Adobe Illustrator 26.0.0, SVG Export Plug-In . SVG Version: 6.00 Build 0)  -->
<svg version="1.1" id="Layer_1" xmlns="http://www.w3.org/2000/svg" xmlns:xlink="http://www.w3.org/1999/xlink" x="0px" y="0px"
	 viewBox="0 0 500 500" style="enable-background:new 0 0 500 500;" xml:space="preserve">
<style type="text/css">
	.st0{fill-rule:evenodd;clip-rule:evenodd;fill:#E7155F;}
	.st1{fill-rule:evenodd;clip-rule:evenodd;fill:#C51E4F;}
	.st2{fill-rule:evenodd;clip-rule:evenodd;fill:#FFFFFF;}
	.st3{fill-rule:evenodd;clip-rule:evenodd;fill:#CED0D0;}
	.st4{fill:#E7155F;}
</style>
<g>
	<g>
		
			<ellipse transform="matrix(0.7071 -0.7071 0.7071 0.7071 -62.8607 233.1446)" class="st0" cx="250" cy="192.5" rx="132.1" ry="132.1"/>
		<path class="st1" d="M256.2,199.6l-45.8,46.8l74.6,73.5c35.8-9.8,65.6-34.4,82.4-66.8l-61.9-62.6L256.2,199.6z"/>
		<g>
			<polygon class="st2" points="305.6,190.7 210.4,135.1 240.8,190.7 			"/>
			<polygon class="st3" points="305.6,190.7 210.4,246.3 240.8,190.7 			"/>
		</g>
	</g>
	<g>
		<path class="st4" d="M46,409.8c0.5,4.6,5.3,7.6,11.5,7.6c6.2,0,10.5-3,10.5-7.1c0-3.6-2.7-5.7-9.4-7.2l-7.3-1.6
			C41,399.4,36,394.1,36,386c0-10.3,8.9-17.1,21.4-17.1c13,0,21.2,6.7,21.4,16.8h-11c-0.4-4.7-4.5-7.6-10.4-7.6
			c-5.8,0-9.6,2.8-9.6,6.9c0,3.4,2.7,5.4,9.1,6.9l6.8,1.4c11.2,2.4,16.1,7.2,16.1,15.7c0,10.8-8.8,17.7-22.7,17.7
			c-13.4,0-22-6.4-22.4-16.9H46z"/>
		<path class="st4" d="M85.9,372.5c0-3.4,2.8-5.9,6.1-5.9c3.4,0,6.1,2.5,6.1,5.9s-2.8,5.9-6.1,5.9C88.6,378.4,85.9,375.8,85.9,372.5
			z M86.3,383.1h11.3v42.7H86.3V383.1z"/>
		<path class="st4" d="M105.5,383.1h10.9v7.7h0.2c1.8-5.2,6.5-8.4,12.2-8.4c6.1,0,10.5,3.1,11.9,8.7h0.2c1.9-5.3,7.1-8.7,13.3-8.7
			c8.4,0,14,5.7,14,14.3v29h-11.3v-26.2c0-5-2.5-7.7-7.1-7.7c-4.5,0-7.4,3.3-7.4,8.1v25.8h-10.9v-26.6c0-4.6-2.6-7.3-7-7.3
			c-4.5,0-7.6,3.4-7.6,8.3v25.7h-11.3V383.1z"/>
		<path class="st4" d="M217.8,404.4c0,13.6-6.7,21.9-17.4,21.9c-6.2,0-10.9-2.8-13.3-7.7H187v21.1h-11.3v-56.6h11.2v7.3h0.2
			c2.2-4.8,7.2-7.8,13.3-7.8C211.1,382.5,217.8,390.8,217.8,404.4z M206.2,404.4c0-7.7-3.8-12.7-9.7-12.7c-5.8,0-9.6,5.1-9.6,12.7
			c0,7.7,3.8,12.7,9.6,12.7C202.4,417.1,206.2,412.1,206.2,404.4z"/>
		<path class="st4" d="M224.2,367.1h11.3v58.6h-11.3V367.1z"/>
		<path class="st4" d="M282.1,412.7c-1.2,8.3-9,13.8-19.3,13.8c-13,0-20.9-8.3-20.9-21.9s8-22.2,20.5-22.2
			c12.3,0,20.1,8.2,20.1,21.2v3.5H253v0.7c0,6.2,4,10.3,10,10.3c4.3,0,7.6-2,8.7-5.3H282.1z M253.1,400h18.4
			c-0.2-5.6-3.8-9.2-9.1-9.2C257.3,390.8,253.5,394.5,253.1,400z"/>
		<path class="st4" d="M330.7,404.4c0,13.6-6.7,21.9-17.4,21.9c-6.2,0-10.9-2.8-13.3-7.7h-0.2v21.1h-11.3v-56.6h11.2v7.3h0.2
			c2.2-4.8,7.2-7.8,13.3-7.8C324,382.5,330.7,390.8,330.7,404.4z M319.1,404.4c0-7.7-3.8-12.7-9.7-12.7c-5.8,0-9.6,5.1-9.6,12.7
			c0,7.7,3.8,12.7,9.6,12.7C315.3,417.1,319.1,412.1,319.1,404.4z"/>
		<path class="st4" d="M375.8,425.7h-10.9V418h-0.2c-2.2,5.3-6.4,8.3-12.8,8.3c-9.2,0-15.3-6-15.3-15.9v-27.4h11.3v25
			c0,5.8,2.9,8.9,8.1,8.9c5.3,0,8.6-3.8,8.6-9.6v-24.3h11.3V425.7z"/>
		<path class="st4" d="M400.6,382.3c10.5,0,17.6,5.4,17.7,13.5h-10.5c-0.2-3.4-3.1-5.5-7.4-5.5c-4.1,0-6.8,1.8-6.8,4.6
			c0,2.1,1.9,3.6,5.7,4.5l8,1.7c8.6,1.9,12,5.2,12,11.6c0,8.3-7.6,13.8-18.8,13.8c-11.2,0-18.3-5.4-18.9-13.6h11
			c0.5,3.6,3.4,5.6,8.1,5.6c4.5,0,7.2-1.7,7.2-4.5c0-2.2-1.5-3.4-5.3-4.3l-7.9-1.8c-8-1.8-12.2-6-12.2-12.2
			C382.8,387.6,389.8,382.3,400.6,382.3z"/>
		<path class="st4" d="M425.6,367.1h11.1v23.6h0.2c2.4-5.4,6.9-8.3,13.4-8.3c9.5,0,14.9,6.1,14.9,16v27.3H454v-24.9
			c0-5.6-2.8-9-8.2-9c-5.6,0-8.9,3.9-8.9,9.6v24.2h-11.3V367.1z"/>
	</g>
</g>
</svg>
