<?xml version="1.0" encoding="utf-8"?>
<!-- Generator: Adobe Illustrator 26.0.0, SVG Export Plug-In . SVG Version: 6.00 Build 0)  -->
<svg version="1.1" id="Layer_1" xmlns="http://www.w3.org/2000/svg" xmlns:xlink="http://www.w3.org/1999/xlink" x="0px" y="0px"
	 viewBox="0 0 500 500" style="enable-background:new 0 0 500 500;" xml:space="preserve">
<style type="text/css">
	.st0{fill-rule:evenodd;clip-rule:evenodd;fill:#223038;}
	.st1{fill-rule:evenodd;clip-rule:evenodd;fill:#6715FF;}
	.st2{fill-rule:evenodd;clip-rule:evenodd;fill:#273236;}
</style>
<g>
	<path class="st0" d="M153.7,263.3h6.8c0.1,1.9,0.9,3.6,2.6,5c1.6,1.5,3.7,2.2,6.3,2.2c2.5,0,4.4-0.6,5.9-1.7
		c1.4-1.2,2.3-2.6,2.5-4.4c0.2-3.7-2.1-6.1-7-7.2l-5.6-1.5c-7.4-2-11-5.9-11-11.8c0-2.5,0.7-4.7,2-6.7c1.4-1.9,3.1-3.4,5.4-4.5
		c2.2-1,4.6-1.6,7.2-1.6c4.2,0,7.6,1.2,10.3,3.6c2.7,2.4,4.1,5.6,4.1,9.5h-6.8c0-2-0.7-3.6-2.2-4.8c-1.4-1.2-3.3-1.8-5.6-1.8
		c-2.1,0-3.9,0.6-5.4,1.7c-1.5,1.1-2.3,2.6-2.3,4.3c0,2.8,2,4.6,6,5.6l5.7,1.5c4.4,1.2,7.6,3,9.6,5.4c2,2.4,2.8,5.3,2.4,8.6
		c-0.3,3.6-1.9,6.4-4.6,8.7s-6.3,3.4-10.6,3.4c-3,0-5.7-0.6-8.1-1.9c-2.4-1.3-4.3-2.9-5.6-5C154.3,267.9,153.7,265.7,153.7,263.3
		L153.7,263.3z M191.9,236.8c-0.9-0.8-1.3-1.8-1.3-3c0-1.2,0.4-2.2,1.3-3c0.8-0.8,1.9-1.2,3.1-1.2c1.2,0,2.3,0.4,3.1,1.2
		c0.8,0.8,1.3,1.8,1.3,3c0,1.2-0.4,2.2-1.3,3c-0.8,0.8-1.9,1.2-3.1,1.2C193.8,238,192.8,237.6,191.9,236.8L191.9,236.8z
		 M191.6,276.1V246h6.6v30.1H191.6L191.6,276.1z M207.6,276.1V246h6.6v4.6c0.8-1.6,2.1-2.9,3.8-3.8c1.8-0.9,3.5-1.4,5.4-1.4
		c3.7,0,6.5,1.1,8.5,3.4c2,2.3,3,5.6,3,9.8v17.5h-6.6v-16.7c0-2.4-0.6-4.2-1.7-5.5c-1.1-1.3-2.7-2-4.6-2c-2.2,0-4,0.7-5.5,2
		c-1.5,1.3-2.2,3.3-2.2,6.1v16.1H207.6L207.6,276.1z M242,261.2c0-3.1,0.7-5.9,2.1-8.3c1.4-2.4,3.3-4.3,5.6-5.6
		c2.3-1.3,4.8-1.9,7.5-1.9c2.1,0,4.1,0.5,6,1.4c1.9,0.9,3.3,2.1,4.2,3.7V246h6.6v25.7c0,6.7-1.5,11.6-4.4,14.7
		c-2.9,3.1-7,4.7-12.3,4.7c-2.9,0-5.6-0.7-8.1-2.2c-2.5-1.5-4.4-3.6-5.8-6.3c0.4-0.2,1.3-0.6,2.7-1.4c1.4-0.8,2.4-1.2,2.8-1.4
		c0.8,1.5,2,2.7,3.5,3.6c1.6,0.9,3.2,1.4,4.9,1.4c3.2,0,5.7-1,7.4-2.9c1.8-1.9,2.6-4.9,2.6-8.9v-1.5c-0.8,1.6-2.2,2.9-4.1,3.8
		c-1.9,0.9-3.9,1.4-6.1,1.4c-2,0-4-0.4-5.8-1.1c-1.8-0.7-3.5-1.8-4.9-3.1c-1.4-1.3-2.5-3-3.3-5C242.4,265.7,242,263.5,242,261.2
		L242,261.2z M248.9,261.1c0,2.8,0.9,5,2.6,6.7c1.8,1.7,3.9,2.6,6.5,2.6c2.4,0,4.6-0.8,6.5-2.6c1.9-1.7,2.8-3.9,2.8-6.7
		c0-2.9-0.9-5.1-2.7-6.8c-1.8-1.7-4-2.5-6.6-2.5c-2.6,0-4.7,0.9-6.5,2.6C249.7,256.2,248.9,258.4,248.9,261.1L248.9,261.1z
		 M282.9,263.6V246h6.6v16.7c0,2.4,0.6,4.3,1.7,5.6c1.1,1.3,2.7,2,4.5,2c2.2,0,4-0.7,5.5-2c1.5-1.3,2.2-3.4,2.2-6.1V246h6.6v30.1
		h-6.6v-4.4c-0.8,1.6-2.1,2.9-3.8,3.7c-1.7,0.9-3.4,1.3-5.2,1.3c-3.7,0-6.6-1.1-8.6-3.4C283.9,271,282.8,267.8,282.9,263.6
		L282.9,263.6z M319.4,276.1v-46.5h6.6v46.5H319.4L319.4,276.1z M333.3,261c0-3.1,0.7-5.9,2.1-8.3c1.4-2.4,3.3-4.2,5.6-5.5
		c2.3-1.3,4.8-1.9,7.6-1.9c2,0,3.9,0.4,5.8,1.2c1.9,0.8,3.3,2.1,4.3,3.7V246h6.6v30.1h-6.6v-4.3c-0.9,1.6-2.4,2.8-4.3,3.7
		c-1.9,0.9-3.9,1.3-5.9,1.3c-2,0-4-0.4-5.8-1.1c-1.8-0.8-3.5-1.8-4.9-3.1c-1.4-1.3-2.5-3-3.3-5C333.8,265.5,333.3,263.4,333.3,261
		L333.3,261z M340.2,261c0,2.7,0.9,5,2.7,6.7c1.8,1.8,4,2.6,6.5,2.6c2.6,0,4.8-0.8,6.6-2.5c1.8-1.7,2.7-4,2.7-6.8
		c0-2.8-0.9-5-2.8-6.7c-1.9-1.7-4-2.5-6.5-2.5c-2.6,0-4.8,0.8-6.5,2.5C341.1,256.1,340.2,258.3,340.2,261L340.2,261z M374.6,276.1
		V246h6.6v6.9c1.5-5,4.2-7.5,8.3-7.5c1.1,0,2.1,0.1,3.1,0.3c1,0.2,1.8,0.5,2.3,0.8l-1.1,6.1c-1.4-0.7-2.9-1-4.5-1
		c-2.7,0-4.7,1.2-6.1,3.7c-1.3,2.4-2,5.8-2,10v10.8H374.6L374.6,276.1z M401.1,236.8c-0.9-0.8-1.3-1.8-1.3-3c0-1.2,0.4-2.2,1.3-3
		c0.8-0.8,1.9-1.2,3.1-1.2c1.2,0,2.3,0.4,3.1,1.2c0.8,0.8,1.3,1.8,1.3,3c0,1.2-0.4,2.2-1.3,3c-0.8,0.8-1.9,1.2-3.1,1.2
		C402.9,238,401.9,237.6,401.1,236.8L401.1,236.8z M400.8,276.1V246h6.6v30.1H400.8L400.8,276.1z M412.4,251.5V246h5.4v-11.4h6.6
		V246h6.4v5.5h-6.4v24.6h-6.6v-24.6H412.4L412.4,251.5z M435.3,246h7.1l8.4,20.6l8.4-20.6h7.1l-18.6,44.8h-6.9l6.5-16.1L435.3,246z"
		/>
	<path class="st1" d="M52.2,244.7c-28.5-22.4-22.7-62.6,8.6-80.1c4-2.2,8.2,0,3.6,4c-32.9,31.6-11.3,57.7-0.9,64.6
		c11,7.2,23.1,14.1,32.2,22c8.2,7.1,13.9,15.2,15.5,24.3c5,27.4-6.2,44.2-25.8,56.6c-2.8,1.7-5.8-1.5-3.1-3.9
		c13.1-9.8,20.3-22.7,18.8-40.9C99.2,268,71.9,260,52.2,244.7z"/>
	<path class="st2" d="M101.4,235.3c15.1-15.7,17.1-55.5-17-71.4c-3-1.4-5.1,1-2.4,3.8c16,14,23.7,35.5,10.3,59.7
		C88.5,234.6,96.1,240.5,101.4,235.3z"/>
	<path class="st2" d="M45.3,264.6c-15.1,15.7-17.1,55.5,17,71.4c3,1.4,5.1-1,2.4-3.8c-16-14-23.7-35.5-10.3-59.7
		C58.2,265.4,50.6,259.5,45.3,264.6z"/>
</g>
</svg>
