<?xml version="1.0" encoding="utf-8"?>
<!-- Generator: Adobe Illustrator 26.0.0, SVG Export Plug-In . SVG Version: 6.00 Build 0)  -->
<svg version="1.1" id="Layer_1" xmlns="http://www.w3.org/2000/svg" xmlns:xlink="http://www.w3.org/1999/xlink" x="0px" y="0px"
	 viewBox="0 0 500 500" style="enable-background:new 0 0 500 500;" xml:space="preserve">
<style type="text/css">
	.st0{fill:#E01E5A;}
	.st1{fill:#36C5F0;}
	.st2{fill:#2EB67D;}
	.st3{fill:#ECB22E;}
</style>
<g>
	<path d="M177,279.5l5.1-11.8c5.5,4.1,12.7,6.2,19.9,6.2c5.3,0,8.7-2,8.7-5.1c-0.1-8.7-31.8-1.9-32-23.6c-0.1-11,9.7-19.5,23.6-19.5
		c8.2,0,16.5,2,22.4,6.7l-4.7,12c-5.4-3.4-12.1-5.9-18.4-5.9c-4.3,0-7.2,2-7.2,4.7c0.1,8.5,32,3.8,32.3,24.6
		c0,11.3-9.6,19.2-23.3,19.2C193.3,286.9,184,284.5,177,279.5 M371.2,263.5c-2.5,4.4-7.3,7.4-12.7,7.4c-8.1,0-14.6-6.5-14.6-14.6
		c0-8.1,6.5-14.6,14.6-14.6c5.5,0,10.2,3,12.7,7.4l14-7.8c-5.2-9.3-15.3-15.7-26.7-15.7c-16.9,0-30.6,13.7-30.6,30.6
		c0,16.9,13.7,30.6,30.6,30.6c11.5,0,21.5-6.3,26.7-15.7C385.2,271.2,371.2,263.5,371.2,263.5z M233.6,200.3h17.5v85.5h-17.5V200.3z
		 M392,200.3v85.5h17.5v-25.6l20.7,25.6h22.4l-26.4-30.4l24.4-28.4h-21.4l-19.8,23.6v-50.2H392z M303,263.6
		c-2.5,4.2-7.8,7.3-13.6,7.3c-8.1,0-14.6-6.5-14.6-14.6c0-8.1,6.5-14.6,14.6-14.6c5.9,0,11.1,3.3,13.6,7.5V263.6z M303,226.9v6.9
		c-2.9-4.8-10-8.2-17.4-8.2c-15.3,0-27.4,13.6-27.4,30.5s12.1,30.7,27.4,30.7c7.4,0,14.5-3.3,17.4-8.2v6.9h17.5v-58.8H303z"/>
	<path class="st0" d="M69,263.6c0,6-4.8,10.8-10.8,10.8s-10.8-4.8-10.8-10.8s4.8-10.8,10.8-10.8H69V263.6z M74.4,263.6
		c0-6,4.8-10.8,10.8-10.8c6,0,10.8,4.8,10.8,10.8v26.9c0,6-4.8,10.8-10.8,10.8c-6,0-10.8-4.8-10.8-10.8V263.6z"/>
	<path class="st1" d="M85.2,220.3c-6,0-10.8-4.8-10.8-10.8s4.8-10.8,10.8-10.8c6,0,10.8,4.8,10.8,10.8v10.8H85.2z M85.2,225.8
		c6,0,10.8,4.8,10.8,10.8c0,6-4.8,10.8-10.8,10.8h-27c-6,0-10.8-4.8-10.8-10.8c0-6,4.8-10.8,10.8-10.8H85.2z"/>
	<path class="st2" d="M128.4,236.5c0-6,4.8-10.8,10.8-10.8c6,0,10.8,4.8,10.8,10.8c0,6-4.8,10.8-10.8,10.8h-10.8V236.5z M123,236.5
		c0,6-4.8,10.8-10.8,10.8c-6,0-10.8-4.8-10.8-10.8v-27c0-6,4.8-10.8,10.8-10.8c6,0,10.8,4.8,10.8,10.8L123,236.5z"/>
	<path class="st3" d="M112.2,279.7c6,0,10.8,4.8,10.8,10.8c0,6-4.8,10.8-10.8,10.8c-6,0-10.8-4.8-10.8-10.8v-10.8H112.2z
		 M112.2,274.3c-6,0-10.8-4.8-10.8-10.8s4.8-10.8,10.8-10.8h27c6,0,10.8,4.8,10.8,10.8s-4.8,10.8-10.8,10.8H112.2z"/>
</g>
</svg>
