<?xml version="1.0" encoding="utf-8"?>
<!-- Generator: Adobe Illustrator 26.0.0, SVG Export Plug-In . SVG Version: 6.00 Build 0)  -->
<svg version="1.1" id="Layer_1" xmlns="http://www.w3.org/2000/svg" xmlns:xlink="http://www.w3.org/1999/xlink" x="0px" y="0px"
	 viewBox="0 0 500 500" style="enable-background:new 0 0 500 500;" xml:space="preserve">
<style type="text/css">
	.st0{fill-rule:evenodd;clip-rule:evenodd;}
	.st1{fill-rule:evenodd;clip-rule:evenodd;fill:#E01E5A;}
	.st2{fill-rule:evenodd;clip-rule:evenodd;fill:#36C5F0;}
	.st3{fill-rule:evenodd;clip-rule:evenodd;fill:#2EB67D;}
	.st4{fill-rule:evenodd;clip-rule:evenodd;fill:#ECB22E;}
</style>
<g id="_1935826086000">
	<g>
		<path class="st0" d="M79.1,363.1l6.3-14.6c6.8,5.1,15.8,7.7,24.7,7.7c6.6,0,10.7-2.5,10.7-6.4c-0.1-10.7-39.4-2.3-39.7-29.3
			c-0.1-13.7,12-24.2,29.3-24.2c10.2,0,20.4,2.5,27.7,8.3l-5.9,14.9c-6.7-4.3-15-7.3-22.9-7.3c-5.4,0-8.9,2.5-8.9,5.8
			c0.1,10.5,39.7,4.8,40.1,30.5c0,14-11.8,23.8-28.9,23.8C99.2,372.3,87.8,369.4,79.1,363.1L79.1,363.1L79.1,363.1z M320,343.3
			c-3.1,5.5-9,9.2-15.8,9.2c-10,0-18.1-8.1-18.1-18.1c0-10,8.1-18.1,18.1-18.1c6.8,0,12.7,3.7,15.8,9.2l17.3-9.6
			c-6.5-11.5-18.9-19.4-33.1-19.4c-21,0-38,17-38,38c0,21,17,38,38,38c14.3,0,26.6-7.8,33.1-19.4L320,343.3z M149.2,264.9h21.7v106
			l-21.7,0V264.9z M345.8,264.9v106l21.7,0v-31.8l25.7,31.8h27.7l-32.7-37.8l30.3-35.2H392l-24.5,29.3v-62.3L345.8,264.9
			L345.8,264.9z"/>
	</g>
	<path class="st0" d="M235.3,343.5c-3.1,5.2-9.6,9-16.9,9c-10,0-18.1-8.1-18.1-18.1c0-10,8.1-18.1,18.1-18.1c7.3,0,13.8,4,16.9,9.3
		V343.5L235.3,343.5z M235.3,297.9v8.6c-3.5-6-12.3-10.1-21.6-10.1c-19,0-34,16.8-34,37.9c0,21.1,15,38.1,34,38.1
		c9.2,0,18-4.1,21.6-10.1v8.6l21.7,0v-72.9L235.3,297.9L235.3,297.9z"/>
	<g id="_1935826084528">
		<path class="st1" d="M213.2,208c0,7.4-6,13.4-13.4,13.4c-7.4,0-13.4-6-13.4-13.4c0-7.4,6-13.4,13.4-13.4h13.4V208z M219.9,208
			c0-7.4,6-13.4,13.4-13.4s13.4,6,13.4,13.4v33.4c0,7.4-6,13.4-13.4,13.4s-13.4-6-13.4-13.4C219.9,241.4,219.9,208,219.9,208z"/>
		<path class="st2" d="M233.2,154.4c-7.4,0-13.4-6-13.4-13.4s6-13.4,13.4-13.4s13.4,6,13.4,13.4v13.4H233.2z M233.2,161.1
			c7.4,0,13.4,6,13.4,13.4c0,7.4-6,13.4-13.4,13.4h-33.5c-7.4,0-13.4-6-13.4-13.4c0-7.4,6-13.4,13.4-13.4H233.2z"/>
		<path class="st3" d="M286.8,174.5c0-7.4,6-13.4,13.4-13.4s13.4,6,13.4,13.4c0,7.4-6,13.4-13.4,13.4h-13.4V174.5z M280.1,174.5
			c0,7.4-6,13.4-13.4,13.4s-13.4-6-13.4-13.4V141c0-7.4,6-13.4,13.4-13.4s13.4,6,13.4,13.4V174.5z"/>
		<path class="st4" d="M266.8,228.1c7.4,0,13.4,6,13.4,13.4s-6,13.4-13.4,13.4s-13.4-6-13.4-13.4v-13.4H266.8z M266.8,221.4
			c-7.4,0-13.4-6-13.4-13.4c0-7.4,6-13.4,13.4-13.4h33.5c7.4,0,13.4,6,13.4,13.4c0,7.4-6,13.4-13.4,13.4H266.8z"/>
	</g>
</g>
</svg>
