<?xml version="1.0" encoding="utf-8"?>
<!-- Generator: Adobe Illustrator 26.0.0, SVG Export Plug-In . SVG Version: 6.00 Build 0)  -->
<svg version="1.1" id="Layer_1" xmlns="http://www.w3.org/2000/svg" xmlns:xlink="http://www.w3.org/1999/xlink" x="0px" y="0px"
	 viewBox="0 0 500 500" style="enable-background:new 0 0 500 500;" xml:space="preserve">
<style type="text/css">
	.st0{fill:#7CB1F4;}
	.st1{fill:#222A35;}
</style>
<g transform="matrix(1.077451 0 0 1.077451 8.199951 -13.793347)">
	<path class="st0" d="M252.8,326c-1.7,0-3.3-0.5-4.7-1.7c-3-2.4-3.8-6.6-1.8-9.9c0.5-0.8,49.1-81.8,24-122.2
		c-5.2-8.4-11.1-12.9-17.5-13.2c-12.3-0.6-25.8,13.2-30,18.6c-2.6,3.3-7.4,3.9-10.7,1.3c-3.3-2.6-3.9-7.3-1.4-10.6
		c0.8-1,19.9-25.7,42.8-24.6c11.6,0.6,21.6,7.4,29.7,20.4c18.8,30.2,5.6,75.3-7.5,105.7c13.6-9.4,30.4-18.7,46.4-21.2
		c4.2-0.6,8.1,2.2,8.7,6.4c0.6,4.2-2.2,8.1-6.4,8.7c0,0,0,0,0,0c-29.9,4.6-66,39.7-66.3,40.1C256.7,325.2,254.8,326,252.8,326
		L252.8,326z"/>
	<path class="st1" d="M64.8,261.7c0,4.1-1.1,7.7-3.2,10.9c-2.1,3.2-5.2,5.7-9.3,7.4s-8.7,2.6-14.2,2.6c-4.5,0-8.3-0.3-11.4-0.9
		c-3.1-0.6-6.3-1.7-9.6-3.2v-15.8c3.5,1.7,7.2,3.1,10.9,4.1c3.8,1,7.3,1.5,10.4,1.5c2.7,0,4.7-0.5,6-1.4c1.3-0.9,1.9-2.1,1.9-3.5
		c0-0.9-0.3-1.7-0.8-2.4c-0.5-0.7-1.3-1.4-2.5-2c-1.1-0.7-4.2-2.1-9.1-4.2c-4.4-1.9-7.8-3.8-10-5.7s-3.9-3.9-4.9-6.3
		s-1.6-5.2-1.6-8.4c0-6.1,2.3-10.8,6.8-14.2c4.6-3.4,10.8-5.1,18.8-5.1c7,0,14.2,1.6,21.6,4.7l-5.6,13.7c-6.4-2.8-11.9-4.2-16.5-4.2
		c-2.4,0-4.1,0.4-5.2,1.2c-1.1,0.8-1.6,1.8-1.6,3.1c0,1.3,0.7,2.4,2.1,3.5c1.4,1,5.1,2.9,11.2,5.6c5.9,2.5,9.9,5.3,12.2,8.2
		c2.3,2.9,3.4,6.6,3.4,11.1L64.8,261.7z M103.1,281.7l-13.9-47.4h-0.4l1,18.8v28.6H73.4v-65.8h24.5l14.2,46.7h0.4l14-46.7H151v65.8
		H134v-28.8l0.1-5l0.6-13.4h-0.4l-13.7,47.3L103.1,281.7z M191.8,281.7h-18.4v-51.2h-16.6v-14.5h51.6v14.5h-16.6L191.8,281.7z
		 M265.6,236.8c0,7.3-2.3,13-6.7,17c-4.5,4-10.9,6-19.1,6h-5.2v21.8h-18.4v-65.8h23.6c8.6,0,15,1.8,19.4,5.4
		C263.5,224.9,265.6,230.1,265.6,236.8L265.6,236.8z M234.6,245.3h3.4c2.8,0,5-0.8,6.5-2.3s2.4-3.6,2.4-6.2c0-4.4-2.5-6.7-7.6-6.7
		h-4.8L234.6,245.3L234.6,245.3z M328.6,243.2h29.4v35.4c-8,2.6-16.7,4-26.3,4c-10.5,0-18.6-2.9-24.3-8.8
		c-5.7-5.9-8.6-14.3-8.6-25.1c0-10.6,3.1-18.9,9.4-24.8s15.1-8.9,26.4-8.9c4.1,0,8.1,0.4,12.1,1.2c3.8,0.7,7.1,1.8,9.9,3l-5.8,13.9
		c-4.9-2.3-10.3-3.5-16.2-3.5c-5.4,0-9.5,1.7-12.5,5.1c-2.9,3.4-4.4,8.2-4.4,14.5c0,6.1,1.3,10.8,4,14.1c2.7,3.2,6.5,4.8,11.5,4.8
		c2.7,0,5.2-0.3,7.5-0.8v-10.3h-12.2V243.2z M431.7,248.7c0,11.1-2.8,19.5-8.4,25.2c-5.6,5.8-13.8,8.6-24.7,8.6
		c-10.7,0-18.9-2.9-24.6-8.7c-5.7-5.8-8.5-14.2-8.5-25.3c0-10.9,2.8-19.3,8.5-25.1c5.7-5.8,13.9-8.7,24.7-8.7
		c10.8,0,19,2.9,24.6,8.6C428.9,229.2,431.7,237.7,431.7,248.7L431.7,248.7z M384.9,248.7c0,12.7,4.6,19.1,13.7,19.1
		c4.6,0,8.1-1.5,10.4-4.6s3.4-7.9,3.4-14.4c0-6.6-1.1-11.4-3.4-14.6s-5.7-4.8-10.2-4.8C389.5,229.4,384.9,235.8,384.9,248.7
		L384.9,248.7z"/>
</g>
</svg>
