<?xml version="1.0" encoding="utf-8"?>
<!-- Generator: Adobe Illustrator 26.0.0, SVG Export Plug-In . SVG Version: 6.00 Build 0)  -->
<svg version="1.1" id="Layer_1" xmlns="http://www.w3.org/2000/svg" xmlns:xlink="http://www.w3.org/1999/xlink" x="0px" y="0px"
	 viewBox="0 0 500 500" style="enable-background:new 0 0 500 500;" xml:space="preserve">
<style type="text/css">
	.st0{fill:#272727;}
</style>
<g>
	<path class="st0" d="M217.9,273.8l12.3-7.1c2.4,4.9,6.5,7.3,12.3,7.3c5.4,0,8.8-2.4,8.8-6c0-3.6-4.7-4.7-12.7-6.3
		c-11-2.4-18.1-6.9-18.1-16.2c0-10.1,10.3-17,21.7-17c9.7,0,16.4,2.6,22.4,10.1l-11.8,6.7c-2.2-3.9-5.6-5.8-10.5-5.8
		c-5,0-7.8,2.2-7.8,5.2c0,3.7,5.6,4.5,13.1,6.3c10.3,2.6,18.1,6.2,18.1,16.4c0,10.6-10.5,17.9-23.5,17.9
		C231.4,285.3,223.2,282.4,217.9,273.8z M273.2,283.9v-47.4l13.8-8.1v55.5L273.2,283.9z M296.8,283.9v-29.1
		c0-14.9,11-26.3,26.3-26.3c15.5,0,26.3,12.1,26.3,26.3v29.1h-14v-28.2c0-8.6-5.2-13.6-12.3-13.6c-7.7,0-12.3,5.4-12.3,13.6v28.2
		L296.8,283.9z M356.9,256.8c0-16.6,12-28.4,28.7-28.4c10.5,0,19.8,5.4,24.3,13.8l-12,7.1c-2.4-4.7-7.3-7.6-12.5-7.5
		c-8.2,0-14.4,6.2-14.4,14.9c0,8.6,5.8,15.1,14.4,15.1c5.6,0,10.5-2.8,12.7-7.5l12,6.9c-5,8.8-14.4,14.1-24.5,14
		C369,285.3,356.9,273.4,356.9,256.8z M417.6,283.8v-70.6l13.8-8v27.3c3.8-2.6,8.3-4,12.9-4.1c15.3,0,26,10.5,26,26v29.5h-14v-28.2
		c0-8.6-5.2-13.6-12.3-13.6c-7.7,0-12.3,5.4-12.3,13.6v28.2H417.6z"/>
	<path class="st0" d="M184.5,256.7c0.1,11.8-7.2,22.4-18.2,26.6c-9.5,3.7-20.5,2.3-31.2-3.7l-7.8-4.5c-1.7,2-3.7,3.7-6,5.1
		l-24.9,14.5h0v-12.5h0l37.4-21.9c-0.2,1.8-0.6,3.6-1.2,5.4l7.8,4.4c10,5.7,17.4,4.8,21.9,3c4.9-1.9,8.8-5.9,10.5-10.9
		c0.6-1.8,0.9-3.7,0.9-5.5c0-7.3-4.6-13.8-11.5-16.3c-4.5-1.7-12-2.5-21.9,3.3l-60.7,35.5l-0.1,0c-6.7,3.9-13.6,6-20.2,6
		c-3.7,0-7.4-0.6-10.9-1.9c-14.3-5.2-21.9-20.8-17.2-35.3c2.7-8.1,8.9-14.6,16.9-17.7c9.5-3.7,20.5-2.4,31.2,3.7l7.8,4.5
		c1.7-2,3.7-3.7,6-5.1l0.5-0.3l2.9-1.7l-12.4-7c-2.5-1.7-3.2-5.1-1.5-7.5c1.5-2.2,4.4-3,6.8-1.9l17.8,10.2l17.4-10.1
		c2.7-1.3,6-0.1,7.3,2.6c1.1,2.4,0.4,5.2-1.8,6.8L80.5,253c0.2-1.7,0.6-3.4,1.1-5l-7.8-4.4c-10-5.7-17.4-4.8-21.9-3
		c-9,3.3-13.6,13.3-10.3,22.3c1.8,4.8,5.6,8.6,10.5,10.3c4.5,1.7,12,2.5,21.9-3.3l60.8-35.6c6.7-3.9,13.6-6,20.2-6
		c3.7,0,7.4,0.6,10.9,1.9C177,234.3,184.4,244.9,184.5,256.7"/>
</g>
</svg>
