<?xml version="1.0" encoding="utf-8"?>
<!-- Generator: Adobe Illustrator 26.0.0, SVG Export Plug-In . SVG Version: 6.00 Build 0)  -->
<svg version="1.1" id="Layer_1" xmlns="http://www.w3.org/2000/svg" xmlns:xlink="http://www.w3.org/1999/xlink" x="0px" y="0px"
	 viewBox="0 0 500 500" style="enable-background:new 0 0 500 500;" xml:space="preserve">
<style type="text/css">
	.st0{fill:#29B5E8;}
</style>
<g>
	<g>
		<path id="Path_00000036963482953642948490000018103849998803705528_" class="st0" d="M309.1,238.2l-34.8-20.1
			c-4.9-2.8-11.1-1.1-14,3.8c-1.1,1.9-1.5,4-1.3,6.1v39.3c0,5.6,4.6,10.2,10.2,10.2c5.6,0,10.2-4.6,10.2-10.2v-22.6l19.5,11.3
			c4.9,2.8,11.2,1.1,14-3.8C315.7,247.3,314,241,309.1,238.2"/>
		<path id="Path2_00000151512327003088784720000003131707816719789461_" class="st0" d="M222.5,195.1c0.1-3.6-1.9-7-5-8.8
			l-34.8-20.1c-1.5-0.9-3.2-1.3-5-1.3c-3.6,0-6.9,1.9-8.7,5c-2.8,4.8-1.1,10.9,3.7,13.7l20.1,11.6l-20.1,11.6
			c-2.3,1.3-4,3.5-4.7,6.1c-0.7,2.6-0.3,5.3,1,7.6c1.8,3.1,5.1,5,8.7,5c1.7,0,3.5-0.5,5-1.3l34.8-20.1
			C220.7,202.1,222.6,198.7,222.5,195.1"/>
		<path id="Path3_00000026149999346015804620000012738919643719459217_" class="st0" d="M190.6,151.9l34.8,20.1
			c4.1,2.4,9.1,1.6,12.3-1.5c2-1.9,3.3-4.5,3.3-7.5v-40.3c0-5.6-4.6-10.2-10.2-10.2c-5.6,0-10.2,4.6-10.2,10.2v22.9l-19.8-11.4
			c-4.9-2.8-11.1-1.2-14,3.7C184,142.8,185.7,149.1,190.6,151.9"/>
		<path id="Combined-Shape_00000173121499453223196800000000339279972868913076_" class="st0" d="M268.9,196.7c0,0.8-0.4,1.8-1,2.4
			l-13.8,13.8c-0.5,0.5-1.6,1-2.4,1h-3.5c-0.8,0-1.9-0.4-2.4-1L232,199.1c-0.5-0.6-1-1.6-1-2.4v-3.5c0-0.8,0.4-1.9,1-2.4l13.8-13.8
			c0.5-0.5,1.6-1,2.4-1h3.5c0.8,0,1.9,0.4,2.4,1l13.8,13.8c0.5,0.5,1,1.6,1,2.4V196.7z M256.6,195v-0.1c0-0.6-0.3-1.3-0.7-1.8
			l-4.1-4.1c-0.4-0.4-1.2-0.7-1.8-0.7h-0.1c-0.6,0-1.3,0.3-1.8,0.7l-4.1,4.1c-0.4,0.4-0.7,1.2-0.7,1.8v0.1c0,0.6,0.3,1.4,0.7,1.8
			l4.1,4.1c0.4,0.4,1.2,0.7,1.8,0.7h0.1c0.6,0,1.4-0.3,1.8-0.7l4.1-4.1C256.3,196.4,256.6,195.6,256.6,195z"/>
		<path id="Path4_00000084511081090363339330000000851501532699350178_" class="st0" d="M274.3,172l34.8-20.1
			c4.9-2.8,6.6-9.1,3.8-14c-2.8-4.9-9.1-6.6-14-3.7l-19.5,11.3v-22.8c0-5.6-4.6-10.2-10.2-10.2c-5.6,0-10.2,4.6-10.2,10.2v39.5
			c-0.2,2,0.2,4.2,1.3,6.1C263.2,173.2,269.4,174.9,274.3,172"/>
		<path id="Path5_00000116221873410455212470000008791300194131327408_" class="st0" d="M232.4,216.9c-2.3-0.4-4.8-0.1-7,1.2
			l-34.8,20.1c-4.9,2.8-6.6,9.1-3.8,14c2.8,4.9,9.1,6.6,14,3.8l19.8-11.4v22.8c0,5.6,4.6,10.2,10.2,10.2c5.6,0,10.2-4.6,10.2-10.2
			V227C241,221.9,237.3,217.7,232.4,216.9"/>
		<path id="Path6_00000145035405146785607240000009426876341337240760_" class="st0" d="M330.9,169.7c-2.8-4.9-9.1-6.6-14-3.8
			l-34.8,20.1c-3.3,1.9-5.2,5.5-5.1,9c0,3.6,1.8,7.1,5.1,9l34.8,20.1c4.9,2.8,11.1,1.1,14-3.8c2.8-4.9,1.1-11.1-3.8-14l-19.7-11.4
			l19.7-11.4C332.1,180.9,333.7,174.6,330.9,169.7"/>
	</g>
	<g>
		<path id="Combined-Shape2_00000011732524977278499820000007851516213827188356_" class="st0" d="M471.9,358.8L471.9,358.8v0.3
			c0,1.7-1.4,2.9-3.1,2.9h-42.5c0.1,1,0.2,2,0.4,3c2,9.2,9.9,16.1,19.2,16.2c0,0,0.5,0,1.2,0c0.1,0,0.2,0,0.3,0h0.9
			c0.2,0,0.4,0,0.6,0c0.2,0,0.4,0,0.5,0c0,0,0,0,0,0c3.1-0.2,6.2-1.5,9-3.5c0,0,0,0,0,0c0.1-0.1,0.3-0.2,0.4-0.3c0,0,0.1,0,0.1-0.1
			c0.1-0.1,0.2-0.2,0.4-0.3c0.1,0,0.1-0.1,0.1-0.1c0.1-0.1,0.2-0.2,0.3-0.3c0.1-0.1,0.1-0.1,0.2-0.2c0.1-0.1,0.2-0.2,0.2-0.2
			c0.1-0.1,0.2-0.2,0.2-0.2c0.1-0.1,0.1-0.1,0.2-0.2c0.1-0.1,0.2-0.2,0.3-0.3c0.1-0.1,0.1-0.1,0.2-0.2c0.1-0.1,0.2-0.2,0.3-0.3
			c0.1-0.1,0.1-0.1,0.1-0.1c0.1-0.1,0.2-0.2,0.3-0.3c0.1,0,0.1-0.1,0.1-0.1c0.1-0.1,0.2-0.2,0.3-0.3c0-0.1,0.1-0.1,0.1-0.2
			c0.1-0.1,0.2-0.2,0.3-0.4c0.1-0.1,0.1-0.1,0.2-0.2c0.1-0.1,0.2-0.2,0.3-0.3c0.1-0.1,0.1-0.2,0.2-0.3c0.1-0.1,0.1-0.2,0.2-0.3
			c0.1-0.1,0.2-0.3,0.3-0.4c0-0.1,0.1-0.1,0.1-0.1c0.3-0.4,0.5-0.8,0.7-1.2c0,0,0,0,0,0c0.1-0.1,0.1-0.2,0.2-0.3
			c0,0,0.1-0.1,0.1-0.1c0-0.1,0.1-0.1,0.1-0.2c0,0,0.1-0.1,0.1-0.1c0.1,0,0.1-0.1,0.1-0.1c0,0,0.1-0.1,0.1-0.1
			c0.1-0.1,0.1-0.1,0.2-0.1c0.1,0,0.1-0.1,0.2-0.1c0.1,0,0.1-0.1,0.2-0.1s0.1,0,0.1-0.1c0.1,0,0.1,0,0.2-0.1c0,0,0.1,0,0.1,0
			c0.2-0.1,0.5-0.1,0.7-0.1c0.3,0,0.6,0,0.8,0.1c0,0,0,0,0,0c0.1,0,0.2,0.1,0.3,0.1c0,0,0.1,0,0.1,0c0.1,0.1,0.2,0.1,0.3,0.2l0.1,0
			c1.4,1,1.9,2.8,1,4.3l0,0c-0.1,0.2-0.2,0.3-0.3,0.5c0,0-0.1,0.1-0.1,0.1c-3,4.6-7.1,8.3-11.7,10.4c-0.1,0-0.2,0.1-0.3,0.1
			c0,0,0,0-0.1,0c-2.1,1-4.4,1.7-6.8,1.9c-0.1,0-0.1,0-0.2,0c-0.2,0-0.4,0.1-0.6,0.1c-0.1,0-0.2,0-0.4,0c-0.1,0-0.3,0-0.4,0
			c-0.3,0-0.6,0-0.9,0c0,0-1.1,0-1.8,0c-0.4,0-0.6,0-0.7,0c-14.3-0.1-25.8-12-25.8-26.7c0-14.9,11.6-26.9,26-26.9c0.4,0,0.9,0,1.3,0
			c5,0.3,9.7,2,13.5,4.8c0,0,0,0,0,0c0.2,0.2,0.4,0.3,0.6,0.5c0.1,0.1,0.2,0.2,0.3,0.3c0.1,0.1,0.2,0.2,0.3,0.2
			C467.7,344.2,471.3,351,471.9,358.8L471.9,358.8z M426.7,356h38.5c-1.9-9.3-9.9-16-19.1-16C436.7,340,428.8,346.6,426.7,356z"/>
		<path id="Combined-Shape3_00000154415720591658395200000017081281431742105777_" class="st0" d="M363.2,334.7
			c0.5,0.5,0.8,1.1,0.9,1.9c0,0.1,0,0.2,0,0.3v47.4c0,1.7-1.4,3.1-3.1,3.1c-1.7,0-3.1-1.4-3.1-3.1V378c-1.2,1.4-2.5,2.7-3.9,3.8
			c0,0-0.1,0.1-0.1,0.1c-0.1,0.1-0.3,0.2-0.4,0.3c-4.3,3.3-9.4,5.2-14.8,5.2c-8.7,0-16.4-4.6-20.9-11.6c0-0.1-0.1-0.1-0.1-0.2
			c-0.1-0.2-0.3-0.4-0.4-0.7c-0.1-0.1-0.2-0.3-0.3-0.4s-0.2-0.3-0.2-0.5c-0.1-0.2-0.3-0.5-0.4-0.7c0-0.1-0.1-0.2-0.1-0.2
			c-1.7-3.4-2.7-7.1-2.9-11.1c0-0.5,0-0.9,0-1.4c0-0.5,0-0.9,0-1.4c0.2-4,1.2-7.8,2.9-11.2c0-0.1,0.1-0.1,0.1-0.2
			c0.1-0.2,0.2-0.5,0.4-0.7c0.1-0.2,0.2-0.3,0.2-0.5c0.1-0.1,0.2-0.3,0.3-0.4c0.1-0.2,0.3-0.5,0.4-0.7c0-0.1,0.1-0.1,0.1-0.2
			c4.6-7,12.2-11.6,20.9-11.6c5.9,0,11.4,2.2,15.9,5.9c1.2,1,2.3,2.1,3.4,3.4v-6.2c0-0.1,0-0.2,0-0.3c0.1-0.7,0.4-1.4,0.9-1.9
			c0,0,0,0,0,0c0.1-0.1,0.1-0.1,0.2-0.1c0,0,0,0,0.1-0.1c0,0,0.1-0.1,0.1-0.1c0,0,0.1-0.1,0.1-0.1c0,0,0.1,0,0.1-0.1
			c0.1,0,0.1-0.1,0.2-0.1c0,0,0,0,0,0c0.1,0,0.2-0.1,0.2-0.1c0,0,0,0,0,0c0.2-0.1,0.4-0.1,0.6-0.2c0,0,0,0,0.1,0c0.1,0,0.2,0,0.3,0
			c0.1,0,0.2,0,0.3,0c0.1,0,0.2,0,0.3,0c0.1,0,0.2,0,0.3,0c0,0,0,0,0.1,0c0.2,0,0.4,0.1,0.6,0.2h0c0.1,0,0.2,0.1,0.2,0.1
			c0,0,0,0,0.1,0c0.1,0,0.1,0.1,0.2,0.1c0,0,0.1,0,0.1,0.1c0,0,0.1,0.1,0.1,0.1c0,0,0.1,0.1,0.1,0.1c0,0,0,0,0.1,0.1
			C363,334.6,363.1,334.6,363.2,334.7C363.2,334.7,363.2,334.7,363.2,334.7z M338.7,381.2c10.6,0,19.2-9.2,19.2-20.6
			c0-11.4-8.6-20.7-19.2-20.7c-10.5,0-19.2,9.3-19.2,20.7c0,0.4,0,0.7,0,1.1c0,0.2,0,0.3,0,0.4c0,0.2,0,0.4,0.1,0.6
			c0,0.2,0,0.3,0.1,0.5c0,0.2,0,0.4,0.1,0.6c0,0.1,0.1,0.3,0.1,0.4c0,0.2,0.1,0.4,0.1,0.6c0,0.1,0.1,0.2,0.1,0.3
			c0.1,0.2,0.1,0.5,0.2,0.7c0,0.1,0,0.1,0.1,0.2C322.3,374.7,329.8,381.2,338.7,381.2z"/>
		<path id="Path7_00000167382835246533510300000015612376931187057805_" class="st0" d="M285.7,311.5h-0.8c-0.1,0-0.2,0-0.3,0
			c-0.1,0-0.2,0-0.3,0c-0.3,0-0.6,0-0.9,0c-0.1,0-0.1,0-0.2,0c-0.2,0-0.5,0-0.7,0c0,0-0.1,0-0.1,0c-0.2,0-0.5,0-0.7,0.1
			c0,0-0.1,0-0.1,0c-0.3,0-0.5,0.1-0.7,0.1c0,0,0,0,0,0c-1.6,0.2-3,0.7-4.2,1.3c0,0,0,0,0,0c-0.2,0.1-0.4,0.2-0.6,0.3
			c0,0-0.1,0-0.1,0.1c-0.2,0.1-0.3,0.2-0.5,0.3c-0.1,0-0.1,0.1-0.2,0.1c-0.1,0.1-0.2,0.2-0.4,0.3c-0.1,0.1-0.2,0.2-0.3,0.2
			c-0.1,0.1-0.2,0.1-0.2,0.2c-0.1,0.1-0.3,0.2-0.4,0.4c0,0-0.1,0.1-0.1,0.1c-0.2,0.2-0.3,0.3-0.5,0.5c0,0-0.1,0.1-0.1,0.1
			c-0.1,0.1-0.3,0.3-0.4,0.4c0,0.1-0.1,0.1-0.1,0.2c-0.1,0.1-0.2,0.2-0.3,0.4c0,0.1-0.1,0.1-0.1,0.1c-0.1,0.2-0.2,0.3-0.3,0.5
			c0,0,0,0,0,0.1c-0.8,1.4-1.4,3-1.8,5c0,0,0,0.1,0,0.1c-0.1,0.2-0.1,0.5-0.1,0.8c0,0.1,0,0.2,0,0.2c0,0.2-0.1,0.4-0.1,0.7
			c0,0.1,0,0.3,0,0.4c0,0.2-0.1,0.3-0.1,0.5c0,0.2,0,0.4,0,0.6c0,0.1,0,0.3,0,0.4c0,0.3,0,0.6,0,0.8c0,0.1,0,0.1,0,0.2
			c0,0.4,0,0.7,0,1.1v5.1h-6.4c-0.4,0-0.8,0.1-1.2,0.2c-1.2,0.4-2,1.5-2,2.8c0,1.2,0.6,2.2,1.5,2.8c0.5,0.3,1,0.5,1.6,0.5h0v0h6.4
			v45c0,0.1,0,0.1,0,0.2c0,0,0,0.1,0,0.1c0,0.7,0.3,1.4,0.8,1.9l0,0c0.1,0.1,0.1,0.1,0.2,0.2c0,0,0,0,0,0c0.1,0.1,0.1,0.1,0.2,0.1
			c0,0,0.1,0.1,0.1,0.1c0,0,0.1,0,0.1,0.1c0.5,0.3,1.1,0.5,1.7,0.5c0.1,0,0.2,0,0.3,0c0.6-0.1,1.2-0.3,1.6-0.7l0,0
			c0.1-0.1,0.1-0.1,0.2-0.2c0,0,0,0,0.1,0c0.1-0.1,0.1-0.1,0.1-0.1c0.5-0.6,0.8-1.3,0.7-2.1v-45h6.9v0h0c1.8-0.1,3.2-1.5,3.1-3.3
			c0,0,0,0,0,0c0-0.1,0-0.1,0-0.2c0,0,0-0.1,0-0.1c-0.1-0.7-0.3-1.3-0.8-1.8c0,0,0,0,0,0c0,0,0,0,0,0c-0.1-0.1-0.1-0.1-0.2-0.2
			c0,0-0.1,0-0.1-0.1c-0.1,0-0.1-0.1-0.1-0.1c0,0-0.1-0.1-0.1-0.1c0,0-0.1,0-0.1-0.1c-0.1,0-0.1-0.1-0.2-0.1c0,0,0,0-0.1,0
			c-0.1,0-0.2-0.1-0.2-0.1c0,0,0,0-0.1,0c-0.1,0-0.2-0.1-0.2-0.1c0,0-0.1,0-0.1,0c-0.1,0-0.1,0-0.2-0.1c0,0-0.1,0-0.1,0
			c-0.1,0-0.1,0-0.2,0c-0.1,0-0.1,0-0.1,0s-0.1,0-0.1,0c0,0-0.1,0-0.1,0h-6.9V328c0,0,0-0.1,0-0.1c0-0.3,0-0.5,0-0.8
			c0-0.1,0-0.1,0-0.2c0-0.2,0-0.4,0-0.6c0,0,0-0.1,0-0.1c0-0.2,0-0.5,0.1-0.7c0.2-2.5,0.8-4.1,1.4-5.1c0,0,0,0,0-0.1
			c0-0.1,0.1-0.1,0.1-0.2c0-0.1,0.1-0.1,0.1-0.2c0,0,0-0.1,0.1-0.1c0.1-0.1,0.1-0.2,0.2-0.2c0.8-0.9,2.1-1.5,3.9-1.7c0,0,0,0,0.1,0
			c0.1,0,0.2,0,0.3,0c0.1,0,0.1,0,0.2,0c0.1,0,0.2,0,0.3,0c0.1,0,0.1,0,0.2,0c0.1,0,0.2,0,0.3,0s0.2,0,0.3,0s0.2,0,0.3,0
			c0.1,0,0.3,0,0.4,0h0c0.1,0,0.2,0,0.3,0c0.1,0,0.2,0,0.3,0h0.8c1.7,0,3.1-1.4,3.1-3.2S287.4,311.5,285.7,311.5"/>
		<path id="Path8_00000121968939070536508810000004426884729601245315_" class="st0" d="M302.3,311.6
			C302.3,311.6,302.3,311.6,302.3,311.6c-0.1,0-0.1-0.1-0.2-0.1c0,0-0.1,0-0.1,0c-0.1,0-0.1,0-0.2,0s-0.1,0-0.1,0
			c-0.1,0-0.1,0-0.2,0c-0.1,0-0.1,0-0.1,0c-0.1,0-0.2,0-0.3,0c-1.7,0-3.1,1.4-3.1,3.1v69.9c0,1.7,1.4,3.1,3.1,3.1c0.1,0,0.2,0,0.3,0
			c0,0,0,0,0.1,0c0.1,0,0.2,0,0.3,0c0,0,0,0,0.1,0c0.1,0,0.2,0,0.2-0.1c0,0,0,0,0,0c1.2-0.4,2.1-1.4,2.2-2.6c0-0.1,0-0.2,0-0.3
			v-69.9c0-0.1,0-0.2,0-0.3C304.1,313,303.3,312,302.3,311.6"/>
		<path id="Path9_00000158029847276651449200000004681901839002330026_" class="st0" d="M65.6,370.9c0-0.2,0-0.3-0.1-0.5
			c0-0.1,0-0.2,0-0.4c0-0.1,0-0.3-0.1-0.4c0-0.1-0.1-0.3-0.1-0.4c0-0.1,0-0.2-0.1-0.3c0-0.2-0.1-0.3-0.1-0.5c0-0.1-0.1-0.2-0.1-0.2
			c0-0.2-0.1-0.3-0.2-0.5c0-0.1,0-0.1-0.1-0.2c-0.1-0.2-0.1-0.3-0.2-0.5c0,0,0-0.1,0-0.1c-0.1-0.2-0.2-0.4-0.3-0.6c0,0,0,0,0,0
			c-0.7-1.5-1.8-2.7-3.1-3.8c0,0,0,0,0,0c-0.2-0.1-0.4-0.3-0.6-0.4c0,0,0,0,0,0c0,0,0,0,0,0c-0.1-0.1-0.2-0.2-0.3-0.2
			c-1.6-1.1-3.3-2-5.9-3c0,0-0.1,0-0.1,0c0,0-0.1,0-0.1-0.1c-1.4-0.5-2.9-1.1-4.5-1.6c0,0,0,0,0,0c0,0,0,0,0,0c0,0-0.1,0-0.1,0
			c-0.1-0.1-0.3-0.1-0.5-0.2c-0.1,0-0.2-0.1-0.3-0.1c-0.5-0.2-1-0.3-1.6-0.5c-0.4-0.1-0.8-0.3-1.3-0.4c-0.1,0-0.4-0.1-0.7-0.2
			c0,0,0,0,0,0c-0.2-0.1-0.3-0.1-0.5-0.2c-1.3-0.4-2.3-0.8-3.2-1.1c-1.5-0.5-2.8-1.1-3.9-1.8c0,0-0.1,0-0.1,0
			c-1.5-1-2.5-2.1-2.8-3.7l0,0c0-0.1,0-0.2,0-0.3c0,0,0,0,0-0.1c0-0.1,0-0.2,0-0.4c0-0.2,0-0.4,0-0.5c0-0.1,0-0.1,0-0.1
			c0-0.1,0-0.3,0-0.4c0,0,0-0.1,0-0.1c0-0.1,0.1-0.3,0.1-0.4c0,0,0,0,0-0.1c0-0.2,0.1-0.3,0.1-0.4c0,0,0,0,0,0
			c0.7-2,2.3-3.5,4.1-4.5c0.1-0.1,0.3-0.1,0.4-0.2c0.1-0.1,0.2-0.1,0.4-0.2c0.2-0.1,0.4-0.2,0.6-0.3c0.1-0.1,0.2-0.1,0.3-0.1
			c0.2-0.1,0.4-0.2,0.6-0.2c0.1,0,0.2-0.1,0.3-0.1c0.2-0.1,0.4-0.1,0.6-0.2c0.1,0,0.2-0.1,0.4-0.1c0.2-0.1,0.4-0.1,0.6-0.1
			c0.1,0,0.3-0.1,0.4-0.1c0.2,0,0.4-0.1,0.6-0.1c0.1,0,0.2,0,0.3-0.1c0.2,0,0.5-0.1,0.7-0.1c0.1,0,0.1,0,0.2,0c0.3,0,0.6,0,0.8,0
			c0.3,0,0.6,0,1,0c0.1,0,0.1,0,0.1,0c2.3,0.1,4.1,0.7,5.6,1.4c0.1,0.1,0.2,0.1,0.3,0.2c0.1,0,0.1,0.1,0.2,0.1
			c0.1,0.1,0.3,0.2,0.4,0.2c0,0,0.1,0,0.1,0c0.2,0.1,0.3,0.2,0.5,0.3c0,0,0,0,0,0c0.2,0.1,0.3,0.2,0.5,0.3c0,0,0,0,0,0
			c0.2,0.1,0.3,0.2,0.5,0.3c0.1,0.1,0.1,0.1,0.2,0.1c0.4,0.3,0.9,0.7,1.4,1.1c0.1,0,0.1,0.1,0.2,0.1c0.4,0.3,0.7,0.6,1.1,0.9
			c0.1,0.1,0.1,0.1,0.2,0.1c0,0,0,0,0,0c0,0,0.1,0.1,0.1,0.1c0.1,0.1,0.2,0.1,0.3,0.2c0,0,0.1,0,0.1,0.1c0.1,0.1,0.2,0.1,0.3,0.2
			c0,0,0.1,0,0.1,0c0.1,0.1,0.2,0.1,0.3,0.1c0,0,0,0,0.1,0c0.1,0,0.2,0.1,0.3,0.1c0,0,0,0,0,0c0.3,0,0.5,0.1,0.8,0c0,0,0.1,0,0.1,0
			c0.1,0,0.1,0,0.2-0.1c0,0,0,0,0.1,0c0,0,0.1,0,0.1,0c0.1-0.1,0.2-0.1,0.3-0.2c0,0,0,0,0.1,0c0.1-0.1,0.2-0.2,0.3-0.2c0,0,0,0,0,0
			c0.1-0.1,0.2-0.2,0.2-0.3c0.1-0.1,0.1-0.1,0.1-0.2c0,0,0,0,0,0c0.5-0.9,0.2-2.1-0.7-3.4c0,0,0-0.1-0.1-0.1c0-0.1-0.1-0.1-0.1-0.1
			c-2.2-2.8-7.2-5.9-11.8-6.9c0,0-0.1,0-0.1,0c-0.2,0-0.4-0.1-0.6-0.1c-0.1,0-0.1,0-0.2,0c-0.2,0-0.3-0.1-0.5-0.1
			c-0.1,0-0.1,0-0.2,0c-0.2,0-0.3,0-0.5,0c-0.1,0-0.1,0-0.2,0c-0.2,0-0.4,0-0.6,0c-0.3,0-0.7,0-1,0c-0.2,0-0.4,0-0.6,0
			c-0.1,0-0.3,0-0.4,0c-0.3,0-0.5,0-0.7,0.1c-0.1,0-0.1,0-0.2,0c-0.3,0-0.6,0.1-0.8,0.1c0,0-0.1,0-0.1,0c-0.3,0-0.6,0.1-0.9,0.1
			c0,0,0,0-0.1,0c-0.3,0-0.6,0.1-0.8,0.1c0,0,0,0-0.1,0c-0.6,0.1-1.1,0.2-1.7,0.4c0,0,0,0,0,0c-0.3,0.1-0.5,0.1-0.8,0.2
			c-0.3,0.1-0.5,0.2-0.7,0.2c0,0,0,0-0.1,0c-0.2,0.1-0.5,0.2-0.7,0.3c0,0-0.1,0-0.1,0c-0.2,0.1-0.4,0.2-0.7,0.3c0,0-0.1,0-0.1,0
			c-0.2,0.1-0.4,0.2-0.6,0.3c-0.1,0-0.1,0-0.1,0.1c-0.2,0.1-0.4,0.2-0.6,0.3c-0.1,0-0.1,0.1-0.1,0.1c-0.2,0.1-0.3,0.2-0.5,0.3
			c-0.1,0-0.1,0.1-0.2,0.1c-0.2,0.1-0.4,0.3-0.6,0.4c-0.2,0.2-0.5,0.3-0.7,0.5c0,0,0,0,0,0c-1.1,0.8-2,1.7-2.8,2.7
			c0,0-0.1,0.1-0.1,0.1c-0.1,0.1-0.2,0.3-0.3,0.4c-0.1,0.1-0.1,0.2-0.2,0.3c-0.1,0.1-0.1,0.2-0.1,0.2c-0.1,0.2-0.2,0.3-0.3,0.5
			c0,0,0,0,0,0.1c-0.7,1.4-1.1,3-1.3,4.9c0,0,0,0.1,0,0.1c0,0.3,0,0.7-0.1,1c0,0.3,0,0.5,0,0.8c0,0,0,0.1,0,0.1
			c0.1,3.7,1.8,6.5,4.8,8.6c0,0,0.1,0,0.1,0.1c0.1,0.1,0.3,0.2,0.4,0.3c0.1,0.1,0.2,0.1,0.3,0.2c0,0,0.1,0,0.1,0.1
			c3,1.9,6.7,3,9.7,3.8c1.5,0.4,2.8,0.8,3.2,0.9c0.1,0,0.2,0.1,0.3,0.1c1.8,0.6,3.2,1.1,4.4,1.6c0.1,0,0.2,0.1,0.3,0.1
			c0,0,0.1,0,0.1,0.1c0.7,0.3,1.3,0.6,1.9,0.9c0.5,0.3,1,0.5,1.5,0.8c1.2,0.8,2.2,1.6,2.8,2.5c0,0,0,0.1,0.1,0.1
			c0.1,0.1,0.1,0.2,0.2,0.2c0,0.1,0.1,0.1,0.1,0.1c0,0.1,0.1,0.1,0.1,0.2c0,0.1,0.1,0.1,0.1,0.2c0,0.1,0.1,0.1,0.1,0.2
			c0,0.1,0.1,0.2,0.1,0.2c0,0,0,0.1,0.1,0.1c0,0.1,0.1,0.2,0.1,0.3c0,0,0,0.1,0,0.1c0,0.1,0.1,0.2,0.1,0.3c0,0,0,0.1,0,0.1
			c0,0.1,0,0.2,0,0.3c0,0,0,0.1,0,0.1c0,0.2,0,0.3,0,0.5c0,0.2,0,0.5,0,0.7c0,0.1,0,0.1,0,0.2c0,0.2,0,0.3-0.1,0.5
			c0,0.1,0,0.1,0,0.2c-0.1,0.5-0.2,0.9-0.4,1.3c0,0,0,0,0,0c-0.1,0.2-0.2,0.4-0.3,0.6c0,0,0,0,0,0.1c-0.2,0.4-0.5,0.8-0.8,1.2
			c-0.2,0.2-0.3,0.4-0.5,0.6c0,0,0,0,0,0c-0.3,0.3-0.7,0.7-1.1,1c0,0,0,0,0,0c-0.2,0.1-0.4,0.3-0.6,0.4c0,0-0.1,0-0.1,0.1
			c-0.3,0.2-0.7,0.4-1.1,0.6c-0.1,0.1-0.3,0.1-0.4,0.2c-0.1,0.1-0.3,0.1-0.5,0.2c-0.1,0.1-0.2,0.1-0.4,0.2c-0.3,0.1-0.7,0.3-1,0.4
			c-0.1,0-0.1,0-0.2,0.1c-0.2,0.1-0.4,0.1-0.6,0.2c-0.1,0-0.1,0-0.2,0.1c-0.7,0.2-1.4,0.3-2,0.4c0,0,0,0,0,0
			c-0.3,0.1-0.6,0.1-0.9,0.1c-0.1,0-0.2,0-0.3,0c-0.1,0-0.2,0-0.3,0c-0.2,0-0.5,0-0.7,0c-0.5,0-0.9,0-1.4,0c-0.2,0-0.4,0-0.5,0
			c-0.2,0-0.5,0-0.7-0.1c-0.2,0-0.5,0-0.7-0.1c-0.2,0-0.4-0.1-0.6-0.1c-0.4-0.1-0.8-0.1-1.1-0.2c-0.2,0-0.3-0.1-0.5-0.1
			c-0.2-0.1-0.4-0.1-0.6-0.1c-0.2-0.1-0.4-0.1-0.6-0.2c-0.1,0-0.3-0.1-0.4-0.1c-0.3-0.1-0.7-0.2-1-0.3c-0.1,0-0.2-0.1-0.2-0.1
			c-0.7-0.3-1.5-0.6-2.2-1c0,0-0.1,0-0.1-0.1c-0.5-0.2-1.3-0.7-2-1.1c-0.1,0-0.1-0.1-0.2-0.1c-0.5-0.3-1-0.6-1.4-0.8
			c0,0-0.1,0-0.1-0.1c0,0-0.1,0-0.1,0c-0.1-0.1-0.2-0.1-0.3-0.1c0,0-0.1,0-0.1,0c-0.3-0.1-0.5-0.2-0.8-0.2c-0.1,0-0.2,0-0.2,0
			c0,0-0.1,0-0.1,0c-0.5,0-0.9,0.2-1.3,0.5c-0.1,0.1-0.2,0.2-0.2,0.2c0,0,0,0.1-0.1,0.1c-0.1,0.1-0.1,0.1-0.1,0.2
			c0,0-0.1,0.1-0.1,0.1c0,0.1-0.1,0.1-0.1,0.2c0,0,0,0.1-0.1,0.1c0,0.1-0.1,0.1-0.1,0.2c0,0,0,0.1,0,0.1c0,0.1,0,0.1-0.1,0.2
			c0,0,0,0.1,0,0.1c0,0.1,0,0.1,0,0.2c0,0,0,0.1,0,0.1c0,0.1,0,0.2,0,0.2c0,0,0,0,0,0c0,0.1,0,0.2,0,0.3c0,0,0,0,0,0.1
			c0,0.1,0,0.2,0.1,0.2c0,0,0,0.1,0,0.1c0,0.1,0,0.1,0.1,0.2c0,0,0,0.1,0,0.1c0.2,0.4,0.4,0.8,0.8,1.2c0.4,0.4,0.9,0.8,1.4,1.3
			c0,0,0,0,0,0c0.2,0.1,0.3,0.2,0.5,0.3c0,0,0.1,0.1,0.1,0.1c0.5,0.3,0.9,0.6,1.5,0.9c0.1,0.1,0.3,0.2,0.4,0.2
			c0.1,0.1,0.3,0.1,0.4,0.2c0.2,0.1,0.3,0.2,0.5,0.3c0.1,0.1,0.2,0.1,0.3,0.2c0.3,0.1,0.5,0.3,0.8,0.4c0,0,0.1,0,0.1,0.1
			c0.3,0.1,0.6,0.3,0.9,0.4c0.1,0.1,0.2,0.1,0.4,0.2c0,0,0.1,0,0.1,0c2.8,1.1,6.2,1.8,9.2,1.9c0.2,0,0.5,0,0.7,0h0
			c0.1,0,0.2,0,0.3,0c0.2,0,0.5,0,0.7,0c0,0,0.1,0,0.1,0c4.9-0.2,8.9-1.4,12.3-3.9c0,0,0,0,0,0c3.8-2.9,5.9-6.9,5.9-11.3
			c0-0.3,0-0.6,0-0.8C65.6,371.1,65.6,371,65.6,370.9"/>
		<path id="Path10_00000118363108765413553210000017052465893860545672_" class="st0" d="M97.1,333.9
			C97.1,333.9,97.1,333.9,97.1,333.9c-6,0-11.7,2.4-15.8,6.8V337c0-1.7-1.3-3.1-3-3.1c-0.1,0-0.2,0-0.3,0c-0.7,0.1-1.4,0.4-1.9,0.9
			c0,0,0,0,0,0c0,0.1-0.1,0.1-0.1,0.2c0,0-0.1,0-0.1,0.1c0,0-0.1,0.1-0.1,0.1c0,0-0.1,0.1-0.1,0.1c0,0,0,0.1,0,0.1
			c0,0.1-0.1,0.1-0.1,0.2c0,0,0,0,0,0c0,0.1-0.1,0.2-0.1,0.2c-0.1,0.2-0.1,0.4-0.2,0.6c0,0,0,0,0,0c0,0.1,0,0.2,0,0.3
			c0,0.1,0,0.2,0,0.3v47.9l0,0.2l0.2,0.1c0,0.1,0,0.2,0.1,0.2c0,0,0,0,0,0.1c0,0.1,0.1,0.1,0.1,0.2c0.4,0.8,1.1,1.3,2,1.6l0.1,0h0.7
			c0.1,0,0.2,0,0.3,0c0.1,0,0.2,0,0.2-0.1c0,0,0.1,0,0.1,0c0.1,0,0.2-0.1,0.3-0.1c0,0,0,0,0,0c0.5-0.2,1-0.5,1.3-1c0,0,0,0,0,0
			c0.2-0.2,0.3-0.5,0.4-0.8c0,0,0-0.1,0-0.1c0,0,0,0,0,0c0.1-0.2,0.1-0.3,0.1-0.5l0-0.1v-29c0.2-8.6,7.3-15.7,15.8-15.7c0,0,0,0,0,0
			c8.6,0,15.7,7,15.7,15.7v28.5c0,0.1,0,0.2,0,0.3c0.1,0.7,0.4,1.4,0.9,1.9c0,0,0,0,0,0c0.1,0.1,0.1,0.1,0.2,0.1c0,0,0,0,0.1,0.1
			c0,0,0.1,0.1,0.1,0.1c0,0,0.1,0.1,0.1,0.1c0,0,0.1,0,0.1,0.1c0.1,0,0.1,0.1,0.2,0.1c0,0,0,0,0.1,0c0.1,0,0.1,0.1,0.2,0.1h0
			c0.2,0.1,0.4,0.1,0.6,0.2c0,0,0,0,0.1,0c0.1,0,0.2,0,0.3,0c0.1,0,0.2,0,0.3,0c0.1,0,0.2,0,0.3,0c0.1,0,0.2,0,0.3,0c0,0,0,0,0.1,0
			c0.2,0,0.4-0.1,0.6-0.2c0.1,0,0.2-0.1,0.2-0.1c0,0,0,0,0,0c0.1,0,0.1-0.1,0.2-0.1c0,0,0.1,0,0.1-0.1c0,0,0.1-0.1,0.1-0.1
			c0,0,0.1-0.1,0.1-0.1c0,0,0,0,0.1-0.1c0.1-0.1,0.1-0.1,0.2-0.1c0,0,0,0,0,0c0.5-0.5,0.8-1.1,0.9-1.9c0-0.1,0-0.2,0-0.3v-28.5
			C118.9,343.7,109.1,333.9,97.1,333.9"/>
		<path id="Combined-Shape4_00000176764177542966191350000006156102999573626515_" class="st0" d="M152.7,333.8
			c14,0,25.4,12,25.4,26.8c0,14.8-11.4,26.8-25.4,26.8c-0.4,0-0.9,0-1.3,0c-0.1,0-0.1,0-0.2,0c-0.4,0-0.7-0.1-1.1-0.1c0,0,0,0,0,0
			c-5.5-0.6-10.7-3.1-14.8-7.3c-0.2-0.2-0.3-0.3-0.5-0.5c0,0,0,0,0,0c-0.1-0.1-0.2-0.2-0.3-0.3c-0.2-0.2-0.4-0.4-0.6-0.6
			c-0.2-0.2-0.3-0.4-0.5-0.5c-0.1-0.1-0.2-0.3-0.3-0.4c-0.2-0.3-0.5-0.6-0.7-0.9c0,0-0.1-0.1-0.1-0.1c-2.5-3.5-4.2-7.6-4.8-11.9
			c-0.1-0.4-0.1-0.8-0.1-1.2c0,0,0-0.1,0-0.1c0-0.4-0.1-0.7-0.1-1.1c0-0.1,0-0.2,0-0.2c0-0.4,0-0.9,0-1.3c0-0.5,0-0.9,0-1.3
			c0-0.1,0-0.2,0-0.2c0-0.4,0-0.7,0.1-1.1c0-0.1,0-0.1,0-0.1c0-0.4,0.1-0.8,0.1-1.2c0.6-4.3,2.3-8.4,4.8-11.9c0,0,0-0.1,0.1-0.1
			c0.2-0.3,0.4-0.6,0.7-0.9c0.1-0.1,0.2-0.3,0.3-0.4c0.2-0.2,0.3-0.4,0.5-0.6c0.2-0.2,0.4-0.4,0.6-0.6c0.1-0.1,0.2-0.2,0.3-0.3
			c0,0,0,0,0,0c0.1-0.2,0.3-0.3,0.5-0.5c4.1-4.2,9.3-6.7,14.9-7.3c0,0,0,0,0,0c0.4,0,0.7-0.1,1.1-0.1c0.1,0,0.1,0,0.2,0
			C151.9,333.8,152.3,333.8,152.7,333.8z M171.8,358.5C171.8,358.5,171.8,358.5,171.8,358.5c-0.5-4.7-2.4-8.9-5.2-12.1
			c-0.1-0.1-0.2-0.3-0.4-0.4c-0.1-0.1-0.2-0.2-0.2-0.2c-0.2-0.2-0.3-0.3-0.5-0.5c-0.1-0.1-0.3-0.3-0.4-0.4c-0.1-0.1-0.2-0.2-0.3-0.2
			c-0.2-0.2-0.5-0.4-0.7-0.6c0,0,0,0,0,0c-2.7-2.2-5.9-3.6-9.4-4c0,0-0.1,0-0.1,0c-0.3,0-0.5-0.1-0.8-0.1c-0.1,0-0.1,0-0.2,0
			c-0.3,0-0.6,0-1,0c-0.3,0-0.6,0-1,0c-0.1,0-0.1,0-0.2,0c-0.3,0-0.5,0-0.8,0.1c0,0-0.1,0-0.1,0c-3.5,0.4-6.7,1.8-9.4,4c0,0,0,0,0,0
			c-0.2,0.2-0.5,0.4-0.7,0.6c-0.1,0.1-0.2,0.2-0.3,0.2c-0.1,0.1-0.3,0.3-0.4,0.4c-0.1,0.1-0.3,0.3-0.4,0.5c-0.1,0.1-0.2,0.2-0.2,0.2
			c-0.1,0.1-0.2,0.3-0.4,0.4c-2.8,3.2-4.8,7.4-5.2,12.1c0,0,0,0,0,0c0,0.3-0.1,0.6-0.1,0.9c0,0.1,0,0.1,0,0.2c0,0.3,0,0.7,0,1
			c0,11.3,8.7,20.6,19.2,20.6c10.5,0,19.2-9.3,19.2-20.6c0-0.3,0-0.7,0-1c0-0.1,0-0.1,0-0.2C171.9,359.1,171.9,358.8,171.8,358.5z"
			/>
		<path id="Path11_00000174597091926222043390000017913788992106882227_" class="st0" d="M252.7,335.1
			C252.7,335.1,252.7,335.1,252.7,335.1c-0.4-0.5-0.8-0.8-1.3-1c0,0,0,0,0,0c-0.1,0-0.1-0.1-0.2-0.1c0,0-0.1,0-0.1,0
			c-0.4-0.1-0.9-0.2-1.3-0.1h0c-0.9,0.1-1.7,0.7-2.2,1.5c0,0,0,0,0,0c-0.1,0.1-0.1,0.3-0.2,0.4l0,0v0l-14.8,40.4l-11.6-27.6
			c-0.1-0.3-0.3-0.5-0.5-0.7c-0.6-0.7-1.6-1.2-2.6-1.2c-0.2,0-0.3,0-0.5,0c0,0,0,0-0.1,0c-1,0.2-2,0.9-2.4,1.9c0,0,0,0,0,0
			l-11.6,27.6l-5.6-15.3l-9.3-25.2c-0.1-0.1-0.1-0.3-0.2-0.4c0,0,0,0,0,0c-0.3-0.5-0.7-0.9-1.3-1.2c0,0,0,0,0,0
			c-0.3-0.1-0.6-0.2-0.9-0.3c0,0,0,0-0.1,0c-0.1,0-0.3,0-0.4,0h0c0,0-0.1,0-0.1,0c-0.1,0-0.1,0-0.2,0c0,0-0.1,0-0.1,0
			c-0.1,0-0.1,0-0.2,0c0,0-0.1,0-0.1,0c-0.1,0-0.1,0-0.2,0.1c0,0-0.1,0-0.1,0c-0.1,0-0.1,0-0.2,0.1c0,0,0,0,0,0
			c-0.5,0.2-1,0.6-1.3,1.1c0,0,0,0,0,0.1s0,0.1,0,0.1c-0.2,0.4-0.4,0.8-0.4,1.3c-0.1,0.5,0,1,0.2,1.4l10.7,28.8l6.9,18.5
			c0,0,0,0,0,0c0.3,0.7,0.7,1.2,1.3,1.4c0,0,0,0,0.1,0c0,0,0,0,0.1,0c0,0,0,0,0,0c0,0,0,0,0.1,0.1c0,0,0,0,0,0
			c0.1,0.1,0.2,0.1,0.4,0.1c0,0,0,0,0,0c0.1,0,0.1,0,0.2,0.1c0,0,0.1,0,0.1,0c0.3,0.1,0.5,0.1,0.8,0.1c0.1,0,0.3,0,0.4,0
			c0.1,0,0.2,0,0.3-0.1c0,0,0.1,0,0.1,0c0.1,0,0.2-0.1,0.3-0.1c0,0,0.1,0,0.1-0.1c0.1,0,0.1-0.1,0.2-0.1c0.1,0,0.1-0.1,0.2-0.1
			c0,0,0.1-0.1,0.1-0.1c0.1-0.1,0.2-0.1,0.3-0.2c0,0,0,0,0-0.1c0.1-0.1,0.2-0.2,0.3-0.3c0,0,0,0,0,0c0.1-0.1,0.2-0.2,0.2-0.3
			c0.1-0.1,0.1-0.3,0.2-0.4l0,0l0-0.1l0-0.1l11.6-27.8l11.7,27.9c0.1,0.3,0.2,0.5,0.4,0.8c0,0,0.1,0.1,0.1,0.1
			c0.1,0.1,0.1,0.2,0.2,0.2c0,0,0.1,0.1,0.1,0.1c0.1,0.1,0.1,0.1,0.2,0.2c0,0,0.1,0.1,0.1,0.1c0.1,0.1,0.2,0.1,0.3,0.2
			c0,0,0.1,0,0.1,0c0.1,0.1,0.2,0.1,0.3,0.1c0,0,0.1,0,0.1,0c0.1,0,0.2,0.1,0.3,0.1c0.1,0,0.3,0.1,0.4,0.1h0.4c0.2,0,0.3,0,0.4,0
			c0,0,0.1,0,0.1,0c0.1,0,0.2-0.1,0.4-0.1c0,0,0.1,0,0.1,0c0.1,0,0.3-0.1,0.4-0.2c0,0,0,0,0,0c0.1-0.1,0.3-0.2,0.4-0.3
			c0.5-0.4,0.9-0.9,1.1-1.5v0l7.3-19.5l10.2-27.5c0.4-1,0.2-2-0.3-2.8C252.8,335.2,252.8,335.2,252.7,335.1"/>
		<path id="Path12_00000059268416663220959250000001598728272100393357_" class="st0" d="M416.7,336c0-0.1,0-0.1,0-0.2
			c0,0,0-0.1,0-0.1c0-0.1,0-0.1,0-0.2c0,0,0-0.1,0-0.1c0-0.1,0-0.1-0.1-0.2c0,0,0,0,0-0.1c0-0.1-0.1-0.2-0.1-0.2c0,0,0,0,0,0
			c-0.2-0.3-0.3-0.5-0.6-0.7c0,0,0,0,0,0c0,0,0,0,0,0c-1.1-1.1-2.6-1.2-3.9-0.4c0,0-0.1,0.1-0.1,0.1c-0.1,0-0.1,0.1-0.2,0.1
			c-0.1,0.1-0.2,0.1-0.2,0.2c0,0,0,0,0,0l-30.2,29.4v-49.2c0-0.1,0-0.2,0-0.3c-0.1-1.1-0.9-2.1-1.9-2.5c0,0,0,0,0,0
			c-0.1,0-0.1-0.1-0.2-0.1c0,0-0.1,0-0.1,0c-0.1,0-0.1,0-0.2,0c0,0-0.1,0-0.1,0c-0.1,0-0.1,0-0.2,0c-0.1,0-0.1,0-0.1,0
			c-0.1,0-0.2,0-0.3,0c-1.7,0-3.1,1.4-3.1,3.1v69.9c0,1.7,1.4,3.1,3.1,3.1c0.1,0,0.2,0,0.3,0c0,0,0,0,0.1,0c0.1,0,0.2,0,0.3,0
			c0,0,0.1,0,0.1,0c0.1,0,0.2,0,0.2-0.1c0,0,0,0,0,0c1.2-0.4,2.1-1.4,2.2-2.6c0-0.1,0-0.2,0-0.3v-11.8l10.2-10.2l19.8,23.9
			c0.1,0.2,0.3,0.4,0.5,0.5c0,0,0.1,0.1,0.1,0.1c0.1,0,0.1,0.1,0.2,0.1c0.1,0.1,0.1,0.1,0.2,0.1c0,0,0.1,0,0.1,0.1
			c0.1,0,0.2,0.1,0.3,0.1c0,0,0.1,0,0.1,0c0.1,0,0.2,0.1,0.3,0.1c0,0,0,0,0.1,0c0.1,0,0.2,0,0.3,0.1c0,0,0.1,0,0.1,0
			c0.1,0,0.3,0,0.4,0c0.2,0,0.4,0,0.6,0c0,0,0,0,0,0c0.4-0.1,0.7-0.2,1-0.3c0,0,0,0,0,0c0.1-0.1,0.3-0.2,0.4-0.3l0,0
			c1.2-1.2,1.4-2.8,0.5-4.1c-0.1-0.1-0.2-0.2-0.2-0.3l-20.1-24.4l19.9-19.3c0.5-0.5,0.9-1.2,0.9-1.9c0,0,0,0,0,0c0-0.1,0-0.1,0-0.2
			c0,0,0-0.1,0-0.1s0,0,0-0.1c0-0.1,0-0.1,0-0.1C416.7,336.1,416.7,336,416.7,336"/>
	</g>
</g>
</svg>
