<?xml version="1.0" encoding="utf-8"?>
<!-- Generator: Adobe Illustrator 26.0.0, SVG Export Plug-In . SVG Version: 6.00 Build 0)  -->
<svg version="1.1" id="Layer_1" xmlns="http://www.w3.org/2000/svg" xmlns:xlink="http://www.w3.org/1999/xlink" x="0px" y="0px"
	 viewBox="0 0 500 500" style="enable-background:new 0 0 500 500;" xml:space="preserve">
<style type="text/css">
	.st0{fill:#001240;}
	.st1{fill:#F95E28;}
</style>
<g>
	<g>
		<g>
			<g>
				<g>
					<path class="st0" d="M17.4,268.4l7.3-8.7c5.1,4.2,10.3,6.8,16.8,6.8c5.1,0,8.2-2,8.2-5.3V261c0-3.1-2-4.8-11.3-7.1
						c-11.3-2.9-18.7-6-18.7-17.2v-0.2c0-10.2,8.2-17,19.7-17c8.2,0,15.2,2.5,20.9,7.1l-6.5,9.3c-5-3.5-9.8-5.5-14.6-5.5
						s-7.2,2.2-7.2,4.9v0.2c0,3.7,2.4,4.9,12.1,7.4c11.4,3,17.8,7,17.8,16.9v0.2c0,11.2-8.5,17.4-20.6,17.4
						C32.8,277.4,24.2,274.4,17.4,268.4z"/>
				</g>
				<g>
					<path class="st0" d="M69.5,220.4h23c13.4,0,21.5,8,21.5,19.4v0.2c0,13-10.1,19.8-22.7,19.8h-9.4v16.9H69.5V220.4z M91.7,248.7
						c6.2,0,9.7-3.7,9.7-8.5V240c0-5.5-3.8-8.5-10-8.5h-9.6v17.2L91.7,248.7L91.7,248.7z"/>
				</g>
				<g>
					<path class="st0" d="M131.4,219.9h11.4l24.1,56.6H154l-5.2-12.6h-23.7l-5.2,12.6h-12.7L131.4,219.9z M144.4,253l-7.5-18.2
						l-7.5,18.2H144.4z"/>
				</g>
				<g>
					<path class="st0" d="M172.8,220.4h25.7c7.1,0,12.7,2,16.4,5.7c3.1,3.1,4.8,7.5,4.8,12.8v0.2c0,9.1-4.9,14.8-12,17.4l13.7,20.1
						h-14.4l-12-18h-9.7v18h-12.4V220.4z M197.7,247.7c6,0,9.5-3.2,9.5-8v-0.2c0-5.3-3.7-8.1-9.7-8.1h-12.3v16.1L197.7,247.7
						L197.7,247.7z"/>
				</g>
				<g>
					<g>
						<path class="st0" d="M285.3,220.4h20.3c12.4,0,20.9,6.4,20.9,17.2v0.2c0,11.8-10.2,17.9-21.9,17.9h-15.2v20.9h-4.2
							L285.3,220.4L285.3,220.4z M304.9,251.7c10.4,0,17.5-5.4,17.5-13.8v-0.2c0-8.9-6.9-13.6-17.1-13.6h-15.9v27.6
							C289.5,251.7,304.9,251.7,304.9,251.7z"/>
					</g>
					<g>
						<path class="st0" d="M393.5,268.4l2.7-3.1c6.2,5.7,11.9,8.3,20.2,8.3c8.4,0,14.2-4.8,14.2-11.2v-0.2c0-5.9-3.1-9.4-15.9-12
							c-13.5-2.7-18.9-7.3-18.9-15.8v-0.2c0-8.3,7.6-14.8,18.1-14.8c8.2,0,13.6,2.2,19.3,6.8l-2.6,3.3c-5.3-4.6-10.6-6.4-16.8-6.4
							c-8.2,0-13.7,4.8-13.7,10.6v0.3c0,5.9,3.1,9.6,16.4,12.3c13,2.6,18.5,7.3,18.5,15.5v0.2c0,9.1-7.8,15.4-18.7,15.4
							C407.1,277.4,400.3,274.4,393.5,268.4z"/>
					</g>
					<g>
						<path class="st0" d="M458.9,224.2h-19.6v-3.8h43.3v3.8H463v52.3h-4.2L458.9,224.2L458.9,224.2z"/>
					</g>
				</g>
				<g>
					<g>
						<path class="st0" d="M240.4,244l19.5-23.6H275l-22.8,26.7l24.5,29.5h-15.9l-20.2-25.1v25.1h-12.4v-56.2h12.4L240.4,244
							L240.4,244z"/>
					</g>
				</g>
			</g>
			<g>
				<path class="st1" d="M380.7,207.5c-6.3,4.7-7.5,13-7.7,18.7c-9.9-11.4,18.3-45.1-13.8-65.9c19.9,25.7-28.2,50.9-28.2,88.8
					c0,14.8,9.3,27.9,29.6,32.4c20-4.2,29.8-17.6,29.8-32.4C390.4,226.9,376.6,219.6,380.7,207.5z M360.7,269.4
					c-10.9,0-19.7-8.8-19.7-19.7s8.8-19.7,19.7-19.7s19.7,8.8,19.7,19.7C380.4,260.6,371.6,269.4,360.7,269.4z"/>
			</g>
		</g>
	</g>
	<g id="A-MessageBird-compan" transform="translate(0.304688, 907.000000)">
		<path id="A" class="st0" d="M22.4-576.9l2.2-6H36l2.2,6H42l-9.7-25.7h-3.8l-9.7,25.7H22.4z M34.9-585.8h-9.4l4.7-13.2L34.9-585.8z
			"/>
		<path id="MessageBird" class="st0" d="M61.6-576.9V-595l5.8,11.2h3.3l5.8-11.2v18.1h5.6v-25.7h-6.7l-6,11.6l-6.2-11.6h-7.2v25.7
			H61.6z M97.2-576.5c0.7,0,1.3,0,2-0.1c0.7-0.1,1.4-0.3,2.1-0.5s1.3-0.6,2-0.8c0.7-0.4,1.2-0.8,1.7-1.4c0.5-0.6,0.9-1.2,1.3-2
			s0.7-1.6,0.7-2.5h-5.5c-0.2,0.9-0.6,1.7-1.3,2.2c-0.7,0.6-1.6,0.8-2.8,0.8c-1.4,0-2.5-0.5-3.4-1.4c-0.7-0.9-1.2-2.3-1.2-4.2h14.2
			v-0.8c0-2.1-0.3-3.8-0.9-5.2c-0.6-1.4-1.4-2.4-2.3-3.3s-2.1-1.4-3.2-1.7c-1.2-0.4-2.3-0.5-3.5-0.5c-1.2,0-2.3,0.2-3.6,0.5
			c-1.2,0.4-2.2,0.9-3.2,1.8c-0.9,0.8-1.7,1.9-2.3,3.3c-0.7,1.4-0.8,3.1-0.8,5.2c0,2.1,0.3,3.7,0.8,5.1c0.6,1.4,1.3,2.4,2.2,3.3
			s2.1,1.4,3.2,1.8C94.5-576.7,96-576.5,97.2-576.5z M101.3-589.4h-8.5c0.2-1.4,0.7-2.5,1.3-3.2c0.7-0.7,1.7-1,2.9-1s2.2,0.4,2.9,1
			C100.7-591.9,101.1-590.9,101.3-589.4z M119.9-576.5c1.1,0,2.2-0.1,3.3-0.4c1.1-0.2,2.1-0.6,2.9-1.1c0.8-0.5,1.5-1.2,2.1-2.1
			c0.6-0.8,0.7-1.9,0.7-3.1c0-0.9-0.2-1.8-0.6-2.5c-0.4-0.7-0.8-1.3-1.4-1.8c-0.6-0.5-1.2-0.8-2-1.1c-0.7-0.3-1.5-0.6-2.2-0.7
			c-0.9-0.3-1.7-0.5-2.4-0.7c-0.7-0.2-1.4-0.4-2-0.6c-0.6-0.2-1-0.4-1.3-0.7c-0.3-0.3-0.5-0.7-0.5-1.1c0-0.7,0.3-1.1,0.7-1.4
			c0.5-0.3,1.1-0.5,1.9-0.5c0.9,0,1.7,0.3,2.2,0.7c0.6,0.5,0.8,1.1,0.9,1.9h5.6c-0.1-1.1-0.4-2.1-0.8-2.8c-0.5-0.8-1.1-1.5-1.9-2.1
			c-0.7-0.6-1.7-0.9-2.7-1.2c-1-0.3-2.2-0.4-3.3-0.4c-1,0-2.1,0.1-3.1,0.3s-1.9,0.6-2.7,1c-0.7,0.5-1.4,1.1-1.9,1.9
			c-0.5,0.7-0.7,1.8-0.7,2.9c0,1,0.2,1.9,0.6,2.5c0.4,0.7,0.8,1.2,1.4,1.7c0.6,0.5,1.2,0.8,2,1.1c0.7,0.3,1.4,0.5,2.2,0.7
			c0.9,0.3,1.8,0.5,2.5,0.7c0.7,0.2,1.4,0.4,2,0.6c0.6,0.2,0.9,0.5,1.2,0.7c0.3,0.3,0.4,0.7,0.4,1.1c0,0.7-0.3,1.3-0.9,1.7
			c-0.6,0.4-1.4,0.6-2.3,0.6c-0.6,0-1.1-0.1-1.7-0.3c-0.5-0.2-0.9-0.4-1.3-0.7c-0.4-0.3-0.7-0.7-0.8-1c-0.2-0.4-0.4-0.8-0.4-1.3
			h-5.6c0.1,1.2,0.4,2.2,0.9,3.1c0.6,0.9,1.2,1.6,2.1,2.2c0.8,0.6,1.9,1,3,1.3C117-576.9,118.6-576.5,119.9-576.5z M141.7-576.5
			c1.1,0,2.2-0.1,3.3-0.4c1.1-0.3,2.1-0.6,2.9-1.1c0.8-0.5,1.5-1.2,2.1-2.1c0.6-0.8,0.7-1.9,0.7-3.1c0-0.9-0.2-1.8-0.6-2.5
			c-0.4-0.7-0.8-1.3-1.4-1.8c-0.6-0.5-1.2-0.8-2-1.1c-0.7-0.3-1.5-0.6-2.2-0.7c-0.9-0.3-1.7-0.5-2.4-0.7s-1.4-0.4-2-0.6
			c-0.6-0.2-1-0.4-1.3-0.7c-0.3-0.3-0.5-0.7-0.5-1.1c0-0.7,0.3-1.1,0.7-1.4c0.5-0.4,1.1-0.5,1.9-0.5c0.9,0,1.7,0.3,2.2,0.7
			c0.6,0.5,0.8,1.1,0.9,1.9h5.6c-0.1-1.1-0.4-2.1-0.8-2.8c-0.5-0.8-1.1-1.5-1.9-2.1c-0.7-0.6-1.7-0.9-2.7-1.2
			c-1-0.3-2.2-0.4-3.3-0.4c-1,0-2.1,0.1-3.1,0.3s-1.9,0.6-2.7,1c-0.7,0.5-1.4,1.1-1.9,1.9c-0.5,0.7-0.7,1.8-0.7,2.9
			c0,1,0.2,1.9,0.6,2.5c0.4,0.7,0.8,1.2,1.4,1.7s1.2,0.8,2,1.1c0.7,0.3,1.4,0.5,2.2,0.7c0.9,0.3,1.8,0.5,2.5,0.7s1.4,0.4,2,0.6
			c0.6,0.2,0.9,0.5,1.2,0.7c0.3,0.3,0.4,0.7,0.4,1.1c0,0.7-0.3,1.3-0.9,1.7s-1.4,0.6-2.3,0.6c-0.6,0-1.1-0.1-1.7-0.3
			c-0.5-0.2-0.9-0.4-1.3-0.7c-0.4-0.3-0.7-0.7-0.8-1c-0.2-0.4-0.4-0.8-0.4-1.3h-5.6c0.1,1.2,0.4,2.2,0.9,3.1
			c0.6,0.9,1.2,1.6,2.1,2.2c0.8,0.6,1.9,1,3,1.3C139.2-576.6,140.4-576.5,141.7-576.5z M171.5-576.5c0.7,0,1.5-0.1,2.2-0.3
			s1.1-0.4,1.5-0.7v-3.8c-0.2,0.1-0.5,0.2-0.7,0.3c-0.3,0.1-0.6,0.1-0.8,0.1c-0.4,0-0.7-0.1-0.8-0.3c-0.2-0.2-0.3-0.5-0.3-0.9v-8
			c0-1.2-0.1-2.3-0.4-3.3c-0.3-0.9-0.7-1.8-1.4-2.5c-0.7-0.7-1.5-1.2-2.6-1.6c-1.1-0.4-2.4-0.6-4-0.6c-1,0-2.2,0.1-3.2,0.3
			c-1.1,0.2-2.1,0.6-3,1.1c-0.8,0.6-1.6,1.3-2.2,2.3s-0.8,2.2-0.9,3.8h5.3c0-1,0.3-1.9,0.7-2.5c0.5-0.6,1.4-0.8,2.6-0.8
			c0.7,0,1.3,0.1,1.7,0.3c0.5,0.2,0.7,0.5,1,0.8c0.2,0.4,0.4,0.8,0.5,1.3c0.1,0.6,0.1,1.1,0.1,1.8v0.5l-4.4,0.4
			c-0.6,0-1.2,0.1-1.9,0.2c-0.7,0.1-1.3,0.2-1.9,0.5c-0.7,0.2-1.2,0.5-1.8,0.7c-0.6,0.3-1,0.7-1.5,1.1c-0.5,0.5-0.7,1-1,1.6
			c-0.3,0.7-0.4,1.4-0.4,2.2c0,1,0.2,1.9,0.6,2.6c0.4,0.7,0.8,1.3,1.4,1.8c0.6,0.5,1.3,0.8,2.1,1c0.8,0.2,1.7,0.4,2.5,0.4
			c0.9,0,1.7-0.1,2.5-0.3c0.7-0.2,1.5-0.5,2.1-0.7c0.6-0.3,1.1-0.7,1.6-1c0.5-0.4,0.8-0.7,1.1-1.1v0.2c0,0.4,0.1,0.7,0.2,1
			c0.1,0.4,0.3,0.7,0.6,0.9c0.3,0.3,0.7,0.6,1.1,0.7C170.1-576.6,170.8-576.5,171.5-576.5z M162.4-580.3c-0.9,0-1.7-0.2-2.2-0.6
			c-0.5-0.4-0.7-0.9-0.7-1.7c0-0.9,0.3-1.6,0.9-2s1.6-0.7,2.9-0.8l3.3-0.4v3.8c-0.6,0.5-1.2,0.9-2,1.2
			C164.1-580.5,163.3-580.3,162.4-580.3z M187.2-567.3c1.8,0,3.3-0.2,4.7-0.5c1.4-0.3,2.5-0.7,3.6-1.3c0.9-0.6,1.7-1.3,2.2-2.2
			c0.6-0.8,0.7-1.9,0.7-3.1c0-1-0.2-2-0.7-2.6c-0.4-0.7-0.9-1.3-1.7-1.8c-0.7-0.5-1.5-0.7-2.4-1c-0.9-0.2-2-0.3-3-0.3h-5.2
			c-1,0-1.8-0.2-2.3-0.5c-0.5-0.3-0.7-0.7-0.7-1.2c0-0.4,0.1-0.7,0.4-0.9c0.3-0.3,0.6-0.5,0.8-0.7c0.6,0.2,1.2,0.3,1.9,0.4
			s1.2,0.1,1.8,0.1c1,0,2-0.1,3.1-0.4c1-0.3,2.1-0.7,2.9-1.3c0.8-0.6,1.6-1.4,2.2-2.3c0.6-0.9,0.8-2.1,0.8-3.5c0-0.4,0-0.7-0.1-1
			c-0.1-0.3-0.1-0.7-0.2-0.9c0.5-0.2,0.9-0.4,1.6-0.5c0.6-0.1,1.3-0.1,2.2-0.1v-5c-1.4,0-2.5,0.3-3.4,0.7c-0.8,0.5-1.6,1.1-2.1,1.9
			c-0.5-0.5-0.9-0.8-1.6-1.1c-0.6-0.4-1.1-0.6-1.8-0.8c-0.7-0.2-1.2-0.4-1.9-0.5c-0.7-0.1-1.2-0.2-1.9-0.2c-1,0-2,0.1-3.1,0.4
			c-1,0.3-2.1,0.7-2.9,1.3c-0.8,0.6-1.6,1.4-2.2,2.3c-0.6,0.9-0.8,2.1-0.8,3.5c0,1.3,0.3,2.4,0.8,3.5c0.6,0.9,1.3,1.7,2.2,2.3
			c-0.5,0.2-0.8,0.5-1.3,0.7c-0.5,0.2-0.7,0.6-1,0.8c-0.3,0.4-0.6,0.7-0.7,1.1c-0.2,0.4-0.3,0.8-0.3,1.3c0,0.5,0.1,0.8,0.2,1.2
			c0.1,0.4,0.3,0.7,0.6,1c0.3,0.3,0.6,0.6,0.8,0.8c0.3,0.2,0.7,0.5,1,0.6c-0.5,0.2-0.8,0.4-1.3,0.7c-0.4,0.3-0.7,0.6-1.1,0.8
			c-0.3,0.4-0.6,0.7-0.7,1.1c-0.2,0.5-0.3,0.9-0.3,1.5c0,0.8,0.2,1.6,0.7,2.2c0.5,0.7,1.1,1.2,2,1.8c0.8,0.5,2,0.8,3.2,1.1
			C184.1-567.5,185.6-567.3,187.2-567.3z M187.2-586.9c-1.2,0-2.1-0.3-2.7-0.9c-0.7-0.7-0.9-1.5-0.9-2.5c0-1.1,0.3-2,0.9-2.5
			c0.7-0.7,1.6-0.9,2.7-0.9c1.2,0,2.1,0.3,2.7,0.9c0.7,0.7,0.9,1.5,0.9,2.5c0,1.1-0.3,2-0.9,2.5
			C189.2-587.2,188.3-586.9,187.2-586.9z M187.4-570.9c-2,0-3.4-0.3-4.2-0.7c-0.8-0.5-1.3-1.1-1.3-2c0-0.5,0.1-0.9,0.4-1.3
			c0.3-0.4,0.6-0.6,0.9-0.7h6.5c1.2,0,2.1,0.2,2.6,0.5c0.6,0.3,0.8,0.8,0.8,1.5c0,0.9-0.5,1.7-1.5,2.1
			C190.6-571.1,189.2-570.9,187.4-570.9z M211.4-576.5c0.7,0,1.3,0,2-0.1c0.7-0.1,1.4-0.3,2.1-0.5s1.3-0.6,2-0.8
			c0.7-0.4,1.2-0.8,1.7-1.4c0.5-0.6,0.9-1.2,1.3-2c0.4-0.7,0.7-1.6,0.7-2.5h-5.5c-0.2,0.9-0.6,1.7-1.3,2.2c-0.7,0.6-1.6,0.8-2.8,0.8
			c-1.4,0-2.5-0.5-3.4-1.4c-0.7-0.9-1.2-2.3-1.2-4.2h14.2v-0.8c0-2.1-0.3-3.8-0.9-5.2c-0.6-1.4-1.4-2.4-2.3-3.3
			c-0.9-0.8-2.1-1.4-3.2-1.7c-1.2-0.4-2.3-0.5-3.5-0.5c-1.2,0-2.3,0.2-3.6,0.5c-1.2,0.4-2.2,0.9-3.2,1.8c-0.9,0.8-1.7,1.9-2.3,3.3
			s-0.8,3.1-0.8,5.2c0,2.1,0.3,3.7,0.8,5.1c0.6,1.4,1.3,2.4,2.2,3.3c0.9,0.8,2.1,1.4,3.2,1.8C208.9-576.7,210.1-576.5,211.4-576.5z
			 M215.5-589.4H207c0.2-1.4,0.7-2.5,1.3-3.2c0.7-0.7,1.7-1,2.9-1c1.2,0,2.2,0.4,2.9,1C214.9-591.9,215.4-590.9,215.5-589.4z
			 M237.7-576.9c3.3,0,5.7-0.7,7.4-2c1.7-1.3,2.5-3.1,2.5-5.5c0-1.6-0.4-2.9-1.1-3.7c-0.7-0.9-1.9-1.6-3.2-2.1c1-0.5,1.9-1.1,2.4-2
			c0.6-0.8,0.8-1.9,0.8-3.3c0-2.2-0.8-4-2.4-5.3c-1.6-1.2-4-1.9-7.1-1.9h-10.7v25.7L237.7-576.9L237.7-576.9z M236.4-592.2h-4.2
			v-5.8h4.2c0.8,0,1.5,0.1,2.1,0.2c0.6,0.1,0.9,0.3,1.3,0.6c0.3,0.3,0.6,0.6,0.7,0.9c0.1,0.4,0.2,0.7,0.2,1.2c0,0.5-0.1,0.8-0.2,1.2
			c-0.1,0.4-0.4,0.7-0.7,0.9c-0.3,0.3-0.7,0.5-1.3,0.6C237.9-592.3,237.2-592.2,236.4-592.2z M237-581.5h-4.9v-6.4h4.9
			c0.9,0,1.7,0.1,2.2,0.2c0.6,0.2,1,0.4,1.4,0.7c0.4,0.3,0.6,0.7,0.7,1c0.1,0.4,0.2,0.8,0.2,1.3c0,0.5-0.1,0.9-0.2,1.3
			c-0.1,0.4-0.4,0.7-0.7,1c-0.4,0.3-0.8,0.5-1.4,0.7C238.7-581.6,238-581.5,237-581.5z M258.5-602.3v-5.1h-6v5.1H258.5z
			 M258.4-576.9v-20.5h-5.7v20.5H258.4z M269.9-576.9v-14.5c0.4-0.6,0.9-0.9,1.7-1.2c0.7-0.3,1.6-0.5,2.5-0.5c0.6,0,1.1,0.1,1.6,0.2
			c0.5,0.1,0.9,0.3,1.3,0.5v-4.9c-0.1-0.1-0.4-0.2-0.7-0.3c-0.4-0.1-0.9-0.2-1.7-0.2c-1.3,0-2.4,0.3-3.3,0.8
			c-0.8,0.6-1.6,1.4-2.2,2.4v-2.8h-5.1v20.5L269.9-576.9L269.9-576.9z M287.9-576.5c0.8,0,1.6-0.1,2.2-0.3c0.7-0.2,1.2-0.4,1.8-0.7
			c0.6-0.3,0.9-0.6,1.3-0.9c0.4-0.4,0.7-0.7,0.8-1v2.4h5.1v-30.5h-5.7v11.9c-0.2-0.2-0.4-0.5-0.7-0.7c-0.3-0.3-0.7-0.6-1.1-0.7
			c-0.5-0.3-0.9-0.5-1.6-0.7c-0.6-0.2-1.3-0.3-2.1-0.3c-1.1,0-2.2,0.2-3.2,0.6c-1,0.4-2,1-2.8,1.9c-0.8,0.8-1.5,2-2,3.4
			s-0.7,3-0.7,5s0.3,3.6,0.7,5c0.5,1.3,1.1,2.4,2,3.3c0.8,0.8,1.8,1.5,2.8,1.9C285.8-576.7,286.8-576.5,287.9-576.5z M289.6-581.2
			c-1.6,0-2.7-0.6-3.5-1.6s-1.1-2.5-1.1-4.5s0.4-3.5,1.1-4.5c0.7-1,2-1.5,3.5-1.5c0.7,0,1.5,0.1,2.2,0.4c0.7,0.3,1.2,0.6,1.6,1v9.3
			c-0.5,0.4-1,0.7-1.6,1C291.1-581.3,290.5-581.2,289.6-581.2z"/>
		<path id="company" class="st0" d="M322.7-576.5c1.1,0,2.2-0.2,3.1-0.5c0.9-0.3,1.8-0.7,2.5-1.4c0.7-0.7,1.3-1.4,1.7-2.2
			c0.5-0.9,0.7-2,0.7-3.2h-3.4c0,0.6-0.2,1.1-0.4,1.7c-0.2,0.6-0.5,1-0.8,1.4s-0.8,0.7-1.5,0.9c-0.6,0.2-1.3,0.4-2.1,0.4
			c-1.9,0-3.3-0.7-4.3-1.9c-0.9-1.2-1.5-3.1-1.5-5.6c0-2.5,0.5-4.4,1.5-5.6c0.9-1.2,2.4-1.9,4.3-1.9c0.8,0,1.5,0.1,2.1,0.4
			c0.6,0.2,1,0.6,1.5,0.9c0.5,0.4,0.7,0.8,0.8,1.4c0.2,0.6,0.3,1,0.4,1.7h3.4c-0.1-1.2-0.4-2.2-0.7-3.1c-0.5-0.9-1-1.7-1.7-2.2
			c-0.7-0.6-1.6-1.1-2.5-1.4c-0.9-0.3-2-0.5-3.1-0.5c-0.7,0-1.4,0.1-2.2,0.2c-0.7,0.1-1.4,0.4-2.2,0.7c-0.7,0.3-1.3,0.7-2,1.2
			c-0.6,0.5-1.1,1.1-1.6,2c-0.5,0.8-0.8,1.7-1.1,2.7c-0.3,1-0.4,2.2-0.4,3.7s0.1,2.6,0.4,3.7c0.3,1,0.7,2,1.1,2.7
			c0.5,0.8,1,1.4,1.6,2c0.6,0.5,1.2,0.9,2,1.2c0.7,0.3,1.4,0.6,2.2,0.7C321.3-576.5,322.1-576.5,322.7-576.5z M344.6-576.5
			c1.1,0,2.2-0.2,3.3-0.5c1.1-0.3,2.1-0.8,3-1.7c0.8-0.8,1.6-1.9,2.2-3.2c0.6-1.3,0.8-3,0.8-5.1s-0.3-3.7-0.8-5.1
			c-0.6-1.3-1.3-2.4-2.2-3.2c-0.8-0.8-1.9-1.3-3-1.7c-1.1-0.3-2.2-0.5-3.3-0.5c-0.7,0-1.5,0.1-2.2,0.2c-0.7,0.1-1.4,0.4-2.2,0.7
			c-0.7,0.3-1.3,0.7-2,1.3c-0.6,0.6-1.1,1.2-1.6,2c-0.5,0.7-0.8,1.7-1,2.7c-0.3,1-0.4,2.2-0.4,3.6c0,1.4,0.1,2.5,0.4,3.7
			c0.3,1,0.6,2,1,2.7c0.5,0.7,0.9,1.4,1.6,2c0.6,0.6,1.2,0.9,2,1.3c0.7,0.3,1.4,0.6,2.2,0.7C343.2-576.5,343.9-576.5,344.6-576.5z
			 M344.6-579.5c-1.9,0-3.4-0.7-4.3-1.9c-0.9-1.2-1.5-3.1-1.5-5.6c0-2.5,0.5-4.4,1.5-5.6c0.9-1.2,2.4-1.9,4.3-1.9
			c1.9,0,3.4,0.7,4.3,1.9c0.9,1.2,1.5,3.1,1.5,5.6c0,2.5-0.5,4.4-1.5,5.6C347.8-580.1,346.5-579.5,344.6-579.5z M363.2-576.9v-15.5
			c0.2-0.3,0.5-0.5,0.7-0.7s0.7-0.5,1-0.7c0.4-0.2,0.8-0.4,1.3-0.5c0.5-0.1,1-0.2,1.6-0.2c0.8,0,1.5,0.1,2.1,0.4
			c0.6,0.3,0.9,0.7,1.2,1.1s0.5,1.1,0.7,1.9c0.1,0.7,0.2,1.6,0.2,2.5v11.5h3.5v-12.4c0-0.6,0-1-0.1-1.5c0-0.5-0.1-0.8-0.2-1.3
			c0.2-0.3,0.5-0.6,0.7-0.8c0.3-0.3,0.7-0.6,1-0.7c0.4-0.2,0.8-0.4,1.4-0.6c0.6-0.2,1.1-0.2,1.7-0.2c0.8,0,1.5,0.1,2,0.4
			c0.6,0.3,0.9,0.7,1.2,1.1c0.3,0.5,0.5,1.1,0.6,1.9c0.1,0.7,0.2,1.6,0.2,2.5v11.5h3.5v-12.4c0-1.7-0.2-3.1-0.6-4.1
			c-0.4-1-0.8-1.9-1.5-2.5c-0.6-0.6-1.3-1-2.1-1.2s-1.6-0.3-2.3-0.3c-0.8,0-1.6,0.1-2.2,0.3s-1.3,0.4-1.8,0.7c-0.5,0.3-1,0.7-1.4,1
			c-0.4,0.4-0.7,0.8-1.1,1.2c-0.3-0.7-0.7-1.1-1.1-1.6c-0.4-0.4-0.8-0.7-1.3-0.9c-0.5-0.3-1-0.4-1.5-0.5c-0.6-0.1-1.1-0.1-1.6-0.1
			c-0.8,0-1.6,0.1-2.2,0.3c-0.7,0.2-1.2,0.4-1.7,0.7c-0.5,0.3-0.9,0.6-1.3,0.9c-0.4,0.4-0.7,0.7-0.9,1.2v-2.6h-2.9v20.1L363.2-576.9
			L363.2-576.9z M397.9-567.8v-11.2c0.2,0.3,0.5,0.5,0.8,0.8c0.4,0.4,0.7,0.6,1.2,0.8c0.5,0.3,1,0.5,1.6,0.7
			c0.6,0.2,1.3,0.3,2.1,0.3c1,0,2.1-0.2,3.1-0.6c1-0.4,1.9-1,2.7-1.9c0.7-0.8,1.4-2,1.9-3.3c0.5-1.3,0.7-3,0.7-4.9s-0.3-3.5-0.7-4.8
			c-0.5-1.3-1.1-2.3-1.9-3.2c-0.7-0.8-1.7-1.4-2.7-1.8s-2.1-0.6-3.1-0.6c-0.8,0-1.6,0.1-2.2,0.3c-0.7,0.2-1.2,0.4-1.8,0.7
			c-0.6,0.3-0.9,0.6-1.3,0.9s-0.7,0.7-1,1v-2.5h-2.9v29.2L397.9-567.8L397.9-567.8z M402.7-579.5c-1,0-2-0.2-2.8-0.6
			c-0.8-0.4-1.5-0.8-2.1-1.4v-11c0.6-0.6,1.2-1,2.1-1.4c0.8-0.4,1.8-0.6,2.8-0.6c1.9,0,3.3,0.7,4.2,2c0.9,1.3,1.4,3.2,1.4,5.5
			s-0.5,4.2-1.4,5.5C406.1-580.1,404.6-579.5,402.7-579.5z M432.5-576.5c0.6,0,1.1-0.1,1.6-0.2c0.5-0.1,0.8-0.3,1.1-0.5v-2.6
			c-0.2,0.1-0.5,0.3-0.8,0.4c-0.3,0.1-0.6,0.1-0.9,0.1s-0.7-0.1-0.8-0.3c-0.2-0.2-0.3-0.6-0.3-0.9v-9.2c0-1.2-0.1-2.3-0.4-3.3
			c-0.3-0.9-0.7-1.8-1.2-2.4c-0.6-0.7-1.3-1.2-2.2-1.5c-0.9-0.4-2.1-0.6-3.5-0.6c-0.9,0-1.9,0.1-2.8,0.3c-0.9,0.2-1.9,0.6-2.6,1.1
			c-0.7,0.6-1.4,1.2-2,2.2c-0.6,0.9-0.7,2.2-0.7,3.7h3.4c0-0.7,0.1-1.3,0.2-1.9c0.2-0.6,0.4-1,0.7-1.4s0.8-0.7,1.4-0.8
			c0.6-0.2,1.2-0.3,2.1-0.3c0.9,0,1.6,0.1,2.2,0.4c0.6,0.2,0.9,0.6,1.2,1c0.3,0.5,0.5,1,0.6,1.7c0.1,0.7,0.1,1.4,0.1,2.3v0.6
			l-4.9,0.4c-0.6,0-1.1,0.1-1.7,0.2c-0.6,0.1-1.1,0.3-1.8,0.5c-0.6,0.2-1.1,0.5-1.7,0.7c-0.6,0.3-1,0.7-1.4,1.1
			c-0.4,0.5-0.7,0.9-0.9,1.6c-0.3,0.6-0.4,1.3-0.4,2.2c0,0.7,0.1,1.4,0.4,2.1c0.3,0.7,0.7,1.2,1.1,1.8c0.6,0.5,1.2,0.9,2,1.2
			c0.8,0.3,1.8,0.5,2.9,0.5c0.8,0,1.6-0.1,2.3-0.3c0.7-0.2,1.4-0.5,2-0.7c0.6-0.3,1.1-0.7,1.5-1c0.5-0.4,0.7-0.7,1-1v0.4
			c0,0.3,0,0.7,0.1,0.9c0.1,0.3,0.2,0.7,0.5,0.8c0.2,0.3,0.6,0.5,0.9,0.7S431.9-576.5,432.5-576.5z M423.4-579.2
			c-1.2,0-2.2-0.3-2.7-0.7c-0.7-0.6-0.9-1.2-0.9-2.2c0-1.1,0.5-2.1,1.3-2.6c0.8-0.6,2.1-0.9,3.7-1.1l4.2-0.5v5.1
			c-0.7,0.7-1.6,1.1-2.4,1.5C425.7-579.4,424.6-579.2,423.4-579.2z M443.2-576.9v-15.5c0.2-0.3,0.5-0.5,0.8-0.7
			c0.3-0.3,0.7-0.5,1.1-0.7c0.5-0.2,0.8-0.4,1.4-0.5c0.6-0.1,1.1-0.2,1.7-0.2c0.9,0,1.6,0.1,2.2,0.4s1,0.7,1.3,1.1
			c0.3,0.5,0.6,1.1,0.7,1.9s0.2,1.6,0.2,2.5v11.5h3.5v-12.4c0-1.7-0.2-3.1-0.6-4.1c-0.4-1-0.9-1.9-1.6-2.5c-0.7-0.6-1.4-1-2.2-1.2
			c-0.8-0.2-1.7-0.3-2.5-0.3c-0.8,0-1.7,0.1-2.3,0.3c-0.7,0.2-1.3,0.4-1.9,0.7c-0.6,0.3-1,0.6-1.4,0.9c-0.4,0.4-0.7,0.7-1,1.2v-2.6
			h-2.9v20.1L443.2-576.9L443.2-576.9z M463.3-567.3c1,0,1.9-0.2,2.6-0.5c0.7-0.3,1.4-0.7,1.9-1.3c0.6-0.6,1-1.2,1.4-2
			c0.4-0.7,0.7-1.6,1-2.5l8.5-23.3h-3.6l-5.5,16.3l-5.6-16.3h-3.7l7.4,20.5l-1,2.7c-0.3,0.7-0.5,1.2-0.7,1.7s-0.6,0.7-0.8,1
			c-0.3,0.3-0.6,0.5-0.9,0.6c-0.4,0.1-0.7,0.2-1.1,0.2c-0.4,0-0.8,0-1.2-0.1c-0.4-0.1-0.7-0.2-0.9-0.3v2.9c0.2,0.1,0.5,0.2,0.8,0.3
			C462.2-567.4,462.8-567.3,463.3-567.3z"/>
	</g>
</g>
</svg>
