<?xml version="1.0" encoding="utf-8"?>
<!-- Generator: Adobe Illustrator 26.0.0, SVG Export Plug-In . SVG Version: 6.00 Build 0)  -->
<svg version="1.1" id="Layer_1" xmlns="http://www.w3.org/2000/svg" xmlns:xlink="http://www.w3.org/1999/xlink" x="0px" y="0px"
	 viewBox="0 0 500 500" style="enable-background:new 0 0 500 500;" xml:space="preserve">
<style type="text/css">
	.st0{fill-rule:evenodd;clip-rule:evenodd;fill:#36393E;stroke:#000000;stroke-width:0.5669;stroke-miterlimit:22.9256;}
	.st1{fill-rule:evenodd;clip-rule:evenodd;fill:#00DEFF;}
	.st2{fill-rule:evenodd;clip-rule:evenodd;fill:#A4EEB8;}
	.st3{fill-rule:evenodd;clip-rule:evenodd;fill:#36393E;}
</style>
<g>
	<g>
		<path class="st0" d="M198.8,81.7h102.4c34.2,0,62.2,28,62.2,62.2v90.8c0,34.2-28,62.2-62.2,62.2H198.8c-34.2,0-62.2-28-62.2-62.2
			v-90.8C136.6,109.7,164.6,81.7,198.8,81.7z"/>
		<g>
			<path class="st1" d="M245.5,107.5c-12.5,0.9-22,4.3-32,10.4c-3.7,2.3-6.9,5-10,7.9c-2.3,2.2-3.7,3.7-5.7,6.2
				c-12.5,15.3-16.5,35.2-11,54.6c2.4,8.3,5.5,13.2,9.8,19.5c2.2,3.3,5.9,6.6,8.8,9.3c2,1.8,4.3,4,8.5,2.5c4.3-1.5,6.4-6.7,2-11
				l-3.1-2.9c-17.3-16.4-20-43.1-4.6-63.4c1.6-2.1,2.7-3.1,4.3-4.7c0.5-0.5,1-1,1.5-1.5c18.1-16.8,45.8-18.6,67-4.1l6.7,5.5
				c4.4,4.6,6.8,7.9,9.8,13.8c5.8,11.7,6,26.8,0.8,38.7c-2.8,6.4-5.3,9.5-9.5,14.3c-1,1.2-1.7,1.9-2.9,3c-1.1,1-2.2,1.6-3,3
				c-2.1,3.4-0.6,6.6,1.6,8.4c4.4,3.6,8.9,0,12.1-3c1.1-1.1,1.8-2.1,2.9-3.1c1.6-1.6,4-4.6,5.3-6.5c9.3-13.2,12.9-30.4,9.8-46.3
				c-1.2-6.3-3.5-12.3-6.3-17.3c-0.7-1.3-1.4-2.4-2.2-3.6c-1.5-2.3-3.3-4.7-5.1-6.7c-2-2.2-3.4-4-5.8-6c-3.5-2.9-6.5-5.2-10.6-7.6
				C274.2,110.5,260.3,106.3,245.5,107.5z"/>
			<path class="st2" d="M227.2,168.5c0,6,1.7,10.5,5.7,14.6c2.5,2.7,4.1,3.5,7.6,5.2c1.9,1,1.4,2.6,1.4,5c0,5.8,0.3,60.8-0.1,62.5
				l-30,0c0,2.6-0.2,14,0.1,15.6l76.5-0.1l-0.1-15.5l-31.1-0.1v-58.9c-0.3-13.2,0.5-4.7,9.6-14.2c0.6-0.6,1.4-1.8,1.9-2.6
				c0.6-0.9,1.1-1.8,1.6-2.9c6.2-14.6-5.8-29.2-19.9-29.2H249C237.4,147.9,227.2,157.5,227.2,168.5z"/>
			<path class="st1" d="M203.3,169.3c0,9.1,3,18.2,7.4,24.4c3.2,4.5,7.3,8.8,11.9,11.8c2.2,1.5,3.2,2.4,6.2,2.4
				c3.6,0,6.4-3.1,6.4-6.6c0-3.9-3.1-5.2-5.2-6.8c-3.8-3-3.4-2.7-6.3-6c-3.8-4.1-6.5-11.6-6.5-17.5c0-5.7,0.4-9.4,3-14.6
				c0.9-1.8,1.8-3.4,2.9-4.8l3.7-4.1c2.7-2.5,5.8-4.7,9.3-6.3c9.3-4.1,18.6-3.9,27.9,0c1.7,0.7,3.7,1.8,5,2.8c0.8,0.6,1.6,1,2.3,1.6
				c4.1,3.6,6.1,5.7,8.7,10.6c5.2,9.8,3.6,23.8-3.4,32c-1.5,1.8-2.4,3.1-4.4,4.6c-0.7,0.5-1.1,0.9-1.8,1.5c-1.7,1.3-5.4,2.7-5.4,7.1
				c0,3.6,2.9,6.4,6.9,6.4c5.2,0,14.8-10,17.5-14c4.7-7,7.5-13.9,7.5-24c0-40.1-49.6-59.2-79.4-31.9
				C210.3,144.5,203.3,155.5,203.3,169.3z"/>
		</g>
	</g>
	<path class="st3" d="M60.1,370.3l15.8-1.6c1,5.3,2.9,9.1,5.7,11.6c2.9,2.5,6.8,3.7,11.7,3.7c5.2,0,9.1-1.1,11.7-3.3
		c2.6-2.2,4-4.8,4-7.7c0-1.9-0.6-3.5-1.7-4.8c-1.1-1.3-3-2.5-5.8-3.4c-1.9-0.7-6.2-1.8-12.9-3.5c-8.6-2.2-14.7-4.8-18.2-8
		c-4.9-4.4-7.3-9.8-7.3-16.2c0-4.1,1.2-7.9,3.4-11.5c2.3-3.6,5.6-6.3,10-8.1c4.3-1.9,9.6-2.8,15.7-2.8c10,0,17.6,2.2,22.6,6.7
		c5.1,4.5,7.7,10.4,8,17.8l-16.2,0.6c-0.7-4.1-2.2-7.1-4.4-8.9c-2.3-1.8-5.7-2.7-10.2-2.7c-4.7,0-8.3,1-10.9,2.9
		c-1.7,1.2-2.6,2.9-2.6,5c0,1.9,0.8,3.5,2.4,4.9c2,1.7,7,3.5,14.8,5.4c7.9,1.8,13.7,3.8,17.4,5.8c3.8,2,6.7,4.7,8.8,8.1
		c2.1,3.4,3.2,7.7,3.2,12.8c0,4.6-1.3,8.9-3.8,12.9c-2.6,4-6.2,7-10.8,8.9c-4.7,2-10.5,2.9-17.4,2.9c-10.1,0-17.9-2.3-23.3-7
		C64.3,386,61.1,379.2,60.1,370.3L60.1,370.3z M138.4,338.2h14.3v8.5c1.9-2.9,4.4-5.3,7.5-7.1c3.2-1.8,6.7-2.7,10.6-2.7
		c6.7,0,12.5,2.6,17.2,7.9c4.7,5.3,7,12.7,7,22.1c0,9.7-2.4,17.2-7.1,22.6c-4.7,5.4-10.5,8.1-17.2,8.1c-3.2,0-6.1-0.6-8.7-1.9
		c-2.6-1.3-5.4-3.4-8.2-6.5v29.1h-15.3V338.2L138.4,338.2z M153.5,366.3c0,6.5,1.3,11.4,3.9,14.5c2.6,3.1,5.7,4.7,9.4,4.7
		c3.6,0,6.5-1.4,8.9-4.3c2.4-2.9,3.5-7.6,3.5-14.1c0-6.1-1.2-10.6-3.7-13.6c-2.4-3-5.4-4.4-9-4.4c-3.7,0-6.9,1.5-9.3,4.4
		C154.7,356.3,153.5,360.6,153.5,366.3L153.5,366.3z M203.6,366.5c0-5.1,1.2-10.1,3.8-14.8c2.5-4.8,6.1-8.4,10.7-10.9
		c4.6-2.5,9.7-3.8,15.4-3.8c8.8,0,16,2.9,21.6,8.6c5.6,5.7,8.4,12.9,8.4,21.7c0,8.8-2.8,16.1-8.5,21.9c-5.7,5.8-12.8,8.7-21.4,8.7
		c-5.3,0-10.4-1.2-15.2-3.6c-4.8-2.4-8.5-5.9-11-10.6C204.8,378.8,203.6,373.2,203.6,366.5L203.6,366.5z M219.4,367.3
		c0,5.8,1.4,10.2,4.1,13.2c2.7,3.1,6.1,4.6,10.1,4.6c4,0,7.3-1.5,10.1-4.6c2.7-3.1,4.1-7.5,4.1-13.4c0-5.7-1.4-10.1-4.1-13.1
		c-2.7-3.1-6.1-4.6-10.1-4.6c-4,0-7.4,1.5-10.1,4.6C220.7,357.1,219.4,361.6,219.4,367.3L219.4,367.3z M328.3,396.2H313v-29.6
		c0-6.3-0.3-10.3-1-12.1c-0.7-1.8-1.7-3.3-3.2-4.3c-1.5-1-3.3-1.5-5.4-1.5c-2.7,0-5.1,0.7-7.2,2.2c-2.1,1.5-3.6,3.4-4.4,5.8
		c-0.8,2.4-1.2,6.8-1.2,13.3v26.3h-15.3v-58.1h14.2v8.5c5.1-6.5,11.5-9.8,19.2-9.8c3.4,0,6.5,0.6,9.3,1.8c2.8,1.2,5,2.8,6.4,4.7
		c1.5,1.9,2.5,4,3,6.5c0.6,2.4,0.9,5.8,0.9,10.3V396.2L328.3,396.2z M370.4,338.2v12.2h-10.5v23.5c0,4.8,0.1,7.6,0.3,8.3
		c0.2,0.8,0.7,1.4,1.4,2c0.7,0.5,1.6,0.8,2.6,0.8c1.4,0,3.5-0.5,6.2-1.5l1.3,11.9c-3.6,1.5-7.6,2.3-12.1,2.3c-2.8,0-5.2-0.5-7.5-1.4
		c-2.2-0.9-3.8-2.1-4.9-3.6c-1-1.5-1.8-3.5-2.2-6c-0.3-1.8-0.5-5.4-0.5-10.9v-25.4h-7v-12.2h7v-11.5l15.3-9.1v20.6H370.4
		L370.4,338.2z M381.1,330.3v-14.2h15.3v14.2H381.1L381.1,330.3z M381.1,396.2v-58.1h15.3v58.1H381.1L381.1,396.2z M438.7,338.2
		v12.2h-10.5v23.5c0,4.8,0.1,7.6,0.3,8.3c0.2,0.8,0.7,1.4,1.4,2c0.7,0.5,1.6,0.8,2.6,0.8c1.4,0,3.5-0.5,6.2-1.5l1.3,11.9
		c-3.6,1.5-7.6,2.3-12.1,2.3c-2.8,0-5.2-0.5-7.5-1.4c-2.2-0.9-3.8-2.1-4.9-3.6c-1-1.5-1.8-3.5-2.2-6c-0.3-1.8-0.5-5.4-0.5-10.9
		v-25.4h-7v-12.2h7v-11.5l15.3-9.1v20.6H438.7z"/>
</g>
</svg>
