<?xml version="1.0" encoding="utf-8"?>
<!-- Generator: Adobe Illustrator 26.0.0, SVG Export Plug-In . SVG Version: 6.00 Build 0)  -->
<svg version="1.1" id="Layer_1" xmlns="http://www.w3.org/2000/svg" xmlns:xlink="http://www.w3.org/1999/xlink" x="0px" y="0px"
	 viewBox="0 0 500 500" style="enable-background:new 0 0 500 500;" xml:space="preserve">
<style type="text/css">
	.st0{fill:#323330;}
	.st1{fill:#FFFFFF;}
</style>
<g id="layer1">
	<rect id="rect20116" x="98.3" y="98.3" class="st0" width="303.3" height="303.3"/>
	<g id="text4399" transform="matrix(0.26459082,0,0,0.26490621,-13.684176,24.697131)">
		<path id="path30940" class="st1" d="M622.2,1279.7c-2.1,2.1-2.6,6.3,0,8.9c33.4,32.9,80.5,51.7,128,51.7
			c79.4,0,129.6-48.1,129.6-107.6c0-52.8-31.9-81-73.1-98.7l-46.5-19.3c-29.3-12-50.2-20.4-50.2-41.8c0-20.4,16.2-33.4,47-33.4
			c27.7,0,48.6,9.9,70,27.7c3.1,2.6,7.3,1.6,9.4-1l30.8-38.7c2.1-2.1,2.1-6.3-0.5-8.9c-27.7-27.7-68.4-44.9-109.7-44.9
			c-69.5,0-121.2,43.9-121.2,102.4c0,53.8,38.1,82,72.6,96.7l47,20.4c31.9,13.6,49.1,20.9,49.1,44.4c0,21.9-16.2,37.6-53.3,37.6
			c-29.3,0-60.6-15.2-84.1-37.1c-3.1-2.6-7.3-2.1-9.4,0.5L622.2,1279.7z"/>
		<path id="path30942" class="st1" d="M898.6,1279.7c-2.1,2.1-2.6,6.3,0,8.9c33.4,32.9,80.5,51.7,128,51.7
			c79.4,0,129.6-48.1,129.6-107.6c0-52.8-31.9-81-73.1-98.7l-46.5-19.3c-29.3-12-50.2-20.4-50.2-41.8c0-20.4,16.2-33.4,47-33.4
			c27.7,0,48.6,9.9,70,27.7c3.1,2.6,7.3,1.6,9.4-1l30.8-38.7c2.1-2.1,2.1-6.3-0.5-8.9c-27.7-27.7-68.4-44.9-109.7-44.9
			c-69.5,0-121.2,43.9-121.2,102.4c0,53.8,38.1,82,72.6,96.7l47,20.4c31.9,13.6,49.1,20.9,49.1,44.4c0,21.9-16.2,37.6-53.3,37.6
			c-29.3,0-60.6-15.2-84.1-37.1c-3.1-2.6-7.3-2.1-9.4,0.5L898.6,1279.7z"/>
		<path id="path30944" class="st1" d="M1204.7,1327.7c0,2.6,2.6,6.3,6.8,6.3h60.6c2.6,0,6.3-2.1,6.3-6.3v-145.2h125.9v145.2
			c0,2.6,2.1,6.3,6.3,6.3h60.6c2.6,0,6.8-2.1,6.8-6.3V986c0-2.6-2.6-6.3-6.8-6.3h-60.6c-2.6,0-6.3,2.1-6.3,6.3v130.6h-125.9V986
			c0-2.6-2.1-6.3-6.3-6.3h-60.6c-2.6,0-6.8,2.1-6.8,6.3V1327.7z"/>
	</g>
</g>
</svg>
