<?xml version="1.0" encoding="utf-8"?>
<!-- Generator: Adobe Illustrator 26.0.0, SVG Export Plug-In . SVG Version: 6.00 Build 0)  -->
<svg version="1.1" id="Layer_1" xmlns="http://www.w3.org/2000/svg" xmlns:xlink="http://www.w3.org/1999/xlink" x="0px" y="0px"
	 viewBox="0 0 500 500" style="enable-background:new 0 0 500 500;" xml:space="preserve">
<style type="text/css">
	.st0{fill-rule:evenodd;clip-rule:evenodd;fill:#09161D;}
	.st1{fill:#09161D;}
</style>
<g id="layer1" transform="translate(19.257549,-109.41926)">
	<g id="g949" transform="matrix(0.27000881,0,0,0.26834431,-19.257322,109.41926)">
		<path id="path905" class="st0" d="M138.2,959.9c0-35.7,0-53.5,6.9-67.2c6.1-12,15.9-21.7,27.9-27.9c13.6-6.9,31.5-6.9,67.2-6.9h51
			c35.7,0,53.5,0,67.2,6.9c12,6.1,21.7,15.9,27.9,27.9c6.9,13.6,6.9,31.5,6.9,67.2v14.6c0,35.7,0,53.5-6.9,67.2
			c-6.1,12-15.9,21.7-27.9,27.9c-13.6,6.9-31.5,6.9-67.2,6.9h-94.7c-20.4,0-30.6,0-38.4-4c-6.9-3.5-12.4-9.1-15.9-15.9
			c-4-7.8-4-18-4-38.4V959.9z M229.2,967.1c0-10.1,8.2-18.2,18.2-18.2s18.2,8.2,18.2,18.2v36.4c0,10.1-8.2,18.2-18.2,18.2
			s-18.2-8.2-18.2-18.2V967.1z M320.3,948.9c-10.1,0-18.2,8.2-18.2,18.2v36.4c0,10.1,8.2,18.2,18.2,18.2c10.1,0,18.2-8.2,18.2-18.2
			v-36.4C338.5,957.1,330.3,948.9,320.3,948.9z"/>
		<path id="path907" class="st0" d="M201.8,802.9c1.2,10-5.8,19.1-15.8,20.3c-5.5,0.7-9.9,1.6-13.8,2.8c-31.4,9.8-56,34.4-65.8,65.8
			c-1.2,3.9-2.1,8.3-2.8,13.8c-1.2,10-10.3,17.1-20.3,15.8c-10-1.2-17.1-10.3-15.8-20.3c0.9-7.2,2.2-13.8,4.2-20.2
			c13.4-42.8,46.9-76.4,89.8-89.8c6.4-2,13-3.3,20.2-4.2C191.5,785.8,200.6,792.9,201.8,802.9z"/>
		<path id="path909" class="st1" d="M562.1,906.1c-26.3,0-50,16.3-50,40.8c0,22.9,21.2,30.6,42.1,33.6c13.8,2,18.9,3.1,18.9,8.2
			c0,4.6-4.1,6.9-10.5,6.9c-16.1,0-21.9-5.9-35.2-5.9c-11.5,0-15.8,8.4-15.8,19.1c0,11.5,20.6,19.6,46.7,19.6
			c34.4,0,52.5-15.6,52.5-40.8c0-23.5-17.6-32.6-44.9-36.5c-8.9-1.3-16.3-1.3-16.3-6.6c0-4.8,6.1-7.1,13.8-7.1
			c8.7,0,19.4,5.1,27.8,5.1c11,0,15.6-7.1,15.6-17.6c0-7.1-4.6-11.2-9.9-13.5C587.3,907.3,576.6,906.1,562.1,906.1L562.1,906.1z"/>
		<path id="path911" class="st1" d="M632.3,943.5h8.7c0.3,12-0.3,24.5-0.3,36.5c0,33.6,17.8,47.4,41.3,47.4c13.3,0,18.6-1,24.5-5.1
			c4.6-3.1,6.9-7.4,6.9-17.1c0-8.2-5.4-16.3-14.5-16.3c-3.8,0-4.8,1.3-9.9,1.3c-6.6,0-8.4-7.6-8.4-13.8v-33.1H698
			c9.2,0,13.8-8.2,13.8-17.6c0-11.7-6.1-17.6-16.6-17.3h-14.5c0.3-8.7,0.5-14.5,0.5-19.4c0-9.7-6.4-15.8-16.8-15.8
			c-14.5,0-22.2,7.6-22.7,21.9l-0.5,13.5h-7.9c-9.4,0-15.8,7.4-15.8,17.1C617.5,936.4,621.6,943.5,632.3,943.5L632.3,943.5z"/>
		<path id="path913" class="st1" d="M731.6,925.7v22.9c0,17.3-0.5,39.8-0.5,59.4c0,15,8.9,19.1,20.4,19.1c11.5,0,20.9-4.6,21.2-16.6
			c0.5-9.7-0.5-23.5-0.5-32.9c0-24.7,9.9-32.4,23.5-32.4h3.3c11,0,16.1-10.5,16.1-20.1c0-13.3-6.1-19.1-17.6-19.1
			c-11.2,0-23.7,7.6-28.3,18.1l-1.8-6.4c-2-7.1-7.4-10.7-15.3-10.7C739.2,907.1,731.6,913.5,731.6,925.7L731.6,925.7z"/>
		<path id="path915" class="st1" d="M863.6,977.7c31.4-0.3,47.9-0.8,53-0.8c17.1-0.3,20.6-7.1,20.6-22.4c0-24.5-21.9-48.4-54.6-48.4
			c-34.4,0-61.4,26.5-61.4,64c0,32.4,26.8,58.1,60.4,58.1c20.6,0,32.1-3.6,41-8.9c6.1-3.6,9.4-9.2,9.4-15.3
			c0-10.5-7.4-19.6-16.6-19.6c-4.6,0-8.7,1.3-13,3.6c-4.1,2.3-11.2,4.6-18.4,4.6C875.8,992.5,865.4,987.6,863.6,977.7L863.6,977.7z
			 M882.2,938.4c8.9,0,15.8,5.6,15.8,13c0,1-1.5,1.3-3.1,1.3c-10.2,0.3-21.9,0.8-31.6,0.8C864.1,945.8,872,938.4,882.2,938.4z"/>
		<path id="path917" class="st1" d="M1078.7,945.1l0.3-19.6c0-11.7-6.4-18.1-19.4-18.1c-6.4,0-12,1.8-15.3,6.4
			c-1.3,1.8-2.3,3.8-3.1,6.6c-6.1-8.7-16.8-13.5-28.6-13.5c-34.2,0-60.4,24-60.4,63c0,33.1,21.9,57.9,57.4,57.9
			c13.5,0,24.5-6.4,30.6-16.3c3.3,11.5,8.9,15.6,17.8,15.6c11.7,0,21.4-3.1,21.4-17.3c-0.5-8.7-0.8-17.3-0.8-26V945.1z M994.5,968.8
			c0-17.1,8.9-26.5,21.9-26.5c11.5,0,21.9,8.7,21.9,24.7s-10.7,25.7-23.2,25.7C1003.2,992.7,994.5,982.3,994.5,968.8z"/>
		<path id="path919" class="st1" d="M1107.2,961.9l-0.3,30.6c-0.5,12-0.3,13-0.3,16.3c0,14,10.5,18.1,20.4,18.1
			c11.5,0,21.7-4.8,21.7-16.3v-43.3c-0.3-12.7,2.5-26.5,17.1-26.5c9.7,0,14.3,10.7,14.3,19.6c0.3,24-0.5,31.1-0.5,50
			c0,11,8.2,16.3,19.9,16.6c11.2,0.3,20.9-4.3,21.4-15.6c0.3-8.2,0.3-17.3,0.3-24.5c0-10.5,0-18.9,0.3-29.3
			c0-9.2,7.4-16.3,16.1-16.3c10.5,0,13,9.2,13,19.1c0,20.6-0.8,35.4-0.8,50.2c0,9.9,8.2,16.3,20.9,16.3c7.6,0,20.1-2,20.9-15
			c0.5-10.2,0.5-19.4,0.5-28.3l-0.3-28.6c0-29.6-14.3-49.5-46.7-48.9c-12.2,0.3-26.8,7.9-34.2,18.4c-6.4-10.7-17.3-18.4-34.2-18.4
			c-12.2,0-25.2,8.2-29.8,16.6l-1-4.6c-1.5-6.6-8.2-12-17.3-12c-14.3,0-21.7,6.4-21.7,18.1C1107,932.3,1107.7,937.9,1107.2,961.9
			L1107.2,961.9z"/>
		<path id="path921" class="st1" d="M1319.8,860.7c-0.5,42.1-1.3,97.6-0.3,138.4c0.3,22.9,9.4,29.3,23.7,27.8
			c15-1.5,19.4-7.1,19.9-19.4c0.3-8.4-0.5-18.1-0.5-28.8c0-39.8,0-78.5,0.8-118c0.3-12.7-8.4-18.9-21.9-18.9
			C1329.8,841.8,1320.1,847.7,1319.8,860.7z"/>
		<path id="path923" class="st1" d="M1511.1,945.1l0.3-19.6c0-11.7-6.4-18.1-19.4-18.1c-6.4,0-12,1.8-15.3,6.4
			c-1.3,1.8-2.3,3.8-3.1,6.6c-6.1-8.7-16.8-13.5-28.6-13.5c-34.2,0-60.4,24-60.4,63c0,33.1,21.9,57.9,57.4,57.9
			c13.5,0,24.5-6.4,30.6-16.3c3.3,11.5,8.9,15.6,17.8,15.6c11.7,0,21.4-3.1,21.4-17.3c-0.5-8.7-0.8-17.3-0.8-26L1511.1,945.1z
			 M1427,968.8c0-17.1,8.9-26.5,21.9-26.5c11.5,0,21.9,8.7,21.9,24.7s-10.7,25.7-23.2,25.7C1435.6,992.7,1427,982.3,1427,968.8z"/>
		<path id="path925" class="st1" d="M1539.6,859.7l0.5,102.5l-0.8,43.1c-0.3,13.3,4.6,20.9,16.3,21.4c10.5,0.5,17.6-2.5,19.9-12.2
			l0.8-3.3c5.9,10.2,18.4,16.8,31.4,16.8c36.2,0,60.7-27.8,60.7-62.5c0-32.9-22.9-59.4-56.6-59.4c-12.7,0-24.7,3.8-31.4,14.3
			c0-0.3,0-3.8,0.8-62.2c0.3-15-10.5-17.8-21.7-17.8C1548.3,840.3,1539.9,845.7,1539.6,859.7z M1626.6,965.7
			c0,15.8-11.7,27.3-23.7,27.3c-11.5,0-21.9-10.2-21.9-25.2c0-17.8,11-25.7,24-25.7C1616.1,942,1626.6,950.9,1626.6,965.7z"/>
		<path id="path927" class="st1" d="M1735.9,906.1c-26.3,0-50,16.3-50,40.8c0,22.9,21.2,30.6,42.1,33.6c13.8,2,18.9,3.1,18.9,8.2
			c0,4.6-4.1,6.9-10.5,6.9c-16.1,0-21.9-5.9-35.2-5.9c-11.5,0-15.8,8.4-15.8,19.1c0,11.5,20.6,19.6,46.7,19.6
			c34.4,0,52.5-15.6,52.5-40.8c0-23.5-17.6-32.6-44.9-36.5c-8.9-1.3-16.3-1.3-16.3-6.6c0-4.8,6.1-7.1,13.8-7.1
			c8.7,0,19.4,5.1,27.8,5.1c11,0,15.6-7.1,15.6-17.6c0-7.1-4.6-11.2-9.9-13.5C1761.1,907.3,1750.4,906.1,1735.9,906.1z"/>
	</g>
</g>
</svg>
