<?xml version="1.0" encoding="utf-8"?>
<!-- Generator: Adobe Illustrator 26.0.0, SVG Export Plug-In . SVG Version: 6.00 Build 0)  -->
<svg version="1.1" id="Layer_1" xmlns="http://www.w3.org/2000/svg" xmlns:xlink="http://www.w3.org/1999/xlink" x="0px" y="0px"
	 viewBox="0 0 500 500" style="enable-background:new 0 0 500 500;" xml:space="preserve">
<style type="text/css">
	.st0{fill-rule:evenodd;clip-rule:evenodd;fill:#00569D;}
</style>
<g>
	<path class="st0" d="M188.6,202.8c-1.2,0.3-2.4-0.5-2.7-1.7c-0.3-1.2,0.5-2.4,1.7-2.7L297,172.4c1.2-0.3,2.4,0.5,2.7,1.7
		c0.3,1.2-0.5,2.4-1.7,2.7L188.6,202.8L188.6,202.8z M181.2,185.8l109.3-25.5c1.2-0.3,2-1.5,1.7-2.7c-0.3-1.2-1.5-2-2.7-1.7
		l-109.3,25.5c-1.2,0.3-2,1.5-1.7,2.7C178.7,185.4,180,186.1,181.2,185.8L181.2,185.8z M173.7,168.9c-1.2,0.3-2.4-0.5-2.7-1.8
		c-0.3-1.2,0.5-2.4,1.8-2.7l109.3-23c1.2-0.3,2.4,0.5,2.7,1.8c0.3,1.2-0.5,2.4-1.8,2.7L173.7,168.9L173.7,168.9z M180.1,151.2
		l109.3-23c1.2-0.3,2-1.5,1.8-2.7c-0.3-1.2-1.5-2-2.7-1.8l-109.3,23c-1.2,0.3-2,1.5-1.8,2.7C177.7,150.6,178.9,151.4,180.1,151.2
		L180.1,151.2z M189.9,134c-1.2,0.3-2.4-0.5-2.7-1.8c-0.3-1.2,0.5-2.4,1.8-2.7l109.3-23c1.2-0.3,2.4,0.5,2.7,1.8
		c0.3,1.2-0.5,2.4-1.8,2.7L189.9,134L189.9,134z M332.2,288.4c1.3-0.2,2.4-1.1,2.8-2.4c20.9-61,4.3-85-10.6-106.5
		c-14.8-21.5-27.8-40.3,7.5-97.8l0,0c0.5-0.8,0.7-1.7,0.5-2.6c-0.4-2-2.3-3.2-4.3-2.8l-146.4,30.8c-1,0.1-2,0.7-2.6,1.7
		c-37.9,61.6-23.6,82.2-7.3,105.8c13.9,20.1,29.4,42.5,9.7,100.1c-0.6,1.9,0.4,4,2.3,4.6c0.7,0.2,1.4,0.2,2.1,0.1L332.2,288.4
		L332.2,288.4z M190.4,310.8l138.4-29.1c18.7-56.1,3.4-78.3-10.3-98.1c-15.6-22.6-29.4-42.5,3-98.6l-137,28.8
		c-34.4,56.5-21.5,75.2-6.7,96.5C192.2,231,208.2,254.2,190.4,310.8z"/>
	<path class="st0" d="M100.5,386l17.9-1.1c0.4,2.9,1.2,5.1,2.4,6.6c1.9,2.5,4.7,3.7,8.3,3.7c2.7,0,4.7-0.6,6.2-1.9
		c1.5-1.3,2.2-2.7,2.2-4.4c0-1.6-0.7-3-2.1-4.2c-1.4-1.2-4.6-2.4-9.6-3.5c-8.2-1.8-14.1-4.3-17.6-7.4c-3.5-3.1-5.3-7-5.3-11.7
		c0-3.1,0.9-6.1,2.7-8.8c1.8-2.8,4.5-5,8.2-6.6c3.6-1.6,8.6-2.4,15-2.4c7.8,0,13.7,1.4,17.8,4.4c4.1,2.9,6.5,7.5,7.3,13.8l-17.7,1
		c-0.5-2.8-1.5-4.8-3-6c-1.5-1.3-3.6-1.9-6.3-1.9c-2.2,0-3.8,0.5-4.9,1.4c-1.1,0.9-1.7,2.1-1.7,3.4c0,1,0.5,1.8,1.3,2.6
		c0.9,0.8,3,1.5,6.3,2.2c8.2,1.8,14.1,3.6,17.6,5.4c3.6,1.8,6.2,4.1,7.8,6.7c1.6,2.7,2.4,5.7,2.4,9c0,3.9-1.1,7.5-3.2,10.8
		c-2.2,3.3-5.2,5.8-9.1,7.5c-3.9,1.7-8.7,2.6-14.6,2.6c-10.3,0-17.5-2-21.5-6C103.3,397.2,101,392.1,100.5,386L100.5,386z
		 M159.2,362H177l9.1,29.4l8.4-29.4h16.7l-17.5,47.2c-2,5.4-4,9-6.1,10.8c-2.9,2.7-7.4,4-13.4,4c-2.4,0-6.2-0.3-11.3-1l-1.3-11.8
		c2.4,0.8,5.1,1.1,8.1,1.1c2,0,3.6-0.5,4.8-1.4c1.2-0.9,2.3-2.5,3.1-4.8L159.2,362L159.2,362z M213,393.9l16.8-1.5
		c0.7,2,1.7,3.4,2.9,4.3c1.2,0.9,2.9,1.3,5,1.3c2.3,0,4-0.5,5.3-1.5c1-0.7,1.5-1.6,1.5-2.7c0-1.2-0.6-2.2-1.9-2.8
		c-0.9-0.5-3.3-1-7.3-1.7c-5.9-1-9.9-2-12.2-2.8c-2.3-0.9-4.2-2.4-5.8-4.4c-1.6-2.1-2.3-4.4-2.3-7.1c0-2.9,0.8-5.4,2.5-7.5
		c1.7-2.1,4-3.7,7-4.7c3-1,6.9-1.6,11.9-1.6c5.2,0,9.1,0.4,11.6,1.2c2.5,0.8,4.6,2.1,6.3,3.7c1.7,1.7,3.1,4,4.2,6.9l-16,1.5
		c-0.4-1.4-1.1-2.4-2.1-3.1c-1.3-0.9-2.9-1.3-4.8-1.3c-1.9,0-3.3,0.3-4.2,1c-0.9,0.7-1.3,1.5-1.3,2.5c0,1.1,0.6,1.9,1.6,2.5
		c1.1,0.6,3.5,1.1,7.2,1.5c5.6,0.6,9.8,1.5,12.5,2.7c2.7,1.1,4.8,2.7,6.3,4.9c1.5,2.1,2.2,4.4,2.2,6.9c0,2.6-0.8,5-2.3,7.4
		c-1.5,2.4-4,4.3-7.3,5.8c-3.3,1.4-7.8,2.1-13.5,2.1c-8,0-13.8-1.1-17.2-3.5C216.2,401.4,214,398.1,213,393.9L213,393.9z
		 M268.5,345.2h16.9v60.9h-16.9V345.2L268.5,345.2z M294.2,384.2c0-6.7,2.3-12.3,6.8-16.7c4.5-4.4,10.7-6.5,18.4-6.5
		c8.8,0,15.5,2.6,20,7.7c3.6,4.1,5.4,9.2,5.4,15.3c0,6.8-2.2,12.4-6.7,16.7c-4.5,4.3-10.7,6.5-18.7,6.5c-7.1,0-12.8-1.8-17.2-5.4
		C296.9,397.2,294.2,391.4,294.2,384.2L294.2,384.2z M311.1,384.1c0,4,0.8,6.9,2.4,8.8c1.6,1.9,3.6,2.8,6,2.8c2.4,0,4.4-0.9,6-2.8
		c1.6-1.9,2.3-4.8,2.3-9c0-3.8-0.8-6.7-2.4-8.6c-1.6-1.9-3.5-2.8-5.8-2.8c-2.5,0-4.5,0.9-6.1,2.8
		C311.9,377.4,311.1,380.3,311.1,384.1L311.1,384.1z M383.7,362h15.8v41.6l0,2c0,2.8-0.6,5.4-1.8,7.9c-1.2,2.5-2.7,4.5-4.7,6.1
		c-1.9,1.6-4.4,2.7-7.4,3.4c-3,0.7-6.4,1-10.3,1c-8.9,0-14.9-1.3-18.2-4c-3.3-2.7-5-6.2-5-10.7c0-0.6,0-1.3,0.1-2.2l16.4,1.9
		c0.4,1.5,1,2.6,1.9,3.1c1.2,0.9,2.8,1.3,4.7,1.3c2.4,0,4.3-0.7,5.5-1.9c1.2-1.3,1.8-3.6,1.8-6.8V398c-1.7,2-3.3,3.4-5,4.3
		c-2.6,1.4-5.4,2.1-8.4,2.1c-5.9,0-10.7-2.6-14.3-7.7c-2.6-3.7-3.9-8.5-3.9-14.5c0-6.9,1.7-12.1,5-15.7c3.3-3.6,7.7-5.4,13-5.4
		c3.4,0,6.3,0.6,8.5,1.7c2.2,1.2,4.3,3.1,6.3,5.8V362L383.7,362z M367.7,383.3c0,3.2,0.7,5.6,2,7.1c1.3,1.5,3.1,2.3,5.4,2.3
		c2.1,0,3.9-0.8,5.3-2.4c1.4-1.6,2.1-4,2.1-7.2s-0.8-5.7-2.3-7.4c-1.5-1.7-3.3-2.6-5.5-2.6c-2.2,0-3.9,0.8-5.2,2.4
		C368.4,377.1,367.7,379.7,367.7,383.3z"/>
</g>
</svg>
