<?xml version="1.0" encoding="utf-8"?>
<!-- Generator: Adobe Illustrator 26.0.0, SVG Export Plug-In . SVG Version: 6.00 Build 0)  -->
<svg version="1.1" id="Layer_1" xmlns="http://www.w3.org/2000/svg" xmlns:xlink="http://www.w3.org/1999/xlink" x="0px" y="0px"
	 viewBox="0 0 500 500" style="enable-background:new 0 0 500 500;" xml:space="preserve">
<style type="text/css">
	.st0{fill:#E8762C;}
	.st1{fill:#C62036;}
	.st2{fill:#5A869A;}
	.st3{fill:#5C6691;}
	.st4{fill:#EB9028;}
	.st5{fill-rule:evenodd;clip-rule:evenodd;fill:#1E457E;}
	.st6{fill:#7098A4;}
	.st7{fill-rule:evenodd;clip-rule:evenodd;fill:#5A869A;}
	.st8{fill:#1E457E;}
</style>
<g>
	<g>
		<polygon class="st0" points="286.5,189.8 256.4,189.8 256.4,157.1 244.5,157.1 244.5,189.8 214.4,189.8 214.4,201.5 244.5,201.5 
			244.5,234.2 256.4,234.2 256.4,201.5 286.5,201.5 		"/>
		<polygon class="st1" points="226,243.2 199,243.2 199,213.9 188.8,213.9 188.8,243.2 161.8,243.2 161.8,252.2 188.8,252.2 
			188.8,281.5 199,281.5 199,252.2 226,252.2 		"/>
		<polygon class="st2" points="339.1,138.5 312.1,138.5 312.1,109.1 301.9,109.1 301.9,138.5 274.9,138.5 274.9,147.4 301.9,147.4 
			301.9,176.6 312.1,176.6 312.1,147.4 339.1,147.4 		"/>
		<polygon class="st3" points="273.3,275.7 255,275.7 255,255.3 246.3,255.3 246.3,275.7 228,275.7 228,283.6 246.3,283.6 
			246.3,304 255,304 255,283.6 273.3,283.6 		"/>
		<polygon class="st4" points="226,138.5 198.7,138.5 198.7,109.1 189.1,109.1 189.1,138.5 161.8,138.5 161.8,147.1 189.1,147.1 
			189.1,176.6 198.7,176.6 198.7,147.1 226,147.1 		"/>
		<polygon class="st3" points="359.8,191.7 341.5,191.7 341.5,171.3 332.8,171.3 332.8,191.7 314.5,191.7 314.5,199.6 332.8,199.6 
			332.8,220 341.5,220 341.5,199.6 359.8,199.6 		"/>
		<polygon class="st5" points="339.1,243.2 312.1,243.2 312.1,213.9 301.9,213.9 301.9,243.2 274.9,243.2 274.9,252.2 301.9,252.2 
			301.9,281.5 312.1,281.5 312.1,252.2 339.1,252.2 		"/>
		<polygon class="st6" points="247.4,88.2 247.4,108.2 229.3,108.2 229.3,114.3 247.4,114.3 247.4,134.3 253.9,134.3 253.9,114.3 
			272,114.3 272,108.2 253.9,108.2 253.9,88.2 		"/>
		<polygon class="st6" points="183.6,192.5 165.5,192.5 165.5,172.8 159.1,172.8 159.1,192.5 140.9,192.5 140.9,198.8 159.1,198.7 
			159.1,218.5 165.5,218.5 165.5,198.7 183.6,198.5 		"/>
	</g>
	<g>
		<path class="st7" d="M67.3,410.9c1,0.6,2.2,0.9,3.4,0.9c2.5,0,3.9-1.1,3.9-2.9c0-1.1-0.4-1.9-1.3-2.4c-0.7-0.4-1.6-0.7-2.4-1
			c-0.9-0.3-1.3-0.7-1.3-1.1c0-0.5,0.5-0.8,1.4-0.8c0.9,0,1.9,0.3,3.2,1v-2c-1.1-0.5-2.3-0.8-3.3-0.8c-2.2,0-3.7,1.2-3.7,2.8
			c0,1.8,1.2,2.6,3.7,3.5c0.9,0.3,1.3,0.5,1.3,1.1c0,0.6-0.5,0.9-1.5,0.9c-1.1,0-2.1-0.5-3.3-1.2V410.9z"/>
		<path class="st7" d="M115.4,406.8c0,1.4,0.5,2.7,1.5,3.7c1,0.9,2.2,1.4,3.8,1.4c1.5,0,2.8-0.5,3.8-1.4c1-0.9,1.5-2.2,1.5-3.7
			c0-1.5-0.5-2.7-1.5-3.7c-1-0.9-2.2-1.4-3.8-1.4c-1.5,0-2.8,0.5-3.8,1.4C115.9,404.1,115.4,405.3,115.4,406.8 M117.9,406.8
			c0-1.8,1.2-3,2.8-3c1.6,0,2.8,1.2,2.8,3c0,1.8-1.2,3-2.8,3C119.1,409.8,117.9,408.5,117.9,406.8"/>
		<polygon class="st7" points="169.5,411.7 172,411.7 172,407.6 175.6,407.6 175.6,405.8 172,405.8 172,403.7 175.8,403.7 
			175.8,401.9 169.5,401.9 		"/>
		<polygon class="st7" points="221.6,411.7 224.2,411.7 224.2,403.7 227.4,403.7 227.4,401.9 218.3,401.9 218.3,403.7 221.6,403.7 
					"/>
		<polygon class="st7" points="270.9,411.7 271.9,411.7 274.1,405.6 276.3,411.7 277.3,411.7 281.3,401.9 278.7,401.9 276.8,407.2 
			274.9,401.9 273.3,401.9 271.3,407.2 269.4,401.9 266.9,401.9 		"/>
		<path class="st7" d="M318.3,411.7h2.6l0.8-1.9h4.2l0.7,1.9h2.6l-3.8-9.8h-2.8L318.3,411.7z M322.4,408.1l1.5-3.7l1.4,3.7H322.4z"
			/>
		<path class="st7" d="M368.9,411.7h2.4v-4c0.1,0,0.2,0,0.3,0c1,0,1.4,0.3,1.8,1.2l1.3,2.8h2.8l-1.6-3.4c-0.3-0.6-0.7-1-1.2-1.2
			c1.2-0.5,1.7-1.3,1.7-2.4c0-2-1.3-2.8-3.9-2.8h-3.6V411.7z M372.6,405.9h-1.2v-2.3h1.2c0.9,0,1.3,0.4,1.3,1.1
			C373.9,405.5,373.5,405.9,372.6,405.9"/>
		<polygon class="st7" points="418.1,411.7 424.8,411.7 424.8,409.8 420.5,409.8 420.5,407.5 424.5,407.5 424.5,405.7 420.5,405.7 
			420.5,403.7 424.6,403.7 424.6,401.9 418.1,401.9 		"/>
		<path class="st5" d="M192.7,350c3.4-1.3,6.4-1.7,8.3-1.7c9.6,0,16,6.7,16,17.3c0,10.9-6.8,17.3-18.8,17.3c-4.2,0-8.2-0.8-12.5-2.3
			l-0.2-48.4h7.2V350z M199,376.3c6.7,0,10.5-3.8,10.5-10.7c0-6.7-3.9-10.7-9.9-10.7c-2.6,0-5.1,0.9-6.9,1.7v18.5
			C194.9,375.9,197,376.3,199,376.3"/>
		<rect x="246.8" y="325.4" class="st5" width="7.1" height="63.5"/>
		<path class="st5" d="M293,361.8h16.3c-0.2-4.3-2.5-6.6-6.7-6.8C298.5,354.6,294.4,357.3,293,361.8 M301.1,383
			c-10.9-1.1-16.2-8.7-15.9-17.8c0.3-9.8,6.7-16.8,16.4-16.8c10.2,0,16.1,7.5,15.6,18.6h-24.5c0.6,6.2,4.3,9.1,9.3,9.5
			c4.2,0.3,10.1-0.6,13.4-2.6v6.8C311,382.6,306.6,383.5,301.1,383"/>
		<path class="st5" d="M422.2,377.4c4.5,0,7.5-2.3,7.5-7.4v-21h7.2v21.9c0,7.3-5.7,11.8-14.7,11.8c-9,0-14.7-4.5-14.7-11.8V349h7.2
			v21C414.7,375.1,417.7,377.4,422.2,377.4"/>
		<path class="st5" d="M138.4,382.8c-12,0-18.8-6.4-18.8-17.3c0-10.5,6.5-17.3,16-17.3c3.2,0,5.9,0.7,8.3,2.3v-2.4h7.2l-0.2,32.5
			C147.9,381.9,142.9,382.8,138.4,382.8 M137.6,376.3c1.6,0,3.6-0.1,6.1-0.8l0.1-18.3c-2.3-1.6-4.5-2.3-6.9-2.3c-6,0-9.9,4-9.9,10.7
			C127.1,372.4,131,376.4,137.6,376.3"/>
		<path class="st5" d="M364.7,382.8c-12,0-18.8-6.4-18.8-17.3c0-10.5,6.5-17.3,16-17.3c3.2,0,5.9,0.7,8.3,2.3v-2.4h7.2l-0.2,32.5
			C374.2,381.9,369.2,382.8,364.7,382.8 M364,376.3c1.4,0,3.6-0.1,6.1-0.8l0.1-18.3c-2.3-1.6-4.5-2.3-6.9-2.3c-6,0-9.9,4-9.9,10.7
			C353.4,372.4,357.3,376.3,364,376.3"/>
	</g>
	<g>
		<polygon class="st8" points="66.3,334.5 73.4,334.5 73.4,354.7 92.5,354.7 92.5,361.3 73.4,361.3 73.4,383.1 66.3,383.1 
			66.3,361.3 47.1,361.3 47.1,354.7 66.3,354.7 		"/>
		<path class="st8" d="M448.7,348.7c2.3,0,4.2,1.9,4.2,4.2c0,2.4-1.9,4.3-4.2,4.3c-2.3,0-4.2-1.9-4.2-4.3
			C444.5,350.6,446.3,348.7,448.7,348.7L448.7,348.7z M448.7,349.4c-1.9,0-3.4,1.6-3.4,3.6c0,2,1.5,3.6,3.4,3.6
			c1.9,0,3.4-1.6,3.4-3.6C452.1,351,450.6,349.4,448.7,349.4L448.7,349.4z M447.9,355.4h-0.8v-4.7c0.4-0.1,0.8-0.1,1.3-0.1
			c0.7,0,1.2,0.2,1.5,0.4c0.3,0.2,0.4,0.5,0.4,1c0,0.6-0.4,1-0.9,1.2v0c0.4,0.1,0.7,0.5,0.8,1.2c0.1,0.7,0.2,1,0.3,1.2h-0.8
			c-0.1-0.2-0.2-0.6-0.3-1.2c-0.1-0.6-0.4-0.8-1-0.8h-0.5V355.4z M447.9,352.8h0.6c0.6,0,1.1-0.2,1.1-0.8c0-0.4-0.3-0.8-1.1-0.8
			c-0.2,0-0.4,0-0.6,0V352.8z"/>
	</g>
</g>
</svg>
