<?xml version="1.0" encoding="utf-8"?>
<!-- Generator: Adobe Illustrator 26.0.0, SVG Export Plug-In . SVG Version: 6.00 Build 0)  -->
<svg version="1.1" id="Layer_1" xmlns="http://www.w3.org/2000/svg" xmlns:xlink="http://www.w3.org/1999/xlink" x="0px" y="0px"
	 viewBox="0 0 500 500" style="enable-background:new 0 0 500 500;" xml:space="preserve">
<style type="text/css">
	.st0{fill:url(#SVGID_1_);}
	.st1{fill:#C8DAEA;}
	.st2{fill:#A9C6D8;}
	.st3{fill:#FFFFFF;}
</style>
<g>
	<g>
		
			<linearGradient id="SVGID_1_" gradientUnits="userSpaceOnUse" x1="250" y1="158.5473" x2="250" y2="417.503" gradientTransform="matrix(1 0 0 -1 0 502)">
			<stop  offset="0" style="stop-color:#1D93D2"/>
			<stop  offset="1" style="stop-color:#38B0E3"/>
		</linearGradient>
		<circle class="st0" cx="250" cy="214" r="129.5"/>
		<path class="st1" d="M208.2,223.4l15.4,42.5c0,0,1.9,4,4,4c2.1,0,32.6-31.8,32.6-31.8l34-65.7l-85.4,40L208.2,223.4z"/>
		<path class="st2" d="M228.5,234.3l-2.9,31.3c0,0-1.2,9.6,8.4,0s18.8-17,18.8-17"/>
		<path class="st3" d="M208.4,225l-31.6-10.3c0,0-3.8-1.5-2.6-5c0.3-0.7,0.8-1.3,2.3-2.4c7-4.9,129.6-48.9,129.6-48.9
			s3.5-1.2,5.5-0.4c1,0.3,1.8,1.2,2,2.2c0.2,0.9,0.3,1.9,0.3,2.8c0,0.8-0.1,1.6-0.2,2.7c-0.7,12-23.1,102-23.1,102s-1.3,5.3-6.1,5.4
			c-2.4,0.1-4.7-0.8-6.4-2.5c-9.4-8.1-41.9-29.9-49.1-34.7c-0.3-0.2-0.5-0.6-0.6-1c-0.1-0.5,0.4-1.1,0.4-1.1s56.6-50.3,58.1-55.6
			c0.1-0.4-0.3-0.6-0.9-0.4c-3.8,1.4-68.9,42.5-76.1,47.1C209.5,225,209,225,208.4,225z"/>
	</g>
	<g>
		<path d="M130,403.1v-36.6H117v-7.6h35.2v7.6h-13v36.6H130z"/>
		<path d="M181.3,392.8c-1,6.5-7.1,10.9-15.3,10.9c-10.3,0-16.6-6.6-16.6-17.3c0-10.7,6.3-17.6,16.2-17.6c9.7,0,15.9,6.5,15.9,16.8
			v2.8h-23.3v0.6c0,4.9,3.2,8.2,7.9,8.2c3.4,0,6-1.6,6.9-4.2H181.3z M158.3,382.8h14.6c-0.2-4.4-3-7.3-7.2-7.3
			C161.7,375.5,158.7,378.5,158.3,382.8z"/>
		<path d="M186.6,356.8h9v46.4h-9V356.8z"/>
		<path d="M232.5,392.8c-1,6.5-7.1,10.9-15.3,10.9c-10.3,0-16.6-6.6-16.6-17.3c0-10.7,6.3-17.6,16.2-17.6c9.7,0,15.9,6.5,15.9,16.8
			v2.8h-23.3v0.6c0,4.9,3.2,8.2,7.9,8.2c3.4,0,6-1.6,6.9-4.2H232.5z M209.5,382.8h14.6c-0.2-4.4-3-7.3-7.2-7.3
			C212.8,375.5,209.8,378.5,209.5,382.8z"/>
		<path d="M237.4,405.5h8.8c0.6,2.2,3.4,3.7,6.9,3.7c4.5,0,7.5-2.3,7.5-6.1v-6h-0.2c-1.6,3.6-5.6,5.9-10.5,5.9
			c-8.2,0-13.7-6.4-13.7-16.8c0-10.6,5.3-17.2,13.9-17.2c4.8,0,8.7,2.4,10.5,6.2h0.2v-5.8h8.8v33c0,8-6.5,13.1-16.7,13.1
			C244.1,415.5,237.9,411.6,237.4,405.5z M260.7,386.2c0-6.1-3-10-7.7-10c-4.6,0-7.6,3.9-7.6,10c0,6.1,2.9,9.8,7.6,9.8
			S260.7,392.3,260.7,386.2z"/>
		<path d="M275.7,369.4h8.6v6h0.2c1.1-4.2,4-6.4,8-6.4c1,0,2,0.1,2.6,0.3v7.9c-0.8-0.3-2-0.5-3.3-0.5c-4.5,0-7.2,2.8-7.2,7.5v18.9
			h-9V369.4z"/>
		<path d="M296.8,393.4c0-6.1,4.7-9.6,13.3-10.1l8.4-0.5v-2.2c0-3.3-2.2-5-5.9-5c-3.3,0-5.5,1.7-6,4.2h-8.2
			c0.2-6.4,6.1-10.9,14.5-10.9c8.7,0,14.4,4.4,14.4,11.2v23.2h-8.6v-5.2h-0.2c-1.8,3.5-6,5.6-10.3,5.6
			C301.7,403.5,296.8,399.5,296.8,393.4z M318.6,390.8v-2.5l-7.1,0.5c-3.7,0.2-5.7,1.7-5.7,4.2c0,2.5,2.1,4,5.4,4
			C315.2,397,318.6,394.4,318.6,390.8z"/>
		<path d="M333.4,369.4h8.6v6.1h0.2c1.4-4.1,5.1-6.6,9.6-6.6c4.8,0,8.3,2.5,9.4,6.9h0.2c1.5-4.2,5.6-6.9,10.5-6.9
			c6.6,0,11.1,4.5,11.1,11.3v22.9h-9v-20.7c0-4-2-6.1-5.6-6.1c-3.5,0-5.9,2.6-5.9,6.4v20.4h-8.6v-21c0-3.6-2.1-5.8-5.6-5.8
			c-3.5,0-6,2.7-6,6.5v20.3h-9V369.4z"/>
	</g>
</g>
</svg>
