<?xml version="1.0" encoding="utf-8"?>
<!-- Generator: Adobe Illustrator 26.0.0, SVG Export Plug-In . SVG Version: 6.00 Build 0)  -->
<svg version="1.1" id="Layer_1" xmlns="http://www.w3.org/2000/svg" xmlns:xlink="http://www.w3.org/1999/xlink" x="0px" y="0px"
	 viewBox="0 0 500 500" style="enable-background:new 0 0 500 500;" xml:space="preserve">
<style type="text/css">
	.st0{fill:#3D4952;}
	.st1{fill:#F06F37;}
</style>
<g id="g56_00000139283778184704047470000016023598875755833525_" transform="translate(-21.5,-263.8)">
	<path id="path38_00000010307358102561980500000014414439008702531712_" class="st0" d="M141.3,528.9H94.6
		c1.6,8.8,7.8,14.2,15.4,14.2c4.8,0,10.8-0.6,15.2-8.1l14.5,3c-5.4,12.8-16.4,18.9-29.7,18.9c-17.3,0-31.4-13.2-31.4-32.4
		c0-19.2,14.2-32.6,31.6-32.6c16.4,0,30.4,12.6,31,31.3L141.3,528.9L141.3,528.9z M95.1,517.5h29.6c-2.1-7.8-8-11.3-14.5-11.3
		C104.1,506.3,97.1,509.9,95.1,517.5"/>
	<path id="path40_00000181806314549493342210000000193033377009482422_" class="st0" d="M314.2,555.3H298V550
		c-4.9,4.6-11.6,7.2-20.2,7.2c-15.6,0-30.1-13.2-30.1-32.4c0-19.2,14.5-32.6,30.1-32.6c8.6,0,15.4,2.6,20.2,7.2v-28.9h16.2V555.3z
		 M298,524.7c0-11.3-8.7-18.4-17.4-18.4c-9.8,0-17.2,7.2-17.2,18.4c0,11.3,7.4,18.3,17.2,18.3C289.3,542.9,298,535.9,298,524.7"/>
	<path id="path42_00000174598496155531207290000015491544796919672757_" class="st0" d="M446.8,494.1L446.8,494.1h-22.4v13.5h22.4
		c6.2,0,10.4,2.7,10.4,8.8v1h-17.7c-15.4,0-24.3,7.8-24.3,19.6c0,12,9.4,20,23.4,20c8.4,0,14.5-2.8,18.6-6.8v5h15.5v-40
		C472.7,500.6,462.5,494.4,446.8,494.1 M457.2,530.5c0,7.8-7.5,13.8-16.1,13.8c-6.2,0-10.4-3-10.4-7.5c0-4.2,3.4-7,8.6-7h18
		L457.2,530.5L457.2,530.5z"/>
	<path id="path44_00000085243408977353549040000012695859962328138937_" class="st0" d="M351,494.1L351,494.1h-22.4v13.5H351
		c6.2,0,10.4,2.7,10.4,8.8v1h-17.7c-15.4,0-24.3,7.8-24.3,19.6c0,12,9.4,20,23.4,20c8.4,0,14.5-2.8,18.6-6.8v5h15.4v-40
		C376.9,500.6,366.6,494.4,351,494.1 M361.4,530.5c0,7.8-7.5,13.8-16.1,13.8c-6.2,0-10.4-3-10.4-7.5c0-4.2,3.4-7,8.6-7h18
		L361.4,530.5L361.4,530.5z"/>
	<path id="path46_00000000187665185575793420000018291467329391749513_" class="st0" d="M216.3,494.1L216.3,494.1h-22.4v13.5h22.4
		c6.2,0,10.4,2.7,10.4,8.8v1H209c-15.4,0-24.3,7.8-24.3,19.6c0,12,9.4,20,23.4,20c8.4,0,14.5-2.8,18.6-6.8v5h15.5v-40
		C242.2,500.6,231.9,494.4,216.3,494.1 M226.7,530.5c0,7.8-7.5,13.8-16.1,13.8c-6.2,0-10.4-3-10.4-7.5c0-4.2,3.4-7,8.6-7h18
		L226.7,530.5L226.7,530.5z"/>
	<path id="path48_00000019660264465052288080000015201493573513924231_" class="st0" d="M185.2,494c-10,0-17,4-22,11.1v-11.2H147
		v61.2h16.2v-19.8c0-17,6.8-27.8,21.8-27.8h0.8V494C185.6,494,185.5,494,185.2,494"/>
	<path id="path50_00000042719399509209231820000016735867179558721974_" class="st0" d="M75.4,540.4c-2.4,0.9-5,1.5-7,1.5
		c-5.4,0-9-3.2-9-10.6v-24.2h16.6v-13.2H59.5v-15H43.3v28.3v25.4c0,16.8,9.6,24.4,24,24.4c5.1,0,10-1.1,16.3-4.5
		C80.3,549.3,77.2,545.1,75.4,540.4"/>
	<path id="path52_00000150088956506029037420000009786681384572428717_" class="st0" d="M410.1,541.8c-0.7,0.1-1.3,0.2-1.8,0.2
		c-5.4,0-9-3.2-9-10.6v-24.2h17v-13.2h-17v-15h-16.2v28.3v25.4c0,16.8,9.6,24.4,24,24.4c3.6,0,6.7-0.5,10.4-2
		C412.8,551.7,411,546.1,410.1,541.8"/>
	<path id="path54_00000080174618189369730420000003198810285409516207_" class="st1" d="M499.7,545.9c0,5.8-4.4,10.3-10.7,10.3
		c-6.2,0-10.7-4.4-10.7-10.3c0-5.6,4.4-10.3,10.7-10.3S499.7,540.4,499.7,545.9"/>
</g>
</svg>
