<?xml version="1.0" encoding="utf-8"?>
<!-- Generator: Adobe Illustrator 26.0.0, SVG Export Plug-In . SVG Version: 6.00 Build 0)  -->
<svg version="1.1" id="Layer_1" xmlns="http://www.w3.org/2000/svg" xmlns:xlink="http://www.w3.org/1999/xlink" x="0px" y="0px"
	 viewBox="0 0 500 500" style="enable-background:new 0 0 500 500;" xml:space="preserve">
<style type="text/css">
	.st0{fill:#CDCCCC;}
	.st1{fill:#FFFFFF;}
	.st2{fill:#DD00A1;}
	.st3{fill:#F9D8D2;}
	.st4{fill:#10110E;}
	.st5{fill:#E5E5E5;}
	.st6{opacity:0.2;fill:#8ACCCE;enable-background:new    ;}
	.st7{fill:#515151;}
</style>
<g>
	<g>
		<path class="st0" d="M328,183.6c0-7.3-5.9-13.3-13.3-13.3c-7.3,0-13.3,5.9-13.3,13.3c0.1,5.2,3.5,9.7,8.4,11.3v20.2
			c-5.8-14.8-16.6-27.1-30.5-34.7c2-4.4,4.1-8.2,6.1-11.7c7.6-11.2,16-21.9,25.1-32c5-5.9,9.7-11.5,13.6-16.4
			c10.8-13.5,22.6-33.5,20.4-45.3c-0.5-3.4-2.6-6.3-5.5-8c-15-8.8-35.4,19.9-55.4,47.6c-13.3,18.3-20.1,44.2-23.2,58.7
			c-6.1-1.3-12.4-2-18.7-2c-9.1,0-18.2,1.5-26.9,4.4c-0.6-16.2-0.1-32.5,1.5-48.6c4.4-42,2.5-66.7-5.7-75.1c-2.1-2.6-5.3-4-8.7-3.9
			c-24.1,1.2-21.4,73.3-21,81.5c1,19.7,8.8,43.7,13.6,56.9c-11.1,8.8-19.2,20.9-23.2,34.5h-1.7c-7.6-0.3-14,5.5-14.4,13.1
			c0,0.1,0,0.1,0,0.2v22.8c0.3,7.6,6.7,13.5,14.3,13.3c0,0,0,0,0.1,0h2.9c3.3,7.8,8.3,14.8,14.5,20.5l-4.4,3.9
			c-2.1,1.9-2.4,5.1-0.6,7.2c13.3,16.1,35,25.4,59.3,25.4s46.1-9.2,59.3-25.4c1.8-2.2,1.6-5.4-0.6-7.2l-4.4-3.9
			c6.3-5.8,11.2-12.9,14.5-20.8h3.3c7.6,0.3,14-5.6,14.4-13.2c0,0,0,0,0-0.1v-22.7c-0.1-5.3-3.5-10-8.4-11.8v-27.4
			C324.4,193.3,327.8,188.8,328,183.6z"/>
		<path class="st1" d="M219.8,294.4c4.1-2.7-6.6-1.7-7.5-3.5c-4.3-0.4-8.5-1.1-12.6-2.3c-7.5-2-25.5-14.1-27.5-25.7
			c-1.9-11.6,0-33.7,8.1-46.9c5.1-8.1,11.7-15.1,19.4-20.8c0,0-15.8-37.5-17.1-65.8c-1.3-28.3,0.9-78.7,19.4-79.6s15.8,46.3,12.6,77
			c-1.9,20.4-2.2,40.9-0.9,61.3c7.9-2.5,16.1-3.9,24.3-4.1c7.3-0.2,14.5,0.5,21.7,2c0,0,5.9-43.5,25.2-70.7s39.8-55,53-47.1
			c13.3,7.9-3.6,36.1-15.3,50.9c-11.7,14.7-32,36.8-38.8,48.6c-4.4,7.9-8.3,16-11.7,24.3c12.1,6.2,21.9,15.9,28.2,27.9
			c9.5,19,10.3,42.5,5.1,52.4c-5.2,9.3-14.3,15.8-24.8,17.7c-5.9,0.3-30.6,6.4-30.6,6.4L219.8,294.4z"/>
		<path class="st2" d="M263.1,186.5c0,0,14.8-38.5,28-60.1c13.2-21.6,30.9-38,36.5-34.6c5.6,3.3-11.4,23.5-26.2,43.4
			c-12.1,17.5-23.1,35.8-32.8,54.7L263.1,186.5z"/>
		<path class="st2" d="M203.8,193.1l4.4-3.3c0,0-0.6-38.5,0-61.9s1.8-52.6-6-52.3c-7.8,0.3-13.3,22.8-10.2,54.7
			C194.2,151.5,198.2,172.5,203.8,193.1z"/>
		
			<ellipse transform="matrix(3.327795e-02 -0.9994 0.9994 3.327795e-02 -82.5225 448.6804)" class="st3" cx="190.7" cy="267" rx="8.6" ry="8.6"/>
		<circle class="st3" cx="292" cy="267" r="8.6"/>
		<path class="st4" d="M255.5,266.3c-0.4-0.2-0.9-0.1-1.1,0.3c0,0,0,0,0,0c0,0-2.6,4.4-6.3,4.7c-2.5-0.1-4.9-1.2-6.6-3.1v-6.5
			c2.4-1.3,6.2-5.3,6.2-6.7c-0.7-3-3.5-5.1-6.6-4.8c-4.4,0-7.5,2.9-7.5,5.3c0,2.4,4.9,5.5,6.2,6.4v6.5c-1.4,1.8-3.5,2.9-5.8,3
			c-3.5,0-6.1-4.8-6.2-4.8c-0.2-0.4-0.7-0.5-1.1-0.4c-0.4,0.2-0.6,0.7-0.4,1.1c0,0,3.1,5.7,7.6,5.7c2.6-0.1,5-1.3,6.7-3.2
			c1.8,1.9,4.3,3.1,7,3.2h0.5c3.2-0.6,6-2.7,7.6-5.6C256.1,267,256,266.5,255.5,266.3C255.6,266.3,255.6,266.3,255.5,266.3z"/>
		<path class="st5" d="M199.7,195.3c0,0-12.2-30.9-14.6-47.1c-2.3-16.2-4.4-43.2-1.3-61.2c1.3-8.3,3.1-16.5,5.4-24.6
			c0,0-5.7,41.9-3.6,60.3C187.7,141.1,199.7,195.3,199.7,195.3z"/>
		<path class="st5" d="M259.7,186.1c0,0,8.8-46.8,21.7-65.2s28.8-40.7,36.9-46.3l8.1-5.7c0,0-32.4,34-45,61.9
			S259.7,186.1,259.7,186.1z"/>
		<path class="st4" d="M208.3,239.1c-3.7,0-6.7,3-6.8,6.7c0,3.7,3,6.7,6.7,6.8c3.7,0,6.7-3,6.8-6.7c0,0,0,0,0,0
			C214.9,242.1,212,239.1,208.3,239.1z M210.2,245.3c-1,0-1.8-0.8-1.8-1.8c0-1,0.8-1.8,1.8-1.8c1,0,1.8,0.8,1.8,1.8
			C212,244.5,211.2,245.3,210.2,245.3C210.1,245.3,210.1,245.3,210.2,245.3L210.2,245.3z"/>
		<path class="st4" d="M274.2,239.1c-3.7,0-6.7,3-6.7,6.7c0,3.7,3,6.7,6.7,6.7s6.7-3,6.7-6.7C280.9,242.1,277.9,239.1,274.2,239.1
			L274.2,239.1z M276.1,245.3c-1,0-1.8-0.8-1.8-1.8c0.2-1,1.1-1.7,2.1-1.5c0.8,0.1,1.4,0.8,1.5,1.5
			C277.9,244.5,277.1,245.3,276.1,245.3z"/>
		<ellipse class="st6" cx="242.4" cy="248.3" rx="62.3" ry="44.9"/>
		<path class="st1" d="M317.9,223.4v-29.5c4.8-1.1,8.3-5.2,8.5-10.1c-0.7-6.4-6.5-11.1-12.9-10.4c-5.5,0.6-9.8,4.9-10.4,10.4
			c0.2,4.9,3.7,9,8.4,10.1v28.7h-0.8c-8.8-30.7-35-49.7-69-49.7s-60.4,18.9-69.1,49.7h-3c-6.7-0.3-12.3,4.8-12.7,11.4v22.8
			c0.4,6.6,6.1,11.7,12.7,11.4h4c3.4,8.7,8.9,16.4,15.9,22.5l-5.7,5.1c-1.5,1.2-1.7,3.4-0.4,4.9c0,0,0,0,0,0
			c12.9,15.6,34.1,24.7,58,24.7s45.1-8.8,58-24.7c1.3-1.5,1.1-3.7-0.4-4.9c0,0,0,0,0,0l-5.7-5.1c7-6.1,12.5-13.8,15.9-22.5h4.4
			c6.6,0.3,12.3-4.8,12.7-11.4v-22.8C326.1,229,322.7,224.7,317.9,223.4z M241.6,205.5c31.6,0,57.2,20.8,57.2,46.3
			c0,27.6-28.8,39.8-57.2,39.8s-57.2-12.4-57.2-39.8C184.4,226.3,210.1,205.5,241.6,205.5z"/>
		<path class="st7" d="M320,249.3h-8.5c0-1.3,0-2.7,0-4.2c0-5.6-0.6-11.3-1.7-16.8h3.6c3.3-0.2,6.1,2.3,6.4,5.6c0,0.1,0,0.1,0,0.2
			L320,249.3z"/>
		<path class="st7" d="M313.6,262.6h-4.4c0.8-3.1,1.5-6.3,1.9-9.5h8.8v3.8c-0.1,3.3-2.9,5.8-6.1,5.7
			C313.7,262.6,313.7,262.6,313.6,262.6z"/>
		<path class="st7" d="M241.6,319.8c-21.2,0-40-7.6-51.9-21.2l6-5.3c13.6,9.1,29.6,13.7,46,13.3c16.3,0.4,32.4-4.2,46-13.3l5.9,5.3
			C281.7,312.1,262.8,319.8,241.6,319.8z"/>
		<path class="st7" d="M169.6,228.3h3.8c-1.1,5.5-1.7,11.2-1.7,16.8c-0.1,1.4-0.1,2.8,0,4.2h-8.3v-15.2c-0.1-3.1,2.4-5.7,5.5-5.8
			C169.2,228.3,169.4,228.3,169.6,228.3z"/>
		<path d="M241.6,201.7c-7.2,0-14.3,1-21.2,3v-23c6.9-2,14-2.9,21.2-2.9c7.2,0,14.3,0.9,21.2,2.9v23.2
			C255.9,202.8,248.8,201.7,241.6,201.7z"/>
		<path class="st7" d="M216.2,183v23.2c-21.2,7.8-36,25.3-36,45.5c0,26.1,24.8,43.8,61.4,43.8s61.4-17.7,61.4-43.8
			c0-20.2-14.8-37.7-36-45.5V183c24.8,8.8,40.3,31.8,40.3,62.3c0,34.3-26.3,57.4-65.7,57.4s-65.7-23-65.7-57.4
			C176,214.8,191.4,192,216.2,183z"/>
		<path class="st7" d="M163.2,253.1h8.8c0.4,3.2,1,6.4,1.9,9.5h-4.4c-3.3,0.2-6.1-2.3-6.4-5.5c0-0.1,0-0.1,0-0.2L163.2,253.1z"/>
		<ellipse class="st7" cx="314.7" cy="183.6" rx="5.3" ry="4.8"/>
	</g>
	<g>
		<path d="M154.5,380.9h-18.9v-17.2c0-2.5-2-4.6-4.6-4.6l0,0h-0.2c-2.5,0-4.6,2-4.6,4.6v0v17.2h-5.5c-2.4,0-4.4,1.9-4.5,4.4
			c0,0,0,0,0,0l0,0c0,2.4,2,4.4,4.4,4.4l0,0h5.5v41.3c-0.3,5.5,1.5,10.8,5,15c3.8,3.8,9.1,5.8,14.5,5.5c3.8,0,7.6-0.8,11.1-2.4
			c1.1-0.6,1.8-1.7,1.8-2.9v-2.9c0-1.8-1.5-3.2-3.3-3.2c-0.5,0-1,0.1-1.5,0.3c-2.5,1.3-5.3,1.9-8.1,1.9c-2.8,0.3-5.7-0.7-7.7-2.8
			c-1.9-2.6-2.8-5.8-2.6-9v-40.9h18.9c2.4,0,4.4-1.9,4.4-4.3c0,0,0,0,0-0.1l0,0c0.1-2.4-1.8-4.4-4.2-4.5
			C154.6,380.9,154.5,380.9,154.5,380.9z"/>
		<path d="M201.8,379.4c-3.7,0-7.3,0.7-10.7,2.2c-3.1,1.4-6,3.3-8.5,5.6c-1.2,1.1-2.3,2.3-3.3,3.6v-5.4c0-2.5-2.1-4.6-4.6-4.6l0,0
			l0,0c-2.5,0-4.6,2.1-4.6,4.6v0v60.4c0,2.5,2.1,4.6,4.6,4.6l0,0l0,0c2.5,0,4.6-2.1,4.6-4.6v0v-31.3c0.1-3,0.6-5.9,1.6-8.7
			c1.1-3.1,2.6-6,4.6-8.6c1.9-2.6,4.3-4.8,7.1-6.5c2.7-1.6,5.8-2.5,8.9-2.4h0.6c1.8,0,3.3-1.5,3.3-3.3v-2.5c0-1.8-1.5-3.2-3.3-3.2
			C202,379.4,201.9,379.4,201.8,379.4z"/>
		<path d="M220.7,380.9L220.7,380.9c-2.6,0-4.6,2.1-4.6,4.6v60.4c0,2.5,2,4.5,4.5,4.5h0.3c2.5,0,4.5-2,4.5-4.5v-60.4
			C225.4,383,223.3,380.9,220.7,380.9z"/>
		<path d="M293,388.5c-2.6-3-5.8-5.3-9.4-6.8c-4-1.6-8.3-2.4-12.6-2.3c-3.9-0.1-7.7,0.6-11.3,2.1c-3.1,1.3-5.9,3-8.4,5.2
			c-0.8,0.7-1.6,1.5-2.3,2.3v-3.6c0-2.5-2.1-4.6-4.6-4.6l0,0l0,0c-2.5,0-4.6,2.1-4.6,4.6v0v60.5c0,2.5,2,4.6,4.6,4.6l0,0h0.2
			c2.5,0,4.6-2,4.6-4.6v0v-33.6c0-3.2,0.5-6.4,1.7-9.4c1.1-2.8,2.7-5.4,4.7-7.6c1.9-2.1,4.3-3.8,6.9-5c2.6-1.2,5.5-1.8,8.4-1.8
			c3.1-0.1,6.2,0.5,9.1,1.7c2.5,1,4.7,2.6,6.5,4.6c1.8,2.1,3.1,4.6,3.8,7.2c0.9,3.2,1.4,6.5,1.4,9.8V446c0,2.5,2,4.5,4.5,4.5h0.3
			c2.5,0,4.5-2,4.5-4.5c0,0,0,0,0,0v-34.4c0.1-4.4-0.6-8.8-1.9-13C297.7,394.8,295.6,391.4,293,388.5z"/>
		<path d="M381.2,401.7c-1.7-4.3-4.2-8.2-7.4-11.6c-10.8-10.6-27-13.7-40.9-7.7c-8.6,3.7-15.3,10.8-18.6,19.5
			c-1.7,4.5-2.6,9.2-2.5,14c0,4.7,0.8,9.4,2.5,13.8c1.7,4.3,4.2,8.2,7.4,11.5c6.8,7,16.3,10.9,26,10.7c5.1,0.1,10.1-0.9,14.8-2.9
			c4.3-1.8,8.2-4.5,11.4-7.9c3.2-3.4,5.6-7.3,7.3-11.6c1.7-4.5,2.6-9.3,2.5-14.1C383.8,410.7,382.9,406.1,381.2,401.7z M347.9,442.9
			c-3.7,0.1-7.4-0.7-10.8-2.1c-3.2-1.4-6.1-3.3-8.5-5.8c-2.4-2.5-4.3-5.4-5.6-8.7c-1.3-3.4-2-7.1-2-10.7c0-3.6,0.6-7.2,1.9-10.6
			c1.2-3.2,3.1-6.1,5.4-8.6c2.4-2.5,5.2-4.5,8.4-5.8c6.9-2.8,14.7-2.8,21.7,0c3.2,1.3,6.1,3.3,8.5,5.8c2.4,2.5,4.3,5.4,5.6,8.6
			c2.6,6.9,2.6,14.4,0,21.3c-1.2,3.2-3.1,6.2-5.4,8.7c-2.4,2.5-5.2,4.4-8.4,5.8C355.3,442.2,351.6,443,347.9,442.9z"/>
		<circle cx="220.8" cy="366.1" r="5.3"/>
	</g>
</g>
</svg>
