<?xml version="1.0" encoding="utf-8"?>
<!-- Generator: Adobe Illustrator 26.0.0, SVG Export Plug-In . SVG Version: 6.00 Build 0)  -->
<svg version="1.1" id="Layer_1" xmlns="http://www.w3.org/2000/svg" xmlns:xlink="http://www.w3.org/1999/xlink" x="0px" y="0px"
	 viewBox="0 0 500 500" style="enable-background:new 0 0 500 500;" xml:space="preserve">
<style type="text/css">
	.st0{fill:#F22F46;}
</style>
<g>
	<path class="st0" d="M90,233.3c0,7.7-6.3,14-14,14s-14-6.3-14-14c0-7.7,6.3-14,14-14S90,225.6,90,233.3z M76,252.7
		c-7.7,0-14,6.3-14,14s6.3,14,14,14s14-6.3,14-14S83.6,252.7,76,252.7z M160.4,250c0,37.5-30.2,67.7-67.7,67.7S24.9,287.5,24.9,250
		s30.2-67.7,67.7-67.7S160.4,212.5,160.4,250z M142.3,250c0-27.5-22.1-49.7-49.7-49.7S43,222.5,43,250s22.1,49.7,49.7,49.7
		S142.3,277.5,142.3,250z M109.4,252.7c-7.7,0-14,6.3-14,14s6.3,14,14,14s14-6.3,14-14S117,252.7,109.4,252.7z M109.4,219.3
		c-7.7,0-14,6.3-14,14c0,7.7,6.3,14,14,14s14-6.3,14-14C123.4,225.6,117,219.3,109.4,219.3z M342.3,208.9c0.5,0,0.9,0.5,1.4,0.9
		v14.4c0,0.9-0.9,1.4-1.4,1.4h-23.9c-0.9,0-1.4-0.9-1.4-1.4v-14c0-0.9,0.9-1.4,1.4-1.4C318.4,208.9,342.3,208.9,342.3,208.9z
		 M341.9,229.2h-46c-0.5,0-1.4,0.5-1.4,1.4l-5.9,22.6l-0.5,1.4l-7.2-23.9c0-0.5-0.9-1.4-1.4-1.4h-18.1c-0.5,0-1.4,0.5-1.4,1.4
		l-6.8,22.6l-0.5,1.4l-0.5-1.4l-2.7-11.3l-2.7-11.3c0-0.5-0.9-1.4-1.4-1.4h-36.1v-19.4c0-0.5-0.9-1.4-1.8-0.9l-22.6,7.2
		c-0.9,0-1.4,0.5-1.4,1.4v12.2H178c-0.5,0-1.4,0.5-1.4,1.4v17.2c0,0.5,0.5,1.4,1.4,1.4h5.9v21.2c0,14.9,8.1,21.7,23,21.7
		c6.3,0,12.2-1.4,16.3-3.6v-18.1c0-0.9-0.9-1.4-1.4-0.9c-2.3,0.9-4.5,1.4-6.3,1.4c-4.1,0-6.3-1.8-6.3-6.3v-15.3h13.1
		c0.5,0,1.4-0.5,1.4-1.4v-14.4l17.2,56.9c0,0.5,0.9,1.4,1.4,1.4h19c0.5,0,1.4-0.5,1.4-1.4l8.1-25.3l4.1,13.1l3.6,12.2
		c0,0.5,0.9,1.4,1.4,1.4h19c0.5,0,1.4-0.5,1.4-1.4l17.2-56.9v56.9c0,0.5,0.5,1.4,1.4,1.4h23c0.5,0,1.4-0.5,1.4-1.4v-60
		C342.8,230.1,342.3,229.2,341.9,229.2z M372.1,208.9h-23c-0.5,0-1.4,0.5-1.4,1.4v79.9c0,0.5,0.5,1.4,1.4,1.4h23
		c0.5,0,1.4-0.5,1.4-1.4v-80.4C373.5,209.4,373,208.9,372.1,208.9z M402.8,208.9h-23.9c-0.5,0-1.4,0.5-1.4,1.4v14
		c0,0.5,0.5,1.4,1.4,1.4h23.9c0.5,0,1.4-0.5,1.4-1.4v-14.4C404.2,209.4,403.7,208.9,402.8,208.9z M402.4,229.2h-23
		c-0.5,0-1.4,0.5-1.4,1.4v59.1c0,0.5,0.5,1.4,1.4,1.4h23c0.5,0,1.4-0.5,1.4-1.4v-59.1C403.7,230.1,403.3,229.2,402.4,229.2z
		 M475.1,259.9c0,17.2-14.4,32.1-34.8,32.1c-19.9,0-34.3-14.9-34.3-32.1s14.4-32.1,34.8-32.1C460.6,227.9,475.1,242.8,475.1,259.9z
		 M450.7,260.4c0-6.3-4.5-11.3-9.9-10.8c-5.9,0-9.9,5-9.9,10.8c0,5.9,4.5,10.8,9.9,10.8C446.6,271.2,450.7,266.3,450.7,260.4z"/>
</g>
</svg>
