<?xml version="1.0" encoding="utf-8"?>
<!-- Generator: Adobe Illustrator 26.0.0, SVG Export Plug-In . SVG Version: 6.00 Build 0)  -->
<svg version="1.1" id="Layer_1" xmlns="http://www.w3.org/2000/svg" xmlns:xlink="http://www.w3.org/1999/xlink" x="0px" y="0px"
	 viewBox="0 0 500 500" style="enable-background:new 0 0 500 500;" xml:space="preserve">
<style type="text/css">
	.st0{fill-rule:evenodd;clip-rule:evenodd;fill:#0086A4;}
	.st1{fill-rule:evenodd;clip-rule:evenodd;fill:#FFFFFF;}
</style>
<g>
	<path class="st0" d="M210.6,243.8v-6.1c0-1.5,1.2-3.2,3.2-3.2h7.9v-15.7c0-1.6,1.1-2.6,1.9-3c0.5-0.2,7.6-3.3,7.6-3.3
		c0.9-0.4,1.5-0.7,2.3-0.7c1.7,0,3.1,1.6,3.1,3.3v19.4h13.1c2,0,3.2,1.8,3.2,3.2v6.1c0,1.8-1.6,3.2-3.2,3.2h-13.1v25.5
		c0,3-0.1,5.3,1.1,7c1,1.6,2.6,2.2,5.6,2.2c0.9,0,1.7-0.1,2.3-0.4c1.9-0.7,3.4,0.5,3.9,1.4c1,1.9,2.1,3.9,2.9,5.4
		c0.9,1.6,0.2,3.7-1.4,4.5c-2.5,1.2-6,2.2-10.3,2.2c-4.9,0-10.4-0.6-14.6-4.8c-3.3-3.3-4.3-7.8-4.3-17.1v-25.9h-7.9
		C211.7,247.1,210.6,245.3,210.6,243.8L210.6,243.8z M259.1,234.5h10.3c1.4,0,2.2,0.6,2.6,1.9l11.7,40.2h0.2l12.2-40.2
		c0.4-1.3,1.2-1.9,2.6-1.9h11.9c0.9,0,2.1,0.3,2.6,1.9l12.4,40.2h0.2l11.9-40.2c0.4-1.3,1.2-1.9,2.6-1.9h9.7c1.1,0,3.3,1,2.5,3.6
		l-18.5,53.5c-0.4,1.4-1.3,2-2.7,2h-11c-1.3,0-2.5-0.9-2.8-2l-12.9-39.8h-0.2l-12.9,40c-0.3,1-1.4,1.8-2.7,1.8h-11
		c-1.4,0-2.3-0.7-2.7-2l-18.7-53.5C255.8,236.3,257.3,234.5,259.1,234.5L259.1,234.5z M366.9,222.5c-4.5,0-9.6-2.7-9.6-8.9
		c0-6.3,5.1-8.9,9.6-8.9c3.8,0,9.6,2.7,9.6,8.9C376.5,219.9,371.3,222.5,366.9,222.5L366.9,222.5z M374.3,237.8
		c0-1.9-1.6-3.3-3.3-3.3h-8.4c-1.8,0-3.3,1.6-3.3,3.3v52.6c0,1.6,1.3,3.3,3.3,3.3h8.4c1.9,0,3.3-1.6,3.3-3.3V237.8L374.3,237.8z
		 M418.6,250.4c-0.8,0-2.1,0.1-2.8-1.6c-0.8-1.9-2.7-4.6-8.5-4.6c-5.2,0-9,2.5-9,6.5c0,5.4,7.9,5.6,16.1,7.8
		c8.6,2.3,17.4,6.1,17.4,17.6c0,9.5-7.3,19.2-25.1,19.2c-21.7,0-24.5-14.2-24.5-16.1c0-2.7,1.8-3.2,3.3-3.2h8.3c1.1,0,2.6,0.6,3.1,2
		c0.5,1.5,2.5,5.2,10.2,5.2c4.3,0,9.7-1.3,9.7-5.7c0-5.9-7.2-7-14.9-8.7c-8.9-2-18.6-4.1-18.6-17.4c0-10.6,8.4-19.2,23.3-19.2
		c18.8,0,22.5,13.1,22.7,14c0.3,1.9-0.6,4.2-3.2,4.2H418.6L418.6,250.4z M432.5,243.9v-6.2c0-1.5,1.2-3.2,3.2-3.2h7.9v-15.7
		c0-1.6,1.1-2.6,1.9-3l8.5-3.7c2.5-1,4.5,1,4.5,3v19.4h13.1c2,0,3.2,1.8,3.2,3.2v6.2c0,1.8-1.6,3.2-3.2,3.2h-13.1V275
		c0,6.2,3.6,6.7,6.7,6.7c0.9,0,1.7-0.1,2.3-0.4c1.9-0.7,3.4,0.5,3.9,1.4c1,1.9,2.1,3.9,2.9,5.4c0.9,1.6,0.2,3.7-1.4,4.5
		c-2.5,1.2-5.8,2.2-10.6,2.2c-5.6,0-10.4-0.9-14.6-5c-3.2-3.2-4-9.1-4-16.9v-25.8h-7.9C433.7,247.1,432.5,245.3,432.5,243.9z"/>
	<path class="st0" d="M148.4,179.5H42.7c-9.7,0-17.6,7.9-17.6,17.6v105.7c0,9.7,7.9,17.6,17.6,17.6h105.7c9.7,0,17.6-7.9,17.6-17.6
		V197.1C166,187.4,158.2,179.5,148.4,179.5z"/>
	<path class="st1" d="M68.2,220.4c-0.6-0.2-43.1-10.9-43.1-10.9v12.1h43.5c0.4,0,0.6,0,0.6-0.5C69.1,220.8,68.8,220.6,68.2,220.4
		L68.2,220.4z M55.9,250c0-2.6,0.4-3.9,2.5-4.7l45.8-13.6c0.1,0,0.1-0.1,0.1-0.2v-3.8c0-1.1-0.5-1.8-1.3-1.8c-0.4,0-1.4,0.2-1.6,0.2
		c0,0-53.9,7.6-55.8,7.9c-1.9,0.3-3,1.7-3,3.5v21.6c0,1.9,1.5,3.1,3.4,2.8c1.9-0.4,9.7-1.9,9.7-1.9c0.1,0,0.1-0.1,0.1-0.2V250
		L55.9,250z M76.3,259.4c2-1.2,50.9-29.4,51.1-29.5c0.3-0.2,0.6-0.4,1.3-0.4c1.1,0,2,0.8,2,2.4v21.3c0,1.9-1,3.8-2.6,4.8l-12.5,7.8
		l0,0l-4.8,16.9c-0.1,0.3-0.3,0.5-0.7,0.5c-0.1,0-0.2,0-0.4-0.1L99.4,276l0,0l0,0l-22.6,14.1c-1.4,0.9-3.2,0-3.2-1.8v-24.1
		C73.5,262.2,74.3,260.5,76.3,259.4z"/>
</g>
</svg>
