<?xml version="1.0" encoding="utf-8"?>
<!-- Generator: Adobe Illustrator 26.0.0, SVG Export Plug-In . SVG Version: 6.00 Build 0)  -->
<svg version="1.1" id="Layer_1" xmlns="http://www.w3.org/2000/svg" xmlns:xlink="http://www.w3.org/1999/xlink" x="0px" y="0px"
	 viewBox="0 0 500 500" style="enable-background:new 0 0 500 500;" xml:space="preserve">
<style type="text/css">
	.st0{fill:#1D9BF0;}
</style>
<g>
	<g id="Logo_1_">
		<path id="white_background" class="st0" d="M355.7,144.2c0.2,2.3,0.2,4.7,0.2,7.1c0,72.1-54.9,155.2-155.2,155.2v0
			c-29.6,0-58.7-8.4-83.6-24.5c4.3,0.5,8.6,0.8,13,0.8c24.6,0,48.4-8.2,67.7-23.4c-23.3-0.4-43.8-15.7-51-37.9
			c8.2,1.6,16.6,1.3,24.6-0.9c-25.4-5.1-43.8-27.5-43.8-53.5c0-0.2,0-0.5,0-0.7c7.6,4.2,16.1,6.6,24.8,6.8
			c-24-16-31.4-47.9-16.9-72.8c27.7,34.1,68.6,54.8,112.4,57c-4.4-18.9,1.6-38.8,15.8-52.1c22-20.7,56.5-19.6,77.2,2.4
			c12.2-2.4,23.9-6.9,34.6-13.2c-4.1,12.6-12.6,23.4-24,30.2c10.8-1.3,21.4-4.2,31.3-8.6C375.6,126.9,366.4,136.4,355.7,144.2z"/>
	</g>
	<g id="layer1_00000003096363098157709890000004246607239395349389_" transform="translate(-50.461389,-83.56061)">
		<g id="g4147" transform="translate(394.28571,-405.71429)">
			<path id="path4223" class="st0" d="M-274.5,898.1c-7.9-2.1-15.1-8.1-18.8-15.6c-2.8-5.7-2.8-5.7-2.8-32
				c-0.3-22.8-0.2-23.5,1.3-25.7c3.2-5.4,10.3-6.5,15-2.4c3.3,2.9,3.5,3.9,3.5,13.3v8.2h13.7c8.4,0,14.5,0.2,15.8,0.4
				c7.2,1.5,9.9,10.1,4.9,15.5c-0.6,0.6-1.8,1.5-2.7,2c-1.6,0.8-2.1,0.9-16.7,1l-15.1,0.1v3.6c0,5.3,0.5,7,3,9.5
				c2.9,2.9,3.6,3,17.1,3c10.4,0,11.4,0.1,13.1,0.8c6.4,2.9,8,10.6,3.3,15.9c-2.8,3.1-2.9,3.1-18.3,3.1
				C-270.1,898.8-272,898.7-274.5,898.1L-274.5,898.1z M-213.3,898.2c-6.2-1.5-12.7-6.2-16.6-12.2c-3.6-5.5-4.3-9.4-4.3-23.8
				c0-12.5,0.2-14,2.6-16.5c2.2-2.3,3.6-2.9,6.9-2.9c2.5,0,3.1,0.1,4.8,1.2c1.2,0.8,2.4,2,3.2,3.2c1.5,2.6,1.2,3.7,1.4,14.6
				c0.2,12.3,0.2,12.6,1.2,14.1c3.1,5.1,9.6,5.8,13.9,1.6c2.5-2.4,2.7-3.8,2.7-16.6c0-10.5,0-11.2,0.9-12.8c1.6-3.2,4-4.9,7.4-5.4
				c3.7-0.5,7.7,1.7,9.6,5.3c0.9,1.6,0.9,2.3,1.1,14.1c-0.1,9.8,0.4,12.7,1.3,14.1c3,4.5,9.2,5.4,13.1,2c2.8-2.4,2.8-2.4,3-16.1
				c0.2-11.7,0.3-12.4,1.1-14c3.6-6.7,12.6-7.1,16.5-0.8c2.5,3.5,1.4,11,1.4,15.7c0.2,6.3-0.2,14.4-1.3,16.9
				c-3,8.5-9.7,15.2-17.7,17.8c-3.6,1.2-11.7,1.5-15.3,0.5c-3.5-0.9-6.5-2.3-9.4-4.3l-2.4-1.7l-2.4,1.7c-2.9,2-5.9,3.4-9.1,4.3
				C-202.6,899-210,899-213.3,898.2L-213.3,898.2z M-129.2,898.3c-1.8-0.8-4.1-3-5.2-4.9c-0.9-1.6-0.9-1.8-0.9-22.5
				c0-19.9,0-20.9,0.8-22.4c3.2-6.4,11.3-7.8,16.2-2.9c3.1,3.1,3.1,3,2.9,26c-0.1,19.8-0.1,20.2-1,21.8c-1.1,2.1-3.2,4-5.1,4.8
				C-123.2,899-127.5,899-129.2,898.3L-129.2,898.3z M-86.7,898.1c-9-2.4-16.8-9.5-20.1-18.3c-1.8-4.8-1.9-7.2-1.8-30.7
				c0.1-21.7,0.1-22.1,1-23.7c4.3-7.9,16-6.9,18.6,1.6c0.4,1.4,0.6,4.1,0.6,9.4v7.4l9.6,0.1c8.9,0.1,9.7,0.2,11.2,1
				c7,3.8,7.1,13.1,0.1,16.8c-1.6,0.8-2.3,0.9-11.3,1l-9.6,0.1l0.1,4.7c0.2,5.5,0.8,7.2,3.5,9.3c2.4,1.8,3.9,2.1,10.8,2.1
				c5.5,0,6.3,0.1,8.1,1c7.8,3.6,7.8,14.6,0,18.1C-68.4,899.2-82.5,899.2-86.7,898.1L-86.7,898.1z M-35.2,898.1
				c-10.2-2.8-18.6-11.4-21.2-21.7c-0.6-2.5-0.7-5.1-0.7-25.9c0.2-21.6-0.9-20.7,1.1-25.2c2.3-4.4,7.1-6.4,12.2-4.9
				c2.1,0.6,5.7,4.2,6.3,6.3c0.2,0.9,0.4,5,0.4,9.4l0,7.8h8.2c9.4,0,11.9,0.3,14.2,2c4.9,3.5,5,11.5,0.2,15
				c-2.4,1.7-4.7,2.1-14.2,2.1h-8.5v3.7c0,4.8,0.6,6.9,2.5,9c2.6,3,3.6,3.2,11.9,3.5c7.3,0.2,7.3,0.2,9.3,1.4c2.3,1.4,4.4,4.5,4.8,7
				c0.6,3.7-1.3,7.8-4.7,10l-1.7,1.1l-8.7,0.1C-31.1,898.8-32.8,898.7-35.2,898.1L-35.2,898.1z M15.3,898.3
				c-5.9-1.6-10.3-4.2-14.5-8.8c-5.2-5.5-7.5-11.6-7.5-19.5c0-4.8,0.8-8.6,2.8-12.6c2-4.2,4.3-7,7.6-9.3c9.6-6.8,26.6-7.3,37.3-0.9
				c3.8,2.3,7.8,6.5,9.8,10.5c3.9,8,3.5,15.2-1,17.5c-1.6,0.8-2.3,0.8-18.7,1l-17.1,0.1v1.1c0,1.7,2.6,3.9,5.5,4.7
				c2,0.6,4.4,0.7,13.3,0.7c6.1,0,11.6,0.2,12.4,0.4c7,1.9,8.4,11.2,2.2,14.8c-2,1.3-3.2,1-15.9,1C21,898.8,16.8,898.7,15.3,898.3
				L15.3,898.3z M33.1,862.3c-0.8-2.6-2.9-4.1-6.9-4.8c-4.2-0.8-10.2,1-11.3,3.4c-0.5,1-1,2.2-1,2.2s3.5,0.1,9.8,0.1h9.7L33.1,862.3
				z M63.7,898.1c-2.1-1.1-4.3-3.8-4.8-5.7c-0.3-1.1-0.4-5.6-0.3-13.9c0.1-12,0.2-12.2,1.3-15.5c2.9-8.6,10.6-15.8,19.5-18.2
				c3.3-0.9,18.5-1.3,21.8-0.6c4.6,1,7.6,4.5,7.6,9c0,3.8-1.7,6.8-5,8.5c-1.5,0.8-2.4,0.9-11.2,1.1c-9.1,0.2-9.6,0.3-11,1.2
				c-1.9,1.2-3.3,3-3.9,5.1c-0.3,1-0.4,5.8-0.4,12.2c0,10.5,0,10.5-1.1,12.7c-0.7,1.4-1.7,2.5-2.9,3.4c-1.7,1.1-2.3,1.3-4.9,1.4
				C65.8,898.8,64.8,898.7,63.7,898.1L63.7,898.1z M-129.7,836.7c-6.4-3.2-7.6-11.7-2.3-16.3c2.1-1.8,3.8-2.4,6.6-2.4
				c4,0,7.2,1.9,9,5.4C-112,831.7-121.2,840.9-129.7,836.7L-129.7,836.7z"/>
		</g>
	</g>
</g>
</svg>
