<?xml version="1.0" encoding="utf-8"?>
<!-- Generator: Adobe Illustrator 26.0.0, SVG Export Plug-In . SVG Version: 6.00 Build 0)  -->
<svg version="1.1" id="Layer_1" xmlns="http://www.w3.org/2000/svg" xmlns:xlink="http://www.w3.org/1999/xlink" x="0px" y="0px"
	 viewBox="0 0 500 500" style="enable-background:new 0 0 500 500;" xml:space="preserve">
<g>
	<polygon points="165.1,209.6 107.9,209.6 107.9,209.6 107.9,209.6 75.8,266.4 43.8,209.6 28.5,209.6 75.9,293.4 115.7,222.9 
		165.1,222.9 	"/>
	<polygon points="165.1,256.7 165.1,243.3 108.4,243.3 108.4,289.7 165.1,289.7 165.1,276.4 121.7,276.4 121.7,256.7 	"/>
	<rect x="305.4" y="209.6" width="13.3" height="80.2"/>
	<path d="M300.2,209.6h-68v0.2c4.2,3.4,7.4,7.9,9.2,13.1h18.1v66.9h13.3v-66.9h27.3L300.2,209.6L300.2,209.6z"/>
	<path d="M229,289.7h13.3l-19.7-36c8.4-3.4,14.3-11.7,14.3-21.2c0-12.7-10.2-22.9-22.9-22.9h-30.1H175h-4.4v80.2h13.3v-34.4h26.3
		L229,289.7z M183.9,222.9H214c5.3,0,9.6,4.3,9.6,9.6c0,5.3-4.3,9.6-9.6,9.6h-30.1V222.9z"/>
	<path d="M421.5,206.6L421.5,206.6l-34.2,56.9v0.1l0,0c-4.8,8-13.5,13.3-23.4,13.3c-15.2,0-27.4-12.3-27.4-27.4s12.3-27.4,27.4-27.4
		c9.3,0,17.5,4.6,22.5,11.8l7.2-12c-7.4-8-17.9-12.9-29.7-12.9c-22.4,0-40.5,18.1-40.5,40.5s18.1,40.5,40.5,40.5
		c14.7,0,27.6-7.9,34.8-19.7l0,0l22.8-38.1l34.6,57.6l15.4-0.2L421.5,206.6z"/>
</g>
</svg>
