<?xml version="1.0" encoding="utf-8"?>
<!-- Generator: Adobe Illustrator 26.0.0, SVG Export Plug-In . SVG Version: 6.00 Build 0)  -->
<svg version="1.1" id="Layer_1" xmlns="http://www.w3.org/2000/svg" xmlns:xlink="http://www.w3.org/1999/xlink" x="0px" y="0px"
	 viewBox="0 0 500 500" style="enable-background:new 0 0 500 500;" xml:space="preserve">
<style type="text/css">
	.st0{fill-rule:evenodd;clip-rule:evenodd;fill:#FFFFFF;}
	.st1{fill-rule:evenodd;clip-rule:evenodd;fill:#005073;}
	.st2{fill-rule:evenodd;clip-rule:evenodd;fill:#6EBE4A;}
	.st3{fill-rule:evenodd;clip-rule:evenodd;fill:#FBAB18;}
	.st4{fill-rule:evenodd;clip-rule:evenodd;fill:#FF3D67;}
	.st5{fill-rule:evenodd;clip-rule:evenodd;fill:#00BCEB;}
	.st6{fill-rule:evenodd;clip-rule:evenodd;fill:#D441D8;}
	.st7{fill-rule:evenodd;clip-rule:evenodd;}
</style>
<g>
	<g>
		<path class="st0" d="M140.1,311.2c-0.2-0.3-0.4-0.6-0.5-0.9l-0.2-0.1l-0.4-0.5c-4.3-3.5-12.2-14.3-15.5-19.1
			c-4.5-6.5-8.5-14.1-12.1-22c-20-44.2-15.3-94.9,10.5-135.7c4.7-7.5,9.7-13.5,14.8-19.6l0.3-0.2l0.3-0.4l0.3-0.4l0.4-0.2l0.5-0.3
			c-0.1-0.6-0.2-0.5,0.3-0.5c2.6-4.7,14.2-14.4,18.8-17.6c0.7-0.5,1.2-0.9,1.8-1.4c-37,26.8-61,69.6-61,117.9
			C98.6,249.3,114.4,284.9,140.1,311.2z"/>
		<path class="st1" d="M348.5,207.6c-0.8,30.3-10.5,54-33.2,73.5c-14.3,12.2-30,19.5-49.3,22.6c-3.3,0.5-8,0.5-10.8,1.1
			c24.5,3.9,32.9,34.7,11.2,49.2c-2.3,1.5-4.3,2.3-5.9,2.8c78.7-5.3,140.8-68.9,140.8-146.6c0-3.1-0.1-6.3-0.3-9.4
			c-1.6-4.1-3.8-7.3-6.8-9.8c-4.7-3.9-10-7.2-18.7-7.1C361.4,183.9,349.5,194.7,348.5,207.6z"/>
		<path class="st2" d="M179.1,273.9l-0.1-0.1l14.2,12.1c10.4,7.7,23.9,13.6,37.3,16.5c8.6,1.8,15.9,1.8,24.8,2.4
			c2.8-0.6,7.5-0.6,10.8-1.1c19.2-3,35-10.3,49.3-22.6c22.7-19.5,32.4-43.2,33.2-73.5c-0.4-0.9-1-9.2-1.2-11.1
			c-2.2-14.6-9.4-32.1-18.8-43c-3.1-3.6-8.6-11-12.1-12.7c2.8,19.5-1.7,41.4-8.3,57.8c-3.4,8.5-7.5,15.2-12.1,22.1
			c-4.9,7.3-7,8.8-11.4,14.2c-1.2,1.5-2.6,2.9-4,4.3c-11.4,11-26.5,20.7-41.8,26.6C216.1,274.4,202.6,274.5,179.1,273.9z"/>
		<path class="st3" d="M255.4,116.1c14.8,2.2,19.9,1.6,34.8,8c5.9,2.5,21.7,11.2,26.1,16.7c3.5,1.7,9,9.1,12.1,12.7
			c9.4,10.9,16.6,28.4,18.8,43c0.3,1.9,0.8,10.2,1.2,11.1c1-12.9,13-23.7,27.2-23.7c8.6,0,14,3.2,18.7,7.1c3,2.5,5.2,5.6,6.8,9.8
			c-4.8-74.2-66.3-133.4-142.9-137.4c5.3,1.2,10.6,5.2,13.9,8.6c1.6,1.6,3.8,5.1,4.9,7.7c4.1,10.4,1.3,20.1-5.2,27.8
			C267.2,112.9,261.2,114.4,255.4,116.1z"/>
		<path class="st4" d="M138.1,112l-0.4,0.2l-0.3,0.4l-0.3,0.4l-0.3,0.2c-5.1,6.1-10.1,12.1-14.8,19.6
			c-25.8,40.8-30.5,91.5-10.5,135.7c3.6,7.9,7.6,15.5,12.1,22c3.3,4.8,11.2,15.6,15.5,19.1l0.4,0.5l0.2,0.1l-0.2-0.1l-0.4-0.5
			c-2.8-6.1-4.8-10.8-3.3-18.7c3.4-17.8,23-26.8,39.5-19.3c1.5,0.7,2.5,1.5,3.8,2.1l0.1,0.1l-4.9-5.8c-4.2-4.9-9.5-14.1-12.2-20.1
			c-13.8-30.4-9.5-65.5,10.2-92.3c0.8-1.1,1.5-2.1,2.3-3.1c1.1-1.3,1.8-1.9,2.7-3.2l0.3-0.2l0.3-0.4l0.3-0.4l0.3-0.4l0.4-1
			c-3.1,3.1-11.8,5.4-18.3,4.9c-9.6-0.8-17-6.1-21.5-13.2c-1.5-2.4-2.6-5-3.3-8.2c-0.7-3.4-0.7-7-0.1-10.4c0.6-3.1,2.2-6.2,2.9-8.2
			l0.3-0.5c-0.5,0-0.4-0.1-0.3,0.5L138.1,112z"/>
		<path class="st5" d="M139,309.7l0.4,0.5l0.2,0.1c0.2,0.3,0.3,0.6,0.5,0.9c27.6,28.2,66.6,45.9,109.9,45.9c3.6,0,7.1-0.1,10.6-0.4
			c1.6-0.6,3.6-1.3,5.9-2.8c21.6-14.5,13.3-45.3-11.2-49.2c-8.9-0.6-16.1-0.6-24.8-2.4c-13.4-2.8-26.9-8.8-37.3-16.5L179,273.8
			c-1.3-0.6-2.2-1.4-3.8-2.1c-16.4-7.5-36.1,1.5-39.5,19.3C134.2,298.9,136.2,303.7,139,309.7z"/>
		<path class="st6" d="M178.5,147.9l-0.3,0.4l-0.3,0.4l-0.3,0.4l-0.3,0.2l0.3-0.2l0.3-0.4l0.3-0.4L178.5,147.9l10.5-9.4
			c1.8-1.3,1.2-1.3,3.9-3c6.5-4.3,8.4-6.4,17-10.1c19.5-8.5,26.1-7.5,45.6-9.2c5.9-1.7,11.9-3.2,16.4-8.6c6.5-7.7,9.4-17.5,5.2-27.8
			c-1.1-2.7-3.3-6.1-4.9-7.7c-3.3-3.4-8.6-7.5-13.9-8.6c-2.7-0.1-5.5-0.2-8.3-0.2c-33.9,0-65.2,10.8-90.5,29.1
			c-0.6,0.5-1.1,0.9-1.8,1.4c-4.7,3.3-16.2,12.9-18.8,17.6l-0.3,0.5c-0.6,2-2.2,5.1-2.9,8.2c-0.7,3.4-0.7,7,0.1,10.4
			c0.7,3.2,1.8,5.8,3.3,8.2c4.5,7.2,11.9,12.4,21.5,13.2c6.6,0.5,15.2-1.8,18.3-4.9L178.5,147.9L178.5,147.9z M137.7,112.2l-0.3,0.4
			l-0.3,0.4l-0.3,0.2l0.3-0.2l0.3-0.4L137.7,112.2l0.4-0.2L137.7,112.2z"/>
	</g>
	<path class="st7" d="M79.6,436.3l-10.9-41.5h5.7l6.2,27.2c0.7,2.9,1.3,5.7,1.8,8.5c1.1-4.4,1.7-7,1.9-7.7l7.9-28.1h6.6l6,21
		c1.5,5.2,2.5,10.1,3.2,14.7c0.6-2.6,1.3-5.6,2.1-9l6.5-26.7h5.5l-11.4,41.5h-5.3l-8.7-31.7c-0.7-2.6-1.2-4.3-1.3-4.9
		c-0.5,1.9-0.9,3.5-1.3,4.9l-8.7,31.7H79.6L79.6,436.3z M146.1,426.5l5.3,0.7c-0.8,3.1-2.4,5.5-4.6,7.1c-2.2,1.7-5.1,2.5-8.6,2.5
		c-4.4,0-7.9-1.4-10.4-4.1c-2.6-2.7-3.9-6.5-3.9-11.4c0-5,1.3-9,3.9-11.8c2.6-2.8,6-4.2,10.1-4.2c4,0,7.3,1.4,9.8,4.1
		c2.5,2.7,3.8,6.6,3.8,11.5c0,0.3,0,0.8,0,1.4h-22.4c0.2,3.3,1.1,5.8,2.8,7.6c1.7,1.8,3.8,2.6,6.3,2.6c1.9,0,3.5-0.5,4.8-1.5
		C144.3,430.3,145.3,428.7,146.1,426.5L146.1,426.5z M129.4,418.3h16.8c-0.2-2.5-0.9-4.4-1.9-5.7c-1.6-2-3.7-2.9-6.3-2.9
		c-2.3,0-4.3,0.8-5.9,2.4C130.4,413.6,129.5,415.7,129.4,418.3L129.4,418.3z M162.5,436.3h-4.8v-41.5h5.1v14.8c2.2-2.7,4.9-4,8.2-4
		c1.8,0,3.6,0.4,5.3,1.1c1.7,0.7,3,1.8,4.1,3.1c1.1,1.4,1.9,3,2.5,4.9c0.6,1.9,0.9,3.9,0.9,6.1c0,5.1-1.3,9.1-3.8,11.9
		c-2.6,2.8-5.6,4.2-9.2,4.2c-3.5,0-6.3-1.5-8.4-4.4V436.3L162.5,436.3z M162.5,421c0,3.6,0.5,6.2,1.5,7.8c1.6,2.6,3.8,3.9,6.5,3.9
		c2.2,0,4.2-1,5.8-2.9c1.6-1.9,2.4-4.8,2.4-8.6c0-3.9-0.8-6.8-2.3-8.7c-1.6-1.9-3.4-2.8-5.6-2.8c-2.2,0-4.2,1-5.8,2.9
		C163.3,414.5,162.5,417.3,162.5,421L162.5,421z M210.6,426.5l5.3,0.7c-0.8,3.1-2.4,5.5-4.6,7.1c-2.2,1.7-5.1,2.5-8.6,2.5
		c-4.4,0-7.9-1.4-10.4-4.1c-2.6-2.7-3.9-6.5-3.9-11.4c0-5,1.3-9,3.9-11.8c2.6-2.8,6-4.2,10.1-4.2c4,0,7.3,1.4,9.8,4.1
		c2.5,2.7,3.8,6.6,3.8,11.5c0,0.3,0,0.8,0,1.4h-22.4c0.2,3.3,1.1,5.8,2.8,7.6c1.7,1.8,3.8,2.6,6.3,2.6c1.9,0,3.5-0.5,4.8-1.5
		C208.8,430.3,209.8,428.7,210.6,426.5L210.6,426.5z M193.9,418.3h16.8c-0.2-2.5-0.9-4.4-1.9-5.7c-1.6-2-3.7-2.9-6.3-2.9
		c-2.3,0-4.3,0.8-5.9,2.4C195,413.6,194.1,415.7,193.9,418.3L193.9,418.3z M218.9,436.3l11-15.6l-10.2-14.5h6.3l4.8,7.1
		c0.9,1.3,1.6,2.4,2.1,3.3c0.9-1.2,1.6-2.3,2.3-3.3l5-7.1h6.2l-10.2,14.5l10.9,15.6h-6.2l-6.2-9.3l-1.4-2.2l-8,11.5H218.9
		L218.9,436.3z M277.6,436.3v-36.7H264v-4.9h32.9v4.9h-13.7v36.7H277.6L277.6,436.3z M316,426.5c-0.8,2.2-1.8,3.7-3.1,4.7
		c-1.3,1-2.9,1.5-4.8,1.5c-2.5,0-4.6-0.9-6.3-2.6c-1.7-1.8-2.6-4.3-2.8-7.6h22.4c0-0.6,0-1.1,0-1.4c0-5-1.3-8.8-3.8-11.5
		c-2.5-2.7-5.8-4.1-9.8-4.1c-4.1,0-7.5,1.4-10.1,4.2c-2.6,2.8-3.9,6.7-3.9,11.8c0,4.9,1.3,8.7,3.9,11.4c2.6,2.7,6.1,4.1,10.4,4.1
		c3.5,0,6.4-0.9,8.6-2.5c2.2-1.7,3.8-4.1,4.6-7.1L316,426.5L316,426.5z M299.3,418.3c0.2-2.6,1.1-4.7,2.6-6.3
		c1.6-1.6,3.6-2.4,5.9-2.4c2.6,0,4.7,1,6.3,2.9c1.1,1.3,1.7,3.2,1.9,5.7H299.3L299.3,418.3z M347.4,432.5c-1.9,1.6-3.7,2.7-5.5,3.4
		c-1.8,0.7-3.6,1-5.6,1c-3.3,0-5.9-0.8-7.6-2.4c-1.8-1.6-2.7-3.7-2.7-6.2c0-1.5,0.3-2.8,1-4c0.7-1.2,1.6-2.2,2.6-2.9
		c1.1-0.7,2.3-1.3,3.7-1.7c1-0.3,2.5-0.5,4.5-0.8c4.1-0.5,7.2-1.1,9.1-1.8c0-0.7,0-1.1,0-1.3c0-2.1-0.5-3.5-1.5-4.4
		c-1.3-1.2-3.2-1.7-5.8-1.7c-2.4,0-4.2,0.4-5.3,1.3c-1.2,0.8-2,2.3-2.5,4.5l-5-0.7c0.5-2.1,1.2-3.9,2.2-5.2c1-1.3,2.6-2.3,4.5-3
		c2-0.7,4.3-1.1,6.8-1.1c2.6,0,4.7,0.3,6.3,0.9c1.6,0.6,2.8,1.4,3.5,2.3c0.8,0.9,1.3,2.1,1.6,3.5c0.2,0.9,0.3,2.4,0.3,4.7v6.8
		c0,4.7,0.1,7.7,0.3,9c0.2,1.3,0.6,2.5,1.2,3.6h-5.3C347.9,435.2,347.5,433.9,347.4,432.5L347.4,432.5z M347,421.2
		c-1.9,0.8-4.6,1.4-8.4,1.9c-2.1,0.3-3.6,0.6-4.5,1c-0.9,0.4-1.5,0.9-2,1.6c-0.5,0.7-0.7,1.5-0.7,2.4c0,1.3,0.5,2.5,1.5,3.4
		c1,0.9,2.5,1.4,4.5,1.4c2,0,3.7-0.4,5.3-1.3c1.5-0.9,2.7-2,3.4-3.5c0.6-1.2,0.8-2.8,0.8-5.1L347,421.2L347,421.2z M360,436.3v-30.1
		h4.6v4.3c0.9-1.5,2.2-2.7,3.8-3.5c1.6-0.9,3.3-1.3,5.3-1.3c2.2,0,4.1,0.5,5.5,1.4c1.4,0.9,2.4,2.2,3,3.9c2.4-3.5,5.5-5.3,9.3-5.3
		c3,0,5.3,0.8,6.9,2.5c1.6,1.7,2.4,4.2,2.4,7.6v20.6h-5.1v-19c0-2-0.2-3.5-0.5-4.4c-0.3-0.9-0.9-1.6-1.8-2.2
		c-0.9-0.6-1.9-0.8-3.1-0.8c-2.1,0-3.9,0.7-5.3,2.1c-1.4,1.4-2.1,3.7-2.1,6.8v17.5h-5.1v-19.5c0-2.3-0.4-4-1.2-5.1
		c-0.8-1.1-2.2-1.7-4.1-1.7c-1.4,0-2.8,0.4-4,1.1c-1.2,0.8-2.1,1.9-2.6,3.3c-0.5,1.5-0.8,3.5-0.8,6.3v15.6H360L360,436.3z
		 M406.3,427.3l5-0.8c0.3,2,1.1,3.6,2.4,4.7c1.3,1.1,3.1,1.6,5.4,1.6c2.4,0,4.1-0.5,5.2-1.4c1.1-0.9,1.7-2.1,1.7-3.4
		c0-1.2-0.5-2.1-1.5-2.7c-0.7-0.5-2.5-1-5.2-1.7c-3.7-0.9-6.3-1.8-7.8-2.4c-1.4-0.7-2.5-1.6-3.3-2.9c-0.7-1.2-1.1-2.6-1.1-4
		c0-1.3,0.3-2.6,0.9-3.7c0.6-1.1,1.5-2.1,2.5-2.8c0.8-0.6,1.9-1.1,3.2-1.5c1.4-0.4,2.8-0.6,4.4-0.6c2.4,0,4.4,0.3,6.2,1
		c1.8,0.7,3.1,1.6,4,2.8c0.8,1.2,1.4,2.7,1.8,4.7l-5,0.7c-0.2-1.6-0.9-2.8-2-3.7c-1.1-0.9-2.6-1.3-4.6-1.3c-2.3,0-4,0.4-5,1.2
		c-1,0.8-1.5,1.7-1.5,2.7c0,0.7,0.2,1.3,0.6,1.8c0.4,0.5,1.1,1,2,1.4c0.5,0.2,2,0.6,4.5,1.3c3.6,1,6.1,1.8,7.5,2.4
		c1.4,0.6,2.6,1.5,3.4,2.7c0.8,1.2,1.2,2.6,1.2,4.4c0,1.7-0.5,3.3-1.5,4.8c-1,1.5-2.4,2.7-4.3,3.5c-1.9,0.8-4,1.2-6.4,1.2
		c-3.9,0-6.9-0.8-8.9-2.4C408.2,432.9,406.9,430.5,406.3,427.3z"/>
</g>
</svg>
