<?xml version="1.0" encoding="utf-8"?>
<!-- Generator: Adobe Illustrator 26.0.0, SVG Export Plug-In . SVG Version: 6.00 Build 0)  -->
<svg version="1.1" id="Layer_1" xmlns="http://www.w3.org/2000/svg" xmlns:xlink="http://www.w3.org/1999/xlink" x="0px" y="0px"
	 viewBox="0 0 500 500" style="enable-background:new 0 0 500 500;" xml:space="preserve">
<style type="text/css">
	.st0{fill:#00ADEF;}
</style>
<g>
	<path class="st0" d="M114.4,124.3l111.2-15.1l0,107.3l-111.2,0.6L114.4,124.3z M225.6,228.8l0.1,107.4l-111.2-15.3l0-92.8
		L225.6,228.8z M239.1,107.2l147.5-21.5v129.4l-147.5,1.2L239.1,107.2z M386.6,229.8l0,128.8l-147.5-20.8l-0.2-108.3L386.6,229.8z"
		/>
	<g>
		<path class="st0" d="M84.3,414l-6.4-25.2h3.4l3,12.8c0.7,3.1,1.4,6.3,1.9,8.7h0.1c0.4-2.5,1.2-5.5,2.1-8.8l3.4-12.7h3.4l3.1,12.8
			c0.7,3,1.4,6,1.8,8.7h0.1c0.5-2.8,1.2-5.6,2-8.7l3.3-12.7h3.3l-7.2,25.2h-3.4L95,400.8c-0.8-3.2-1.3-5.7-1.6-8.2h-0.1
			c-0.4,2.5-1,5-1.9,8.2L87.7,414H84.3z"/>
		<path class="st0" d="M114.8,390.7c0,1.1-0.8,2-2.1,2c-1.2,0-2-0.9-2-2c0-1.2,0.9-2.1,2.1-2.1C114,388.7,114.8,389.6,114.8,390.7z
			 M111.1,414v-18.1h3.3V414H111.1z"/>
		<path class="st0" d="M119.9,400.7c0-1.9,0-3.4-0.1-4.9h2.9l0.2,3h0.1c0.9-1.7,3-3.4,6-3.4c2.5,0,6.4,1.5,6.4,7.7V414H132v-10.5
			c0-2.9-1.1-5.4-4.2-5.4c-2.2,0-3.9,1.5-4.4,3.4c-0.1,0.4-0.2,1-0.2,1.5V414h-3.3V400.7z"/>
		<path class="st0" d="M156.4,387.4v21.9c0,1.6,0,3.4,0.1,4.7h-3l-0.1-3.1h-0.1c-1,2-3.2,3.6-6.2,3.6c-4.4,0-7.8-3.7-7.8-9.2
			c0-6,3.7-9.7,8.1-9.7c2.8,0,4.6,1.3,5.5,2.8h0.1v-10.8H156.4z M153.1,403.2c0-0.4,0-1-0.2-1.4c-0.5-2.1-2.3-3.8-4.8-3.8
			c-3.4,0-5.4,3-5.4,7c0,3.7,1.8,6.7,5.4,6.7c2.2,0,4.2-1.5,4.8-3.9c0.1-0.4,0.2-0.9,0.2-1.4V403.2z"/>
		<path class="st0" d="M178.2,404.7c0,6.7-4.6,9.6-9,9.6c-4.9,0-8.7-3.6-8.7-9.3c0-6.1,4-9.6,9-9.6
			C174.7,395.4,178.2,399.2,178.2,404.7z M163.8,404.9c0,4,2.3,7,5.5,7c3.1,0,5.5-3,5.5-7c0-3.1-1.5-7-5.4-7
			C165.5,397.9,163.8,401.5,163.8,404.9z"/>
		<path class="st0" d="M183.4,395.8l2.4,9.2c0.5,2,1,3.9,1.3,5.8h0.1c0.4-1.8,1-3.8,1.6-5.7l3-9.3h2.8l2.8,9.1
			c0.7,2.2,1.2,4.1,1.6,5.9h0.1c0.3-1.8,0.8-3.7,1.4-5.9l2.6-9.1h3.3l-5.8,18.1h-3l-2.8-8.7c-0.6-2-1.2-3.8-1.6-6h-0.1
			c-0.4,2.2-1,4-1.6,6l-2.9,8.6h-3l-5.5-18.1H183.4z"/>
		<path class="st0" d="M209,410.6c1,0.6,2.7,1.3,4.3,1.3c2.4,0,3.5-1.2,3.5-2.7c0-1.6-0.9-2.4-3.4-3.3c-3.3-1.2-4.8-3-4.8-5.1
			c0-2.9,2.4-5.3,6.3-5.3c1.8,0,3.4,0.5,4.5,1.1l-0.8,2.4c-0.7-0.4-2-1-3.7-1c-1.9,0-3,1.1-3,2.5c0,1.5,1.1,2.2,3.4,3.1
			c3.1,1.2,4.8,2.8,4.8,5.5c0,3.2-2.5,5.4-6.8,5.4c-2,0-3.8-0.5-5.1-1.2L209,410.6z"/>
		<path class="st0" d="M232.2,400.7c0-1.9,0-3.4-0.2-4.9h2.9l0.2,3h0.1c0.9-1.7,3-3.4,6-3.4c2.5,0,6.4,1.5,6.4,7.7V414h-3.3v-10.5
			c0-2.9-1.1-5.4-4.2-5.4c-2.2,0-3.9,1.5-4.4,3.4c-0.1,0.4-0.2,1-0.2,1.5V414h-3.3V400.7z"/>
		<path class="st0" d="M269.4,404.7c0,6.7-4.6,9.6-9,9.6c-4.9,0-8.7-3.6-8.7-9.3c0-6.1,4-9.6,9-9.6
			C265.9,395.4,269.4,399.2,269.4,404.7z M255,404.9c0,4,2.3,7,5.5,7c3.1,0,5.5-3,5.5-7c0-3.1-1.5-7-5.4-7
			C256.7,397.9,255,401.5,255,404.9z"/>
		<path class="st0" d="M277.5,390.6v5.2h4.7v2.5h-4.7v9.8c0,2.2,0.6,3.5,2.5,3.5c0.9,0,1.5-0.1,1.9-0.2l0.2,2.5
			c-0.6,0.3-1.6,0.4-2.9,0.4c-1.5,0-2.8-0.5-3.6-1.4c-0.9-1-1.3-2.6-1.3-4.7v-9.9h-2.8v-2.5h2.8v-4.3L277.5,390.6z"/>
		<path class="st0" d="M289.6,390.7c0,1.1-0.8,2-2.1,2c-1.2,0-2-0.9-2-2c0-1.2,0.9-2.1,2.1-2.1C288.9,388.7,289.6,389.6,289.6,390.7
			z M286,414v-18.1h3.3V414H286z"/>
		<path class="st0" d="M295.1,414v-15.6h-2.5v-2.5h2.5v-1c0-4.8,2.8-7.9,7.9-7.9c1.7,0,3.7,0.5,4.6,1.2l-0.9,2.5
			c-0.8-0.6-2.2-1-3.8-1c-3.5,0-4.5,2.4-4.5,5.3v0.9h10.5V414h-3.3v-15.6h-7.3V414H295.1z"/>
		<path class="st0" d="M327.2,413.3c-0.9,0.4-2.8,1-5.2,1c-5.5,0-9-3.7-9-9.3c0-5.6,3.8-9.6,9.7-9.6c1.9,0,3.7,0.5,4.6,0.9l-0.7,2.5
			c-0.8-0.4-2-0.9-3.8-0.9c-4.2,0-6.4,3.1-6.4,6.9c0,4.2,2.7,6.8,6.3,6.8c1.9,0,3.1-0.5,4-0.9L327.2,413.3z"/>
		<path class="st0" d="M341.1,414l-0.3-2.3h-0.1c-1,1.4-3,2.7-5.5,2.7c-3.7,0-5.5-2.6-5.5-5.2c0-4.4,3.9-6.8,10.9-6.7V402
			c0-1.5-0.4-4.2-4.1-4.2c-1.7,0-3.4,0.5-4.7,1.3L331,397c1.5-1,3.7-1.6,6-1.6c5.5,0,6.9,3.8,6.9,7.4v6.8c0,1.6,0.1,3.1,0.3,4.3
			H341.1z M340.7,404.7c-3.6-0.1-7.7,0.6-7.7,4.1c0,2.1,1.4,3.1,3.1,3.1c2.4,0,3.9-1.5,4.4-3c0.1-0.3,0.2-0.7,0.2-1V404.7z"/>
		<path class="st0" d="M353,390.6v5.2h4.7v2.5H353v9.8c0,2.2,0.6,3.5,2.5,3.5c0.9,0,1.5-0.1,1.9-0.2l0.2,2.5
			c-0.6,0.3-1.6,0.4-2.9,0.4c-1.5,0-2.8-0.5-3.6-1.4c-0.9-1-1.3-2.6-1.3-4.7v-9.9h-2.8v-2.5h2.8v-4.3L353,390.6z"/>
		<path class="st0" d="M365.1,390.7c0,1.1-0.8,2-2.1,2c-1.2,0-2-0.9-2-2c0-1.2,0.9-2.1,2.1-2.1C364.3,388.7,365.1,389.6,365.1,390.7
			z M361.4,414v-18.1h3.3V414H361.4z"/>
		<path class="st0" d="M386.6,404.7c0,6.7-4.6,9.6-9,9.6c-4.9,0-8.7-3.6-8.7-9.3c0-6.1,4-9.6,9-9.6
			C383,395.4,386.6,399.2,386.6,404.7z M372.2,404.9c0,4,2.3,7,5.5,7c3.1,0,5.5-3,5.5-7c0-3.1-1.5-7-5.4-7
			C373.9,397.9,372.2,401.5,372.2,404.9z"/>
		<path class="st0" d="M390.7,400.7c0-1.9,0-3.4-0.2-4.9h2.9l0.2,3h0.1c0.9-1.7,3-3.4,6-3.4c2.5,0,6.4,1.5,6.4,7.7V414h-3.3v-10.5
			c0-2.9-1.1-5.4-4.2-5.4c-2.2,0-3.9,1.5-4.4,3.4c-0.1,0.4-0.2,1-0.2,1.5V414h-3.3V400.7z"/>
		<path class="st0" d="M411.1,410.6c1,0.6,2.7,1.3,4.3,1.3c2.4,0,3.5-1.2,3.5-2.7c0-1.6-0.9-2.4-3.4-3.3c-3.3-1.2-4.8-3-4.8-5.1
			c0-2.9,2.4-5.3,6.3-5.3c1.8,0,3.4,0.5,4.5,1.1l-0.8,2.4c-0.7-0.4-2-1-3.7-1c-1.9,0-3,1.1-3,2.5c0,1.5,1.1,2.2,3.4,3.1
			c3.1,1.2,4.8,2.8,4.8,5.5c0,3.2-2.5,5.4-6.8,5.4c-2,0-3.8-0.5-5.1-1.2L411.1,410.6z"/>
	</g>
</g>
</svg>
