<?xml version="1.0" encoding="utf-8"?>
<!-- Generator: Adobe Illustrator 26.0.0, SVG Export Plug-In . SVG Version: 6.00 Build 0)  -->
<svg version="1.1" id="Layer_1" xmlns="http://www.w3.org/2000/svg" xmlns:xlink="http://www.w3.org/1999/xlink" x="0px" y="0px"
	 viewBox="0 0 500 500" style="enable-background:new 0 0 500 500;" xml:space="preserve">
<style type="text/css">
	.st0{fill-rule:evenodd;clip-rule:evenodd;}
</style>
<g>
	<path class="st0" d="M458.2,180.9c-0.3-22-87-33.4-182.4-38.5c-102.3-5.4-213.4-3.5-225,1.7c-17,7.6-7.8,66,10.6,119.2
		c17,49.1,42.1,93.6,64.2,96.4c28.7,3.7,93-2.7,153.6-11.7c58.8-8.7,114.8-20.1,134.3-27.6c11.1-4.3,22.3-22.5,30.5-47.4
		C452.7,247.3,458.6,213.8,458.2,180.9L458.2,180.9L458.2,180.9z M429.6,272.4c-7.7,23.1-18,40.1-28.4,44.1
		c-18.1,7-70.2,17.5-124.8,25.6c-56.3,8.4-116,14.3-142.7,10.9c-20.6-2.6-43.8-44-59.6-89.5C57,214,48.5,159.7,64.3,152.7
		c10.8-4.8,114-6.6,208.9-1.6c88.6,4.7,169.1,15.3,169.4,35.7C443,217.4,437.5,248.5,429.6,272.4z"/>
	<g>
		<polygon class="st0" points="103.5,286.6 103.5,272.7 105.3,272.7 111,280.9 116.7,272.7 118.4,272.7 118.4,286.6 116.3,286.6 
			116.3,276.6 111,284.4 105.6,276.6 105.6,286.6 103.5,286.6 		"/>
		<polygon class="st0" points="135.4,286.6 135.4,272.7 148.4,272.7 148.4,274.8 137.5,274.8 137.5,278.2 144.7,278.2 144.7,280.2 
			137.5,280.2 137.5,284.6 149,284.6 149,286.6 		"/>
		<path class="st0" d="M164.3,272.8v13.8h6.2c2.3,0,4.1-0.6,5.5-1.9c1.4-1.2,2.1-2.9,2.1-5c0-2.1-0.7-3.8-2.1-5.1
			c-1.4-1.3-3.2-1.9-5.5-1.9L164.3,272.8L164.3,272.8L164.3,272.8z M166.5,274.7h4c1.6,0,2.9,0.5,3.8,1.4c1,0.9,1.5,2.1,1.5,3.6
			c0,1.5-0.5,2.7-1.4,3.6c-0.9,0.9-2.2,1.3-3.9,1.3l-4,0V274.7z"/>
		<rect x="193.6" y="272.7" class="st0" width="2.2" height="13.9"/>
		<path class="st0" d="M217.2,272.8l-7.1,13.8h2.3l1.8-3.5h7.4l1.8,3.5h2.3l-7.1-13.8H217.2L217.2,272.8z M217.8,276l2.7,5.3h-5.4
			L217.8,276z"/>
		<path class="st0" d="M265.6,283.2c-0.8,1.2-1.8,2.2-3.1,2.8c-1.3,0.7-2.7,1-4.4,1c-2.4,0-4.5-0.7-6-2.1c-1.6-1.4-2.4-3.1-2.4-5.3
			c0-2.1,0.8-3.9,2.4-5.3c1.6-1.4,3.6-2.1,6-2.1c1.5,0,2.9,0.3,4.1,0.9c1.2,0.6,2.2,1.4,3,2.4l-1.7,1.2c-0.6-0.8-1.3-1.4-2.3-1.8
			c-0.9-0.4-2-0.6-3.1-0.6c-1.8,0-3.3,0.5-4.4,1.5c-1.2,1-1.7,2.3-1.7,3.8c0,1.5,0.6,2.8,1.7,3.8c1.2,1,2.6,1.5,4.4,1.5
			c1.2,0,2.3-0.2,3.3-0.7c0.9-0.5,1.8-1.3,2.5-2.3L265.6,283.2z"/>
		<polygon class="st0" points="281.5,286.6 281.5,272.7 294.5,272.7 294.5,274.8 283.6,274.8 283.6,278.2 290.7,278.2 290.7,280.2 
			283.6,280.2 283.6,284.6 295.1,284.6 295.1,286.6 281.5,286.6 		"/>
		<polygon class="st0" points="310.4,286.6 310.4,272.7 311.5,272.7 320.3,282.5 320.3,272.7 322.5,272.7 322.5,286.6 321.3,286.6 
			312.5,276.9 312.5,286.6 310.4,286.6 		"/>
		<polygon class="st0" points="342.6,286.6 342.6,274.7 336.8,274.7 336.8,272.7 350.7,272.7 350.7,274.7 344.8,274.7 344.8,286.6 
					"/>
		<polygon class="st0" points="365,286.6 365,272.7 378,272.7 378,274.8 367.2,274.8 367.2,278.2 374.3,278.2 374.3,280.2 
			367.2,280.2 367.2,284.6 378.6,284.6 378.6,286.6 		"/>
		<path class="st0" d="M393.9,272.8v13.8h2.2v-6.1h6.1l3.9,6.1h2.4l-3.9-6.1c1-0.2,1.9-0.6,2.5-1.3c0.6-0.7,1-1.6,1-2.6
			c0-1.2-0.4-2.2-1.2-2.9c-0.8-0.7-1.9-1-3.3-1L393.9,272.8L393.9,272.8L393.9,272.8z M396.1,274.8h7.4c0.7,0,1.3,0.2,1.7,0.5
			c0.4,0.3,0.6,0.8,0.6,1.4c0,0.6-0.2,1.1-0.6,1.4c-0.4,0.3-1,0.5-1.7,0.5l-7.4,0V274.8z"/>
	</g>
	<path class="st0" d="M406.3,194c-9.2,0-17.7,3.3-25.4,9.8c-3.7,3.3-6.7,6.9-8.9,10.8c-1.1-3.9-3-7.5-5.8-10.8
		c-5.7-6.6-13.2-9.8-22.6-9.8c-5.2,0-10.3,1.2-15.4,3.6c-5.1,2.4-9.6,5.5-13.4,9.6c-2.7-4.1-6.3-7.4-10.7-9.7
		c-4.4-2.3-9.2-3.5-14.5-3.5c-9.2,0-17.8,3.3-25.4,9.8c-5.7,5-9.7,10.6-11.9,17c-0.3-6.5-2.6-12.1-6.9-17
		c-5.8-6.5-13.4-9.8-22.8-9.8l-19.9,0l0.4-2.6c0.5-3.8-0.3-7.2-2.7-10c-2.3-2.8-5.5-4.2-9.4-4.2l-2.5,17.2h-15.1
		c-9.2,0-17.7,3.3-25.5,9.7c-2,1.7-3.9,3.5-5.5,5.4c-0.9-1.9-2.1-3.7-3.5-5.4c-5.3-6.5-12.6-9.7-21.8-9.7H97.5
		c-0.7,3.6,0,6.7,2.1,9.3c2.1,2.6,4.9,3.9,8.6,3.9l6.4,0c5.5,0,9.7,2,12.8,5.9c3.1,4,4.1,8.7,3.1,14.2c-1,5.5-3.8,10.1-8.4,14
		c-4.6,3.9-9.7,5.9-15.1,5.9h-6.4c-3.7,0-7,1.3-10.1,3.8c-3.1,2.6-4.9,5.7-5.6,9.3h19.6c9.2,0,17.6-3.2,25.5-9.6
		c2.1-1.7,3.9-3.5,5.5-5.4c0.9,1.9,2.1,3.7,3.5,5.4c5.4,6.4,12.6,9.6,21.8,9.6h19.6c0.7-3.7,0-6.7-2.1-9.3c-2.1-2.6-5-3.8-8.6-3.8
		h-6.3c-5.5,0-9.8-2-12.9-5.9c-3.1-3.9-4.1-8.6-3.1-14c1-5.5,3.9-10.2,8.5-14.2c4.6-3.9,9.7-5.9,15.1-5.9h6.4c3.6,0,6.8-1.3,9.9-3.7
		l-3.5,23.6c-1.4,9.3,0.8,17.2,6.6,23.8c5.6,6.6,13.3,9.9,22.5,9.9c9.4,0,17.9-3.3,25.6-9.9c4.9-4.2,8.5-9,10.8-14.4l-3.6,24.3
		c4,0,7.5-1.3,10.6-4.1c3.2-2.7,5-6.1,5.6-10l2.8-19.4c0.8-5.6,3.5-10.4,7.9-14.4c4.5-4,9.4-5.9,15-5.9c5.6,0,10,2,13.3,5.9
		c3.2,4,4.4,8.8,3.6,14.4l-2.8,19.4c-0.6,3.9,0.4,7.1,2.8,9.9c2.4,2.8,5.4,4.2,9.3,4.2l4.9-33.5c0.8-5.6,3.4-10.4,7.9-14.4
		c4.4-4,9.5-5.9,15-5.9c5.6,0,9.9,2,13.2,5.9c3.2,4,4.5,8.8,3.7,14.4l-2.9,19.4c-0.6,3.9,0.4,7.1,2.8,9.9c2.4,2.8,5.4,4.2,9.3,4.2
		l2.3-15.7c1,2.1,2.4,4,4,5.9c5.8,6.6,13.3,9.8,22.5,9.8h19.9c0.5-3.7-0.3-6.9-2.5-9.5c-2.2-2.6-5.2-3.9-8.9-3.9l-6.5,0
		c-5.6,0-10-2-13.3-6c-3.4-3.9-4.6-8.7-3.8-14.2c0.8-5.6,3.5-10.4,8-14.4c4.5-4,9.5-5.9,15-5.9h6.4c3.7,0,7.1-1.4,10.1-4
		c3-2.6,4.7-5.7,5.2-9.4L406.3,194L406.3,194L406.3,194z M237.6,227.6c-0.8,5.5-3.4,10.3-7.8,14.3c-4.4,4-9.4,6.1-15,6.1
		c-5.5,0-10-2-13.3-6.1c-3.3-4-4.5-8.7-3.7-14.3l2.9-20.2l20,0c5.6,0,10,1.9,13.3,5.9C237.2,217.2,238.4,222,237.6,227.6
		L237.6,227.6z"/>
</g>
</svg>
