<?xml version="1.0" encoding="utf-8"?>
<!-- Generator: Adobe Illustrator 26.0.0, SVG Export Plug-In . SVG Version: 6.00 Build 0)  -->
<svg version="1.1" id="Layer_1" xmlns="http://www.w3.org/2000/svg" xmlns:xlink="http://www.w3.org/1999/xlink" x="0px" y="0px"
	 viewBox="0 0 500 500" style="enable-background:new 0 0 500 500;" xml:space="preserve">
<style type="text/css">
	.st0{fill:#0000FF;}
	.st1{fill:#D40000;}
</style>
<g id="layer1_00000155833801625915334800000000843121053833445013_" transform="translate(-91.597656,-245.52011)">
	<path id="flowRoot2411_00000158746281273861854110000008959123452513621909_" class="st0" d="M184.3,545.4l-65.2-28.3v-15.7
		l65.2-28.2v18.5L138.9,509l45.5,18V545.4z"/>
	<path id="flowRoot2419_00000181056729496201420650000005218522498626738853_" class="st1" d="M199.2,543.3l24.8-35.5l-23.8-33.4
		h22.2l12.2,18.9l12.8-18.9h21.4L245.5,507l25.5,36.2h-22.4l-14-21.3l-14.1,21.3H199.2z M280.5,474.4h16.8v9.4
		c6-7.3,13.2-11,21.5-11c4.4,0,8.2,0.9,11.5,2.7c3.2,1.8,5.9,4.6,8,8.2c3-3.7,6.3-6.4,9.8-8.2c3.5-1.8,7.2-2.7,11.2-2.7
		c5.1,0,9.3,1,12.8,3.1c3.5,2.1,6.1,5.1,7.8,9c1.3,2.9,1.9,7.7,1.9,14.3v44h-18.2v-39.4c0-6.8-0.6-11.2-1.9-13.2
		c-1.7-2.6-4.3-3.9-7.8-3.9c-2.6,0-4.9,0.8-7.2,2.3c-2.2,1.6-3.9,3.8-4.9,6.8c-1,3-1.5,7.7-1.5,14.2v33.1h-18.2v-37.7
		c0-6.7-0.3-11-1-13c-0.6-1.9-1.7-3.4-3-4.3c-1.4-1-3.2-1.4-5.5-1.4c-2.8,0-5.3,0.8-7.6,2.3c-2.2,1.5-3.9,3.7-4.8,6.5
		c-1,2.9-1.5,7.6-1.5,14.2v33.5h-18.2V474.4z M399.8,543.3v-95H418v95H399.8z"/>
	<path id="flowRoot2429_00000044171477108869027510000004917335950635454647_" class="st0" d="M455.7,543.9l23.5-98.3h13.7
		l-23.8,98.3H455.7z"/>
	<path id="text2439_00000041271187084091855330000018329118686601053064_" class="st0" d="M498.8,545.4V527l45.5-17.9l-45.5-17.7
		v-18.2l65.2,28.2V517L498.8,545.4z"/>
</g>
</svg>
