<?xml version="1.0" encoding="utf-8"?>
<!-- Generator: Adobe Illustrator 26.0.0, SVG Export Plug-In . SVG Version: 6.00 Build 0)  -->
<svg version="1.1" id="Layer_1" xmlns="http://www.w3.org/2000/svg" xmlns:xlink="http://www.w3.org/1999/xlink" x="0px" y="0px"
	 viewBox="0 0 500 500" style="enable-background:new 0 0 500 500;" xml:space="preserve">
<style type="text/css">
	.st0{fill:url(#SVGID_1_);}
	.st1{fill:#E96D1F;}
	.st2{fill:#D9541E;}
	.st3{fill:url(#SVGID_00000108273495278626835220000012910604280415137212_);}
	.st4{fill:#A0CE67;}
	.st5{fill:#439639;}
</style>
<g>
	
		<linearGradient id="SVGID_1_" gradientUnits="userSpaceOnUse" x1="-899.5089" y1="184.4857" x2="-899.5089" y2="440.08" gradientTransform="matrix(1 0 0 -1 1196.604 517.369)">
		<stop  offset="1.100000e-02" style="stop-color:#1B3967"/>
		<stop  offset="0.467" style="stop-color:#13B5EA"/>
		<stop  offset="0.9945" style="stop-color:#002B5C"/>
	</linearGradient>
	<path class="st0" d="M354.4,105.9c0.2,2.6-3.6,2-3.6,4.6c0,77.7-93.8,196.2-184.7,219.1v3.3c120.8-11.1,259-136.6,262.1-255.6
		L354.4,105.9L354.4,105.9z"/>
	<path class="st1" d="M317.9,115.4c0.2,2.6,0.2,5.3,0.2,8c0,77.7-61.9,182.3-152.8,205.2v3.3c119-5.6,213.2-127,213.2-220
		c0-4.8-0.3-9.5-0.7-14.2L317.9,115.4L317.9,115.4z"/>
	<path class="st2" d="M378.3,96.6l-15.3,5.5c0.1,1.9,0.1,4.5,0.1,6.5c0,83.1-75.1,197.9-175.8,215.8c-6.5,2.2-15.2,4.2-22,5.9v3.3
		C296.7,322.4,389.1,188.8,378.3,96.6L378.3,96.6z"/>
	
		<linearGradient id="SVGID_00000065764853589349116910000006522541712369422257_" gradientUnits="userSpaceOnUse" x1="-949.3842" y1="184.4867" x2="-949.3842" y2="440.081" gradientTransform="matrix(-1 0 0 -1 -742.788 517.368)">
		<stop  offset="1.100000e-02" style="stop-color:#1B3967"/>
		<stop  offset="0.467" style="stop-color:#13B5EA"/>
		<stop  offset="0.9945" style="stop-color:#002B5C"/>
	</linearGradient>
	<path style="fill:url(#SVGID_00000065764853589349116910000006522541712369422257_);" d="M149.3,105.9c-0.2,2.6,3.6,2,3.6,4.6
		c0,77.7,93.8,196.2,184.7,219.1v3.3C216.8,321.8,78.6,196.3,75.6,77.3L149.3,105.9L149.3,105.9z"/>
	<path class="st4" d="M185.8,115.4c-0.2,2.6-0.2,5.3-0.2,8c0,77.7,61.9,182.3,152.8,205.2v3.3c-119-5.6-213.2-127-213.2-220
		c0-4.8,0.3-9.5,0.7-14.2L185.8,115.4L185.8,115.4z"/>
	<path class="st5" d="M125.3,96.6l15.3,5.5c-0.1,1.9-0.1,4.5-0.1,6.5c0,83.1,75.1,197.9,175.8,215.8c6.5,2.2,15.2,4.2,22,5.9v3.3
		C206.9,322.4,114.6,188.8,125.3,96.6L125.3,96.6z"/>
	<path d="M100.9,393l-27-29.5h23.5l18.4,20.7l18.4-20.7h23.5l-27,29.5l29,29.7h-24.4l-19.5-21.5l-19.5,21.5H71.9L100.9,393
		L100.9,393z"/>
	<path d="M166.4,363.5h27.9l20.5,38.1l20.5-38.1h27.9v59.2h-17.7v-42.5h-0.2l-23.8,42.5H208l-23.8-42.5h-0.2v42.5h-17.7L166.4,363.5
		L166.4,363.5z"/>
	<path d="M275.5,363.5H325c17.2,0,21.4,8.7,21.4,20.3v5.1c0,8.8-3.8,19-16.7,19h-36.1v14.9h-18.1L275.5,363.5L275.5,363.5z
		 M293.7,393.1h28.2c4.2,0,5.9-2.8,5.9-6.3v-2.3c0-4-2-6.3-7.4-6.3h-26.7L293.7,393.1L293.7,393.1z"/>
	<path d="M356.2,363.5h49.5c17.2,0,21.4,8.7,21.4,20.3v5.1c0,8.8-3.8,19-16.7,19h-36.1v14.9h-18.2L356.2,363.5L356.2,363.5z
		 M374.4,393.1h28.2c4.3,0,5.9-2.8,5.9-6.3v-2.3c0-4-2-6.3-7.4-6.3h-26.6V393.1L374.4,393.1z"/>
</g>
</svg>
