<?xml version="1.0" encoding="utf-8"?>
<!-- Generator: Adobe Illustrator 26.0.0, SVG Export Plug-In . SVG Version: 6.00 Build 0)  -->
<svg version="1.1" id="Layer_1" xmlns="http://www.w3.org/2000/svg" xmlns:xlink="http://www.w3.org/1999/xlink" x="0px" y="0px"
	 viewBox="0 0 500 500" style="enable-background:new 0 0 500 500;" xml:space="preserve">
<style type="text/css">
	.st0{fill:#FF0000;}
</style>
<g>
	<path class="st0" d="M94,323.6v-47.6l35-100.9h-14.8l-27.3,80.6L63.1,189H46.9l32.2,86.4v48.1H94z"/>
	<path d="M158.4,305c-2.7,4.1-7.7,7.5-12.8,7.5c-7.5,0-11.1-7.1-11.1-18c0-12.2,4-20.3,22.2-20.3h1.7V305z M172.8,302.1v-44.6
		c0-23-9.3-30.1-26-30.1c-9.6,0-18.2,3.9-22.6,7.5l2.8,13c4.9-4.3,11.3-8.3,18.8-8.3c8.3,0,12.5,5.2,12.5,17.7v5.6h-2.1
		c-26.5,0-36.9,12.8-36.9,33.1c0,18.6,9.3,28.8,22.8,28.8c8.3,0,13.5-3.6,17.7-8.8h0.9c0.2,2.4,0.8,5.5,1.3,7.5h12.4
		C173.8,319,172.8,311.2,172.8,302.1z M205.8,250c3.4-4.7,8.6-9.4,14.8-9.4c5.6,0,8.8,2.4,8.8,9.6v73.4h14.8v-74.7
		c0-14.5-6.6-21.4-19-21.4c-8.8,0-16,5.8-18.6,9.4h-0.9v-8.3h-14.7v95h14.7L205.8,250z M287.6,324.9c7.7,0,13-3.6,17.2-8.8h0.9
		l1.1,7.5h10.9V189H303v42c-2.8-2.1-7.5-3.6-12-3.6c-19.1,0-32.2,17.1-32.2,52.3C258.8,309.1,269,324.9,287.6,324.9z M303,305.2
		c-2.4,3.7-6.4,7.3-13.7,7.3c-10.7,0-14.8-13.5-14.8-35.7c0-19.4,5.6-37.2,17.5-37.2c4.9,0,8.1,1.5,11.1,4.5L303,305.2z
		 M386.8,317.2l-3.4-11.3c-3.7,2.6-9.8,6.4-18,6.4c-11.7,0-17.7-11.3-17.7-32.7h39.5v-8.1c0-32.2-10.3-44-26.1-44
		c-20.1,0-28.6,22.2-28.6,52.7c0,29.2,12.1,44.8,31.6,44.8C373.5,324.9,380.8,321.9,386.8,317.2z M361.1,239.5
		c8.4,0,11.1,11.8,11.1,28h-24.3C348.8,250.6,352,239.5,361.1,239.5z M436.7,228.7l-13,34.4l-12.2-34.4h-15.2l17.9,45.7l-19.8,49.1
		h14.5l14.3-39.1l14.7,39.1h15.3l-19.8-50.4l17.7-44.4H436.7z"/>
</g>
</svg>
