<?xml version="1.0" encoding="utf-8"?>
<!-- Generator: Adobe Illustrator 26.0.0, SVG Export Plug-In . SVG Version: 6.00 Build 0)  -->
<svg version="1.1" id="Layer_1" xmlns="http://www.w3.org/2000/svg" xmlns:xlink="http://www.w3.org/1999/xlink" x="0px" y="0px"
	 viewBox="0 0 500 500" style="enable-background:new 0 0 500 500;" xml:space="preserve">
<style type="text/css">
	.st0{fill:#322965;}
	.st1{fill:#FF6E42;}
	.st2{fill:#ED5735;}
</style>
<g>
	<g id="Group_2_00000088841419438659649400000017072333456069991591_" transform="translate(56.535103 6.040457)">
		<path id="Path_1_00000077293874614712520220000008352522975829693100_" class="st0" d="M-24.8,371.3c-0.3-0.3-0.5-0.7-0.5-1.1
			c0-0.4,0.1-0.8,0.3-1.2l6-14.1l-14.7-34.7c-0.2-0.3-0.3-0.7-0.3-1.1c0-0.4,0.2-0.9,0.5-1.2c0.3-0.3,0.7-0.5,1.1-0.5h6.3
			c0.9,0,1.7,0.6,2,1.5l10.2,24.9l10.3-24.9c0.4-0.9,1.2-1.4,2.1-1.5h6.2c0.4,0,0.8,0.2,1.1,0.5c0.3,0.3,0.5,0.7,0.5,1.1
			c0,0.4-0.1,0.8-0.3,1.2l-21.6,50.1c-0.3,0.9-1.2,1.5-2.1,1.5h-6.1C-24.1,371.8-24.5,371.6-24.8,371.3L-24.8,371.3z"/>
		<path id="Path_2_00000023243494856323853570000001234972506409887416_" class="st0" d="M16.7,353.4c-2.9-3.6-4.3-8.1-4.1-12.6
			v-21.5c0-0.5,0.2-1,0.5-1.3c0.4-0.3,0.8-0.5,1.3-0.5h6.9c0.5,0,1,0.2,1.3,0.5c0.3,0.3,0.5,0.8,0.5,1.3v21c0,6.3,2.7,9.4,8.2,9.4
			c2.4,0.1,4.7-0.8,6.3-2.5c1.6-1.9,2.5-4.4,2.3-6.9v-21c0-0.5,0.2-1,0.5-1.3c0.4-0.3,0.8-0.5,1.3-0.5h6.8c0.5,0,1,0.2,1.3,0.5
			c0.3,0.4,0.5,0.8,0.5,1.3v36.1c0,0.5-0.2,0.9-0.5,1.3c-0.3,0.4-0.8,0.6-1.3,0.5h-6.3c-0.5,0-1-0.2-1.3-0.5
			c-0.4-0.3-0.5-0.8-0.5-1.3v-3.1c-3,3.9-7.8,6.1-12.7,5.7C23.6,358.2,19.6,356.6,16.7,353.4z"/>
		<path id="Path_3_00000132051944133732744240000011754276665039260849_" class="st0" d="M67.6,371.8c-2.4-1.2-4.5-2.9-6-5.2
			c-1-1.5-1.6-3.2-1.8-5c0-0.5,0.2-0.9,0.5-1.3c0.4-0.3,0.8-0.5,1.3-0.5h6.8c0.4,0,0.8,0.1,1.2,0.3c0.4,0.3,0.7,0.8,0.8,1.3
			c0.6,1.3,1.4,2.5,2.5,3.4c1.5,1.1,3.4,1.6,5.2,1.4c2.4,0.2,4.8-0.5,6.7-2c1.6-2,2.4-4.5,2.1-7.1v-5.2c-2.9,3.3-7.3,5.2-11.7,4.9
			c-4.5,0.3-8.9-1.5-12-4.8c-2.9-3.8-4.4-8.4-4.3-13.2l-0.1-2.1l0.1-2.1c0-4.7,1.5-9.4,4.4-13.2c3-3.4,7.4-5.3,11.9-5
			c2.5-0.1,4.9,0.5,7.1,1.5c2,1,3.7,2.4,5,4.1v-3c0-0.5,0.2-1,0.6-1.4c0.4-0.3,0.8-0.5,1.3-0.5h6.3c0.5,0,1,0.2,1.3,0.5
			c0.4,0.4,0.6,0.9,0.5,1.4l0.1,36.9c0.3,4.9-1.4,9.6-4.7,13.2c-4,3.4-9.1,5.1-14.3,4.7C74.8,374.3,71.1,373.5,67.6,371.8
			L67.6,371.8z M84.8,346.1c1.5-1.9,2.3-4.3,2.4-6.7c0-0.4,0.1-1.2,0.1-2.4s0-2-0.1-2.4c-0.1-2.4-0.9-4.8-2.4-6.7
			c-1.6-1.9-4-2.9-6.4-2.8c-5.5,0-8.4,3.4-8.7,10.1l-0.1,1.8c0,8,2.9,11.9,8.8,11.9C80.8,349,83.2,348,84.8,346.1L84.8,346.1z"/>
		<path id="Path_4_00000167392515472486500320000012988953948582293932_" class="st0" d="M112.2,356.5c-2-0.9-3.8-2.4-5.1-4.2
			c-1.2-1.7-1.9-3.8-1.9-5.9c-0.1-3.3,1.5-6.5,4.2-8.4c3.4-2.4,7.4-3.9,11.6-4.4l10.5-1.5v-1.6c0.1-1.8-0.5-3.6-1.7-5
			c-1.5-1.2-3.4-1.9-5.4-1.7c-1.4-0.1-2.8,0.3-4.1,0.9c-0.9,0.5-1.7,1.2-2.5,1.9l-1.3,1.3c-0.1,0.5-0.6,0.9-1.1,0.9h-6
			c-0.4,0-0.9-0.2-1.2-0.5c-0.3-0.3-0.5-0.8-0.5-1.2c0.2-1.6,0.8-3.1,1.9-4.3c1.5-1.8,3.4-3.3,5.5-4.2c2.9-1.3,6.1-1.9,9.3-1.8
			c4.7-0.4,9.5,1,13.2,4.1c2.8,2.8,4.3,6.7,4.1,10.6v24c0,0.5-0.2,0.9-0.5,1.3c-0.3,0.4-0.8,0.6-1.3,0.5h-6.3c-0.5,0-1-0.2-1.3-0.5
			c-0.3-0.3-0.5-0.8-0.5-1.3v-3c-1.2,1.7-2.8,3.1-4.7,4c-2.4,1.1-5,1.7-7.6,1.6C116.9,358,114.4,357.5,112.2,356.5L112.2,356.5z
			 M128.8,347.9c1.9-2.2,2.9-5.1,2.7-8v-1.5l-7.6,1.2c-5.9,0.9-8.8,2.9-8.8,5.9c-0.1,1.5,0.7,3,2,3.8c1.5,0.9,3.1,1.4,4.9,1.3
			C124.5,350.8,127,349.8,128.8,347.9L128.8,347.9z"/>
		<path id="Path_5_00000006708599013969435300000010921950017306108809_" class="st0" d="M161.5,352.6v2.8c0,0.5-0.2,1-0.5,1.3
			c-0.4,0.4-0.9,0.6-1.4,0.5h-6.1c-0.5,0-1-0.2-1.3-0.5c-0.4-0.3-0.5-0.8-0.5-1.3v-50.6c0-0.5,0.2-1,0.5-1.3
			c0.4-0.3,0.8-0.5,1.3-0.5h6.7c0.5,0,1,0.2,1.3,0.5c0.3,0.4,0.5,0.8,0.5,1.3v17c2.9-3.4,7.2-5.3,11.7-5c4.5-0.3,8.9,1.6,11.9,5
			c2.9,3.7,4.5,8.4,4.4,13.1c0,0.6,0.1,1.5,0.1,2.5c0,1,0,1.9-0.1,2.5c0.1,4.8-1.5,9.4-4.4,13.2c-3,3.4-7.4,5.2-11.9,4.9
			C168.9,358.3,164.4,356.3,161.5,352.6L161.5,352.6z M179.5,339.7c0-0.5,0.1-1.3,0.1-2.3c0-1,0-1.8-0.1-2.3
			c-0.4-6.7-3.3-10.1-8.7-10.1c-2.4-0.2-4.8,0.8-6.4,2.7c-1.5,1.8-2.3,4.1-2.4,6.5c-0.1,0.6-0.1,1.6-0.1,3c0,1.3,0,2.3,0.1,2.9
			c0,2.5,0.8,4.9,2.3,6.9c1.6,2,4,3,6.5,2.8C176.2,349.8,179.1,346.4,179.5,339.7L179.5,339.7z"/>
		<path id="Path_6_00000071539983011561112000000001792397754815222456_" class="st0" d="M203.1,371.3c-0.3-0.3-0.5-0.7-0.5-1.1
			c0-0.4,0.1-0.8,0.3-1.2l6-14.1l-14.7-34.7c-0.2-0.3-0.3-0.7-0.3-1.1c0-0.4,0.2-0.9,0.5-1.2c0.3-0.3,0.7-0.5,1.1-0.5h6.4
			c0.9,0,1.7,0.6,2,1.5l10.2,24.9l10.3-24.9c0.4-0.9,1.2-1.4,2.1-1.5h6.2c0.4,0,0.8,0.2,1.1,0.5c0.3,0.3,0.5,0.7,0.5,1.1
			c0,0.4-0.1,0.8-0.3,1.2l-21.6,50.1c-0.3,0.9-1.2,1.5-2.1,1.5h-6.1C203.7,371.8,203.3,371.6,203.1,371.3L203.1,371.3z"/>
		<path id="Path_7_00000158727433458981209080000003803171737772816803_" class="st0" d="M248.5,353.6c-2.5-3-3.8-6.8-3.5-10.7
			v-17.3h-6c-0.5,0-1-0.2-1.3-0.5c-0.4-0.3-0.5-0.8-0.5-1.3v-4.5c0-0.5,0.2-1,0.5-1.3c0.3-0.3,0.8-0.5,1.3-0.5h6v-12.7
			c0-0.5,0.2-1,0.5-1.3c0.4-0.3,0.8-0.5,1.3-0.5h6.3c0.5,0,1,0.2,1.3,0.5c0.3,0.4,0.5,0.8,0.5,1.3v12.7h9.6c0.5,0,1,0.2,1.3,0.5
			c0.3,0.3,0.5,0.8,0.5,1.3v4.5c0,0.5-0.2,1-0.5,1.3c-0.3,0.3-0.8,0.5-1.3,0.5H255v16.4c-0.1,1.7,0.3,3.5,1.1,5
			c0.9,1.2,2.3,1.8,3.7,1.7h5.4c0.5,0,1,0.2,1.3,0.5c0.3,0.4,0.5,0.8,0.5,1.3v4.8c0,0.5-0.2,0.9-0.5,1.3c-0.3,0.4-0.8,0.6-1.3,0.5
			H259C255.1,357.6,251.4,356.2,248.5,353.6z"/>
		<path id="Path_8_00000074400529000358782510000000812720677234355348_" class="st0" d="M277.6,353.1c-3.5-3.8-5.5-8.8-5.3-13.9
			l-0.1-1.9c-0.3-5.5,1.5-10.9,5-15.1c3.6-3.8,8.7-5.8,13.9-5.5c5.3-0.3,10.4,1.7,14,5.5c3.4,4.1,5.2,9.3,4.9,14.7v1.6
			c0,0.5-0.2,1-0.5,1.3c-0.4,0.4-0.9,0.6-1.4,0.5h-25.4v0.6c0,2.5,0.8,5,2.3,7.1c1.4,1.9,3.7,2.9,6,2.8c2.8,0.1,5.5-1.3,7.1-3.5
			c0.3-0.4,0.7-0.8,1.1-1c0.4-0.2,0.9-0.2,1.3-0.2h6.7c0.4,0,0.8,0.1,1.2,0.4c0.3,0.3,0.5,0.7,0.5,1.1c-0.2,1.7-1,3.2-2.2,4.3
			c-1.7,1.9-3.9,3.3-6.2,4.3c-3,1.3-6.2,1.9-9.4,1.8C286.1,358.3,281.2,356.5,277.6,353.1z M299.5,333.9v-0.2
			c0.1-2.6-0.7-5.2-2.3-7.2c-1.5-1.8-3.8-2.8-6.2-2.7c-2.4-0.1-4.6,0.9-6.1,2.7c-1.6,2.1-2.3,4.6-2.2,7.2v0.2H299.5z"/>
		<g id="Group_1_00000013878804383176240600000001921420565351957125_" transform="translate(109.065765 0.21151035)">
			<path id="Path_9_00000183225809557410099630000003372439348706496682_" class="st1" d="M211.5,356.5c-0.4-0.3-0.6-0.8-0.6-1.3
				v-49.7c0-0.5,0.2-1,0.5-1.4c0.4-0.4,0.9-0.6,1.4-0.6H233c6.3-0.4,12.6,1.5,17.6,5.4c4.3,4,6.7,9.6,6.6,15.5
				c0,1.5,0.1,3.4,0.1,5.9c0,2.4,0,4.4-0.1,5.8c-0.5,14-8.4,21-23.8,21h-20.5C212.3,357,211.8,356.8,211.5,356.5L211.5,356.5z
				 M233,345.6c2.6,0.2,5.1-0.6,7.1-2.3c1.7-2,2.6-4.7,2.4-7.3c0.1-1.5,0.2-3.4,0.2-5.7c0-2.3-0.1-4.2-0.2-5.7
				c0.1-2.7-0.8-5.3-2.6-7.2c-2-1.7-4.7-2.5-7.3-2.3h-7.3v30.6H233z"/>
			<path id="Path_10_00000026848945662164615830000016023531561949196162_" class="st1" d="M266.5,356.5c-0.4-0.3-0.6-0.8-0.6-1.3
				v-49.7c0-0.5,0.2-1,0.5-1.4c0.4-0.4,0.9-0.6,1.4-0.6h23.6c5.1-0.4,10.2,1,14.5,4c3.2,2.8,5,7,4.7,11.3c0.1,2.3-0.6,4.5-1.9,6.3
				c-1.1,1.6-2.6,3-4.3,3.9c2.2,1,4,2.6,5.3,4.5c1.4,2.1,2.2,4.6,2.1,7.1c0.2,4.6-1.6,9-5.1,12c-4.2,3.1-9.4,4.6-14.6,4.3h-24.3
				C267.3,357,266.8,356.8,266.5,356.5L266.5,356.5z M289.9,324.7c1.6,0.1,3.2-0.4,4.4-1.5c1-1.1,1.6-2.5,1.5-4
				c0.1-1.4-0.5-2.8-1.5-3.9c-1.2-1.1-2.8-1.6-4.4-1.5h-9.6v10.9H289.9z M290.5,346.7c1.7,0.1,3.4-0.5,4.6-1.7
				c1.1-1.1,1.7-2.7,1.6-4.2c0-1.6-0.6-3.2-1.7-4.3c-1.2-1.2-2.9-1.8-4.6-1.7h-10.2v12H290.5z"/>
		</g>
	</g>
	<g id="Group_3_00000092439183025691282170000010672256950340234141_">
		<path id="Path_11_00000145059322627678971440000018080239226886969233_" class="st0" d="M305.6,142.6
			c-14.5-14.6-34.3-22.8-55-22.8l0,0c-20.6-0.1-40.4,8.1-55,22.8c-14.6,14.5-22.8,34.3-22.8,55c0,9.5,1.7,19,5.2,27.9
			c-5,5-9.8,10.3-14.3,15.8c-2.8,3.4-5.3,6.9-7.6,10.6c-1.2,1.9-2.3,4-3.1,6.1c-0.5,1.2-0.9,2.4-1.1,3.7c-0.3,1.5-0.3,3.1,0.1,4.7
			c0.1,0.4,0.2,0.7,0.4,1.1l0.1,0.2c0,0.1,0.1,0.2,0.1,0.3c0.2,0.4,0.5,0.8,0.8,1.1c0.7,0.8,1.5,1.4,2.5,1.8c1.4,0.6,3,0.9,4.6,0.9
			c2.4-0.1,4.9-0.5,7.2-1.2c4.2-1.3,8.4-2.9,12.3-4.8c6.4-3.1,12.6-6.5,18.6-10.3c14.3,12.9,32.8,20,52,20l0,0
			c20.6,0.1,40.4-8.1,55-22.8c14.6-14.5,22.8-34.3,22.8-55C328.5,176.9,320.2,157.1,305.6,142.6L305.6,142.6z M179.7,229.4
			c3.3,7.4,7.8,14.2,13.2,20.2c-5.9,3.6-11.2,6.6-16.2,9.1l0,0c-3.6,1.8-7.3,3.4-11.1,4.7c-1.7,0.6-3.5,0.9-5.3,1.1
			c-0.5,0-1.1,0-1.6-0.2c-0.1,0-0.2-0.1-0.2-0.1c0,0,0,0-0.1-0.1c-0.1-0.5-0.1-1,0-1.5c0.1-0.8,0.3-1.7,0.6-2.5
			c0.7-1.8,1.5-3.6,2.4-5.3c2-3.6,4.2-7.1,6.6-10.4C171.6,239.6,175.3,234.8,179.7,229.4L179.7,229.4z M223.6,238.5
			c8-5.9,14.4-10.9,20.2-15.6c6.3-5.1,12.8-10.7,19.4-16.6l0.8-0.8c5.8-5.4,11.8-11.1,17.6-16.7c0.6-0.6,0.7-1.6,0.1-2.3
			c-0.6-0.7-1.6-0.8-2.3-0.2c-6.4,4.9-12.7,10.1-18.8,15l-1,0.8c-5.7,4.5-11.9,9.3-20,15.4l-0.7,0.5c-6.4,4.7-13,9.7-19.7,14.3
			c-7.5,5.3-13.7,9.4-19.4,13.1c-12.2-12.9-19-30.1-19-47.9c0-18.5,7.3-36.3,20.5-49.4c13.1-13.2,30.9-20.5,49.4-20.5
			c18.5,0,36.3,7.3,49.4,20.5c13.1,13.1,20.5,30.9,20.5,49.4c0,18.5-7.3,36.3-20.5,49.4c-13.1,13.2-30.9,20.5-49.4,20.5
			c-16.5,0-32.5-5.8-45.1-16.5C211.7,246.9,217.7,242.8,223.6,238.5L223.6,238.5z"/>
		<path id="Path_12_00000066512073124371748240000013247950493392195228_" class="st2" d="M348.3,125c0,0-18.6-3-24.8,2.4l-11.4,9.9
			l-1.1,0.9l-0.5,0.5c0,0-19.4-1.3-23.7,2.4l-4.3,3.8l0,0l-1.6,1.4l-1.7,1.5l-0.5,0.4l9,10.4c-2.8,2.4-0.8,9.3,4.5,15.3
			c5.2,6,11.7,9,14.5,6.5l9,10.4l0.3-0.2l3.5-3l0,0l4.3-3.8c4.2-3.7,5.6-23.1,5.6-23.1l1.1-0.9l0.9-0.8l11-9.6
			C348.7,143.9,348.3,125,348.3,125z M292.3,154.5l0.6-0.5L292.3,154.5z M327,162.7l-0.6,0.5L327,162.7z"/>
	</g>
</g>
</svg>
