<?xml version="1.0" encoding="utf-8"?>
<!-- Generator: Adobe Illustrator 26.0.0, SVG Export Plug-In . SVG Version: 6.00 Build 0)  -->
<svg version="1.1" id="Layer_1" xmlns="http://www.w3.org/2000/svg" xmlns:xlink="http://www.w3.org/1999/xlink" x="0px" y="0px"
	 viewBox="0 0 500 500" style="enable-background:new 0 0 500 500;" xml:space="preserve">
<style type="text/css">
	.st0{fill:#03363D;}
</style>
<g>
	<path class="st0" d="M242.2,160.8v112.9h-93.5L242.2,160.8z M242.2,120.3c0,25.8-20.9,46.7-46.7,46.7s-46.7-20.9-46.7-46.7H242.2z
		 M257.6,273.6c0-25.8,20.9-46.7,46.7-46.7s46.7,20.9,46.7,46.7H257.6z M257.6,233.1V120.3h93.5L257.6,233.1L257.6,233.1z
		 M309.9,370.2c4.8,0.1,9.5-1.7,13-5l6.4,6.9c-4.2,4.4-10.1,7.6-19.3,7.6c-15.7,0-25.8-10.4-25.8-24.5
		c-0.3-13.3,10.3-24.2,23.5-24.5c0.3,0,0.6,0,0.8,0c15.6,0,24.4,11.8,23.6,28.3h-36.8C296.7,365.9,301.5,370.2,309.9,370.2
		 M321.1,351.2c-1-6.4-4.8-11.1-12.4-11.1c-7.1,0-12,4-13.3,11.1H321.1L321.1,351.2z M68.4,369.7l28.3-28.8H69.1v-9h40.8v9.2
		l-28.3,28.8h28.7v9H68.4V369.7L68.4,369.7z M142,370.2c4.8,0.1,9.5-1.7,13-5l6.4,6.9c-4.2,4.4-10.1,7.6-19.3,7.6
		c-15.7,0-25.8-10.4-25.8-24.5c-0.3-13.3,10.3-24.2,23.5-24.5c0.3,0,0.6,0,0.8,0c15.6,0,24.4,11.8,23.6,28.3h-36.8
		C128.8,365.9,133.6,370.2,142,370.2 M153.2,351.2c-1-6.4-4.8-11.1-12.4-11.1c-7.1,0-12,4-13.3,11.1H153.2L153.2,351.2z
		 M225.4,355.2c0-15,11.2-24.4,23.6-24.4c6-0.1,11.7,2.5,15.7,7v-27.7h10v68.6h-10v-6.5c-3.9,4.7-9.7,7.5-15.8,7.4
		C236.9,379.7,225.4,370.2,225.4,355.2 M265.3,355.2c-0.2-8.2-7.1-14.7-15.3-14.5c-8.2,0.2-14.7,7.1-14.5,15.3
		c0.2,8.1,6.8,14.5,14.9,14.5C258.9,370.5,265.2,363.6,265.3,355.2 M338.7,368.8l9.1-4.7c2.4,4.4,7.1,7,12.1,6.9
		c5.7,0,8.6-2.9,8.6-6.2c0-3.8-5.5-4.6-11.4-5.8c-8-1.7-16.3-4.3-16.3-14c0-7.4,7.1-14.3,18.2-14.2c8.8,0,15.3,3.5,19,9.1l-8.4,4.6
		c-2.4-3.5-6.4-5.5-10.6-5.4c-5.4,0-8.1,2.6-8.1,5.6c0,3.4,4.3,4.3,11.1,5.8c7.7,1.7,16.5,4.2,16.5,14c0,6.5-5.7,15.2-19.1,15.1
		C349.6,379.6,342.7,375.7,338.7,368.8 M405.6,357.9l-7.9,8.7v12.2h-10v-68.6h10V355l21.2-23.3h12.2l-18.4,20.1l18.9,26.9h-11.3
		L405.6,357.9L405.6,357.9z M195.2,330.8c-11.9,0-21.9,7.7-21.9,20.5v27.5h10.2v-26.2c0-7.7,4.4-12.3,12-12.3
		c7.6,0,11.3,4.6,11.3,12.3v26.2H217v-27.4C217,338.5,207,330.8,195.2,330.8"/>
</g>
</svg>
