<?xml version="1.0" encoding="utf-8"?>
<!-- Generator: Adobe Illustrator 26.0.0, SVG Export Plug-In . SVG Version: 6.00 Build 0)  -->
<svg version="1.1" id="Layer_1" xmlns="http://www.w3.org/2000/svg" xmlns:xlink="http://www.w3.org/1999/xlink" x="0px" y="0px"
	 viewBox="0 0 500 500" style="enable-background:new 0 0 500 500;" xml:space="preserve">
<style type="text/css">
	.st0{fill:url(#SVGID_1_);}
</style>
<linearGradient id="SVGID_1_" gradientUnits="userSpaceOnUse" x1="250" y1="204.2956" x2="250" y2="297.1724">
	<stop  offset="0" style="stop-color:#51ACFF"/>
	<stop  offset="1" style="stop-color:#7778FC"/>
</linearGradient>
<path class="st0" d="M129.6,209.3c0,5.9-2.6,11-6.6,14.2l-38.9,34.7c-0.7,0.6-1.7-0.4-1.1-1.2l14.3-28.5c0.4-0.8-0.1-1.8-0.9-1.8H41
	c-8.6,0-15.6-7.8-15.6-17.4c0-9.6,7-17.4,15.6-17.4H114C122.6,191.9,129.6,199.7,129.6,209.3z M41,308.1H114
	c8.6,0,15.6-7.8,15.6-17.4c0-9.6-7-17.4-15.6-17.4H58.7c-0.8,0-1.3-1-0.9-1.8L72.1,243c0.5-0.8-0.4-1.8-1.1-1.2L32,276.5
	c-4,3.2-6.6,8.4-6.6,14.2C25.4,300.2,32.4,308.1,41,308.1z M175.7,276.1l32.2-46.3v-0.4h-29.2v-12.6h49v8.8l-31.5,45.7v0.4h32v12.6
	h-52.5V276.1z M263.1,216.7v38.9c0,11.6,4.4,17.5,12.2,17.5c8,0,12.4-5.6,12.4-17.5v-38.9H303v37.9c0,20.8-10.5,30.8-28.2,30.8
	c-17,0-27.1-9.4-27.1-31v-37.7H263.1L263.1,216.7z M326.2,216.7h15.3v54.7h26.9v12.8h-42.2V216.7z M402.8,216.7v67.6h-15.3v-67.6
	H402.8z M426.1,217.6c4.7-0.8,11.3-1.4,20.6-1.4c9.4,0,16.1,1.8,20.6,5.4c4.3,3.4,7.2,9,7.2,15.6c0,6.6-2.2,12.2-6.2,16
	c-5.2,4.9-12.9,7.1-21.9,7.1c-2,0-3.8-0.1-5.2-0.3v24.2h-15.1L426.1,217.6L426.1,217.6z M441.2,248.3c1.3,0.3,2.9,0.4,5.1,0.4
	c8.1,0,13.1-4.1,13.1-11c0-6.2-4.3-9.9-11.9-9.9c-3.1,0-5.2,0.3-6.3,0.6V248.3z"/>
</svg>
