<?xml version="1.0" encoding="utf-8"?>
<!-- Generator: Adobe Illustrator 26.0.0, SVG Export Plug-In . SVG Version: 6.00 Build 0)  -->
<svg version="1.1" id="Layer_1" xmlns="http://www.w3.org/2000/svg" xmlns:xlink="http://www.w3.org/1999/xlink" x="0px" y="0px"
	 viewBox="0 0 650 750" style="enable-background:new 0 0 650 750;" xml:space="preserve">
<style type="text/css">
	.st0{fill:#B72025;}
</style>
<g>
	<polygon class="st0" points="9.7,310 254.2,450.7 254.4,591.5 292.6,613.5 292.4,428.7 38.3,282.3 38.2,209.8 186.2,124.2 
		323.3,203.1 361.5,181.1 224.3,102 324.7,44 461.7,123 499.9,101 324.6,0 0,187.7 0.1,304.5 	"/>
	<polygon class="st0" points="425.9,398.4 547.8,327.9 547.7,283.8 387.7,376.4 388,669.6 325.2,705.9 177,620.6 176.8,462.4 
		138.7,440.4 138.7,598.6 38.3,540.8 38.3,382.6 0.1,360.6 0.2,562.8 325.2,750 426.2,691.5 426.2,680.5 	"/>
	<polygon class="st0" points="649.6,187.4 548.4,129.1 538.9,134.6 294.7,276 172.7,205.7 134.5,227.8 294.7,320 548.6,173.2 
		611.4,209.4 611.6,380.4 474.7,459.6 474.6,503.6 611.8,424.4 611.8,540.3 474.9,619.4 474.9,663.5 650,562.3 	"/>
</g>
</svg>
