<?xml version="1.0" encoding="utf-8"?>
<!-- Generator: Adobe Illustrator 26.0.0, SVG Export Plug-In . SVG Version: 6.00 Build 0)  -->
<svg version="1.1" id="Layer_1" xmlns="http://www.w3.org/2000/svg" xmlns:xlink="http://www.w3.org/1999/xlink" x="0px" y="0px"
	 viewBox="0 0 24 20" style="enable-background:new 0 0 24 20;" xml:space="preserve">
<style type="text/css">
	.st0{fill:#B81414;}
</style>
<g>
	<path class="st0" d="M24,12.1v6.2c0,0.4-0.3,0.8-0.8,0.8c-0.4,0-0.8-0.3-0.8-0.8v-4.4L19,17.1C17.1,19,14.6,20,12,20
		c-0.7,0-1.5-0.1-2.2-0.2c-3.3-0.8-6-3.2-7.2-6.4c-0.1-0.4,0.1-0.8,0.5-1c0.4-0.2,0.8,0.1,1,0.5c1,2.7,3.2,4.8,6.1,5.4
		c2.8,0.7,5.8-0.2,7.8-2.3l3.3-3.2h-4.2c-0.4,0-0.8-0.3-0.8-0.8c0-0.4,0.3-0.8,0.8-0.8h6.1c0.2,0,0.4,0.1,0.6,0.2
		c0.1,0.1,0.2,0.2,0.2,0.4C24,11.9,24,12,24,12.1z"/>
	<path class="st0" d="M20.9,7.7c-0.4,0.1-0.8-0.1-1-0.5c-1-2.8-3.2-4.8-6.1-5.4C11,1.1,8.1,2,6,4L2.7,7.2h4.2c0.4,0,0.8,0.3,0.8,0.8
		c0,0.4-0.3,0.8-0.8,0.8H0.8c-0.2,0-0.4-0.1-0.6-0.2C0.1,8.4,0,8.2,0,8.1C0,8.1,0,8,0,8V1.8C0,1.4,0.3,1,0.8,1
		c0.4,0,0.8,0.3,0.8,0.8v4.4L5,2.9c2.4-2.4,5.9-3.4,9.2-2.7c3.3,0.8,6,3.2,7.2,6.4C21.5,7.1,21.3,7.5,20.9,7.7z"/>
</g>
</svg>
