<?xml version="1.0" encoding="utf-8"?>
<!-- Generator: Adobe Illustrator 26.0.0, SVG Export Plug-In . SVG Version: 6.00 Build 0)  -->
<svg version="1.1" id="Layer_1" xmlns="http://www.w3.org/2000/svg" xmlns:xlink="http://www.w3.org/1999/xlink" x="0px" y="0px"
	 viewBox="0 0 26 16" style="enable-background:new 0 0 26 16;" xml:space="preserve">
<style type="text/css">
	.st0{fill-rule:evenodd;clip-rule:evenodd;fill:#B81414;}
</style>
<path class="st0" d="M8.9,1.7C9.1,1.5,9.2,1.3,9.2,1c0-0.3-0.1-0.5-0.3-0.7C8.7,0.1,8.5,0,8.2,0C7.9,0,7.7,0.1,7.5,0.3l-7.2,7
	C0.2,7.4,0.1,7.5,0.1,7.6S0,7.9,0,8s0,0.3,0.1,0.4c0.1,0.1,0.1,0.2,0.2,0.3l7.2,7c0.1,0.1,0.2,0.2,0.3,0.2C8,16,8.1,16,8.2,16
	c0.1,0,0.3,0,0.4-0.1c0.1-0.1,0.2-0.1,0.3-0.2c0.1-0.1,0.2-0.2,0.2-0.3c0-0.1,0.1-0.3,0.1-0.4c0-0.1,0-0.3-0.1-0.4
	c-0.1-0.1-0.1-0.2-0.2-0.3L2.4,8L8.9,1.7z M18.5,0.3c-0.1-0.1-0.2-0.2-0.3-0.2C18.1,0,17.9,0,17.8,0c-0.1,0-0.3,0-0.4,0.1
	c-0.1,0.1-0.2,0.1-0.3,0.2c-0.1,0.1-0.2,0.2-0.2,0.3c0,0.1-0.1,0.3-0.1,0.4c0,0.1,0,0.3,0.1,0.4c0.1,0.1,0.1,0.2,0.2,0.3L23.6,8
	l-6.5,6.3c-0.2,0.2-0.3,0.4-0.3,0.7c0,0.3,0.1,0.5,0.3,0.7s0.4,0.3,0.7,0.3c0.3,0,0.5-0.1,0.7-0.3l7.2-7c0.1-0.1,0.2-0.2,0.2-0.3
	C26,8.3,26,8.1,26,8s0-0.3-0.1-0.4c-0.1-0.1-0.1-0.2-0.2-0.3L18.5,0.3L18.5,0.3z"/>
</svg>
