<?xml version="1.0" encoding="utf-8"?>
<!-- Generator: Adobe Illustrator 26.0.0, SVG Export Plug-In . SVG Version: 6.00 Build 0)  -->
<svg version="1.1" id="Layer_1" xmlns="http://www.w3.org/2000/svg" xmlns:xlink="http://www.w3.org/1999/xlink" x="0px" y="0px"
	 viewBox="0 0 22 22" style="enable-background:new 0 0 22 22;" xml:space="preserve">
<style type="text/css">
	.st0{fill:#B81414;}
</style>
<path class="st0" d="M11,22c-0.1,0-0.2,0-0.3-0.1L0.4,16.8c-0.4-0.2-0.5-0.6-0.3-1c0.2-0.4,0.6-0.5,1-0.4l9.9,5l9.9-5
	c0.4-0.2,0.8,0,1,0.4c0.2,0.4,0,0.8-0.3,1l-10.2,5.1C11.2,22,11.1,22,11,22z M11,16.9c-0.1,0-0.2,0-0.3-0.1L0.4,11.7
	c-0.4-0.2-0.5-0.6-0.3-1c0.2-0.4,0.6-0.5,1-0.4l9.9,5l9.9-5c0.4-0.2,0.8,0,1,0.4c0.2,0.4,0,0.8-0.3,1l-10.2,5.1
	C11.2,16.9,11.1,16.9,11,16.9z M11,11.8c-0.1,0-0.2,0-0.3-0.1L0.4,6.6C0.2,6.4,0,6.2,0,5.9s0.2-0.6,0.4-0.7l10.2-5.1
	c0.2-0.1,0.5-0.1,0.7,0l10.2,5.1C21.8,5.3,22,5.6,22,5.9s-0.2,0.6-0.4,0.7l-10.2,5.1C11.2,11.7,11.1,11.8,11,11.8z M2.5,5.9l8.5,4.3
	l8.5-4.3L11,1.6L2.5,5.9z"/>
</svg>
