<?xml version="1.0" encoding="utf-8"?>
<!-- Generator: Adobe Illustrator 26.0.0, SVG Export Plug-In . SVG Version: 6.00 Build 0)  -->
<svg version="1.1" id="Layer_1" xmlns="http://www.w3.org/2000/svg" xmlns:xlink="http://www.w3.org/1999/xlink" x="0px" y="0px"
	 viewBox="0 0 180 124" style="enable-background:new 0 0 180 124;" xml:space="preserve">
<style type="text/css">
	.st0{fill:#B81414;}
</style>
<path class="st0" d="M136.3,7.5c-1.1-1.1-2.7-1.8-4.4-1.8c-1.7,0-3.3,0.7-4.4,1.8c-1.1,1.1-1.8,2.7-1.8,4.4c0,1.7,0.7,3.3,1.8,4.4
	c1.1,1.1,2.7,1.8,4.4,1.8c1.7,0,3.3-0.7,4.4-1.8c1.1-1.1,1.8-2.7,1.8-4.4C138.1,10.2,137.4,8.6,136.3,7.5 M95.3,43
	c-1.1-1.1-2.7-1.8-4.4-1.8s-3.3,0.7-4.4,1.8c-1.1,1.1-1.8,2.7-1.8,4.4c0,1.7,0.7,3.3,1.8,4.4c1.1,1.1,2.7,1.8,4.4,1.8
	s3.3-0.7,4.4-1.8c1.1-1.1,1.8-2.7,1.8-4.4C97.1,45.7,96.4,44.1,95.3,43z M68.6,64.6c-1.1-1.1-2.7-1.8-4.4-1.8
	c-1.7,0-3.3,0.7-4.4,1.8c-1.1,1.1-1.8,2.7-1.8,4.4c0,1.7,0.7,3.3,1.8,4.4c1.1,1.1,2.7,1.8,4.4,1.8c1.7,0,3.3-0.7,4.4-1.8
	c1.1-1.1,1.8-2.7,1.8-4.4C70.4,67.4,69.7,65.8,68.6,64.6z M16.4,23.9c-1.1-1.1-2.7-1.8-4.4-1.8s-3.3,0.7-4.4,1.8
	c-1.1,1.1-1.8,2.7-1.8,4.4c0,1.7,0.7,3.3,1.8,4.4c1.1,1.1,2.7,1.8,4.4,1.8s3.3-0.7,4.4-1.8c1.1-1.1,1.8-2.7,1.8-4.4
	C18.2,26.6,17.5,25,16.4,23.9z M131.9,0c3.3,0,6.3,1.3,8.4,3.5c2.2,2.2,3.5,5.1,3.5,8.4s-1.3,6.3-3.5,8.4c-2.2,2.2-5.1,3.5-8.4,3.5
	c-2.6,0-5-0.8-7-2.3l-23.6,20.1c0.9,1.7,1.5,3.6,1.5,5.7c0,3.3-1.3,6.3-3.5,8.4c-2.2,2.2-5.1,3.5-8.4,3.5c-2.7,0-5.3-0.9-7.3-2.5
	l-8.1,8.6c0.4,1.1,0.5,2.3,0.5,3.6c0,3.3-1.3,6.3-3.5,8.4c-2.2,2.2-5.1,3.5-8.4,3.5c-3.3,0-6.3-1.3-8.4-3.5
	c-2.2-2.2-3.5-5.1-3.5-8.4c0-1.6,0.3-3.2,0.9-4.6L19.9,37.2c-2.1,1.9-4.9,3-8,3c-3.3,0-6.3-1.3-8.4-3.5C1.3,34.6,0,31.6,0,28.3
	C0,25,1.3,22,3.5,19.9c2.2-2.2,5.1-3.5,8.4-3.5c3.3,0,6.3,1.3,8.4,3.5c2.2,2.2,3.5,5.1,3.5,8.4c0,1.5-0.3,2.9-0.8,4.2l33.4,27.4
	c2.1-1.7,4.7-2.8,7.6-2.8c3.2,0,6.2,1.3,8.3,3.4l7.6-8.1c-0.7-1.5-1.1-3.2-1.1-5c0-3.3,1.3-6.3,3.5-8.4c2.2-2.2,5.1-3.5,8.4-3.5
	c2.5,0,4.8,0.8,6.7,2l23.7-20.2c-0.8-1.6-1.3-3.5-1.3-5.4c0-3.3,1.3-6.3,3.5-8.4C125.6,1.3,128.6,0,131.9,0z M134.6,101.3l26.7,15.5
	c0.2,0.1,0.5,0.3,0.8,0.4c2.5,1.3,4.7,1.3,6.5,0.6c1.8-0.7,3.3-2.2,4.4-4c0.1-0.2,0.2-0.4,0.3-0.6c1-2.1,1.3-4.4,0.7-6.6
	c-0.6-1.9-1.8-3.7-3.9-4.9l-26.7-15.5L134.6,101.3z M128,77.4c-2,5.5-4.9,10.6-8.5,15.2l10.3,5.9l8.7-15.1L128,77.4z M123.3,30.6
	c1,1.6,1.9,3.3,2.7,5c5.6,11.7,6.6,24.5,3.7,36.2l43.2,25c3.4,2,5.6,5,6.5,8.2c1,3.5,0.6,7.3-1,10.7c-0.1,0.3-0.3,0.6-0.5,0.9
	c-1.6,2.8-4.1,5.2-7.2,6.4c-3.2,1.2-7,1.2-11.1-0.8c-0.3-0.2-0.7-0.3-1.1-0.6l-42.9-24.9c-4.2,4.2-9.2,7.8-14.9,10.6
	c-13.4,6.4-28.1,6.8-41.1,2.2c-13-4.6-24.2-14.1-30.6-27.5c-5.2-10.9-6.4-22.6-4.3-33.6l5,4.1c-1.2,8.9,0.2,18.3,4.3,27
	c5.7,12,15.8,20.6,27.4,24.7c11.6,4.1,24.8,3.8,36.8-2c12-5.7,20.5-15.8,24.6-27.4c4.1-11.6,3.8-24.8-2-36.8c-0.6-1.3-1.3-2.6-2-3.8
	L123.3,30.6z M54.4,10.3c13.4-6.4,28.1-6.8,41.1-2.2c6.1,2.2,11.9,5.5,16.9,9.7l-4.5,3.6c-4.3-3.5-9.2-6.2-14.3-8
	c-11.6-4.1-24.8-3.8-36.8,2C47.4,19.9,40.2,27,35.5,35.5l-4.4-3.6C36.3,22.8,44.2,15.1,54.4,10.3z M114.2,38.1
	c0.5,0.8,0.9,1.7,1.4,2.6c5,10.5,5.3,22.1,1.7,32.2c-3.6,10.2-11.1,19-21.6,24c-10.5,5-22,5.3-32.2,1.7c-10.2-3.6-19-11.1-24-21.6
	c-3.1-6.4-4.4-13.2-4.1-19.8l5.8,4.7c0.4,4.3,1.5,8.6,3.4,12.7c4.3,9.1,12,15.6,20.8,18.7c8.8,3.1,18.8,2.9,27.9-1.5
	c9.1-4.4,15.6-12,18.7-20.8c3.1-8.8,2.9-18.8-1.5-27.9c-0.2-0.5-0.5-0.9-0.7-1.4L114.2,38.1z M59.4,20.8c10.5-5,22-5.3,32.2-1.7
	c4.1,1.5,8,3.6,11.6,6.3L98.6,29c-2.8-1.9-5.8-3.5-8.9-4.6c-8.8-3.1-18.8-2.9-27.9,1.5C54,29.6,48.2,35.8,44.7,43l-4.5-3.7
	C44.3,31.5,50.8,24.9,59.4,20.8z"/>
</svg>
