<?xml version="1.0" encoding="utf-8"?>
<!-- Generator: Adobe Illustrator 26.0.0, SVG Export Plug-In . SVG Version: 6.00 Build 0)  -->
<svg version="1.1" id="Layer_1" xmlns="http://www.w3.org/2000/svg" xmlns:xlink="http://www.w3.org/1999/xlink" x="0px" y="0px"
	 viewBox="0 0 162 183" style="enable-background:new 0 0 162 183;" xml:space="preserve">
<style type="text/css">
	.st0{fill:#B81414;}
</style>
<g>
	<path class="st0" d="M145,119.2V63.8c0.9,0.2,1.9,0.4,2.8,0.4c1,0,1.9-0.1,2.8-0.4v55.4c-0.9-0.2-1.9-0.4-2.8-0.4
		C146.9,118.8,145.9,118.9,145,119.2 M89.1,160.9l23.8-13.7l0.1-0.1l23.9-13.8c0.5,1.9,1.5,3.5,2.8,4.9l-23.9,13.8l-0.2,0.1
		l-23.8,13.8C91.4,163.9,90.4,162.2,89.1,160.9z M25.1,133.2L49,147l0,0l23.9,13.8c-1.3,1.3-2.3,3-2.8,4.9l-23.9-13.8l0,0
		l-23.9-13.8C23.6,136.8,24.5,135.1,25.1,133.2z M17,63.8v55.4c-0.9-0.2-1.9-0.4-2.8-0.4s-1.9,0.1-2.8,0.4V63.8
		c0.9,0.2,1.9,0.4,2.8,0.4S16.1,64.1,17,63.8z M72.9,22.1L49.1,35.9L49,36L25.1,49.8c-0.5-1.9-1.5-3.5-2.8-4.9l23.9-13.8l0.2-0.1
		l23.8-13.8C70.6,19.1,71.6,20.8,72.9,22.1z M91.9,17.2l23.9,13.8l0,0l23.9,13.8c-1.3,1.3-2.3,3-2.8,4.9L113,36l0,0L89.1,22.1
		C90.4,20.8,91.4,19.1,91.9,17.2z"/>
	<path class="st0" d="M100.4,57.8L81,46.6L61.7,57.7l-0.1,0.1L42.2,69V114L81,136.4l19.3-11.1l0.1-0.1l19.4-11.2V69L100.4,57.8
		L100.4,57.8z M82.4,40.9l20.8,12l0,0l20.8,12c0.9,0.5,1.4,1.5,1.4,2.4h0v48.2c0,1.1-0.6,2.1-1.6,2.6l-20.6,11.9l-0.2,0.1l-20.7,12
		c-0.9,0.5-2,0.5-2.8,0l0,0L37.9,118c-0.9-0.5-1.4-1.5-1.4-2.4h0V67.4c0-1.1,0.6-2.1,1.6-2.6l20.6-11.9l0.2-0.1l20.7-12
		C80.5,40.4,81.6,40.4,82.4,40.9z"/>
	<path class="st0" d="M37.9,69.9c-1.3-0.8-1.8-2.5-1-3.9c0.8-1.4,2.5-1.8,3.9-1L81,88.2L121.2,65c1.3-0.8,3.1-0.3,3.8,1
		c0.8,1.4,0.3,3.1-1,3.9l-41.5,24c-0.9,0.6-2,0.7-3,0.1L37.9,69.9z"/>
	<path class="st0" d="M78.2,91.5c0-1.6,1.3-2.8,2.8-2.8c1.6,0,2.8,1.3,2.8,2.8v48.2c0,1.6-1.3,2.8-2.8,2.8c-1.6,0-2.8-1.3-2.8-2.8
		V91.5z"/>
	<path class="st0" d="M45.1,109.9c-1.3-0.8-1.8-2.5-1-3.9c0.8-1.4,2.5-1.8,3.9-1l16.9,9.8c1.3,0.8,1.8,2.5,1,3.9
		c-0.8,1.4-2.5,1.8-3.9,1L45.1,109.9z"/>
	<path class="st0" d="M45.1,100c-1.3-0.8-1.8-2.5-1-3.9c0.8-1.4,2.5-1.8,3.9-1l16.9,9.8c1.3,0.8,1.8,2.5,1,3.9
		c-0.8,1.4-2.5,1.8-3.9,1L45.1,100z"/>
	<path class="st0" d="M87,8.2c-1.5-1.5-3.7-2.5-6-2.5c-2.3,0-4.5,1-6,2.5c-1.5,1.5-2.5,3.7-2.5,6s1,4.5,2.5,6c1.5,1.5,3.7,2.5,6,2.5
		c2.3,0,4.5-1,6-2.5c1.5-1.5,2.5-3.7,2.5-6S88.5,9.7,87,8.2 M81,0c3.9,0,7.4,1.6,10,4.2c2.6,2.6,4.1,6.1,4.1,10
		c0,3.9-1.6,7.5-4.1,10c-2.6,2.6-6.1,4.2-10,4.2c-3.9,0-7.4-1.6-10-4.2c-2.6-2.6-4.1-6.1-4.1-10c0-3.9,1.6-7.5,4.1-10
		C73.6,1.6,77.1,0,81,0z"/>
	<path class="st0" d="M20.2,46.8c-1.5-1.5-3.7-2.5-6-2.5s-4.5,1-6,2.5c-1.5,1.5-2.5,3.7-2.5,6c0,2.3,1,4.5,2.5,6
		c1.5,1.5,3.7,2.5,6,2.5c2.3,0,4.5-1,6-2.5c1.5-1.5,2.5-3.7,2.5-6C22.6,50.5,21.7,48.4,20.2,46.8 M14.2,38.7c3.9,0,7.4,1.6,10,4.2
		c2.6,2.6,4.1,6.1,4.1,10c0,3.9-1.6,7.5-4.1,10c-2.6,2.6-6.1,4.2-10,4.2c-3.9,0-7.4-1.6-10-4.2C1.6,60.3,0,56.8,0,52.8
		c0-3.9,1.6-7.5,4.1-10C6.7,40.2,10.2,38.7,14.2,38.7z"/>
	<path class="st0" d="M20.2,124.1c-1.5-1.5-3.7-2.5-6-2.5c-2.3,0-4.5,1-6,2.5c-1.5,1.5-2.5,3.7-2.5,6c0,2.3,1,4.5,2.5,6
		c1.5,1.5,3.7,2.5,6,2.5c2.3,0,4.5-1,6-2.5c1.5-1.5,2.5-3.7,2.5-6C22.6,127.8,21.7,125.7,20.2,124.1 M14.2,116c3.9,0,7.4,1.6,10,4.2
		c2.6,2.6,4.1,6.1,4.1,10c0,3.9-1.6,7.5-4.1,10c-2.6,2.6-6.1,4.2-10,4.2c-3.9,0-7.4-1.6-10-4.2c-2.6-2.6-4.1-6.1-4.1-10
		c0-3.9,1.6-7.5,4.1-10C6.7,117.6,10.2,116,14.2,116z"/>
	<path class="st0" d="M87,162.8c-1.5-1.5-3.7-2.5-6-2.5c-2.3,0-4.5,1-6,2.5c-1.5,1.5-2.5,3.7-2.5,6c0,2.3,1,4.5,2.5,6
		c1.5,1.5,3.7,2.5,6,2.5c2.3,0,4.5-1,6-2.5c1.5-1.5,2.5-3.7,2.5-6C89.5,166.5,88.5,164.3,87,162.8 M81,154.6c3.9,0,7.4,1.6,10,4.2
		c2.6,2.6,4.1,6.1,4.1,10c0,3.9-1.6,7.5-4.1,10c-2.6,2.6-6.1,4.2-10,4.2c-3.9,0-7.4-1.6-10-4.2c-2.6-2.6-4.1-6.1-4.1-10
		c0-3.9,1.6-7.5,4.1-10C73.6,156.2,77.1,154.6,81,154.6z"/>
	<path class="st0" d="M153.9,124.1c-1.5-1.5-3.7-2.5-6-2.5c-2.3,0-4.5,1-6,2.5c-1.5,1.5-2.5,3.7-2.5,6c0,2.3,1,4.5,2.5,6
		c1.5,1.5,3.7,2.5,6,2.5c2.3,0,4.5-1,6-2.5c1.5-1.5,2.5-3.7,2.5-6C156.3,127.8,155.4,125.7,153.9,124.1 M147.8,116
		c3.9,0,7.4,1.6,10,4.2c2.6,2.6,4.1,6.1,4.1,10c0,3.9-1.6,7.5-4.1,10c-2.6,2.6-6.1,4.2-10,4.2c-3.9,0-7.4-1.6-10-4.2
		c-2.6-2.6-4.1-6.1-4.1-10c0-3.9,1.6-7.5,4.1-10C140.4,117.6,143.9,116,147.8,116z"/>
	<path class="st0" d="M153.9,46.8c-1.5-1.5-3.7-2.5-6-2.5c-2.3,0-4.5,1-6,2.5c-1.5,1.5-2.5,3.7-2.5,6c0,2.3,1,4.5,2.5,6
		c1.5,1.5,3.7,2.5,6,2.5c2.3,0,4.5-1,6-2.5c1.5-1.5,2.5-3.7,2.5-6C156.3,50.5,155.4,48.4,153.9,46.8 M147.8,38.7
		c3.9,0,7.4,1.6,10,4.2c2.6,2.6,4.1,6.1,4.1,10c0,3.9-1.6,7.5-4.1,10c-2.6,2.6-6.1,4.2-10,4.2s-7.4-1.6-10-4.2
		c-2.6-2.6-4.1-6.1-4.1-10c0-3.9,1.6-7.5,4.1-10C140.4,40.2,143.9,38.7,147.8,38.7z"/>
</g>
</svg>
