<?xml version="1.0" encoding="utf-8"?>
<!-- Generator: Adobe Illustrator 26.0.0, SVG Export Plug-In . SVG Version: 6.00 Build 0)  -->
<svg version="1.1" id="Layer_1" xmlns="http://www.w3.org/2000/svg" xmlns:xlink="http://www.w3.org/1999/xlink" x="0px" y="0px"
	 viewBox="0 0 156 182" style="enable-background:new 0 0 156 182;" xml:space="preserve">
<style type="text/css">
	.st0{fill:#B81414;}
</style>
<path class="st0" d="M48.3,110.1c0-1.6,1.3-2.8,2.8-2.8s2.8,1.3,2.8,2.8v12.1c0,1.6-1.3,2.8-2.8,2.8s-2.8-1.3-2.8-2.8V110.1z
	 M23.3,49.6c0.9,1.2,0.7,3-0.6,3.9c-1.2,0.9-3,0.7-3.9-0.6c-2.7-3.7-4.9-7.8-6.4-12.3c-1.4-4.3-2.2-8.9-2.2-13.7
	c0-4.8,0.8-9.3,2.2-13.6C13.8,9,16,4.8,18.7,1.1c0.9-1.2,2.7-1.5,3.9-0.6c1.2,0.9,1.5,2.7,0.6,3.9c-2.4,3.2-4.2,6.8-5.5,10.7
	c-1.2,3.7-1.9,7.7-1.9,11.9c0,4.2,0.7,8.2,1.9,11.9C19,42.8,20.9,46.4,23.3,49.6z M31.1,10.3c0.9-1.2,2.7-1.5,3.9-0.6
	c1.2,0.9,1.5,2.7,0.6,3.9c-1.4,1.9-2.5,4-3.3,6.3c-0.7,2.2-1.1,4.6-1.1,7c0,2.5,0.4,4.9,1.1,7.1c0.8,2.3,1.9,4.4,3.3,6.3
	c0.9,1.2,0.7,3-0.6,3.9c-1.2,0.9-3,0.7-3.9-0.6c-1.8-2.4-3.2-5-4.1-7.9c-0.9-2.8-1.4-5.8-1.4-8.8c0-3.1,0.5-6,1.4-8.8
	C28,15.4,29.4,12.7,31.1,10.3z M84.1,4.5c-0.9-1.2-0.7-3,0.6-3.9c1.2-0.9,3-0.7,3.9,0.6C91.3,4.8,93.5,9,95,13.4
	c1.4,4.3,2.2,8.9,2.2,13.6c0,4.8-0.8,9.4-2.2,13.7c-1.5,4.5-3.7,8.6-6.4,12.3c-0.9,1.2-2.7,1.5-3.9,0.6c-1.2-0.9-1.5-2.7-0.6-3.9
	c2.4-3.2,4.3-6.8,5.6-10.7c1.2-3.7,1.9-7.7,1.9-11.9c0-4.1-0.7-8.1-1.9-11.9C88.3,11.3,86.4,7.7,84.1,4.5z M76.1,43.8
	c-0.9,1.2-2.7,1.5-3.9,0.6c-1.2-0.9-1.5-2.7-0.6-3.9c1.4-1.9,2.6-4,3.3-6.3c0.7-2.2,1.1-4.6,1.1-7.1c0-2.5-0.4-4.8-1.1-7
	c-0.8-2.3-1.9-4.4-3.3-6.3c-0.9-1.2-0.7-3,0.6-3.9c1.2-0.9,3-0.7,3.9,0.6c1.8,2.4,3.2,5,4.1,7.9c0.9,2.8,1.4,5.7,1.4,8.8
	c0,3.1-0.5,6-1.4,8.8C79.3,38.7,77.9,41.4,76.1,43.8z M56.5,24.1L56.5,24.1c-0.7-0.7-1.8-1.2-2.9-1.2c-1.1,0-2.1,0.5-2.9,1.2
	c-0.7,0.7-1.2,1.7-1.2,2.9c0,1.1,0.5,2.1,1.2,2.9l0,0c0.7,0.7,1.7,1.2,2.9,1.2c1.1,0,2.1-0.5,2.9-1.2c0.7-0.7,1.2-1.7,1.2-2.9
	C57.7,25.9,57.3,24.9,56.5,24.1z M53.7,17.3c2.7,0,5.1,1.1,6.9,2.8v0c1.8,1.8,2.8,4.2,2.8,6.8c0,2.7-1.1,5.1-2.8,6.8l0,0
	c-1.1,1.1-2.5,2-4,2.4v56c3.1,0.6,5.9,2.1,8.1,4.3c2.8,2.8,4.5,6.7,4.5,10.9v28.1h-2.8H38.2v-28.1c0-4.3,1.7-8.1,4.5-10.9
	c2.2-2.2,5-3.7,8.1-4.3v-56c-1.5-0.5-2.9-1.3-4-2.4h0C45.1,32.1,44,29.7,44,27c0-2.7,1.1-5.1,2.8-6.9C48.6,18.4,51,17.3,53.7,17.3z
	 M43.8,130h19.7v-22.5c0-2.7-1.1-5.2-2.9-6.9c-1.8-1.8-4.2-2.9-6.9-2.9c-2.7,0-5.2,1.1-6.9,2.9c-1.8,1.8-2.9,4.2-2.9,6.9V130z
	 M110.7,159.4l26.7,15.5c0.2,0.1,0.5,0.3,0.8,0.4c2.5,1.3,4.7,1.3,6.5,0.6c1.8-0.7,3.3-2.2,4.4-4c0.1-0.2,0.2-0.4,0.3-0.6
	c1-2.1,1.3-4.4,0.7-6.5c-0.6-1.9-1.8-3.7-3.9-4.9l-26.7-15.5L110.7,159.4z M104.1,135.5c-2,5.4-4.9,10.6-8.5,15.1l10.2,5.9l8.7-15
	L104.1,135.5z M30.5,68.5c4.8-2.3,9.7-3.8,14.7-4.6v5.7c-4.2,0.7-8.3,2.1-12.3,4C21,79.3,12.5,89.4,8.4,101
	c-4.1,11.6-3.8,24.8,2,36.8c5.7,12,15.8,20.5,27.4,24.6c11.6,4.1,24.7,3.8,36.7-2c12-5.7,20.5-15.8,24.6-27.3
	c4.1-11.6,3.8-24.8-2-36.8c-5.7-12-15.8-20.5-27.4-24.6c-2.5-0.9-5-1.5-7.6-2v-5.7c3.2,0.5,6.4,1.3,9.5,2.4
	c13,4.6,24.2,14.1,30.6,27.5c5.6,11.7,6.6,24.5,3.7,36.1l43.1,25c3.4,2,5.6,5,6.5,8.2c1,3.5,0.6,7.3-1,10.6
	c-0.1,0.3-0.3,0.6-0.5,0.9c-1.6,2.8-4.1,5.2-7.2,6.4c-3.2,1.2-6.9,1.2-11.1-0.8c-0.3-0.2-0.7-0.3-1.1-0.6l-42.8-24.8
	c-4.2,4.2-9.2,7.8-14.9,10.5c-13.4,6.4-28.1,6.8-41,2.2c-13-4.6-24.2-14.1-30.6-27.5c-6.4-13.4-6.8-28.1-2.2-41
	C7.6,86.1,17.2,74.9,30.5,68.5z M35.5,79c3.2-1.5,6.4-2.6,9.7-3.3v5.8c-2.5,0.6-4.9,1.4-7.3,2.6c-9.1,4.3-15.5,12-18.6,20.7
	c-3.1,8.8-2.9,18.8,1.5,27.9c4.3,9.1,12,15.5,20.7,18.6c8.8,3.1,18.8,2.9,27.9-1.5c9.1-4.3,15.5-12,18.6-20.7
	c3.1-8.8,2.9-18.8-1.5-27.9c-4.3-9.1-12-15.5-20.7-18.6c-1.2-0.4-2.5-0.8-3.8-1.1v-5.8c1.9,0.4,3.8,0.9,5.6,1.6
	c10.2,3.6,18.9,11,24,21.5c5,10.5,5.3,22,1.7,32.2c-3.6,10.2-11,18.9-21.5,24c-10.5,5-22,5.3-32.2,1.7c-10.2-3.6-18.9-11-24-21.5
	c-5-10.5-5.3-22-1.7-32.2C17.6,92.8,25.1,84,35.5,79z"/>
</svg>
