<svg width="416" height="240" viewBox="0 0 416 240" fill="none" xmlns="http://www.w3.org/2000/svg"><path fill="transparent" d="M0 0h416v240H0z"/><rect width="46" height="46" rx="2" transform="matrix(-1 0 0 1 356 45)" fill="#fff"/><rect x=".75" y="-.75" width="47.5" height="47.5" rx="2.75" transform="matrix(-1 0 0 1 357.5 45)" stroke="#000" stroke-opacity=".16" stroke-width="1.5"/><rect width="46" height="46" rx="2" transform="matrix(-1 0 0 1 356 133)" fill="#fff"/><rect x=".75" y="-.75" width="47.5" height="47.5" rx="2.75" transform="matrix(-1 0 0 1 357.5 133)" stroke="#000" stroke-opacity=".16" stroke-width="1.5"/><g clip-path="url(#clip0)" stroke="#000" stroke-width="1.5" stroke-miterlimit="10"><path d="M332.8 65.8c4.97 0 9-1.79 9-4s-4.03-4-9-4c-4.971 0-9 1.79-9 4s4.029 4 9 4z"/><path d="M323.8 61.8v12.8c0 2.2 4 4 9 4s9-1.8 9-4V61.8" stroke-linecap="round"/><path d="M341.8 68.1c0 2.2-4 4-9 4s-9-1.8-9-4" stroke-linecap="round"/></g><g clip-path="url(#clip1)" stroke="#000" stroke-width="1.5" stroke-miterlimit="10"><path d="M332.8 153.8c4.97 0 9-1.791 9-4s-4.03-4-9-4c-4.971 0-9 1.791-9 4s4.029 4 9 4z"/><path d="M323.8 149.8v12.8c0 2.2 4 4 9 4s9-1.8 9-4v-12.8" stroke-linecap="round"/><path d="M341.8 156.1c0 2.2-4 4-9 4s-9-1.8-9-4" stroke-linecap="round"/></g><path d="M297 156h-23a8 8 0 01-8-8v-36M297 68h-23a8 8 0 00-8 8v36" stroke="#343536" stroke-width="2" stroke-linejoin="round"/><path d="M297 68a3 3 0 10-6 0 3 3 0 006 0zM297 156a3 3 0 10-6 0 3 3 0 006 0z" fill="#fff" stroke="#343536" stroke-width="2" stroke-linecap="round" stroke-linejoin="round"/><rect x="2" y="133" width="46" height="46" rx="2" fill="#fff"/><rect x="1.25" y="132.25" width="47.5" height="47.5" rx="2.75" stroke="#000" stroke-opacity=".16" stroke-width="1.5"/><rect x="2" y="45" width="46" height="46" rx="2" fill="#fff"/><rect x="1.25" y="44.25" width="47.5" height="47.5" rx="2.75" stroke="#000" stroke-opacity=".16" stroke-width="1.5"/><path d="M143 112h-26a8 8 0 01-8-8V90M75 68h26a8 8 0 018 8v14" stroke="#343536" stroke-width="2" stroke-linejoin="round" stroke-dasharray="4 2"/><path d="M75 68a3 3 0 116 0 3 3 0 01-6 0z" fill="#fff" stroke="#343536" stroke-width="2" stroke-linecap="round" stroke-linejoin="round"/><path d="M144.7 112l-8.7 5.1v-10.2l8.7 5.1z" fill="#343536"/><path d="M143 112h-26a8 8 0 00-8 8v14M75 156h26a8 8 0 008-8v-14" stroke="#343536" stroke-width="2" stroke-linejoin="round" stroke-dasharray="4 2"/><path d="M75 156a3 3 0 106 0 3 3 0 00-6 0z" fill="#fff" stroke="#343536" stroke-width="2" stroke-linecap="round" stroke-linejoin="round"/><path d="M144.7 112l-8.7-5.1v10.2l8.7-5.1z" fill="#343536"/><path transform="matrix(1 0 0 -1 204 111)" stroke="#343536" stroke-width="2" d="M0-1h59"/><path transform="matrix(-1 0 0 1 206 113)" stroke="#343536" stroke-width="2" d="M0-1h4"/><path transform="matrix(1 0 0 -1 261 111)" stroke="#343536" stroke-width="2" d="M0-1h4"/><circle cx="47" cy="68" r="15.5" fill="#000" stroke="#00BC7F" stroke-width="3"/><path d="M50.993 73.833l-1.878-1.878h-1.252l-2.623-2.623-.244.044a4.163 4.163 0 01-3.118-.637 4.225 4.225 0 116.573-3.513 4.163 4.163 0 01-.075.77l-.044.244 4.501 4.5v3.093h-1.84z" stroke="#fff" stroke-width=".939" stroke-miterlimit="10"/><path d="M44.226 66.947a1.722 1.722 0 100-3.443 1.722 1.722 0 000 3.443z" stroke="#fff" stroke-width=".939" stroke-miterlimit="10"/><circle cx="47" cy="156" r="15.5" fill="#000"/><circle cx="47" cy="156" r="15.5" stroke="#000" stroke-opacity=".16" stroke-width="3"/><circle cx="47" cy="156" r="15.5" stroke="#fff" stroke-width="3"/><circle cx="47" cy="156" r="15.5" stroke="url(#paint0_angular)" stroke-width="3"/><path d="M50.993 161.833l-1.878-1.878h-1.252l-2.623-2.623-.244.044a4.146 4.146 0 01-.77.075 4.228 4.228 0 01-4.145-5.05 4.226 4.226 0 018.37.825 4.169 4.169 0 01-.075.77l-.044.244 4.501 4.501v3.092h-1.84z" stroke="#fff" stroke-width=".939" stroke-miterlimit="10"/><path d="M44.226 154.947a1.721 1.721 0 10.001-3.442 1.721 1.721 0 00-.001 3.442z" stroke="#fff" stroke-width=".939" stroke-miterlimit="10"/><path d="M145.583 87.146l27.323 53.799 27.527-53.799h-54.85zm30.548 10.82h3.182v3.096h-3.182v-3.096zm-6.33 12.484h-3.148v-3.146h3.173l-.025 3.146zm0-4.678h-3.148v-3.146h3.173l-.025 3.146zm0-4.677h-3.148v-3.146h3.173l-.025 3.146zm4.768 14.041h-3.148v-3.155h3.174l-.026 3.155zm0-4.686h-3.148v-3.146h3.174l-.026 3.146zm0-4.678h-3.148v-3.146h3.174l-.026 3.146zm0-4.677h-3.148v-3.146h3.174l-.026 3.146zm1.562 1.531h3.182v3.113h-3.182v-3.113zm0 7.791v-3.113h3.173v3.113h-3.173z" fill="#000"/><rect width="32" height="32" rx="2" transform="matrix(-1 0 0 1 247 96)" fill="#FFEC6E"/><path d="M239.25 106v4.5h-4.5M222.75 118v-4.5h4.5" stroke="#000" stroke-width="1.5" stroke-linecap="round" stroke-linejoin="round"/><path d="M224.632 109.75a6.752 6.752 0 0111.138-2.52l3.48 3.27M222.75 113.5l3.48 3.27a6.752 6.752 0 0011.137-2.52" stroke="#000" stroke-width="1.5" stroke-linecap="round" stroke-linejoin="round"/><defs><clipPath id="clip0"><path fill="#fff" transform="translate(323 57)" d="M0 0h19.5v22.3H0z"/></clipPath><clipPath id="clip1"><path fill="#fff" transform="translate(323 145)" d="M0 0h19.5v22.3H0z"/></clipPath><radialGradient id="paint0_angular" cx="0" cy="0" r="1" gradientUnits="userSpaceOnUse" gradientTransform="matrix(0 14 -14 0 47 156)"><stop stop-color="#1C7ADA"/><stop offset="1" stop-color="#1C7ADA" stop-opacity="0"/></radialGradient></defs></svg>