<?xml version="1.0" encoding="utf-8"?>
<!-- Generator: Adobe Illustrator 24.1.0, SVG Export Plug-In . SVG Version: 6.00 Build 0)  -->
<svg version="1.1" id="Layer_1" xmlns="http://www.w3.org/2000/svg" xmlns:xlink="http://www.w3.org/1999/xlink" x="0px" y="0px"
	 viewBox="0 0 2500 1500" style="enable-background:new 0 0 2500 1500;" xml:space="preserve">
<style type="text/css">
	.st0{fill:#35373B;}
	.st1{fill:#B72025;}
</style>
<g>
	<g>
		<g>
			<g>
				<g>
					<g>
						<path class="st0" d="M826.99,603.97v53.31h84.59v27.53h-84.59v67.07h-32.53V576.7h127.89v27.28H826.99z"/>
					</g>
				</g>
				<g>
					<g>
						<path class="st0" d="M1091.52,724.6v27.28H960.13V576.7h127.89v27.28h-95.35v45.55h84.59v26.78h-84.59v48.3H1091.52z"/>
					</g>
				</g>
				<g>
					<g>
						<path class="st0" d="M1248.69,751.88l-35.79-51.3c-1.5,0.17-3.75,0.25-6.76,0.25h-39.54v51.05h-32.53V576.7h72.08
							c15.18,0,28.41,2.5,39.67,7.51c11.26,5.01,19.9,12.18,25.9,21.52c6.01,9.35,9.01,20.44,9.01,33.29
							c0,13.18-3.21,24.53-9.64,34.04c-6.42,9.51-15.64,16.6-27.65,21.27l40.29,57.56H1248.69z M1236.92,613.23
							c-7.34-6.01-18.11-9.01-32.28-9.01h-38.04v69.82h38.04c14.18,0,24.94-3.04,32.28-9.13c7.34-6.09,11.01-14.72,11.01-25.9
							C1247.93,627.84,1244.26,619.24,1236.92,613.23z"/>
					</g>
				</g>
				<g>
					<g>
						<path class="st0" d="M1437.88,751.88l-35.79-51.3c-1.5,0.17-3.75,0.25-6.76,0.25h-39.54v51.05h-32.53V576.7h72.08
							c15.18,0,28.41,2.5,39.67,7.51c11.26,5.01,19.9,12.18,25.9,21.52c6.01,9.35,9.01,20.44,9.01,33.29
							c0,13.18-3.21,24.53-9.64,34.04c-6.42,9.51-15.64,16.6-27.65,21.27l40.29,57.56H1437.88z M1426.12,613.23
							c-7.34-6.01-18.11-9.01-32.28-9.01h-38.04v69.82h38.04c14.18,0,24.94-3.04,32.28-9.13c7.34-6.09,11.01-14.72,11.01-25.9
							C1437.13,627.84,1433.46,619.24,1426.12,613.23z"/>
					</g>
				</g>
				<g>
					<g>
						<path class="st0" d="M1512.46,576.7H1545v175.19h-32.53V576.7z"/>
					</g>
				</g>
				<g>
					<g>
						<path class="st0" d="M1613.69,748.63c-12.6-3.84-22.57-8.92-29.91-15.27l11.26-25.28c7.17,5.67,15.97,10.3,26.4,13.89
							c10.42,3.59,20.9,5.38,31.41,5.38c13.01,0,22.73-2.08,29.16-6.26c6.42-4.17,9.63-9.67,9.63-16.52c0-5.01-1.79-9.13-5.38-12.39
							c-3.59-3.25-8.13-5.79-13.64-7.63c-5.51-1.83-13.01-3.92-22.52-6.26c-13.35-3.17-24.15-6.34-32.41-9.51
							c-8.26-3.17-15.35-8.13-21.27-14.89c-5.92-6.76-8.88-15.89-8.88-27.4c0-9.67,2.63-18.48,7.88-26.4
							c5.26-7.92,13.18-14.22,23.78-18.9c10.59-4.67,23.56-7.01,38.92-7.01c10.68,0,21.19,1.34,31.53,4
							c10.34,2.67,19.27,6.51,26.78,11.51l-10.26,25.28c-7.68-4.5-15.69-7.92-24.03-10.26c-8.34-2.33-16.43-3.5-24.28-3.5
							c-12.85,0-22.4,2.17-28.66,6.51c-6.26,4.34-9.38,10.1-9.38,17.27c0,5.01,1.79,9.1,5.38,12.26c3.59,3.17,8.13,5.67,13.64,7.51
							c5.51,1.84,13.01,3.92,22.52,6.26c13.01,3,23.69,6.13,32.03,9.39c8.34,3.25,15.47,8.22,21.4,14.89
							c5.92,6.67,8.88,15.68,8.88,27.03c0,9.68-2.63,18.44-7.88,26.28c-5.26,7.84-13.22,14.1-23.9,18.77
							c-10.68,4.67-23.69,7.01-39.04,7.01C1639.34,754.39,1626.29,752.47,1613.69,748.63z"/>
					</g>
				</g>
				<g>
					<g>
						<path class="st0" d="M1840.3,576.7h25.03v153.41h94.85v21.77H1840.3V576.7z"/>
					</g>
				</g>
				<g>
					<g>
						<path class="st0" d="M2107.59,708.09h-93.1l-19.27,43.8h-25.78l79.33-175.19h24.78l79.58,175.19h-26.28L2107.59,708.09z
							 M2098.83,688.06l-37.79-85.84l-37.79,85.84H2098.83z"/>
					</g>
				</g>
				<g>
					<g>
						<path class="st0" d="M2327.32,676.43c5.84,7.43,8.76,16.81,8.76,28.16c0,15.18-5.72,26.86-17.14,35.04
							c-11.43,8.18-28.07,12.26-49.93,12.26h-83.59V576.7H2264c20.02,0,35.49,4,46.42,12.01c10.93,8.01,16.39,19.11,16.39,33.29
							c0,9.18-2.13,17.1-6.38,23.78c-4.25,6.68-9.97,11.76-17.14,15.27C2313.47,663.87,2321.48,669.01,2327.32,676.43z
							 M2210.44,596.97v56.06h51.3c12.85,0,22.73-2.38,29.66-7.13c6.92-4.76,10.39-11.72,10.39-20.9c0-9.17-3.46-16.14-10.39-20.9
							c-6.93-4.76-16.81-7.13-29.66-7.13H2210.44z M2300.04,724.6c7.17-4.67,10.76-12.01,10.76-22.02
							c0-19.52-14.26-29.28-42.8-29.28h-57.56v58.31H2268C2282.18,731.61,2292.86,729.28,2300.04,724.6z"/>
					</g>
				</g>
				<g>
					<g>
						<path class="st0" d="M2394.01,747.75c-12.26-4.09-21.9-9.39-28.91-15.89l9.26-19.52c6.67,6.01,15.22,10.89,25.65,14.64
							c10.43,3.75,21.15,5.63,32.16,5.63c14.52,0,25.36-2.46,32.54-7.38c7.17-4.92,10.76-11.47,10.76-19.65
							c0-6.01-1.96-10.89-5.88-14.64c-3.92-3.75-8.76-6.63-14.52-8.63c-5.76-2-13.89-4.25-24.4-6.76
							c-13.18-3.17-23.82-6.34-31.91-9.51c-8.1-3.17-15.02-8.05-20.77-14.64c-5.76-6.59-8.63-15.47-8.63-26.65
							c0-9.34,2.46-17.77,7.38-25.28c4.92-7.51,12.39-13.51,22.4-18.02c10.01-4.5,22.44-6.76,37.29-6.76c10.34,0,20.52,1.34,30.53,4
							c10.01,2.67,18.6,6.51,25.78,11.51l-8.26,20.02c-7.34-4.67-15.18-8.22-23.53-10.64c-8.34-2.42-16.52-3.63-24.53-3.63
							c-14.18,0-24.82,2.59-31.91,7.76c-7.09,5.17-10.64,11.85-10.64,20.02c0,6.01,2,10.89,6.01,14.64c4,3.75,8.97,6.68,14.89,8.76
							c5.92,2.09,13.97,4.3,24.15,6.63c13.18,3.17,23.78,6.34,31.78,9.51c8.01,3.17,14.89,8.01,20.65,14.52
							c5.76,6.51,8.63,15.27,8.63,26.28c0,9.18-2.5,17.56-7.51,25.15c-5,7.59-12.6,13.6-22.77,18.02
							c-10.18,4.42-22.69,6.63-37.54,6.63C2419,753.88,2406.27,751.84,2394.01,747.75z"/>
					</g>
				</g>
			</g>
			<g>
				<g>
					<path class="st0" d="M1142.46,907h-46.77l-10.07,22.43h-9.23l38.38-83.95h8.76l38.38,83.95h-9.35L1142.46,907z M1139.22,899.8
						l-20.15-45.1l-20.15,45.1H1139.22z"/>
					<path class="st0" d="M1181.8,845.47h8.88v76.28h47.01v7.68h-55.89V845.47z"/>
					<path class="st0" d="M1258.44,845.47h8.88v76.28h47.02v7.68h-55.89V845.47z"/>
					<path class="st0" d="M1372.49,845.47h34.18c8.87,0,16.71,1.78,23.51,5.34c6.8,3.56,12.07,8.52,15.83,14.87
						c3.76,6.36,5.64,13.61,5.64,21.77s-1.88,15.41-5.64,21.77c-3.76,6.36-9.04,11.32-15.83,14.87c-6.8,3.56-14.63,5.34-23.51,5.34
						h-34.18V845.47z M1406.2,921.75c7.36,0,13.79-1.46,19.31-4.38c5.52-2.92,9.79-6.96,12.83-12.11
						c3.04-5.16,4.56-11.09,4.56-17.81s-1.52-12.65-4.56-17.81c-3.04-5.16-7.32-9.19-12.83-12.11c-5.52-2.92-11.95-4.38-19.31-4.38
						h-24.83v68.6H1406.2z"/>
					<path class="st0" d="M1529.01,907h-46.78l-10.07,22.43h-9.24l38.38-83.95h8.76l38.38,83.95h-9.35L1529.01,907z M1525.77,899.8
						l-20.15-45.1l-20.15,45.1H1525.77z"/>
					<path class="st0" d="M1580.46,853.15h-29.5v-7.68h67.88v7.68h-29.5v76.28h-8.88V853.15z"/>
					<path class="st0" d="M1687.45,907h-46.78l-10.07,22.43h-9.24l38.38-83.95h8.76l38.38,83.95h-9.35L1687.45,907z M1684.21,899.8
						l-20.15-45.1l-20.15,45.1H1684.21z"/>
					<path class="st0" d="M1834.36,845.47v83.95h-7.32l-53.97-68.12v68.12h-8.87v-83.95h7.32l54.09,68.12v-68.12H1834.36z"/>
					<path class="st0" d="M1927.07,921.75v7.68h-59.37v-83.95h57.57v7.68h-48.69v29.86H1920v7.56h-43.42v31.18H1927.07z"/>
					<path class="st0" d="M2013.31,921.75v7.68h-59.37v-83.95h57.57v7.68h-48.69v29.86h43.42v7.56h-43.42v31.18H2013.31z"/>
					<path class="st0" d="M2040.17,845.47h34.18c8.87,0,16.71,1.78,23.51,5.34c6.79,3.56,12.07,8.52,15.83,14.87
						c3.76,6.36,5.64,13.61,5.64,21.77s-1.88,15.41-5.64,21.77c-3.76,6.36-9.04,11.32-15.83,14.87c-6.8,3.56-14.63,5.34-23.51,5.34
						h-34.18V845.47z M2073.87,921.75c7.36,0,13.79-1.46,19.31-4.38c5.52-2.92,9.79-6.96,12.83-12.11
						c3.04-5.16,4.56-11.09,4.56-17.81s-1.52-12.65-4.56-17.81c-3.04-5.16-7.32-9.19-12.83-12.11c-5.52-2.92-11.95-4.38-19.31-4.38
						h-24.83v68.6H2073.87z"/>
					<path class="st0" d="M2150.45,927.15c-5.72-2-10.13-4.64-13.25-7.92l3.48-6.84c3.04,3.04,7.08,5.5,12.11,7.38
						c5.04,1.88,10.23,2.82,15.59,2.82c7.51,0,13.15-1.38,16.91-4.14c3.76-2.76,5.64-6.34,5.64-10.73c0-3.36-1.02-6.04-3.06-8.04
						c-2.04-2-4.54-3.54-7.5-4.62c-2.96-1.08-7.08-2.26-12.35-3.54c-6.32-1.6-11.35-3.14-15.11-4.62c-3.76-1.48-6.98-3.74-9.66-6.78
						c-2.68-3.04-4.02-7.16-4.02-12.35c0-4.24,1.12-8.1,3.36-11.57c2.24-3.48,5.68-6.26,10.31-8.33c4.64-2.08,10.39-3.12,17.27-3.12
						c4.8,0,9.49,0.66,14.09,1.98s8.58,3.14,11.93,5.46l-3,7.08c-3.52-2.32-7.28-4.06-11.27-5.22c-4-1.16-7.92-1.74-11.75-1.74
						c-7.36,0-12.89,1.42-16.61,4.26c-3.72,2.84-5.58,6.5-5.58,10.97c0,3.36,1.02,6.06,3.06,8.1s4.6,3.6,7.68,4.68
						c3.08,1.08,7.22,2.26,12.41,3.54c6.16,1.52,11.13,3.02,14.93,4.5c3.8,1.48,7.02,3.72,9.65,6.72c2.64,3,3.96,7.06,3.96,12.17
						c0,4.24-1.14,8.1-3.42,11.57c-2.28,3.48-5.78,6.24-10.49,8.28c-4.72,2.04-10.52,3.06-17.39,3.06
						C2162.14,930.14,2156.17,929.14,2150.45,927.15z"/>
				</g>
			</g>
		</g>
	</g>
	<g>
		<polygon class="st1" points="9.66,685.02 253.96,825.68 254.11,966.36 292.27,988.31 292.07,803.64 38.24,657.42 38.16,584.95 
			186,499.35 322.96,578.26 361.1,556.27 224.09,477.22 324.31,419.27 461.2,498.23 499.32,476.2 324.27,375.29 0,562.89 
			0.13,679.57 		"/>
		<polygon class="st1" points="425.4,773.38 547.18,702.91 547.1,658.89 387.27,751.4 387.56,1044.34 324.83,1080.64 176.78,995.4 
			176.64,837.34 138.53,815.3 138.57,973.47 38.28,915.66 38.21,757.62 0.07,735.63 0.2,937.69 324.81,1124.71 425.79,1066.27 
			425.74,1055.28 		"/>
		<polygon class="st1" points="648.95,562.51 547.84,504.28 538.35,509.81 294.4,651.06 172.48,580.84 134.39,602.91 294.42,695.08 
			547.98,548.36 610.77,584.53 610.99,755.37 474.16,834.51 474.13,878.54 611.1,799.41 611.18,915.18 474.35,994.26 
			474.38,1038.29 649.3,937.13 		"/>
	</g>
</g>
<g>
</g>
<g>
</g>
<g>
</g>
<g>
</g>
<g>
</g>
<g>
</g>
<g>
</g>
<g>
</g>
<g>
</g>
<g>
</g>
<g>
</g>
<g>
</g>
<g>
</g>
<g>
</g>
<g>
</g>
</svg>
