<svg width="48" height="48" viewBox="0 0 48 48" fill="none" xmlns="http://www.w3.org/2000/svg">
<path d="M36.2187 15.8044V10.0885C36.9744 9.73543 37.6142 9.17514 38.0637 8.47278C38.5132 7.77042 38.7538 6.9549 38.7577 6.12114V5.98987C38.7577 3.55892 36.7861 1.58822 34.3541 1.58822H34.2228C33.0549 1.58822 31.9349 2.05196 31.109 2.87743C30.2832 3.7029 29.8193 4.82248 29.8193 5.98987V6.12114C29.8231 6.9549 30.0638 7.77042 30.5133 8.47278C30.9628 9.17514 31.6026 9.73543 32.3583 10.0885V15.8044C30.1864 16.1369 28.141 17.037 26.429 18.4137L10.7459 6.20379C10.8577 5.80025 10.9161 5.38537 10.9226 4.96887C10.9245 3.98791 10.6353 3.02841 10.0916 2.21175C9.54793 1.39508 8.77415 0.75794 7.86814 0.380913C6.96213 0.00388614 5.9646 -0.0960874 5.00174 0.093638C4.03889 0.283363 3.15395 0.754264 2.45887 1.44678C1.76379 2.13929 1.28979 3.0223 1.09684 3.98411C0.903885 4.94593 1.00065 5.94334 1.37488 6.85019C1.7491 7.75703 2.38398 8.53257 3.19921 9.07869C4.01445 9.62482 4.97341 9.91701 5.9548 9.91829C6.81338 9.91425 7.65588 9.68514 8.39816 9.25383L23.8414 21.266C22.4541 23.3609 21.7303 25.825 21.7644 28.3371C21.7985 30.8492 22.589 33.2928 24.0327 35.3493L19.3357 40.0459C18.956 39.9245 18.5604 39.8601 18.1618 39.8547C17.3563 39.8553 16.569 40.0946 15.8994 40.5424C15.2299 40.9902 14.7082 41.6263 14.4002 42.3703C14.0922 43.1143 14.0118 43.933 14.1691 44.7227C14.3264 45.5124 14.7144 46.2378 15.284 46.8071C15.8537 47.3765 16.5794 47.7643 17.3694 47.9216C18.1595 48.0788 18.9784 47.9985 19.7228 47.6906C20.4672 47.3828 21.1035 46.8613 21.5515 46.192C21.9994 45.5228 22.2389 44.7358 22.2395 43.9306C22.2343 43.5322 22.1698 43.1367 22.0482 42.7572L26.6949 38.1109C28.2102 39.2769 29.9724 40.0808 31.8465 40.461C33.7206 40.8411 35.6569 40.7875 37.5071 40.3041C39.3572 39.8207 41.0721 38.9204 42.5204 37.6722C43.9687 36.424 45.1119 34.8609 45.8625 33.1029C46.6131 31.3448 46.9512 29.4383 46.8508 27.5295C46.7504 25.6206 46.2143 23.7601 45.2834 22.0903C44.3525 20.4206 43.0517 18.986 41.4804 17.8965C39.9092 16.8069 38.1093 16.0913 36.2187 15.8044ZM34.2925 34.6038C33.4338 34.6274 32.579 34.4788 31.7786 34.1666C30.9783 33.8544 30.2487 33.385 29.633 32.7862C29.0172 32.1874 28.5277 31.4713 28.1935 30.6803C27.8593 29.8892 27.6871 29.0392 27.6871 28.1804C27.6871 27.3217 27.8593 26.4717 28.1935 25.6806C28.5277 24.8895 29.0172 24.1734 29.633 23.5746C30.2487 22.9758 30.9783 22.5065 31.7786 22.1943C32.579 21.8821 33.4338 21.7334 34.2925 21.757C35.957 21.8153 37.5338 22.517 38.691 23.7142C39.8482 24.9115 40.4953 26.5109 40.4962 28.1757C40.497 29.8404 39.8514 31.4405 38.6955 32.639C37.5395 33.8374 35.9634 34.5406 34.299 34.6006" fill="#FF7A59"/>
</svg>
