<svg width="48" height="48" viewBox="0 0 48 48" fill="none" xmlns="http://www.w3.org/2000/svg">
<path fill-rule="evenodd" clip-rule="evenodd" d="M37.8787 37.3576C39.5767 36.6395 41.6019 36.3784 44.2131 36.4437C44.1391 35.9566 43.2115 35.3783 42.5295 34.9531C42.2976 34.8086 42.094 34.6817 41.9621 34.5821C40.9169 33.831 39.8064 33.0477 38.6966 32.3619C38.3387 32.1431 37.8226 31.9603 37.3258 31.7845C37.0082 31.672 36.6986 31.5624 36.4434 31.448C36.1821 31.3414 35.826 31.2348 35.4415 31.1198C34.5298 30.847 33.4585 30.5265 33.1134 30.0441C32.2266 28.8918 31.6083 27.4993 30.9906 26.1078C30.9257 25.9617 30.8608 25.8155 30.7956 25.6696C30.4716 24.9291 30.1112 24.1741 29.7489 23.415C29.3443 22.5673 28.9371 21.7144 28.5753 20.8705C28.4192 20.5283 28.3 20.2049 28.1827 19.8867C28.0312 19.4759 27.8829 19.0735 27.6622 18.6503C25.2784 14.047 21.7518 10.194 17.4757 7.48452C16.0718 6.60364 14.5043 5.7865 12.7748 5.23201C12.2465 5.07374 11.6608 5.04824 11.0695 5.02251C10.5648 5.00054 10.056 4.9784 9.5754 4.87337H8.88958C8.4929 4.76306 8.14091 4.44498 7.81384 4.14941C7.65587 4.00666 7.50372 3.86916 7.35515 3.76286C6.34294 3.07705 5.32997 2.62086 4.1227 2.13089C3.698 1.93505 2.49073 1.4781 2.06603 1.83752C1.80338 1.90203 1.67436 2.00033 1.60831 2.26145C1.3472 2.65312 1.57529 3.24063 1.73887 3.60005C2.06184 4.28959 2.47084 4.79436 2.88984 5.31148C3.10551 5.57765 3.32382 5.84709 3.53442 6.14668C3.63385 6.28695 3.73744 6.43037 3.84276 6.57619C4.3256 7.24471 4.84485 7.96364 5.16639 8.6603C5.61947 9.6357 5.94232 10.6668 6.26396 11.6941C6.5453 12.5927 6.82572 13.4883 7.19157 14.3411C7.48571 15.0269 7.94112 15.8102 8.36581 16.4308C8.49918 16.6122 8.67257 16.7756 8.84803 16.941C9.14642 17.2223 9.45082 17.5092 9.57463 17.8999C9.89178 18.4285 9.31011 19.942 8.95618 20.8629C8.87302 21.0793 8.80243 21.263 8.75903 21.3935C7.9104 24.0699 8.07245 27.7916 9.05163 30.1101C9.08752 30.1936 9.12313 30.2783 9.159 30.3638C9.51602 31.2139 9.89876 32.1254 10.8472 32.3626C10.8771 32.3331 10.8799 32.3235 10.8863 32.3189C10.894 32.3133 10.907 32.315 10.9793 32.2974C11.0264 31.925 11.0666 31.5554 11.1063 31.191C11.2578 29.7982 11.4012 28.4804 11.8924 27.3677C12.126 26.794 12.512 26.3307 12.8884 25.879C13.09 25.6371 13.2887 25.3986 13.4599 25.1482C13.6662 25.2722 13.7418 25.5535 13.8195 25.8426C13.8644 26.0098 13.91 26.1797 13.9821 26.3232C14.0148 26.4012 14.0478 26.4799 14.0809 26.559C14.4776 27.5061 14.904 28.5239 15.386 29.4573C16.4635 31.5463 17.6707 33.5707 19.0431 35.3992C19.4993 36.0513 20.1529 36.7701 20.7411 37.3576C20.8301 37.4353 20.9227 37.5019 21.014 37.5675C21.1905 37.6944 21.3618 37.8175 21.4914 38.0104H21.5575V38.1095C20.937 37.8819 20.4605 37.3925 19.9956 36.915C19.7264 36.6384 19.461 36.3658 19.1737 36.1503C17.7037 35.0406 15.9412 33.3756 14.929 31.7759C14.6016 31.0714 14.256 30.386 13.9051 29.6903C13.8008 29.4835 13.6961 29.2758 13.5912 29.0664V29.0012C13.4661 29.1668 13.4473 29.3327 13.4247 29.5326C13.4118 29.6469 13.3976 29.7723 13.3616 29.9151C13.2403 30.3809 13.1804 30.8653 13.1224 31.3335C12.9773 32.5056 12.8449 33.5756 11.7956 33.9954C10.1306 34.6812 8.89035 32.8856 8.36659 32.0693C6.70159 29.359 6.24618 24.7888 7.42043 21.0994C7.51108 20.8159 7.57424 20.5129 7.63722 20.2107C7.75566 19.6424 7.87347 19.0772 8.17228 18.651C8.10666 18.2583 7.88152 18.0552 7.66141 17.8566C7.55182 17.7577 7.44348 17.66 7.35668 17.5405C6.89973 16.9208 6.50806 16.2027 6.14788 15.5169C5.62847 14.5031 5.22227 13.3395 4.82819 12.2106C4.70195 11.849 4.57694 11.4909 4.44986 11.1424C4.33869 10.8561 4.26601 10.5695 4.1943 10.2868C4.11889 9.98948 4.04455 9.69638 3.92763 9.41216C3.61934 8.74419 3.10882 8.07622 2.63465 7.45581C2.50641 7.28802 2.38084 7.12371 2.26263 6.96382C2.13518 6.78066 1.96624 6.56834 1.77791 6.33165C0.857553 5.17494 -0.52591 3.4362 0.205974 1.67471C1.57683 -1.6883 6.37673 0.858337 8.23679 2.03335C8.42334 2.15323 8.62047 2.32719 8.82393 2.50674C9.11969 2.76774 9.42881 3.04053 9.7382 3.17612C10.1425 3.19246 10.5467 3.2167 10.9507 3.24092C11.3631 3.26566 11.7753 3.29038 12.1873 3.30668C12.3228 3.33841 12.4575 3.36963 12.5913 3.40065C13.9734 3.72095 15.2638 4.02001 16.3659 4.64527C21.9799 7.943 25.637 11.3052 29 16.8555C29.4561 17.601 29.7669 18.386 30.0834 19.1855C30.2657 19.6462 30.45 20.1117 30.665 20.5771C31.4806 22.4702 32.3961 24.4616 33.3422 26.2572C33.4621 26.4966 33.574 26.7438 33.686 26.9915C33.9712 27.6216 34.2578 28.2548 34.6801 28.7708C34.8331 28.9883 35.1736 29.1045 35.4998 29.2158C35.6631 29.2715 35.8227 29.326 35.9534 29.3913C36.3756 29.6087 36.8332 29.8062 37.2946 30.0053C38.0098 30.3139 38.7341 30.6264 39.3494 31.0233C41.2425 32.1991 43.0711 33.6029 44.7361 35.0391C45.0729 35.3397 45.3513 35.7079 45.6294 36.0756C45.8642 36.3861 46.0987 36.6962 46.368 36.9652V37.2593C45.8499 37.4266 45.3273 37.5792 44.8006 37.717C44.234 37.8623 43.6991 37.9195 43.1682 37.9763C42.6297 38.034 42.0955 38.0911 41.5366 38.2393C41.4689 38.2587 41.3996 38.2787 41.329 38.2991C40.6845 38.4855 39.9312 38.7033 39.2834 38.7615L39.3494 38.826C39.6644 39.7224 41.0022 40.4925 42.0988 41.1239C42.481 41.3439 42.834 41.5471 43.1041 41.7328C44.3774 42.646 45.5524 43.7565 46.4986 45.0298C46.6619 45.1931 46.8254 45.3483 46.9888 45.5034C47.152 45.6584 47.3151 45.8132 47.4778 45.9759C47.5895 46.1347 47.6621 46.3168 47.7335 46.4958C47.8089 46.6847 47.8829 46.8701 48 47.0212V47.1187C47.7153 47.0169 47.5188 46.8128 47.3239 46.6102C47.207 46.4888 47.0908 46.368 46.9563 46.2701C46.6463 46.0591 46.3364 45.8298 46.0265 45.6005C45.6179 45.2982 45.2094 44.9959 44.8006 44.7356C44.1688 44.3368 43.4866 44.0226 42.8011 43.7069C42.14 43.4025 41.4759 43.0966 40.8508 42.712C40.132 42.2543 39.4469 41.7328 38.7611 41.2106C38.1398 40.7529 37.4548 39.8712 37.0631 39.2184C36.9646 39.0632 36.9025 38.8961 36.8427 38.7351C36.764 38.5234 36.6892 38.3224 36.5409 38.1732C36.5891 37.7109 37.0386 37.5939 37.4669 37.4824C37.6121 37.4446 37.7549 37.4074 37.8787 37.3576Z" fill="#00546B"/>
<path fill-rule="evenodd" clip-rule="evenodd" d="M12.7979 8.91951C13.0858 8.8478 13.3733 8.7998 13.7815 8.7998C13.8579 8.87666 13.9536 8.94192 14.0502 9.00781C14.1956 9.107 14.3431 9.20763 14.4303 9.35148C14.4838 9.42625 14.518 9.5009 14.5523 9.57555C14.5951 9.6689 14.638 9.76223 14.7183 9.85573C14.7183 10.4323 14.5506 10.8157 14.214 11.0562L14.1655 11.1042C14.0722 10.9174 13.9846 10.7307 13.8971 10.544C13.8045 10.3465 13.7119 10.1491 13.6127 9.95173C13.5189 9.81968 13.4102 9.69884 13.301 9.57756C13.132 9.38973 12.9619 9.20082 12.8453 8.96751H12.7979V8.91951Z" fill="#00546B"/>
</svg>
