<svg width="48" height="48" viewBox="0 0 48 48" fill="none" xmlns="http://www.w3.org/2000/svg">
<path d="M24.7305 36.7003L42.9838 41.0463V6.85669L24.7305 11.2027V36.7003Z" fill="#205B98"/>
<path d="M42.9832 6.85669L46.46 8.5951V39.3079L42.9832 41.0463V6.85669ZM24.7299 36.7003L6.47656 41.0463V6.85669L24.7299 11.2027V36.7003Z" fill="#5294CF"/>
<path d="M6.47682 6.85669L3 8.5951V39.3079L6.47682 41.0463V6.85669Z" fill="#205B98"/>
<path d="M29.3662 48L36.3198 44.5232V3.47682L29.3662 0L27.2402 22.7931L29.3662 48Z" fill="#5294CF"/>
<path d="M20.0923 48L13.1387 44.5232V3.47682L20.0923 0L22.2182 22.7931L20.0923 48Z" fill="#205B98"/>
<path d="M20.0928 0H29.4603V47.9031H20.0928V0Z" fill="#2D72B8"/>
</svg>
