<svg width="48" height="48" viewBox="0 0 48 48" fill="none" xmlns="http://www.w3.org/2000/svg">
<path fill-rule="evenodd" clip-rule="evenodd" d="M26.0615 8.05094C23.6779 8.05094 21.5227 9.05128 19.9747 10.6643C18.2715 8.43727 15.585 7 12.5621 7C7.41333 7 3.23897 11.1682 3.23897 16.3101C3.23897 17.6263 3.51316 18.8783 4.00615 20.0127C1.61162 21.4123 0 24.0284 0 27.0246C0 31.4957 3.58701 35.1197 8.01162 35.1197C8.57641 35.1197 9.12684 35.0609 9.65812 34.948C10.8738 38.2458 14.041 40.5973 17.7573 40.5973C21.3258 40.5973 24.3877 38.4297 25.7019 35.3385C26.7015 35.826 27.8243 36.1002 29.0113 36.1002C31.8468 36.1002 34.3173 34.5378 35.6137 32.2253C36.2728 32.3586 36.9545 32.4284 37.652 32.4284C43.3668 32.4284 48 27.7549 48 21.9894C48 16.2246 43.3668 11.5511 37.652 11.5511C36.1621 11.5511 34.746 11.8691 33.4667 12.4407C31.9945 9.81778 29.2301 8.05094 26.0615 8.05094ZM28.3313 18.7589C28.4366 18.7787 28.5172 18.7972 28.6061 18.8245C28.6253 18.8321 28.6793 18.8587 28.6574 18.9216L28.4448 19.5056C28.427 19.5493 28.4147 19.576 28.3237 19.5486C28.3012 19.5418 28.2677 19.5322 28.1815 19.5138C28.1193 19.5008 28.0366 19.4912 27.9531 19.4912C27.8431 19.4912 27.7425 19.5049 27.6543 19.5336C27.5682 19.5616 27.4896 19.6102 27.4212 19.6786C27.3521 19.7483 27.2701 19.8502 27.2263 19.9753C27.1394 20.2267 27.0973 20.4915 27.0838 20.5762C27.0815 20.5908 27.08 20.6001 27.0793 20.603H27.9689C28.0434 20.603 28.0666 20.6372 28.0598 20.6926L27.9559 21.271C27.9402 21.3551 27.8629 21.3524 27.8629 21.3524H26.9466L26.3196 24.8991C26.254 25.2656 26.1713 25.5801 26.0749 25.8331C25.9778 26.0895 25.8759 26.2768 25.7138 26.456C25.5634 26.6215 25.3938 26.7439 25.1996 26.8143C25.0061 26.884 24.7723 26.9203 24.5166 26.9203C24.3942 26.9203 24.2636 26.9182 24.109 26.882C23.9976 26.8553 23.9367 26.8362 23.8547 26.8074C23.8198 26.7945 23.7925 26.7514 23.8116 26.696C23.8314 26.6406 23.9955 26.19 24.0181 26.1305C24.0468 26.0587 24.1186 26.0861 24.1186 26.0861C24.1685 26.1073 24.2034 26.1216 24.269 26.1346C24.3354 26.1483 24.4249 26.1592 24.4919 26.1592C24.613 26.1592 24.7237 26.1442 24.8195 26.1121C24.9357 26.0731 25.0027 26.0061 25.0738 25.9158C25.1477 25.8215 25.2072 25.6922 25.268 25.5199C25.3302 25.3449 25.3863 25.1145 25.4349 24.8341L26.0584 21.3524H25.4437C25.3699 21.3524 25.346 21.3175 25.3535 21.2628L25.4567 20.6837C25.4731 20.6003 25.5497 20.603 25.5497 20.603H26.1815L26.2157 20.415C26.3101 19.8563 26.4981 19.4317 26.775 19.1527C27.0533 18.8724 27.4499 18.7302 27.9531 18.7302C28.0974 18.7302 28.2246 18.7398 28.3313 18.7589ZM6.95189 24.422C6.92699 24.4871 6.9508 24.5096 6.96517 24.5231C6.96816 24.526 6.97075 24.5284 6.9724 24.5308C7.04376 24.5827 7.11598 24.623 7.18871 24.6637L7.18874 24.6637L7.18879 24.6637C7.20802 24.6745 7.22729 24.6852 7.24659 24.6962C7.73616 24.9561 8.19838 25.032 8.6818 25.032C9.66642 25.032 10.2777 24.5082 10.2777 23.6651V23.6487C10.2777 22.8692 9.58779 22.5862 8.94026 22.3817L8.85616 22.3544L8.85567 22.3542C8.36768 22.1956 7.94676 22.0589 7.94676 21.7376V21.7205C7.94676 21.4456 8.19291 21.2432 8.57445 21.2432C8.99838 21.2432 9.50163 21.3841 9.82573 21.5632C9.82573 21.5632 9.92078 21.6248 9.95565 21.5325C9.97479 21.4832 10.1389 21.0415 10.156 20.9937C10.1745 20.9417 10.1416 20.9034 10.1081 20.8829C9.73821 20.6579 9.22676 20.5041 8.69753 20.5041L8.59907 20.5048C7.69787 20.5048 7.06881 21.0491 7.06881 21.8292V21.8456C7.06881 22.6682 7.76283 22.9349 8.41308 23.1209L8.5177 23.153L8.51913 23.1534C8.99237 23.2989 9.39975 23.4241 9.39975 23.7574V23.7738C9.39975 24.0788 9.13445 24.3058 8.70642 24.3058C8.54027 24.3058 8.01035 24.3024 7.43804 23.9407C7.39841 23.9175 7.36823 23.898 7.33963 23.8794L7.3396 23.8794L7.33959 23.8794L7.33957 23.8794L7.33953 23.8794C7.31833 23.8657 7.298 23.8525 7.27531 23.8388C7.24727 23.821 7.17685 23.7903 7.14608 23.8832L6.95189 24.422ZM21.365 24.422C21.3401 24.4871 21.3639 24.5096 21.3783 24.5231C21.3813 24.526 21.3838 24.5284 21.3855 24.5308C21.4569 24.5827 21.5291 24.623 21.6018 24.6637L21.6023 24.664C21.6214 24.6746 21.6405 24.6853 21.6597 24.6962C22.1492 24.9561 22.6115 25.032 23.0949 25.032C24.0795 25.032 24.6908 24.5082 24.6908 23.6651V23.6487C24.6908 22.8692 24.0009 22.5862 23.3534 22.3817L23.2692 22.3544L23.2688 22.3542C22.7808 22.1956 22.3598 22.0589 22.3598 21.7376V21.7205C22.3598 21.4456 22.606 21.2432 22.9875 21.2432C23.4115 21.2432 23.9147 21.3841 24.2388 21.5632C24.2388 21.5632 24.3339 21.6248 24.3687 21.5325C24.3879 21.4832 24.552 21.0415 24.5691 20.9937C24.5875 20.9417 24.5547 20.9034 24.5212 20.8829C24.1513 20.6579 23.6398 20.5041 23.1106 20.5041L23.0122 20.5048C22.111 20.5048 21.4819 21.0491 21.4819 21.8292V21.8456C21.4819 22.6682 22.1759 22.9349 22.8262 23.1209L22.9308 23.153L22.9331 23.1537C23.406 23.299 23.8135 23.4243 23.8135 23.7574V23.7738C23.8135 24.0788 23.5475 24.3058 23.1195 24.3058C22.9534 24.3058 22.4234 24.3024 21.8511 23.9407C21.7971 23.9091 21.7603 23.8851 21.7219 23.8601L21.7219 23.8601L21.6891 23.8388C21.6713 23.8272 21.5879 23.795 21.5592 23.8832L21.365 24.422ZM30.9429 23.889C31.1179 23.6237 31.2068 23.2483 31.2068 22.7717C31.2068 22.2958 31.1179 21.9211 30.9436 21.6586C30.7699 21.3987 30.508 21.2722 30.1429 21.2722C29.7771 21.2722 29.5166 21.3987 29.3463 21.6586C29.174 21.9211 29.0865 22.2958 29.0865 22.7717C29.0865 23.2483 29.174 23.6244 29.3463 23.889C29.5166 24.1522 29.7771 24.2794 30.1429 24.2794C30.508 24.2794 30.7699 24.1516 30.9429 23.889ZM31.6547 21.1745C31.8222 21.3748 31.948 21.6155 32.0287 21.8883C32.1094 22.1598 32.1497 22.4572 32.1497 22.7717C32.1497 23.0863 32.1094 23.3837 32.0287 23.6551C31.948 23.928 31.8222 24.1686 31.6547 24.369C31.4872 24.57 31.2745 24.7307 31.0236 24.8449C30.772 24.9591 30.4759 25.0172 30.1429 25.0172C29.8092 25.0172 29.5132 24.9591 29.2615 24.8449C29.0106 24.7307 28.7979 24.57 28.6304 24.369C28.4622 24.168 28.3371 23.9273 28.2557 23.6551C28.1757 23.3844 28.1354 23.0869 28.1354 22.7717C28.1354 22.4565 28.1757 22.1598 28.2557 21.8883C28.3371 21.6162 28.4629 21.3755 28.6297 21.1745C28.7979 20.9734 29.0099 20.8121 29.2615 20.6945C29.5125 20.5775 29.8092 20.518 30.1429 20.518C30.4759 20.518 30.7726 20.5775 31.0236 20.6945C31.2752 20.8121 31.4872 20.9734 31.6547 21.1745ZM38.7771 24.1523C38.7497 24.0723 38.6725 24.1024 38.6725 24.1024C38.5528 24.1482 38.4256 24.1906 38.2902 24.2118C38.1528 24.233 38.0017 24.244 37.8396 24.244C37.4417 24.244 37.1258 24.1257 36.8995 23.8918C36.6725 23.658 36.5453 23.2799 36.5466 22.7684C36.548 22.3028 36.6601 21.9527 36.8619 21.686C37.0622 21.4207 37.3672 21.2846 37.774 21.2846C38.1131 21.2846 38.3716 21.3236 38.6424 21.4091C38.6424 21.4091 38.7073 21.4371 38.7381 21.3523C38.7505 21.3179 38.7623 21.2851 38.7739 21.2533C38.7836 21.2263 38.7932 21.1999 38.8026 21.1739C38.8464 21.0535 38.8877 20.9396 38.9398 20.7903C38.9617 20.7281 38.9083 20.7014 38.8892 20.6939C38.7825 20.6522 38.5309 20.5845 38.3408 20.5558C38.163 20.5284 37.9552 20.514 37.7241 20.514C37.3788 20.514 37.0711 20.5728 36.8078 20.6905C36.5453 20.8074 36.3224 20.9687 36.146 21.1698C35.9695 21.3708 35.8355 21.6115 35.746 21.8836C35.6571 22.1551 35.6119 22.4532 35.6119 22.7684C35.6119 23.4501 35.7959 24.0012 36.1589 24.4046C36.5227 24.8094 37.069 25.0152 37.7815 25.0152C38.2027 25.0152 38.6348 24.9298 38.9453 24.8074C38.9453 24.8074 39.0048 24.7787 38.9788 24.7096L38.7771 24.1523ZM40.4401 21.658C40.3272 21.8296 40.2541 22.0498 40.2151 22.3144H42.1994C42.1796 22.0594 42.1296 21.8296 42.0148 21.658C41.8418 21.3982 41.6004 21.2546 41.2353 21.2546C40.8701 21.2546 40.6103 21.3975 40.4401 21.658ZM42.626 21.0816C42.7395 21.2033 42.9125 21.4693 42.9823 21.7325C43.1487 22.3174 43.079 22.8278 43.0667 22.9183L43.065 22.9312C43.0575 23.0023 42.9843 23.0036 42.9843 23.0036L40.2021 23.0009C40.2199 23.4235 40.3204 23.7229 40.5262 23.9267C40.7266 24.1257 41.0466 24.2529 41.478 24.2535C42.0802 24.2548 42.3686 24.1444 42.5657 24.069C42.5845 24.0618 42.6025 24.0549 42.6199 24.0484C42.6199 24.0484 42.6972 24.0204 42.7245 24.0963L42.9064 24.6057C42.9433 24.6918 42.9139 24.7219 42.8831 24.739C42.7088 24.8354 42.2855 25.0146 41.4821 25.0173C41.0917 25.018 40.7519 24.9619 40.4722 24.8539C40.1905 24.7452 39.9553 24.5893 39.7727 24.3903C39.5895 24.1927 39.4541 23.9541 39.3693 23.6833C39.2852 23.4146 39.2428 23.1158 39.2428 22.7951C39.2428 22.4799 39.2838 22.1811 39.3652 21.9069C39.4459 21.6313 39.5731 21.3886 39.7419 21.1848C39.9108 20.9804 40.1262 20.8163 40.3826 20.6959C40.6384 20.5756 40.9536 20.5175 41.3009 20.5175C41.599 20.5175 41.8712 20.5818 42.0982 20.6789C42.2719 20.7541 42.4469 20.8888 42.626 21.0816ZM17.9319 22.3148C17.9716 22.0502 18.044 21.83 18.1569 21.6584C18.3271 21.3979 18.5869 21.2549 18.9521 21.2549C19.3172 21.2549 19.5586 21.3985 19.7322 21.6584C19.8464 21.83 19.8963 22.0597 19.9162 22.3148H17.9319ZM20.6984 21.7329C20.6287 21.4696 20.4564 21.2037 20.3428 21.082C20.1637 20.8891 19.9887 20.7544 19.815 20.6792C19.588 20.5821 19.3158 20.5179 19.0177 20.5179C18.671 20.5179 18.3552 20.576 18.0994 20.6963C17.843 20.8167 17.6276 20.9808 17.4587 21.1852C17.2899 21.389 17.1627 21.6317 17.082 21.9073C17.0013 22.1814 16.9596 22.4802 16.9596 22.7955C16.9596 23.1161 17.002 23.4149 17.0861 23.6837C17.1709 23.9544 17.3063 24.1931 17.4895 24.3907C17.6721 24.5896 17.9073 24.7455 18.189 24.8543C18.4687 24.9623 18.8085 25.0184 19.1989 25.0177C20.0023 25.0149 20.4256 24.8358 20.5999 24.7394C20.6307 24.7223 20.6601 24.6922 20.6232 24.6061L20.442 24.0967C20.414 24.0208 20.3367 24.0488 20.3367 24.0488C20.3192 24.0553 20.3011 24.0622 20.2822 24.0695C20.0852 24.1449 19.7973 24.2552 19.1941 24.2539C18.7634 24.2532 18.4434 24.1261 18.243 23.9271C18.0372 23.7233 17.9367 23.4238 17.9189 23.0013L20.7011 23.004C20.7011 23.004 20.7743 23.0026 20.7818 22.9315L20.7835 22.9187C20.7958 22.8283 20.8655 22.3178 20.6984 21.7329ZM11.7567 23.9718C11.7936 24.0279 11.8087 24.0498 11.9174 24.1366C11.9153 24.1359 12.167 24.3336 12.7331 24.2994C13.1311 24.2754 13.4846 24.1995 13.4846 24.1995H13.4839V22.9346C13.4839 22.9346 13.1276 22.8758 12.729 22.8703C12.1615 22.8628 11.9201 23.072 11.9222 23.0713C11.7547 23.1896 11.674 23.3653 11.674 23.6101C11.674 23.7647 11.702 23.8864 11.7567 23.9718ZM12.5902 22.1688C12.7653 22.1688 12.9116 22.1736 13.0244 22.1818C13.0244 22.1818 13.2439 22.2016 13.4832 22.2358V22.1182C13.4832 21.7476 13.4059 21.5718 13.2541 21.4556C13.0982 21.3359 12.8671 21.2758 12.5663 21.2758C12.5663 21.2758 11.8894 21.2669 11.354 21.5582C11.3294 21.5725 11.3082 21.5807 11.3082 21.5807C11.3082 21.5807 11.2418 21.604 11.2172 21.5356L11.0203 21.0064C10.9902 20.9298 11.0449 20.8956 11.0449 20.8956C11.2952 20.7 11.903 20.5824 11.903 20.5824C12.1041 20.5421 12.4398 20.5134 12.6483 20.5134C13.2042 20.5134 13.6343 20.6426 13.9263 20.8983C14.2196 21.1547 14.3687 21.5684 14.3687 22.1264L14.37 24.6706C14.37 24.6706 14.3755 24.7445 14.3065 24.7616C14.3065 24.7616 14.2039 24.7896 14.1116 24.8115C14.0186 24.8327 13.6835 24.9004 13.4107 24.9469C13.1352 24.9941 12.8507 25.0173 12.5656 25.0173C12.2948 25.0173 12.0473 24.992 11.8292 24.9421C11.6076 24.8922 11.4169 24.8095 11.2624 24.6966C11.1065 24.5838 10.9841 24.4375 10.8993 24.2618C10.8145 24.0867 10.7721 23.8727 10.7721 23.6265C10.7721 23.3845 10.822 23.1684 10.9205 22.9852C11.0189 22.8019 11.155 22.6474 11.3239 22.5264C11.4921 22.406 11.6876 22.3151 11.9051 22.257C12.1212 22.1989 12.3516 22.1688 12.5902 22.1688ZM35.467 20.7479C35.4882 20.685 35.4437 20.6549 35.4253 20.6481C35.3781 20.6296 35.1415 20.5797 34.9589 20.5681C34.6095 20.5469 34.4153 20.6057 34.2417 20.6836C34.0694 20.7616 33.8779 20.8874 33.7712 21.0303V20.6918C33.7712 20.6447 33.7377 20.6071 33.6912 20.6071H32.9781C32.9316 20.6071 32.8981 20.6447 32.8981 20.6918V24.8416C32.8981 24.8881 32.9364 24.9264 32.9829 24.9264H33.7138C33.7603 24.9264 33.7979 24.8881 33.7979 24.8416V22.7684C33.7979 22.4901 33.8287 22.2125 33.8902 22.0382C33.9504 21.8659 34.0324 21.7277 34.1336 21.6286C34.2355 21.5301 34.3511 21.4611 34.4776 21.4221C34.6068 21.3824 34.7497 21.3694 34.8509 21.3694C34.9965 21.3694 35.1565 21.4071 35.1565 21.4071C35.2099 21.4132 35.24 21.3804 35.2577 21.3318C35.3056 21.2047 35.441 20.8238 35.467 20.7479ZM16.176 24.8413C16.176 24.8878 16.1425 24.9254 16.096 24.9254H15.3582C15.3118 24.9254 15.2789 24.8878 15.2789 24.8413V18.9035C15.2789 18.857 15.3118 18.8194 15.3582 18.8194H16.096C16.1425 18.8194 16.176 18.857 16.176 18.9035V24.8413Z" fill="#039BDA"/>
</svg>
