<svg width="48" height="48" viewBox="0 0 48 48" fill="none" xmlns="http://www.w3.org/2000/svg">
<path d="M41.251 36.5826L31.0935 30.7292C29.6665 29.9097 27.8417 30.3971 27.0158 31.8205C26.6958 32.3813 26.5704 32.9981 26.631 33.5977V45.0369C26.631 46.6717 27.9628 48.0002 29.606 48.0002C31.2448 48.0002 32.5767 46.6717 32.5767 45.0369V38.4589L38.2673 41.7371C39.6943 42.561 41.5234 42.0692 42.345 40.6458C43.1709 39.2224 42.6823 37.4021 41.251 36.5826Z" fill="#29B5E8"/>
<path d="M15.9887 24.0387C16.006 22.9819 15.4482 21.9985 14.5315 21.4679L4.37398 15.6189C3.93292 15.3644 3.42699 15.2307 2.92106 15.2307C1.87893 15.2307 0.91032 15.7871 0.391419 16.6843C-0.412876 18.0733 0.0671073 19.8547 1.45949 20.657L7.31442 24.0258L1.45949 27.3989C0.784919 27.7871 0.300612 28.4125 0.101701 29.1631C-0.101536 29.9136 0.00224443 30.6986 0.391419 31.3715C0.91032 32.2687 1.87893 32.8252 2.91674 32.8252C3.42699 32.8252 3.93292 32.6914 4.37398 32.437L14.5315 26.588C15.4395 26.0617 15.9974 25.0869 15.9887 24.0387Z" fill="#29B5E8"/>
<path d="M6.67725 11.4737L16.8347 17.3227C18.0196 18.0085 19.4811 17.7842 20.4151 16.8741C21.0076 16.3306 21.3751 15.5542 21.3751 14.6915V2.96763C21.3751 1.32853 20.0433 0 18.4044 0C16.7612 0 15.4294 1.32853 15.4294 2.96763V9.6405L9.66093 6.31916C8.23395 5.4953 6.40915 5.98272 5.58323 7.40615C4.75732 8.82957 5.25027 10.6498 6.67725 11.4737Z" fill="#29B5E8"/>
<path d="M29.5183 24.5141C29.5183 24.7383 29.3885 25.0489 29.2285 25.2128L25.2027 29.2286C25.0427 29.3882 24.7271 29.5176 24.5022 29.5176H23.4774C23.2525 29.5176 22.9369 29.3882 22.7769 29.2286L18.7468 25.2128C18.5868 25.0489 18.457 24.7383 18.457 24.5141V23.4918C18.457 23.2632 18.5868 22.9526 18.7468 22.793L22.7769 18.7729C22.9369 18.6133 23.2525 18.4839 23.4774 18.4839H24.5022C24.7271 18.4839 25.0427 18.6133 25.2027 18.7729L29.2285 22.793C29.3885 22.9526 29.5183 23.2632 29.5183 23.4918V24.5141ZM25.9249 24.0223V23.9792C25.9249 23.8153 25.8297 23.5867 25.713 23.4659L24.5238 22.284C24.4071 22.1632 24.1779 22.0683 24.0093 22.0683H23.966C23.8017 22.0683 23.5725 22.1632 23.4514 22.284L22.2666 23.4659C22.1499 23.5824 22.0547 23.811 22.0547 23.9792V24.0223C22.0547 24.1905 22.1499 24.4192 22.2666 24.5356L23.4514 25.7218C23.5725 25.8383 23.8017 25.9332 23.966 25.9332H24.0093C24.1779 25.9332 24.4071 25.8383 24.5238 25.7218L25.713 24.5356C25.8297 24.4192 25.9249 24.1905 25.9249 24.0223Z" fill="#29B5E8"/>
<path d="M31.0923 17.3227L41.2498 11.4737C42.6768 10.6542 43.1697 8.82957 42.3438 7.40615C41.5179 5.98272 39.6931 5.4953 38.2661 6.31916L32.5755 9.59736V2.96763C32.5755 1.32853 31.2437 0 29.6048 0C27.9616 0 26.6298 1.32853 26.6298 2.96763V14.4586C26.5736 15.0538 26.6903 15.675 27.0146 16.2357C27.8405 17.6591 29.6653 18.1466 31.0923 17.3227Z" fill="#29B5E8"/>
<path d="M18.8714 30.3841C18.1968 30.2546 17.4747 30.3625 16.8347 30.7291L6.67725 36.5824C5.25027 37.402 4.75732 39.2223 5.58323 40.6457C6.40915 42.0734 8.23395 42.5608 9.66093 41.737L15.4294 38.4156V45.0367C15.4294 46.6715 16.7612 48.0001 18.4044 48.0001C20.0433 48.0001 21.3751 46.6715 21.3751 45.0367V33.3129C21.3751 31.8334 20.2897 30.6083 18.8714 30.3841Z" fill="#29B5E8"/>
<path d="M47.5975 16.6501C46.7759 15.2223 44.9468 14.7349 43.5198 15.5588L33.3624 21.4078C32.3894 21.9685 31.8532 22.9951 31.8705 24.039C31.8619 25.0785 32.3981 26.0921 33.3624 26.6443L43.5198 32.4976C44.9468 33.3171 46.7716 32.8297 47.5975 31.4063C48.4235 29.9828 47.9305 28.1626 46.5035 27.3387L40.7524 24.026L46.5035 20.7133C47.9348 19.8938 48.4235 18.0735 47.5975 16.6501Z" fill="#29B5E8"/>
</svg>
