<?xml version="1.0" encoding="utf-8"?>
<!-- Generator: Adobe Illustrator 26.0.0, SVG Export Plug-In . SVG Version: 6.00 Build 0)  -->
<svg version="1.1" id="Layer_1" xmlns="http://www.w3.org/2000/svg" xmlns:xlink="http://www.w3.org/1999/xlink" x="0px" y="0px"
	 viewBox="0 0 550 165" style="enable-background:new 0 0 550 165;" xml:space="preserve">
<style type="text/css">
	.st0{fill:#FFFFFF;}
</style>
<g>
	<g>
		<polygon class="st0" points="26.5,72.5 64.1,94.1 64.1,115.7 69.9,119.1 69.9,90.7 30.9,68.3 30.9,57.2 53.6,44 74.7,56.1
			80.5,52.8 59.5,40.6 74.9,31.7 95.9,43.9 101.8,40.5 74.9,25 25,53.8 25,71.7 		"/>
		<polygon class="st0" points="90.4,86.1 109.1,75.3 109.1,68.5 84.6,82.7 84.6,127.7 75,133.2 52.2,120.2 52.2,95.9 46.3,92.5
			46.3,116.8 30.9,107.9 30.9,83.7 25,80.3 25,111.3 75,140 90.5,131 90.5,129.3 		"/>
		<polygon class="st0" points="124.8,53.7 109.2,44.8 107.8,45.6 70.3,67.3 51.5,56.5 45.7,59.9 70.3,74.1 109.3,51.6 118.9,57.1
			119,83.3 97.9,95.5 97.9,102.2 119,90.1 119,107.8 97.9,120 98,126.7 124.9,111.2 		"/>
	</g>
	<g>
		<g>
			<g>
				<path class="st0" d="M156.4,69.8v11.7H175v6.1h-18.6v14.7h-7.2V63.8h28.2v6L156.4,69.8L156.4,69.8z"/>
			</g>
		</g>
		<g>
			<g>
				<path class="st0" d="M214.7,96.4v6h-28.9V63.8h28.2v6h-21v10h18.6v5.9h-18.6v10.6L214.7,96.4L214.7,96.4z"/>
			</g>
		</g>
		<g>
			<g>
				<path class="st0" d="M249.3,102.4l-7.9-11.3c-0.3,0-0.8,0.1-1.5,0.1h-8.7v11.2h-7.2V63.8h15.9c3.3,0,6.3,0.5,8.7,1.7
					s4.4,2.7,5.7,4.7c1.3,2.1,2,4.5,2,7.3c0,2.9-0.7,5.4-2.1,7.5c-1.4,2.1-3.4,3.6-6.1,4.7l8.9,12.7L249.3,102.4L249.3,102.4z
					 M246.7,71.9c-1.6-1.3-4-2-7.1-2h-8.4v15.4h8.4c3.1,0,5.5-0.7,7.1-2c1.6-1.3,2.4-3.2,2.4-5.7C249.1,75.1,248.3,73.2,246.7,71.9z
					"/>
			</g>
		</g>
		<g>
			<g>
				<path class="st0" d="M291,102.4l-7.9-11.3c-0.3,0-0.8,0.1-1.5,0.1h-8.7v11.2h-7.2V63.8h15.9c3.3,0,6.3,0.5,8.7,1.7
					c2.5,1.1,4.4,2.7,5.7,4.7c1.3,2.1,2,4.5,2,7.3c0,2.9-0.7,5.4-2.1,7.5c-1.4,2.1-3.4,3.6-6.1,4.7l8.9,12.7L291,102.4L291,102.4z
					 M288.4,71.9c-1.6-1.3-4-2-7.1-2h-8.4v15.4h8.4c3.1,0,5.5-0.7,7.1-2c1.6-1.3,2.4-3.2,2.4-5.7C290.8,75.1,290,73.2,288.4,71.9z"
					/>
			</g>
		</g>
		<g>
			<g>
				<path class="st0" d="M307.4,63.8h7.2v38.5h-7.2L307.4,63.8L307.4,63.8z"/>
			</g>
		</g>
		<g>
			<g>
				<path class="st0" d="M329.7,101.6c-2.8-0.8-5-2-6.6-3.4l2.5-5.6c1.6,1.2,3.5,2.3,5.8,3.1c2.3,0.8,4.6,1.2,6.9,1.2
					c2.9,0,5-0.5,6.4-1.4c1.4-0.9,2.1-2.1,2.1-3.6c0-1.1-0.4-2-1.2-2.7c-0.8-0.7-1.8-1.3-3-1.7c-1.2-0.4-2.9-0.9-5-1.4
					c-2.9-0.7-5.3-1.4-7.1-2.1c-1.8-0.7-3.4-1.8-4.7-3.3s-2-3.5-2-6c0-2.1,0.6-4.1,1.7-5.8c1.2-1.7,2.9-3.1,5.2-4.2
					c2.3-1,5.2-1.5,8.6-1.5c2.4,0,4.7,0.3,6.9,0.9c2.3,0.6,4.2,1.4,5.9,2.5l-2.3,5.6c-1.7-1-3.5-1.7-5.3-2.3
					c-1.8-0.5-3.6-0.8-5.3-0.8c-2.8,0-4.9,0.5-6.3,1.4c-1.4,1-2.1,2.2-2.1,3.8c0,1.1,0.4,2,1.2,2.7c0.8,0.7,1.8,1.2,3,1.7
					c1.2,0.4,2.9,0.9,5,1.4c2.9,0.7,5.2,1.3,7.1,2.1c1.8,0.7,3.4,1.8,4.7,3.3c1.3,1.5,2,3.4,2,5.9c0,2.1-0.6,4.1-1.7,5.8
					c-1.2,1.7-2.9,3.1-5.3,4.1c-2.4,1-5.2,1.5-8.6,1.5C335.4,102.9,332.5,102.5,329.7,101.6z"/>
			</g>
		</g>
		<g>
			<g>
				<path class="st0" d="M379.7,63.8h5.5v33.7h20.9v4.8h-26.4V63.8z"/>
			</g>
		</g>
		<g>
			<g>
				<path class="st0" d="M438.5,92.7H418l-4.2,9.6h-5.7l17.5-38.5h5.5l17.5,38.5h-5.8L438.5,92.7z M436.6,88.3l-8.3-18.9L420,88.3
					L436.6,88.3L436.6,88.3z"/>
			</g>
		</g>
		<g>
			<g>
				<path class="st0" d="M487,85.8c1.3,1.6,1.9,3.7,1.9,6.2c0,3.3-1.3,5.9-3.8,7.7c-2.5,1.8-6.2,2.7-11,2.7h-18.4V63.8H473
					c4.4,0,7.8,0.9,10.2,2.6c2.4,1.8,3.6,4.2,3.6,7.3c0,2-0.5,3.8-1.4,5.2c-0.9,1.5-2.2,2.6-3.8,3.4C483.9,83,485.7,84.1,487,85.8z
					 M461.2,68.3v12.3h11.3c2.8,0,5-0.5,6.5-1.6c1.5-1,2.3-2.6,2.3-4.6c0-2-0.8-3.5-2.3-4.6c-1.5-1-3.7-1.6-6.5-1.6L461.2,68.3
					L461.2,68.3z M480.9,96.4c1.6-1,2.4-2.6,2.4-4.8c0-4.3-3.1-6.4-9.4-6.4h-12.7v12.8h12.7C477,97.9,479.4,97.4,480.9,96.4z"/>
			</g>
		</g>
		<g>
			<g>
				<path class="st0" d="M501.7,101.5c-2.7-0.9-4.8-2.1-6.4-3.5l2-4.3c1.5,1.3,3.4,2.4,5.7,3.2c2.3,0.8,4.7,1.2,7.1,1.2
					c3.2,0,5.6-0.5,7.2-1.6c1.6-1.1,2.4-2.5,2.4-4.3c0-1.3-0.4-2.4-1.3-3.2c-0.9-0.8-1.9-1.5-3.2-1.9c-1.3-0.4-3.1-0.9-5.4-1.5
					c-2.9-0.7-5.2-1.4-7-2.1c-1.8-0.7-3.3-1.8-4.6-3.2c-1.3-1.4-1.9-3.4-1.9-5.9c0-2.1,0.5-3.9,1.6-5.6s2.7-3,4.9-4
					c2.2-1,4.9-1.5,8.2-1.5c2.3,0,4.5,0.3,6.7,0.9c2.2,0.6,4.1,1.4,5.7,2.5l-1.8,4.4c-1.6-1-3.3-1.8-5.2-2.3
					c-1.8-0.5-3.6-0.8-5.4-0.8c-3.1,0-5.5,0.6-7,1.7c-1.6,1.1-2.3,2.6-2.3,4.4c0,1.3,0.4,2.4,1.3,3.2c0.9,0.8,2,1.5,3.3,1.9
					c1.3,0.5,3.1,0.9,5.3,1.5c2.9,0.7,5.2,1.4,7,2.1c1.8,0.7,3.3,1.8,4.5,3.2c1.3,1.4,1.9,3.4,1.9,5.8c0,2-0.6,3.9-1.7,5.5
					c-1.1,1.7-2.8,3-5,4c-2.2,1-5,1.5-8.3,1.5C507.2,102.8,504.4,102.3,501.7,101.5z"/>
			</g>
		</g>
	</g>
</g>
</svg>
