<?xml version="1.0" encoding="utf-8"?>
<!-- Generator: Adobe Illustrator 26.0.0, SVG Export Plug-In . SVG Version: 6.00 Build 0)  -->
<svg version="1.1" id="Layer_1" xmlns="http://www.w3.org/2000/svg" xmlns:xlink="http://www.w3.org/1999/xlink" x="0px" y="0px"
	 viewBox="0 0 2500 750" style="enable-background:new 0 0 2500 750;" xml:space="preserve">
<style type="text/css">
	.st0{fill:#FFFFFF;}
</style>
<g>
	<g>
		<g>
			<g>
				<path class="st0" d="M827,228.9v53.3h84.6v27.5H827v67.2h-32.5V201.6h127.9v27.3H827L827,228.9z"/>
				<path class="st0" d="M1091.5,349.6v27.3H960.1V201.6H1088v27.3h-95.3v45.5h84.6v26.8h-84.6v48.3H1091.5L1091.5,349.6z"/>
				<path class="st0" d="M1248.7,376.9l-35.8-51.3c-1.5,0.2-3.8,0.2-6.8,0.2h-39.5v51h-32.5V201.6h72.1c15.2,0,28.4,2.5,39.7,7.5
					c11.3,5,19.9,12.2,25.9,21.5s9,20.4,9,33.3c0,13.2-3.2,24.5-9.6,34s-15.6,16.6-27.7,21.3l40.3,57.6L1248.7,376.9L1248.7,376.9z
					 M1236.9,238.1c-7.3-6-18.1-9-32.3-9h-38v69.9h38c14.2,0,24.9-3,32.3-9.1c7.3-6.1,11-14.7,11-25.9
					C1247.9,252.8,1244.3,244.1,1236.9,238.1z"/>
				<path class="st0" d="M1437.9,376.9l-35.8-51.3c-1.5,0.2-3.8,0.2-6.8,0.2h-39.5v51h-32.5V201.6h72.1c15.2,0,28.4,2.5,39.7,7.5
					c11.3,5,19.9,12.2,25.9,21.5s9,20.4,9,33.3c0,13.2-3.2,24.5-9.6,34s-15.6,16.6-27.7,21.3l40.3,57.6L1437.9,376.9L1437.9,376.9z
					 M1426.1,238.1c-7.3-6-18.1-9-32.3-9h-38v69.9h38c14.2,0,24.9-3,32.3-9.1c7.3-6.1,11-14.7,11-25.9
					C1437.1,252.8,1433.5,244.1,1426.1,238.1z"/>
				<path class="st0" d="M1512.5,201.6h32.5v175.3h-32.5V201.6L1512.5,201.6z"/>
				<path class="st0" d="M1613.7,373.6c-12.6-3.8-22.6-8.9-29.9-15.3l11.3-25.3c7.2,5.7,16,10.3,26.4,13.9
					c10.4,3.6,20.9,5.4,31.4,5.4c13,0,22.7-2.1,29.2-6.3c6.4-4.2,9.6-9.7,9.6-16.5c0-5-1.8-9.1-5.4-12.4c-3.6-3.2-8.1-5.8-13.6-7.6
					s-13-3.9-22.5-6.3c-13.3-3.2-24.2-6.3-32.4-9.5s-15.3-8.1-21.3-14.9c-6-6.8-8.9-15.9-8.9-27.4c0-9.7,2.6-18.5,7.9-26.4
					c5.3-7.9,13.2-14.2,23.8-18.9c10.6-4.7,23.6-7,38.9-7c10.7,0,21.2,1.3,31.5,4c10.3,2.7,19.3,6.5,26.8,11.5l-10.3,25.3
					c-7.7-4.5-15.7-7.9-24-10.3c-8.3-2.3-16.4-3.5-24.3-3.5c-12.8,0-22.4,2.2-28.7,6.5c-6.3,4.3-9.4,10.1-9.4,17.3
					c0,5,1.8,9.1,5.4,12.3s8.1,5.7,13.6,7.5c5.5,1.8,13,3.9,22.5,6.3c13,3,23.7,6.1,32,9.4c8.3,3.2,15.5,8.2,21.4,14.9
					c5.9,6.7,8.9,15.7,8.9,27c0,9.7-2.6,18.4-7.9,26.3c-5.3,7.8-13.2,14.1-23.9,18.8c-10.7,4.7-23.7,7-39,7
					C1639.3,379.4,1626.3,377.5,1613.7,373.6z"/>
				<path class="st0" d="M1840.3,201.6h25v153.5h94.8v21.8h-119.9L1840.3,201.6L1840.3,201.6z"/>
				<path class="st0" d="M2107.6,333.1h-93.1l-19.3,43.8h-25.8l79.3-175.3h24.8l79.6,175.3h-26.3L2107.6,333.1z M2098.8,313.1
					l-37.8-85.9l-37.8,85.9H2098.8L2098.8,313.1z"/>
				<path class="st0" d="M2327.3,301.3c5.8,7.4,8.8,16.8,8.8,28.2c0,15.2-5.7,26.9-17.1,35c-11.4,8.2-28.1,12.3-49.9,12.3h-83.6
					V201.6h78.6c20,0,35.5,4,46.4,12s16.4,19.1,16.4,33.3c0,9.2-2.1,17.1-6.4,23.8c-4.2,6.7-10,11.8-17.1,15.3
					C2313.5,288.8,2321.5,293.9,2327.3,301.3z M2210.4,221.9V278h51.3c12.9,0,22.7-2.4,29.7-7.1c6.9-4.8,10.4-11.7,10.4-20.9
					c0-9.2-3.5-16.1-10.4-20.9s-16.8-7.1-29.7-7.1L2210.4,221.9L2210.4,221.9z M2300,349.6c7.2-4.7,10.8-12,10.8-22
					c0-19.5-14.3-29.3-42.8-29.3h-57.6v58.3h57.6C2282.2,356.6,2292.9,354.3,2300,349.6z"/>
				<path class="st0" d="M2394,372.8c-12.3-4.1-21.9-9.4-28.9-15.9l9.3-19.5c6.7,6,15.2,10.9,25.6,14.6s21.1,5.6,32.2,5.6
					c14.5,0,25.4-2.5,32.5-7.4c7.2-4.9,10.8-11.5,10.8-19.7c0-6-2-10.9-5.9-14.6c-3.9-3.7-8.8-6.6-14.5-8.6
					c-5.7-2-13.9-4.2-24.4-6.8c-13.2-3.2-23.8-6.3-31.9-9.5c-8.1-3.2-15-8-20.8-14.6s-8.6-15.5-8.6-26.7c0-9.3,2.5-17.8,7.4-25.3
					c4.9-7.5,12.4-13.5,22.4-18s22.4-6.8,37.3-6.8c10.3,0,20.5,1.3,30.5,4s18.6,6.5,25.8,11.5l-8.3,20c-7.3-4.7-15.2-8.2-23.5-10.6
					c-8.3-2.4-16.5-3.6-24.5-3.6c-14.2,0-24.8,2.6-31.9,7.8c-7.1,5.2-10.6,11.8-10.6,20c0,6,2,10.9,6,14.6c4,3.8,9,6.7,14.9,8.8
					c5.9,2.1,14,4.3,24.1,6.6c13.2,3.2,23.8,6.3,31.8,9.5s14.9,8,20.6,14.5c5.7,6.5,8.6,15.3,8.6,26.3c0,9.2-2.5,17.6-7.5,25.2
					c-5,7.6-12.6,13.6-22.8,18c-10.2,4.4-22.7,6.6-37.5,6.6C2419,378.9,2406.3,376.9,2394,372.8z"/>
			</g>
			<g>
				<path class="st0" d="M1142.5,532.1h-46.8l-10.1,22.4h-9.2l38.4-84.1h8.8l38.4,84.1h-9.3L1142.5,532.1z M1139.2,524.9l-20.2-45.1
					l-20.2,45.1H1139.2z"/>
				<path class="st0" d="M1181.8,470.6h8.9v76.4h47v7.7h-55.9V470.6z"/>
				<path class="st0" d="M1258.4,470.6h8.9v76.4h47v7.7h-55.9V470.6L1258.4,470.6z"/>
				<path class="st0" d="M1372.5,470.6h34.2c8.9,0,16.7,1.8,23.5,5.3c6.8,3.5,12.1,8.5,15.8,14.9c3.8,6.4,5.6,13.6,5.6,21.8
					c0,8.2-1.9,15.4-5.6,21.8c-3.8,6.4-9,11.3-15.8,14.9c-6.8,3.6-14.6,5.3-23.5,5.3h-34.2V470.6z M1406.2,546.9
					c7.4,0,13.8-1.5,19.3-4.4s9.8-7,12.8-12.1c3-5.2,4.6-11.1,4.6-17.8c0-6.7-1.5-12.7-4.6-17.8s-7.3-9.2-12.8-12.1
					s-11.9-4.4-19.3-4.4h-24.8v68.7H1406.2z"/>
				<path class="st0" d="M1529,532.1h-46.8l-10.1,22.4h-9.2l38.4-84.1h8.8l38.4,84.1h-9.3L1529,532.1z M1525.8,524.9l-20.2-45.1
					l-20.2,45.1H1525.8z"/>
				<path class="st0" d="M1580.5,478.3H1551v-7.7h67.9v7.7h-29.5v76.4h-8.9V478.3z"/>
				<path class="st0" d="M1687.4,532.1h-46.8l-10.1,22.4h-9.2l38.4-84.1h8.8l38.4,84.1h-9.3L1687.4,532.1z M1684.2,524.9l-20.2-45.1
					l-20.2,45.1H1684.2z"/>
				<path class="st0" d="M1834.4,470.6v84.1h-7.3l-54-68.2v68.2h-8.9v-84.1h7.3l54.1,68.2v-68.2L1834.4,470.6L1834.4,470.6z"/>
				<path class="st0" d="M1927.1,546.9v7.7h-59.4v-84.1h57.6v7.7h-48.7v29.9h43.4v7.6h-43.4V547L1927.1,546.9L1927.1,546.9z"/>
				<path class="st0" d="M2013.3,546.9v7.7h-59.4v-84.1h57.6v7.7h-48.7v29.9h43.4v7.6h-43.4V547L2013.3,546.9L2013.3,546.9z"/>
				<path class="st0" d="M2040.2,470.6h34.2c8.9,0,16.7,1.8,23.5,5.3c6.8,3.6,12.1,8.5,15.8,14.9c3.8,6.4,5.6,13.6,5.6,21.8
					c0,8.2-1.9,15.4-5.6,21.8c-3.8,6.4-9,11.3-15.8,14.9c-6.8,3.6-14.6,5.3-23.5,5.3h-34.2V470.6z M2073.9,546.9
					c7.4,0,13.8-1.5,19.3-4.4s9.8-7,12.8-12.1c3-5.2,4.6-11.1,4.6-17.8c0-6.7-1.5-12.7-4.6-17.8s-7.3-9.2-12.8-12.1
					s-11.9-4.4-19.3-4.4H2049v68.7H2073.9z"/>
				<path class="st0" d="M2150.4,552.3c-5.7-2-10.1-4.6-13.2-7.9l3.5-6.8c3,3,7.1,5.5,12.1,7.4s10.2,2.8,15.6,2.8
					c7.5,0,13.1-1.4,16.9-4.1c3.8-2.7,5.6-6.3,5.6-10.7c0-3.4-1-6-3.1-8s-4.5-3.5-7.5-4.6c-3-1.1-7.1-2.3-12.4-3.5
					c-6.3-1.6-11.4-3.1-15.1-4.6c-3.8-1.5-7-3.7-9.7-6.8c-2.7-3-4-7.2-4-12.3c0-4.2,1.1-8.1,3.4-11.6c2.2-3.5,5.7-6.3,10.3-8.3
					c4.6-2.1,10.4-3.1,17.3-3.1c4.8,0,9.5,0.7,14.1,2s8.6,3.1,11.9,5.5l-3,7.1c-3.5-2.3-7.3-4.1-11.3-5.2c-4-1.2-7.9-1.7-11.8-1.7
					c-7.4,0-12.9,1.4-16.6,4.3c-3.7,2.8-5.6,6.5-5.6,11c0,3.4,1,6.1,3.1,8.1c2.1,2,4.6,3.6,7.7,4.7c3.1,1.1,7.2,2.3,12.4,3.5
					c6.2,1.5,11.1,3,14.9,4.5c3.8,1.5,7,3.7,9.6,6.7s4,7.1,4,12.2c0,4.2-1.1,8.1-3.4,11.6c-2.3,3.5-5.8,6.2-10.5,8.3
					c-4.7,2-10.5,3.1-17.4,3.1C2162.1,555.2,2156.2,554.2,2150.4,552.3z"/>
			</g>
		</g>
	</g>
	<g>
		<polygon class="st0" points="9.7,309.9 254,450.8 254.1,591.6 292.3,613.5 292.1,428.7 38.2,282.3 38.2,209.9 186,124.2 
			323,203.2 361.1,181.1 224.1,102 324.3,44 461.2,123 499.3,101 324.3,0 0,187.8 0.1,304.5 		"/>
		<polygon class="st0" points="425.4,398.4 547.2,327.9 547.1,283.8 387.3,376.4 387.6,669.5 324.8,705.9 176.8,620.6 176.6,462.5 
			138.5,440.4 138.6,598.7 38.3,540.8 38.2,382.6 0.1,360.6 0.2,562.9 324.8,750 425.8,691.6 425.7,680.5 		"/>
		<polygon class="st0" points="649,187.3 547.8,129.1 538.3,134.6 294.4,276 172.5,205.8 134.4,227.8 294.4,320.1 548,173.2 
			610.8,209.4 611,380.4 474.2,459.6 474.1,503.6 611.1,424.4 611.2,540.3 474.4,619.5 474.4,663.5 649.3,562.2 		"/>
	</g>
</g>
</svg>
